<svg width="38" height="38" viewBox="0 0 38 38" fill="none" xmlns="http://www.w3.org/2000/svg">
<g clip-path="url(#clip0_5_1606)">
<path d="M22.2576 28.4093C22.1595 28.4095 22.0624 28.3904 21.9717 28.353C21.881 28.3156 21.7986 28.2607 21.7293 28.1913C21.6599 28.1219 21.605 28.0396 21.5676 27.9489C21.5302 27.8582 21.5111 27.7611 21.5113 27.663L21.5113 26.1704C21.5111 26.0723 21.5302 25.9752 21.5676 25.8845C21.605 25.7938 21.6599 25.7115 21.7293 25.6421C21.7986 25.5727 21.881 25.5178 21.9717 25.4804C22.0624 25.443 22.1595 25.4239 22.2576 25.4241L25.2427 25.4241C25.4406 25.4242 25.6304 25.5028 25.7704 25.6428C25.9103 25.7827 25.989 25.9725 25.989 26.1704L25.989 27.663C25.9893 27.7611 25.9702 27.8582 25.9328 27.9489C25.8954 28.0396 25.8404 28.1219 25.771 28.1913C25.7017 28.2607 25.6193 28.3156 25.5286 28.353C25.438 28.3904 25.3408 28.4095 25.2427 28.4093H22.2576ZM22.2576 12.5759C22.1595 12.5762 22.0624 12.5571 21.9717 12.5197C21.881 12.4823 21.7986 12.4273 21.7293 12.358C21.6599 12.2886 21.605 12.2063 21.5676 12.1156C21.5302 12.0249 21.5111 11.9277 21.5113 11.8297L21.5113 10.3371C21.5111 10.239 21.5302 10.1419 21.5676 10.0512C21.605 9.96053 21.6599 9.87815 21.7293 9.80879C21.7986 9.73944 21.881 9.68448 21.9717 9.64707C22.0624 9.60967 22.1595 9.59056 22.2576 9.59084L25.2427 9.59084C25.4406 9.59087 25.6304 9.6695 25.7704 9.80945C25.9103 9.9494 25.989 10.1392 25.989 10.3371L25.989 11.8297C25.9893 11.9277 25.9702 12.0249 25.9328 12.1156C25.8954 12.2063 25.8404 12.2886 25.771 12.358C25.7017 12.4273 25.6193 12.4823 25.5286 12.5197C25.438 12.5571 25.3408 12.5762 25.2427 12.5759L22.2576 12.5759Z" fill="#597A90"/>
<path d="M8.44464 12.6666C9.5002 13.7221 13.7224 18.9999 13.7224 18.9999C13.7224 18.9999 9.5002 24.2777 8.44464 25.3332C7.38909 26.3888 6.33353 25.3332 6.33353 24.2777C6.33353 23.2221 7.38909 18.9999 7.38909 18.9999C7.38909 18.9999 6.33354 14.7777 6.33354 13.7221C6.33354 12.6666 7.38909 11.611 8.44464 12.6666ZM17.924 5.29827C19.528 6.86101 30.6113 18.9999 30.6113 18.9999C30.6113 18.9999 19.4878 31.0986 17.9246 32.702C16.3613 34.3054 14.3542 33.3559 15.8858 30.6643C17.4174 27.9726 22.1668 18.9999 22.1668 18.9999C22.1668 18.9999 17.1329 9.30357 15.8847 7.33232C14.2502 4.74991 16.3201 3.73446 17.924 5.29827Z" fill="#72C1FD"/>
<path d="M31.6668 15.8332C33.778 15.8332 36.9446 17.9443 36.9446 18.9998C36.9446 20.0554 33.778 22.1665 31.6668 22.1665C29.5557 22.1665 12.1391 21.6387 12.1391 21.6387C12.1391 21.6387 6.33355 20.5832 6.33355 18.9998C6.33355 17.4165 12.1391 16.3609 12.1391 16.3609C12.1391 16.3609 29.5557 15.8332 31.6668 15.8332Z" fill="#E9F4FC"/>
<path d="M14.7778 18.9999C14.7778 18.9999 14.7778 19.5276 10.0278 19.5276C5.27784 19.5276 5.27784 18.9999 5.27784 18.9999C5.27784 18.9999 5.27784 18.4721 10.0278 18.4721C14.7778 18.4721 14.7778 18.9999 14.7778 18.9999ZM32.1945 17.4165C32.6144 17.8365 32.8503 18.406 32.8503 18.9999C32.8503 19.5937 32.6144 20.1633 32.1945 20.5832L32.6193 21.008C32.8457 20.902 33.0627 20.7705 33.25 20.5832C33.6699 20.1633 33.9059 19.5937 33.9059 18.9999C33.9059 18.406 33.6699 17.8365 33.25 17.4165C33.0627 17.2292 32.8457 17.0978 32.6193 16.9917L32.1945 17.4165Z" fill="#597A90"/>
</g>
<defs>
<clipPath id="clip0_5_1606">
<rect width="26.87" height="26.87" fill="white" transform="translate(19) rotate(45)"/>
</clipPath>
</defs>
</svg>
