<svg width="146" height="237" viewBox="0 0 146 237" fill="none" xmlns="http://www.w3.org/2000/svg">
<path d="M104.1 2C107.436 2 110.141 4.70481 110.141 8.04102C110.14 11.084 107.89 13.5997 104.963 14.0186V37.3818H127.399C136.931 37.3818 144.659 45.1087 144.659 54.6406V202.207C144.659 211.739 136.931 219.467 127.399 219.467H121.359V225.508C121.359 230.75 117.109 235 111.866 235C106.624 235 102.374 230.75 102.374 225.508V219.467H44.5557V225.508C44.5554 230.75 40.305 235 35.0625 235C29.8202 235 25.5705 230.75 25.5703 225.508V219.467H18.666C9.13421 219.467 1.40723 211.739 1.40723 202.207V54.6406C1.4073 45.1088 9.13425 37.3821 18.666 37.3818H41.1035V14.0186C38.1763 13.5997 35.9259 11.084 35.9258 8.04102C35.9258 4.70481 38.6306 2 41.9668 2H104.1ZM52.3223 14.0811V37.3818H92.8809V14.0811H52.3223Z" fill="url(#paint0_linear_45_2916)"/>
<path d="M104.1 2V0.705556V2ZM110.141 8.04102L111.435 8.04107V8.04102H110.141ZM104.963 14.0186L104.78 12.7372L103.668 12.8962V14.0186H104.963ZM104.963 37.3818H103.668V38.6763H104.963V37.3818ZM144.659 54.6406H145.954V54.6406L144.659 54.6406ZM121.359 219.467V218.172H120.065V219.467H121.359ZM121.359 225.508L122.654 225.508V225.508H121.359ZM111.866 235L111.866 236.294H111.866V235ZM102.374 225.508H101.08V225.508L102.374 225.508ZM102.374 219.467H103.668V218.172H102.374V219.467ZM44.5557 219.467V218.172H43.2612V219.467H44.5557ZM44.5557 225.508L45.8501 225.508V225.508H44.5557ZM35.0625 235L35.0625 236.294H35.0625V235ZM25.5703 225.508H24.2759V225.508L25.5703 225.508ZM25.5703 219.467H26.8648V218.172H25.5703V219.467ZM18.666 219.467L18.666 220.761H18.666V219.467ZM1.40723 54.6406L0.112782 54.6406V54.6406H1.40723ZM18.666 37.3818V36.0874H18.666L18.666 37.3818ZM41.1035 37.3818V38.6763H42.398V37.3818H41.1035ZM41.1035 14.0186H42.398V12.8961L41.2869 12.7372L41.1035 14.0186ZM35.9258 8.04102H34.6313V8.04107L35.9258 8.04102ZM41.9668 2V3.29444V2ZM52.3223 14.0811V12.7866H51.0278V14.0811H52.3223ZM52.3223 37.3818H51.0278V38.6763H52.3223V37.3818ZM92.8809 37.3818V38.6763H94.1753V37.3818H92.8809ZM92.8809 14.0811H94.1753V12.7866H92.8809V14.0811ZM104.1 2V3.29444C106.721 3.29444 108.846 5.41971 108.846 8.04102H110.141H111.435C111.435 3.9899 108.151 0.705556 104.1 0.705556V2ZM110.141 8.04102L108.846 8.04096C108.846 10.4302 107.079 12.4081 104.78 12.7372L104.963 14.0186L105.146 15.2999C108.701 14.7912 111.435 11.7378 111.435 8.04107L110.141 8.04102ZM104.963 14.0186H103.668V37.3818H104.963H106.257V14.0186H104.963ZM104.963 37.3818V38.6763H127.399V37.3818V36.0874H104.963V37.3818ZM127.399 37.3818V38.6763C136.217 38.6763 143.365 45.8236 143.365 54.6406L144.659 54.6406L145.954 54.6406C145.954 44.3937 137.646 36.0874 127.399 36.0874V37.3818ZM144.659 54.6406H143.365V202.207H144.659H145.954V54.6406H144.659ZM144.659 202.207H143.365C143.365 211.024 136.217 218.172 127.399 218.172V219.467V220.761C137.646 220.761 145.954 212.454 145.954 202.207H144.659ZM127.399 219.467V218.172H121.359V219.467V220.761H127.399V219.467ZM121.359 219.467H120.065V225.508H121.359H122.654V219.467H121.359ZM121.359 225.508L120.065 225.508C120.065 230.035 116.394 233.706 111.866 233.706V235V236.294C117.823 236.294 122.654 231.465 122.654 225.508L121.359 225.508ZM111.866 235L111.866 233.706C107.339 233.705 103.669 230.035 103.668 225.508L102.374 225.508L101.08 225.508C101.08 231.465 105.909 236.294 111.866 236.294L111.866 235ZM102.374 225.508H103.668V219.467H102.374H101.08V225.508H102.374ZM102.374 219.467V218.172H44.5557V219.467V220.761H102.374V219.467ZM44.5557 219.467H43.2612V225.508H44.5557H45.8501V219.467H44.5557ZM44.5557 225.508L43.2612 225.508C43.261 230.035 39.5902 233.706 35.0625 233.706V235V236.294C41.0198 236.294 45.8499 231.465 45.8501 225.508L44.5557 225.508ZM35.0625 235L35.0625 233.706C30.5351 233.705 26.8649 230.035 26.8648 225.508L25.5703 225.508L24.2759 225.508C24.2761 231.465 29.1052 236.294 35.0625 236.294L35.0625 235ZM25.5703 225.508H26.8648V219.467H25.5703H24.2759V225.508H25.5703ZM25.5703 219.467V218.172H18.666V219.467V220.761H25.5703V219.467ZM18.666 219.467L18.666 218.172C9.84918 218.172 2.70167 211.024 2.70167 202.207H1.40723H0.112782C0.112782 212.454 8.41923 220.761 18.666 220.761L18.666 219.467ZM1.40723 202.207H2.70167V54.6406H1.40723H0.112782V202.207H1.40723ZM1.40723 54.6406L2.70167 54.6406C2.70174 45.8237 9.84914 38.6765 18.666 38.6763L18.666 37.3818L18.666 36.0874C8.41937 36.0877 0.112866 44.3939 0.112782 54.6406L1.40723 54.6406ZM18.666 37.3818V38.6763H41.1035V37.3818V36.0874H18.666V37.3818ZM41.1035 37.3818H42.398V14.0186H41.1035H39.8091V37.3818H41.1035ZM41.1035 14.0186L41.2869 12.7372C38.9876 12.4082 37.2203 10.4303 37.2202 8.04096L35.9258 8.04102L34.6313 8.04107C34.6315 11.7378 37.365 14.7913 40.9202 15.2999L41.1035 14.0186ZM35.9258 8.04102H37.2202C37.2202 5.41971 39.3455 3.29444 41.9668 3.29444V2V0.705556C37.9157 0.705555 34.6313 3.9899 34.6313 8.04102H35.9258ZM41.9668 2V3.29444H104.1V2V0.705556H41.9668V2ZM52.3223 14.0811H51.0278V37.3818H52.3223H53.6167V14.0811H52.3223ZM52.3223 37.3818V38.6763H92.8809V37.3818V36.0874H52.3223V37.3818ZM92.8809 37.3818H94.1753V14.0811H92.8809H91.5864V37.3818H92.8809ZM92.8809 14.0811V12.7866H52.3223V14.0811V15.3755H92.8809V14.0811Z" fill="#E7947E"/>
<defs>
<linearGradient id="paint0_linear_45_2916" x1="73.0331" y1="125.835" x2="73.0331" y2="235" gradientUnits="userSpaceOnUse">
<stop stop-color="#FFD3BF"/>
<stop offset="1" stop-color="#FB9082"/>
</linearGradient>
</defs>
</svg>
