<svg width="147" height="237" viewBox="0 0 147 237" fill="none" xmlns="http://www.w3.org/2000/svg">
<path d="M104.692 2C108.029 2 110.733 4.70481 110.733 8.04102C110.733 11.0841 108.483 13.5997 105.556 14.0186V37.3818H127.992C137.524 37.3818 145.252 45.1087 145.252 54.6406V202.207C145.252 211.739 137.524 219.467 127.992 219.467H121.951V225.508C121.951 230.75 117.701 235 112.459 235C107.216 235 102.966 230.75 102.966 225.508V219.467H45.1475V225.508C45.1473 230.75 40.8978 235 35.6553 235C30.4128 235 26.1623 230.75 26.1621 225.508V219.467H19.2588C9.72697 219.467 2 211.739 2 202.207V54.6406C2.00011 45.1088 9.72704 37.3821 19.2588 37.3818H41.6963V14.0186C38.7691 13.5997 36.5186 11.0841 36.5186 8.04102C36.5186 4.70481 39.2234 2 42.5596 2H104.692ZM52.915 14.082V37.3818H93.4736V14.082H52.915Z" fill="url(#paint0_linear_45_2933)"/>
<path d="M104.692 2V0.705556V2ZM110.733 8.04102L112.028 8.04103V8.04102H110.733ZM105.556 14.0186L105.372 12.7372L104.261 12.8962V14.0186H105.556ZM105.556 37.3818H104.261V38.6763H105.556V37.3818ZM145.252 54.6406H146.546V54.6406L145.252 54.6406ZM121.951 219.467V218.172H120.657V219.467H121.951ZM121.951 225.508L123.246 225.508V225.508H121.951ZM112.459 235V236.294H112.459L112.459 235ZM102.966 225.508H101.671V225.508L102.966 225.508ZM102.966 219.467H104.26V218.172H102.966V219.467ZM45.1475 219.467V218.172H43.853V219.467H45.1475ZM45.1475 225.508L46.4419 225.508V225.508H45.1475ZM35.6553 235V236.294H35.6553L35.6553 235ZM26.1621 225.508H24.8677V225.508L26.1621 225.508ZM26.1621 219.467H27.4566V218.172H26.1621V219.467ZM19.2588 219.467L19.2588 220.761H19.2588V219.467ZM2 54.6406L0.705556 54.6406V54.6406H2ZM19.2588 37.3818V36.0874H19.2588L19.2588 37.3818ZM41.6963 37.3818V38.6763H42.9907V37.3818H41.6963ZM41.6963 14.0186H42.9907V12.8962L41.8797 12.7372L41.6963 14.0186ZM36.5186 8.04102H35.2241V8.04103L36.5186 8.04102ZM42.5596 2V3.29444V2ZM52.915 14.082V12.7876H51.6206V14.082H52.915ZM52.915 37.3818H51.6206V38.6763H52.915V37.3818ZM93.4736 37.3818V38.6763H94.7681V37.3818H93.4736ZM93.4736 14.082H94.7681V12.7876H93.4736V14.082ZM104.692 2V3.29444C107.314 3.29444 109.439 5.41971 109.439 8.04102H110.733H112.028C112.028 3.9899 108.743 0.705556 104.692 0.705556V2ZM110.733 8.04102L109.439 8.041C109.439 10.4303 107.672 12.4081 105.372 12.7372L105.556 14.0186L105.739 15.2999C109.294 14.7912 112.028 11.7379 112.028 8.04103L110.733 8.04102ZM105.556 14.0186H104.261V37.3818H105.556H106.85V14.0186H105.556ZM105.556 37.3818V38.6763H127.992V37.3818V36.0874H105.556V37.3818ZM127.992 37.3818V38.6763C136.809 38.6763 143.957 45.8237 143.958 54.6406L145.252 54.6406L146.546 54.6406C146.546 44.3937 138.239 36.0874 127.992 36.0874V37.3818ZM145.252 54.6406H143.958V202.207H145.252H146.546V54.6406H145.252ZM145.252 202.207H143.958C143.958 211.024 136.809 218.172 127.992 218.172V219.467V220.761C138.239 220.761 146.546 212.454 146.546 202.207H145.252ZM127.992 219.467V218.172H121.951V219.467V220.761H127.992V219.467ZM121.951 219.467H120.657V225.508H121.951H123.246V219.467H121.951ZM121.951 225.508L120.657 225.508C120.657 230.035 116.987 233.706 112.459 233.706L112.459 235L112.459 236.294C118.416 236.294 123.245 231.465 123.246 225.508L121.951 225.508ZM112.459 235V233.706C107.931 233.706 104.26 230.035 104.26 225.508L102.966 225.508L101.671 225.508C101.672 231.465 106.502 236.294 112.459 236.294V235ZM102.966 225.508H104.26V219.467H102.966H101.671V225.508H102.966ZM102.966 219.467V218.172H45.1475V219.467V220.761H102.966V219.467ZM45.1475 219.467H43.853V225.508H45.1475H46.4419V219.467H45.1475ZM45.1475 225.508L43.853 225.508C43.8529 230.035 40.1828 233.706 35.6553 233.706L35.6553 235L35.6553 236.294C41.6127 236.294 46.4417 231.465 46.4419 225.508L45.1475 225.508ZM35.6553 235V233.706C31.1275 233.706 27.4567 230.035 27.4566 225.508L26.1621 225.508L24.8677 225.508C24.8678 231.465 29.698 236.294 35.6553 236.294V235ZM26.1621 225.508H27.4566V219.467H26.1621H24.8677V225.508H26.1621ZM26.1621 219.467V218.172H19.2588V219.467V220.761H26.1621V219.467ZM19.2588 219.467L19.2588 218.172C10.4419 218.172 3.29444 211.024 3.29444 202.207H2H0.705556C0.705556 212.454 9.012 220.761 19.2588 220.761L19.2588 219.467ZM2 202.207H3.29444V54.6406H2H0.705556V202.207H2ZM2 54.6406L3.29444 54.6406C3.29454 45.8238 10.4419 38.6765 19.2588 38.6763L19.2588 37.3818L19.2588 36.0874C9.01215 36.0877 0.705672 44.3939 0.705556 54.6406L2 54.6406ZM19.2588 37.3818V38.6763H41.6963V37.3818V36.0874H19.2588V37.3818ZM41.6963 37.3818H42.9907V14.0186H41.6963H40.4018V37.3818H41.6963ZM41.6963 14.0186L41.8797 12.7372C39.5803 12.4081 37.813 10.4303 37.813 8.041L36.5186 8.04102L35.2241 8.04103C35.2242 11.7379 37.9578 14.7912 41.5129 15.2999L41.6963 14.0186ZM36.5186 8.04102H37.813C37.813 5.41971 39.9383 3.29444 42.5596 3.29444V2V0.705556C38.5085 0.705555 35.2241 3.9899 35.2241 8.04102H36.5186ZM42.5596 2V3.29444H104.692V2V0.705556H42.5596V2ZM52.915 14.082H51.6206V37.3818H52.915H54.2095V14.082H52.915ZM52.915 37.3818V38.6763H93.4736V37.3818V36.0874H52.915V37.3818ZM93.4736 37.3818H94.7681V14.082H93.4736H92.1792V37.3818H93.4736ZM93.4736 14.082V12.7876H52.915V14.082V15.3765H93.4736V14.082Z" fill="#B9C57A"/>
<defs>
<linearGradient id="paint0_linear_45_2933" x1="73.6259" y1="125.835" x2="73.6259" y2="235" gradientUnits="userSpaceOnUse">
<stop stop-color="#F7FFDA"/>
<stop offset="1" stop-color="#D9E4A0"/>
</linearGradient>
</defs>
</svg>
