<svg width="140" height="27" viewBox="0 0 140 27" fill="none" xmlns="http://www.w3.org/2000/svg">
<mask id="path-1-outside-1_24_8508" maskUnits="userSpaceOnUse" x="-1" y="0" width="141" height="27" fill="black">
<rect fill="white" x="-1" width="141" height="27"/>
<path d="M1.67896 10.9182C1.67896 6.27778 3.53985 3.78089 7.21451 3.78089C10.8892 3.78089 12.7501 6.27778 12.7501 10.9182C12.7501 15.5587 10.8892 18.0556 7.21451 18.0556C3.53985 18.0556 1.67896 15.5587 1.67896 10.9182ZM9.85274 10.9182C9.85274 7.95022 9.16963 6.39556 7.21451 6.39556C5.2594 6.39556 4.57629 7.95022 4.57629 10.9182C4.57629 13.8862 5.2594 15.4409 7.21451 15.4409C9.16963 15.4409 9.85274 13.8862 9.85274 10.9182ZM19.2985 3.828V21.8716C19.2985 22.7431 18.5683 23.1436 17.8145 23.1436C17.0607 23.1436 16.3305 22.7431 16.3305 21.8716V14.7813H14.2576C13.5274 14.7813 13.2212 14.1924 13.2212 13.4858C13.2212 12.8027 13.5274 12.2138 14.2576 12.2138H16.3305V9.62267H14.2576C13.5274 9.62267 13.2212 9.03378 13.2212 8.32711C13.2212 7.644 13.5274 7.05511 14.2576 7.05511H16.3305V3.828C16.3305 2.95644 17.0607 2.556 17.8145 2.556C18.5683 2.556 19.2985 2.95644 19.2985 3.828ZM27.5231 8.28C30.3733 8.28 32.0929 9.764 32.0929 12.1196C32.0929 14.4751 30.3733 15.9591 27.5231 15.9591C24.6729 15.9591 22.9533 14.4751 22.9533 12.1196C22.9533 9.764 24.6729 8.28 27.5231 8.28ZM22.9062 4.888H26.0391V3.71022C26.0391 2.86222 26.7693 2.46178 27.5231 2.46178C28.2769 2.46178 29.0071 2.86222 29.0071 3.71022V4.888H31.7866C32.5169 4.888 32.8466 5.47689 32.8466 6.16C32.8466 6.81955 32.5169 7.40844 31.7866 7.40844H22.9062C22.176 7.40844 21.8462 6.81955 21.8462 6.16C21.8462 5.47689 22.176 4.888 22.9062 4.888ZM27.5231 13.6978C28.7244 13.6978 29.5253 13.0853 29.5253 12.1196C29.5253 11.1538 28.7244 10.5413 27.5231 10.5413C26.3218 10.5413 25.5209 11.1538 25.5209 12.1196C25.5209 13.0853 26.3218 13.6978 27.5231 13.6978ZM36.1915 3.828V8.09155H38.076V3.73378C38.076 2.93289 38.7591 2.556 39.4422 2.556C40.1489 2.556 40.832 2.93289 40.832 3.73378V15.5116C40.832 16.3124 40.1489 16.6893 39.4422 16.6893C38.7591 16.6893 38.076 16.3124 38.076 15.5116V10.612H36.1915V14.5458C36.1915 15.3231 35.5084 15.7 34.8253 15.7C34.1422 15.7 33.4591 15.3231 33.4591 14.5458V3.828C33.4591 3.05067 34.1422 2.67378 34.8253 2.67378C35.5084 2.67378 36.1915 3.05067 36.1915 3.828ZM26.1804 20.7173C26.1804 17.8671 28.9364 16.6187 33.4826 16.6187C38.0289 16.6187 40.7849 17.8907 40.7849 20.7173C40.7849 23.5676 38.0289 24.816 33.4826 24.816C28.9364 24.816 26.1804 23.5676 26.1804 20.7173ZM37.7933 20.7173C37.7933 19.6573 36.5684 18.9978 33.4826 18.9978C30.3969 18.9978 29.172 19.6573 29.172 20.7173C29.172 21.7773 30.3969 22.4369 33.4826 22.4369C36.5684 22.4369 37.7933 21.7773 37.7933 20.7173ZM56.7828 4.58178V6.60756C56.7828 8.02089 57.1597 8.96311 58.1725 9.83467C59.209 10.7062 60.1041 11.4129 60.8108 11.9311C61.4703 12.4022 61.4232 13.156 60.9992 13.7449C60.6459 14.2396 59.8685 14.6164 59.1619 14.1218C58.5965 13.7213 57.725 13.0382 56.8063 12.2609C55.6992 11.3422 55.4165 10.9653 55.2988 10.5178H55.2752C55.1574 11.036 54.8041 11.5071 53.697 12.4258C52.7783 13.2031 51.9068 13.8862 50.9881 14.5458C50.305 15.0404 49.5041 14.6636 49.1508 14.1689C48.7503 13.6036 48.6325 12.7791 49.3628 12.2609C50.3992 11.5071 51.2943 10.8004 52.3308 9.92889C53.3437 9.05733 53.7205 8.11511 53.7205 6.70178V4.58178C53.7205 3.68667 54.4508 3.28622 55.2517 3.28622C56.0525 3.28622 56.7828 3.68667 56.7828 4.58178ZM63.7317 9.31644H60.7872C60.057 9.31644 59.7272 8.72756 59.7272 8.04444C59.7272 7.33778 60.057 6.74889 60.7872 6.74889H63.7317V3.828C63.7317 2.95644 64.4619 2.556 65.2392 2.556C65.993 2.556 66.7232 2.95644 66.7232 3.828V14.2631C66.7232 15.1347 65.993 15.5351 65.2392 15.5351C64.4619 15.5351 63.7317 15.1347 63.7317 14.2631V9.31644ZM52.5663 20.2462C52.5663 17.184 55.2517 15.6764 59.6801 15.6764C64.1085 15.6764 66.7939 17.184 66.7939 20.2462C66.7939 23.3084 64.1085 24.816 59.6801 24.816C55.2517 24.816 52.5663 23.3084 52.5663 20.2462ZM63.8023 20.2462C63.8023 18.9507 62.6481 18.0791 59.6801 18.0791C56.7121 18.0791 55.5579 18.9507 55.5579 20.2462C55.5579 21.5418 56.7121 22.4133 59.6801 22.4133C62.6481 22.4133 63.8023 21.5418 63.8023 20.2462ZM75.9136 8.13867C79.1171 8.13867 81.0958 9.57556 81.0958 11.9782C81.0958 14.3809 79.1171 15.8178 75.9136 15.8178C72.71 15.8178 70.7313 14.3809 70.7313 11.9782C70.7313 9.57556 72.71 8.13867 75.9136 8.13867ZM70.4722 4.74667H74.406V3.59244C74.406 2.72089 75.1362 2.32044 75.9136 2.32044C76.6909 2.32044 77.4211 2.72089 77.4211 3.59244V4.74667H81.1193C81.8496 4.74667 82.1793 5.33556 82.1793 6.01867C82.1793 6.67822 81.8496 7.26711 81.1193 7.26711H70.4722C69.742 7.26711 69.4122 6.67822 69.4122 6.01867C69.4122 5.33556 69.742 4.74667 70.4722 4.74667ZM75.9136 13.5329C77.586 13.5329 78.3869 12.8733 78.3869 11.9782C78.3869 11.0831 77.586 10.4236 75.9136 10.4236C74.2411 10.4236 73.4402 11.0831 73.4402 11.9782C73.4402 12.8733 74.2411 13.5329 75.9136 13.5329ZM86.5607 3.828V6.06578H88.5864C89.3167 6.06578 89.6464 6.65467 89.6464 7.33778C89.6464 8.02089 89.3167 8.60978 88.5864 8.60978H86.5607V10.0467H88.5864C89.3167 10.0467 89.6464 10.6356 89.6464 11.3187C89.6464 12.0018 89.3167 12.5907 88.5864 12.5907H86.5607V15.1582C86.5607 16.0298 85.8304 16.4302 85.0767 16.4302C84.2993 16.4302 83.5691 16.0298 83.5691 15.1582V3.828C83.5691 2.95644 84.2993 2.556 85.0767 2.556C85.8304 2.556 86.5607 2.95644 86.5607 3.828ZM72.8278 20.7173C72.8278 17.8671 75.4189 16.6187 79.7296 16.6187C84.0402 16.6187 86.6313 17.8671 86.6313 20.7173C86.6313 23.5676 84.0402 24.816 79.7296 24.816C75.4189 24.816 72.8278 23.5676 72.8278 20.7173ZM83.6633 20.7173C83.6633 19.6573 82.5798 18.9742 79.7296 18.9742C76.8793 18.9742 75.7958 19.6573 75.7958 20.7173C75.7958 21.7773 76.8793 22.4604 79.7296 22.4604C82.5798 22.4604 83.6633 21.7773 83.6633 20.7173ZM103.289 6.06578H98.0123C97.2821 6.06578 96.9523 5.47689 96.9523 4.79378C96.9523 4.11067 97.2821 3.52178 98.0123 3.52178H104.82C106.327 3.52178 106.822 3.99289 106.822 5.47689V6.93733C106.822 10.2351 105.903 10.9182 98.6483 14.1689C97.9181 14.4987 97.2115 14.0511 96.9052 13.4151C96.6461 12.8498 96.6461 11.9782 97.447 11.6249C103.783 8.84533 103.831 8.60978 103.831 6.84311V6.60756C103.831 6.20711 103.689 6.06578 103.289 6.06578ZM111.18 7.90311H108.683C107.976 7.90311 107.694 7.33778 107.694 6.65467C107.694 5.97156 107.976 5.40622 108.683 5.40622H111.18V3.828C111.18 2.95644 111.91 2.556 112.664 2.556C113.418 2.556 114.148 2.95644 114.148 3.828V12.52C114.148 13.3916 113.418 13.792 112.664 13.792C111.91 13.792 111.18 13.3916 111.18 12.52V11.8369H108.495C107.788 11.8369 107.505 11.2716 107.505 10.5884C107.505 9.90533 107.788 9.34 108.495 9.34H111.18V7.90311ZM101.923 18.456H110.662C111.062 18.456 111.203 18.3147 111.203 17.9142V17.5844C111.203 17.184 111.062 17.0427 110.662 17.0427H100.863C100.179 17.0427 99.8732 16.4773 99.8732 15.8413C99.8732 15.2289 100.179 14.6636 100.863 14.6636H112.146C113.653 14.6636 114.148 15.1347 114.148 16.6187V18.7858C114.148 20.2698 113.653 20.7409 112.146 20.7409H103.407C103.006 20.7409 102.865 20.8822 102.865 21.2827V21.6124C102.865 22.0129 103.006 22.1542 103.407 22.1542H113.63C114.313 22.1542 114.619 22.7196 114.619 23.3556C114.619 23.968 114.313 24.5333 113.63 24.5333H101.923C100.415 24.5333 99.9203 24.0622 99.9203 22.5782V20.4111C99.9203 18.9271 100.415 18.456 101.923 18.456ZM125.717 6.84311H119.028C118.297 6.84311 117.968 6.25422 117.968 5.54756C117.968 4.84089 118.297 4.252 119.028 4.252H127.248C128.756 4.252 129.251 4.72311 129.251 6.20711V7.99733C129.251 10.1173 129.015 12.2844 128.662 13.58C128.473 14.2867 127.743 14.6164 126.872 14.4516C126.118 14.3102 125.6 13.8156 125.764 12.9676C126.094 11.3658 126.259 9.764 126.259 8.16222V7.38489C126.259 6.98444 126.118 6.84311 125.717 6.84311ZM134.386 3.80444V10.2116H136.294C137.048 10.2116 137.377 10.8004 137.377 11.5071C137.377 12.2373 137.048 12.8262 136.294 12.8262H134.386V21.8951C134.386 22.7431 133.679 23.1436 132.902 23.1436C132.124 23.1436 131.418 22.7431 131.418 21.8951V3.80444C131.418 2.95644 132.124 2.556 132.902 2.556C133.679 2.556 134.386 2.95644 134.386 3.80444ZM129.58 19.0213C126.542 19.2804 122.231 19.4218 117.944 19.4218C117.214 19.4218 116.884 18.8329 116.884 18.1498C116.884 17.4667 117.214 16.8778 117.944 16.8778C118.839 16.8778 119.734 16.9013 120.653 16.8778V11.8133C120.653 10.9418 121.383 10.5413 122.137 10.5413C122.891 10.5413 123.621 10.9418 123.621 11.8133V16.8307C125.552 16.7836 127.484 16.6893 129.368 16.5244C130.099 16.4538 130.452 16.972 130.499 17.6551C130.546 18.3147 130.287 18.9507 129.58 19.0213Z"/>
</mask>
<path d="M1.67896 10.9182C1.67896 6.27778 3.53985 3.78089 7.21451 3.78089C10.8892 3.78089 12.7501 6.27778 12.7501 10.9182C12.7501 15.5587 10.8892 18.0556 7.21451 18.0556C3.53985 18.0556 1.67896 15.5587 1.67896 10.9182ZM9.85274 10.9182C9.85274 7.95022 9.16963 6.39556 7.21451 6.39556C5.2594 6.39556 4.57629 7.95022 4.57629 10.9182C4.57629 13.8862 5.2594 15.4409 7.21451 15.4409C9.16963 15.4409 9.85274 13.8862 9.85274 10.9182ZM19.2985 3.828V21.8716C19.2985 22.7431 18.5683 23.1436 17.8145 23.1436C17.0607 23.1436 16.3305 22.7431 16.3305 21.8716V14.7813H14.2576C13.5274 14.7813 13.2212 14.1924 13.2212 13.4858C13.2212 12.8027 13.5274 12.2138 14.2576 12.2138H16.3305V9.62267H14.2576C13.5274 9.62267 13.2212 9.03378 13.2212 8.32711C13.2212 7.644 13.5274 7.05511 14.2576 7.05511H16.3305V3.828C16.3305 2.95644 17.0607 2.556 17.8145 2.556C18.5683 2.556 19.2985 2.95644 19.2985 3.828ZM27.5231 8.28C30.3733 8.28 32.0929 9.764 32.0929 12.1196C32.0929 14.4751 30.3733 15.9591 27.5231 15.9591C24.6729 15.9591 22.9533 14.4751 22.9533 12.1196C22.9533 9.764 24.6729 8.28 27.5231 8.28ZM22.9062 4.888H26.0391V3.71022C26.0391 2.86222 26.7693 2.46178 27.5231 2.46178C28.2769 2.46178 29.0071 2.86222 29.0071 3.71022V4.888H31.7866C32.5169 4.888 32.8466 5.47689 32.8466 6.16C32.8466 6.81955 32.5169 7.40844 31.7866 7.40844H22.9062C22.176 7.40844 21.8462 6.81955 21.8462 6.16C21.8462 5.47689 22.176 4.888 22.9062 4.888ZM27.5231 13.6978C28.7244 13.6978 29.5253 13.0853 29.5253 12.1196C29.5253 11.1538 28.7244 10.5413 27.5231 10.5413C26.3218 10.5413 25.5209 11.1538 25.5209 12.1196C25.5209 13.0853 26.3218 13.6978 27.5231 13.6978ZM36.1915 3.828V8.09155H38.076V3.73378C38.076 2.93289 38.7591 2.556 39.4422 2.556C40.1489 2.556 40.832 2.93289 40.832 3.73378V15.5116C40.832 16.3124 40.1489 16.6893 39.4422 16.6893C38.7591 16.6893 38.076 16.3124 38.076 15.5116V10.612H36.1915V14.5458C36.1915 15.3231 35.5084 15.7 34.8253 15.7C34.1422 15.7 33.4591 15.3231 33.4591 14.5458V3.828C33.4591 3.05067 34.1422 2.67378 34.8253 2.67378C35.5084 2.67378 36.1915 3.05067 36.1915 3.828ZM26.1804 20.7173C26.1804 17.8671 28.9364 16.6187 33.4826 16.6187C38.0289 16.6187 40.7849 17.8907 40.7849 20.7173C40.7849 23.5676 38.0289 24.816 33.4826 24.816C28.9364 24.816 26.1804 23.5676 26.1804 20.7173ZM37.7933 20.7173C37.7933 19.6573 36.5684 18.9978 33.4826 18.9978C30.3969 18.9978 29.172 19.6573 29.172 20.7173C29.172 21.7773 30.3969 22.4369 33.4826 22.4369C36.5684 22.4369 37.7933 21.7773 37.7933 20.7173ZM56.7828 4.58178V6.60756C56.7828 8.02089 57.1597 8.96311 58.1725 9.83467C59.209 10.7062 60.1041 11.4129 60.8108 11.9311C61.4703 12.4022 61.4232 13.156 60.9992 13.7449C60.6459 14.2396 59.8685 14.6164 59.1619 14.1218C58.5965 13.7213 57.725 13.0382 56.8063 12.2609C55.6992 11.3422 55.4165 10.9653 55.2988 10.5178H55.2752C55.1574 11.036 54.8041 11.5071 53.697 12.4258C52.7783 13.2031 51.9068 13.8862 50.9881 14.5458C50.305 15.0404 49.5041 14.6636 49.1508 14.1689C48.7503 13.6036 48.6325 12.7791 49.3628 12.2609C50.3992 11.5071 51.2943 10.8004 52.3308 9.92889C53.3437 9.05733 53.7205 8.11511 53.7205 6.70178V4.58178C53.7205 3.68667 54.4508 3.28622 55.2517 3.28622C56.0525 3.28622 56.7828 3.68667 56.7828 4.58178ZM63.7317 9.31644H60.7872C60.057 9.31644 59.7272 8.72756 59.7272 8.04444C59.7272 7.33778 60.057 6.74889 60.7872 6.74889H63.7317V3.828C63.7317 2.95644 64.4619 2.556 65.2392 2.556C65.993 2.556 66.7232 2.95644 66.7232 3.828V14.2631C66.7232 15.1347 65.993 15.5351 65.2392 15.5351C64.4619 15.5351 63.7317 15.1347 63.7317 14.2631V9.31644ZM52.5663 20.2462C52.5663 17.184 55.2517 15.6764 59.6801 15.6764C64.1085 15.6764 66.7939 17.184 66.7939 20.2462C66.7939 23.3084 64.1085 24.816 59.6801 24.816C55.2517 24.816 52.5663 23.3084 52.5663 20.2462ZM63.8023 20.2462C63.8023 18.9507 62.6481 18.0791 59.6801 18.0791C56.7121 18.0791 55.5579 18.9507 55.5579 20.2462C55.5579 21.5418 56.7121 22.4133 59.6801 22.4133C62.6481 22.4133 63.8023 21.5418 63.8023 20.2462ZM75.9136 8.13867C79.1171 8.13867 81.0958 9.57556 81.0958 11.9782C81.0958 14.3809 79.1171 15.8178 75.9136 15.8178C72.71 15.8178 70.7313 14.3809 70.7313 11.9782C70.7313 9.57556 72.71 8.13867 75.9136 8.13867ZM70.4722 4.74667H74.406V3.59244C74.406 2.72089 75.1362 2.32044 75.9136 2.32044C76.6909 2.32044 77.4211 2.72089 77.4211 3.59244V4.74667H81.1193C81.8496 4.74667 82.1793 5.33556 82.1793 6.01867C82.1793 6.67822 81.8496 7.26711 81.1193 7.26711H70.4722C69.742 7.26711 69.4122 6.67822 69.4122 6.01867C69.4122 5.33556 69.742 4.74667 70.4722 4.74667ZM75.9136 13.5329C77.586 13.5329 78.3869 12.8733 78.3869 11.9782C78.3869 11.0831 77.586 10.4236 75.9136 10.4236C74.2411 10.4236 73.4402 11.0831 73.4402 11.9782C73.4402 12.8733 74.2411 13.5329 75.9136 13.5329ZM86.5607 3.828V6.06578H88.5864C89.3167 6.06578 89.6464 6.65467 89.6464 7.33778C89.6464 8.02089 89.3167 8.60978 88.5864 8.60978H86.5607V10.0467H88.5864C89.3167 10.0467 89.6464 10.6356 89.6464 11.3187C89.6464 12.0018 89.3167 12.5907 88.5864 12.5907H86.5607V15.1582C86.5607 16.0298 85.8304 16.4302 85.0767 16.4302C84.2993 16.4302 83.5691 16.0298 83.5691 15.1582V3.828C83.5691 2.95644 84.2993 2.556 85.0767 2.556C85.8304 2.556 86.5607 2.95644 86.5607 3.828ZM72.8278 20.7173C72.8278 17.8671 75.4189 16.6187 79.7296 16.6187C84.0402 16.6187 86.6313 17.8671 86.6313 20.7173C86.6313 23.5676 84.0402 24.816 79.7296 24.816C75.4189 24.816 72.8278 23.5676 72.8278 20.7173ZM83.6633 20.7173C83.6633 19.6573 82.5798 18.9742 79.7296 18.9742C76.8793 18.9742 75.7958 19.6573 75.7958 20.7173C75.7958 21.7773 76.8793 22.4604 79.7296 22.4604C82.5798 22.4604 83.6633 21.7773 83.6633 20.7173ZM103.289 6.06578H98.0123C97.2821 6.06578 96.9523 5.47689 96.9523 4.79378C96.9523 4.11067 97.2821 3.52178 98.0123 3.52178H104.82C106.327 3.52178 106.822 3.99289 106.822 5.47689V6.93733C106.822 10.2351 105.903 10.9182 98.6483 14.1689C97.9181 14.4987 97.2115 14.0511 96.9052 13.4151C96.6461 12.8498 96.6461 11.9782 97.447 11.6249C103.783 8.84533 103.831 8.60978 103.831 6.84311V6.60756C103.831 6.20711 103.689 6.06578 103.289 6.06578ZM111.18 7.90311H108.683C107.976 7.90311 107.694 7.33778 107.694 6.65467C107.694 5.97156 107.976 5.40622 108.683 5.40622H111.18V3.828C111.18 2.95644 111.91 2.556 112.664 2.556C113.418 2.556 114.148 2.95644 114.148 3.828V12.52C114.148 13.3916 113.418 13.792 112.664 13.792C111.91 13.792 111.18 13.3916 111.18 12.52V11.8369H108.495C107.788 11.8369 107.505 11.2716 107.505 10.5884C107.505 9.90533 107.788 9.34 108.495 9.34H111.18V7.90311ZM101.923 18.456H110.662C111.062 18.456 111.203 18.3147 111.203 17.9142V17.5844C111.203 17.184 111.062 17.0427 110.662 17.0427H100.863C100.179 17.0427 99.8732 16.4773 99.8732 15.8413C99.8732 15.2289 100.179 14.6636 100.863 14.6636H112.146C113.653 14.6636 114.148 15.1347 114.148 16.6187V18.7858C114.148 20.2698 113.653 20.7409 112.146 20.7409H103.407C103.006 20.7409 102.865 20.8822 102.865 21.2827V21.6124C102.865 22.0129 103.006 22.1542 103.407 22.1542H113.63C114.313 22.1542 114.619 22.7196 114.619 23.3556C114.619 23.968 114.313 24.5333 113.63 24.5333H101.923C100.415 24.5333 99.9203 24.0622 99.9203 22.5782V20.4111C99.9203 18.9271 100.415 18.456 101.923 18.456ZM125.717 6.84311H119.028C118.297 6.84311 117.968 6.25422 117.968 5.54756C117.968 4.84089 118.297 4.252 119.028 4.252H127.248C128.756 4.252 129.251 4.72311 129.251 6.20711V7.99733C129.251 10.1173 129.015 12.2844 128.662 13.58C128.473 14.2867 127.743 14.6164 126.872 14.4516C126.118 14.3102 125.6 13.8156 125.764 12.9676C126.094 11.3658 126.259 9.764 126.259 8.16222V7.38489C126.259 6.98444 126.118 6.84311 125.717 6.84311ZM134.386 3.80444V10.2116H136.294C137.048 10.2116 137.377 10.8004 137.377 11.5071C137.377 12.2373 137.048 12.8262 136.294 12.8262H134.386V21.8951C134.386 22.7431 133.679 23.1436 132.902 23.1436C132.124 23.1436 131.418 22.7431 131.418 21.8951V3.80444C131.418 2.95644 132.124 2.556 132.902 2.556C133.679 2.556 134.386 2.95644 134.386 3.80444ZM129.58 19.0213C126.542 19.2804 122.231 19.4218 117.944 19.4218C117.214 19.4218 116.884 18.8329 116.884 18.1498C116.884 17.4667 117.214 16.8778 117.944 16.8778C118.839 16.8778 119.734 16.9013 120.653 16.8778V11.8133C120.653 10.9418 121.383 10.5413 122.137 10.5413C122.891 10.5413 123.621 10.9418 123.621 11.8133V16.8307C125.552 16.7836 127.484 16.6893 129.368 16.5244C130.099 16.4538 130.452 16.972 130.499 17.6551C130.546 18.3147 130.287 18.9507 129.58 19.0213Z" fill="url(#paint0_linear_24_8508)"/>
<path d="M16.3305 14.7813H18.0131V13.0988H16.3305V14.7813ZM16.3305 12.2138V13.8963H18.0131V12.2138H16.3305ZM16.3305 9.62267H18.0131V7.94013H16.3305V9.62267ZM16.3305 7.05511V8.73765H18.0131V7.05511H16.3305ZM1.67896 10.9182H3.3615C3.3615 8.78121 3.79672 7.42412 4.40333 6.63399C4.95024 5.92161 5.79458 5.46343 7.21451 5.46343V3.78089V2.09835C4.95979 2.09835 3.03634 2.88862 1.73415 4.58479C0.491642 6.20321 -0.00358054 8.41479 -0.00358054 10.9182H1.67896ZM7.21451 3.78089V5.46343C8.63445 5.46343 9.47879 5.92161 10.0257 6.63399C10.6323 7.42412 11.0675 8.78121 11.0675 10.9182H12.7501H14.4326C14.4326 8.41479 13.9374 6.20321 12.6949 4.58479C11.3927 2.88862 9.46924 2.09835 7.21451 2.09835V3.78089ZM12.7501 10.9182H11.0675C11.0675 13.0552 10.6323 14.4123 10.0257 15.2025C9.47879 15.9148 8.63445 16.373 7.21451 16.373V18.0556V19.7381C9.46924 19.7381 11.3927 18.9478 12.6949 17.2517C13.9374 15.6332 14.4326 13.4217 14.4326 10.9182H12.7501ZM7.21451 18.0556V16.373C5.79458 16.373 4.95024 15.9148 4.40333 15.2025C3.79672 14.4123 3.3615 13.0552 3.3615 10.9182H1.67896H-0.00358054C-0.00358054 13.4217 0.491642 15.6332 1.73415 17.2517C3.03634 18.9478 4.95979 19.7381 7.21451 19.7381V18.0556ZM9.85274 10.9182H11.5353C11.5353 9.37742 11.3712 7.88607 10.7432 6.737C10.4087 6.12496 9.93216 5.59002 9.28118 5.22107C8.63706 4.856 7.92762 4.71302 7.21451 4.71302V6.39556V8.0781C7.47897 8.0781 7.58808 8.12945 7.62192 8.14863C7.6489 8.16392 7.70968 8.20315 7.79036 8.35078C7.99271 8.72104 8.1702 9.49102 8.1702 10.9182H9.85274ZM7.21451 6.39556V4.71302C6.50141 4.71302 5.79197 4.856 5.14785 5.22107C4.49687 5.59002 4.02029 6.12496 3.6858 6.737C3.05782 7.88607 2.89375 9.37742 2.89375 10.9182H4.57629H6.25883C6.25883 9.49102 6.43632 8.72104 6.63867 8.35078C6.71935 8.20315 6.78013 8.16392 6.80711 8.14863C6.84095 8.12945 6.95006 8.0781 7.21451 8.0781V6.39556ZM4.57629 10.9182H2.89375C2.89375 12.459 3.05782 13.9504 3.6858 15.0994C4.02029 15.7115 4.49687 16.2464 5.14785 16.6154C5.79197 16.9804 6.50141 17.1234 7.21451 17.1234V15.4409V13.7583C6.95006 13.7583 6.84095 13.707 6.80711 13.6878C6.78013 13.6725 6.71935 13.6333 6.63867 13.4857C6.43632 13.1154 6.25883 12.3454 6.25883 10.9182H4.57629ZM7.21451 15.4409V17.1234C7.92762 17.1234 8.63706 16.9804 9.28118 16.6154C9.93216 16.2464 10.4087 15.7115 10.7432 15.0994C11.3712 13.9504 11.5353 12.459 11.5353 10.9182H9.85274H8.1702C8.1702 12.3454 7.99271 13.1154 7.79036 13.4857C7.70968 13.6333 7.6489 13.6725 7.62192 13.6878C7.58808 13.707 7.47897 13.7583 7.21451 13.7583V15.4409ZM19.2985 3.828H17.616V21.8716H19.2985H20.9811V3.828H19.2985ZM19.2985 21.8716H17.616C17.616 21.8485 17.6224 21.776 17.6684 21.6842C17.7138 21.5937 17.7749 21.5297 17.8251 21.4918C17.8712 21.457 17.8989 21.4505 17.8909 21.4528C17.8833 21.4551 17.8569 21.461 17.8145 21.461V23.1436V24.8261C18.4619 24.8261 19.2164 24.658 19.8533 24.177C20.5458 23.6539 20.9811 22.8415 20.9811 21.8716H19.2985ZM17.8145 23.1436V21.461C17.7722 21.461 17.7458 21.4551 17.7381 21.4528C17.7302 21.4505 17.7578 21.457 17.8039 21.4918C17.8541 21.5297 17.9153 21.5937 17.9606 21.6842C18.0066 21.776 18.0131 21.8485 18.0131 21.8716H16.3305H14.648C14.648 22.8415 15.0832 23.6539 15.7758 24.177C16.4126 24.658 17.1671 24.8261 17.8145 24.8261V23.1436ZM16.3305 21.8716H18.0131V14.7813H16.3305H14.648V21.8716H16.3305ZM16.3305 14.7813V13.0988H14.2576V14.7813V16.4639H16.3305V14.7813ZM14.2576 14.7813V13.0988C14.3057 13.0988 14.4142 13.1099 14.5451 13.1759C14.6774 13.2426 14.7746 13.3362 14.8359 13.4222C14.9405 13.5691 14.9037 13.6314 14.9037 13.4858H13.2212H11.5386C11.5386 14.0468 11.655 14.7569 12.0953 15.3749C12.5917 16.0716 13.371 16.4639 14.2576 16.4639V14.7813ZM13.2212 13.4858H14.9037C14.9037 13.3618 14.9364 13.4307 14.83 13.5781C14.7684 13.6635 14.6719 13.7553 14.5418 13.8205C14.4127 13.8852 14.3057 13.8963 14.2576 13.8963V12.2138V10.5312C13.3726 10.5312 12.5971 10.9217 12.1011 11.6091C11.6591 12.2218 11.5386 12.9267 11.5386 13.4858H13.2212ZM14.2576 12.2138V13.8963H16.3305V12.2138V10.5312H14.2576V12.2138ZM16.3305 12.2138H18.0131V9.62267H16.3305H14.648V12.2138H16.3305ZM16.3305 9.62267V7.94013H14.2576V9.62267V11.3052H16.3305V9.62267ZM14.2576 9.62267V7.94013C14.3057 7.94013 14.4142 7.9512 14.5451 8.01723C14.6774 8.08394 14.7746 8.17758 14.8359 8.26355C14.9405 8.41039 14.9037 8.47274 14.9037 8.32711H13.2212H11.5386C11.5386 8.88814 11.655 9.59827 12.0953 10.2162C12.5917 10.9129 13.371 11.3052 14.2576 11.3052V9.62267ZM13.2212 8.32711H14.9037C14.9037 8.20309 14.9364 8.27202 14.83 8.41943C14.7684 8.50486 14.6719 8.59663 14.5418 8.66186C14.4127 8.72656 14.3057 8.73765 14.2576 8.73765V7.05511V5.37257C13.3726 5.37257 12.5971 5.76304 12.1011 6.45046C11.6591 7.06309 11.5386 7.76802 11.5386 8.32711H13.2212ZM14.2576 7.05511V8.73765H16.3305V7.05511V5.37257H14.2576V7.05511ZM16.3305 7.05511H18.0131V3.828H16.3305H14.648V7.05511H16.3305ZM16.3305 3.828H18.0131C18.0131 3.85101 18.0066 3.92358 17.9606 4.0154C17.9153 4.1059 17.8541 4.16987 17.8039 4.20776C17.7578 4.2426 17.7302 4.24906 17.7381 4.24674C17.7458 4.24449 17.7722 4.23854 17.8145 4.23854V2.556V0.873459C17.1671 0.873459 16.4126 1.04156 15.7758 1.52257C15.0832 2.04564 14.648 2.8581 14.648 3.828H16.3305ZM17.8145 2.556V4.23854C17.8569 4.23854 17.8833 4.24449 17.8909 4.24674C17.8989 4.24906 17.8712 4.2426 17.8251 4.20776C17.7749 4.16987 17.7138 4.1059 17.6684 4.0154C17.6224 3.92358 17.616 3.85101 17.616 3.828H19.2985H20.9811C20.9811 2.8581 20.5458 2.04564 19.8533 1.52257C19.2164 1.04156 18.4619 0.873459 17.8145 0.873459V2.556ZM26.0391 4.888V6.57054H27.7216V4.888H26.0391ZM29.0071 4.888H27.3245V6.57054H29.0071V4.888ZM36.1915 8.09155H34.509V9.77409H36.1915V8.09155ZM38.076 8.09155V9.77409H39.7585V8.09155H38.076ZM38.076 10.612H39.7585V8.92946H38.076V10.612ZM36.1915 10.612V8.92946H34.509V10.612H36.1915ZM27.5231 8.28V9.96254C28.6719 9.96254 29.3889 10.2614 29.7898 10.6007C30.158 10.9124 30.4103 11.3813 30.4103 12.1196H32.0929H33.7754C33.7754 10.5023 33.168 9.05143 31.9638 8.0322C30.7923 7.04058 29.2245 6.59746 27.5231 6.59746V8.28ZM32.0929 12.1196H30.4103C30.4103 12.8578 30.158 13.3268 29.7898 13.6384C29.3889 13.9777 28.6719 14.2766 27.5231 14.2766V15.9591V17.6417C29.2245 17.6417 30.7923 17.1985 31.9638 16.2069C33.168 15.1877 33.7754 13.7368 33.7754 12.1196H32.0929ZM27.5231 15.9591V14.2766C26.3743 14.2766 25.6572 13.9777 25.2564 13.6384C24.8882 13.3268 24.6358 12.8578 24.6358 12.1196H22.9533H21.2708C21.2708 13.7368 21.8782 15.1877 23.0823 16.2069C24.2538 17.1985 25.8216 17.6417 27.5231 17.6417V15.9591ZM22.9533 12.1196H24.6358C24.6358 11.3813 24.8882 10.9124 25.2564 10.6007C25.6572 10.2614 26.3743 9.96254 27.5231 9.96254V8.28V6.59746C25.8216 6.59746 24.2538 7.04058 23.0823 8.0322C21.8782 9.05143 21.2708 10.5023 21.2708 12.1196H22.9533ZM22.9062 4.888V6.57054H26.0391V4.888V3.20546H22.9062V4.888ZM26.0391 4.888H27.7216V3.71022H26.0391H24.3565V4.888H26.0391ZM26.0391 3.71022H27.7216C27.7216 3.74645 27.712 3.82765 27.6628 3.92389C27.6147 4.0179 27.5517 4.08147 27.5033 4.11747C27.4588 4.15066 27.4334 4.156 27.4435 4.15306C27.4532 4.15026 27.4808 4.14432 27.5231 4.14432V2.46178V0.779237C26.8757 0.779237 26.1264 0.947186 25.4935 1.41853C24.8058 1.93062 24.3565 2.73558 24.3565 3.71022H26.0391ZM27.5231 2.46178V4.14432C27.5654 4.14432 27.593 4.15026 27.6026 4.15306C27.6127 4.156 27.5874 4.15066 27.5428 4.11747C27.4945 4.08147 27.4315 4.0179 27.3834 3.92389C27.3342 3.82765 27.3245 3.74645 27.3245 3.71022H29.0071H30.6896C30.6896 2.73558 30.2403 1.93061 29.5527 1.41853C28.9197 0.947186 28.1704 0.779237 27.5231 0.779237V2.46178ZM29.0071 3.71022H27.3245V4.888H29.0071H30.6896V3.71022H29.0071ZM29.0071 4.888V6.57054H31.7866V4.888V3.20546H29.0071V4.888ZM31.7866 4.888V6.57054C31.7384 6.57054 31.6374 6.55947 31.5162 6.49973C31.3945 6.43971 31.3025 6.35513 31.2424 6.27462C31.1361 6.13232 31.1641 6.05995 31.1641 6.16H32.8466H34.5292C34.5292 5.57693 34.3923 4.86856 33.9385 4.26104C33.4375 3.59009 32.666 3.20546 31.7866 3.20546V4.888ZM32.8466 6.16H31.1641C31.1641 6.23741 31.1411 6.15857 31.2486 6.01653C31.3089 5.93677 31.4 5.85404 31.5195 5.79543C31.6388 5.73698 31.7384 5.7259 31.7866 5.7259V7.40844V9.09098C32.6646 9.09098 33.4321 8.708 33.9324 8.04657C34.3872 7.44521 34.5292 6.74215 34.5292 6.16H32.8466ZM31.7866 7.40844V5.7259H22.9062V7.40844V9.09098H31.7866V7.40844ZM22.9062 7.40844V5.7259C22.9545 5.7259 23.0541 5.73698 23.1733 5.79543C23.2928 5.85404 23.3839 5.93677 23.4443 6.01653C23.5517 6.15857 23.5287 6.23741 23.5287 6.16H21.8462H20.1637C20.1637 6.74215 20.3056 7.44521 20.7605 8.04657C21.2608 8.708 22.0283 9.09098 22.9062 9.09098V7.40844ZM21.8462 6.16H23.5287C23.5287 6.05995 23.5567 6.13232 23.4504 6.27462C23.3903 6.35513 23.2983 6.43971 23.1766 6.49973C23.0555 6.55947 22.9544 6.57054 22.9062 6.57054V4.888V3.20546C22.0268 3.20546 21.2554 3.59009 20.7543 4.26104C20.3006 4.86856 20.1637 5.57693 20.1637 6.16H21.8462ZM27.5231 13.6978V15.3803C28.3913 15.3803 29.2894 15.1603 30.0108 14.5965C30.7722 14.0014 31.2078 13.1164 31.2078 12.1196H29.5253H27.8428C27.8428 12.124 27.8431 12.0897 27.8679 12.0385C27.8927 11.9874 27.924 11.9565 27.9386 11.9451C27.9592 11.929 27.8562 12.0152 27.5231 12.0152V13.6978ZM29.5253 12.1196H31.2078C31.2078 11.1227 30.7722 10.2377 30.0108 9.64256C29.2894 9.07881 28.3913 8.85879 27.5231 8.85879V10.5413V12.2239C27.8562 12.2239 27.9592 12.3101 27.9386 12.294C27.924 12.2826 27.8927 12.2517 27.8679 12.2006C27.8431 12.1494 27.8428 12.1151 27.8428 12.1196H29.5253ZM27.5231 10.5413V8.85879C26.6549 8.85879 25.7568 9.07881 25.0354 9.64256C24.2739 10.2377 23.8383 11.1227 23.8383 12.1196H25.5209H27.2034C27.2034 12.1151 27.2031 12.1494 27.1782 12.2006C27.1534 12.2517 27.1221 12.2826 27.1075 12.294C27.0869 12.3101 27.1899 12.2239 27.5231 12.2239V10.5413ZM25.5209 12.1196H23.8383C23.8383 13.1164 24.2739 14.0014 25.0354 14.5965C25.7568 15.1603 26.6549 15.3803 27.5231 15.3803V13.6978V12.0152C27.1899 12.0152 27.0869 11.929 27.1075 11.9451C27.1221 11.9565 27.1534 11.9874 27.1782 12.0385C27.2031 12.0897 27.2034 12.124 27.2034 12.1196H25.5209ZM36.1915 3.828H34.509V8.09155H36.1915H37.8741V3.828H36.1915ZM36.1915 8.09155V9.77409H38.076V8.09155V6.40901H36.1915V8.09155ZM38.076 8.09155H39.7585V3.73378H38.076H36.3934V8.09155H38.076ZM38.076 3.73378H39.7585C39.7585 3.77923 39.7471 3.8677 39.6953 3.9703C39.6445 4.07082 39.5768 4.14179 39.5198 4.18502C39.4224 4.25892 39.3831 4.23854 39.4422 4.23854V2.556V0.873459C38.8182 0.873459 38.0958 1.04152 37.486 1.50409C36.824 2.0063 36.3934 2.79028 36.3934 3.73378H38.076ZM39.4422 2.556V4.23854C39.5236 4.23854 39.4907 4.26415 39.3926 4.19059C39.335 4.14743 39.2658 4.07568 39.2138 3.97327C39.1609 3.86895 39.1494 3.7792 39.1494 3.73378H40.832H42.5145C42.5145 2.7889 42.0824 2.0016 41.4116 1.49852C40.7953 1.03629 40.0675 0.873459 39.4422 0.873459V2.556ZM40.832 3.73378H39.1494V15.5116H40.832H42.5145V3.73378H40.832ZM40.832 15.5116H39.1494C39.1494 15.4661 39.1609 15.3764 39.2138 15.2721C39.2658 15.1697 39.335 15.0979 39.3926 15.0547C39.4907 14.9812 39.5236 15.0068 39.4422 15.0068V16.6893V18.3719C40.0675 18.3719 40.7953 18.209 41.4116 17.7468C42.0824 17.2437 42.5145 16.4564 42.5145 15.5116H40.832ZM39.4422 16.6893V15.0068C39.3831 15.0068 39.4224 14.9864 39.5198 15.0603C39.5768 15.1035 39.6445 15.1745 39.6953 15.275C39.7471 15.3776 39.7585 15.4661 39.7585 15.5116H38.076H36.3934C36.3934 16.4551 36.824 17.239 37.486 17.7412C38.0958 18.2038 38.8182 18.3719 39.4422 18.3719V16.6893ZM38.076 15.5116H39.7585V10.612H38.076H36.3934V15.5116H38.076ZM38.076 10.612V8.92946H36.1915V10.612V12.2945H38.076V10.612ZM36.1915 10.612H34.509V14.5458H36.1915H37.8741V10.612H36.1915ZM36.1915 14.5458H34.509C34.509 14.4863 34.524 14.3888 34.5792 14.2819C34.6329 14.178 34.7025 14.1076 34.7575 14.0665C34.8508 13.9969 34.8845 14.0175 34.8253 14.0175V15.7V17.3825C35.4492 17.3825 36.1661 17.2147 36.7716 16.7623C37.4281 16.2718 37.8741 15.4954 37.8741 14.5458H36.1915ZM34.8253 15.7V14.0175C34.7661 14.0175 34.7998 13.9969 34.8931 14.0665C34.9481 14.1076 35.0177 14.178 35.0714 14.2819C35.1266 14.3888 35.1416 14.4863 35.1416 14.5458H33.4591H31.7765C31.7765 15.4954 32.2226 16.2718 32.879 16.7623C33.4845 17.2147 34.2014 17.3825 34.8253 17.3825V15.7ZM33.4591 14.5458H35.1416V3.828H33.4591H31.7765V14.5458H33.4591ZM33.4591 3.828H35.1416C35.1416 3.88746 35.1266 3.98493 35.0714 4.09188C35.0177 4.19581 34.9481 4.26618 34.8931 4.30728C34.7999 4.37693 34.7661 4.35632 34.8253 4.35632V2.67378V0.991237C34.2014 0.991237 33.4845 1.15907 32.879 1.6115C32.2226 2.10193 31.7765 2.87835 31.7765 3.828H33.4591ZM34.8253 2.67378V4.35632C34.8845 4.35632 34.8508 4.37693 34.7575 4.30728C34.7025 4.26618 34.6329 4.19581 34.5792 4.09188C34.524 3.98493 34.509 3.88746 34.509 3.828H36.1915H37.8741C37.8741 2.87835 37.4281 2.10193 36.7716 1.6115C36.1661 1.15907 35.4492 0.991237 34.8253 0.991237V2.67378ZM26.1804 20.7173H27.863C27.863 20.2877 27.9628 19.9959 28.1017 19.7775C28.2454 19.5517 28.4909 19.3111 28.9165 19.0848C29.8134 18.608 31.3116 18.3012 33.4826 18.3012V16.6187V14.9361C31.1075 14.9361 28.9545 15.2536 27.3369 16.1135C26.5052 16.5557 25.7776 17.1615 25.2624 17.9714C24.7425 18.7887 24.4979 19.7218 24.4979 20.7173H26.1804ZM33.4826 16.6187V18.3012C35.6495 18.3012 37.1482 18.6128 38.0461 19.0922C38.82 19.5054 39.1023 19.995 39.1023 20.7173H40.7849H42.4674C42.4674 18.613 41.3717 17.0532 39.6311 16.1238C38.0144 15.2606 35.862 14.9361 33.4826 14.9361V16.6187ZM40.7849 20.7173H39.1023C39.1023 21.1469 39.0025 21.4387 38.8635 21.6571C38.7199 21.8829 38.4744 22.1236 38.0488 22.3498C37.1518 22.8267 35.6537 23.1335 33.4826 23.1335V24.816V26.4985C35.8578 26.4985 38.0108 26.1811 39.6284 25.3212C40.4601 24.879 41.1877 24.2731 41.7029 23.4632C42.2228 22.6459 42.4674 21.7128 42.4674 20.7173H40.7849ZM33.4826 24.816V23.1335C31.3116 23.1335 29.8134 22.8267 28.9165 22.3498C28.4909 22.1236 28.2454 21.8829 28.1017 21.6571C27.9628 21.4387 27.863 21.1469 27.863 20.7173H26.1804H24.4979C24.4979 21.7128 24.7425 22.6459 25.2624 23.4632C25.7776 24.2731 26.5052 24.879 27.3369 25.3212C28.9545 26.1811 31.1075 26.4985 33.4826 26.4985V24.816ZM37.7933 20.7173H39.4758C39.4758 20.103 39.2895 19.4957 38.8848 18.9724C38.4983 18.4725 37.9837 18.1395 37.4595 17.9142C36.4483 17.4796 35.0935 17.3152 33.4826 17.3152V18.9978V20.6803C34.9576 20.6803 35.7581 20.8457 36.1308 21.0059C36.2985 21.078 36.283 21.1087 36.2226 21.0306C36.144 20.929 36.1108 20.8017 36.1108 20.7173H37.7933ZM33.4826 18.9978V17.3152C31.8718 17.3152 30.5169 17.4796 29.5058 17.9142C28.9816 18.1395 28.4669 18.4725 28.0805 18.9723C27.6758 19.4957 27.4894 20.103 27.4894 20.7173H29.172H30.8545C30.8545 20.8017 30.8212 20.929 30.7427 21.0306C30.6823 21.1087 30.6667 21.078 30.8345 21.0059C31.2072 20.8457 32.0077 20.6803 33.4826 20.6803V18.9978ZM29.172 20.7173H27.4894C27.4894 21.3317 27.6758 21.9389 28.0805 22.4623C28.4669 22.9622 28.9816 23.2951 29.5058 23.5204C30.5169 23.955 31.8718 24.1194 33.4826 24.1194V22.4369V20.7543C32.0077 20.7543 31.2072 20.589 30.8345 20.4288C30.6667 20.3567 30.6823 20.326 30.7427 20.4041C30.8212 20.5057 30.8545 20.633 30.8545 20.7173H29.172ZM33.4826 22.4369V24.1194C35.0935 24.1194 36.4483 23.955 37.4595 23.5204C37.9837 23.2951 38.4983 22.9622 38.8848 22.4623C39.2895 21.9389 39.4758 21.3317 39.4758 20.7173H37.7933H36.1108C36.1108 20.633 36.144 20.5057 36.2226 20.4041C36.283 20.326 36.2985 20.3567 36.1308 20.4288C35.7581 20.589 34.9576 20.7543 33.4826 20.7543V22.4369ZM58.1725 9.83467L57.0751 11.11L57.0824 11.1163L57.0897 11.1224L58.1725 9.83467ZM60.8108 11.9311L59.8158 13.2879L59.8243 13.2941L59.8328 13.3002L60.8108 11.9311ZM60.9992 13.7449L59.6338 12.7618L59.6301 12.7669L60.9992 13.7449ZM59.1619 14.1218L58.1893 15.4948L58.197 15.5002L59.1619 14.1218ZM56.8063 12.2609L57.8931 10.9765L57.887 10.9712L57.8807 10.9661L56.8063 12.2609ZM55.2988 10.5178L56.9259 10.0896L56.5958 8.83524H55.2988V10.5178ZM55.2752 10.5178V8.83524H53.9322L53.6345 10.1449L55.2752 10.5178ZM53.697 12.4258L52.6226 11.131L52.6163 11.1361L52.6102 11.1413L53.697 12.4258ZM50.9881 14.5458L50.0068 13.179L50.0013 13.183L50.9881 14.5458ZM49.1508 14.1689L47.7778 15.1414L47.7816 15.1468L49.1508 14.1689ZM49.3628 12.2609L50.3365 13.633L50.3445 13.6274L50.3524 13.6216L49.3628 12.2609ZM52.3308 9.92889L53.4136 11.2166L53.421 11.2105L53.4282 11.2043L52.3308 9.92889ZM63.7317 9.31644H65.4142V7.6339H63.7317V9.31644ZM63.7317 6.74889V8.43143H65.4142V6.74889H63.7317ZM56.7828 4.58178H55.1002V6.60756H56.7828H58.4653V4.58178H56.7828ZM56.7828 6.60756H55.1002C55.1002 7.46108 55.2136 8.28998 55.5486 9.08072C55.8887 9.88326 56.4113 10.5389 57.0751 11.11L58.1725 9.83467L59.27 8.55928C58.9209 8.25892 58.7486 8.00763 58.647 7.76784C58.5404 7.51624 58.4653 7.16737 58.4653 6.60756H56.7828ZM58.1725 9.83467L57.0897 11.1224C58.146 12.0107 59.0712 12.7419 59.8158 13.2879L60.8108 11.9311L61.8058 10.5743C61.137 10.0839 60.272 9.40174 59.2554 8.54691L58.1725 9.83467ZM60.8108 11.9311L59.8328 13.3002C59.814 13.2868 59.7594 13.2408 59.7096 13.1516C59.6595 13.0622 59.6358 12.9677 59.6313 12.8863C59.6232 12.7381 59.6766 12.7023 59.6338 12.7618L60.9992 13.7449L62.3646 14.728C62.7458 14.1986 63.0348 13.4915 62.9913 12.7014C62.9446 11.8528 62.5197 11.0841 61.7887 10.562L60.8108 11.9311ZM60.9992 13.7449L59.6301 12.7669C59.6498 12.7393 59.6643 12.7275 59.6728 12.7213C59.6821 12.7145 59.7048 12.6998 59.747 12.6876C59.7922 12.6746 59.8617 12.6645 59.9455 12.677C60.0334 12.6901 60.0964 12.7222 60.1267 12.7434L59.1619 14.1218L58.197 15.5002C59.0009 16.0629 59.9052 16.1441 60.6791 15.921C61.3999 15.7132 61.9898 15.2528 62.3683 14.7228L60.9992 13.7449ZM59.1619 14.1218L60.1344 12.7488C59.6222 12.3859 58.7906 11.7359 57.8931 10.9765L56.8063 12.2609L55.7195 13.5453C56.6594 14.3406 57.5709 15.0567 58.1893 15.4948L59.1619 14.1218ZM56.8063 12.2609L57.8807 10.9661C57.3408 10.518 57.0897 10.2724 56.9671 10.1271C56.9143 10.0646 56.9052 10.0435 56.9113 10.055C56.9204 10.0719 56.9259 10.0896 56.9259 10.0896L55.2988 10.5178L53.6716 10.946C53.9419 11.9731 54.6463 12.6549 55.7319 13.5557L56.8063 12.2609ZM55.2988 10.5178V8.83524H55.2752V10.5178V12.2003H55.2988V10.5178ZM55.2752 10.5178L53.6345 10.1449C53.634 10.1471 53.6343 10.1454 53.6356 10.1419C53.6369 10.1383 53.6374 10.1377 53.6356 10.1412C53.6321 10.148 53.6121 10.1857 53.5509 10.2611C53.415 10.4284 53.1515 10.6921 52.6226 11.131L53.697 12.4258L54.7714 13.7206C55.8791 12.8014 56.6606 12.0138 56.9159 10.8907L55.2752 10.5178ZM53.697 12.4258L52.6102 11.1413C51.7225 11.8925 50.8861 12.5477 50.0068 13.179L50.9881 14.5458L51.9694 15.9125C52.9274 15.2247 53.8341 14.5138 54.7838 13.7102L53.697 12.4258ZM50.9881 14.5458L50.0013 13.183C50.0461 13.1505 50.1203 13.1151 50.2129 13.1012C50.3 13.0881 50.3683 13.0992 50.408 13.1105C50.4452 13.1212 50.4641 13.1335 50.4716 13.1389C50.4781 13.1436 50.4954 13.1567 50.5199 13.1909L49.1508 14.1689L47.7816 15.1468C48.1685 15.6885 48.77 16.1423 49.4835 16.3461C50.2475 16.5644 51.1652 16.4949 51.9749 15.9085L50.9881 14.5458ZM49.1508 14.1689L50.5238 13.1964C50.518 13.1882 50.5133 13.1803 50.5098 13.1736C50.5064 13.1669 50.5053 13.1636 50.5056 13.1645C50.5059 13.1655 50.5084 13.173 50.5107 13.1873C50.513 13.2017 50.5154 13.2247 50.5143 13.2552C50.5121 13.3205 50.4944 13.4071 50.4476 13.4942C50.4002 13.5824 50.3478 13.625 50.3365 13.633L49.3628 12.2609L48.389 10.8888C47.5935 11.4533 47.181 12.2762 47.1512 13.1392C47.124 13.9298 47.4169 14.6319 47.7778 15.1414L49.1508 14.1689ZM49.3628 12.2609L50.3524 13.6216C51.4252 12.8414 52.3515 12.1098 53.4136 11.2166L52.3308 9.92889L51.2479 8.64114C50.2372 9.49104 49.3733 10.1728 48.3731 10.9002L49.3628 12.2609ZM52.3308 9.92889L53.4282 11.2043C54.092 10.6331 54.6146 9.97748 54.9547 9.17494C55.2897 8.3842 55.4031 7.5553 55.4031 6.70178H53.7205H52.038C52.038 7.26159 51.9629 7.61046 51.8563 7.86206C51.7547 8.10185 51.5824 8.35314 51.2333 8.6535L52.3308 9.92889ZM53.7205 6.70178H55.4031V4.58178H53.7205H52.038V6.70178H53.7205ZM53.7205 4.58178H55.4031C55.4031 4.59183 55.3996 4.65827 55.3548 4.74874C55.31 4.83913 55.248 4.90486 55.1953 4.94436C55.1473 4.98033 55.1203 4.98525 55.135 4.98108C55.1495 4.97695 55.1887 4.96876 55.2517 4.96876V3.28622V1.60368C54.5994 1.60368 53.8287 1.76294 53.1762 2.2523C52.4627 2.78747 52.038 3.61372 52.038 4.58178H53.7205ZM55.2517 3.28622V4.96876C55.3146 4.96876 55.3538 4.97695 55.3683 4.98108C55.383 4.98525 55.356 4.98033 55.308 4.94436C55.2553 4.90486 55.1933 4.83913 55.1485 4.74874C55.1037 4.65827 55.1002 4.59183 55.1002 4.58178H56.7828H58.4653C58.4653 3.61372 58.0406 2.78747 57.3271 2.2523C56.6746 1.76294 55.9039 1.60368 55.2517 1.60368V3.28622ZM63.7317 9.31644V7.6339H60.7872V9.31644V10.999H63.7317V9.31644ZM60.7872 9.31644V7.6339C60.8354 7.6339 60.9365 7.64497 61.0577 7.70471C61.1794 7.76473 61.2713 7.84931 61.3315 7.92982C61.4377 8.07212 61.4097 8.14449 61.4097 8.04444H59.7272H58.0447C58.0447 8.62751 58.1816 9.33588 58.6353 9.9434C59.1364 10.6144 59.9078 10.999 60.7872 10.999V9.31644ZM59.7272 8.04444H61.4097C61.4097 7.92226 61.4424 7.9881 61.3375 8.13032C61.2776 8.21148 61.1849 8.2979 61.061 8.35934C60.9379 8.42037 60.8353 8.43143 60.7872 8.43143V6.74889V5.06635C59.9063 5.06635 59.131 5.45267 58.6293 6.13301C58.1769 6.74635 58.0447 7.45997 58.0447 8.04444H59.7272ZM60.7872 6.74889V8.43143H63.7317V6.74889V5.06635H60.7872V6.74889ZM63.7317 6.74889H65.4142V3.828H63.7317H62.0491V6.74889H63.7317ZM63.7317 3.828H65.4142C65.4142 3.85096 65.4078 3.92473 65.3607 4.01816C65.3143 4.11043 65.2517 4.17512 65.2012 4.2129C65.1549 4.2475 65.1287 4.25266 65.141 4.2491C65.153 4.24565 65.1865 4.23854 65.2392 4.23854V2.556V0.873459C64.5895 0.873459 63.8296 1.03697 63.1867 1.51743C62.4858 2.04125 62.0491 2.85684 62.0491 3.828H63.7317ZM65.2392 2.556V4.23854C65.2816 4.23854 65.308 4.24449 65.3156 4.24674C65.3236 4.24906 65.2959 4.2426 65.2498 4.20776C65.1996 4.16987 65.1385 4.1059 65.0931 4.0154C65.0471 3.92358 65.0407 3.85101 65.0407 3.828H66.7232H68.4057C68.4057 2.8581 67.9705 2.04564 67.278 1.52257C66.6411 1.04156 65.8866 0.873459 65.2392 0.873459V2.556ZM66.7232 3.828H65.0407V14.2631H66.7232H68.4057V3.828H66.7232ZM66.7232 14.2631H65.0407C65.0407 14.2401 65.0471 14.1675 65.0931 14.0757C65.1385 13.9852 65.1996 13.9212 65.2498 13.8833C65.2959 13.8485 65.3236 13.842 65.3156 13.8444C65.308 13.8466 65.2816 13.8526 65.2392 13.8526V15.5351V17.2177C65.8866 17.2177 66.6411 17.0495 67.278 16.5685C67.9705 16.0455 68.4057 15.233 68.4057 14.2631H66.7232ZM65.2392 15.5351V13.8526C65.1865 13.8526 65.153 13.8455 65.141 13.842C65.1287 13.8385 65.1549 13.8436 65.2012 13.8782C65.2517 13.916 65.3143 13.9807 65.3607 14.073C65.4078 14.1664 65.4142 14.2402 65.4142 14.2631H63.7317H62.0491C62.0491 15.2343 62.4858 16.0499 63.1867 16.5737C63.8296 17.0541 64.5895 17.2177 65.2392 17.2177V15.5351ZM63.7317 14.2631H65.4142V9.31644H63.7317H62.0491V14.2631H63.7317ZM52.5663 20.2462H54.2489C54.2489 19.3063 54.6115 18.7005 55.3493 18.2429C56.1946 17.7187 57.6118 17.359 59.6801 17.359V15.6764V13.9939C57.32 13.9939 55.1803 14.388 53.5757 15.3831C51.8638 16.4449 50.8838 18.1239 50.8838 20.2462H52.5663ZM59.6801 15.6764V17.359C61.7484 17.359 63.1656 17.7187 64.0109 18.2429C64.7487 18.7005 65.1113 19.3063 65.1113 20.2462H66.7939H68.4764C68.4764 18.1239 67.4964 16.4449 65.7844 15.3831C64.1799 14.388 62.0402 13.9939 59.6801 13.9939V15.6764ZM66.7939 20.2462H65.1113C65.1113 21.1861 64.7487 21.792 64.0109 22.2496C63.1656 22.7738 61.7484 23.1335 59.6801 23.1335V24.816V26.4985C62.0402 26.4985 64.1799 26.1044 65.7844 25.1093C67.4964 24.0476 68.4764 22.3685 68.4764 20.2462H66.7939ZM59.6801 24.816V23.1335C57.6118 23.1335 56.1946 22.7738 55.3493 22.2496C54.6115 21.792 54.2489 21.1861 54.2489 20.2462H52.5663H50.8838C50.8838 22.3685 51.8638 24.0476 53.5757 25.1093C55.1803 26.1044 57.32 26.4985 59.6801 26.4985V24.816ZM63.8023 20.2462H65.4849C65.4849 18.9819 64.8619 17.8915 63.6939 17.2188C62.6571 16.6217 61.2761 16.3966 59.6801 16.3966V18.0791V19.7617C61.0521 19.7617 61.7322 19.9723 62.0145 20.1349C62.132 20.2025 62.1392 20.2378 62.1238 20.2115C62.1075 20.1836 62.1198 20.1795 62.1198 20.2462H63.8023ZM59.6801 18.0791V16.3966C58.0841 16.3966 56.7031 16.6217 55.6663 17.2188C54.4982 17.8915 53.8753 18.9819 53.8753 20.2462H55.5579H57.2404C57.2404 20.1795 57.2527 20.1836 57.2364 20.2115C57.221 20.2378 57.2282 20.2025 57.3457 20.1349C57.628 19.9723 58.3081 19.7617 59.6801 19.7617V18.0791ZM55.5579 20.2462H53.8753C53.8753 21.5106 54.4982 22.601 55.6663 23.2737C56.7031 23.8707 58.0841 24.0959 59.6801 24.0959V22.4133V20.7308C58.3081 20.7308 57.628 20.5202 57.3457 20.3576C57.2282 20.2899 57.221 20.2546 57.2364 20.281C57.2527 20.3088 57.2404 20.3129 57.2404 20.2462H55.5579ZM59.6801 22.4133V24.0959C61.2761 24.0959 62.6571 23.8707 63.6939 23.2737C64.8619 22.601 65.4849 21.5106 65.4849 20.2462H63.8023H62.1198C62.1198 20.3129 62.1075 20.3088 62.1238 20.281C62.1392 20.2546 62.132 20.2899 62.0145 20.3576C61.7322 20.5202 61.0521 20.7308 59.6801 20.7308V22.4133ZM74.406 4.74667V6.4292H76.0885V4.74667H74.406ZM77.4211 4.74667H75.7386V6.4292H77.4211V4.74667ZM86.5607 6.06578H84.8781V7.74832H86.5607V6.06578ZM86.5607 8.60978V6.92724H84.8781V8.60978H86.5607ZM86.5607 10.0467H84.8781V11.7292H86.5607V10.0467ZM86.5607 12.5907V10.9081H84.8781V12.5907H86.5607ZM75.9136 8.13867V9.82121C77.2914 9.82121 78.1946 10.1337 78.7079 10.512C79.1616 10.8463 79.4132 11.2976 79.4132 11.9782H81.0958H82.7783C82.7783 10.2561 82.0406 8.78773 80.7041 7.80291C79.4272 6.86204 77.7393 6.45613 75.9136 6.45613V8.13867ZM81.0958 11.9782H79.4132C79.4132 12.6588 79.1616 13.1102 78.7079 13.4445C78.1946 13.8227 77.2914 14.1352 75.9136 14.1352V15.8178V17.5003C77.7393 17.5003 79.4272 17.0944 80.7041 16.1535C82.0406 15.1687 82.7783 13.7003 82.7783 11.9782H81.0958ZM75.9136 15.8178V14.1352C74.5357 14.1352 73.6325 13.8227 73.1192 13.4445C72.6655 13.1102 72.4139 12.6588 72.4139 11.9782H70.7313H69.0488C69.0488 13.7003 69.7865 15.1687 71.123 16.1535C72.3999 17.0944 74.0879 17.5003 75.9136 17.5003V15.8178ZM70.7313 11.9782H72.4139C72.4139 11.2976 72.6655 10.8463 73.1192 10.512C73.6325 10.1337 74.5357 9.82121 75.9136 9.82121V8.13867V6.45613C74.0879 6.45613 72.3999 6.86204 71.123 7.80291C69.7865 8.78773 69.0488 10.2561 69.0488 11.9782H70.7313ZM70.4722 4.74667V6.4292H74.406V4.74667V3.06413H70.4722V4.74667ZM74.406 4.74667H76.0885V3.59244H74.406H72.7235V4.74667H74.406ZM74.406 3.59244H76.0885C76.0885 3.61541 76.0821 3.68918 76.0351 3.7826C75.9886 3.87488 75.9261 3.93956 75.8755 3.97734C75.8292 4.01194 75.803 4.0171 75.8154 4.01355C75.8274 4.01009 75.8608 4.00298 75.9136 4.00298V2.32044V0.637904C75.2639 0.637904 74.5039 0.801412 73.861 1.28188C73.1601 1.8057 72.7235 2.62129 72.7235 3.59244H74.406ZM75.9136 2.32044V4.00298C75.9663 4.00298 75.9997 4.01009 76.0117 4.01355C76.0241 4.0171 75.9979 4.01194 75.9516 3.97734C75.901 3.93956 75.8385 3.87488 75.792 3.7826C75.745 3.68918 75.7386 3.61541 75.7386 3.59244H77.4211H79.1037C79.1037 2.62129 78.667 1.8057 77.9661 1.28188C77.3232 0.801412 76.5632 0.637904 75.9136 0.637904V2.32044ZM77.4211 3.59244H75.7386V4.74667H77.4211H79.1037V3.59244H77.4211ZM77.4211 4.74667V6.4292H81.1193V4.74667V3.06413H77.4211V4.74667ZM81.1193 4.74667V6.4292C81.0711 6.4292 80.97 6.41814 80.8489 6.3584C80.7272 6.29838 80.6352 6.2138 80.5751 6.13329C80.4688 5.99099 80.4968 5.91862 80.4968 6.01867H82.1793H83.8619C83.8619 5.4356 83.725 4.72723 83.2712 4.11971C82.7702 3.44876 81.9987 3.06413 81.1193 3.06413V4.74667ZM82.1793 6.01867H80.4968C80.4968 6.09607 80.4738 6.01724 80.5813 5.8752C80.6416 5.79544 80.7327 5.71271 80.8522 5.6541C80.9714 5.59565 81.071 5.58457 81.1193 5.58457V7.26711V8.94965C81.9973 8.94965 82.7647 8.56667 83.2651 7.90524C83.7199 7.30387 83.8619 6.60081 83.8619 6.01867H82.1793ZM81.1193 7.26711V5.58457H70.4722V7.26711V8.94965H81.1193V7.26711ZM70.4722 7.26711V5.58457C70.5205 5.58457 70.6201 5.59565 70.7393 5.6541C70.8588 5.71271 70.9499 5.79544 71.0103 5.8752C71.1177 6.01724 71.0948 6.09607 71.0948 6.01867H69.4122H67.7297C67.7297 6.60081 67.8716 7.30387 68.3265 7.90524C68.8268 8.56667 69.5943 8.94965 70.4722 8.94965V7.26711ZM69.4122 6.01867H71.0948C71.0948 5.91862 71.1227 5.99099 71.0165 6.13329C70.9563 6.2138 70.8644 6.29838 70.7427 6.3584C70.6215 6.41814 70.5204 6.4292 70.4722 6.4292V4.74667V3.06413C69.5928 3.06413 68.8214 3.44876 68.3203 4.11971C67.8666 4.72723 67.7297 5.4356 67.7297 6.01867H69.4122ZM75.9136 13.5329V15.2154C76.9379 15.2154 77.9309 15.0186 78.7199 14.485C79.5783 13.9045 80.0694 13.0006 80.0694 11.9782H78.3869H76.7044C76.7044 11.9449 76.7137 11.8762 76.7547 11.8002C76.7952 11.725 76.8383 11.6951 76.8348 11.6975C76.8053 11.7174 76.5617 11.8503 75.9136 11.8503V13.5329ZM78.3869 11.9782H80.0694C80.0694 10.9558 79.5783 10.052 78.7199 9.47147C77.9309 8.93789 76.9379 8.74102 75.9136 8.74102V10.4236V12.1061C76.5617 12.1061 76.8053 12.239 76.8348 12.259C76.8383 12.2613 76.7952 12.2314 76.7547 12.1562C76.7137 12.0802 76.7044 12.0116 76.7044 11.9782H78.3869ZM75.9136 10.4236V8.74102C74.8893 8.74102 73.8962 8.93789 73.1072 9.47147C72.2488 10.052 71.7577 10.9558 71.7577 11.9782H73.4402H75.1228C75.1228 12.0116 75.1135 12.0802 75.0725 12.1562C75.0319 12.2314 74.9888 12.2613 74.9923 12.259C75.0218 12.239 75.2654 12.1061 75.9136 12.1061V10.4236ZM73.4402 11.9782H71.7577C71.7577 13.0006 72.2488 13.9045 73.1072 14.485C73.8962 15.0186 74.8893 15.2154 75.9136 15.2154V13.5329V11.8503C75.2654 11.8503 75.0218 11.7174 74.9923 11.6975C74.9888 11.6951 75.0319 11.725 75.0725 11.8002C75.1135 11.8762 75.1228 11.9449 75.1228 11.9782H73.4402ZM86.5607 3.828H84.8781V6.06578H86.5607H88.2432V3.828H86.5607ZM86.5607 6.06578V7.74832H88.5864V6.06578V4.38324H86.5607V6.06578ZM88.5864 6.06578V7.74832C88.5382 7.74832 88.4372 7.73725 88.316 7.67751C88.1943 7.61749 88.1023 7.53291 88.0422 7.4524C87.9359 7.3101 87.9639 7.23773 87.9639 7.33778H89.6464H91.329C91.329 6.75471 91.1921 6.04634 90.7384 5.43882C90.2373 4.76787 89.4658 4.38324 88.5864 4.38324V6.06578ZM89.6464 7.33778H87.9639C87.9639 7.43782 87.9359 7.36545 88.0422 7.22315C88.1023 7.14265 88.1943 7.05806 88.316 6.99805C88.4372 6.9383 88.5382 6.92724 88.5864 6.92724V8.60978V10.2923C89.4658 10.2923 90.2373 9.90769 90.7384 9.23674C91.1921 8.62921 91.329 7.92084 91.329 7.33778H89.6464ZM88.5864 8.60978V6.92724H86.5607V8.60978V10.2923H88.5864V8.60978ZM86.5607 8.60978H84.8781V10.0467H86.5607H88.2432V8.60978H86.5607ZM86.5607 10.0467V11.7292H88.5864V10.0467V8.36413H86.5607V10.0467ZM88.5864 10.0467V11.7292C88.5382 11.7292 88.4372 11.7181 88.316 11.6584C88.1943 11.5984 88.1023 11.5138 88.0422 11.4333C87.9359 11.291 87.9639 11.2186 87.9639 11.3187H89.6464H91.329C91.329 10.7356 91.1921 10.0272 90.7384 9.41971C90.2373 8.74876 89.4658 8.36413 88.5864 8.36413V10.0467ZM89.6464 11.3187H87.9639C87.9639 11.4187 87.9359 11.3463 88.0422 11.204C88.1023 11.1235 88.1943 11.039 88.316 10.9789C88.4372 10.9192 88.5382 10.9081 88.5864 10.9081V12.5907V14.2732C89.4658 14.2732 90.2373 13.8886 90.7384 13.2176C91.1921 12.6101 91.329 11.9017 91.329 11.3187H89.6464ZM88.5864 12.5907V10.9081H86.5607V12.5907V14.2732H88.5864V12.5907ZM86.5607 12.5907H84.8781V15.1582H86.5607H88.2432V12.5907H86.5607ZM86.5607 15.1582H84.8781C84.8781 15.1352 84.8846 15.0626 84.9306 14.9708C84.9759 14.8803 85.0371 14.8164 85.0872 14.7785C85.1334 14.7436 85.161 14.7372 85.1531 14.7395C85.1454 14.7417 85.119 14.7477 85.0767 14.7477V16.4302V18.1128C85.7241 18.1128 86.4786 17.9447 87.1154 17.4637C87.8079 16.9406 88.2432 16.1281 88.2432 15.1582H86.5607ZM85.0767 16.4302V14.7477C85.0239 14.7477 84.9905 14.7406 84.9785 14.7371C84.9661 14.7336 84.9923 14.7387 85.0386 14.7733C85.0892 14.8111 85.1517 14.8758 85.1982 14.9681C85.2452 15.0615 85.2516 15.1353 85.2516 15.1582H83.5691H81.8866C81.8866 16.1294 82.3233 16.945 83.0241 17.4688C83.667 17.9493 84.427 18.1128 85.0767 18.1128V16.4302ZM83.5691 15.1582H85.2516V3.828H83.5691H81.8866V15.1582H83.5691ZM83.5691 3.828H85.2516C85.2516 3.85096 85.2452 3.92473 85.1982 4.01816C85.1517 4.11043 85.0892 4.17512 85.0386 4.2129C84.9923 4.2475 84.9661 4.25266 84.9785 4.2491C84.9905 4.24565 85.0239 4.23854 85.0767 4.23854V2.556V0.873459C84.427 0.873459 83.667 1.03697 83.0241 1.51743C82.3233 2.04125 81.8866 2.85684 81.8866 3.828H83.5691ZM85.0767 2.556V4.23854C85.119 4.23854 85.1454 4.24449 85.1531 4.24674C85.161 4.24906 85.1334 4.2426 85.0872 4.20776C85.0371 4.16987 84.9759 4.1059 84.9306 4.0154C84.8846 3.92358 84.8781 3.85101 84.8781 3.828H86.5607H88.2432C88.2432 2.8581 87.8079 2.04564 87.1154 1.52257C86.4786 1.04156 85.7241 0.873459 85.0767 0.873459V2.556ZM72.8278 20.7173H74.5103C74.5103 19.9277 74.8057 19.4494 75.4879 19.0651C76.3023 18.6064 77.6842 18.3012 79.7296 18.3012V16.6187V14.9361C77.4643 14.9361 75.3952 15.2551 73.8364 16.1332C72.1454 17.0857 71.1452 18.6567 71.1452 20.7173H72.8278ZM79.7296 16.6187V18.3012C81.7749 18.3012 83.1568 18.6064 83.9712 19.0651C84.6534 19.4494 84.9488 19.9277 84.9488 20.7173H86.6313H88.3139C88.3139 18.6567 87.3137 17.0857 85.6227 16.1332C84.0639 15.2551 81.9949 14.9361 79.7296 14.9361V16.6187ZM86.6313 20.7173H84.9488C84.9488 21.5069 84.6534 21.9853 83.9712 22.3695C83.1568 22.8283 81.7749 23.1335 79.7296 23.1335V24.816V26.4985C81.9949 26.4985 84.0639 26.1795 85.6227 25.3015C87.3137 24.3489 88.3139 22.778 88.3139 20.7173H86.6313ZM79.7296 24.816V23.1335C77.6842 23.1335 76.3023 22.8283 75.4879 22.3695C74.8057 21.9853 74.5103 21.5069 74.5103 20.7173H72.8278H71.1452C71.1452 22.778 72.1454 24.3489 73.8364 25.3015C75.3952 26.1795 77.4643 26.4985 79.7296 26.4985V24.816ZM83.6633 20.7173H85.3459C85.3459 20.15 85.1954 19.5688 84.8372 19.0463C84.4877 18.5366 84.0077 18.1801 83.4978 17.9335C82.5251 17.4632 81.2343 17.2917 79.7296 17.2917V18.9742V20.6568C81.075 20.6568 81.7512 20.8268 82.0328 20.963C82.15 21.0197 82.119 21.0327 82.0618 20.9493C81.9958 20.853 81.9808 20.7547 81.9808 20.7173H83.6633ZM79.7296 18.9742V17.2917C78.2248 17.2917 76.9341 17.4632 75.9614 17.9335C75.4514 18.1801 74.9714 18.5366 74.6219 19.0463C74.2637 19.5688 74.1132 20.15 74.1132 20.7173H75.7958H77.4783C77.4783 20.7547 77.4633 20.853 77.3973 20.9493C77.3401 21.0327 77.3091 21.0197 77.4263 20.963C77.7079 20.8268 78.3841 20.6568 79.7296 20.6568V18.9742ZM75.7958 20.7173H74.1132C74.1132 21.2847 74.2637 21.8658 74.6219 22.3884C74.9714 22.898 75.4514 23.2545 75.9614 23.5011C76.9341 23.9715 78.2248 24.143 79.7296 24.143V22.4604V20.7779C78.3841 20.7779 77.7079 20.6078 77.4263 20.4717C77.3091 20.415 77.3401 20.4019 77.3973 20.4854C77.4633 20.5817 77.4783 20.68 77.4783 20.7173H75.7958ZM79.7296 22.4604V24.143C81.2343 24.143 82.5251 23.9715 83.4978 23.5011C84.0077 23.2545 84.4877 22.898 84.8372 22.3884C85.1954 21.8658 85.3459 21.2847 85.3459 20.7173H83.6633H81.9808C81.9808 20.68 81.9958 20.5817 82.0618 20.4854C82.119 20.4019 82.15 20.415 82.0328 20.4717C81.7512 20.6078 81.075 20.7779 79.7296 20.7779V22.4604ZM98.6483 14.1689L97.9604 12.6334L97.9558 12.6355L98.6483 14.1689ZM96.9052 13.4151L95.3757 14.1161L95.3823 14.1306L95.3893 14.145L96.9052 13.4151ZM97.447 11.6249L96.7711 10.0841L96.7679 10.0855L97.447 11.6249ZM111.18 7.90311H112.862V6.22057H111.18V7.90311ZM111.18 5.40622V7.08876H112.862V5.40622H111.18ZM111.18 11.8369H112.862V10.1543H111.18V11.8369ZM111.18 9.34V11.0225H112.862V9.34H111.18ZM103.289 6.06578V4.38324H98.0123V6.06578V7.74832H103.289V6.06578ZM98.0123 6.06578V4.38324C98.0606 4.38324 98.1616 4.39431 98.2828 4.45405C98.4045 4.51407 98.4965 4.59865 98.5566 4.67915C98.6629 4.82145 98.6349 4.89382 98.6349 4.79378H96.9523H95.2698C95.2698 5.37684 95.4067 6.08521 95.8604 6.69274C96.3615 7.36369 97.133 7.74832 98.0123 7.74832V6.06578ZM96.9523 4.79378H98.6349C98.6349 4.69373 98.6629 4.7661 98.5566 4.9084C98.4965 4.98891 98.4045 5.07349 98.2828 5.13351C98.1616 5.19325 98.0606 5.20432 98.0123 5.20432V3.52178V1.83924C97.133 1.83924 96.3615 2.22387 95.8604 2.89482C95.4067 3.50234 95.2698 4.21071 95.2698 4.79378H96.9523ZM98.0123 3.52178V5.20432H104.82V3.52178V1.83924H98.0123V3.52178ZM104.82 3.52178V5.20432C105.123 5.20432 105.279 5.22963 105.344 5.2467C105.395 5.25978 105.315 5.24773 105.214 5.14952C105.11 5.04907 105.091 4.96191 105.1 4.99383C105.114 5.04413 105.14 5.18484 105.14 5.47689H106.822H108.505C108.505 4.6448 108.389 3.54244 107.559 2.73614C106.743 1.94349 105.646 1.83924 104.82 1.83924V3.52178ZM106.822 5.47689H105.14V6.93733H106.822H108.505V5.47689H106.822ZM106.822 6.93733H105.14C105.14 7.70926 105.081 8.14402 104.975 8.45296C104.885 8.71254 104.732 8.97042 104.351 9.30169C103.935 9.66362 103.282 10.0838 102.213 10.6371C101.154 11.1853 99.7759 11.82 97.9604 12.6334L98.6483 14.1689L99.3363 15.7043C101.148 14.8925 102.606 14.2227 103.76 13.6256C104.904 13.0335 105.84 12.4673 106.561 11.8399C107.317 11.1818 107.846 10.4474 108.156 9.54982C108.448 8.70159 108.505 7.81429 108.505 6.93733H106.822ZM98.6483 14.1689L97.9558 12.6355C98.0022 12.6146 98.0758 12.5952 98.1644 12.598C98.2496 12.6007 98.3162 12.6227 98.3586 12.6435C98.4298 12.6784 98.4306 12.7046 98.4212 12.6852L96.9052 13.4151L95.3893 14.145C95.9385 15.2857 97.4901 16.5381 99.3409 15.7023L98.6483 14.1689ZM96.9052 13.4151L98.4348 12.7141C98.4362 12.7172 98.4358 12.7168 98.4348 12.7136C98.4344 12.7122 98.4341 12.7108 98.4338 12.7096C98.4337 12.709 98.4336 12.7085 98.4335 12.7082C98.4335 12.708 98.4335 12.7078 98.4335 12.7077C98.4334 12.7076 98.4334 12.7076 98.4334 12.7076C98.4334 12.7076 98.4334 12.7077 98.4335 12.7078C98.4335 12.7079 98.4335 12.7081 98.4335 12.7083C98.4336 12.7088 98.4336 12.7096 98.4337 12.7107C98.4339 12.7128 98.434 12.7165 98.4339 12.7217C98.4338 12.7317 98.4326 12.7502 98.4274 12.7761C98.4164 12.8299 98.387 12.9156 98.3184 13.0042C98.2465 13.0971 98.168 13.1458 98.1262 13.1643L97.447 11.6249L96.7679 10.0855C95.8246 10.5016 95.2966 11.2858 95.1299 12.1049C94.9784 12.8491 95.1263 13.572 95.3757 14.1161L96.9052 13.4151ZM97.447 11.6249L98.1229 13.1657C99.7069 12.4709 100.928 11.9218 101.86 11.4633C102.775 11.0132 103.505 10.6059 104.05 10.1807C104.634 9.72473 105.087 9.18625 105.322 8.47114C105.526 7.85394 105.513 7.22397 105.513 6.84311H103.831H102.148C102.148 7.07393 102.147 7.20775 102.138 7.3151C102.131 7.41176 102.122 7.43221 102.126 7.41826C102.155 7.33105 102.199 7.35644 101.98 7.52762C101.721 7.72959 101.251 8.01281 100.375 8.44383C99.516 8.86639 98.3553 9.38913 96.7711 10.0841L97.447 11.6249ZM103.831 6.84311H105.513V6.60756H103.831H102.148V6.84311H103.831ZM103.831 6.60756H105.513C105.513 6.29176 105.475 5.57258 104.9 4.99676C104.324 4.42095 103.605 4.38324 103.289 4.38324V6.06578V7.74832C103.373 7.74832 102.925 7.78127 102.52 7.37624C102.115 6.9712 102.148 6.52291 102.148 6.60756H103.831ZM111.18 7.90311V6.22057H108.683V7.90311V9.58565H111.18V7.90311ZM108.683 7.90311V6.22057C108.735 6.22057 108.85 6.23226 108.99 6.30272C109.131 6.3742 109.235 6.47516 109.301 6.56898C109.413 6.72838 109.376 6.80241 109.376 6.65467H107.694H106.011C106.011 7.19003 106.116 7.88828 106.546 8.50113C107.036 9.20005 107.81 9.58565 108.683 9.58565V7.90311ZM107.694 6.65467H109.376C109.376 6.50692 109.413 6.58095 109.301 6.74035C109.235 6.83417 109.131 6.93513 108.99 7.00661C108.85 7.07707 108.735 7.08876 108.683 7.08876V5.40622V3.72368C107.81 3.72368 107.036 4.10928 106.546 4.8082C106.116 5.42105 106.011 6.1193 106.011 6.65467H107.694ZM108.683 5.40622V7.08876H111.18V5.40622V3.72368H108.683V5.40622ZM111.18 5.40622H112.862V3.828H111.18H109.497V5.40622H111.18ZM111.18 3.828H112.862C112.862 3.85101 112.856 3.92358 112.81 4.0154C112.765 4.1059 112.703 4.16987 112.653 4.20776C112.607 4.2426 112.58 4.24906 112.587 4.24674C112.595 4.24449 112.622 4.23854 112.664 4.23854V2.556V0.873459C112.017 0.873459 111.262 1.04156 110.625 1.52257C109.933 2.04564 109.497 2.8581 109.497 3.828H111.18ZM112.664 2.556V4.23854C112.706 4.23854 112.733 4.24449 112.74 4.24674C112.748 4.24906 112.721 4.2426 112.674 4.20776C112.624 4.16987 112.563 4.1059 112.518 4.0154C112.472 3.92358 112.465 3.85101 112.465 3.828H114.148H115.83C115.83 2.8581 115.395 2.04564 114.703 1.52257C114.066 1.04156 113.311 0.873459 112.664 0.873459V2.556ZM114.148 3.828H112.465V12.52H114.148H115.83V3.828H114.148ZM114.148 12.52H112.465C112.465 12.497 112.472 12.4244 112.518 12.3326C112.563 12.2421 112.624 12.1781 112.674 12.1402C112.721 12.1054 112.748 12.0989 112.74 12.1013C112.733 12.1035 112.706 12.1095 112.664 12.1095V13.792V15.4745C113.311 15.4745 114.066 15.3064 114.703 14.8254C115.395 14.3024 115.83 13.4899 115.83 12.52H114.148ZM112.664 13.792V12.1095C112.622 12.1095 112.595 12.1035 112.587 12.1013C112.58 12.0989 112.607 12.1054 112.653 12.1402C112.703 12.1781 112.765 12.2421 112.81 12.3326C112.856 12.4244 112.862 12.497 112.862 12.52H111.18H109.497C109.497 13.4899 109.933 14.3024 110.625 14.8254C111.262 15.3064 112.017 15.4745 112.664 15.4745V13.792ZM111.18 12.52H112.862V11.8369H111.18H109.497V12.52H111.18ZM111.18 11.8369V10.1543H108.495V11.8369V13.5194H111.18V11.8369ZM108.495 11.8369V10.1543C108.546 10.1543 108.662 10.166 108.801 10.2365C108.943 10.308 109.047 10.4089 109.112 10.5028C109.224 10.6622 109.188 10.7362 109.188 10.5884H107.505H105.823C105.823 11.1238 105.928 11.8221 106.357 12.4349C106.848 13.1338 107.622 13.5194 108.495 13.5194V11.8369ZM107.505 10.5884H109.188C109.188 10.4407 109.224 10.5147 109.112 10.6741C109.047 10.7679 108.943 10.8689 108.801 10.9404C108.662 11.0108 108.546 11.0225 108.495 11.0225V9.34V7.65746C107.622 7.65746 106.848 8.04306 106.357 8.74198C105.928 9.35483 105.823 10.0531 105.823 10.5884H107.505ZM108.495 9.34V11.0225H111.18V9.34V7.65746H108.495V9.34ZM111.18 9.34H112.862V7.90311H111.18H109.497V9.34H111.18ZM101.923 18.456V20.1385H110.662V18.456V16.7735H101.923V18.456ZM110.662 18.456V20.1385C110.977 20.1385 111.697 20.1008 112.272 19.525C112.848 18.9492 112.886 18.23 112.886 17.9142H111.203H109.521C109.521 17.9989 109.488 17.5506 109.893 17.1455C110.298 16.7405 110.746 16.7735 110.662 16.7735V18.456ZM111.203 17.9142H112.886V17.5844H111.203H109.521V17.9142H111.203ZM111.203 17.5844H112.886C112.886 17.2686 112.848 16.5495 112.272 15.9737C111.697 15.3978 110.977 15.3601 110.662 15.3601V17.0427V18.7252C110.746 18.7252 110.298 18.7582 109.893 18.3531C109.488 17.9481 109.521 17.4998 109.521 17.5844H111.203ZM110.662 17.0427V15.3601H100.863V17.0427V18.7252H110.662V17.0427ZM100.863 17.0427V15.3601C100.929 15.3601 101.045 15.3755 101.178 15.4422C101.309 15.5086 101.406 15.6005 101.469 15.6855C101.579 15.8357 101.556 15.9193 101.556 15.8413H99.8732H98.1907C98.1907 16.3993 98.3209 17.0837 98.7549 17.6755C99.2366 18.3323 99.9897 18.7252 100.863 18.7252V17.0427ZM99.8732 15.8413H101.556C101.556 15.7865 101.573 15.8767 101.462 16.0265C101.4 16.1106 101.304 16.2005 101.174 16.2655C101.044 16.3307 100.929 16.3461 100.863 16.3461V14.6636V12.981C99.9913 12.981 99.2422 13.3721 98.7613 14.0191C98.3262 14.6046 98.1907 15.2837 98.1907 15.8413H99.8732ZM100.863 14.6636V16.3461H112.146V14.6636V12.981H100.863V14.6636ZM112.146 14.6636V16.3461C112.449 16.3461 112.605 16.3714 112.67 16.3885C112.72 16.4016 112.641 16.3895 112.54 16.2913C112.436 16.1908 112.417 16.1037 112.425 16.1356C112.439 16.1859 112.465 16.3266 112.465 16.6187H114.148H115.83C115.83 15.7866 115.714 14.6842 114.885 13.8779C114.069 13.0853 112.972 12.981 112.146 12.981V14.6636ZM114.148 16.6187H112.465V18.7858H114.148H115.83V16.6187H114.148ZM114.148 18.7858H112.465C112.465 19.0778 112.439 19.2185 112.425 19.2688C112.417 19.3008 112.436 19.2136 112.54 19.1131C112.641 19.0149 112.72 19.0029 112.67 19.016C112.605 19.033 112.449 19.0583 112.146 19.0583V20.7409V22.4234C112.972 22.4234 114.069 22.3192 114.885 21.5265C115.714 20.7202 115.83 19.6179 115.83 18.7858H114.148ZM112.146 20.7409V19.0583H103.407V20.7409V22.4234H112.146V20.7409ZM103.407 20.7409V19.0583C103.091 19.0583 102.372 19.0961 101.796 19.6719C101.22 20.2477 101.182 20.9669 101.182 21.2827H102.865H104.547C104.547 21.198 104.58 21.6463 104.175 22.0513C103.77 22.4564 103.322 22.4234 103.407 22.4234V20.7409ZM102.865 21.2827H101.182V21.6124H102.865H104.547V21.2827H102.865ZM102.865 21.6124H101.182C101.182 21.9282 101.22 22.6474 101.796 23.2232C102.372 23.799 103.091 23.8368 103.407 23.8368V22.1542V20.4717C103.322 20.4717 103.77 20.4387 104.175 20.8438C104.58 21.2488 104.547 21.6971 104.547 21.6124H102.865ZM103.407 22.1542V23.8368H113.63V22.1542V20.4717H103.407V22.1542ZM113.63 22.1542V23.8368C113.563 23.8368 113.447 23.8214 113.315 23.7547C113.183 23.6882 113.086 23.5964 113.024 23.5114C112.914 23.3612 112.936 23.2776 112.936 23.3556H114.619H116.302C116.302 22.7976 116.171 22.1132 115.737 21.5214C115.256 20.8646 114.503 20.4717 113.63 20.4717V22.1542ZM114.619 23.3556H112.936C112.936 23.4104 112.919 23.3202 113.03 23.1704C113.093 23.0862 113.189 22.9964 113.318 22.9314C113.448 22.8662 113.563 22.8508 113.63 22.8508V24.5333V26.2159C114.501 26.2159 115.25 25.8248 115.731 25.1778C116.166 24.5923 116.302 23.9132 116.302 23.3556H114.619ZM113.63 24.5333V22.8508H101.923V24.5333V26.2159H113.63V24.5333ZM101.923 24.5333V22.8508C101.619 22.8508 101.464 22.8255 101.398 22.8084C101.348 22.7953 101.428 22.8074 101.529 22.9056C101.632 23.006 101.652 23.0932 101.643 23.0613C101.629 23.011 101.603 22.8703 101.603 22.5782H99.9203H98.2378C98.2378 23.4103 98.3538 24.5127 99.1836 25.319C99.9993 26.1116 101.097 26.2159 101.923 26.2159V24.5333ZM99.9203 22.5782H101.603V20.4111H99.9203H98.2378V22.5782H99.9203ZM99.9203 20.4111H101.603C101.603 20.1191 101.629 19.9784 101.643 19.9281C101.652 19.8961 101.632 19.9833 101.529 20.0837C101.428 20.1819 101.348 20.194 101.398 20.1809C101.464 20.1639 101.619 20.1385 101.923 20.1385V18.456V16.7735C101.097 16.7735 99.9993 16.8777 99.1836 17.6704C98.3538 18.4767 98.2378 19.579 98.2378 20.4111H99.9203ZM128.662 13.58L127.039 13.1373L127.036 13.1465L128.662 13.58ZM126.872 14.4516L127.184 12.7983L127.182 12.7978L126.872 14.4516ZM125.764 12.9676L124.116 12.6283L124.115 12.6373L124.113 12.6464L125.764 12.9676ZM134.386 10.2116H132.703V11.8941H134.386V10.2116ZM134.386 12.8262V11.1437H132.703V12.8262H134.386ZM129.58 19.0213L129.723 20.6978L129.736 20.6967L129.748 20.6955L129.58 19.0213ZM120.653 16.8778L120.696 18.5598L122.335 18.5177V16.8778H120.653ZM123.621 16.8307H121.938V18.5547L123.662 18.5127L123.621 16.8307ZM129.368 16.5244L129.515 18.2006L129.523 18.1999L129.531 18.1992L129.368 16.5244ZM130.499 17.6551L128.821 17.7709L128.821 17.775L130.499 17.6551ZM125.717 6.84311V5.16057H119.028V6.84311V8.52565H125.717V6.84311ZM119.028 6.84311V5.16057C119.076 5.16057 119.178 5.17163 119.301 5.23266C119.425 5.2941 119.518 5.38052 119.578 5.46167C119.683 5.6039 119.65 5.66974 119.65 5.54755H117.968H116.285C116.285 6.13203 116.417 6.84565 116.87 7.45899C117.371 8.13933 118.147 8.52565 119.028 8.52565V6.84311ZM117.968 5.54755H119.65C119.65 5.42537 119.683 5.49121 119.578 5.63344C119.518 5.71459 119.425 5.80101 119.301 5.86245C119.178 5.92348 119.076 5.93454 119.028 5.93454V4.252V2.56946C118.147 2.56946 117.371 2.95578 116.87 3.63612C116.417 4.24946 116.285 4.96308 116.285 5.54755H117.968ZM119.028 4.252V5.93454H127.248V4.252V2.56946H119.028V4.252ZM127.248 4.252V5.93454C127.552 5.93454 127.707 5.95985 127.773 5.97693C127.823 5.99001 127.743 5.97795 127.642 5.87974C127.539 5.77929 127.519 5.69213 127.528 5.72406C127.542 5.77436 127.568 5.91506 127.568 6.20711H129.251H130.933C130.933 5.37503 130.817 4.27266 129.987 3.46637C129.172 2.67372 128.074 2.56946 127.248 2.56946V4.252ZM129.251 6.20711H127.568V7.99733H129.251H130.933V6.20711H129.251ZM129.251 7.99733H127.568C127.568 10.0354 127.338 12.0393 127.039 13.1373L128.662 13.58L130.285 14.0227C130.692 12.5296 130.933 10.1992 130.933 7.99733H129.251ZM128.662 13.58L127.036 13.1465C127.052 13.0881 127.086 13.0156 127.143 12.9477C127.2 12.8814 127.259 12.843 127.299 12.8238C127.372 12.7889 127.348 12.8293 127.184 12.7983L126.872 14.4516L126.559 16.1048C127.923 16.3629 129.786 15.8948 130.288 14.0135L128.662 13.58ZM126.872 14.4516L127.182 12.7978C127.062 12.7753 127.152 12.7588 127.274 12.9066C127.338 12.9853 127.384 13.0802 127.405 13.1735C127.424 13.2621 127.412 13.3077 127.416 13.2887L125.764 12.9676L124.113 12.6464C123.949 13.4878 124.106 14.3523 124.673 15.0425C125.201 15.685 125.928 15.9864 126.562 16.1053L126.872 14.4516ZM125.764 12.9676L127.412 13.3068C127.765 11.5958 127.942 9.88035 127.942 8.16222H126.259H124.577C124.577 9.64765 124.424 11.1358 124.116 12.6283L125.764 12.9676ZM126.259 8.16222H127.942V7.38489H126.259H124.577V8.16222H126.259ZM126.259 7.38489H127.942C127.942 7.06909 127.904 6.34991 127.328 5.7741C126.752 5.19828 126.033 5.16057 125.717 5.16057V6.84311V8.52565C125.802 8.52565 125.354 8.55861 124.949 8.15357C124.544 7.74853 124.577 7.30024 124.577 7.38489H126.259ZM134.386 3.80444H132.703V10.2116H134.386H136.068V3.80444H134.386ZM134.386 10.2116V11.8941H136.294V10.2116V8.52902H134.386V10.2116ZM136.294 10.2116V11.8941C136.26 11.8941 136.166 11.8863 136.048 11.8292C135.928 11.7711 135.835 11.6871 135.772 11.6039C135.662 11.4571 135.695 11.3846 135.695 11.5071H137.377H139.06C139.06 10.923 138.928 10.2027 138.464 9.58481C137.951 8.89986 137.167 8.52902 136.294 8.52902V10.2116ZM137.377 11.5071H135.695C135.695 11.6514 135.658 11.5855 135.766 11.439C135.828 11.3551 135.923 11.2693 136.045 11.2098C136.165 11.1515 136.26 11.1437 136.294 11.1437V12.8262V14.5088C137.169 14.5088 137.956 14.1363 138.47 13.442C138.932 12.8185 139.06 12.093 139.06 11.5071H137.377ZM136.294 12.8262V11.1437H134.386V12.8262V14.5088H136.294V12.8262ZM134.386 12.8262H132.703V21.8951H134.386H136.068V12.8262H134.386ZM134.386 21.8951H132.703C132.703 21.8678 132.711 21.7911 132.758 21.6955C132.806 21.6008 132.87 21.5334 132.923 21.493C132.973 21.4558 133.003 21.4489 132.994 21.4515C132.986 21.4539 132.954 21.461 132.902 21.461V23.1436V24.8261C133.553 24.8261 134.309 24.662 134.947 24.1816C135.642 23.6589 136.068 22.8498 136.068 21.8951H134.386ZM132.902 23.1436V21.461C132.849 21.461 132.818 21.4539 132.81 21.4515C132.801 21.4489 132.831 21.4558 132.88 21.493C132.934 21.5334 132.998 21.6008 133.045 21.6955C133.093 21.7911 133.1 21.8678 133.1 21.8951H131.418H129.735C129.735 22.8498 130.162 23.6589 130.856 24.1816C131.495 24.662 132.251 24.8261 132.902 24.8261V23.1436ZM131.418 21.8951H133.1V3.80444H131.418H129.735V21.8951H131.418ZM131.418 3.80444H133.1C133.1 3.8318 133.093 3.90845 133.045 4.00408C132.998 4.09876 132.934 4.16617 132.88 4.20652C132.831 4.24373 132.801 4.25062 132.81 4.24808C132.818 4.24561 132.849 4.23854 132.902 4.23854V2.556V0.873459C132.251 0.873459 131.495 1.03757 130.856 1.51793C130.162 2.04061 129.735 2.84972 129.735 3.80444H131.418ZM132.902 2.556V4.23854C132.954 4.23854 132.986 4.24561 132.994 4.24808C133.003 4.25062 132.973 4.24373 132.923 4.20652C132.87 4.16617 132.806 4.09876 132.758 4.00408C132.711 3.90845 132.703 3.8318 132.703 3.80444H134.386H136.068C136.068 2.84972 135.642 2.04061 134.947 1.51793C134.309 1.03757 133.553 0.873459 132.902 0.873459V2.556ZM129.58 19.0213L129.438 17.3449C126.464 17.5985 122.205 17.7392 117.944 17.7392V19.4218V21.1043C122.258 21.1043 126.62 20.9624 129.723 20.6978L129.58 19.0213ZM117.944 19.4218V17.7392C117.992 17.7392 118.093 17.7503 118.214 17.81C118.336 17.8701 118.428 17.9546 118.488 18.0352C118.595 18.1775 118.567 18.2498 118.567 18.1498H116.884H115.201C115.201 18.7328 115.338 19.4412 115.792 20.0487C116.293 20.7197 117.065 21.1043 117.944 21.1043V19.4218ZM116.884 18.1498H118.567C118.567 18.0497 118.595 18.1221 118.488 18.2644C118.428 18.3449 118.336 18.4295 118.214 18.4895C118.093 18.5493 117.992 18.5603 117.944 18.5603V16.8778V15.1952C117.065 15.1952 116.293 15.5799 115.792 16.2508C115.338 16.8583 115.201 17.5667 115.201 18.1498H116.884ZM117.944 16.8778V18.5603C118.777 18.5603 119.752 18.584 120.696 18.5598L120.653 16.8778L120.61 15.1958C119.716 15.2187 118.901 15.1952 117.944 15.1952V16.8778ZM120.653 16.8778H122.335V11.8133H120.653H118.97V16.8778H120.653ZM120.653 11.8133H122.335C122.335 11.8363 122.329 11.9089 122.283 12.0007C122.238 12.0912 122.176 12.1552 122.126 12.1931C122.08 12.2279 122.053 12.2344 122.061 12.2321C122.068 12.2298 122.095 12.2239 122.137 12.2239V10.5413V8.85879C121.49 8.85879 120.735 9.0269 120.098 9.5079C119.406 10.031 118.97 10.8434 118.97 11.8133H120.653ZM122.137 10.5413V12.2239C122.179 12.2239 122.206 12.2298 122.213 12.2321C122.221 12.2344 122.194 12.2279 122.147 12.1931C122.097 12.1552 122.036 12.0912 121.991 12.0007C121.945 11.9089 121.938 11.8363 121.938 11.8133H123.621H125.303C125.303 10.8434 124.868 10.031 124.176 9.5079C123.539 9.0269 122.784 8.85879 122.137 8.85879V10.5413ZM123.621 11.8133H121.938V16.8307H123.621H125.303V11.8133H123.621ZM123.621 16.8307L123.662 18.5127C125.62 18.465 127.588 18.3692 129.515 18.2006L129.368 16.5244L129.222 14.8483C127.38 15.0094 125.485 15.1022 123.58 15.1486L123.621 16.8307ZM129.368 16.5244L129.531 18.1992C129.502 18.2019 129.406 18.205 129.275 18.1577C129.14 18.1088 129.024 18.0263 128.939 17.9327C128.789 17.7651 128.813 17.6542 128.821 17.7709L130.499 17.6551L132.178 17.5393C132.139 16.9729 131.962 16.2613 131.441 15.6816C130.858 15.0346 130.041 14.769 129.206 14.8497L129.368 16.5244ZM130.499 17.6551L128.821 17.775C128.828 17.8787 128.797 17.8344 128.872 17.706C128.917 17.6305 128.994 17.5366 129.112 17.4599C129.232 17.382 129.344 17.354 129.413 17.3471L129.58 19.0213L129.748 20.6955C130.652 20.6051 131.362 20.1102 131.773 19.4121C132.143 18.7831 132.217 18.0911 132.177 17.5352L130.499 17.6551Z" fill="#213807" fill-opacity="0.8" mask="url(#path-1-outside-1_24_8508)"/>
<defs>
<linearGradient id="paint0_linear_24_8508" x1="101.684" y1="8.25" x2="101.684" y2="33.9167" gradientUnits="userSpaceOnUse">
<stop stop-color="#F8FFBF"/>
<stop offset="1" stop-color="#95B55E"/>
</linearGradient>
</defs>
</svg>
