<svg width="26" height="26" viewBox="0 0 26 26" fill="none" xmlns="http://www.w3.org/2000/svg">
<path d="M19.0856 1.82227C14.6352 1.82227 13 6.3682 13 6.3682C13 6.3682 11.3872 1.82227 6.90423 1.82227C3.53642 1.82227 -0.302647 4.49133 1.11517 10.5587C2.53298 16.626 13.0102 24.1843 13.0102 24.1843C13.0102 24.1843 23.4488 16.626 24.8686 10.5587C26.2864 4.49133 22.7236 1.82227 19.0856 1.82227Z" fill="#FF6C58"/>
<path d="M6.21762 2.27523C9.71137 2.27523 11.4461 6.03102 12.0067 7.55242C12.0859 7.76977 12.3886 7.77586 12.48 7.56461L12.9918 6.37023C12.2707 4.06477 10.2882 1.82227 6.90418 1.82227C5.50262 1.82227 4.02184 2.28539 2.87012 3.26242C3.88777 2.59414 5.08012 2.27523 6.21762 2.27523ZM19.0856 1.82227C18.0111 1.82227 17.1011 2.13508 16.3373 2.6043C16.8736 2.39711 17.4667 2.27523 18.1248 2.27523C21.4175 2.27523 24.3648 4.77164 23.0343 10.5424C21.8928 15.4966 15.2221 21.5071 13.1848 23.8004C13.0548 23.9466 13.0101 24.1823 13.0101 24.1823C13.0101 24.1823 23.4487 16.624 24.8686 10.5566C26.2864 4.49133 22.4514 1.82227 19.0856 1.82227Z" fill="#F0332D"/>
<path d="M3.45328 5.04141C4.215 4.09079 5.57594 3.30469 6.72969 4.21063C7.35328 4.70016 7.0811 5.7036 6.5225 6.1261C5.71 6.7436 5.00313 7.11532 4.5075 8.08219C4.21094 8.66313 4.03219 9.29891 3.94078 9.94688C3.90422 10.2028 3.56906 10.2658 3.44313 10.0403C2.58594 8.52094 2.34219 6.42876 3.45328 5.04141ZM15.6672 7.04016C15.3097 7.04016 15.0578 6.69485 15.1878 6.36173C15.4295 5.74829 15.7423 5.15516 16.1181 4.62704C16.6747 3.84704 17.733 3.39204 18.4033 3.86532C19.0898 4.34876 19.0005 5.31563 18.5191 5.78282C17.4831 6.78423 16.1811 7.04016 15.6672 7.04016Z" fill="#FFEAF4"/>
</svg>
