<svg width="46" height="46" viewBox="0 0 46 46" fill="none" xmlns="http://www.w3.org/2000/svg">
<g filter="url(#filter0_d_24_8495)">
<circle cx="23" cy="20" r="20" fill="#FFFBEB"/>
</g>
<path d="M23 11C28.8 11 33.501 14.664 33.501 19.185C33.501 23.705 28.8 27.369 23.001 27.369C22.4236 27.368 21.8468 27.3312 21.274 27.259L16.866 30.142C16.365 30.407 16.188 30.378 16.394 29.729L17.286 26.051C14.406 24.591 12.501 22.061 12.501 19.185C12.501 14.665 17.201 11 23.001 11M28.909 19.06L30.379 17.636C30.4638 17.5479 30.5111 17.4303 30.511 17.308C30.5108 17.1858 30.4632 17.0683 30.3782 16.9804C30.2931 16.8925 30.1773 16.8411 30.0551 16.8369C29.9329 16.8327 29.8138 16.8761 29.723 16.958L27.795 18.824V17.282C27.795 17.1568 27.7452 17.0368 27.6567 16.9482C27.5682 16.8597 27.4482 16.81 27.323 16.81C27.1978 16.81 27.0777 16.8597 26.9892 16.9482C26.9007 17.0368 26.851 17.1568 26.851 17.282V19.839C26.8343 19.9121 26.8343 19.9879 26.851 20.061V21.5C26.851 21.6252 26.9007 21.7452 26.9892 21.8338C27.0777 21.9223 27.1978 21.972 27.323 21.972C27.4482 21.972 27.5682 21.9223 27.6567 21.8338C27.7452 21.7452 27.795 21.6252 27.795 21.5V20.137L28.222 19.724L29.65 21.757C29.6856 21.8078 29.7309 21.851 29.7833 21.8842C29.8357 21.9175 29.8941 21.9401 29.9552 21.9508C30.0163 21.9615 30.0789 21.96 30.1394 21.9465C30.1999 21.933 30.2572 21.9077 30.308 21.872C30.3587 21.8363 30.402 21.791 30.4352 21.7387C30.4685 21.6863 30.4911 21.6279 30.5018 21.5668C30.5124 21.5057 30.511 21.4431 30.4975 21.3826C30.4839 21.322 30.4586 21.2648 30.423 21.214L28.909 19.06ZM25.951 20.984H24.491V17.297C24.4854 17.1757 24.4333 17.0612 24.3455 16.9774C24.2576 16.8935 24.1409 16.8467 24.0195 16.8467C23.8981 16.8467 23.7813 16.8935 23.6935 16.9774C23.6057 17.0612 23.5536 17.1757 23.548 17.297V21.456C23.548 21.716 23.758 21.928 24.019 21.928H25.951C26.0762 21.928 26.1962 21.8783 26.2847 21.7898C26.3732 21.7012 26.423 21.5812 26.423 21.456C26.423 21.3308 26.3732 21.2108 26.2847 21.1222C26.1962 21.0337 26.0762 20.984 25.951 20.984ZM20.094 19.893L20.79 18.185L21.428 19.892L20.094 19.893ZM22.617 20.38L22.619 20.364C22.6186 20.2451 22.5733 20.1308 22.492 20.044L21.446 17.244C21.4021 17.1106 21.3186 16.9937 21.2066 16.909C21.0945 16.8243 20.9593 16.7758 20.819 16.77C20.6777 16.7699 20.5398 16.8126 20.4233 16.8924C20.3067 16.9721 20.217 17.0853 20.166 17.217L18.504 21.292C18.4566 21.4079 18.4573 21.5379 18.5058 21.6533C18.5542 21.7687 18.6466 21.8602 18.7625 21.9075C18.8784 21.9548 19.0083 21.9542 19.1238 21.9057C19.2392 21.8572 19.3306 21.7649 19.378 21.649L19.71 20.836H21.78L22.078 21.636C22.0983 21.6958 22.1304 21.7509 22.1724 21.7981C22.2145 21.8452 22.2655 21.8835 22.3226 21.9105C22.3796 21.9376 22.4416 21.9529 22.5047 21.9557C22.5678 21.9584 22.6308 21.9484 22.6899 21.9263C22.7491 21.9042 22.8032 21.8704 22.8491 21.8271C22.895 21.7837 22.9317 21.7315 22.9571 21.6737C22.9825 21.6158 22.996 21.5535 22.9968 21.4903C22.9977 21.4272 22.9858 21.3645 22.962 21.306L22.617 20.38ZM19.294 17.302C19.2942 17.24 19.2822 17.1786 19.2587 17.1213C19.2351 17.064 19.2004 17.0119 19.1567 16.968C19.1129 16.9241 19.0609 16.8894 19.0036 16.8657C18.9463 16.842 18.885 16.8299 18.823 16.83H15.578C15.4528 16.83 15.3327 16.8797 15.2442 16.9682C15.1557 17.0568 15.106 17.1768 15.106 17.302C15.106 17.4272 15.1557 17.5472 15.2442 17.6358C15.3327 17.7243 15.4528 17.774 15.578 17.774H16.738V21.51C16.738 21.6352 16.7877 21.7552 16.8762 21.8438C16.9647 21.9323 17.0848 21.982 17.21 21.982C17.3352 21.982 17.4552 21.9323 17.5437 21.8438C17.6322 21.7552 17.682 21.6352 17.682 21.51V17.774H18.822C18.884 17.7743 18.9455 17.7622 19.0029 17.7386C19.0603 17.715 19.1124 17.6802 19.1563 17.6363C19.2002 17.5925 19.235 17.5403 19.2586 17.4829C19.2822 17.4256 19.2942 17.3641 19.294 17.302Z" fill="#6E3209"/>
<defs>
<filter id="filter0_d_24_8495" x="0" y="0" width="46" height="46" filterUnits="userSpaceOnUse" color-interpolation-filters="sRGB">
<feFlood flood-opacity="0" result="BackgroundImageFix"/>
<feColorMatrix in="SourceAlpha" type="matrix" values="0 0 0 0 0 0 0 0 0 0 0 0 0 0 0 0 0 0 127 0" result="hardAlpha"/>
<feOffset dy="3"/>
<feGaussianBlur stdDeviation="1.5"/>
<feComposite in2="hardAlpha" operator="out"/>
<feColorMatrix type="matrix" values="0 0 0 0 0.454902 0 0 0 0 0.372549 0 0 0 0 0.337255 0 0 0 0.25 0"/>
<feBlend mode="normal" in2="BackgroundImageFix" result="effect1_dropShadow_24_8495"/>
<feBlend mode="normal" in="SourceGraphic" in2="effect1_dropShadow_24_8495" result="shape"/>
</filter>
</defs>
</svg>
