<svg width="157" height="248" viewBox="0 0 157 248" fill="none" xmlns="http://www.w3.org/2000/svg">
<g filter="url(#filter0_d_6_2890)">
<path d="M108.375 3C111.74 3 114.468 5.72793 114.468 9.09277C114.468 12.1682 112.189 14.7094 109.228 15.124V38.6846H132.147C141.679 38.6846 149.407 46.4123 149.407 55.9443V205.074C149.407 214.606 141.679 222.333 132.147 222.333H125.823V228.392C125.823 233.698 121.521 238 116.215 238C110.908 238 106.606 233.698 106.606 228.392V222.333H48.082V228.392C48.082 233.698 43.7802 238 38.4736 238C33.1672 238 28.8652 233.698 28.8652 228.392V222.333H21.666C12.1343 222.333 4.40738 214.606 4.40723 205.074V55.9443C4.40723 46.4125 12.1342 38.6848 21.666 38.6846H44.5879V15.124C41.6266 14.7095 39.3477 12.1683 39.3477 9.09277C39.3477 5.72793 42.0756 3 45.4404 3H108.375ZM55.9434 15.1855V38.6846H96.998V15.1855H55.9434Z" fill="#E7947E"/>
<path d="M108.375 3V1.70556V3ZM114.468 9.09277L115.762 9.09281V9.09277H114.468ZM109.228 15.124L109.048 13.8421L107.933 13.9982V15.124H109.228ZM109.228 38.6846H107.933V39.979H109.228V38.6846ZM149.407 205.074L150.702 205.074V205.074H149.407ZM125.823 222.333V221.039H124.529V222.333H125.823ZM116.215 238V239.294H116.215L116.215 238ZM106.606 222.333H107.901V221.039H106.606V222.333ZM48.082 222.333V221.039H46.7876V222.333H48.082ZM38.4736 238L38.4736 239.294H38.4736V238ZM28.8652 222.333H30.1597V221.039H28.8652V222.333ZM21.666 222.333L21.666 223.627H21.666V222.333ZM4.40723 205.074H3.11278V205.074L4.40723 205.074ZM21.666 38.6846V37.3901H21.666L21.666 38.6846ZM44.5879 38.6846V39.979H45.8823V38.6846H44.5879ZM44.5879 15.124H45.8823V13.9982L44.7673 13.8421L44.5879 15.124ZM39.3477 9.09277H38.0532V9.09281L39.3477 9.09277ZM45.4404 3V4.29444V3ZM55.9434 15.1855V13.8911H54.6489V15.1855H55.9434ZM55.9434 38.6846H54.6489V39.979H55.9434V38.6846ZM96.998 38.6846V39.979H98.2925V38.6846H96.998ZM96.998 15.1855H98.2925V13.8911H96.998V15.1855ZM108.375 3V4.29444C111.025 4.29444 113.173 6.44283 113.173 9.09277H114.468H115.762C115.762 5.01303 112.455 1.70556 108.375 1.70556V3ZM114.468 9.09277L113.173 9.09274C113.173 11.513 111.379 13.5156 109.048 13.8421L109.228 15.124L109.407 16.406C112.998 15.9031 115.762 12.8233 115.762 9.09281L114.468 9.09277ZM109.228 15.124H107.933V38.6846H109.228H110.522V15.124H109.228ZM109.228 38.6846V39.979H132.147V38.6846V37.3901H109.228V38.6846ZM132.147 38.6846V39.979C140.965 39.979 148.113 47.1272 148.113 55.9443H149.407H150.702C150.702 45.6974 142.394 37.3901 132.147 37.3901V38.6846ZM149.407 55.9443H148.113V205.074H149.407H150.702V55.9443H149.407ZM149.407 205.074L148.113 205.074C148.113 213.891 140.965 221.039 132.147 221.039V222.333V223.627C142.394 223.627 150.701 215.321 150.702 205.074L149.407 205.074ZM132.147 222.333V221.039H125.823V222.333V223.627H132.147V222.333ZM125.823 222.333H124.529V228.392H125.823H127.118V222.333H125.823ZM125.823 228.392H124.529C124.529 232.983 120.806 236.705 116.215 236.706L116.215 238L116.215 239.294C122.236 239.294 127.118 234.413 127.118 228.392H125.823ZM116.215 238V236.706C111.623 236.706 107.901 232.983 107.901 228.392H106.606H105.312C105.312 234.413 110.193 239.294 116.215 239.294V238ZM106.606 228.392H107.901V222.333H106.606H105.312V228.392H106.606ZM106.606 222.333V221.039H48.082V222.333V223.627H106.606V222.333ZM48.082 222.333H46.7876V228.392H48.082H49.3765V222.333H48.082ZM48.082 228.392H46.7876C46.7876 232.983 43.0653 236.706 38.4736 236.706V238V239.294C44.4951 239.294 49.3765 234.413 49.3765 228.392H48.082ZM38.4736 238L38.4737 236.706C33.8821 236.705 30.1597 232.983 30.1597 228.392H28.8652H27.5708C27.5708 234.413 32.4523 239.294 38.4736 239.294L38.4736 238ZM28.8652 228.392H30.1597V222.333H28.8652H27.5708V228.392H28.8652ZM28.8652 222.333V221.039H21.666V222.333V223.627H28.8652V222.333ZM21.666 222.333L21.666 221.039C12.8492 221.038 5.70181 213.891 5.70167 205.074L4.40723 205.074L3.11278 205.074C3.11294 215.321 11.4194 223.627 21.666 223.627L21.666 222.333ZM4.40723 205.074H5.70167V55.9443H4.40723H3.11278V205.074H4.40723ZM4.40723 55.9443H5.70167C5.70167 47.1273 12.8492 39.9792 21.666 39.979L21.666 38.6846L21.666 37.3901C11.4192 37.3904 3.11278 45.6976 3.11278 55.9443H4.40723ZM21.666 38.6846V39.979H44.5879V38.6846V37.3901H21.666V38.6846ZM44.5879 38.6846H45.8823V15.124H44.5879H43.2934V38.6846H44.5879ZM44.5879 15.124L44.7673 13.8421C42.4359 13.5157 40.6422 11.5132 40.6421 9.09274L39.3477 9.09277L38.0532 9.09281C38.0533 12.8234 40.8173 15.9032 44.4084 16.406L44.5879 15.124ZM39.3477 9.09277H40.6421C40.6421 6.44283 42.7905 4.29444 45.4404 4.29444V3V1.70556C41.3607 1.70556 38.0532 5.01303 38.0532 9.09277H39.3477ZM45.4404 3V4.29444H108.375V3V1.70556H45.4404V3ZM55.9434 15.1855H54.6489V38.6846H55.9434H57.2378V15.1855H55.9434ZM55.9434 38.6846V39.979H96.998V38.6846V37.3901H55.9434V38.6846ZM96.998 38.6846H98.2925V15.1855H96.998H95.7036V38.6846H96.998ZM96.998 15.1855V13.8911H55.9434V15.1855V16.48H96.998V15.1855Z" fill="#E7947E"/>
<path d="M106.1 2C109.436 2 112.141 4.70481 112.141 8.04102C112.14 11.084 109.89 13.5997 106.963 14.0186V37.3818H129.399C138.931 37.3818 146.659 45.1087 146.659 54.6406V202.207C146.659 211.739 138.931 219.467 129.399 219.467H123.359V225.508C123.359 230.75 119.109 235 113.866 235C108.624 235 104.374 230.75 104.374 225.508V219.467H46.5557V225.508C46.5554 230.75 42.305 235 37.0625 235C31.8202 235 27.5705 230.75 27.5703 225.508V219.467H20.666C11.1342 219.467 3.40723 211.739 3.40723 202.207V54.6406C3.4073 45.1088 11.1343 37.3821 20.666 37.3818H43.1035V14.0186C40.1763 13.5997 37.9259 11.084 37.9258 8.04102C37.9258 4.70481 40.6306 2 43.9668 2H106.1ZM54.3223 14.0811V37.3818H94.8809V14.0811H54.3223Z" fill="url(#paint0_linear_6_2890)"/>
<path d="M106.1 2V0.705556V2ZM112.141 8.04102L113.435 8.04107V8.04102H112.141ZM106.963 14.0186L106.78 12.7372L105.668 12.8962V14.0186H106.963ZM106.963 37.3818H105.668V38.6763H106.963V37.3818ZM146.659 54.6406H147.954V54.6406L146.659 54.6406ZM123.359 219.467V218.172H122.065V219.467H123.359ZM123.359 225.508L124.654 225.508V225.508H123.359ZM113.866 235L113.866 236.294H113.866V235ZM104.374 225.508H103.08V225.508L104.374 225.508ZM104.374 219.467H105.668V218.172H104.374V219.467ZM46.5557 219.467V218.172H45.2612V219.467H46.5557ZM46.5557 225.508L47.8501 225.508V225.508H46.5557ZM37.0625 235L37.0625 236.294H37.0625V235ZM27.5703 225.508H26.2759V225.508L27.5703 225.508ZM27.5703 219.467H28.8648V218.172H27.5703V219.467ZM20.666 219.467L20.666 220.761H20.666V219.467ZM3.40723 54.6406L2.11278 54.6406V54.6406H3.40723ZM20.666 37.3818V36.0874H20.666L20.666 37.3818ZM43.1035 37.3818V38.6763H44.398V37.3818H43.1035ZM43.1035 14.0186H44.398V12.8961L43.2869 12.7372L43.1035 14.0186ZM37.9258 8.04102H36.6313V8.04107L37.9258 8.04102ZM43.9668 2V3.29444V2ZM54.3223 14.0811V12.7866H53.0278V14.0811H54.3223ZM54.3223 37.3818H53.0278V38.6763H54.3223V37.3818ZM94.8809 37.3818V38.6763H96.1753V37.3818H94.8809ZM94.8809 14.0811H96.1753V12.7866H94.8809V14.0811ZM106.1 2V3.29444C108.721 3.29444 110.846 5.41971 110.846 8.04102H112.141H113.435C113.435 3.9899 110.151 0.705556 106.1 0.705556V2ZM112.141 8.04102L110.846 8.04096C110.846 10.4302 109.079 12.4081 106.78 12.7372L106.963 14.0186L107.146 15.2999C110.701 14.7912 113.435 11.7378 113.435 8.04107L112.141 8.04102ZM106.963 14.0186H105.668V37.3818H106.963H108.257V14.0186H106.963ZM106.963 37.3818V38.6763H129.399V37.3818V36.0874H106.963V37.3818ZM129.399 37.3818V38.6763C138.217 38.6763 145.365 45.8236 145.365 54.6406L146.659 54.6406L147.954 54.6406C147.954 44.3937 139.646 36.0874 129.399 36.0874V37.3818ZM146.659 54.6406H145.365V202.207H146.659H147.954V54.6406H146.659ZM146.659 202.207H145.365C145.365 211.024 138.217 218.172 129.399 218.172V219.467V220.761C139.646 220.761 147.954 212.454 147.954 202.207H146.659ZM129.399 219.467V218.172H123.359V219.467V220.761H129.399V219.467ZM123.359 219.467H122.065V225.508H123.359H124.654V219.467H123.359ZM123.359 225.508L122.065 225.508C122.065 230.035 118.394 233.706 113.866 233.706V235V236.294C119.823 236.294 124.654 231.465 124.654 225.508L123.359 225.508ZM113.866 235L113.866 233.706C109.339 233.705 105.669 230.035 105.668 225.508L104.374 225.508L103.08 225.508C103.08 231.465 107.909 236.294 113.866 236.294L113.866 235ZM104.374 225.508H105.668V219.467H104.374H103.08V225.508H104.374ZM104.374 219.467V218.172H46.5557V219.467V220.761H104.374V219.467ZM46.5557 219.467H45.2612V225.508H46.5557H47.8501V219.467H46.5557ZM46.5557 225.508L45.2612 225.508C45.261 230.035 41.5902 233.706 37.0625 233.706V235V236.294C43.0198 236.294 47.8499 231.465 47.8501 225.508L46.5557 225.508ZM37.0625 235L37.0625 233.706C32.5351 233.705 28.8649 230.035 28.8648 225.508L27.5703 225.508L26.2759 225.508C26.2761 231.465 31.1052 236.294 37.0625 236.294L37.0625 235ZM27.5703 225.508H28.8648V219.467H27.5703H26.2759V225.508H27.5703ZM27.5703 219.467V218.172H20.666V219.467V220.761H27.5703V219.467ZM20.666 219.467L20.666 218.172C11.8492 218.172 4.70167 211.024 4.70167 202.207H3.40723H2.11278C2.11278 212.454 10.4192 220.761 20.666 220.761L20.666 219.467ZM3.40723 202.207H4.70167V54.6406H3.40723H2.11278V202.207H3.40723ZM3.40723 54.6406L4.70167 54.6406C4.70174 45.8237 11.8491 38.6765 20.666 38.6763L20.666 37.3818L20.666 36.0874C10.4194 36.0877 2.11287 44.3939 2.11278 54.6406L3.40723 54.6406ZM20.666 37.3818V38.6763H43.1035V37.3818V36.0874H20.666V37.3818ZM43.1035 37.3818H44.398V14.0186H43.1035H41.8091V37.3818H43.1035ZM43.1035 14.0186L43.2869 12.7372C40.9876 12.4082 39.2203 10.4303 39.2202 8.04096L37.9258 8.04102L36.6313 8.04107C36.6315 11.7378 39.365 14.7913 42.9202 15.2999L43.1035 14.0186ZM37.9258 8.04102H39.2202C39.2202 5.41971 41.3455 3.29444 43.9668 3.29444V2V0.705556C39.9157 0.705555 36.6313 3.9899 36.6313 8.04102H37.9258ZM43.9668 2V3.29444H106.1V2V0.705556H43.9668V2ZM54.3223 14.0811H53.0278V37.3818H54.3223H55.6167V14.0811H54.3223ZM54.3223 37.3818V38.6763H94.8809V37.3818V36.0874H54.3223V37.3818ZM94.8809 37.3818H96.1753V14.0811H94.8809H93.5864V37.3818H94.8809ZM94.8809 14.0811V12.7866H54.3223V14.0811V15.3755H94.8809V14.0811Z" fill="#E7947E"/>
</g>
<defs>
<filter id="filter0_d_6_2890" x="0.112793" y="0.705566" width="156.589" height="246.589" filterUnits="userSpaceOnUse" color-interpolation-filters="sRGB">
<feFlood flood-opacity="0" result="BackgroundImageFix"/>
<feColorMatrix in="SourceAlpha" type="matrix" values="0 0 0 0 0 0 0 0 0 0 0 0 0 0 0 0 0 0 127 0" result="hardAlpha"/>
<feOffset dx="2" dy="4"/>
<feGaussianBlur stdDeviation="2"/>
<feComposite in2="hardAlpha" operator="out"/>
<feColorMatrix type="matrix" values="0 0 0 0 0.4 0 0 0 0 0.101961 0 0 0 0 0.101961 0 0 0 0.25 0"/>
<feBlend mode="normal" in2="BackgroundImageFix" result="effect1_dropShadow_6_2890"/>
<feBlend mode="normal" in="SourceGraphic" in2="effect1_dropShadow_6_2890" result="shape"/>
</filter>
<linearGradient id="paint0_linear_6_2890" x1="75.0331" y1="125.835" x2="75.0331" y2="235" gradientUnits="userSpaceOnUse">
<stop stop-color="#FFD3BF"/>
<stop offset="1" stop-color="#FB9082"/>
</linearGradient>
</defs>
</svg>
