<svg width="160" height="248" viewBox="0 0 160 248" fill="none" xmlns="http://www.w3.org/2000/svg">
<g filter="url(#filter0_d_6_2891)">
<path d="M111.375 3C114.74 3 117.468 5.72793 117.468 9.09277C117.468 12.1686 115.188 14.7108 112.227 15.125V38.6846H135.147C144.679 38.6846 152.407 46.4123 152.407 55.9443V205.074C152.407 214.606 144.679 222.333 135.147 222.333H128.823V228.392C128.823 233.698 124.521 238 119.215 238C113.908 238 109.606 233.698 109.606 228.392V222.333H51.083V228.392C51.083 233.698 46.781 238 41.4746 238C36.168 238 31.8652 233.698 31.8652 228.392V222.333H24.666C15.1343 222.333 7.40738 214.606 7.40723 205.074V55.9443C7.40723 46.4125 15.1342 38.6848 24.666 38.6846H47.5869V15.124C44.6261 14.7091 42.3477 12.168 42.3477 9.09277C42.3477 5.72809 45.0748 3.00026 48.4395 3H111.375ZM58.9424 15.1855V38.6846H99.998V15.1855H58.9424Z" fill="#B9C57A"/>
<path d="M111.375 3V1.70556V3ZM117.468 9.09277H118.762V9.09277L117.468 9.09277ZM112.227 15.125L112.047 13.843L110.932 13.999V15.125H112.227ZM112.227 38.6846H110.932V39.979H112.227V38.6846ZM152.407 205.074L153.702 205.074V205.074H152.407ZM128.823 222.333V221.039H127.529V222.333H128.823ZM119.215 238V239.294V238ZM109.606 222.333H110.901V221.039H109.606V222.333ZM51.083 222.333V221.039H49.7886V222.333H51.083ZM41.4746 238V239.294H41.4747L41.4746 238ZM31.8652 222.333H33.1597V221.039H31.8652V222.333ZM24.666 222.333L24.666 223.627H24.666V222.333ZM7.40723 205.074H6.11278V205.074L7.40723 205.074ZM24.666 38.6846V37.3901H24.666L24.666 38.6846ZM47.5869 38.6846V39.979H48.8814V38.6846H47.5869ZM47.5869 15.124H48.8814V13.9983L47.7666 13.8421L47.5869 15.124ZM42.3477 9.09277L41.0532 9.09277V9.09277H42.3477ZM48.4395 3V1.70556H48.4394L48.4395 3ZM58.9424 15.1855V13.8911H57.6479V15.1855H58.9424ZM58.9424 38.6846H57.6479V39.979H58.9424V38.6846ZM99.998 38.6846V39.979H101.292V38.6846H99.998ZM99.998 15.1855H101.292V13.8911H99.998V15.1855ZM111.375 3V4.29444C114.025 4.29444 116.173 6.44283 116.173 9.09278L117.468 9.09277L118.762 9.09277C118.762 5.01303 115.455 1.70556 111.375 1.70556V3ZM117.468 9.09277H116.173C116.173 11.5136 114.379 13.5169 112.047 13.843L112.227 15.125L112.406 16.407C115.998 15.9046 118.762 12.8236 118.762 9.09277H117.468ZM112.227 15.125H110.932V38.6846H112.227H113.521V15.125H112.227ZM112.227 38.6846V39.979H135.147V38.6846V37.3901H112.227V38.6846ZM135.147 38.6846V39.979C143.965 39.979 151.113 47.1272 151.113 55.9443H152.407H153.702C153.702 45.6974 145.394 37.3901 135.147 37.3901V38.6846ZM152.407 55.9443H151.113V205.074H152.407H153.702V55.9443H152.407ZM152.407 205.074L151.113 205.074C151.113 213.891 143.965 221.039 135.147 221.039V222.333V223.627C145.394 223.627 153.701 215.321 153.702 205.074L152.407 205.074ZM135.147 222.333V221.039H128.823V222.333V223.627H135.147V222.333ZM128.823 222.333H127.529V228.392H128.823H130.118V222.333H128.823ZM128.823 228.392H127.529C127.529 232.983 123.807 236.706 119.215 236.706V238V239.294C125.236 239.294 130.118 234.413 130.118 228.392H128.823ZM119.215 238V236.706C114.623 236.706 110.901 232.983 110.901 228.392H109.606H108.312C108.312 234.413 113.193 239.294 119.215 239.294V238ZM109.606 228.392H110.901V222.333H109.606H108.312V228.392H109.606ZM109.606 222.333V221.039H51.083V222.333V223.627H109.606V222.333ZM51.083 222.333H49.7886V228.392H51.083H52.3775V222.333H51.083ZM51.083 228.392H49.7886C49.7886 232.983 46.0661 236.705 41.4745 236.706L41.4746 238L41.4747 239.294C47.4958 239.294 52.3775 234.413 52.3775 228.392H51.083ZM41.4746 238V236.706C36.8828 236.706 33.1597 232.983 33.1597 228.392H31.8652H30.5708C30.5708 234.413 35.4533 239.294 41.4746 239.294V238ZM31.8652 228.392H33.1597V222.333H31.8652H30.5708V228.392H31.8652ZM31.8652 222.333V221.039H24.666V222.333V223.627H31.8652V222.333ZM24.666 222.333L24.666 221.039C15.8492 221.038 8.70181 213.891 8.70167 205.074L7.40723 205.074L6.11278 205.074C6.11294 215.321 14.4194 223.627 24.666 223.627L24.666 222.333ZM7.40723 205.074H8.70167V55.9443H7.40723H6.11278V205.074H7.40723ZM7.40723 55.9443H8.70167C8.70167 47.1273 15.8492 39.9792 24.666 39.979L24.666 38.6846L24.666 37.3901C14.4192 37.3904 6.11278 45.6976 6.11278 55.9443H7.40723ZM24.666 38.6846V39.979H47.5869V38.6846V37.3901H24.666V38.6846ZM47.5869 38.6846H48.8814V15.124H47.5869H46.2925V38.6846H47.5869ZM47.5869 15.124L47.7666 13.8421C45.4355 13.5154 43.6421 11.513 43.6421 9.09277H42.3477H41.0532C41.0532 12.823 43.8166 15.9027 47.4072 16.4059L47.5869 15.124ZM42.3477 9.09277L43.6421 9.09277C43.6421 6.44282 45.7899 4.29465 48.4396 4.29444L48.4395 3L48.4394 1.70556C44.3597 1.70587 41.0532 5.01336 41.0532 9.09277L42.3477 9.09277ZM48.4395 3V4.29444H111.375V3V1.70556H48.4395V3ZM58.9424 15.1855H57.6479V38.6846H58.9424H60.2368V15.1855H58.9424ZM58.9424 38.6846V39.979H99.998V38.6846V37.3901H58.9424V38.6846ZM99.998 38.6846H101.292V15.1855H99.998H98.7036V38.6846H99.998ZM99.998 15.1855V13.8911H58.9424V15.1855V16.48H99.998V15.1855Z" fill="#B9C57A"/>
<path d="M106.692 2C110.029 2 112.733 4.70481 112.733 8.04102C112.733 11.0841 110.483 13.5997 107.556 14.0186V37.3818H129.992C139.524 37.3818 147.252 45.1087 147.252 54.6406V202.207C147.252 211.739 139.524 219.467 129.992 219.467H123.951V225.508C123.951 230.75 119.701 235 114.459 235C109.216 235 104.966 230.75 104.966 225.508V219.467H47.1475V225.508C47.1473 230.75 42.8978 235 37.6553 235C32.4128 235 28.1623 230.75 28.1621 225.508V219.467H21.2588C11.727 219.467 4 211.739 4 202.207V54.6406C4.00011 45.1088 11.727 37.3821 21.2588 37.3818H43.6963V14.0186C40.7691 13.5997 38.5186 11.0841 38.5186 8.04102C38.5186 4.70481 41.2234 2 44.5596 2H106.692ZM54.915 14.082V37.3818H95.4736V14.082H54.915Z" fill="url(#paint0_linear_6_2891)"/>
<path d="M106.692 2V0.705556V2ZM112.733 8.04102L114.028 8.04103V8.04102H112.733ZM107.556 14.0186L107.372 12.7372L106.261 12.8962V14.0186H107.556ZM107.556 37.3818H106.261V38.6763H107.556V37.3818ZM147.252 54.6406H148.546V54.6406L147.252 54.6406ZM123.951 219.467V218.172H122.657V219.467H123.951ZM123.951 225.508L125.246 225.508V225.508H123.951ZM114.459 235V236.294H114.459L114.459 235ZM104.966 225.508H103.671V225.508L104.966 225.508ZM104.966 219.467H106.26V218.172H104.966V219.467ZM47.1475 219.467V218.172H45.853V219.467H47.1475ZM47.1475 225.508L48.4419 225.508V225.508H47.1475ZM37.6553 235V236.294H37.6553L37.6553 235ZM28.1621 225.508H26.8677V225.508L28.1621 225.508ZM28.1621 219.467H29.4566V218.172H28.1621V219.467ZM21.2588 219.467L21.2588 220.761H21.2588V219.467ZM4 54.6406L2.70556 54.6406V54.6406H4ZM21.2588 37.3818V36.0874H21.2588L21.2588 37.3818ZM43.6963 37.3818V38.6763H44.9907V37.3818H43.6963ZM43.6963 14.0186H44.9907V12.8962L43.8797 12.7372L43.6963 14.0186ZM38.5186 8.04102H37.2241V8.04103L38.5186 8.04102ZM44.5596 2V3.29444V2ZM54.915 14.082V12.7876H53.6206V14.082H54.915ZM54.915 37.3818H53.6206V38.6763H54.915V37.3818ZM95.4736 37.3818V38.6763H96.7681V37.3818H95.4736ZM95.4736 14.082H96.7681V12.7876H95.4736V14.082ZM106.692 2V3.29444C109.314 3.29444 111.439 5.41971 111.439 8.04102H112.733H114.028C114.028 3.9899 110.743 0.705556 106.692 0.705556V2ZM112.733 8.04102L111.439 8.041C111.439 10.4303 109.672 12.4081 107.372 12.7372L107.556 14.0186L107.739 15.2999C111.294 14.7912 114.028 11.7379 114.028 8.04103L112.733 8.04102ZM107.556 14.0186H106.261V37.3818H107.556H108.85V14.0186H107.556ZM107.556 37.3818V38.6763H129.992V37.3818V36.0874H107.556V37.3818ZM129.992 37.3818V38.6763C138.809 38.6763 145.957 45.8237 145.958 54.6406L147.252 54.6406L148.546 54.6406C148.546 44.3937 140.239 36.0874 129.992 36.0874V37.3818ZM147.252 54.6406H145.958V202.207H147.252H148.546V54.6406H147.252ZM147.252 202.207H145.958C145.958 211.024 138.809 218.172 129.992 218.172V219.467V220.761C140.239 220.761 148.546 212.454 148.546 202.207H147.252ZM129.992 219.467V218.172H123.951V219.467V220.761H129.992V219.467ZM123.951 219.467H122.657V225.508H123.951H125.246V219.467H123.951ZM123.951 225.508L122.657 225.508C122.657 230.035 118.987 233.706 114.459 233.706L114.459 235L114.459 236.294C120.416 236.294 125.245 231.465 125.246 225.508L123.951 225.508ZM114.459 235V233.706C109.931 233.706 106.26 230.035 106.26 225.508L104.966 225.508L103.671 225.508C103.672 231.465 108.502 236.294 114.459 236.294V235ZM104.966 225.508H106.26V219.467H104.966H103.671V225.508H104.966ZM104.966 219.467V218.172H47.1475V219.467V220.761H104.966V219.467ZM47.1475 219.467H45.853V225.508H47.1475H48.4419V219.467H47.1475ZM47.1475 225.508L45.853 225.508C45.8529 230.035 42.1828 233.706 37.6553 233.706L37.6553 235L37.6553 236.294C43.6127 236.294 48.4417 231.465 48.4419 225.508L47.1475 225.508ZM37.6553 235V233.706C33.1275 233.706 29.4567 230.035 29.4566 225.508L28.1621 225.508L26.8677 225.508C26.8678 231.465 31.698 236.294 37.6553 236.294V235ZM28.1621 225.508H29.4566V219.467H28.1621H26.8677V225.508H28.1621ZM28.1621 219.467V218.172H21.2588V219.467V220.761H28.1621V219.467ZM21.2588 219.467L21.2588 218.172C12.4419 218.172 5.29444 211.024 5.29444 202.207H4H2.70556C2.70556 212.454 11.012 220.761 21.2588 220.761L21.2588 219.467ZM4 202.207H5.29444V54.6406H4H2.70556V202.207H4ZM4 54.6406L5.29444 54.6406C5.29454 45.8238 12.4419 38.6765 21.2588 38.6763L21.2588 37.3818L21.2588 36.0874C11.0121 36.0877 2.70567 44.3939 2.70556 54.6406L4 54.6406ZM21.2588 37.3818V38.6763H43.6963V37.3818V36.0874H21.2588V37.3818ZM43.6963 37.3818H44.9907V14.0186H43.6963H42.4018V37.3818H43.6963ZM43.6963 14.0186L43.8797 12.7372C41.5803 12.4081 39.813 10.4303 39.813 8.041L38.5186 8.04102L37.2241 8.04103C37.2242 11.7379 39.9578 14.7912 43.5129 15.2999L43.6963 14.0186ZM38.5186 8.04102H39.813C39.813 5.41971 41.9383 3.29444 44.5596 3.29444V2V0.705556C40.5085 0.705555 37.2241 3.9899 37.2241 8.04102H38.5186ZM44.5596 2V3.29444H106.692V2V0.705556H44.5596V2ZM54.915 14.082H53.6206V37.3818H54.915H56.2095V14.082H54.915ZM54.915 37.3818V38.6763H95.4736V37.3818V36.0874H54.915V37.3818ZM95.4736 37.3818H96.7681V14.082H95.4736H94.1792V37.3818H95.4736ZM95.4736 14.082V12.7876H54.915V14.082V15.3765H95.4736V14.082Z" fill="#B9C57A"/>
=</g>
<defs>
<filter id="filter0_d_6_2891" x="0.705566" y="0.705566" width="158.996" height="246.589" filterUnits="userSpaceOnUse" color-interpolation-filters="sRGB">
<feFlood flood-opacity="0" result="BackgroundImageFix"/>
<feColorMatrix in="SourceAlpha" type="matrix" values="0 0 0 0 0 0 0 0 0 0 0 0 0 0 0 0 0 0 127 0" result="hardAlpha"/>
<feOffset dx="2" dy="4"/>
<feGaussianBlur stdDeviation="2"/>
<feComposite in2="hardAlpha" operator="out"/>
<feColorMatrix type="matrix" values="0 0 0 0 0.4 0 0 0 0 0.101961 0 0 0 0 0.101961 0 0 0 0.25 0"/>
<feBlend mode="normal" in2="BackgroundImageFix" result="effect1_dropShadow_6_2891"/>
<feBlend mode="normal" in="SourceGraphic" in2="effect1_dropShadow_6_2891" result="shape"/>
</filter>
<linearGradient id="paint0_linear_6_2891" x1="75.6259" y1="125.835" x2="75.6259" y2="235" gradientUnits="userSpaceOnUse">
<stop stop-color="#F7FFDA"/>
<stop offset="1" stop-color="#D9E4A0"/>
</linearGradient>
</defs>
</svg>
