<svg width="26" height="39" viewBox="0 0 26 39" fill="none" xmlns="http://www.w3.org/2000/svg">
<g filter="url(#filter0_d_21_6227)">
<mask id="path-1-outside-1_21_6227" maskUnits="userSpaceOnUse" x="1.23486" y="0" width="23" height="35" fill="black">
<rect fill="white" x="1.23486" width="23" height="35"/>
<path d="M12.4021 1.96C18.2021 1.96 21.6821 5 21.6821 9.36V9.8C21.6821 12.4 20.6421 14.12 16.8821 17.52C14.5621 19.6 14.2421 20.44 14.2421 22.12C14.2421 23.32 13.1621 24.08 11.9221 24.08C10.6021 24.08 9.48205 23.44 9.48205 22C9.48205 19.2 9.92205 17.72 12.8021 15.2C16.1221 12.32 16.5621 11.44 16.5621 9.84V9.64C16.5621 7.96 15.4021 6.48 12.2421 6.48C10.1221 6.48 8.60205 7.2 7.16205 8.2C6.12205 8.92 5.00205 8.64 4.24205 7.64C3.48205 6.68 3.48205 5.32 4.52205 4.52C6.48205 3 9.08205 1.96 12.4021 1.96ZM11.8821 26.76C13.6021 26.76 14.9221 28.08 14.9221 29.8C14.9221 31.52 13.6021 32.84 11.8821 32.84C10.1621 32.84 8.84205 31.52 8.84205 29.8C8.84205 28.08 10.1621 26.76 11.8821 26.76Z"/>
</mask>
<path d="M12.4021 1.96C18.2021 1.96 21.6821 5 21.6821 9.36V9.8C21.6821 12.4 20.6421 14.12 16.8821 17.52C14.5621 19.6 14.2421 20.44 14.2421 22.12C14.2421 23.32 13.1621 24.08 11.9221 24.08C10.6021 24.08 9.48205 23.44 9.48205 22C9.48205 19.2 9.92205 17.72 12.8021 15.2C16.1221 12.32 16.5621 11.44 16.5621 9.84V9.64C16.5621 7.96 15.4021 6.48 12.2421 6.48C10.1221 6.48 8.60205 7.2 7.16205 8.2C6.12205 8.92 5.00205 8.64 4.24205 7.64C3.48205 6.68 3.48205 5.32 4.52205 4.52C6.48205 3 9.08205 1.96 12.4021 1.96ZM11.8821 26.76C13.6021 26.76 14.9221 28.08 14.9221 29.8C14.9221 31.52 13.6021 32.84 11.8821 32.84C10.1621 32.84 8.84205 31.52 8.84205 29.8C8.84205 28.08 10.1621 26.76 11.8821 26.76Z" fill="#745F56"/>
<path d="M16.8821 17.52L18.0052 18.7728L18.0105 18.768L16.8821 17.52ZM12.8021 15.2L11.6995 13.929L11.6941 13.9338L12.8021 15.2ZM7.16205 8.2L8.11977 9.58337L8.12176 9.58199L7.16205 8.2ZM4.24205 7.64L5.58163 6.62192L5.57156 6.60868L5.56124 6.59564L4.24205 7.64ZM4.52205 4.52L5.54792 5.85363L5.55315 5.84957L4.52205 4.52ZM12.4021 1.96V3.64254C15.0221 3.64254 16.9316 4.32902 18.1516 5.32721C19.3409 6.30023 19.9995 7.66471 19.9995 9.36H21.6821H23.3646C23.3646 6.69529 22.2833 4.35977 20.2825 2.72278C18.3125 1.11098 15.582 0.27746 12.4021 0.27746V1.96ZM21.6821 9.36H19.9995V9.8H21.6821H23.3646V9.36H21.6821ZM21.6821 9.8H19.9995C19.9995 10.8204 19.8101 11.5876 19.2612 12.4748C18.6631 13.4416 17.6138 14.5899 15.7536 16.272L16.8821 17.52L18.0105 18.768C19.9103 17.0501 21.261 15.6384 22.1229 14.2452C23.034 12.7724 23.3646 11.3796 23.3646 9.8H21.6821ZM16.8821 17.52L15.7589 16.2672C14.5789 17.3251 13.7309 18.216 13.2141 19.1658C12.6507 20.2013 12.5595 21.1565 12.5595 22.12H14.2421H15.9246C15.9246 21.4035 15.9934 21.0987 16.17 20.7742C16.3932 20.364 16.8652 19.7949 18.0052 18.7728L16.8821 17.52ZM14.2421 22.12H12.5595C12.5595 22.161 12.5518 22.1744 12.5506 22.1769C12.5478 22.1825 12.5356 22.2045 12.496 22.2362C12.4084 22.3062 12.2133 22.3975 11.9221 22.3975V24.08V25.7625C13.7215 25.7625 15.9246 24.5802 15.9246 22.12H14.2421ZM11.9221 24.08V22.3975C11.5052 22.3975 11.2937 22.2928 11.2286 22.243C11.2048 22.2249 11.1995 22.2148 11.1954 22.2062C11.1904 22.1958 11.1646 22.1383 11.1646 22H9.48205H7.79951C7.79951 23.2118 8.29876 24.2394 9.18555 24.917C10.0104 25.5472 11.0189 25.7625 11.9221 25.7625V24.08ZM9.48205 22H11.1646C11.1646 20.6731 11.2746 19.8941 11.594 19.1907C11.9199 18.4732 12.5447 17.6609 13.91 16.4662L12.8021 15.2L11.6941 13.9338C10.1794 15.2591 9.14424 16.4468 8.53007 17.7993C7.9095 19.1659 7.79951 20.5269 7.79951 22H9.48205ZM12.8021 15.2L13.9046 16.471C15.5588 15.036 16.6588 13.9661 17.3229 12.9795C18.0813 11.8526 18.2446 10.8802 18.2446 9.84H16.5621H14.8795C14.8795 10.3998 14.8228 10.6674 14.5312 11.1005C14.1453 11.6739 13.3654 12.484 11.6995 13.929L12.8021 15.2ZM16.5621 9.84H18.2446V9.64H16.5621H14.8795V9.84H16.5621ZM16.5621 9.64H18.2446C18.2446 8.39523 17.8005 7.09951 16.6743 6.14593C15.5829 5.22186 14.0613 4.79746 12.2421 4.79746V6.48V8.16254C13.5828 8.16254 14.2212 8.47814 14.4998 8.71407C14.7436 8.92049 14.8795 9.20477 14.8795 9.64H16.5621ZM12.2421 6.48V4.79746C9.66966 4.79746 7.81852 5.69566 6.20234 6.81801L7.16205 8.2L8.12176 9.58199C9.38558 8.70434 10.5744 8.16254 12.2421 8.16254V6.48ZM7.16205 8.2L6.20433 6.81663C6.10351 6.88643 6.03555 6.90838 6.00357 6.9156C5.97364 6.92235 5.95547 6.921 5.93956 6.91769C5.91166 6.91189 5.77026 6.87012 5.58163 6.62192L4.24205 7.64L2.90248 8.65807C3.47384 9.40988 4.27244 10.0081 5.25454 10.2123C6.26127 10.4216 7.26538 10.1749 8.11977 9.58337L7.16205 8.2ZM4.24205 7.64L5.56124 6.59564C5.41658 6.41292 5.37938 6.23591 5.38631 6.12495C5.38962 6.07201 5.40245 6.02995 5.42119 5.99439C5.43919 5.96023 5.47386 5.91059 5.54791 5.85362L4.52205 4.52L3.49619 3.18638C1.56428 4.67247 1.70347 7.14408 2.92286 8.68435L4.24205 7.64ZM4.52205 4.52L5.55315 5.84957C7.22013 4.55681 9.45792 3.64254 12.4021 3.64254V1.96V0.27746C8.70618 0.27746 5.74397 1.44318 3.49095 3.19042L4.52205 4.52ZM11.8821 26.76V28.4425C12.6728 28.4425 13.2395 29.0092 13.2395 29.8H14.9221H16.6046C16.6046 27.1508 14.5313 25.0775 11.8821 25.0775V26.76ZM14.9221 29.8H13.2395C13.2395 30.5908 12.6728 31.1575 11.8821 31.1575V32.84V34.5225C14.5313 34.5225 16.6046 32.4492 16.6046 29.8H14.9221ZM11.8821 32.84V31.1575C11.0913 31.1575 10.5246 30.5908 10.5246 29.8H8.84205H7.15951C7.15951 32.4492 9.23281 34.5225 11.8821 34.5225V32.84ZM8.84205 29.8H10.5246C10.5246 29.0092 11.0913 28.4425 11.8821 28.4425V26.76V25.0775C9.23281 25.0775 7.15951 27.1508 7.15951 29.8H8.84205Z" fill="#FFFBEB" mask="url(#path-1-outside-1_21_6227)"/>
</g>
<defs>
<filter id="filter0_d_21_6227" x="0.0219727" y="0.277344" width="25.3428" height="38.2451" filterUnits="userSpaceOnUse" color-interpolation-filters="sRGB">
<feFlood flood-opacity="0" result="BackgroundImageFix"/>
<feColorMatrix in="SourceAlpha" type="matrix" values="0 0 0 0 0 0 0 0 0 0 0 0 0 0 0 0 0 0 127 0" result="hardAlpha"/>
<feOffset dy="2"/>
<feGaussianBlur stdDeviation="1"/>
<feComposite in2="hardAlpha" operator="out"/>
<feColorMatrix type="matrix" values="0 0 0 0 0.580392 0 0 0 0 0.439216 0 0 0 0 0.368627 0 0 0 0.25 0"/>
<feBlend mode="normal" in2="BackgroundImageFix" result="effect1_dropShadow_21_6227"/>
<feBlend mode="normal" in="SourceGraphic" in2="effect1_dropShadow_21_6227" result="shape"/>
</filter>
</defs>
</svg>
