<svg width="68" height="72" viewBox="0 0 68 72" fill="none" xmlns="http://www.w3.org/2000/svg">
<mask id="path-1-outside-1_49_9334" maskUnits="userSpaceOnUse" x="0" y="12" width="68" height="42" fill="black">
<rect fill="white" y="12" width="68" height="42"/>
<path d="M31.3377 46.592C31.4657 46.816 31.5457 47.056 31.5777 47.312C31.6097 47.536 31.6097 47.76 31.5777 47.984C31.5457 48.432 31.3697 48.832 31.0497 49.184C30.8257 49.44 30.5537 49.68 30.2337 49.904C29.9777 50.064 29.6257 50.144 29.1777 50.144C28.8257 50.144 28.5057 50.08 28.2177 49.952C27.8337 49.792 27.4977 49.584 27.2097 49.328C26.8577 49.136 26.5217 48.896 26.2017 48.608L24.8577 47.456C24.3137 47.968 23.7057 48.4 23.0337 48.752C22.3937 49.104 21.7217 49.392 21.0177 49.616C19.9937 49.936 18.9377 50.112 17.8497 50.144C16.7937 50.208 15.7377 50.112 14.6817 49.856C13.6257 49.6 12.6017 49.2 11.6097 48.656C10.6497 48.112 9.76969 47.408 8.96969 46.544C8.00969 45.552 7.22569 44.416 6.61769 43.136C6.00969 41.824 5.52969 40.464 5.17769 39.056C4.82569 37.648 4.60169 36.224 4.50569 34.784C4.40969 33.344 4.40969 31.984 4.50569 30.704C4.60169 29.488 4.79369 28.176 5.08169 26.768C5.36969 25.328 5.80169 23.952 6.37769 22.64C6.98569 21.328 7.73769 20.16 8.63369 19.136C9.56169 18.112 10.6817 17.408 11.9937 17.024C15.1617 16.032 17.8497 15.856 20.0577 16.496C22.2657 17.104 24.0737 18.208 25.4817 19.808C26.6017 21.088 27.4817 22.592 28.1217 24.32C28.7937 26.048 29.2417 27.856 29.4657 29.744C29.7217 31.632 29.7857 33.536 29.6577 35.456C29.5297 37.344 29.2417 39.104 28.7937 40.736L27.9297 43.04C28.4097 43.488 28.8577 43.904 29.2737 44.288C29.7217 44.64 30.0097 44.896 30.1377 45.056C30.3617 45.28 30.5697 45.52 30.7617 45.776C30.9857 46 31.1777 46.272 31.3377 46.592ZM12.7137 41.6C13.6737 42.848 14.8257 43.6 16.1697 43.856C17.5457 44.08 18.8257 43.84 20.0097 43.136C19.5617 42.688 19.1457 42.288 18.7617 41.936C18.3777 41.584 18.1377 41.344 18.0417 41.216C17.5617 40.736 17.1937 40.16 16.9377 39.488C16.6817 38.976 16.6017 38.496 16.6977 38.048C16.7937 37.536 17.0017 37.104 17.3217 36.752C17.4817 36.624 17.6257 36.512 17.7537 36.416C17.8817 36.288 18.0257 36.176 18.1857 36.08C18.3457 35.984 18.5217 35.92 18.7137 35.888C18.9377 35.856 19.1617 35.84 19.3857 35.84C19.7057 35.84 20.0257 35.952 20.3457 36.176C20.6337 36.336 20.9697 36.544 21.3537 36.8C21.5137 36.96 21.6737 37.12 21.8337 37.28C22.0257 37.408 22.2017 37.552 22.3617 37.712C22.4897 37.84 22.6177 37.968 22.7457 38.096C22.8737 38.192 23.0177 38.304 23.1777 38.432C23.4017 37.376 23.5617 36.256 23.6577 35.072C23.7857 33.888 23.8017 32.704 23.7057 31.52C23.6097 30.304 23.3857 29.12 23.0337 27.968C22.6817 26.784 22.1857 25.68 21.5457 24.656C20.7777 23.44 19.8017 22.624 18.6177 22.208C17.4337 21.76 15.9937 21.952 14.2977 22.784C13.6257 23.136 13.0497 23.648 12.5697 24.32C12.1217 24.96 11.7377 25.696 11.4177 26.528C11.0977 27.328 10.8417 28.16 10.6497 29.024C10.4897 29.888 10.3937 30.704 10.3617 31.472C10.3297 32.304 10.3297 33.184 10.3617 34.112C10.4257 35.008 10.5377 35.92 10.6977 36.848C10.8897 37.744 11.1457 38.608 11.4657 39.44C11.7857 40.24 12.2017 40.96 12.7137 41.6ZM39.4238 16.352C39.8078 16.16 40.2398 16.048 40.7198 16.016C41.1998 15.952 41.7118 15.92 42.2558 15.92H59.6318C60.0798 15.92 60.5598 15.904 61.0718 15.872C61.5838 15.84 62.0478 15.936 62.4638 16.16C63.0398 16.48 63.3758 16.992 63.4718 17.696C63.5678 18.368 63.5038 19.136 63.2798 20C63.0878 20.832 62.7838 21.728 62.3678 22.688C61.9518 23.616 61.5198 24.512 61.0718 25.376C60.6238 26.208 60.1918 26.976 59.7758 27.68C59.3598 28.352 59.0718 28.864 58.9118 29.216C58.3998 30.176 57.9198 31.056 57.4718 31.856C57.0558 32.656 56.6398 33.456 56.2238 34.256C55.8398 35.056 55.4238 35.856 54.9758 36.656C54.5598 37.456 54.0958 38.336 53.5838 39.296C52.9438 40.608 52.2078 41.984 51.3758 43.424C50.5758 44.832 49.8078 46.16 49.0718 47.408C48.8478 47.792 48.5918 48.176 48.3038 48.56C48.0158 48.944 47.6798 49.264 47.2958 49.52C46.9438 49.776 46.5278 49.936 46.0478 50C45.5998 50.064 45.1038 49.968 44.5598 49.712C43.7278 49.264 43.1838 48.608 42.9278 47.744C42.7038 46.88 42.7838 46.08 43.1678 45.344C43.7758 44.256 44.3678 43.168 44.9438 42.08C45.5198 40.96 46.0958 39.856 46.6718 38.768C47.5358 37.136 48.3358 35.568 49.0718 34.064C49.8398 32.56 50.6558 30.992 51.5198 29.36C51.7758 28.88 52.1278 28.304 52.5758 27.632C53.0238 26.928 53.4398 26.208 53.8238 25.472C54.2398 24.736 54.5598 24.016 54.7838 23.312C55.0398 22.576 55.1198 21.936 55.0238 21.392C53.9038 21.296 52.8798 21.264 51.9518 21.296C51.0558 21.296 50.0638 21.296 48.9758 21.296H44.3198C43.7438 21.296 43.1198 21.312 42.4478 21.344C41.8078 21.376 41.1998 21.344 40.6238 21.248C40.0478 21.12 39.5518 20.88 39.1358 20.528C38.7518 20.176 38.5118 19.6 38.4158 18.8C38.3518 18.128 38.4158 17.6 38.6078 17.216C38.7998 16.832 39.0718 16.544 39.4238 16.352Z"/>
</mask>
<path d="M31.3377 46.592C31.4657 46.816 31.5457 47.056 31.5777 47.312C31.6097 47.536 31.6097 47.76 31.5777 47.984C31.5457 48.432 31.3697 48.832 31.0497 49.184C30.8257 49.44 30.5537 49.68 30.2337 49.904C29.9777 50.064 29.6257 50.144 29.1777 50.144C28.8257 50.144 28.5057 50.08 28.2177 49.952C27.8337 49.792 27.4977 49.584 27.2097 49.328C26.8577 49.136 26.5217 48.896 26.2017 48.608L24.8577 47.456C24.3137 47.968 23.7057 48.4 23.0337 48.752C22.3937 49.104 21.7217 49.392 21.0177 49.616C19.9937 49.936 18.9377 50.112 17.8497 50.144C16.7937 50.208 15.7377 50.112 14.6817 49.856C13.6257 49.6 12.6017 49.2 11.6097 48.656C10.6497 48.112 9.76969 47.408 8.96969 46.544C8.00969 45.552 7.22569 44.416 6.61769 43.136C6.00969 41.824 5.52969 40.464 5.17769 39.056C4.82569 37.648 4.60169 36.224 4.50569 34.784C4.40969 33.344 4.40969 31.984 4.50569 30.704C4.60169 29.488 4.79369 28.176 5.08169 26.768C5.36969 25.328 5.80169 23.952 6.37769 22.64C6.98569 21.328 7.73769 20.16 8.63369 19.136C9.56169 18.112 10.6817 17.408 11.9937 17.024C15.1617 16.032 17.8497 15.856 20.0577 16.496C22.2657 17.104 24.0737 18.208 25.4817 19.808C26.6017 21.088 27.4817 22.592 28.1217 24.32C28.7937 26.048 29.2417 27.856 29.4657 29.744C29.7217 31.632 29.7857 33.536 29.6577 35.456C29.5297 37.344 29.2417 39.104 28.7937 40.736L27.9297 43.04C28.4097 43.488 28.8577 43.904 29.2737 44.288C29.7217 44.64 30.0097 44.896 30.1377 45.056C30.3617 45.28 30.5697 45.52 30.7617 45.776C30.9857 46 31.1777 46.272 31.3377 46.592ZM12.7137 41.6C13.6737 42.848 14.8257 43.6 16.1697 43.856C17.5457 44.08 18.8257 43.84 20.0097 43.136C19.5617 42.688 19.1457 42.288 18.7617 41.936C18.3777 41.584 18.1377 41.344 18.0417 41.216C17.5617 40.736 17.1937 40.16 16.9377 39.488C16.6817 38.976 16.6017 38.496 16.6977 38.048C16.7937 37.536 17.0017 37.104 17.3217 36.752C17.4817 36.624 17.6257 36.512 17.7537 36.416C17.8817 36.288 18.0257 36.176 18.1857 36.08C18.3457 35.984 18.5217 35.92 18.7137 35.888C18.9377 35.856 19.1617 35.84 19.3857 35.84C19.7057 35.84 20.0257 35.952 20.3457 36.176C20.6337 36.336 20.9697 36.544 21.3537 36.8C21.5137 36.96 21.6737 37.12 21.8337 37.28C22.0257 37.408 22.2017 37.552 22.3617 37.712C22.4897 37.84 22.6177 37.968 22.7457 38.096C22.8737 38.192 23.0177 38.304 23.1777 38.432C23.4017 37.376 23.5617 36.256 23.6577 35.072C23.7857 33.888 23.8017 32.704 23.7057 31.52C23.6097 30.304 23.3857 29.12 23.0337 27.968C22.6817 26.784 22.1857 25.68 21.5457 24.656C20.7777 23.44 19.8017 22.624 18.6177 22.208C17.4337 21.76 15.9937 21.952 14.2977 22.784C13.6257 23.136 13.0497 23.648 12.5697 24.32C12.1217 24.96 11.7377 25.696 11.4177 26.528C11.0977 27.328 10.8417 28.16 10.6497 29.024C10.4897 29.888 10.3937 30.704 10.3617 31.472C10.3297 32.304 10.3297 33.184 10.3617 34.112C10.4257 35.008 10.5377 35.92 10.6977 36.848C10.8897 37.744 11.1457 38.608 11.4657 39.44C11.7857 40.24 12.2017 40.96 12.7137 41.6ZM39.4238 16.352C39.8078 16.16 40.2398 16.048 40.7198 16.016C41.1998 15.952 41.7118 15.92 42.2558 15.92H59.6318C60.0798 15.92 60.5598 15.904 61.0718 15.872C61.5838 15.84 62.0478 15.936 62.4638 16.16C63.0398 16.48 63.3758 16.992 63.4718 17.696C63.5678 18.368 63.5038 19.136 63.2798 20C63.0878 20.832 62.7838 21.728 62.3678 22.688C61.9518 23.616 61.5198 24.512 61.0718 25.376C60.6238 26.208 60.1918 26.976 59.7758 27.68C59.3598 28.352 59.0718 28.864 58.9118 29.216C58.3998 30.176 57.9198 31.056 57.4718 31.856C57.0558 32.656 56.6398 33.456 56.2238 34.256C55.8398 35.056 55.4238 35.856 54.9758 36.656C54.5598 37.456 54.0958 38.336 53.5838 39.296C52.9438 40.608 52.2078 41.984 51.3758 43.424C50.5758 44.832 49.8078 46.16 49.0718 47.408C48.8478 47.792 48.5918 48.176 48.3038 48.56C48.0158 48.944 47.6798 49.264 47.2958 49.52C46.9438 49.776 46.5278 49.936 46.0478 50C45.5998 50.064 45.1038 49.968 44.5598 49.712C43.7278 49.264 43.1838 48.608 42.9278 47.744C42.7038 46.88 42.7838 46.08 43.1678 45.344C43.7758 44.256 44.3678 43.168 44.9438 42.08C45.5198 40.96 46.0958 39.856 46.6718 38.768C47.5358 37.136 48.3358 35.568 49.0718 34.064C49.8398 32.56 50.6558 30.992 51.5198 29.36C51.7758 28.88 52.1278 28.304 52.5758 27.632C53.0238 26.928 53.4398 26.208 53.8238 25.472C54.2398 24.736 54.5598 24.016 54.7838 23.312C55.0398 22.576 55.1198 21.936 55.0238 21.392C53.9038 21.296 52.8798 21.264 51.9518 21.296C51.0558 21.296 50.0638 21.296 48.9758 21.296H44.3198C43.7438 21.296 43.1198 21.312 42.4478 21.344C41.8078 21.376 41.1998 21.344 40.6238 21.248C40.0478 21.12 39.5518 20.88 39.1358 20.528C38.7518 20.176 38.5118 19.6 38.4158 18.8C38.3518 18.128 38.4158 17.6 38.6078 17.216C38.7998 16.832 39.0718 16.544 39.4238 16.352Z" fill="url(#paint0_linear_49_9334)"/>
<path d="M31.3377 46.592L27.9836 48.2691L28.0301 48.3621L28.0818 48.4525L31.3377 46.592ZM31.5777 47.312L27.8566 47.7771L27.8607 47.8098L27.8654 47.8424L31.5777 47.312ZM31.5777 47.984L27.8654 47.4536L27.8467 47.5847L27.8372 47.7168L31.5777 47.984ZM31.0497 49.184L28.2749 46.6615L28.251 46.6878L28.2275 46.7146L31.0497 49.184ZM30.2337 49.904L32.2212 53.084L32.3041 53.0322L32.3842 52.9761L30.2337 49.904ZM28.2177 49.952L29.7407 46.5252L29.7006 46.5074L29.66 46.4905L28.2177 49.952ZM27.2097 49.328L29.7011 46.5252L29.3811 46.2408L29.0054 46.0359L27.2097 49.328ZM26.2017 48.608L28.7103 45.8206L28.6766 45.7903L28.6422 45.7608L26.2017 48.608ZM24.8577 47.456L27.2982 44.6088L24.7406 42.4166L22.2876 44.7253L24.8577 47.456ZM23.0337 48.752L21.2937 45.4301L21.2599 45.4478L21.2265 45.4662L23.0337 48.752ZM21.0177 49.616L22.1362 53.1953L22.1455 53.1924L22.1547 53.1895L21.0177 49.616ZM17.8497 50.144L17.7394 46.3956L17.6811 46.3973L17.6228 46.4009L17.8497 50.144ZM14.6817 49.856L13.7982 53.5004L14.6817 49.856ZM11.6097 48.656L9.76089 51.9186L9.78364 51.9315L9.80657 51.944L11.6097 48.656ZM8.96969 46.544L11.7213 43.9962L11.6932 43.9659L11.6644 43.9362L8.96969 46.544ZM6.61769 43.136L3.21527 44.7127L3.22276 44.7289L3.2304 44.745L6.61769 43.136ZM5.17769 39.056L1.53965 39.9655L5.17769 39.056ZM4.50569 34.784L8.24738 34.5346L4.50569 34.784ZM4.50569 30.704L0.767321 30.4089L0.766742 30.4162L0.766192 30.4235L4.50569 30.704ZM5.08169 26.768L8.75562 27.5195L8.75726 27.5115L8.75887 27.5034L5.08169 26.768ZM6.37769 22.64L2.97528 21.0633L2.9593 21.0977L2.94402 21.1325L6.37769 22.64ZM8.63369 19.136L5.85499 16.6178L5.83304 16.642L5.81153 16.6666L8.63369 19.136ZM11.9937 17.024L13.0471 20.623L13.0808 20.6131L13.1143 20.6027L11.9937 17.024ZM20.0577 16.496L19.0137 20.0977L19.0379 20.1048L19.0621 20.1114L20.0577 16.496ZM25.4817 19.808L28.3039 17.3386L28.2969 17.3306L25.4817 19.808ZM28.1217 24.32L24.6051 25.6224L24.6157 25.6509L24.6267 25.6792L28.1217 24.32ZM29.4657 29.744L25.7418 30.1858L25.7455 30.2169L25.7497 30.2479L29.4657 29.744ZM29.6577 35.456L33.3991 35.7097L33.3994 35.7054L29.6577 35.456ZM28.7937 40.736L32.3049 42.0527L32.3648 41.8931L32.4099 41.7287L28.7937 40.736ZM27.9297 43.04L24.4185 41.7233L23.5381 44.0708L25.371 45.7815L27.9297 43.04ZM29.2737 44.288L26.7301 47.0435L26.8397 47.1446L26.9569 47.2367L29.2737 44.288ZM30.1377 45.056L27.2094 47.3986L27.3392 47.5608L27.486 47.7076L30.1377 45.056ZM30.7617 45.776L27.7617 48.026L27.9216 48.2392L28.11 48.4276L30.7617 45.776ZM12.7137 41.6L15.686 39.3136L15.6643 39.2853L15.6419 39.2574L12.7137 41.6ZM16.1697 43.856L15.468 47.5398L15.5175 47.5492L15.5672 47.5573L16.1697 43.856ZM20.0097 43.136L21.9262 46.3593L26.0715 43.8945L22.6613 40.4843L20.0097 43.136ZM18.7617 41.936L21.2957 39.1717H21.2957L18.7617 41.936ZM18.0417 41.216L21.0417 38.966L20.8818 38.7528L20.6933 38.5644L18.0417 41.216ZM16.9377 39.488L20.442 38.153L20.3754 37.9782L20.2918 37.8109L16.9377 39.488ZM16.6977 38.048L20.3644 38.8337L20.3746 38.7865L20.3835 38.7391L16.6977 38.048ZM17.3217 36.752L14.9791 33.8237L14.7469 34.0095L14.5469 34.2295L17.3217 36.752ZM17.7537 36.416L20.0037 39.416L20.2169 39.2561L20.4053 39.0677L17.7537 36.416ZM18.1857 36.08L16.2563 32.8644L16.2563 32.8644L18.1857 36.08ZM18.7137 35.888L18.1833 32.1757L18.1402 32.1819L18.0972 32.189L18.7137 35.888ZM20.3457 36.176L18.1952 39.2481L18.3545 39.3596L18.5245 39.4541L20.3457 36.176ZM21.3537 36.8L24.0053 34.1483L23.7428 33.8858L23.4338 33.6798L21.3537 36.8ZM21.8337 37.28L19.182 39.9317L19.4446 40.1942L19.7536 40.4002L21.8337 37.28ZM22.3617 37.712L25.0133 35.0604L25.0133 35.0603L22.3617 37.712ZM22.7457 38.096L20.094 40.7477L20.2825 40.9361L20.4957 41.096L22.7457 38.096ZM23.1777 38.432L20.8351 41.3603L25.5841 45.1595L26.8461 39.2101L23.1777 38.432ZM23.6577 35.072L19.9294 34.6689L19.924 34.7189L19.92 34.7689L23.6577 35.072ZM23.7057 31.52L19.9673 31.8151L19.968 31.8231L23.7057 31.52ZM23.0337 27.968L19.4392 29.0366L19.4432 29.0502L19.4474 29.0638L23.0337 27.968ZM21.5457 24.656L24.7257 22.6685L24.721 22.661L24.7163 22.6535L21.5457 24.656ZM18.6177 22.208L17.2906 25.7153L17.3324 25.7311L17.3746 25.746L18.6177 22.208ZM14.2977 22.784L12.6461 19.4173L12.6016 19.4391L12.5577 19.4621L14.2977 22.784ZM12.5697 24.32L9.51819 22.1404L9.50781 22.1549L9.49757 22.1695L12.5697 24.32ZM11.4177 26.528L14.8995 27.9207L14.9088 27.8975L14.9177 27.8742L11.4177 26.528ZM10.6497 29.024L6.98899 28.2105L6.97452 28.2756L6.96238 28.3412L10.6497 29.024ZM10.3617 31.472L6.61492 31.3159L6.61446 31.3279L10.3617 31.472ZM10.3617 34.112L6.61392 34.2412L6.6163 34.3103L6.62122 34.3792L10.3617 34.112ZM10.6977 36.848L7.00221 37.4851L7.01507 37.5597L7.03093 37.6337L10.6977 36.848ZM11.4657 39.44L7.96564 40.7862L7.97462 40.8095L7.9839 40.8327L11.4657 39.44ZM31.3377 46.592L28.0818 48.4525C27.9641 48.2467 27.8861 48.0124 27.8566 47.7771L31.5777 47.312L35.2987 46.8469C35.2053 46.0996 34.9672 45.3853 34.5936 44.7315L31.3377 46.592ZM31.5777 47.312L27.8654 47.8424C27.8471 47.7146 27.8471 47.5814 27.8654 47.4536L31.5777 47.984L35.29 48.5144C35.3723 47.9386 35.3723 47.3574 35.29 46.7816L31.5777 47.312ZM31.5777 47.984L27.8372 47.7168C27.851 47.524 27.8992 47.3143 27.9893 47.1097C28.0782 46.9076 28.1865 46.7587 28.2749 46.6615L31.0497 49.184L33.8245 51.7065C34.6742 50.7718 35.2225 49.5897 35.3182 48.2512L31.5777 47.984ZM31.0497 49.184L28.2275 46.7146C28.2291 46.7128 28.1916 46.756 28.0832 46.8319L30.2337 49.904L32.3842 52.9761C32.9158 52.604 33.4222 52.1672 33.8718 51.6534L31.0497 49.184ZM30.2337 49.904L28.2462 46.724C28.5362 46.5428 28.791 46.4626 28.9466 46.4273C29.0993 46.3925 29.186 46.394 29.1777 46.394V50.144V53.894C30.01 53.894 31.147 53.7553 32.2212 53.084L30.2337 49.904ZM29.1777 50.144V46.394C29.2888 46.394 29.496 46.4165 29.7407 46.5252L28.2177 49.952L26.6947 53.3788C27.5154 53.7435 28.3625 53.894 29.1777 53.894V50.144ZM28.2177 49.952L29.66 46.4905C29.6425 46.4832 29.6413 46.4812 29.6515 46.4875C29.6621 46.4941 29.6799 46.5064 29.7011 46.5252L27.2097 49.328L24.7183 52.1308C25.3409 52.6842 26.0382 53.1064 26.7754 53.4135L28.2177 49.952ZM27.2097 49.328L29.0054 46.0359C28.928 45.9937 28.829 45.9275 28.7103 45.8206L26.2017 48.608L23.6931 51.3954C24.2144 51.8645 24.7874 52.2783 25.414 52.6201L27.2097 49.328ZM26.2017 48.608L28.6422 45.7608L27.2982 44.6088L24.8577 47.456L22.4172 50.3032L23.7612 51.4552L26.2017 48.608ZM24.8577 47.456L22.2876 44.7253C21.9959 44.9997 21.6681 45.234 21.2937 45.4301L23.0337 48.752L24.7737 52.0739C25.7433 51.566 26.6314 50.9363 27.4278 50.1867L24.8577 47.456ZM23.0337 48.752L21.2265 45.4662C20.8025 45.6994 20.3551 45.8916 19.8807 46.0425L21.0177 49.616L22.1547 53.1895C23.0882 52.8924 23.9849 52.5086 24.8409 52.0378L23.0337 48.752ZM21.0177 49.616L19.8992 46.0367C19.2067 46.2531 18.4902 46.3735 17.7394 46.3956L17.8497 50.144L17.9599 53.8924C19.3851 53.8505 20.7806 53.6189 22.1362 53.1953L21.0177 49.616ZM17.8497 50.144L17.6228 46.4009C16.9499 46.4417 16.268 46.3819 15.5652 46.2116L14.6817 49.856L13.7982 53.5004C15.2074 53.8421 16.6375 53.9743 18.0765 53.8871L17.8497 50.144ZM14.6817 49.856L15.5652 46.2116C14.8431 46.0365 14.1273 45.7598 13.4128 45.368L11.6097 48.656L9.80657 51.944C11.0761 52.6403 12.4083 53.1635 13.7982 53.5004L14.6817 49.856ZM11.6097 48.656L13.4585 45.3934C12.8563 45.0522 12.2766 44.5959 11.7213 43.9962L8.96969 46.544L6.21809 49.0918C7.2628 50.2201 8.4431 51.1718 9.76089 51.9186L11.6097 48.656ZM8.96969 46.544L11.6644 43.9362C10.9956 43.245 10.4427 42.4485 10.005 41.527L6.61769 43.136L3.2304 44.745C4.00869 46.3835 5.02378 47.859 6.27493 49.1518L8.96969 46.544ZM6.61769 43.136L10.0201 41.5593C9.51186 40.4625 9.1106 39.326 8.81572 38.1465L5.17769 39.056L1.53965 39.9655C1.94878 41.602 2.50751 43.1855 3.21527 44.7127L6.61769 43.136ZM5.17769 39.056L8.81572 38.1465C8.51754 36.9538 8.32845 35.7506 8.24738 34.5346L4.50569 34.784L0.763995 35.0334C0.874923 36.6974 1.13384 38.3422 1.53965 39.9655L5.17769 39.056ZM4.50569 34.784L8.24738 34.5346C8.16172 33.2497 8.16392 32.068 8.24519 30.9845L4.50569 30.704L0.766192 30.4235C0.655456 31.9 0.657653 33.4383 0.763995 35.0334L4.50569 34.784ZM4.50569 30.704L8.24406 30.9991C8.32605 29.9606 8.49317 28.8026 8.75562 27.5195L5.08169 26.768L1.40776 26.0165C1.09421 27.5494 0.877328 29.0154 0.767321 30.4089L4.50569 30.704ZM5.08169 26.768L8.75887 27.5034C8.99511 26.3222 9.34682 25.2056 9.81135 24.1475L6.37769 22.64L2.94402 21.1325C2.25655 22.6984 1.74426 24.3338 1.40451 26.0326L5.08169 26.768ZM6.37769 22.64L9.7801 24.2167C10.2475 23.2081 10.809 22.3446 11.4559 21.6054L8.63369 19.136L5.81153 16.6666C4.66635 17.9754 3.72385 19.4479 2.97528 21.0633L6.37769 22.64ZM8.63369 19.136L11.4124 21.6542C11.8813 21.1368 12.4064 20.8105 13.0471 20.623L11.9937 17.024L10.9403 13.425C8.95694 14.0055 7.24208 15.0872 5.85499 16.6178L8.63369 19.136ZM11.9937 17.024L13.1143 20.6027C15.876 19.7379 17.7632 19.7353 19.0137 20.0977L20.0577 16.496L21.1017 12.8943C17.9362 11.9767 14.4474 12.3261 10.8731 13.4453L11.9937 17.024ZM20.0577 16.496L19.0621 20.1114C20.6206 20.5406 21.7775 21.2752 22.6665 22.2854L25.4817 19.808L28.2969 17.3306C26.3698 15.1408 23.9108 13.6674 21.0532 12.8806L20.0577 16.496ZM25.4817 19.808L22.6595 22.2774C23.4548 23.1863 24.1104 24.2866 24.6051 25.6224L28.1217 24.32L31.6382 23.0176C30.853 20.8974 29.7486 18.9897 28.3039 17.3386L25.4817 19.808ZM28.1217 24.32L24.6267 25.6792C25.1811 27.1048 25.5541 28.604 25.7418 30.1858L29.4657 29.744L33.1896 29.3022C32.9292 27.108 32.4063 24.9912 31.6167 22.9608L28.1217 24.32ZM29.4657 29.744L25.7497 30.2479C25.9715 31.8838 26.0274 33.5354 25.916 35.2066L29.6577 35.456L33.3994 35.7054C33.544 33.5366 33.4719 31.3802 33.1817 29.2401L29.4657 29.744ZM29.6577 35.456L25.9163 35.2023C25.8033 36.8693 25.5519 38.3792 25.1775 39.7433L28.7937 40.736L32.4099 41.7287C32.9315 39.8288 33.2561 37.8187 33.3991 35.7097L29.6577 35.456ZM28.7937 40.736L25.2825 39.4193L24.4185 41.7233L27.9297 43.04L31.4409 44.3567L32.3049 42.0527L28.7937 40.736ZM27.9297 43.04L25.371 45.7815C25.8553 46.2334 26.3084 46.6542 26.7301 47.0435L29.2737 44.288L31.8172 41.5325C31.407 41.1538 30.9641 40.7426 30.4884 40.2985L27.9297 43.04ZM29.2737 44.288L26.9569 47.2367C27.1465 47.3857 27.2668 47.4868 27.3343 47.5468C27.3672 47.576 27.373 47.5826 27.36 47.5697C27.3528 47.5624 27.3362 47.5456 27.3129 47.52C27.2901 47.4951 27.2538 47.4541 27.2094 47.3986L30.1377 45.056L33.0659 42.7134C32.6274 42.1652 31.9992 41.6604 31.5905 41.3393L29.2737 44.288ZM30.1377 45.056L27.486 47.7076C27.5833 47.8049 27.6751 47.9105 27.7617 48.026L30.7617 45.776L33.7617 43.526C33.4643 43.1295 33.1401 42.7551 32.7893 42.4044L30.1377 45.056ZM30.7617 45.776L28.11 48.4276C28.0148 48.3324 27.9808 48.2635 27.9836 48.2691L31.3377 46.592L34.6918 44.915C34.3746 44.2805 33.9566 43.6676 33.4133 43.1244L30.7617 45.776ZM12.7137 41.6L9.74135 43.8864C11.1715 45.7456 13.0863 47.0861 15.468 47.5398L16.1697 43.856L16.8714 40.1722C16.5651 40.1139 16.1759 39.9504 15.686 39.3136L12.7137 41.6ZM16.1697 43.856L15.5672 47.5573C17.8014 47.921 19.9748 47.5195 21.9262 46.3593L20.0097 43.136L18.0932 39.9127C17.6765 40.1605 17.2899 40.239 16.7722 40.1547L16.1697 43.856ZM20.0097 43.136L22.6613 40.4843C22.1828 40.0058 21.7271 39.5672 21.2957 39.1717L18.7617 41.936L16.2277 44.7003C16.5642 45.0088 16.9406 45.3702 17.358 45.7877L20.0097 43.136ZM18.7617 41.936L21.2957 39.1717C21.125 39.0152 21.0124 38.9074 20.9453 38.8403C20.9122 38.8072 20.9029 38.7967 20.91 38.8045C20.9142 38.8091 20.9275 38.8237 20.9471 38.847C20.9658 38.869 20.9995 38.9098 21.0417 38.966L18.0417 41.216L15.0417 43.466C15.3858 43.9248 15.9032 44.4028 16.2277 44.7003L18.7617 41.936ZM18.0417 41.216L20.6933 38.5644C20.6092 38.4802 20.5212 38.3608 20.442 38.153L16.9377 39.488L13.4334 40.823C13.8662 41.9592 14.5142 42.9918 15.39 43.8676L18.0417 41.216ZM16.9377 39.488L20.2918 37.8109C20.3023 37.832 20.3535 37.9405 20.3847 38.1275C20.4173 38.3236 20.4213 38.5684 20.3644 38.8337L16.6977 38.048L13.0309 37.2623C12.7158 38.7331 13.044 40.0858 13.5836 41.1651L16.9377 39.488ZM16.6977 38.048L20.3835 38.7391C20.3759 38.7794 20.3552 38.8613 20.3044 38.9668C20.2527 39.0744 20.1819 39.1805 20.0965 39.2745L17.3217 36.752L14.5469 34.2295C13.7155 35.1441 13.2234 36.229 13.0119 37.3569L16.6977 38.048ZM17.3217 36.752L19.6643 39.6803C19.8018 39.5703 19.9141 39.4832 20.0037 39.416L17.7537 36.416L15.5037 33.416C15.3372 33.5408 15.1616 33.6777 14.9791 33.8237L17.3217 36.752ZM17.7537 36.416L20.4053 39.0677C20.3099 39.1631 20.2098 39.2387 20.1151 39.2956L18.1857 36.08L16.2563 32.8644C15.8415 33.1133 15.4534 33.4129 15.102 33.7643L17.7537 36.416ZM18.1857 36.08L20.115 39.2956C19.8543 39.4521 19.5819 39.545 19.3302 39.587L18.7137 35.888L18.0972 32.189C17.4615 32.295 16.8371 32.5159 16.2563 32.8644L18.1857 36.08ZM18.7137 35.888L19.244 39.6003C19.2941 39.5932 19.3409 39.59 19.3857 39.59V35.84V32.09C18.9824 32.09 18.5812 32.1189 18.1833 32.1757L18.7137 35.888ZM19.3857 35.84V39.59C18.7803 39.59 18.3644 39.3665 18.1952 39.2481L20.3457 36.176L22.4962 33.1039C21.687 32.5375 20.6311 32.09 19.3857 32.09V35.84ZM20.3457 36.176L18.5245 39.4541C18.697 39.5499 18.9432 39.7 19.2736 39.9202L21.3537 36.8L23.4338 33.6798C22.9961 33.388 22.5704 33.1221 22.1668 32.8979L20.3457 36.176ZM21.3537 36.8L18.702 39.4517C18.862 39.6117 19.022 39.7717 19.182 39.9317L21.8337 37.28L24.4853 34.6283C24.3253 34.4683 24.1653 34.3083 24.0053 34.1483L21.3537 36.8ZM21.8337 37.28L19.7536 40.4002C19.7442 40.3939 19.7281 40.3817 19.71 40.3637L22.3617 37.712L25.0133 35.0603C24.6753 34.7223 24.3072 34.4221 23.9138 34.1598L21.8337 37.28ZM22.3617 37.712L19.71 40.3636C19.838 40.4916 19.966 40.6197 20.094 40.7477L22.7457 38.096L25.3973 35.4443C25.2693 35.3163 25.1413 35.1884 25.0133 35.0604L22.3617 37.712ZM22.7457 38.096L20.4957 41.096C20.5852 41.1632 20.6976 41.2503 20.8351 41.3603L23.1777 38.432L25.5203 35.5037C25.3378 35.3577 25.1621 35.2208 24.9957 35.096L22.7457 38.096ZM23.1777 38.432L26.8461 39.2101C27.1064 37.9828 27.2877 36.7031 27.3954 35.3751L23.6577 35.072L19.92 34.7689C19.8356 35.8089 19.697 36.7692 19.5093 37.6539L23.1777 38.432ZM23.6577 35.072L27.386 35.4751C27.5393 34.0571 27.5585 32.6367 27.4434 31.2169L23.7057 31.52L19.968 31.8231C20.0448 32.7713 20.0321 33.7189 19.9294 34.6689L23.6577 35.072ZM23.7057 31.52L27.4441 31.2249C27.3269 29.7407 27.0526 28.288 26.62 26.8722L23.0337 27.968L19.4474 29.0638C19.7187 29.952 19.8925 30.8673 19.9673 31.8151L23.7057 31.52ZM23.0337 27.968L26.6282 26.8994C26.1822 25.3993 25.5487 23.9853 24.7257 22.6685L21.5457 24.656L18.3657 26.6435C18.8227 27.3747 19.1811 28.1687 19.4392 29.0366L23.0337 27.968ZM21.5457 24.656L24.7163 22.6535C23.5663 20.8327 21.9561 19.4062 19.8608 18.67L18.6177 22.208L17.3746 25.746C17.6473 25.8418 17.9891 26.0473 18.3751 26.6585L21.5457 24.656ZM18.6177 22.208L19.9448 18.7007C17.3994 17.7375 14.8145 18.3535 12.6461 19.4173L14.2977 22.784L15.9493 26.1507C17.1728 25.5505 17.468 25.7825 17.2906 25.7153L18.6177 22.208ZM14.2977 22.784L12.5577 19.4621C11.32 20.1104 10.3089 21.0333 9.51819 22.1404L12.5697 24.32L15.6212 26.4996C15.7904 26.2627 15.9314 26.1616 16.0377 26.1059L14.2977 22.784ZM12.5697 24.32L9.49757 22.1695C8.85225 23.0914 8.33201 24.1045 7.91764 25.1818L11.4177 26.528L14.9177 27.8742C15.1434 27.2875 15.3911 26.8286 15.6418 26.4705L12.5697 24.32ZM11.4177 26.528L7.9359 25.1353C7.53871 26.1283 7.2237 27.1543 6.98899 28.2105L10.6497 29.024L14.3104 29.8375C14.4597 29.1657 14.6567 28.5277 14.8995 27.9207L11.4177 26.528ZM10.6497 29.024L6.96238 28.3412C6.77463 29.355 6.65526 30.3482 6.61494 31.3159L10.3617 31.472L14.1084 31.6281C14.1321 31.0598 14.2047 30.421 14.337 29.7068L10.6497 29.024ZM10.3617 31.472L6.61446 31.3279C6.57858 32.2606 6.57913 33.2323 6.61392 34.2412L10.3617 34.112L14.1095 33.9828C14.0802 33.1357 14.0808 32.3474 14.1089 31.6161L10.3617 31.472ZM10.3617 34.112L6.62122 34.3792C6.69449 35.405 6.8221 36.4405 7.00221 37.4851L10.6977 36.848L14.3932 36.2108C14.2533 35.3995 14.1569 34.611 14.1022 33.8448L10.3617 34.112ZM10.6977 36.848L7.03093 37.6337C7.26269 38.7153 7.57364 39.767 7.96564 40.7862L11.4657 39.44L14.9657 38.0938C14.7177 37.449 14.5167 36.7727 14.3644 36.0623L10.6977 36.848ZM11.4657 39.44L7.9839 40.8327C8.4337 41.9572 9.03171 43.0005 9.78543 43.9426L12.7137 41.6L15.6419 39.2574C15.3717 38.9195 15.1377 38.5228 14.9475 38.0473L11.4657 39.44ZM39.4238 16.352L37.7468 12.9979L37.6869 13.0278L37.6281 13.0599L39.4238 16.352ZM40.7198 16.016L40.9693 19.7577L41.0928 19.7495L41.2154 19.7331L40.7198 16.016ZM61.0718 15.872L60.8379 12.1293L61.0718 15.872ZM62.4638 16.16L64.285 12.8819L64.2634 12.8699L64.2417 12.8582L62.4638 16.16ZM63.4718 17.696L59.7562 18.2027L59.7578 18.2145L59.7595 18.2263L63.4718 17.696ZM63.2798 20L59.6498 19.0589L59.6372 19.1077L59.6258 19.1568L63.2798 20ZM62.3678 22.688L65.7897 24.222L65.7993 24.2006L65.8086 24.179L62.3678 22.688ZM61.0718 25.376L64.3736 27.1539L64.3874 27.1281L64.4009 27.1022L61.0718 25.376ZM59.7758 27.68L62.9643 29.6538L62.9846 29.621L63.0043 29.5877L59.7758 27.68ZM58.9118 29.216L62.2206 30.9807L62.2765 30.8759L62.3257 30.7678L58.9118 29.216ZM57.4718 31.856L54.1999 30.0237L54.1715 30.0744L54.1447 30.1259L57.4718 31.856ZM56.2238 34.256L52.8967 32.5259L52.8691 32.5792L52.8431 32.6333L56.2238 34.256ZM54.9758 36.656L51.7039 34.8237L51.6755 34.8744L51.6487 34.9259L54.9758 36.656ZM53.5838 39.296L50.275 37.5313L50.2431 37.591L50.2134 37.6519L53.5838 39.296ZM51.3758 43.424L48.1288 41.548L48.122 41.5597L48.1153 41.5715L51.3758 43.424ZM49.0718 47.408L45.8417 45.5031L45.8371 45.5108L45.8326 45.5185L49.0718 47.408ZM48.3038 48.56L51.3038 50.81L48.3038 48.56ZM47.2958 49.52L45.2157 46.3998L45.152 46.4422L45.0902 46.4872L47.2958 49.52ZM46.0478 50L45.5522 46.2829L45.5348 46.2852L45.5175 46.2877L46.0478 50ZM44.5598 49.712L42.7819 53.0138L42.8713 53.0619L42.9631 53.1051L44.5598 49.712ZM42.9278 47.744L39.2978 48.6851L39.314 48.7475L39.3323 48.8093L42.9278 47.744ZM43.1678 45.344L39.8943 43.5147L39.868 43.5617L39.8431 43.6094L43.1678 45.344ZM44.9438 42.08L48.258 43.8346L48.2684 43.8149L48.2786 43.7951L44.9438 42.08ZM46.6718 38.768L49.986 40.5226L46.6718 38.768ZM49.0718 34.064L45.732 32.3586L45.7175 32.387L45.7035 32.4157L49.0718 34.064ZM51.5198 29.36L48.211 27.5953L48.2056 27.6054L51.5198 29.36ZM52.5758 27.632L55.696 29.7121L55.7181 29.6789L55.7395 29.6453L52.5758 27.632ZM53.8238 25.472L50.5592 23.6268L50.5282 23.6816L50.4991 23.7374L53.8238 25.472ZM54.7838 23.312L51.2419 22.08L51.2255 22.1273L51.2103 22.175L54.7838 23.312ZM55.0238 21.392L58.7167 20.7403L58.2158 17.9019L55.3441 17.6557L55.0238 21.392ZM51.9518 21.296V25.046H52.0164L52.081 25.0438L51.9518 21.296ZM42.4478 21.344L42.2694 17.5982L42.2605 17.5987L42.4478 21.344ZM40.6238 21.248L39.8103 24.9087L39.9083 24.9305L40.0073 24.947L40.6238 21.248ZM39.1358 20.528L36.6018 23.2923L36.6567 23.3426L36.7135 23.3907L39.1358 20.528ZM38.4158 18.8L34.6827 19.1555L34.6871 19.2012L34.6925 19.2468L38.4158 18.8ZM39.4238 16.352L41.1009 19.7061C41.0488 19.7321 41.0052 19.7467 40.9769 19.754C40.9496 19.7611 40.9448 19.7593 40.9693 19.7577L40.7198 16.016L40.4704 12.2743C39.5533 12.3354 38.6269 12.5579 37.7468 12.9979L39.4238 16.352ZM40.7198 16.016L41.2154 19.7331C41.5125 19.6935 41.8577 19.67 42.2558 19.67V15.92V12.17C41.5659 12.17 40.8871 12.2105 40.2242 12.2989L40.7198 16.016ZM42.2558 15.92V19.67H59.6318V15.92V12.17H42.2558V15.92ZM59.6318 15.92V19.67C60.168 19.67 60.7267 19.6509 61.3057 19.6147L61.0718 15.872L60.8379 12.1293C60.3929 12.1571 59.9916 12.17 59.6318 12.17V15.92ZM61.0718 15.872L61.3057 19.6147C61.2562 19.6178 61.1644 19.6171 61.044 19.5922C60.9216 19.5669 60.7985 19.5224 60.6859 19.4618L62.4638 16.16L64.2417 12.8582C63.1567 12.274 61.9863 12.0575 60.8379 12.1293L61.0718 15.872ZM62.4638 16.16L60.6426 19.4381C60.4417 19.3264 60.2024 19.1307 60.0126 18.8415C59.8286 18.561 59.7716 18.316 59.7562 18.2027L63.4718 17.696L67.1874 17.1893C66.9463 15.4211 65.9842 13.8259 64.285 12.8819L62.4638 16.16ZM63.4718 17.696L59.7595 18.2263C59.767 18.279 59.7866 18.5314 59.6498 19.0589L63.2798 20L66.9098 20.9411C67.2211 19.7406 67.3686 18.457 67.1841 17.1657L63.4718 17.696ZM63.2798 20L59.6258 19.1568C59.495 19.7239 59.2718 20.4012 58.927 21.197L62.3678 22.688L65.8086 24.179C66.2958 23.0548 66.6806 21.9401 66.9338 20.8432L63.2798 20ZM62.3678 22.688L58.9459 21.154C58.5577 22.02 58.1565 22.8517 57.7427 23.6498L61.0718 25.376L64.4009 27.1022C64.8831 26.1723 65.3459 25.212 65.7897 24.222L62.3678 22.688ZM61.0718 25.376L57.77 23.5981C57.3421 24.3929 56.9345 25.117 56.5473 25.7723L59.7758 27.68L63.0043 29.5877C63.4491 28.835 63.9055 28.0231 64.3736 27.1539L61.0718 25.376ZM59.7758 27.68L56.5873 25.7062C56.155 26.4045 55.7617 27.0841 55.4979 27.6642L58.9118 29.216L62.3257 30.7678C62.382 30.6439 62.5646 30.2995 62.9643 29.6538L59.7758 27.68ZM58.9118 29.216L55.603 27.4513C55.1009 28.3927 54.6333 29.2498 54.1999 30.0237L57.4718 31.856L60.7437 33.6883C61.2063 32.8622 61.6987 31.9593 62.2206 30.9807L58.9118 29.216ZM57.4718 31.856L54.1447 30.1259C53.7287 30.9259 53.3127 31.7259 52.8967 32.5259L56.2238 34.256L59.5509 35.9861C59.9669 35.1861 60.3829 34.3861 60.7989 33.5861L57.4718 31.856ZM56.2238 34.256L52.8431 32.6333C52.4943 33.36 52.1147 34.0902 51.7039 34.8237L54.9758 36.656L58.2477 38.4883C58.7329 37.6218 59.1854 36.752 59.6045 35.8787L56.2238 34.256ZM54.9758 36.656L51.6487 34.9259C51.2398 35.7123 50.7821 36.5806 50.275 37.5313L53.5838 39.296L56.8926 41.0607C57.4096 40.0914 57.8798 39.1997 58.3029 38.3861L54.9758 36.656ZM53.5838 39.296L50.2134 37.6519C49.6167 38.8752 48.9229 40.1736 48.1288 41.548L51.3758 43.424L54.6228 45.3C55.4927 43.7944 56.2709 42.3408 56.9542 40.9401L53.5838 39.296ZM51.3758 43.424L48.1153 41.5715C47.3242 42.9639 46.5663 44.2743 45.8417 45.5031L49.0718 47.408L52.3019 49.3129C53.0493 48.0457 53.8274 46.7001 54.6363 45.2765L51.3758 43.424ZM49.0718 47.408L45.8326 45.5185C45.6868 45.7684 45.512 46.0324 45.3038 46.31L48.3038 48.56L51.3038 50.81C51.6716 50.3196 52.0088 49.8156 52.311 49.2975L49.0718 47.408ZM48.3038 48.56L45.3038 46.31C45.2606 46.3677 45.2319 46.389 45.2157 46.3998L47.2958 49.52L49.3759 52.6402C50.1277 52.139 50.7711 51.5203 51.3038 50.81L48.3038 48.56ZM47.2958 49.52L45.0902 46.4872C45.1854 46.418 45.2834 46.3667 45.3736 46.332C45.4622 46.2979 45.526 46.2864 45.5522 46.2829L46.0478 50L46.5434 53.7171C47.5706 53.5801 48.5904 53.2154 49.5015 52.5528L47.2958 49.52ZM46.0478 50L45.5175 46.2877C45.9971 46.2192 46.2512 46.3635 46.1566 46.3189L44.5598 49.712L42.9631 53.1051C43.9564 53.5725 45.2025 53.9088 46.5781 53.7123L46.0478 50ZM44.5598 49.712L46.3377 46.4102C46.3 46.3899 46.3468 46.4087 46.4144 46.4902C46.4457 46.528 46.4721 46.5681 46.4923 46.6064C46.5122 46.6443 46.5209 46.6706 46.5233 46.6787L42.9278 47.744L39.3323 48.8093C39.8871 50.6818 41.118 52.1178 42.7819 53.0138L44.5598 49.712ZM42.9278 47.744L46.5578 46.8029C46.5447 46.7525 46.5598 46.7826 46.5512 46.8691C46.5471 46.9097 46.5388 46.952 46.5266 46.9924C46.5145 47.0326 46.5012 47.0619 46.4925 47.0786L43.1678 45.344L39.8431 43.6094C38.9956 45.2337 38.8598 46.9958 39.2978 48.6851L42.9278 47.744ZM43.1678 45.344L46.4413 47.1733C47.063 46.0609 47.6686 44.948 48.258 43.8346L44.9438 42.08L41.6296 40.3254C41.067 41.388 40.4886 42.4511 39.8943 43.5147L43.1678 45.344ZM44.9438 42.08L48.2786 43.7951C48.848 42.688 49.4171 41.5971 49.986 40.5226L46.6718 38.768L43.3576 37.0134C42.7745 38.1149 42.1916 39.232 41.609 40.3649L44.9438 42.08ZM46.6718 38.768L49.986 40.5226C50.8667 38.859 51.685 37.2554 52.4401 35.7123L49.0718 34.064L45.7035 32.4157C44.9866 33.8806 44.2049 35.413 43.3576 37.0134L46.6718 38.768ZM49.0718 34.064L52.4116 35.7694C53.1704 34.2833 53.9779 32.7317 54.834 31.1146L51.5198 29.36L48.2056 27.6054C47.3338 29.2523 46.5092 30.8367 45.732 32.3586L49.0718 34.064ZM51.5198 29.36L54.8286 31.1247C55.0066 30.791 55.2868 30.3259 55.696 29.7121L52.5758 27.632L49.4556 25.5519C48.9688 26.2821 48.545 26.969 48.211 27.5953L51.5198 29.36ZM52.5758 27.632L55.7395 29.6453C56.2449 28.8512 56.7146 28.0383 57.1485 27.2066L53.8238 25.472L50.4991 23.7374C50.165 24.3777 49.8028 25.0048 49.4121 25.6187L52.5758 27.632ZM53.8238 25.472L57.0884 27.3172C57.6137 26.388 58.0447 25.4314 58.3573 24.449L54.7838 23.312L51.2103 22.175C51.0749 22.6006 50.866 23.084 50.5592 23.6268L53.8238 25.472ZM54.7838 23.312L58.3257 24.5439C58.7104 23.4379 58.9604 22.121 58.7167 20.7403L55.0238 21.392L51.3309 22.0437C51.304 21.8912 51.3159 21.8058 51.3148 21.8149C51.3143 21.8189 51.311 21.8429 51.2998 21.8884C51.2887 21.934 51.2707 21.9975 51.2419 22.08L54.7838 23.312ZM55.0238 21.392L55.3441 17.6557C54.1045 17.5495 52.9278 17.5101 51.8226 17.5482L51.9518 21.296L52.081 25.0438C52.8318 25.0179 53.7031 25.0425 54.7036 25.1283L55.0238 21.392ZM51.9518 21.296V17.546C51.9501 17.546 51.9483 17.546 51.9466 17.546C51.9448 17.546 51.9431 17.546 51.9413 17.546C51.9396 17.546 51.9378 17.546 51.9361 17.546C51.9343 17.546 51.9325 17.546 51.9308 17.546C51.929 17.546 51.9273 17.546 51.9255 17.546C51.9238 17.546 51.922 17.546 51.9203 17.546C51.9185 17.546 51.9168 17.546 51.915 17.546C51.9132 17.546 51.9115 17.546 51.9097 17.546C51.908 17.546 51.9062 17.546 51.9045 17.546C51.9027 17.546 51.901 17.546 51.8992 17.546C51.8974 17.546 51.8957 17.546 51.8939 17.546C51.8922 17.546 51.8904 17.546 51.8887 17.546C51.8869 17.546 51.8851 17.546 51.8834 17.546C51.8816 17.546 51.8799 17.546 51.8781 17.546C51.8763 17.546 51.8746 17.546 51.8728 17.546C51.8711 17.546 51.8693 17.546 51.8675 17.546C51.8658 17.546 51.864 17.546 51.8622 17.546C51.8605 17.546 51.8587 17.546 51.857 17.546C51.8552 17.546 51.8534 17.546 51.8517 17.546C51.8499 17.546 51.8481 17.546 51.8464 17.546C51.8446 17.546 51.8428 17.546 51.8411 17.546C51.8393 17.546 51.8375 17.546 51.8358 17.546C51.834 17.546 51.8322 17.546 51.8305 17.546C51.8287 17.546 51.8269 17.546 51.8252 17.546C51.8234 17.546 51.8216 17.546 51.8199 17.546C51.8181 17.546 51.8163 17.546 51.8146 17.546C51.8128 17.546 51.811 17.546 51.8093 17.546C51.8075 17.546 51.8057 17.546 51.8039 17.546C51.8022 17.546 51.8004 17.546 51.7986 17.546C51.7969 17.546 51.7951 17.546 51.7933 17.546C51.7915 17.546 51.7898 17.546 51.788 17.546C51.7862 17.546 51.7845 17.546 51.7827 17.546C51.7809 17.546 51.7791 17.546 51.7774 17.546C51.7756 17.546 51.7738 17.546 51.772 17.546C51.7703 17.546 51.7685 17.546 51.7667 17.546C51.7649 17.546 51.7632 17.546 51.7614 17.546C51.7596 17.546 51.7578 17.546 51.7561 17.546C51.7543 17.546 51.7525 17.546 51.7507 17.546C51.7489 17.546 51.7472 17.546 51.7454 17.546C51.7436 17.546 51.7418 17.546 51.7401 17.546C51.7383 17.546 51.7365 17.546 51.7347 17.546C51.7329 17.546 51.7312 17.546 51.7294 17.546C51.7276 17.546 51.7258 17.546 51.724 17.546C51.7222 17.546 51.7205 17.546 51.7187 17.546C51.7169 17.546 51.7151 17.546 51.7133 17.546C51.7116 17.546 51.7098 17.546 51.708 17.546C51.7062 17.546 51.7044 17.546 51.7026 17.546C51.7008 17.546 51.6991 17.546 51.6973 17.546C51.6955 17.546 51.6937 17.546 51.6919 17.546C51.6901 17.546 51.6884 17.546 51.6866 17.546C51.6848 17.546 51.683 17.546 51.6812 17.546C51.6794 17.546 51.6776 17.546 51.6758 17.546C51.6741 17.546 51.6723 17.546 51.6705 17.546C51.6687 17.546 51.6669 17.546 51.6651 17.546C51.6633 17.546 51.6615 17.546 51.6597 17.546C51.6579 17.546 51.6562 17.546 51.6544 17.546C51.6526 17.546 51.6508 17.546 51.649 17.546C51.6472 17.546 51.6454 17.546 51.6436 17.546C51.6418 17.546 51.64 17.546 51.6382 17.546C51.6364 17.546 51.6347 17.546 51.6329 17.546C51.6311 17.546 51.6293 17.546 51.6275 17.546C51.6257 17.546 51.6239 17.546 51.6221 17.546C51.6203 17.546 51.6185 17.546 51.6167 17.546C51.6149 17.546 51.6131 17.546 51.6113 17.546C51.6095 17.546 51.6077 17.546 51.6059 17.546C51.6041 17.546 51.6023 17.546 51.6005 17.546C51.5987 17.546 51.5969 17.546 51.5951 17.546C51.5933 17.546 51.5915 17.546 51.5897 17.546C51.5879 17.546 51.5861 17.546 51.5843 17.546C51.5825 17.546 51.5807 17.546 51.5789 17.546C51.5771 17.546 51.5753 17.546 51.5735 17.546C51.5717 17.546 51.5699 17.546 51.5681 17.546C51.5663 17.546 51.5645 17.546 51.5627 17.546C51.5609 17.546 51.5591 17.546 51.5573 17.546C51.5555 17.546 51.5537 17.546 51.5519 17.546C51.5501 17.546 51.5483 17.546 51.5465 17.546C51.5447 17.546 51.5429 17.546 51.541 17.546C51.5392 17.546 51.5374 17.546 51.5356 17.546C51.5338 17.546 51.532 17.546 51.5302 17.546C51.5284 17.546 51.5266 17.546 51.5248 17.546C51.523 17.546 51.5212 17.546 51.5194 17.546C51.5175 17.546 51.5157 17.546 51.5139 17.546C51.5121 17.546 51.5103 17.546 51.5085 17.546C51.5067 17.546 51.5049 17.546 51.5031 17.546C51.5012 17.546 51.4994 17.546 51.4976 17.546C51.4958 17.546 51.494 17.546 51.4922 17.546C51.4904 17.546 51.4886 17.546 51.4867 17.546C51.4849 17.546 51.4831 17.546 51.4813 17.546C51.4795 17.546 51.4777 17.546 51.4759 17.546C51.474 17.546 51.4722 17.546 51.4704 17.546C51.4686 17.546 51.4668 17.546 51.465 17.546C51.4631 17.546 51.4613 17.546 51.4595 17.546C51.4577 17.546 51.4559 17.546 51.4541 17.546C51.4522 17.546 51.4504 17.546 51.4486 17.546C51.4468 17.546 51.445 17.546 51.4431 17.546C51.4413 17.546 51.4395 17.546 51.4377 17.546C51.4359 17.546 51.434 17.546 51.4322 17.546C51.4304 17.546 51.4286 17.546 51.4268 17.546C51.4249 17.546 51.4231 17.546 51.4213 17.546C51.4195 17.546 51.4176 17.546 51.4158 17.546C51.414 17.546 51.4122 17.546 51.4104 17.546C51.4085 17.546 51.4067 17.546 51.4049 17.546C51.4031 17.546 51.4012 17.546 51.3994 17.546C51.3976 17.546 51.3958 17.546 51.3939 17.546C51.3921 17.546 51.3903 17.546 51.3884 17.546C51.3866 17.546 51.3848 17.546 51.383 17.546C51.3811 17.546 51.3793 17.546 51.3775 17.546C51.3757 17.546 51.3738 17.546 51.372 17.546C51.3702 17.546 51.3683 17.546 51.3665 17.546C51.3647 17.546 51.3628 17.546 51.361 17.546C51.3592 17.546 51.3574 17.546 51.3555 17.546C51.3537 17.546 51.3519 17.546 51.35 17.546C51.3482 17.546 51.3464 17.546 51.3445 17.546C51.3427 17.546 51.3409 17.546 51.339 17.546C51.3372 17.546 51.3354 17.546 51.3335 17.546C51.3317 17.546 51.3299 17.546 51.328 17.546C51.3262 17.546 51.3244 17.546 51.3225 17.546C51.3207 17.546 51.3189 17.546 51.317 17.546C51.3152 17.546 51.3133 17.546 51.3115 17.546C51.3097 17.546 51.3078 17.546 51.306 17.546C51.3042 17.546 51.3023 17.546 51.3005 17.546C51.2986 17.546 51.2968 17.546 51.295 17.546C51.2931 17.546 51.2913 17.546 51.2894 17.546C51.2876 17.546 51.2858 17.546 51.2839 17.546C51.2821 17.546 51.2802 17.546 51.2784 17.546C51.2766 17.546 51.2747 17.546 51.2729 17.546C51.271 17.546 51.2692 17.546 51.2673 17.546C51.2655 17.546 51.2637 17.546 51.2618 17.546C51.26 17.546 51.2581 17.546 51.2563 17.546C51.2544 17.546 51.2526 17.546 51.2507 17.546C51.2489 17.546 51.2471 17.546 51.2452 17.546C51.2434 17.546 51.2415 17.546 51.2397 17.546C51.2378 17.546 51.236 17.546 51.2341 17.546C51.2323 17.546 51.2304 17.546 51.2286 17.546C51.2267 17.546 51.2249 17.546 51.223 17.546C51.2212 17.546 51.2193 17.546 51.2175 17.546C51.2156 17.546 51.2138 17.546 51.2119 17.546C51.2101 17.546 51.2082 17.546 51.2064 17.546C51.2045 17.546 51.2027 17.546 51.2008 17.546C51.199 17.546 51.1971 17.546 51.1953 17.546C51.1934 17.546 51.1916 17.546 51.1897 17.546C51.1879 17.546 51.186 17.546 51.1842 17.546C51.1823 17.546 51.1805 17.546 51.1786 17.546C51.1767 17.546 51.1749 17.546 51.173 17.546C51.1712 17.546 51.1693 17.546 51.1675 17.546C51.1656 17.546 51.1637 17.546 51.1619 17.546C51.16 17.546 51.1582 17.546 51.1563 17.546C51.1545 17.546 51.1526 17.546 51.1507 17.546C51.1489 17.546 51.147 17.546 51.1452 17.546C51.1433 17.546 51.1415 17.546 51.1396 17.546C51.1377 17.546 51.1359 17.546 51.134 17.546C51.1321 17.546 51.1303 17.546 51.1284 17.546C51.1266 17.546 51.1247 17.546 51.1228 17.546C51.121 17.546 51.1191 17.546 51.1173 17.546C51.1154 17.546 51.1135 17.546 51.1117 17.546C51.1098 17.546 51.1079 17.546 51.1061 17.546C51.1042 17.546 51.1023 17.546 51.1005 17.546C51.0986 17.546 51.0967 17.546 51.0949 17.546C51.093 17.546 51.0912 17.546 51.0893 17.546C51.0874 17.546 51.0856 17.546 51.0837 17.546C51.0818 17.546 51.08 17.546 51.0781 17.546C51.0762 17.546 51.0743 17.546 51.0725 17.546C51.0706 17.546 51.0687 17.546 51.0669 17.546C51.065 17.546 51.0631 17.546 51.0613 17.546C51.0594 17.546 51.0575 17.546 51.0556 17.546C51.0538 17.546 51.0519 17.546 51.05 17.546C51.0482 17.546 51.0463 17.546 51.0444 17.546C51.0425 17.546 51.0407 17.546 51.0388 17.546C51.0369 17.546 51.0351 17.546 51.0332 17.546C51.0313 17.546 51.0294 17.546 51.0276 17.546C51.0257 17.546 51.0238 17.546 51.0219 17.546C51.0201 17.546 51.0182 17.546 51.0163 17.546C51.0144 17.546 51.0126 17.546 51.0107 17.546C51.0088 17.546 51.0069 17.546 51.005 17.546C51.0032 17.546 51.0013 17.546 50.9994 17.546C50.9975 17.546 50.9957 17.546 50.9938 17.546C50.9919 17.546 50.99 17.546 50.9881 17.546C50.9863 17.546 50.9844 17.546 50.9825 17.546C50.9806 17.546 50.9787 17.546 50.9769 17.546C50.975 17.546 50.9731 17.546 50.9712 17.546C50.9693 17.546 50.9674 17.546 50.9656 17.546C50.9637 17.546 50.9618 17.546 50.9599 17.546C50.958 17.546 50.9562 17.546 50.9543 17.546C50.9524 17.546 50.9505 17.546 50.9486 17.546C50.9467 17.546 50.9448 17.546 50.943 17.546C50.9411 17.546 50.9392 17.546 50.9373 17.546C50.9354 17.546 50.9335 17.546 50.9316 17.546C50.9298 17.546 50.9279 17.546 50.926 17.546C50.9241 17.546 50.9222 17.546 50.9203 17.546C50.9184 17.546 50.9165 17.546 50.9146 17.546C50.9128 17.546 50.9109 17.546 50.909 17.546C50.9071 17.546 50.9052 17.546 50.9033 17.546C50.9014 17.546 50.8995 17.546 50.8976 17.546C50.8957 17.546 50.8939 17.546 50.892 17.546C50.8901 17.546 50.8882 17.546 50.8863 17.546C50.8844 17.546 50.8825 17.546 50.8806 17.546C50.8787 17.546 50.8768 17.546 50.8749 17.546C50.873 17.546 50.8711 17.546 50.8692 17.546C50.8673 17.546 50.8654 17.546 50.8636 17.546C50.8617 17.546 50.8598 17.546 50.8579 17.546C50.856 17.546 50.8541 17.546 50.8522 17.546C50.8503 17.546 50.8484 17.546 50.8465 17.546C50.8446 17.546 50.8427 17.546 50.8408 17.546C50.8389 17.546 50.837 17.546 50.8351 17.546C50.8332 17.546 50.8313 17.546 50.8294 17.546C50.8275 17.546 50.8256 17.546 50.8237 17.546C50.8218 17.546 50.8199 17.546 50.818 17.546C50.8161 17.546 50.8142 17.546 50.8123 17.546C50.8104 17.546 50.8085 17.546 50.8066 17.546C50.8047 17.546 50.8028 17.546 50.8009 17.546C50.799 17.546 50.7971 17.546 50.7951 17.546C50.7932 17.546 50.7913 17.546 50.7894 17.546C50.7875 17.546 50.7856 17.546 50.7837 17.546C50.7818 17.546 50.7799 17.546 50.778 17.546C50.7761 17.546 50.7742 17.546 50.7723 17.546C50.7704 17.546 50.7685 17.546 50.7666 17.546C50.7646 17.546 50.7627 17.546 50.7608 17.546C50.7589 17.546 50.757 17.546 50.7551 17.546C50.7532 17.546 50.7513 17.546 50.7494 17.546C50.7475 17.546 50.7455 17.546 50.7436 17.546C50.7417 17.546 50.7398 17.546 50.7379 17.546C50.736 17.546 50.7341 17.546 50.7322 17.546C50.7303 17.546 50.7283 17.546 50.7264 17.546C50.7245 17.546 50.7226 17.546 50.7207 17.546C50.7188 17.546 50.7169 17.546 50.7149 17.546C50.713 17.546 50.7111 17.546 50.7092 17.546C50.7073 17.546 50.7054 17.546 50.7034 17.546C50.7015 17.546 50.6996 17.546 50.6977 17.546C50.6958 17.546 50.6939 17.546 50.6919 17.546C50.69 17.546 50.6881 17.546 50.6862 17.546C50.6843 17.546 50.6824 17.546 50.6804 17.546C50.6785 17.546 50.6766 17.546 50.6747 17.546C50.6728 17.546 50.6708 17.546 50.6689 17.546C50.667 17.546 50.6651 17.546 50.6632 17.546C50.6612 17.546 50.6593 17.546 50.6574 17.546C50.6555 17.546 50.6535 17.546 50.6516 17.546C50.6497 17.546 50.6478 17.546 50.6459 17.546C50.6439 17.546 50.642 17.546 50.6401 17.546C50.6382 17.546 50.6362 17.546 50.6343 17.546C50.6324 17.546 50.6305 17.546 50.6285 17.546C50.6266 17.546 50.6247 17.546 50.6227 17.546C50.6208 17.546 50.6189 17.546 50.617 17.546C50.615 17.546 50.6131 17.546 50.6112 17.546C50.6093 17.546 50.6073 17.546 50.6054 17.546C50.6035 17.546 50.6015 17.546 50.5996 17.546C50.5977 17.546 50.5958 17.546 50.5938 17.546C50.5919 17.546 50.59 17.546 50.588 17.546C50.5861 17.546 50.5842 17.546 50.5822 17.546C50.5803 17.546 50.5784 17.546 50.5764 17.546C50.5745 17.546 50.5726 17.546 50.5706 17.546C50.5687 17.546 50.5668 17.546 50.5648 17.546C50.5629 17.546 50.561 17.546 50.559 17.546C50.5571 17.546 50.5552 17.546 50.5532 17.546C50.5513 17.546 50.5494 17.546 50.5474 17.546C50.5455 17.546 50.5436 17.546 50.5416 17.546C50.5397 17.546 50.5377 17.546 50.5358 17.546C50.5339 17.546 50.5319 17.546 50.53 17.546C50.5281 17.546 50.5261 17.546 50.5242 17.546C50.5222 17.546 50.5203 17.546 50.5184 17.546C50.5164 17.546 50.5145 17.546 50.5125 17.546C50.5106 17.546 50.5087 17.546 50.5067 17.546C50.5048 17.546 50.5028 17.546 50.5009 17.546C50.499 17.546 50.497 17.546 50.4951 17.546C50.4931 17.546 50.4912 17.546 50.4892 17.546C50.4873 17.546 50.4854 17.546 50.4834 17.546C50.4815 17.546 50.4795 17.546 50.4776 17.546C50.4756 17.546 50.4737 17.546 50.4717 17.546C50.4698 17.546 50.4678 17.546 50.4659 17.546C50.464 17.546 50.462 17.546 50.4601 17.546C50.4581 17.546 50.4562 17.546 50.4542 17.546C50.4523 17.546 50.4503 17.546 50.4484 17.546C50.4464 17.546 50.4445 17.546 50.4425 17.546C50.4406 17.546 50.4386 17.546 50.4367 17.546C50.4347 17.546 50.4328 17.546 50.4308 17.546C50.4289 17.546 50.4269 17.546 50.425 17.546C50.423 17.546 50.4211 17.546 50.4191 17.546C50.4172 17.546 50.4152 17.546 50.4133 17.546C50.4113 17.546 50.4094 17.546 50.4074 17.546C50.4054 17.546 50.4035 17.546 50.4015 17.546C50.3996 17.546 50.3976 17.546 50.3957 17.546C50.3937 17.546 50.3918 17.546 50.3898 17.546C50.3879 17.546 50.3859 17.546 50.3839 17.546C50.382 17.546 50.38 17.546 50.3781 17.546C50.3761 17.546 50.3742 17.546 50.3722 17.546C50.3702 17.546 50.3683 17.546 50.3663 17.546C50.3644 17.546 50.3624 17.546 50.3604 17.546C50.3585 17.546 50.3565 17.546 50.3546 17.546C50.3526 17.546 50.3506 17.546 50.3487 17.546C50.3467 17.546 50.3448 17.546 50.3428 17.546C50.3408 17.546 50.3389 17.546 50.3369 17.546C50.335 17.546 50.333 17.546 50.331 17.546C50.3291 17.546 50.3271 17.546 50.3251 17.546C50.3232 17.546 50.3212 17.546 50.3192 17.546C50.3173 17.546 50.3153 17.546 50.3134 17.546C50.3114 17.546 50.3094 17.546 50.3075 17.546C50.3055 17.546 50.3035 17.546 50.3016 17.546C50.2996 17.546 50.2976 17.546 50.2957 17.546C50.2937 17.546 50.2917 17.546 50.2897 17.546C50.2878 17.546 50.2858 17.546 50.2838 17.546C50.2819 17.546 50.2799 17.546 50.2779 17.546C50.276 17.546 50.274 17.546 50.272 17.546C50.2701 17.546 50.2681 17.546 50.2661 17.546C50.2641 17.546 50.2622 17.546 50.2602 17.546C50.2582 17.546 50.2563 17.546 50.2543 17.546C50.2523 17.546 50.2503 17.546 50.2484 17.546C50.2464 17.546 50.2444 17.546 50.2424 17.546C50.2405 17.546 50.2385 17.546 50.2365 17.546C50.2345 17.546 50.2326 17.546 50.2306 17.546C50.2286 17.546 50.2266 17.546 50.2247 17.546C50.2227 17.546 50.2207 17.546 50.2187 17.546C50.2168 17.546 50.2148 17.546 50.2128 17.546C50.2108 17.546 50.2088 17.546 50.2069 17.546C50.2049 17.546 50.2029 17.546 50.2009 17.546C50.1989 17.546 50.197 17.546 50.195 17.546C50.193 17.546 50.191 17.546 50.189 17.546C50.1871 17.546 50.1851 17.546 50.1831 17.546C50.1811 17.546 50.1791 17.546 50.1772 17.546C50.1752 17.546 50.1732 17.546 50.1712 17.546C50.1692 17.546 50.1672 17.546 50.1653 17.546C50.1633 17.546 50.1613 17.546 50.1593 17.546C50.1573 17.546 50.1553 17.546 50.1534 17.546C50.1514 17.546 50.1494 17.546 50.1474 17.546C50.1454 17.546 50.1434 17.546 50.1414 17.546C50.1395 17.546 50.1375 17.546 50.1355 17.546C50.1335 17.546 50.1315 17.546 50.1295 17.546C50.1275 17.546 50.1255 17.546 50.1236 17.546C50.1216 17.546 50.1196 17.546 50.1176 17.546C50.1156 17.546 50.1136 17.546 50.1116 17.546C50.1096 17.546 50.1076 17.546 50.1056 17.546C50.1037 17.546 50.1017 17.546 50.0997 17.546C50.0977 17.546 50.0957 17.546 50.0937 17.546C50.0917 17.546 50.0897 17.546 50.0877 17.546C50.0857 17.546 50.0837 17.546 50.0817 17.546C50.0797 17.546 50.0777 17.546 50.0758 17.546C50.0738 17.546 50.0718 17.546 50.0698 17.546C50.0678 17.546 50.0658 17.546 50.0638 17.546C50.0618 17.546 50.0598 17.546 50.0578 17.546C50.0558 17.546 50.0538 17.546 50.0518 17.546C50.0498 17.546 50.0478 17.546 50.0458 17.546C50.0438 17.546 50.0418 17.546 50.0398 17.546C50.0378 17.546 50.0358 17.546 50.0338 17.546C50.0318 17.546 50.0298 17.546 50.0278 17.546C50.0258 17.546 50.0238 17.546 50.0218 17.546C50.0198 17.546 50.0178 17.546 50.0158 17.546C50.0138 17.546 50.0118 17.546 50.0098 17.546C50.0078 17.546 50.0058 17.546 50.0038 17.546C50.0018 17.546 49.9998 17.546 49.9978 17.546C49.9958 17.546 49.9938 17.546 49.9918 17.546C49.9898 17.546 49.9878 17.546 49.9857 17.546C49.9837 17.546 49.9817 17.546 49.9797 17.546C49.9777 17.546 49.9757 17.546 49.9737 17.546C49.9717 17.546 49.9697 17.546 49.9677 17.546C49.9657 17.546 49.9637 17.546 49.9617 17.546C49.9597 17.546 49.9576 17.546 49.9556 17.546C49.9536 17.546 49.9516 17.546 49.9496 17.546C49.9476 17.546 49.9456 17.546 49.9436 17.546C49.9416 17.546 49.9396 17.546 49.9375 17.546C49.9355 17.546 49.9335 17.546 49.9315 17.546C49.9295 17.546 49.9275 17.546 49.9255 17.546C49.9235 17.546 49.9214 17.546 49.9194 17.546C49.9174 17.546 49.9154 17.546 49.9134 17.546C49.9114 17.546 49.9094 17.546 49.9073 17.546C49.9053 17.546 49.9033 17.546 49.9013 17.546C49.8993 17.546 49.8973 17.546 49.8952 17.546C49.8932 17.546 49.8912 17.546 49.8892 17.546C49.8872 17.546 49.8852 17.546 49.8831 17.546C49.8811 17.546 49.8791 17.546 49.8771 17.546C49.8751 17.546 49.8731 17.546 49.871 17.546C49.869 17.546 49.867 17.546 49.865 17.546C49.8629 17.546 49.8609 17.546 49.8589 17.546C49.8569 17.546 49.8549 17.546 49.8528 17.546C49.8508 17.546 49.8488 17.546 49.8468 17.546C49.8448 17.546 49.8427 17.546 49.8407 17.546C49.8387 17.546 49.8367 17.546 49.8346 17.546C49.8326 17.546 49.8306 17.546 49.8286 17.546C49.8265 17.546 49.8245 17.546 49.8225 17.546C49.8205 17.546 49.8184 17.546 49.8164 17.546C49.8144 17.546 49.8124 17.546 49.8103 17.546C49.8083 17.546 49.8063 17.546 49.8043 17.546C49.8022 17.546 49.8002 17.546 49.7982 17.546C49.7961 17.546 49.7941 17.546 49.7921 17.546C49.7901 17.546 49.788 17.546 49.786 17.546C49.784 17.546 49.7819 17.546 49.7799 17.546C49.7779 17.546 49.7758 17.546 49.7738 17.546C49.7718 17.546 49.7697 17.546 49.7677 17.546C49.7657 17.546 49.7637 17.546 49.7616 17.546C49.7596 17.546 49.7576 17.546 49.7555 17.546C49.7535 17.546 49.7515 17.546 49.7494 17.546C49.7474 17.546 49.7453 17.546 49.7433 17.546C49.7413 17.546 49.7392 17.546 49.7372 17.546C49.7352 17.546 49.7331 17.546 49.7311 17.546C49.7291 17.546 49.727 17.546 49.725 17.546C49.723 17.546 49.7209 17.546 49.7189 17.546C49.7168 17.546 49.7148 17.546 49.7128 17.546C49.7107 17.546 49.7087 17.546 49.7066 17.546C49.7046 17.546 49.7026 17.546 49.7005 17.546C49.6985 17.546 49.6964 17.546 49.6944 17.546C49.6924 17.546 49.6903 17.546 49.6883 17.546C49.6862 17.546 49.6842 17.546 49.6822 17.546C49.6801 17.546 49.6781 17.546 49.676 17.546C49.674 17.546 49.6719 17.546 49.6699 17.546C49.6679 17.546 49.6658 17.546 49.6638 17.546C49.6617 17.546 49.6597 17.546 49.6576 17.546C49.6556 17.546 49.6535 17.546 49.6515 17.546C49.6494 17.546 49.6474 17.546 49.6454 17.546C49.6433 17.546 49.6413 17.546 49.6392 17.546C49.6372 17.546 49.6351 17.546 49.6331 17.546C49.631 17.546 49.629 17.546 49.6269 17.546C49.6249 17.546 49.6228 17.546 49.6208 17.546C49.6187 17.546 49.6167 17.546 49.6146 17.546C49.6126 17.546 49.6105 17.546 49.6085 17.546C49.6064 17.546 49.6044 17.546 49.6023 17.546C49.6003 17.546 49.5982 17.546 49.5962 17.546C49.5941 17.546 49.5921 17.546 49.59 17.546C49.588 17.546 49.5859 17.546 49.5838 17.546C49.5818 17.546 49.5797 17.546 49.5777 17.546C49.5756 17.546 49.5736 17.546 49.5715 17.546C49.5695 17.546 49.5674 17.546 49.5654 17.546C49.5633 17.546 49.5612 17.546 49.5592 17.546C49.5571 17.546 49.5551 17.546 49.553 17.546C49.551 17.546 49.5489 17.546 49.5468 17.546C49.5448 17.546 49.5427 17.546 49.5407 17.546C49.5386 17.546 49.5365 17.546 49.5345 17.546C49.5324 17.546 49.5304 17.546 49.5283 17.546C49.5262 17.546 49.5242 17.546 49.5221 17.546C49.5201 17.546 49.518 17.546 49.5159 17.546C49.5139 17.546 49.5118 17.546 49.5097 17.546C49.5077 17.546 49.5056 17.546 49.5036 17.546C49.5015 17.546 49.4994 17.546 49.4974 17.546C49.4953 17.546 49.4932 17.546 49.4912 17.546C49.4891 17.546 49.487 17.546 49.485 17.546C49.4829 17.546 49.4808 17.546 49.4788 17.546C49.4767 17.546 49.4746 17.546 49.4726 17.546C49.4705 17.546 49.4684 17.546 49.4664 17.546C49.4643 17.546 49.4622 17.546 49.4602 17.546C49.4581 17.546 49.456 17.546 49.454 17.546C49.4519 17.546 49.4498 17.546 49.4478 17.546C49.4457 17.546 49.4436 17.546 49.4415 17.546C49.4395 17.546 49.4374 17.546 49.4353 17.546C49.4333 17.546 49.4312 17.546 49.4291 17.546C49.427 17.546 49.425 17.546 49.4229 17.546C49.4208 17.546 49.4188 17.546 49.4167 17.546C49.4146 17.546 49.4125 17.546 49.4105 17.546C49.4084 17.546 49.4063 17.546 49.4042 17.546C49.4022 17.546 49.4001 17.546 49.398 17.546C49.3959 17.546 49.3939 17.546 49.3918 17.546C49.3897 17.546 49.3876 17.546 49.3855 17.546C49.3835 17.546 49.3814 17.546 49.3793 17.546C49.3772 17.546 49.3752 17.546 49.3731 17.546C49.371 17.546 49.3689 17.546 49.3668 17.546C49.3648 17.546 49.3627 17.546 49.3606 17.546C49.3585 17.546 49.3564 17.546 49.3544 17.546C49.3523 17.546 49.3502 17.546 49.3481 17.546C49.346 17.546 49.3439 17.546 49.3419 17.546C49.3398 17.546 49.3377 17.546 49.3356 17.546C49.3335 17.546 49.3314 17.546 49.3294 17.546C49.3273 17.546 49.3252 17.546 49.3231 17.546C49.321 17.546 49.3189 17.546 49.3169 17.546C49.3148 17.546 49.3127 17.546 49.3106 17.546C49.3085 17.546 49.3064 17.546 49.3043 17.546C49.3023 17.546 49.3002 17.546 49.2981 17.546C49.296 17.546 49.2939 17.546 49.2918 17.546C49.2897 17.546 49.2876 17.546 49.2855 17.546C49.2835 17.546 49.2814 17.546 49.2793 17.546C49.2772 17.546 49.2751 17.546 49.273 17.546C49.2709 17.546 49.2688 17.546 49.2667 17.546C49.2646 17.546 49.2626 17.546 49.2605 17.546C49.2584 17.546 49.2563 17.546 49.2542 17.546C49.2521 17.546 49.25 17.546 49.2479 17.546C49.2458 17.546 49.2437 17.546 49.2416 17.546C49.2395 17.546 49.2374 17.546 49.2353 17.546C49.2332 17.546 49.2311 17.546 49.2291 17.546C49.227 17.546 49.2249 17.546 49.2228 17.546C49.2207 17.546 49.2186 17.546 49.2165 17.546C49.2144 17.546 49.2123 17.546 49.2102 17.546C49.2081 17.546 49.206 17.546 49.2039 17.546C49.2018 17.546 49.1997 17.546 49.1976 17.546C49.1955 17.546 49.1934 17.546 49.1913 17.546C49.1892 17.546 49.1871 17.546 49.185 17.546C49.1829 17.546 49.1808 17.546 49.1787 17.546C49.1766 17.546 49.1745 17.546 49.1724 17.546C49.1703 17.546 49.1682 17.546 49.1661 17.546C49.164 17.546 49.1619 17.546 49.1598 17.546C49.1577 17.546 49.1556 17.546 49.1535 17.546C49.1513 17.546 49.1492 17.546 49.1471 17.546C49.145 17.546 49.1429 17.546 49.1408 17.546C49.1387 17.546 49.1366 17.546 49.1345 17.546C49.1324 17.546 49.1303 17.546 49.1282 17.546C49.1261 17.546 49.124 17.546 49.1219 17.546C49.1197 17.546 49.1176 17.546 49.1155 17.546C49.1134 17.546 49.1113 17.546 49.1092 17.546C49.1071 17.546 49.105 17.546 49.1029 17.546C49.1008 17.546 49.0987 17.546 49.0965 17.546C49.0944 17.546 49.0923 17.546 49.0902 17.546C49.0881 17.546 49.086 17.546 49.0839 17.546C49.0818 17.546 49.0796 17.546 49.0775 17.546C49.0754 17.546 49.0733 17.546 49.0712 17.546C49.0691 17.546 49.067 17.546 49.0648 17.546C49.0627 17.546 49.0606 17.546 49.0585 17.546C49.0564 17.546 49.0543 17.546 49.0522 17.546C49.05 17.546 49.0479 17.546 49.0458 17.546C49.0437 17.546 49.0416 17.546 49.0395 17.546C49.0373 17.546 49.0352 17.546 49.0331 17.546C49.031 17.546 49.0289 17.546 49.0267 17.546C49.0246 17.546 49.0225 17.546 49.0204 17.546C49.0183 17.546 49.0161 17.546 49.014 17.546C49.0119 17.546 49.0098 17.546 49.0077 17.546C49.0055 17.546 49.0034 17.546 49.0013 17.546C48.9992 17.546 48.997 17.546 48.9949 17.546C48.9928 17.546 48.9907 17.546 48.9886 17.546C48.9864 17.546 48.9843 17.546 48.9822 17.546C48.9801 17.546 48.9779 17.546 48.9758 17.546V21.296V25.046C48.9779 25.046 48.9801 25.046 48.9822 25.046C48.9843 25.046 48.9864 25.046 48.9886 25.046C48.9907 25.046 48.9928 25.046 48.9949 25.046C48.997 25.046 48.9992 25.046 49.0013 25.046C49.0034 25.046 49.0055 25.046 49.0077 25.046C49.0098 25.046 49.0119 25.046 49.014 25.046C49.0161 25.046 49.0183 25.046 49.0204 25.046C49.0225 25.046 49.0246 25.046 49.0267 25.046C49.0289 25.046 49.031 25.046 49.0331 25.046C49.0352 25.046 49.0373 25.046 49.0395 25.046C49.0416 25.046 49.0437 25.046 49.0458 25.046C49.0479 25.046 49.05 25.046 49.0522 25.046C49.0543 25.046 49.0564 25.046 49.0585 25.046C49.0606 25.046 49.0627 25.046 49.0648 25.046C49.067 25.046 49.0691 25.046 49.0712 25.046C49.0733 25.046 49.0754 25.046 49.0775 25.046C49.0796 25.046 49.0818 25.046 49.0839 25.046C49.086 25.046 49.0881 25.046 49.0902 25.046C49.0923 25.046 49.0944 25.046 49.0965 25.046C49.0987 25.046 49.1008 25.046 49.1029 25.046C49.105 25.046 49.1071 25.046 49.1092 25.046C49.1113 25.046 49.1134 25.046 49.1155 25.046C49.1176 25.046 49.1197 25.046 49.1219 25.046C49.124 25.046 49.1261 25.046 49.1282 25.046C49.1303 25.046 49.1324 25.046 49.1345 25.046C49.1366 25.046 49.1387 25.046 49.1408 25.046C49.1429 25.046 49.145 25.046 49.1471 25.046C49.1492 25.046 49.1513 25.046 49.1535 25.046C49.1556 25.046 49.1577 25.046 49.1598 25.046C49.1619 25.046 49.164 25.046 49.1661 25.046C49.1682 25.046 49.1703 25.046 49.1724 25.046C49.1745 25.046 49.1766 25.046 49.1787 25.046C49.1808 25.046 49.1829 25.046 49.185 25.046C49.1871 25.046 49.1892 25.046 49.1913 25.046C49.1934 25.046 49.1955 25.046 49.1976 25.046C49.1997 25.046 49.2018 25.046 49.2039 25.046C49.206 25.046 49.2081 25.046 49.2102 25.046C49.2123 25.046 49.2144 25.046 49.2165 25.046C49.2186 25.046 49.2207 25.046 49.2228 25.046C49.2249 25.046 49.227 25.046 49.2291 25.046C49.2311 25.046 49.2332 25.046 49.2353 25.046C49.2374 25.046 49.2395 25.046 49.2416 25.046C49.2437 25.046 49.2458 25.046 49.2479 25.046C49.25 25.046 49.2521 25.046 49.2542 25.046C49.2563 25.046 49.2584 25.046 49.2605 25.046C49.2626 25.046 49.2646 25.046 49.2667 25.046C49.2688 25.046 49.2709 25.046 49.273 25.046C49.2751 25.046 49.2772 25.046 49.2793 25.046C49.2814 25.046 49.2835 25.046 49.2855 25.046C49.2876 25.046 49.2897 25.046 49.2918 25.046C49.2939 25.046 49.296 25.046 49.2981 25.046C49.3002 25.046 49.3023 25.046 49.3043 25.046C49.3064 25.046 49.3085 25.046 49.3106 25.046C49.3127 25.046 49.3148 25.046 49.3169 25.046C49.3189 25.046 49.321 25.046 49.3231 25.046C49.3252 25.046 49.3273 25.046 49.3294 25.046C49.3314 25.046 49.3335 25.046 49.3356 25.046C49.3377 25.046 49.3398 25.046 49.3419 25.046C49.3439 25.046 49.346 25.046 49.3481 25.046C49.3502 25.046 49.3523 25.046 49.3544 25.046C49.3564 25.046 49.3585 25.046 49.3606 25.046C49.3627 25.046 49.3648 25.046 49.3668 25.046C49.3689 25.046 49.371 25.046 49.3731 25.046C49.3752 25.046 49.3772 25.046 49.3793 25.046C49.3814 25.046 49.3835 25.046 49.3855 25.046C49.3876 25.046 49.3897 25.046 49.3918 25.046C49.3939 25.046 49.3959 25.046 49.398 25.046C49.4001 25.046 49.4022 25.046 49.4042 25.046C49.4063 25.046 49.4084 25.046 49.4105 25.046C49.4125 25.046 49.4146 25.046 49.4167 25.046C49.4188 25.046 49.4208 25.046 49.4229 25.046C49.425 25.046 49.427 25.046 49.4291 25.046C49.4312 25.046 49.4333 25.046 49.4353 25.046C49.4374 25.046 49.4395 25.046 49.4415 25.046C49.4436 25.046 49.4457 25.046 49.4478 25.046C49.4498 25.046 49.4519 25.046 49.454 25.046C49.456 25.046 49.4581 25.046 49.4602 25.046C49.4622 25.046 49.4643 25.046 49.4664 25.046C49.4684 25.046 49.4705 25.046 49.4726 25.046C49.4746 25.046 49.4767 25.046 49.4788 25.046C49.4808 25.046 49.4829 25.046 49.485 25.046C49.487 25.046 49.4891 25.046 49.4912 25.046C49.4932 25.046 49.4953 25.046 49.4974 25.046C49.4994 25.046 49.5015 25.046 49.5036 25.046C49.5056 25.046 49.5077 25.046 49.5097 25.046C49.5118 25.046 49.5139 25.046 49.5159 25.046C49.518 25.046 49.5201 25.046 49.5221 25.046C49.5242 25.046 49.5262 25.046 49.5283 25.046C49.5304 25.046 49.5324 25.046 49.5345 25.046C49.5365 25.046 49.5386 25.046 49.5407 25.046C49.5427 25.046 49.5448 25.046 49.5468 25.046C49.5489 25.046 49.551 25.046 49.553 25.046C49.5551 25.046 49.5571 25.046 49.5592 25.046C49.5612 25.046 49.5633 25.046 49.5654 25.046C49.5674 25.046 49.5695 25.046 49.5715 25.046C49.5736 25.046 49.5756 25.046 49.5777 25.046C49.5797 25.046 49.5818 25.046 49.5838 25.046C49.5859 25.046 49.588 25.046 49.59 25.046C49.5921 25.046 49.5941 25.046 49.5962 25.046C49.5982 25.046 49.6003 25.046 49.6023 25.046C49.6044 25.046 49.6064 25.046 49.6085 25.046C49.6105 25.046 49.6126 25.046 49.6146 25.046C49.6167 25.046 49.6187 25.046 49.6208 25.046C49.6228 25.046 49.6249 25.046 49.6269 25.046C49.629 25.046 49.631 25.046 49.6331 25.046C49.6351 25.046 49.6372 25.046 49.6392 25.046C49.6413 25.046 49.6433 25.046 49.6454 25.046C49.6474 25.046 49.6494 25.046 49.6515 25.046C49.6535 25.046 49.6556 25.046 49.6576 25.046C49.6597 25.046 49.6617 25.046 49.6638 25.046C49.6658 25.046 49.6679 25.046 49.6699 25.046C49.6719 25.046 49.674 25.046 49.676 25.046C49.6781 25.046 49.6801 25.046 49.6822 25.046C49.6842 25.046 49.6862 25.046 49.6883 25.046C49.6903 25.046 49.6924 25.046 49.6944 25.046C49.6964 25.046 49.6985 25.046 49.7005 25.046C49.7026 25.046 49.7046 25.046 49.7066 25.046C49.7087 25.046 49.7107 25.046 49.7128 25.046C49.7148 25.046 49.7168 25.046 49.7189 25.046C49.7209 25.046 49.723 25.046 49.725 25.046C49.727 25.046 49.7291 25.046 49.7311 25.046C49.7331 25.046 49.7352 25.046 49.7372 25.046C49.7392 25.046 49.7413 25.046 49.7433 25.046C49.7453 25.046 49.7474 25.046 49.7494 25.046C49.7515 25.046 49.7535 25.046 49.7555 25.046C49.7576 25.046 49.7596 25.046 49.7616 25.046C49.7637 25.046 49.7657 25.046 49.7677 25.046C49.7697 25.046 49.7718 25.046 49.7738 25.046C49.7758 25.046 49.7779 25.046 49.7799 25.046C49.7819 25.046 49.784 25.046 49.786 25.046C49.788 25.046 49.7901 25.046 49.7921 25.046C49.7941 25.046 49.7961 25.046 49.7982 25.046C49.8002 25.046 49.8022 25.046 49.8043 25.046C49.8063 25.046 49.8083 25.046 49.8103 25.046C49.8124 25.046 49.8144 25.046 49.8164 25.046C49.8184 25.046 49.8205 25.046 49.8225 25.046C49.8245 25.046 49.8265 25.046 49.8286 25.046C49.8306 25.046 49.8326 25.046 49.8346 25.046C49.8367 25.046 49.8387 25.046 49.8407 25.046C49.8427 25.046 49.8448 25.046 49.8468 25.046C49.8488 25.046 49.8508 25.046 49.8528 25.046C49.8549 25.046 49.8569 25.046 49.8589 25.046C49.8609 25.046 49.8629 25.046 49.865 25.046C49.867 25.046 49.869 25.046 49.871 25.046C49.8731 25.046 49.8751 25.046 49.8771 25.046C49.8791 25.046 49.8811 25.046 49.8831 25.046C49.8852 25.046 49.8872 25.046 49.8892 25.046C49.8912 25.046 49.8932 25.046 49.8952 25.046C49.8973 25.046 49.8993 25.046 49.9013 25.046C49.9033 25.046 49.9053 25.046 49.9073 25.046C49.9094 25.046 49.9114 25.046 49.9134 25.046C49.9154 25.046 49.9174 25.046 49.9194 25.046C49.9214 25.046 49.9235 25.046 49.9255 25.046C49.9275 25.046 49.9295 25.046 49.9315 25.046C49.9335 25.046 49.9355 25.046 49.9375 25.046C49.9396 25.046 49.9416 25.046 49.9436 25.046C49.9456 25.046 49.9476 25.046 49.9496 25.046C49.9516 25.046 49.9536 25.046 49.9556 25.046C49.9576 25.046 49.9597 25.046 49.9617 25.046C49.9637 25.046 49.9657 25.046 49.9677 25.046C49.9697 25.046 49.9717 25.046 49.9737 25.046C49.9757 25.046 49.9777 25.046 49.9797 25.046C49.9817 25.046 49.9837 25.046 49.9857 25.046C49.9878 25.046 49.9898 25.046 49.9918 25.046C49.9938 25.046 49.9958 25.046 49.9978 25.046C49.9998 25.046 50.0018 25.046 50.0038 25.046C50.0058 25.046 50.0078 25.046 50.0098 25.046C50.0118 25.046 50.0138 25.046 50.0158 25.046C50.0178 25.046 50.0198 25.046 50.0218 25.046C50.0238 25.046 50.0258 25.046 50.0278 25.046C50.0298 25.046 50.0318 25.046 50.0338 25.046C50.0358 25.046 50.0378 25.046 50.0398 25.046C50.0418 25.046 50.0438 25.046 50.0458 25.046C50.0478 25.046 50.0498 25.046 50.0518 25.046C50.0538 25.046 50.0558 25.046 50.0578 25.046C50.0598 25.046 50.0618 25.046 50.0638 25.046C50.0658 25.046 50.0678 25.046 50.0698 25.046C50.0718 25.046 50.0738 25.046 50.0758 25.046C50.0777 25.046 50.0797 25.046 50.0817 25.046C50.0837 25.046 50.0857 25.046 50.0877 25.046C50.0897 25.046 50.0917 25.046 50.0937 25.046C50.0957 25.046 50.0977 25.046 50.0997 25.046C50.1017 25.046 50.1037 25.046 50.1056 25.046C50.1076 25.046 50.1096 25.046 50.1116 25.046C50.1136 25.046 50.1156 25.046 50.1176 25.046C50.1196 25.046 50.1216 25.046 50.1236 25.046C50.1255 25.046 50.1275 25.046 50.1295 25.046C50.1315 25.046 50.1335 25.046 50.1355 25.046C50.1375 25.046 50.1395 25.046 50.1414 25.046C50.1434 25.046 50.1454 25.046 50.1474 25.046C50.1494 25.046 50.1514 25.046 50.1534 25.046C50.1553 25.046 50.1573 25.046 50.1593 25.046C50.1613 25.046 50.1633 25.046 50.1653 25.046C50.1672 25.046 50.1692 25.046 50.1712 25.046C50.1732 25.046 50.1752 25.046 50.1772 25.046C50.1791 25.046 50.1811 25.046 50.1831 25.046C50.1851 25.046 50.1871 25.046 50.189 25.046C50.191 25.046 50.193 25.046 50.195 25.046C50.197 25.046 50.1989 25.046 50.2009 25.046C50.2029 25.046 50.2049 25.046 50.2069 25.046C50.2088 25.046 50.2108 25.046 50.2128 25.046C50.2148 25.046 50.2168 25.046 50.2187 25.046C50.2207 25.046 50.2227 25.046 50.2247 25.046C50.2266 25.046 50.2286 25.046 50.2306 25.046C50.2326 25.046 50.2345 25.046 50.2365 25.046C50.2385 25.046 50.2405 25.046 50.2424 25.046C50.2444 25.046 50.2464 25.046 50.2484 25.046C50.2503 25.046 50.2523 25.046 50.2543 25.046C50.2563 25.046 50.2582 25.046 50.2602 25.046C50.2622 25.046 50.2641 25.046 50.2661 25.046C50.2681 25.046 50.2701 25.046 50.272 25.046C50.274 25.046 50.276 25.046 50.2779 25.046C50.2799 25.046 50.2819 25.046 50.2838 25.046C50.2858 25.046 50.2878 25.046 50.2897 25.046C50.2917 25.046 50.2937 25.046 50.2957 25.046C50.2976 25.046 50.2996 25.046 50.3016 25.046C50.3035 25.046 50.3055 25.046 50.3075 25.046C50.3094 25.046 50.3114 25.046 50.3134 25.046C50.3153 25.046 50.3173 25.046 50.3192 25.046C50.3212 25.046 50.3232 25.046 50.3251 25.046C50.3271 25.046 50.3291 25.046 50.331 25.046C50.333 25.046 50.335 25.046 50.3369 25.046C50.3389 25.046 50.3408 25.046 50.3428 25.046C50.3448 25.046 50.3467 25.046 50.3487 25.046C50.3506 25.046 50.3526 25.046 50.3546 25.046C50.3565 25.046 50.3585 25.046 50.3604 25.046C50.3624 25.046 50.3644 25.046 50.3663 25.046C50.3683 25.046 50.3702 25.046 50.3722 25.046C50.3742 25.046 50.3761 25.046 50.3781 25.046C50.38 25.046 50.382 25.046 50.3839 25.046C50.3859 25.046 50.3879 25.046 50.3898 25.046C50.3918 25.046 50.3937 25.046 50.3957 25.046C50.3976 25.046 50.3996 25.046 50.4015 25.046C50.4035 25.046 50.4054 25.046 50.4074 25.046C50.4094 25.046 50.4113 25.046 50.4133 25.046C50.4152 25.046 50.4172 25.046 50.4191 25.046C50.4211 25.046 50.423 25.046 50.425 25.046C50.4269 25.046 50.4289 25.046 50.4308 25.046C50.4328 25.046 50.4347 25.046 50.4367 25.046C50.4386 25.046 50.4406 25.046 50.4425 25.046C50.4445 25.046 50.4464 25.046 50.4484 25.046C50.4503 25.046 50.4523 25.046 50.4542 25.046C50.4562 25.046 50.4581 25.046 50.4601 25.046C50.462 25.046 50.464 25.046 50.4659 25.046C50.4678 25.046 50.4698 25.046 50.4717 25.046C50.4737 25.046 50.4756 25.046 50.4776 25.046C50.4795 25.046 50.4815 25.046 50.4834 25.046C50.4854 25.046 50.4873 25.046 50.4892 25.046C50.4912 25.046 50.4931 25.046 50.4951 25.046C50.497 25.046 50.499 25.046 50.5009 25.046C50.5028 25.046 50.5048 25.046 50.5067 25.046C50.5087 25.046 50.5106 25.046 50.5125 25.046C50.5145 25.046 50.5164 25.046 50.5184 25.046C50.5203 25.046 50.5222 25.046 50.5242 25.046C50.5261 25.046 50.5281 25.046 50.53 25.046C50.5319 25.046 50.5339 25.046 50.5358 25.046C50.5377 25.046 50.5397 25.046 50.5416 25.046C50.5436 25.046 50.5455 25.046 50.5474 25.046C50.5494 25.046 50.5513 25.046 50.5532 25.046C50.5552 25.046 50.5571 25.046 50.559 25.046C50.561 25.046 50.5629 25.046 50.5648 25.046C50.5668 25.046 50.5687 25.046 50.5706 25.046C50.5726 25.046 50.5745 25.046 50.5764 25.046C50.5784 25.046 50.5803 25.046 50.5822 25.046C50.5842 25.046 50.5861 25.046 50.588 25.046C50.59 25.046 50.5919 25.046 50.5938 25.046C50.5958 25.046 50.5977 25.046 50.5996 25.046C50.6015 25.046 50.6035 25.046 50.6054 25.046C50.6073 25.046 50.6093 25.046 50.6112 25.046C50.6131 25.046 50.615 25.046 50.617 25.046C50.6189 25.046 50.6208 25.046 50.6227 25.046C50.6247 25.046 50.6266 25.046 50.6285 25.046C50.6305 25.046 50.6324 25.046 50.6343 25.046C50.6362 25.046 50.6382 25.046 50.6401 25.046C50.642 25.046 50.6439 25.046 50.6459 25.046C50.6478 25.046 50.6497 25.046 50.6516 25.046C50.6535 25.046 50.6555 25.046 50.6574 25.046C50.6593 25.046 50.6612 25.046 50.6632 25.046C50.6651 25.046 50.667 25.046 50.6689 25.046C50.6708 25.046 50.6728 25.046 50.6747 25.046C50.6766 25.046 50.6785 25.046 50.6804 25.046C50.6824 25.046 50.6843 25.046 50.6862 25.046C50.6881 25.046 50.69 25.046 50.6919 25.046C50.6939 25.046 50.6958 25.046 50.6977 25.046C50.6996 25.046 50.7015 25.046 50.7034 25.046C50.7054 25.046 50.7073 25.046 50.7092 25.046C50.7111 25.046 50.713 25.046 50.7149 25.046C50.7169 25.046 50.7188 25.046 50.7207 25.046C50.7226 25.046 50.7245 25.046 50.7264 25.046C50.7283 25.046 50.7303 25.046 50.7322 25.046C50.7341 25.046 50.736 25.046 50.7379 25.046C50.7398 25.046 50.7417 25.046 50.7436 25.046C50.7455 25.046 50.7475 25.046 50.7494 25.046C50.7513 25.046 50.7532 25.046 50.7551 25.046C50.757 25.046 50.7589 25.046 50.7608 25.046C50.7627 25.046 50.7646 25.046 50.7666 25.046C50.7685 25.046 50.7704 25.046 50.7723 25.046C50.7742 25.046 50.7761 25.046 50.778 25.046C50.7799 25.046 50.7818 25.046 50.7837 25.046C50.7856 25.046 50.7875 25.046 50.7894 25.046C50.7913 25.046 50.7932 25.046 50.7951 25.046C50.7971 25.046 50.799 25.046 50.8009 25.046C50.8028 25.046 50.8047 25.046 50.8066 25.046C50.8085 25.046 50.8104 25.046 50.8123 25.046C50.8142 25.046 50.8161 25.046 50.818 25.046C50.8199 25.046 50.8218 25.046 50.8237 25.046C50.8256 25.046 50.8275 25.046 50.8294 25.046C50.8313 25.046 50.8332 25.046 50.8351 25.046C50.837 25.046 50.8389 25.046 50.8408 25.046C50.8427 25.046 50.8446 25.046 50.8465 25.046C50.8484 25.046 50.8503 25.046 50.8522 25.046C50.8541 25.046 50.856 25.046 50.8579 25.046C50.8598 25.046 50.8617 25.046 50.8636 25.046C50.8654 25.046 50.8673 25.046 50.8692 25.046C50.8711 25.046 50.873 25.046 50.8749 25.046C50.8768 25.046 50.8787 25.046 50.8806 25.046C50.8825 25.046 50.8844 25.046 50.8863 25.046C50.8882 25.046 50.8901 25.046 50.892 25.046C50.8939 25.046 50.8957 25.046 50.8976 25.046C50.8995 25.046 50.9014 25.046 50.9033 25.046C50.9052 25.046 50.9071 25.046 50.909 25.046C50.9109 25.046 50.9128 25.046 50.9146 25.046C50.9165 25.046 50.9184 25.046 50.9203 25.046C50.9222 25.046 50.9241 25.046 50.926 25.046C50.9279 25.046 50.9298 25.046 50.9316 25.046C50.9335 25.046 50.9354 25.046 50.9373 25.046C50.9392 25.046 50.9411 25.046 50.943 25.046C50.9448 25.046 50.9467 25.046 50.9486 25.046C50.9505 25.046 50.9524 25.046 50.9543 25.046C50.9562 25.046 50.958 25.046 50.9599 25.046C50.9618 25.046 50.9637 25.046 50.9656 25.046C50.9674 25.046 50.9693 25.046 50.9712 25.046C50.9731 25.046 50.975 25.046 50.9769 25.046C50.9787 25.046 50.9806 25.046 50.9825 25.046C50.9844 25.046 50.9863 25.046 50.9881 25.046C50.99 25.046 50.9919 25.046 50.9938 25.046C50.9957 25.046 50.9975 25.046 50.9994 25.046C51.0013 25.046 51.0032 25.046 51.005 25.046C51.0069 25.046 51.0088 25.046 51.0107 25.046C51.0126 25.046 51.0144 25.046 51.0163 25.046C51.0182 25.046 51.0201 25.046 51.0219 25.046C51.0238 25.046 51.0257 25.046 51.0276 25.046C51.0294 25.046 51.0313 25.046 51.0332 25.046C51.0351 25.046 51.0369 25.046 51.0388 25.046C51.0407 25.046 51.0425 25.046 51.0444 25.046C51.0463 25.046 51.0482 25.046 51.05 25.046C51.0519 25.046 51.0538 25.046 51.0556 25.046C51.0575 25.046 51.0594 25.046 51.0613 25.046C51.0631 25.046 51.065 25.046 51.0669 25.046C51.0687 25.046 51.0706 25.046 51.0725 25.046C51.0743 25.046 51.0762 25.046 51.0781 25.046C51.08 25.046 51.0818 25.046 51.0837 25.046C51.0856 25.046 51.0874 25.046 51.0893 25.046C51.0912 25.046 51.093 25.046 51.0949 25.046C51.0967 25.046 51.0986 25.046 51.1005 25.046C51.1023 25.046 51.1042 25.046 51.1061 25.046C51.1079 25.046 51.1098 25.046 51.1117 25.046C51.1135 25.046 51.1154 25.046 51.1173 25.046C51.1191 25.046 51.121 25.046 51.1228 25.046C51.1247 25.046 51.1266 25.046 51.1284 25.046C51.1303 25.046 51.1321 25.046 51.134 25.046C51.1359 25.046 51.1377 25.046 51.1396 25.046C51.1415 25.046 51.1433 25.046 51.1452 25.046C51.147 25.046 51.1489 25.046 51.1507 25.046C51.1526 25.046 51.1545 25.046 51.1563 25.046C51.1582 25.046 51.16 25.046 51.1619 25.046C51.1637 25.046 51.1656 25.046 51.1675 25.046C51.1693 25.046 51.1712 25.046 51.173 25.046C51.1749 25.046 51.1767 25.046 51.1786 25.046C51.1805 25.046 51.1823 25.046 51.1842 25.046C51.186 25.046 51.1879 25.046 51.1897 25.046C51.1916 25.046 51.1934 25.046 51.1953 25.046C51.1971 25.046 51.199 25.046 51.2008 25.046C51.2027 25.046 51.2045 25.046 51.2064 25.046C51.2082 25.046 51.2101 25.046 51.2119 25.046C51.2138 25.046 51.2156 25.046 51.2175 25.046C51.2193 25.046 51.2212 25.046 51.223 25.046C51.2249 25.046 51.2267 25.046 51.2286 25.046C51.2304 25.046 51.2323 25.046 51.2341 25.046C51.236 25.046 51.2378 25.046 51.2397 25.046C51.2415 25.046 51.2434 25.046 51.2452 25.046C51.2471 25.046 51.2489 25.046 51.2507 25.046C51.2526 25.046 51.2544 25.046 51.2563 25.046C51.2581 25.046 51.26 25.046 51.2618 25.046C51.2637 25.046 51.2655 25.046 51.2673 25.046C51.2692 25.046 51.271 25.046 51.2729 25.046C51.2747 25.046 51.2766 25.046 51.2784 25.046C51.2802 25.046 51.2821 25.046 51.2839 25.046C51.2858 25.046 51.2876 25.046 51.2894 25.046C51.2913 25.046 51.2931 25.046 51.295 25.046C51.2968 25.046 51.2986 25.046 51.3005 25.046C51.3023 25.046 51.3042 25.046 51.306 25.046C51.3078 25.046 51.3097 25.046 51.3115 25.046C51.3133 25.046 51.3152 25.046 51.317 25.046C51.3189 25.046 51.3207 25.046 51.3225 25.046C51.3244 25.046 51.3262 25.046 51.328 25.046C51.3299 25.046 51.3317 25.046 51.3335 25.046C51.3354 25.046 51.3372 25.046 51.339 25.046C51.3409 25.046 51.3427 25.046 51.3445 25.046C51.3464 25.046 51.3482 25.046 51.35 25.046C51.3519 25.046 51.3537 25.046 51.3555 25.046C51.3574 25.046 51.3592 25.046 51.361 25.046C51.3628 25.046 51.3647 25.046 51.3665 25.046C51.3683 25.046 51.3702 25.046 51.372 25.046C51.3738 25.046 51.3757 25.046 51.3775 25.046C51.3793 25.046 51.3811 25.046 51.383 25.046C51.3848 25.046 51.3866 25.046 51.3884 25.046C51.3903 25.046 51.3921 25.046 51.3939 25.046C51.3958 25.046 51.3976 25.046 51.3994 25.046C51.4012 25.046 51.4031 25.046 51.4049 25.046C51.4067 25.046 51.4085 25.046 51.4104 25.046C51.4122 25.046 51.414 25.046 51.4158 25.046C51.4176 25.046 51.4195 25.046 51.4213 25.046C51.4231 25.046 51.4249 25.046 51.4268 25.046C51.4286 25.046 51.4304 25.046 51.4322 25.046C51.434 25.046 51.4359 25.046 51.4377 25.046C51.4395 25.046 51.4413 25.046 51.4431 25.046C51.445 25.046 51.4468 25.046 51.4486 25.046C51.4504 25.046 51.4522 25.046 51.4541 25.046C51.4559 25.046 51.4577 25.046 51.4595 25.046C51.4613 25.046 51.4631 25.046 51.465 25.046C51.4668 25.046 51.4686 25.046 51.4704 25.046C51.4722 25.046 51.474 25.046 51.4759 25.046C51.4777 25.046 51.4795 25.046 51.4813 25.046C51.4831 25.046 51.4849 25.046 51.4867 25.046C51.4886 25.046 51.4904 25.046 51.4922 25.046C51.494 25.046 51.4958 25.046 51.4976 25.046C51.4994 25.046 51.5012 25.046 51.5031 25.046C51.5049 25.046 51.5067 25.046 51.5085 25.046C51.5103 25.046 51.5121 25.046 51.5139 25.046C51.5157 25.046 51.5175 25.046 51.5194 25.046C51.5212 25.046 51.523 25.046 51.5248 25.046C51.5266 25.046 51.5284 25.046 51.5302 25.046C51.532 25.046 51.5338 25.046 51.5356 25.046C51.5374 25.046 51.5392 25.046 51.541 25.046C51.5429 25.046 51.5447 25.046 51.5465 25.046C51.5483 25.046 51.5501 25.046 51.5519 25.046C51.5537 25.046 51.5555 25.046 51.5573 25.046C51.5591 25.046 51.5609 25.046 51.5627 25.046C51.5645 25.046 51.5663 25.046 51.5681 25.046C51.5699 25.046 51.5717 25.046 51.5735 25.046C51.5753 25.046 51.5771 25.046 51.5789 25.046C51.5807 25.046 51.5825 25.046 51.5843 25.046C51.5861 25.046 51.5879 25.046 51.5897 25.046C51.5915 25.046 51.5933 25.046 51.5951 25.046C51.5969 25.046 51.5987 25.046 51.6005 25.046C51.6023 25.046 51.6041 25.046 51.6059 25.046C51.6077 25.046 51.6095 25.046 51.6113 25.046C51.6131 25.046 51.6149 25.046 51.6167 25.046C51.6185 25.046 51.6203 25.046 51.6221 25.046C51.6239 25.046 51.6257 25.046 51.6275 25.046C51.6293 25.046 51.6311 25.046 51.6329 25.046C51.6347 25.046 51.6364 25.046 51.6382 25.046C51.64 25.046 51.6418 25.046 51.6436 25.046C51.6454 25.046 51.6472 25.046 51.649 25.046C51.6508 25.046 51.6526 25.046 51.6544 25.046C51.6562 25.046 51.6579 25.046 51.6597 25.046C51.6615 25.046 51.6633 25.046 51.6651 25.046C51.6669 25.046 51.6687 25.046 51.6705 25.046C51.6723 25.046 51.6741 25.046 51.6758 25.046C51.6776 25.046 51.6794 25.046 51.6812 25.046C51.683 25.046 51.6848 25.046 51.6866 25.046C51.6884 25.046 51.6901 25.046 51.6919 25.046C51.6937 25.046 51.6955 25.046 51.6973 25.046C51.6991 25.046 51.7008 25.046 51.7026 25.046C51.7044 25.046 51.7062 25.046 51.708 25.046C51.7098 25.046 51.7116 25.046 51.7133 25.046C51.7151 25.046 51.7169 25.046 51.7187 25.046C51.7205 25.046 51.7222 25.046 51.724 25.046C51.7258 25.046 51.7276 25.046 51.7294 25.046C51.7312 25.046 51.7329 25.046 51.7347 25.046C51.7365 25.046 51.7383 25.046 51.7401 25.046C51.7418 25.046 51.7436 25.046 51.7454 25.046C51.7472 25.046 51.7489 25.046 51.7507 25.046C51.7525 25.046 51.7543 25.046 51.7561 25.046C51.7578 25.046 51.7596 25.046 51.7614 25.046C51.7632 25.046 51.7649 25.046 51.7667 25.046C51.7685 25.046 51.7703 25.046 51.772 25.046C51.7738 25.046 51.7756 25.046 51.7774 25.046C51.7791 25.046 51.7809 25.046 51.7827 25.046C51.7845 25.046 51.7862 25.046 51.788 25.046C51.7898 25.046 51.7915 25.046 51.7933 25.046C51.7951 25.046 51.7969 25.046 51.7986 25.046C51.8004 25.046 51.8022 25.046 51.8039 25.046C51.8057 25.046 51.8075 25.046 51.8093 25.046C51.811 25.046 51.8128 25.046 51.8146 25.046C51.8163 25.046 51.8181 25.046 51.8199 25.046C51.8216 25.046 51.8234 25.046 51.8252 25.046C51.8269 25.046 51.8287 25.046 51.8305 25.046C51.8322 25.046 51.834 25.046 51.8358 25.046C51.8375 25.046 51.8393 25.046 51.8411 25.046C51.8428 25.046 51.8446 25.046 51.8464 25.046C51.8481 25.046 51.8499 25.046 51.8517 25.046C51.8534 25.046 51.8552 25.046 51.857 25.046C51.8587 25.046 51.8605 25.046 51.8622 25.046C51.864 25.046 51.8658 25.046 51.8675 25.046C51.8693 25.046 51.8711 25.046 51.8728 25.046C51.8746 25.046 51.8763 25.046 51.8781 25.046C51.8799 25.046 51.8816 25.046 51.8834 25.046C51.8851 25.046 51.8869 25.046 51.8887 25.046C51.8904 25.046 51.8922 25.046 51.8939 25.046C51.8957 25.046 51.8974 25.046 51.8992 25.046C51.901 25.046 51.9027 25.046 51.9045 25.046C51.9062 25.046 51.908 25.046 51.9097 25.046C51.9115 25.046 51.9132 25.046 51.915 25.046C51.9168 25.046 51.9185 25.046 51.9203 25.046C51.922 25.046 51.9238 25.046 51.9255 25.046C51.9273 25.046 51.929 25.046 51.9308 25.046C51.9325 25.046 51.9343 25.046 51.9361 25.046C51.9378 25.046 51.9396 25.046 51.9413 25.046C51.9431 25.046 51.9448 25.046 51.9466 25.046C51.9483 25.046 51.9501 25.046 51.9518 25.046V21.296ZM48.9758 21.296V17.546H44.3198V21.296V25.046H48.9758V21.296ZM44.3198 21.296V17.546C43.6755 17.546 42.9913 17.5639 42.2694 17.5982L42.4478 21.344L42.6262 25.0898C43.2483 25.0601 43.8122 25.046 44.3198 25.046V21.296ZM42.4478 21.344L42.2605 17.5987C41.8636 17.6185 41.5265 17.5967 41.2403 17.549L40.6238 21.248L40.0073 24.947C40.8731 25.0913 41.752 25.1335 42.6351 25.0893L42.4478 21.344ZM40.6238 21.248L41.4373 17.5873C41.4128 17.5819 41.4221 17.5814 41.4532 17.5964C41.4854 17.612 41.523 17.6356 41.5581 17.6653L39.1358 20.528L36.7135 23.3907C37.631 24.167 38.6916 24.6601 39.8103 24.9087L40.6238 21.248ZM39.1358 20.528L41.6698 17.7637C41.9509 18.0213 42.0807 18.2729 42.1293 18.3897C42.174 18.4968 42.1573 18.5048 42.1391 18.3532L38.4158 18.8L34.6925 19.2468C34.8396 20.472 35.2791 22.0798 36.6018 23.2923L39.1358 20.528ZM38.4158 18.8L42.1489 18.4445C42.136 18.3089 42.1463 18.2872 42.1386 18.3512C42.1307 18.4159 42.0978 18.6212 41.9619 18.893L38.6078 17.216L35.2537 15.539C34.6157 16.8149 34.587 18.1503 34.6827 19.1555L38.4158 18.8ZM38.6078 17.216L41.9619 18.893C41.9074 19.0021 41.8184 19.1425 41.6821 19.2868C41.5442 19.4329 41.3852 19.5537 41.2195 19.6441L39.4238 16.352L37.6281 13.0599C36.5555 13.645 35.7626 14.5212 35.2537 15.539L38.6078 17.216Z" fill="#DD6E24" mask="url(#path-1-outside-1_49_9334)"/>
<path opacity="0.9" d="M45.3215 20.8916C44.9166 20.7427 44.5846 20.4549 44.4388 20.0724C44.1756 19.375 44.6413 18.6302 45.4754 18.4102L46.8035 18.0615C47.6377 17.8415 48.5285 18.2308 48.7917 18.9281C49.0549 19.6255 48.5892 20.3703 47.7551 20.5903L46.4269 20.939C46.0504 21.0372 45.6576 21.0135 45.3215 20.8916Z" fill="white"/>
<path opacity="0.9" d="M13.7205 25.6021C13.6239 25.5897 13.524 25.5681 13.4296 25.5385C12.5149 25.2592 11.9987 24.3114 12.2789 23.4181C12.863 21.5518 13.9102 20.4213 14.0283 20.3013C14.6783 19.6215 15.7761 19.5884 16.4748 20.2281C17.1691 20.8673 17.2153 21.9291 16.5741 22.6101C16.5434 22.641 15.9373 23.3265 15.5905 24.425C15.3406 25.2218 14.5415 25.7079 13.7205 25.6021Z" fill="white"/>
<defs>
<linearGradient id="paint0_linear_49_9334" x1="34" y1="0" x2="34" y2="72" gradientUnits="userSpaceOnUse">
<stop stop-color="#FFC45C"/>
<stop offset="1" stop-color="#FF9F5C"/>
</linearGradient>
</defs>
</svg>
