<svg width="67" height="72" viewBox="0 0 67 72" fill="none" xmlns="http://www.w3.org/2000/svg">
<mask id="path-1-outside-1_49_10384" maskUnits="userSpaceOnUse" x="0" y="11" width="67" height="43" fill="black">
<rect fill="white" y="11" width="67" height="43"/>
<path d="M31.2361 46.592C31.3641 46.816 31.4441 47.056 31.4761 47.312C31.5081 47.536 31.5081 47.76 31.4761 47.984C31.4441 48.432 31.2681 48.832 30.9481 49.184C30.7241 49.44 30.4521 49.68 30.1321 49.904C29.8761 50.064 29.5241 50.144 29.0761 50.144C28.7241 50.144 28.4041 50.08 28.1161 49.952C27.7321 49.792 27.3961 49.584 27.1081 49.328C26.7561 49.136 26.4201 48.896 26.1001 48.608L24.7561 47.456C24.2121 47.968 23.6041 48.4 22.9321 48.752C22.2921 49.104 21.6201 49.392 20.9161 49.616C19.8921 49.936 18.8361 50.112 17.7481 50.144C16.6921 50.208 15.6361 50.112 14.5801 49.856C13.5241 49.6 12.5001 49.2 11.5081 48.656C10.5481 48.112 9.66813 47.408 8.86813 46.544C7.90813 45.552 7.12413 44.416 6.51613 43.136C5.90813 41.824 5.42813 40.464 5.07613 39.056C4.72413 37.648 4.50013 36.224 4.40413 34.784C4.30813 33.344 4.30813 31.984 4.40413 30.704C4.50013 29.488 4.69213 28.176 4.98013 26.768C5.26813 25.328 5.70013 23.952 6.27613 22.64C6.88413 21.328 7.63613 20.16 8.53213 19.136C9.46013 18.112 10.5801 17.408 11.8921 17.024C15.0601 16.032 17.7481 15.856 19.9561 16.496C22.1641 17.104 23.9721 18.208 25.3801 19.808C26.5001 21.088 27.3801 22.592 28.0201 24.32C28.6921 26.048 29.1401 27.856 29.3641 29.744C29.6201 31.632 29.6841 33.536 29.5561 35.456C29.4281 37.344 29.1401 39.104 28.6921 40.736L27.8281 43.04C28.3081 43.488 28.7561 43.904 29.1721 44.288C29.6201 44.64 29.9081 44.896 30.0361 45.056C30.2601 45.28 30.4681 45.52 30.6601 45.776C30.8841 46 31.0761 46.272 31.2361 46.592ZM12.6121 41.6C13.5721 42.848 14.7241 43.6 16.0681 43.856C17.4441 44.08 18.7241 43.84 19.9081 43.136C19.4601 42.688 19.0441 42.288 18.6601 41.936C18.2761 41.584 18.0361 41.344 17.9401 41.216C17.4601 40.736 17.0921 40.16 16.8361 39.488C16.5801 38.976 16.5001 38.496 16.5961 38.048C16.6921 37.536 16.9001 37.104 17.2201 36.752C17.3801 36.624 17.5241 36.512 17.6521 36.416C17.7801 36.288 17.9241 36.176 18.0841 36.08C18.2441 35.984 18.4201 35.92 18.6121 35.888C18.8361 35.856 19.0601 35.84 19.2841 35.84C19.6041 35.84 19.9241 35.952 20.2441 36.176C20.5321 36.336 20.8681 36.544 21.2521 36.8C21.4121 36.96 21.5721 37.12 21.7321 37.28C21.9241 37.408 22.1001 37.552 22.2601 37.712C22.3881 37.84 22.5161 37.968 22.6441 38.096C22.7721 38.192 22.9161 38.304 23.0761 38.432C23.3001 37.376 23.4601 36.256 23.5561 35.072C23.6841 33.888 23.7001 32.704 23.6041 31.52C23.5081 30.304 23.2841 29.12 22.9321 27.968C22.5801 26.784 22.0841 25.68 21.4441 24.656C20.6761 23.44 19.7001 22.624 18.5161 22.208C17.3321 21.76 15.8921 21.952 14.1961 22.784C13.5241 23.136 12.9481 23.648 12.4681 24.32C12.0201 24.96 11.6361 25.696 11.3161 26.528C10.9961 27.328 10.7401 28.16 10.5481 29.024C10.3881 29.888 10.2921 30.704 10.2601 31.472C10.2281 32.304 10.2281 33.184 10.2601 34.112C10.3241 35.008 10.4361 35.92 10.5961 36.848C10.7881 37.744 11.0441 38.608 11.3641 39.44C11.6841 40.24 12.1001 40.96 12.6121 41.6ZM49.3062 50.096C47.8342 50.096 46.4102 49.936 45.0342 49.616C43.6902 49.264 42.4582 48.592 41.3382 47.6C40.9222 47.216 40.5222 46.784 40.1382 46.304C39.7862 45.792 39.5302 45.296 39.3702 44.816C39.2422 44.304 39.2582 43.808 39.4182 43.328C39.5782 42.816 39.9782 42.368 40.6182 41.984C41.0342 41.728 41.4022 41.6 41.7222 41.6C42.0742 41.6 42.3942 41.68 42.6822 41.84C43.0022 42 43.2902 42.224 43.5462 42.512C43.8342 42.768 44.1222 43.024 44.4102 43.28C45.1462 43.888 45.9302 44.288 46.7622 44.48C47.6262 44.672 48.5222 44.768 49.4502 44.768C50.5062 44.768 51.4822 44.512 52.3782 44C53.2742 43.488 54.0262 42.816 54.6342 41.984C55.2742 41.152 55.7382 40.208 56.0262 39.152C56.3142 38.096 56.3782 37.04 56.2182 35.984C55.2902 36.528 54.2342 36.96 53.0502 37.28C51.8662 37.568 50.7302 37.712 49.6422 37.712C47.9142 37.712 46.3462 37.472 44.9382 36.992C43.5622 36.48 42.3782 35.776 41.3862 34.88C40.3942 33.952 39.6262 32.832 39.0822 31.52C38.5382 30.208 38.2662 28.752 38.2662 27.152C38.2662 25.488 38.5542 23.952 39.1302 22.544C39.7062 21.104 40.5222 19.872 41.5782 18.848C42.6342 17.792 43.8982 16.976 45.3702 16.4C46.8422 15.792 48.4742 15.488 50.2662 15.488C52.3142 15.488 54.0262 15.792 55.4022 16.4C56.8102 16.976 58.0902 17.856 59.2422 19.04C60.4262 20.288 61.2902 21.92 61.8342 23.936C62.4102 25.952 62.6982 28.608 62.6982 31.904C62.6982 34.592 62.3942 37.056 61.7862 39.296C61.2102 41.536 60.3622 43.456 59.2422 45.056C58.1222 46.656 56.7142 47.904 55.0182 48.8C53.3542 49.664 51.4502 50.096 49.3062 50.096ZM50.4102 21.296C49.8342 21.264 49.2582 21.296 48.6822 21.392C48.1382 21.456 47.6422 21.568 47.1942 21.728C46.3302 22.08 45.6422 22.656 45.1302 23.456C44.6182 24.224 44.2982 25.072 44.1702 26C44.0422 26.928 44.1062 27.856 44.3622 28.784C44.6502 29.712 45.1462 30.48 45.8502 31.088C46.4582 31.664 47.1782 32.048 48.0102 32.24C48.8422 32.432 49.6742 32.48 50.5062 32.384C51.3702 32.288 52.1862 32.048 52.9542 31.664C53.7222 31.28 54.3622 30.784 54.8742 30.176C55.3862 29.568 55.7222 28.928 55.8822 28.256C56.0742 27.552 56.1062 26.864 55.9782 26.192C55.8822 25.488 55.6582 24.832 55.3062 24.224C54.9542 23.584 54.5222 23.024 54.0102 22.544C53.5622 22.192 53.0182 21.92 52.3782 21.728C51.7702 21.504 51.1142 21.36 50.4102 21.296Z"/>
</mask>
<path d="M31.2361 46.592C31.3641 46.816 31.4441 47.056 31.4761 47.312C31.5081 47.536 31.5081 47.76 31.4761 47.984C31.4441 48.432 31.2681 48.832 30.9481 49.184C30.7241 49.44 30.4521 49.68 30.1321 49.904C29.8761 50.064 29.5241 50.144 29.0761 50.144C28.7241 50.144 28.4041 50.08 28.1161 49.952C27.7321 49.792 27.3961 49.584 27.1081 49.328C26.7561 49.136 26.4201 48.896 26.1001 48.608L24.7561 47.456C24.2121 47.968 23.6041 48.4 22.9321 48.752C22.2921 49.104 21.6201 49.392 20.9161 49.616C19.8921 49.936 18.8361 50.112 17.7481 50.144C16.6921 50.208 15.6361 50.112 14.5801 49.856C13.5241 49.6 12.5001 49.2 11.5081 48.656C10.5481 48.112 9.66813 47.408 8.86813 46.544C7.90813 45.552 7.12413 44.416 6.51613 43.136C5.90813 41.824 5.42813 40.464 5.07613 39.056C4.72413 37.648 4.50013 36.224 4.40413 34.784C4.30813 33.344 4.30813 31.984 4.40413 30.704C4.50013 29.488 4.69213 28.176 4.98013 26.768C5.26813 25.328 5.70013 23.952 6.27613 22.64C6.88413 21.328 7.63613 20.16 8.53213 19.136C9.46013 18.112 10.5801 17.408 11.8921 17.024C15.0601 16.032 17.7481 15.856 19.9561 16.496C22.1641 17.104 23.9721 18.208 25.3801 19.808C26.5001 21.088 27.3801 22.592 28.0201 24.32C28.6921 26.048 29.1401 27.856 29.3641 29.744C29.6201 31.632 29.6841 33.536 29.5561 35.456C29.4281 37.344 29.1401 39.104 28.6921 40.736L27.8281 43.04C28.3081 43.488 28.7561 43.904 29.1721 44.288C29.6201 44.64 29.9081 44.896 30.0361 45.056C30.2601 45.28 30.4681 45.52 30.6601 45.776C30.8841 46 31.0761 46.272 31.2361 46.592ZM12.6121 41.6C13.5721 42.848 14.7241 43.6 16.0681 43.856C17.4441 44.08 18.7241 43.84 19.9081 43.136C19.4601 42.688 19.0441 42.288 18.6601 41.936C18.2761 41.584 18.0361 41.344 17.9401 41.216C17.4601 40.736 17.0921 40.16 16.8361 39.488C16.5801 38.976 16.5001 38.496 16.5961 38.048C16.6921 37.536 16.9001 37.104 17.2201 36.752C17.3801 36.624 17.5241 36.512 17.6521 36.416C17.7801 36.288 17.9241 36.176 18.0841 36.08C18.2441 35.984 18.4201 35.92 18.6121 35.888C18.8361 35.856 19.0601 35.84 19.2841 35.84C19.6041 35.84 19.9241 35.952 20.2441 36.176C20.5321 36.336 20.8681 36.544 21.2521 36.8C21.4121 36.96 21.5721 37.12 21.7321 37.28C21.9241 37.408 22.1001 37.552 22.2601 37.712C22.3881 37.84 22.5161 37.968 22.6441 38.096C22.7721 38.192 22.9161 38.304 23.0761 38.432C23.3001 37.376 23.4601 36.256 23.5561 35.072C23.6841 33.888 23.7001 32.704 23.6041 31.52C23.5081 30.304 23.2841 29.12 22.9321 27.968C22.5801 26.784 22.0841 25.68 21.4441 24.656C20.6761 23.44 19.7001 22.624 18.5161 22.208C17.3321 21.76 15.8921 21.952 14.1961 22.784C13.5241 23.136 12.9481 23.648 12.4681 24.32C12.0201 24.96 11.6361 25.696 11.3161 26.528C10.9961 27.328 10.7401 28.16 10.5481 29.024C10.3881 29.888 10.2921 30.704 10.2601 31.472C10.2281 32.304 10.2281 33.184 10.2601 34.112C10.3241 35.008 10.4361 35.92 10.5961 36.848C10.7881 37.744 11.0441 38.608 11.3641 39.44C11.6841 40.24 12.1001 40.96 12.6121 41.6ZM49.3062 50.096C47.8342 50.096 46.4102 49.936 45.0342 49.616C43.6902 49.264 42.4582 48.592 41.3382 47.6C40.9222 47.216 40.5222 46.784 40.1382 46.304C39.7862 45.792 39.5302 45.296 39.3702 44.816C39.2422 44.304 39.2582 43.808 39.4182 43.328C39.5782 42.816 39.9782 42.368 40.6182 41.984C41.0342 41.728 41.4022 41.6 41.7222 41.6C42.0742 41.6 42.3942 41.68 42.6822 41.84C43.0022 42 43.2902 42.224 43.5462 42.512C43.8342 42.768 44.1222 43.024 44.4102 43.28C45.1462 43.888 45.9302 44.288 46.7622 44.48C47.6262 44.672 48.5222 44.768 49.4502 44.768C50.5062 44.768 51.4822 44.512 52.3782 44C53.2742 43.488 54.0262 42.816 54.6342 41.984C55.2742 41.152 55.7382 40.208 56.0262 39.152C56.3142 38.096 56.3782 37.04 56.2182 35.984C55.2902 36.528 54.2342 36.96 53.0502 37.28C51.8662 37.568 50.7302 37.712 49.6422 37.712C47.9142 37.712 46.3462 37.472 44.9382 36.992C43.5622 36.48 42.3782 35.776 41.3862 34.88C40.3942 33.952 39.6262 32.832 39.0822 31.52C38.5382 30.208 38.2662 28.752 38.2662 27.152C38.2662 25.488 38.5542 23.952 39.1302 22.544C39.7062 21.104 40.5222 19.872 41.5782 18.848C42.6342 17.792 43.8982 16.976 45.3702 16.4C46.8422 15.792 48.4742 15.488 50.2662 15.488C52.3142 15.488 54.0262 15.792 55.4022 16.4C56.8102 16.976 58.0902 17.856 59.2422 19.04C60.4262 20.288 61.2902 21.92 61.8342 23.936C62.4102 25.952 62.6982 28.608 62.6982 31.904C62.6982 34.592 62.3942 37.056 61.7862 39.296C61.2102 41.536 60.3622 43.456 59.2422 45.056C58.1222 46.656 56.7142 47.904 55.0182 48.8C53.3542 49.664 51.4502 50.096 49.3062 50.096ZM50.4102 21.296C49.8342 21.264 49.2582 21.296 48.6822 21.392C48.1382 21.456 47.6422 21.568 47.1942 21.728C46.3302 22.08 45.6422 22.656 45.1302 23.456C44.6182 24.224 44.2982 25.072 44.1702 26C44.0422 26.928 44.1062 27.856 44.3622 28.784C44.6502 29.712 45.1462 30.48 45.8502 31.088C46.4582 31.664 47.1782 32.048 48.0102 32.24C48.8422 32.432 49.6742 32.48 50.5062 32.384C51.3702 32.288 52.1862 32.048 52.9542 31.664C53.7222 31.28 54.3622 30.784 54.8742 30.176C55.3862 29.568 55.7222 28.928 55.8822 28.256C56.0742 27.552 56.1062 26.864 55.9782 26.192C55.8822 25.488 55.6582 24.832 55.3062 24.224C54.9542 23.584 54.5222 23.024 54.0102 22.544C53.5622 22.192 53.0182 21.92 52.3782 21.728C51.7702 21.504 51.1142 21.36 50.4102 21.296Z" fill="url(#paint0_linear_49_10384)"/>
<path d="M31.2361 46.592L27.882 48.2691L27.9286 48.3621L27.9802 48.4525L31.2361 46.592ZM31.4761 47.312L27.7551 47.7771L27.7592 47.8098L27.7638 47.8424L31.4761 47.312ZM31.4761 47.984L27.7638 47.4536L27.7451 47.5847L27.7357 47.7168L31.4761 47.984ZM30.9481 49.184L28.1733 46.6615L28.1494 46.6878L28.126 46.7146L30.9481 49.184ZM30.1321 49.904L32.1196 53.084L32.2025 53.0322L32.2826 52.9761L30.1321 49.904ZM28.1161 49.952L29.6391 46.5252L29.599 46.5074L29.5584 46.4905L28.1161 49.952ZM27.1081 49.328L29.5995 46.5252L29.2796 46.2408L28.9038 46.0359L27.1081 49.328ZM26.1001 48.608L28.6087 45.8206L28.575 45.7903L28.5406 45.7608L26.1001 48.608ZM24.7561 47.456L27.1966 44.6088L24.639 42.4166L22.186 44.7253L24.7561 47.456ZM22.9321 48.752L21.1921 45.4301L21.1583 45.4478L21.1249 45.4662L22.9321 48.752ZM20.9161 49.616L22.0347 53.1953L22.0439 53.1924L22.0531 53.1895L20.9161 49.616ZM17.7481 50.144L17.6379 46.3956L17.5795 46.3973L17.5213 46.4009L17.7481 50.144ZM14.5801 49.856L13.6966 53.5004L14.5801 49.856ZM11.5081 48.656L9.65933 51.9186L9.68208 51.9315L9.705 51.944L11.5081 48.656ZM8.86813 46.544L11.6197 43.9962L11.5916 43.9659L11.5629 43.9362L8.86813 46.544ZM6.51613 43.136L3.11371 44.7127L3.1212 44.7289L3.12884 44.745L6.51613 43.136ZM5.07613 39.056L1.43809 39.9655L5.07613 39.056ZM4.40413 34.784L8.14582 34.5346L4.40413 34.784ZM4.40413 30.704L0.665759 30.4089L0.66518 30.4162L0.664629 30.4235L4.40413 30.704ZM4.98013 26.768L8.65406 27.5195L8.6557 27.5115L8.6573 27.5034L4.98013 26.768ZM6.27613 22.64L2.87371 21.0633L2.85774 21.0977L2.84246 21.1325L6.27613 22.64ZM8.53213 19.136L5.75343 16.6178L5.73148 16.642L5.70996 16.6666L8.53213 19.136ZM11.8921 17.024L12.9455 20.623L12.9792 20.6131L13.0127 20.6027L11.8921 17.024ZM19.9561 16.496L18.9121 20.0977L18.9363 20.1048L18.9606 20.1114L19.9561 16.496ZM25.3801 19.808L28.2023 17.3386L28.1953 17.3306L25.3801 19.808ZM28.0201 24.32L24.5036 25.6224L24.5141 25.6509L24.5251 25.6792L28.0201 24.32ZM29.3641 29.744L25.6402 30.1858L25.6439 30.2169L25.6481 30.2479L29.3641 29.744ZM29.5561 35.456L33.2975 35.7097L33.2978 35.7054L29.5561 35.456ZM28.6921 40.736L32.2034 42.0527L32.2632 41.8931L32.3083 41.7287L28.6921 40.736ZM27.8281 43.04L24.3169 41.7233L23.4366 44.0708L25.2694 45.7815L27.8281 43.04ZM29.1721 44.288L26.6286 47.0435L26.7381 47.1446L26.8553 47.2367L29.1721 44.288ZM30.0361 45.056L27.1079 47.3986L27.2376 47.5608L27.3845 47.7076L30.0361 45.056ZM30.6601 45.776L27.6601 48.026L27.82 48.2392L28.0085 48.4276L30.6601 45.776ZM12.6121 41.6L15.5845 39.3136L15.5627 39.2853L15.5404 39.2574L12.6121 41.6ZM16.0681 43.856L15.3665 47.5398L15.4159 47.5492L15.4656 47.5573L16.0681 43.856ZM19.9081 43.136L21.8247 46.3593L25.9699 43.8945L22.5598 40.4843L19.9081 43.136ZM18.6601 41.936L21.1941 39.1717H21.1941L18.6601 41.936ZM17.9401 41.216L20.9401 38.966L20.7802 38.7528L20.5918 38.5644L17.9401 41.216ZM16.8361 39.488L20.3405 38.153L20.2739 37.9782L20.1902 37.8109L16.8361 39.488ZM16.5961 38.048L20.2629 38.8337L20.273 38.7865L20.2819 38.7391L16.5961 38.048ZM17.2201 36.752L14.8775 33.8237L14.6454 34.0095L14.4453 34.2295L17.2201 36.752ZM17.6521 36.416L19.9021 39.416L20.1153 39.2561L20.3038 39.0677L17.6521 36.416ZM18.0841 36.08L16.1548 32.8644L16.1548 32.8644L18.0841 36.08ZM18.6121 35.888L18.0818 32.1757L18.0386 32.1819L17.9956 32.189L18.6121 35.888ZM20.2441 36.176L18.0936 39.2481L18.253 39.3596L18.423 39.4541L20.2441 36.176ZM21.2521 36.8L23.9038 34.1483L23.6412 33.8858L23.3323 33.6798L21.2521 36.8ZM21.7321 37.28L19.0805 39.9317L19.343 40.1942L19.652 40.4002L21.7321 37.28ZM22.2601 37.712L24.9118 35.0604L24.9118 35.0603L22.2601 37.712ZM22.6441 38.096L19.9925 40.7477L20.1809 40.9361L20.3941 41.096L22.6441 38.096ZM23.0761 38.432L20.7335 41.3603L25.4825 45.1595L26.7445 39.2101L23.0761 38.432ZM23.5561 35.072L19.8279 34.6689L19.8225 34.7189L19.8184 34.7689L23.5561 35.072ZM23.6041 31.52L19.8658 31.8151L19.8664 31.8231L23.6041 31.52ZM22.9321 27.968L19.3376 29.0366L19.3417 29.0502L19.3458 29.0638L22.9321 27.968ZM21.4441 24.656L24.6241 22.6685L24.6194 22.661L24.6147 22.6535L21.4441 24.656ZM18.5161 22.208L17.189 25.7153L17.2309 25.7311L17.2731 25.746L18.5161 22.208ZM14.1961 22.784L12.5445 19.4173L12.5 19.4391L12.4561 19.4621L14.1961 22.784ZM12.4681 24.32L9.41662 22.1404L9.40625 22.1549L9.39601 22.1695L12.4681 24.32ZM11.3161 26.528L14.7979 27.9207L14.8072 27.8975L14.8162 27.8742L11.3161 26.528ZM10.5481 29.024L6.88742 28.2105L6.87296 28.2756L6.86082 28.3412L10.5481 29.024ZM10.2601 31.472L6.51336 31.3159L6.5129 31.3279L10.2601 31.472ZM10.2601 34.112L6.51235 34.2412L6.51473 34.3103L6.51966 34.3792L10.2601 34.112ZM10.5961 36.848L6.90065 37.4851L6.91351 37.5597L6.92937 37.6337L10.5961 36.848ZM11.3641 39.44L7.86408 40.7862L7.87305 40.8095L7.88234 40.8327L11.3641 39.44ZM31.2361 46.592L27.9802 48.4525C27.8626 48.2467 27.7845 48.0124 27.7551 47.7771L31.4761 47.312L35.1972 46.8469C35.1038 46.0996 34.8657 45.3853 34.492 44.7315L31.2361 46.592ZM31.4761 47.312L27.7638 47.8424C27.7456 47.7146 27.7456 47.5814 27.7638 47.4536L31.4761 47.984L35.1884 48.5144C35.2707 47.9386 35.2707 47.3574 35.1884 46.7816L31.4761 47.312ZM31.4761 47.984L27.7357 47.7168C27.7494 47.524 27.7977 47.3143 27.8877 47.1097C27.9766 46.9076 28.085 46.7587 28.1733 46.6615L30.9481 49.184L33.7229 51.7065C34.5727 50.7718 35.121 49.5897 35.2166 48.2512L31.4761 47.984ZM30.9481 49.184L28.126 46.7146C28.1276 46.7128 28.09 46.756 27.9816 46.8319L30.1321 49.904L32.2826 52.9761C32.8142 52.604 33.3207 52.1672 33.7703 51.6534L30.9481 49.184ZM30.1321 49.904L28.1446 46.724C28.4346 46.5428 28.6895 46.4626 28.845 46.4273C28.9978 46.3925 29.0845 46.394 29.0761 46.394V50.144V53.894C29.9085 53.894 31.0455 53.7553 32.1196 53.084L30.1321 49.904ZM29.0761 50.144V46.394C29.1873 46.394 29.3945 46.4165 29.6391 46.5252L28.1161 49.952L26.5931 53.3788C27.4138 53.7435 28.261 53.894 29.0761 53.894V50.144ZM28.1161 49.952L29.5584 46.4905C29.541 46.4832 29.5397 46.4812 29.55 46.4875C29.5606 46.4941 29.5783 46.5064 29.5995 46.5252L27.1081 49.328L24.6168 52.1308C25.2393 52.6842 25.9366 53.1064 26.6738 53.4135L28.1161 49.952ZM27.1081 49.328L28.9038 46.0359C28.8264 45.9937 28.7275 45.9275 28.6087 45.8206L26.1001 48.608L23.5915 51.3954C24.1128 51.8645 24.6858 52.2783 25.3124 52.6201L27.1081 49.328ZM26.1001 48.608L28.5406 45.7608L27.1966 44.6088L24.7561 47.456L22.3157 50.3032L23.6597 51.4552L26.1001 48.608ZM24.7561 47.456L22.186 44.7253C21.8944 44.9997 21.5665 45.234 21.1921 45.4301L22.9321 48.752L24.6722 52.0739C25.6417 51.566 26.5299 50.9363 27.3262 50.1867L24.7561 47.456ZM22.9321 48.752L21.1249 45.4662C20.7009 45.6994 20.2536 45.8916 19.7791 46.0425L20.9161 49.616L22.0531 53.1895C22.9867 52.8924 23.8834 52.5086 24.7393 52.0378L22.9321 48.752ZM20.9161 49.616L19.7976 46.0367C19.1052 46.2531 18.3887 46.3735 17.6379 46.3956L17.7481 50.144L17.8584 53.8924C19.2836 53.8505 20.6791 53.6189 22.0347 53.1953L20.9161 49.616ZM17.7481 50.144L17.5213 46.4009C16.8483 46.4417 16.1664 46.3819 15.4636 46.2116L14.5801 49.856L13.6966 53.5004C15.1058 53.8421 16.5359 53.9743 17.975 53.8871L17.7481 50.144ZM14.5801 49.856L15.4636 46.2116C14.7415 46.0365 14.0257 45.7598 13.3112 45.368L11.5081 48.656L9.705 51.944C10.9746 52.6403 12.3067 53.1635 13.6966 53.5004L14.5801 49.856ZM11.5081 48.656L13.3569 45.3934C12.7547 45.0522 12.175 44.5959 11.6197 43.9962L8.86813 46.544L6.11652 49.0918C7.16123 50.2201 8.34153 51.1718 9.65933 51.9186L11.5081 48.656ZM8.86813 46.544L11.5629 43.9362C10.894 43.245 10.3411 42.4485 9.90342 41.527L6.51613 43.136L3.12884 44.745C3.90712 46.3835 4.92222 47.859 6.17337 49.1518L8.86813 46.544ZM6.51613 43.136L9.91854 41.5593C9.4103 40.4625 9.00904 39.326 8.71416 38.1465L5.07613 39.056L1.43809 39.9655C1.84721 41.602 2.40595 43.1855 3.11371 44.7127L6.51613 43.136ZM5.07613 39.056L8.71416 38.1465C8.41598 36.9538 8.22689 35.7506 8.14582 34.5346L4.40413 34.784L0.662433 35.0334C0.773361 36.6974 1.03227 38.3422 1.43809 39.9655L5.07613 39.056ZM4.40413 34.784L8.14582 34.5346C8.06016 33.2497 8.06236 32.068 8.14362 30.9845L4.40413 30.704L0.664629 30.4235C0.553893 31.9 0.556091 33.4383 0.662433 35.0334L4.40413 34.784ZM4.40413 30.704L8.14249 30.9991C8.22449 29.9606 8.39161 28.8026 8.65406 27.5195L4.98013 26.768L1.3062 26.0165C0.992644 27.5494 0.775765 29.0154 0.665759 30.4089L4.40413 30.704ZM4.98013 26.768L8.6573 27.5034C8.89355 26.3222 9.24526 25.2056 9.70979 24.1475L6.27613 22.64L2.84246 21.1325C2.15499 22.6984 1.6427 24.3338 1.30295 26.0326L4.98013 26.768ZM6.27613 22.64L9.67854 24.2167C10.146 23.2081 10.7075 22.3446 11.3543 21.6054L8.53213 19.136L5.70996 16.6666C4.56479 17.9754 3.62229 19.4479 2.87371 21.0633L6.27613 22.64ZM8.53213 19.136L11.3108 21.6542C11.7797 21.1368 12.3049 20.8105 12.9455 20.623L11.8921 17.024L10.8388 13.425C8.85538 14.0055 7.14051 15.0872 5.75343 16.6178L8.53213 19.136ZM11.8921 17.024L13.0127 20.6027C15.7744 19.7379 17.6616 19.7353 18.9121 20.0977L19.9561 16.496L21.0001 12.8943C17.8346 11.9767 14.3458 12.3261 10.7715 13.4453L11.8921 17.024ZM19.9561 16.496L18.9606 20.1114C20.5191 20.5406 21.676 21.2752 22.565 22.2854L25.3801 19.808L28.1953 17.3306C26.2683 15.1408 23.8092 13.6674 20.9517 12.8806L19.9561 16.496ZM25.3801 19.808L22.558 22.2774C23.3532 23.1863 24.0088 24.2866 24.5036 25.6224L28.0201 24.32L31.5367 23.0176C30.7514 20.8974 29.647 18.9897 28.2023 17.3386L25.3801 19.808ZM28.0201 24.32L24.5251 25.6792C25.0795 27.1048 25.4526 28.604 25.6402 30.1858L29.3641 29.744L33.088 29.3022C32.8277 27.108 32.3047 24.9912 31.5151 22.9608L28.0201 24.32ZM29.3641 29.744L25.6481 30.2479C25.8699 31.8838 25.9258 33.5354 25.8144 35.2066L29.5561 35.456L33.2978 35.7054C33.4424 33.5366 33.3703 31.3802 33.0801 29.2401L29.3641 29.744ZM29.5561 35.456L25.8147 35.2023C25.7017 36.8693 25.4504 38.3792 25.0759 39.7433L28.6921 40.736L32.3083 41.7287C32.8299 39.8288 33.1546 37.8187 33.2975 35.7097L29.5561 35.456ZM28.6921 40.736L25.1809 39.4193L24.3169 41.7233L27.8281 43.04L31.3394 44.3567L32.2034 42.0527L28.6921 40.736ZM27.8281 43.04L25.2694 45.7815C25.7537 46.2334 26.2068 46.6542 26.6286 47.0435L29.1721 44.288L31.7157 41.5325C31.3055 41.1538 30.8626 40.7426 30.3868 40.2985L27.8281 43.04ZM29.1721 44.288L26.8553 47.2367C27.0449 47.3857 27.1652 47.4868 27.2328 47.5468C27.2656 47.576 27.2714 47.5826 27.2585 47.5697C27.2513 47.5624 27.2347 47.5456 27.2113 47.52C27.1886 47.4951 27.1523 47.4541 27.1079 47.3986L30.0361 45.056L32.9644 42.7134C32.5259 42.1652 31.8977 41.6604 31.489 41.3393L29.1721 44.288ZM30.0361 45.056L27.3845 47.7076C27.4817 47.8049 27.5735 47.9105 27.6601 48.026L30.6601 45.776L33.6601 43.526C33.3627 43.1295 33.0385 42.7551 32.6878 42.4044L30.0361 45.056ZM30.6601 45.776L28.0085 48.4276C27.9132 48.3324 27.8793 48.2635 27.882 48.2691L31.2361 46.592L34.5902 44.915C34.273 44.2805 33.855 43.6676 33.3118 43.1244L30.6601 45.776ZM12.6121 41.6L9.63979 43.8864C11.0699 45.7456 12.9848 47.0861 15.3665 47.5398L16.0681 43.856L16.7698 40.1722C16.4635 40.1139 16.0743 39.9504 15.5845 39.3136L12.6121 41.6ZM16.0681 43.856L15.4656 47.5573C17.6999 47.921 19.8733 47.5195 21.8247 46.3593L19.9081 43.136L17.9916 39.9127C17.575 40.1605 17.1884 40.239 16.6707 40.1547L16.0681 43.856ZM19.9081 43.136L22.5598 40.4843C22.0812 40.0058 21.6256 39.5672 21.1941 39.1717L18.6601 41.936L16.1262 44.7003C16.4627 45.0088 16.839 45.3702 17.2565 45.7877L19.9081 43.136ZM18.6601 41.936L21.1941 39.1717C21.0234 39.0152 20.9109 38.9074 20.8438 38.8403C20.8107 38.8072 20.8013 38.7967 20.8084 38.8045C20.8126 38.8091 20.8259 38.8237 20.8456 38.847C20.8643 38.869 20.898 38.9098 20.9401 38.966L17.9401 41.216L14.9401 43.466C15.2842 43.9248 15.8016 44.4028 16.1262 44.7003L18.6601 41.936ZM17.9401 41.216L20.5918 38.5644C20.5076 38.4802 20.4196 38.3608 20.3405 38.153L16.8361 39.488L13.3318 40.823C13.7646 41.9592 14.4126 42.9918 15.2885 43.8676L17.9401 41.216ZM16.8361 39.488L20.1902 37.8109C20.2007 37.832 20.2519 37.9405 20.2831 38.1275C20.3158 38.3236 20.3197 38.5684 20.2629 38.8337L16.5961 38.048L12.9294 37.2623C12.6142 38.7331 12.9424 40.0858 13.482 41.1651L16.8361 39.488ZM16.5961 38.048L20.2819 38.7391C20.2743 38.7794 20.2537 38.8613 20.2029 38.9668C20.1511 39.0744 20.0803 39.1805 19.9949 39.2745L17.2201 36.752L14.4453 34.2295C13.6139 35.1441 13.1218 36.229 12.9104 37.3569L16.5961 38.048ZM17.2201 36.752L19.5627 39.6803C19.7002 39.5703 19.8126 39.4832 19.9021 39.416L17.6521 36.416L15.4021 33.416C15.2357 33.5408 15.06 33.6777 14.8775 33.8237L17.2201 36.752ZM17.6521 36.416L20.3038 39.0677C20.2084 39.1631 20.1083 39.2387 20.0135 39.2956L18.0841 36.08L16.1548 32.8644C15.74 33.1133 15.3519 33.4129 15.0005 33.7643L17.6521 36.416ZM18.0841 36.08L20.0135 39.2956C19.7527 39.4521 19.4803 39.545 19.2286 39.587L18.6121 35.888L17.9956 32.189C17.3599 32.295 16.7355 32.5159 16.1548 32.8644L18.0841 36.08ZM18.6121 35.888L19.1425 39.6003C19.1926 39.5932 19.2394 39.59 19.2841 39.59V35.84V32.09C18.8809 32.09 18.4797 32.1189 18.0818 32.1757L18.6121 35.888ZM19.2841 35.84V39.59C18.6788 39.59 18.2628 39.3665 18.0936 39.2481L20.2441 36.176L22.3946 33.1039C21.5854 32.5375 20.5295 32.09 19.2841 32.09V35.84ZM20.2441 36.176L18.423 39.4541C18.5955 39.5499 18.8417 39.7 19.172 39.9202L21.2521 36.8L23.3323 33.6798C22.8946 33.388 22.4688 33.1221 22.0653 32.8979L20.2441 36.176ZM21.2521 36.8L18.6005 39.4517C18.7605 39.6117 18.9205 39.7717 19.0805 39.9317L21.7321 37.28L24.3838 34.6283C24.2238 34.4683 24.0638 34.3083 23.9038 34.1483L21.2521 36.8ZM21.7321 37.28L19.652 40.4002C19.6426 40.3939 19.6265 40.3817 19.6085 40.3637L22.2601 37.712L24.9118 35.0603C24.5737 34.7223 24.2056 34.4221 23.8123 34.1598L21.7321 37.28ZM22.2601 37.712L19.6085 40.3636C19.7365 40.4916 19.8645 40.6197 19.9925 40.7477L22.6441 38.096L25.2958 35.4443C25.1678 35.3163 25.0398 35.1884 24.9118 35.0604L22.2601 37.712ZM22.6441 38.096L20.3941 41.096C20.4837 41.1632 20.596 41.2503 20.7335 41.3603L23.0761 38.432L25.4187 35.5037C25.2362 35.3577 25.0606 35.2208 24.8941 35.096L22.6441 38.096ZM23.0761 38.432L26.7445 39.2101C27.0049 37.9828 27.1862 36.7031 27.2939 35.3751L23.5561 35.072L19.8184 34.7689C19.7341 35.8089 19.5954 36.7692 19.4077 37.6539L23.0761 38.432ZM23.5561 35.072L27.2844 35.4751C27.4377 34.0571 27.457 32.6367 27.3419 31.2169L23.6041 31.52L19.8664 31.8231C19.9433 32.7713 19.9306 33.7189 19.8279 34.6689L23.5561 35.072ZM23.6041 31.52L27.3425 31.2249C27.2253 29.7407 26.9511 28.288 26.5184 26.8722L22.9321 27.968L19.3458 29.0638C19.6172 29.952 19.7909 30.8673 19.8658 31.8151L23.6041 31.52ZM22.9321 27.968L26.5266 26.8994C26.0807 25.3993 25.4471 23.9853 24.6241 22.6685L21.4441 24.656L18.2641 26.6435C18.7212 27.3747 19.0796 28.1687 19.3376 29.0366L22.9321 27.968ZM21.4441 24.656L24.6147 22.6535C23.4647 20.8327 21.8545 19.4062 19.7592 18.67L18.5161 22.208L17.2731 25.746C17.5457 25.8418 17.8875 26.0473 18.2735 26.6585L21.4441 24.656ZM18.5161 22.208L19.8432 18.7007C17.2978 17.7375 14.713 18.3535 12.5445 19.4173L14.1961 22.784L15.8477 26.1507C17.0713 25.5505 17.3665 25.7825 17.189 25.7153L18.5161 22.208ZM14.1961 22.784L12.4561 19.4621C11.2184 20.1104 10.2074 21.0333 9.41662 22.1404L12.4681 24.32L15.5196 26.4996C15.6889 26.2627 15.8298 26.1616 15.9361 26.1059L14.1961 22.784ZM12.4681 24.32L9.39601 22.1695C8.75068 23.0914 8.23044 24.1045 7.81608 25.1818L11.3161 26.528L14.8162 27.8742C15.0418 27.2875 15.2896 26.8286 15.5402 26.4705L12.4681 24.32ZM11.3161 26.528L7.83434 25.1353C7.43715 26.1283 7.12214 27.1543 6.88742 28.2105L10.5481 29.024L14.2088 29.8375C14.3581 29.1657 14.5551 28.5277 14.7979 27.9207L11.3161 26.528ZM10.5481 29.024L6.86082 28.3412C6.67307 29.355 6.5537 30.3482 6.51338 31.3159L10.2601 31.472L14.0069 31.6281C14.0306 31.0598 14.1032 30.421 14.2354 29.7068L10.5481 29.024ZM10.2601 31.472L6.5129 31.3279C6.47702 32.2606 6.47756 33.2323 6.51235 34.2412L10.2601 34.112L14.0079 33.9828C13.9787 33.1357 13.9792 32.3474 14.0074 31.6161L10.2601 31.472ZM10.2601 34.112L6.51966 34.3792C6.59293 35.405 6.72054 36.4405 6.90065 37.4851L10.5961 36.848L14.2916 36.2108C14.1517 35.3995 14.0553 34.611 14.0006 33.8448L10.2601 34.112ZM10.5961 36.848L6.92937 37.6337C7.16113 38.7153 7.47208 39.767 7.86408 40.7862L11.3641 39.44L14.8642 38.0938C14.6162 37.449 14.4151 36.7727 14.2629 36.0623L10.5961 36.848ZM11.3641 39.44L7.88234 40.8327C8.33214 41.9572 8.93014 43.0005 9.68387 43.9426L12.6121 41.6L15.5404 39.2574C15.2701 38.9195 15.0361 38.5228 14.8459 38.0473L11.3641 39.44ZM45.0342 49.616L44.0842 53.2436L44.1343 53.2568L44.1848 53.2685L45.0342 49.616ZM41.3382 47.6L38.7947 50.3555L38.823 50.3817L38.8519 50.4072L41.3382 47.6ZM40.1382 46.304L37.0481 48.4285L37.1251 48.5405L37.21 48.6466L40.1382 46.304ZM39.3702 44.816L35.7322 45.7255L35.7671 45.8652L35.8127 46.0019L39.3702 44.816ZM39.4182 43.328L42.9758 44.5139L42.987 44.4803L42.9975 44.4465L39.4182 43.328ZM40.6182 41.984L42.5476 45.1996L42.5657 45.1888L42.5836 45.1777L40.6182 41.984ZM42.6822 41.84L40.8611 45.1181L40.9323 45.1577L41.0052 45.1941L42.6822 41.84ZM43.5462 42.512L40.7435 45.0034L40.89 45.1682L41.0549 45.3148L43.5462 42.512ZM44.4102 43.28L41.9189 46.0828L41.9696 46.1279L42.0219 46.1711L44.4102 43.28ZM46.7622 44.48L45.919 48.134L45.9339 48.1374L45.9488 48.1407L46.7622 44.48ZM52.3783 44L54.2388 47.2559L52.3783 44ZM54.6342 41.984L51.6619 39.6976L51.6338 39.7342L51.6065 39.7714L54.6342 41.984ZM56.0262 39.152L52.4084 38.1653L56.0262 39.152ZM56.2183 35.984L59.9259 35.4222L59.0968 29.9498L54.3218 32.7489L56.2183 35.984ZM53.0502 37.28L53.9366 40.9238L53.9828 40.9125L54.0287 40.9001L53.0502 37.28ZM44.9382 36.992L43.6305 40.5066L43.6791 40.5247L43.7282 40.5414L44.9382 36.992ZM41.3862 34.88L38.8244 37.6185L38.8483 37.6409L38.8727 37.6629L41.3862 34.88ZM39.0822 31.52L42.5463 30.0837L39.0822 31.52ZM39.1302 22.544L42.6011 23.9639L42.6066 23.9503L42.612 23.9367L39.1302 22.544ZM41.5782 18.848L44.1888 21.5401L44.2095 21.52L44.2299 21.4997L41.5782 18.848ZM45.3702 16.4L46.7367 19.8922L46.7694 19.8794L46.8018 19.866L45.3702 16.4ZM55.4022 16.4L53.8866 19.8301L53.9342 19.8511L53.9824 19.8708L55.4022 16.4ZM59.2422 19.04L61.9627 16.459L61.9465 16.4419L61.93 16.4249L59.2422 19.04ZM61.8342 23.936L58.2137 24.913L58.2209 24.9396L58.2285 24.9662L61.8342 23.936ZM61.7862 39.296L58.1672 38.3137L58.1606 38.3378L58.1544 38.3621L61.7862 39.296ZM59.2422 45.056L56.1701 42.9055L59.2422 45.056ZM55.0182 48.8L56.7463 52.1281L56.7582 52.122L56.77 52.1157L55.0182 48.8ZM50.4102 21.296L50.7498 17.5614L50.6841 17.5554L50.6183 17.5518L50.4102 21.296ZM48.6822 21.392L49.1204 25.1163L49.2099 25.1058L49.2987 25.091L48.6822 21.392ZM47.1942 21.728L45.933 18.1965L45.8555 18.2241L45.7794 18.2552L47.1942 21.728ZM45.1302 23.456L48.2504 25.5361L48.2699 25.507L48.2888 25.4775L45.1302 23.456ZM44.1702 26L40.4554 25.4876L44.1702 26ZM44.3622 28.784L40.7473 29.7812L40.7631 29.8386L40.7808 29.8955L44.3622 28.784ZM45.8503 31.088L48.4293 28.3657L48.3666 28.3063L48.3013 28.2499L45.8503 31.088ZM48.0103 32.24L47.167 35.894H47.167L48.0103 32.24ZM50.5062 32.384L50.0921 28.6569L50.0843 28.6578L50.0764 28.6587L50.5062 32.384ZM52.9542 31.664L51.2772 28.3099L51.2772 28.3099L52.9542 31.664ZM55.8822 28.256L52.2644 27.2693L52.2483 27.3281L52.2342 27.3874L55.8822 28.256ZM55.9782 26.192L52.2626 26.6987L52.276 26.7966L52.2945 26.8937L55.9782 26.192ZM55.3062 24.224L52.0204 26.0312L52.0403 26.0673L52.0609 26.1029L55.3062 24.224ZM54.0103 22.544L56.575 19.8082L56.4557 19.6964L56.3271 19.5953L54.0103 22.544ZM52.3783 21.728L51.0819 25.2468L51.1901 25.2867L51.3007 25.3198L52.3783 21.728ZM49.3062 50.096V46.346C48.1082 46.346 46.9697 46.216 45.8837 45.9635L45.0342 49.616L44.1848 53.2685C45.8508 53.656 47.5603 53.846 49.3062 53.846V50.096ZM45.0342 49.616L45.9843 45.9884C45.2529 45.7968 44.5387 45.4252 43.8246 44.7928L41.3382 47.6L38.8519 50.4072C40.3778 51.7588 42.1276 52.7312 44.0842 53.2436L45.0342 49.616ZM41.3382 47.6L43.8818 44.8445C43.6154 44.5986 43.3427 44.3067 43.0665 43.9614L40.1382 46.304L37.21 48.6466C37.7018 49.2613 38.2291 49.8334 38.7947 50.3555L41.3382 47.6ZM40.1382 46.304L43.2284 44.1795C43.032 43.8938 42.9548 43.7113 42.9278 43.6301L39.3702 44.816L35.8127 46.0019C36.1057 46.8807 36.5405 47.6902 37.0481 48.4285L40.1382 46.304ZM39.3702 44.816L43.0083 43.9065C43.0231 43.9659 43.0382 44.0607 43.0343 44.1809C43.0304 44.3023 43.0082 44.4167 42.9758 44.5139L39.4182 43.328L35.8607 42.1421C35.4652 43.3287 35.4391 44.553 35.7322 45.7255L39.3702 44.816ZM39.4182 43.328L42.9975 44.4465C42.7922 45.1038 42.3875 45.2957 42.5476 45.1996L40.6182 41.984L38.6889 38.7684C37.569 39.4403 36.3643 40.5282 35.839 42.2095L39.4182 43.328ZM40.6182 41.984L42.5836 45.1777C42.6159 45.1578 42.5655 45.1936 42.4382 45.2379C42.3094 45.2827 42.0616 45.35 41.7222 45.35V41.6V37.85C40.4342 37.85 39.3722 38.3476 38.6529 38.7903L40.6182 41.984ZM41.7222 41.6V45.35C41.482 45.35 41.1682 45.2887 40.8611 45.1181L42.6822 41.84L44.5034 38.5619C43.6203 38.0713 42.6665 37.85 41.7222 37.85V41.6ZM42.6822 41.84L41.0052 45.1941C40.8666 45.1248 40.7798 45.0442 40.7435 45.0034L43.5462 42.512L46.349 40.0206C45.8007 39.4038 45.1379 38.8752 44.3593 38.4859L42.6822 41.84ZM43.5462 42.512L41.0549 45.3148C41.1505 45.3998 41.3912 45.6138 41.4869 45.6988C41.5199 45.7281 41.5079 45.7175 41.5409 45.7468C41.5739 45.7761 41.5619 45.7655 41.5949 45.7948C41.6279 45.8241 41.6159 45.8135 41.6489 45.8428C41.6819 45.8721 41.6699 45.8615 41.7029 45.8908C41.7359 45.9201 41.7239 45.9095 41.7569 45.9388C41.7899 45.9681 41.7779 45.9575 41.8109 45.9868C41.8439 46.0161 41.8319 46.0055 41.8649 46.0348C41.8668 46.0365 41.8765 46.0451 41.8784 46.0468C41.8793 46.0476 41.8842 46.052 41.8851 46.0528C41.8955 46.062 41.8816 46.0496 41.8919 46.0588C41.9005 46.0665 41.8968 46.0631 41.9054 46.0708C41.9073 46.0725 41.917 46.0811 41.9189 46.0828L44.4102 43.28L46.9016 40.4772C46.6147 40.2222 46.9726 40.5403 46.6856 40.2852C46.3987 40.0302 46.7566 40.3483 46.4696 40.0932C46.374 40.0082 46.4573 40.0822 46.3616 39.9972C46.266 39.9122 46.3493 39.9862 46.2536 39.9012C46.158 39.8162 46.2413 39.8902 46.1456 39.8052C46.05 39.7202 46.1333 39.7942 46.0376 39.7092L43.5462 42.512ZM44.4102 43.28L42.0219 46.1711C43.1532 47.1056 44.4557 47.7963 45.919 48.134L46.7622 44.48L47.6055 40.826C47.4047 40.7797 47.1393 40.6704 46.7986 40.3889L44.4102 43.28ZM46.7622 44.48L45.9488 48.1407C47.0925 48.3949 48.2619 48.518 49.4502 48.518V44.768V41.018C48.7826 41.018 48.16 40.9491 47.5757 40.8193L46.7622 44.48ZM49.4502 44.768V48.518C51.1429 48.518 52.7625 48.0995 54.2388 47.2559L52.3783 44L50.5177 40.7441C50.202 40.9245 49.8696 41.018 49.4502 41.018V44.768ZM52.3783 44L54.2388 47.2559C55.5922 46.4825 56.7422 45.4552 57.662 44.1966L54.6342 41.984L51.6065 39.7714C51.3103 40.1768 50.9563 40.4935 50.5177 40.7441L52.3783 44ZM54.6342 41.984L57.6066 44.2704C58.557 43.0348 59.2332 41.6453 59.6441 40.1387L56.0262 39.152L52.4084 38.1653C52.2433 38.7707 51.9915 39.2692 51.6619 39.6976L54.6342 41.984ZM56.0262 39.152L59.6441 40.1387C60.0661 38.5913 60.1662 37.008 59.9259 35.4222L56.2183 35.984L52.5106 36.5458C52.5903 37.072 52.5624 37.6007 52.4084 38.1653L56.0262 39.152ZM56.2183 35.984L54.3218 32.7489C53.7183 33.1027 52.9782 33.4149 52.0718 33.6599L53.0502 37.28L54.0287 40.9001C55.4903 40.5051 56.8622 39.9533 58.1147 39.2191L56.2183 35.984ZM53.0502 37.28L52.1639 33.6362C51.236 33.862 50.3984 33.962 49.6422 33.962V37.712V41.462C51.0621 41.462 52.4965 41.274 53.9366 40.9238L53.0502 37.28ZM49.6422 37.712V33.962C48.2607 33.962 47.1094 33.7703 46.1483 33.4426L44.9382 36.992L43.7282 40.5414C45.5831 41.1737 47.5678 41.462 49.6422 41.462V37.712ZM44.9382 36.992L46.246 33.4774C45.2708 33.1146 44.5067 32.6452 43.8998 32.0971L41.3862 34.88L38.8727 37.6629C40.2498 38.9068 41.8537 39.8454 43.6305 40.5066L44.9382 36.992ZM41.3862 34.88L43.9481 32.1415C43.3639 31.595 42.8953 30.9253 42.5463 30.0837L39.0822 31.52L35.6182 32.9563C36.3572 34.7387 37.4246 36.309 38.8244 37.6185L41.3862 34.88ZM39.0822 31.52L42.5463 30.0837C42.2135 29.2811 42.0162 28.3213 42.0162 27.152H38.2662H34.5163C34.5163 29.1827 34.863 31.1349 35.6182 32.9563L39.0822 31.52ZM38.2662 27.152H42.0162C42.0162 25.929 42.226 24.8806 42.6011 23.9639L39.1302 22.544L35.6594 21.1241C34.8825 23.0234 34.5163 25.047 34.5163 27.152H38.2662ZM39.1302 22.544L42.612 23.9367C43.0031 22.9591 43.5318 22.1772 44.1888 21.5401L41.5782 18.848L38.9677 16.1559C37.5127 17.5668 36.4094 19.2489 35.6485 21.1513L39.1302 22.544ZM41.5782 18.848L44.2299 21.4997C44.8989 20.8306 45.7179 20.2908 46.7367 19.8922L45.3702 16.4L44.0037 12.9078C42.0786 13.6612 40.3696 14.7534 38.9266 16.1964L41.5782 18.848ZM45.3702 16.4L46.8018 19.866C47.7664 19.4676 48.9041 19.238 50.2662 19.238V15.488V11.738C48.0444 11.738 45.9181 12.1164 43.9386 12.934L45.3702 16.4ZM50.2662 15.488V19.238C51.9699 19.238 53.1274 19.4946 53.8866 19.8301L55.4022 16.4L56.9179 12.9699C54.9251 12.0894 52.6586 11.738 50.2662 11.738V15.488ZM55.4022 16.4L53.9824 19.8708C54.8737 20.2354 55.7307 20.8083 56.5545 21.6551L59.2422 19.04L61.93 16.4249C60.4498 14.9037 58.7468 13.7166 56.8221 12.9292L55.4022 16.4ZM59.2422 19.04L56.5218 21.621C57.1947 22.3303 57.7975 23.3706 58.2137 24.913L61.8342 23.936L65.4548 22.959C64.783 20.4694 63.6578 18.2457 61.9627 16.459L59.2422 19.04ZM61.8342 23.936L58.2285 24.9662C58.6704 26.5128 58.9482 28.7818 58.9482 31.904H62.6982H66.4482C66.4482 28.4342 66.1501 25.3912 65.44 22.9058L61.8342 23.936ZM62.6982 31.904H58.9482C58.9482 34.3113 58.6758 36.4397 58.1672 38.3137L61.7862 39.296L65.4053 40.2783C66.1126 37.6723 66.4482 34.8727 66.4482 31.904H62.6982ZM61.7862 39.296L58.1544 38.3621C57.6703 40.2448 56.9893 41.7352 56.1701 42.9055L59.2422 45.056L62.3144 47.2065C63.7351 45.1768 64.7502 42.8272 65.4181 40.2299L61.7862 39.296ZM59.2422 45.056L56.1701 42.9055C55.3851 44.027 54.4263 44.8716 53.2665 45.4843L55.0182 48.8L56.77 52.1157C59.0022 50.9364 60.8594 49.285 62.3144 47.2065L59.2422 45.056ZM55.0182 48.8L53.2902 45.4719C52.2322 46.0212 50.9357 46.346 49.3062 46.346V50.096V53.846C51.9648 53.846 54.4763 53.3068 56.7463 52.1281L55.0182 48.8ZM50.4102 21.296L50.6183 17.5518C49.7632 17.5043 48.9107 17.5522 48.0657 17.693L48.6822 21.392L49.2987 25.091C49.6058 25.0398 49.9053 25.0237 50.2022 25.0402L50.4102 21.296ZM48.6822 21.392L48.2441 17.6677C47.4606 17.7599 46.6837 17.9284 45.933 18.1965L47.1942 21.728L48.4555 25.2595C48.6008 25.2077 48.8158 25.1521 49.1204 25.1163L48.6822 21.392ZM47.1942 21.728L45.7794 18.2552C44.1845 18.9049 42.8931 19.9949 41.9717 21.4345L45.1302 23.456L48.2888 25.4775C48.3914 25.3171 48.476 25.2551 48.6091 25.2008L47.1942 21.728ZM45.1302 23.456L42.0101 21.3759C41.1792 22.6221 40.6596 24.0075 40.4554 25.4876L44.1702 26L47.8851 26.5124C47.9369 26.1365 48.0573 25.8259 48.2504 25.5361L45.1302 23.456ZM44.1702 26L40.4554 25.4876C40.2559 26.9345 40.3596 28.3759 40.7473 29.7812L44.3622 28.784L47.9772 27.7868C47.8529 27.3361 47.8286 26.9215 47.8851 26.5124L44.1702 26ZM44.3622 28.784L40.7808 29.8955C41.2669 31.4621 42.14 32.8386 43.3992 33.9261L45.8503 31.088L48.3013 28.2499C48.1525 28.1214 48.0336 27.9619 47.9437 27.6725L44.3622 28.784ZM45.8503 31.088L43.2712 33.8103C44.3743 34.8554 45.6971 35.5547 47.167 35.894L48.0103 32.24L48.8535 28.586C48.6594 28.5413 48.5422 28.4727 48.4293 28.3657L45.8503 31.088ZM48.0103 32.24L47.167 35.894C48.4079 36.1803 49.6704 36.2553 50.9361 36.1093L50.5062 32.384L50.0764 28.6587C49.6781 28.7047 49.2766 28.6837 48.8535 28.586L48.0103 32.24ZM50.5062 32.384L50.9204 36.1111C52.2185 35.9668 53.4626 35.6024 54.6313 35.0181L52.9542 31.664L51.2772 28.3099C50.9099 28.4936 50.522 28.6092 50.0921 28.6569L50.5062 32.384ZM52.9542 31.664L54.6313 35.0181C55.8191 34.4242 56.8759 33.6208 57.7427 32.5915L54.8742 30.176L52.0058 27.7605C51.8486 27.9472 51.6254 28.1358 51.2772 28.3099L52.9542 31.664ZM54.8742 30.176L57.7427 32.5915C58.5747 31.6034 59.2156 30.4462 59.5303 29.1246L55.8822 28.256L52.2342 27.3874C52.2289 27.4098 52.1978 27.5326 52.0058 27.7605L54.8742 30.176ZM55.8822 28.256L59.5001 29.2427C59.832 28.0258 59.9038 26.7598 59.662 25.4903L55.9782 26.192L52.2945 26.8937C52.3087 26.9682 52.3165 27.0782 52.2644 27.2693L55.8822 28.256ZM55.9782 26.192L59.6939 25.6853C59.5327 24.5033 59.151 23.3804 58.5516 22.3451L55.3062 24.224L52.0609 26.1029C52.1655 26.2836 52.2318 26.4727 52.2626 26.6987L55.9782 26.192ZM55.3062 24.224L58.5921 22.4168C58.0578 21.4455 57.3863 20.5688 56.575 19.8082L54.0103 22.544L51.4455 25.2798C51.6582 25.4792 51.8507 25.7225 52.0204 26.0312L55.3062 24.224ZM54.0103 22.544L56.3271 19.5953C55.452 18.9078 54.4692 18.4402 53.4558 18.1362L52.3783 21.728L51.3007 25.3198C51.5673 25.3998 51.6725 25.4763 51.6934 25.4927L54.0103 22.544ZM52.3783 21.728L53.6746 18.2092C52.7319 17.8619 51.7513 17.6525 50.7498 17.5614L50.4102 21.296L50.0707 25.0306C50.4772 25.0675 50.8086 25.1461 51.0819 25.2468L52.3783 21.728Z" fill="#DD6E24" mask="url(#path-1-outside-1_49_10384)"/>
<path opacity="0.9" d="M44.3215 20.8916C43.9166 20.7427 43.5846 20.4549 43.4388 20.0724C43.1756 19.375 43.6413 18.6302 44.4754 18.4102L45.8035 18.0615C46.6377 17.8415 47.5285 18.2308 47.7917 18.9281C48.0549 19.6255 47.5892 20.3703 46.7551 20.5903L45.4269 20.939C45.0504 21.0372 44.6576 21.0135 44.3215 20.8916Z" fill="white"/>
<path opacity="0.9" d="M12.7205 25.6021C12.6239 25.5897 12.524 25.5681 12.4296 25.5385C11.5149 25.2592 10.9987 24.3114 11.2789 23.4181C11.863 21.5518 12.9102 20.4213 13.0283 20.3013C13.6783 19.6215 14.7761 19.5884 15.4748 20.2281C16.1691 20.8673 16.2153 21.9291 15.5741 22.6101C15.5434 22.641 14.9373 23.3265 14.5905 24.425C14.3406 25.2218 13.5415 25.7079 12.7205 25.6021Z" fill="white"/>
<defs>
<linearGradient id="paint0_linear_49_10384" x1="33.5" y1="0" x2="33.5" y2="72" gradientUnits="userSpaceOnUse">
<stop stop-color="#FFC45C"/>
<stop offset="1" stop-color="#FF9F5C"/>
</linearGradient>
</defs>
</svg>
