<svg width="67" height="72" viewBox="0 0 67 72" fill="none" xmlns="http://www.w3.org/2000/svg">
<mask id="path-1-outside-1_49_6709" maskUnits="userSpaceOnUse" x="0" y="11" width="67" height="43" fill="black">
<rect fill="white" y="11" width="67" height="43"/>
<path d="M31.3299 46.592C31.4579 46.816 31.5379 47.056 31.5699 47.312C31.6019 47.536 31.6019 47.76 31.5699 47.984C31.5379 48.432 31.3619 48.832 31.0419 49.184C30.8179 49.44 30.5459 49.68 30.2259 49.904C29.9699 50.064 29.6179 50.144 29.1699 50.144C28.8179 50.144 28.4979 50.08 28.2099 49.952C27.8259 49.792 27.4899 49.584 27.2019 49.328C26.8499 49.136 26.5139 48.896 26.1939 48.608L24.8499 47.456C24.3059 47.968 23.6979 48.4 23.0259 48.752C22.3859 49.104 21.7139 49.392 21.0099 49.616C19.9859 49.936 18.9299 50.112 17.8419 50.144C16.7859 50.208 15.7299 50.112 14.6739 49.856C13.6179 49.6 12.5939 49.2 11.6019 48.656C10.6419 48.112 9.76188 47.408 8.96188 46.544C8.00188 45.552 7.21788 44.416 6.60988 43.136C6.00188 41.824 5.52188 40.464 5.16988 39.056C4.81788 37.648 4.59388 36.224 4.49788 34.784C4.40188 33.344 4.40188 31.984 4.49788 30.704C4.59388 29.488 4.78588 28.176 5.07388 26.768C5.36188 25.328 5.79388 23.952 6.36988 22.64C6.97788 21.328 7.72988 20.16 8.62588 19.136C9.55388 18.112 10.6739 17.408 11.9859 17.024C15.1539 16.032 17.8419 15.856 20.0499 16.496C22.2579 17.104 24.0659 18.208 25.4739 19.808C26.5939 21.088 27.4739 22.592 28.1139 24.32C28.7859 26.048 29.2339 27.856 29.4579 29.744C29.7139 31.632 29.7779 33.536 29.6499 35.456C29.5219 37.344 29.2339 39.104 28.7859 40.736L27.9219 43.04C28.4019 43.488 28.8499 43.904 29.2659 44.288C29.7139 44.64 30.0019 44.896 30.1299 45.056C30.3539 45.28 30.5619 45.52 30.7539 45.776C30.9779 46 31.1699 46.272 31.3299 46.592ZM12.7059 41.6C13.6659 42.848 14.8179 43.6 16.1619 43.856C17.5379 44.08 18.8179 43.84 20.0019 43.136C19.5539 42.688 19.1379 42.288 18.7539 41.936C18.3699 41.584 18.1299 41.344 18.0339 41.216C17.5539 40.736 17.1859 40.16 16.9299 39.488C16.6739 38.976 16.5939 38.496 16.6899 38.048C16.7859 37.536 16.9939 37.104 17.3139 36.752C17.4739 36.624 17.6179 36.512 17.7459 36.416C17.8739 36.288 18.0179 36.176 18.1779 36.08C18.3379 35.984 18.5139 35.92 18.7059 35.888C18.9299 35.856 19.1539 35.84 19.3779 35.84C19.6979 35.84 20.0179 35.952 20.3379 36.176C20.6259 36.336 20.9619 36.544 21.3459 36.8C21.5059 36.96 21.6659 37.12 21.8259 37.28C22.0179 37.408 22.1939 37.552 22.3539 37.712C22.4819 37.84 22.6099 37.968 22.7379 38.096C22.8659 38.192 23.0099 38.304 23.1699 38.432C23.3939 37.376 23.5539 36.256 23.6499 35.072C23.7779 33.888 23.7939 32.704 23.6979 31.52C23.6019 30.304 23.3779 29.12 23.0259 27.968C22.6739 26.784 22.1779 25.68 21.5379 24.656C20.7699 23.44 19.7939 22.624 18.6099 22.208C17.4259 21.76 15.9859 21.952 14.2899 22.784C13.6179 23.136 13.0419 23.648 12.5619 24.32C12.1139 24.96 11.7299 25.696 11.4099 26.528C11.0899 27.328 10.8339 28.16 10.6419 29.024C10.4819 29.888 10.3859 30.704 10.3539 31.472C10.3219 32.304 10.3219 33.184 10.3539 34.112C10.4179 35.008 10.5299 35.92 10.6899 36.848C10.8819 37.744 11.1379 38.608 11.4579 39.44C11.7779 40.24 12.1939 40.96 12.7059 41.6ZM44.024 26.624C43.544 27.36 42.968 27.808 42.296 27.968C41.656 28.128 41.032 28.08 40.424 27.824C39.816 27.568 39.304 27.152 38.888 26.576C38.504 25.968 38.344 25.28 38.408 24.512C38.44 24 38.568 23.44 38.792 22.832C39.016 22.224 39.288 21.648 39.608 21.104C39.96 20.528 40.328 20 40.712 19.52C41.128 19.008 41.544 18.576 41.96 18.224C42.728 17.616 43.592 17.088 44.552 16.64C45.544 16.192 46.568 15.856 47.624 15.632C48.712 15.408 49.784 15.312 50.84 15.344C51.928 15.376 52.936 15.536 53.864 15.824C56.424 16.624 58.408 17.888 59.816 19.616C61.224 21.344 61.928 23.584 61.928 26.336C61.928 27.648 61.8 28.832 61.544 29.888C61.32 30.912 60.904 31.904 60.296 32.864C59.72 33.824 58.936 34.8 57.944 35.792C56.984 36.784 55.784 37.872 54.344 39.056C53.864 39.472 53.368 39.888 52.856 40.304C52.344 40.72 51.832 41.136 51.32 41.552C51.16 41.68 50.856 41.872 50.408 42.128C49.96 42.384 49.56 42.64 49.208 42.896C48.856 43.152 48.648 43.392 48.584 43.616C48.52 43.84 48.776 43.968 49.352 44C50.056 44.064 50.616 44.08 51.032 44.048C51.448 44.016 52.008 44 52.712 44C53.544 44 54.36 43.984 55.16 43.952C55.96 43.92 56.76 43.936 57.56 44C57.88 44.032 58.232 44.048 58.616 44.048C59 44.016 59.384 44.016 59.768 44.048C60.152 44.048 60.52 44.096 60.872 44.192C61.224 44.256 61.528 44.4 61.784 44.624C62.04 44.848 62.232 45.152 62.36 45.536C62.488 45.92 62.552 46.336 62.552 46.784C62.584 47.2 62.552 47.616 62.456 48.032C62.36 48.416 62.2 48.72 61.976 48.944C61.56 49.424 61.048 49.664 60.44 49.664C59.832 49.632 59.256 49.616 58.712 49.616H41.48C41.16 49.616 40.808 49.632 40.424 49.664C40.072 49.696 39.752 49.664 39.464 49.568C38.888 49.408 38.6 49.104 38.6 48.656C38.632 48.208 38.648 47.744 38.648 47.264C38.648 46.464 38.84 45.728 39.224 45.056C39.608 44.352 40.088 43.712 40.664 43.136C41.272 42.528 41.912 41.968 42.584 41.456C43.256 40.944 43.88 40.448 44.456 39.968C45.288 39.232 46.184 38.496 47.144 37.76C48.104 37.024 49.016 36.288 49.88 35.552C51 34.624 51.944 33.776 52.712 33.008C53.512 32.24 54.152 31.52 54.632 30.848C55.112 30.176 55.464 29.52 55.688 28.88C55.912 28.208 56.024 27.504 56.024 26.768C56.024 25.136 55.528 23.888 54.536 23.024C53.544 22.128 52.28 21.68 50.744 21.68C49.624 21.68 48.568 21.92 47.576 22.4C46.616 22.88 45.816 23.584 45.176 24.512C44.984 24.864 44.792 25.232 44.6 25.616C44.44 25.968 44.248 26.304 44.024 26.624Z"/>
</mask>
<path d="M31.3299 46.592C31.4579 46.816 31.5379 47.056 31.5699 47.312C31.6019 47.536 31.6019 47.76 31.5699 47.984C31.5379 48.432 31.3619 48.832 31.0419 49.184C30.8179 49.44 30.5459 49.68 30.2259 49.904C29.9699 50.064 29.6179 50.144 29.1699 50.144C28.8179 50.144 28.4979 50.08 28.2099 49.952C27.8259 49.792 27.4899 49.584 27.2019 49.328C26.8499 49.136 26.5139 48.896 26.1939 48.608L24.8499 47.456C24.3059 47.968 23.6979 48.4 23.0259 48.752C22.3859 49.104 21.7139 49.392 21.0099 49.616C19.9859 49.936 18.9299 50.112 17.8419 50.144C16.7859 50.208 15.7299 50.112 14.6739 49.856C13.6179 49.6 12.5939 49.2 11.6019 48.656C10.6419 48.112 9.76188 47.408 8.96188 46.544C8.00188 45.552 7.21788 44.416 6.60988 43.136C6.00188 41.824 5.52188 40.464 5.16988 39.056C4.81788 37.648 4.59388 36.224 4.49788 34.784C4.40188 33.344 4.40188 31.984 4.49788 30.704C4.59388 29.488 4.78588 28.176 5.07388 26.768C5.36188 25.328 5.79388 23.952 6.36988 22.64C6.97788 21.328 7.72988 20.16 8.62588 19.136C9.55388 18.112 10.6739 17.408 11.9859 17.024C15.1539 16.032 17.8419 15.856 20.0499 16.496C22.2579 17.104 24.0659 18.208 25.4739 19.808C26.5939 21.088 27.4739 22.592 28.1139 24.32C28.7859 26.048 29.2339 27.856 29.4579 29.744C29.7139 31.632 29.7779 33.536 29.6499 35.456C29.5219 37.344 29.2339 39.104 28.7859 40.736L27.9219 43.04C28.4019 43.488 28.8499 43.904 29.2659 44.288C29.7139 44.64 30.0019 44.896 30.1299 45.056C30.3539 45.28 30.5619 45.52 30.7539 45.776C30.9779 46 31.1699 46.272 31.3299 46.592ZM12.7059 41.6C13.6659 42.848 14.8179 43.6 16.1619 43.856C17.5379 44.08 18.8179 43.84 20.0019 43.136C19.5539 42.688 19.1379 42.288 18.7539 41.936C18.3699 41.584 18.1299 41.344 18.0339 41.216C17.5539 40.736 17.1859 40.16 16.9299 39.488C16.6739 38.976 16.5939 38.496 16.6899 38.048C16.7859 37.536 16.9939 37.104 17.3139 36.752C17.4739 36.624 17.6179 36.512 17.7459 36.416C17.8739 36.288 18.0179 36.176 18.1779 36.08C18.3379 35.984 18.5139 35.92 18.7059 35.888C18.9299 35.856 19.1539 35.84 19.3779 35.84C19.6979 35.84 20.0179 35.952 20.3379 36.176C20.6259 36.336 20.9619 36.544 21.3459 36.8C21.5059 36.96 21.6659 37.12 21.8259 37.28C22.0179 37.408 22.1939 37.552 22.3539 37.712C22.4819 37.84 22.6099 37.968 22.7379 38.096C22.8659 38.192 23.0099 38.304 23.1699 38.432C23.3939 37.376 23.5539 36.256 23.6499 35.072C23.7779 33.888 23.7939 32.704 23.6979 31.52C23.6019 30.304 23.3779 29.12 23.0259 27.968C22.6739 26.784 22.1779 25.68 21.5379 24.656C20.7699 23.44 19.7939 22.624 18.6099 22.208C17.4259 21.76 15.9859 21.952 14.2899 22.784C13.6179 23.136 13.0419 23.648 12.5619 24.32C12.1139 24.96 11.7299 25.696 11.4099 26.528C11.0899 27.328 10.8339 28.16 10.6419 29.024C10.4819 29.888 10.3859 30.704 10.3539 31.472C10.3219 32.304 10.3219 33.184 10.3539 34.112C10.4179 35.008 10.5299 35.92 10.6899 36.848C10.8819 37.744 11.1379 38.608 11.4579 39.44C11.7779 40.24 12.1939 40.96 12.7059 41.6ZM44.024 26.624C43.544 27.36 42.968 27.808 42.296 27.968C41.656 28.128 41.032 28.08 40.424 27.824C39.816 27.568 39.304 27.152 38.888 26.576C38.504 25.968 38.344 25.28 38.408 24.512C38.44 24 38.568 23.44 38.792 22.832C39.016 22.224 39.288 21.648 39.608 21.104C39.96 20.528 40.328 20 40.712 19.52C41.128 19.008 41.544 18.576 41.96 18.224C42.728 17.616 43.592 17.088 44.552 16.64C45.544 16.192 46.568 15.856 47.624 15.632C48.712 15.408 49.784 15.312 50.84 15.344C51.928 15.376 52.936 15.536 53.864 15.824C56.424 16.624 58.408 17.888 59.816 19.616C61.224 21.344 61.928 23.584 61.928 26.336C61.928 27.648 61.8 28.832 61.544 29.888C61.32 30.912 60.904 31.904 60.296 32.864C59.72 33.824 58.936 34.8 57.944 35.792C56.984 36.784 55.784 37.872 54.344 39.056C53.864 39.472 53.368 39.888 52.856 40.304C52.344 40.72 51.832 41.136 51.32 41.552C51.16 41.68 50.856 41.872 50.408 42.128C49.96 42.384 49.56 42.64 49.208 42.896C48.856 43.152 48.648 43.392 48.584 43.616C48.52 43.84 48.776 43.968 49.352 44C50.056 44.064 50.616 44.08 51.032 44.048C51.448 44.016 52.008 44 52.712 44C53.544 44 54.36 43.984 55.16 43.952C55.96 43.92 56.76 43.936 57.56 44C57.88 44.032 58.232 44.048 58.616 44.048C59 44.016 59.384 44.016 59.768 44.048C60.152 44.048 60.52 44.096 60.872 44.192C61.224 44.256 61.528 44.4 61.784 44.624C62.04 44.848 62.232 45.152 62.36 45.536C62.488 45.92 62.552 46.336 62.552 46.784C62.584 47.2 62.552 47.616 62.456 48.032C62.36 48.416 62.2 48.72 61.976 48.944C61.56 49.424 61.048 49.664 60.44 49.664C59.832 49.632 59.256 49.616 58.712 49.616H41.48C41.16 49.616 40.808 49.632 40.424 49.664C40.072 49.696 39.752 49.664 39.464 49.568C38.888 49.408 38.6 49.104 38.6 48.656C38.632 48.208 38.648 47.744 38.648 47.264C38.648 46.464 38.84 45.728 39.224 45.056C39.608 44.352 40.088 43.712 40.664 43.136C41.272 42.528 41.912 41.968 42.584 41.456C43.256 40.944 43.88 40.448 44.456 39.968C45.288 39.232 46.184 38.496 47.144 37.76C48.104 37.024 49.016 36.288 49.88 35.552C51 34.624 51.944 33.776 52.712 33.008C53.512 32.24 54.152 31.52 54.632 30.848C55.112 30.176 55.464 29.52 55.688 28.88C55.912 28.208 56.024 27.504 56.024 26.768C56.024 25.136 55.528 23.888 54.536 23.024C53.544 22.128 52.28 21.68 50.744 21.68C49.624 21.68 48.568 21.92 47.576 22.4C46.616 22.88 45.816 23.584 45.176 24.512C44.984 24.864 44.792 25.232 44.6 25.616C44.44 25.968 44.248 26.304 44.024 26.624Z" fill="url(#paint0_linear_49_6709)"/>
<path d="M31.3299 46.592L27.9758 48.2691L28.0223 48.3621L28.074 48.4525L31.3299 46.592ZM31.5699 47.312L27.8488 47.7771L27.8529 47.8098L27.8576 47.8424L31.5699 47.312ZM31.5699 47.984L27.8576 47.4536L27.8388 47.5847L27.8294 47.7168L31.5699 47.984ZM31.0419 49.184L28.2671 46.6615L28.2432 46.6878L28.2197 46.7146L31.0419 49.184ZM30.2259 49.904L32.2134 53.084L32.2963 53.0322L32.3764 52.9761L30.2259 49.904ZM28.2099 49.952L29.7329 46.5252L29.6927 46.5074L29.6522 46.4905L28.2099 49.952ZM27.2019 49.328L29.6932 46.5252L29.3733 46.2408L28.9976 46.0359L27.2019 49.328ZM26.1939 48.608L28.7025 45.8206L28.6688 45.7903L28.6343 45.7608L26.1939 48.608ZM24.8499 47.456L27.2903 44.6088L24.7327 42.4166L22.2798 44.7253L24.8499 47.456ZM23.0259 48.752L21.2859 45.4301L21.2521 45.4478L21.2187 45.4662L23.0259 48.752ZM21.0099 49.616L22.1284 53.1953L22.1377 53.1924L22.1469 53.1895L21.0099 49.616ZM17.8419 50.144L17.7316 46.3956L17.6733 46.3973L17.615 46.4009L17.8419 50.144ZM14.6739 49.856L13.7904 53.5004L14.6739 49.856ZM11.6019 48.656L9.75308 51.9186L9.77583 51.9315L9.79875 51.944L11.6019 48.656ZM8.96188 46.544L11.7135 43.9962L11.6854 43.9659L11.6566 43.9362L8.96188 46.544ZM6.60988 43.136L3.20746 44.7127L3.21495 44.7289L3.22259 44.745L6.60988 43.136ZM5.16988 39.056L1.53184 39.9655L5.16988 39.056ZM4.49788 34.784L8.23957 34.5346L4.49788 34.784ZM4.49788 30.704L0.759509 30.4089L0.75893 30.4162L0.758379 30.4235L4.49788 30.704ZM5.07388 26.768L8.74781 27.5195L8.74945 27.5115L8.75105 27.5034L5.07388 26.768ZM6.36988 22.64L2.96746 21.0633L2.95149 21.0977L2.93621 21.1325L6.36988 22.64ZM8.62588 19.136L5.84718 16.6178L5.82523 16.642L5.80371 16.6666L8.62588 19.136ZM11.9859 17.024L13.0392 20.623L13.073 20.6131L13.1065 20.6027L11.9859 17.024ZM20.0499 16.496L19.0059 20.0977L19.0301 20.1048L19.0543 20.1114L20.0499 16.496ZM25.4739 19.808L28.296 17.3386L28.2891 17.3306L25.4739 19.808ZM28.1139 24.32L24.5973 25.6224L24.6079 25.6509L24.6189 25.6792L28.1139 24.32ZM29.4579 29.744L25.734 30.1858L25.7377 30.2169L25.7419 30.2479L29.4579 29.744ZM29.6499 35.456L33.3913 35.7097L33.3916 35.7054L29.6499 35.456ZM28.7859 40.736L32.2971 42.0527L32.357 41.8931L32.4021 41.7287L28.7859 40.736ZM27.9219 43.04L24.4106 41.7233L23.5303 44.0708L25.3632 45.7815L27.9219 43.04ZM29.2659 44.288L26.7223 47.0435L26.8318 47.1446L26.949 47.2367L29.2659 44.288ZM30.1299 45.056L27.2016 47.3986L27.3314 47.5608L27.4782 47.7076L30.1299 45.056ZM30.7539 45.776L27.7539 48.026L27.9138 48.2392L28.1022 48.4276L30.7539 45.776ZM12.7059 41.6L15.6782 39.3136L15.6564 39.2853L15.6341 39.2574L12.7059 41.6ZM16.1619 43.856L15.4602 47.5398L15.5097 47.5492L15.5593 47.5573L16.1619 43.856ZM20.0019 43.136L21.9184 46.3593L26.0637 43.8945L22.6535 40.4843L20.0019 43.136ZM18.7539 41.936L21.2878 39.1717H21.2878L18.7539 41.936ZM18.0339 41.216L21.0339 38.966L20.874 38.7528L20.6855 38.5644L18.0339 41.216ZM16.9299 39.488L20.4342 38.153L20.3676 37.9782L20.284 37.8109L16.9299 39.488ZM16.6899 38.048L20.3566 38.8337L20.3667 38.7865L20.3756 38.7391L16.6899 38.048ZM17.3139 36.752L14.9713 33.8237L14.7391 34.0095L14.5391 34.2295L17.3139 36.752ZM17.7459 36.416L19.9959 39.416L20.2091 39.2561L20.3975 39.0677L17.7459 36.416ZM18.1779 36.08L16.2485 32.8644L16.2485 32.8644L18.1779 36.08ZM18.7059 35.888L18.1755 32.1757L18.1324 32.1819L18.0894 32.189L18.7059 35.888ZM20.3379 36.176L18.1874 39.2481L18.3467 39.3596L18.5167 39.4541L20.3379 36.176ZM21.3459 36.8L23.9975 34.1483L23.735 33.8858L23.426 33.6798L21.3459 36.8ZM21.8259 37.28L19.1742 39.9317L19.4368 40.1942L19.7457 40.4002L21.8259 37.28ZM22.3539 37.712L25.0055 35.0604L25.0055 35.0603L22.3539 37.712ZM22.7379 38.096L20.0862 40.7477L20.2747 40.9361L20.4879 41.096L22.7379 38.096ZM23.1699 38.432L20.8273 41.3603L25.5763 45.1595L26.8383 39.2101L23.1699 38.432ZM23.6499 35.072L19.9216 34.6689L19.9162 34.7189L19.9121 34.7689L23.6499 35.072ZM23.6979 31.52L19.9595 31.8151L19.9601 31.8231L23.6979 31.52ZM23.0259 27.968L19.4314 29.0366L19.4354 29.0502L19.4396 29.0638L23.0259 27.968ZM21.5379 24.656L24.7179 22.6685L24.7132 22.661L24.7085 22.6535L21.5379 24.656ZM18.6099 22.208L17.2828 25.7153L17.3246 25.7311L17.3668 25.746L18.6099 22.208ZM14.2899 22.784L12.6383 19.4173L12.5938 19.4391L12.5499 19.4621L14.2899 22.784ZM12.5619 24.32L9.51037 22.1404L9.5 22.1549L9.48976 22.1695L12.5619 24.32ZM11.4099 26.528L14.8917 27.9207L14.9009 27.8975L14.9099 27.8742L11.4099 26.528ZM10.6419 29.024L6.98117 28.2105L6.96671 28.2756L6.95457 28.3412L10.6419 29.024ZM10.3539 31.472L6.60711 31.3159L6.60665 31.3279L10.3539 31.472ZM10.3539 34.112L6.6061 34.2412L6.60848 34.3103L6.61341 34.3792L10.3539 34.112ZM10.6899 36.848L6.9944 37.4851L7.00726 37.5597L7.02312 37.6337L10.6899 36.848ZM11.4579 39.44L7.95783 40.7862L7.9668 40.8095L7.97609 40.8327L11.4579 39.44ZM31.3299 46.592L28.074 48.4525C27.9563 48.2467 27.8782 48.0124 27.8488 47.7771L31.5699 47.312L35.2909 46.8469C35.1975 46.0996 34.9594 45.3853 34.5858 44.7315L31.3299 46.592ZM31.5699 47.312L27.8576 47.8424C27.8393 47.7146 27.8393 47.5814 27.8576 47.4536L31.5699 47.984L35.2822 48.5144C35.3644 47.9386 35.3644 47.3574 35.2822 46.7816L31.5699 47.312ZM31.5699 47.984L27.8294 47.7168C27.8432 47.524 27.8914 47.3143 27.9814 47.1097C28.0704 46.9076 28.1787 46.7587 28.2671 46.6615L31.0419 49.184L33.8167 51.7065C34.6664 50.7718 35.2147 49.5897 35.3103 48.2512L31.5699 47.984ZM31.0419 49.184L28.2197 46.7146C28.2213 46.7128 28.1838 46.756 28.0754 46.8319L30.2259 49.904L32.3764 52.9761C32.908 52.604 33.4144 52.1672 33.864 51.6534L31.0419 49.184ZM30.2259 49.904L28.2384 46.724C28.5284 46.5428 28.7832 46.4626 28.9388 46.4273C29.0915 46.3925 29.1782 46.394 29.1699 46.394V50.144V53.894C30.0022 53.894 31.1392 53.7553 32.2134 53.084L30.2259 49.904ZM29.1699 50.144V46.394C29.281 46.394 29.4882 46.4165 29.7329 46.5252L28.2099 49.952L26.6869 53.3788C27.5075 53.7435 28.3547 53.894 29.1699 53.894V50.144ZM28.2099 49.952L29.6522 46.4905C29.6347 46.4832 29.6334 46.4812 29.6437 46.4875C29.6543 46.4941 29.6721 46.5064 29.6932 46.5252L27.2019 49.328L24.7105 52.1308C25.3331 52.6842 26.0303 53.1064 26.7676 53.4135L28.2099 49.952ZM27.2019 49.328L28.9976 46.0359C28.9202 45.9937 28.8212 45.9275 28.7025 45.8206L26.1939 48.608L23.6853 51.3954C24.2065 51.8645 24.7796 52.2783 25.4062 52.6201L27.2019 49.328ZM26.1939 48.608L28.6343 45.7608L27.2903 44.6088L24.8499 47.456L22.4094 50.3032L23.7534 51.4552L26.1939 48.608ZM24.8499 47.456L22.2798 44.7253C21.9881 44.9997 21.6603 45.234 21.2859 45.4301L23.0259 48.752L24.7659 52.0739C25.7355 51.566 26.6236 50.9363 27.42 50.1867L24.8499 47.456ZM23.0259 48.752L21.2187 45.4662C20.7946 45.6994 20.3473 45.8916 19.8729 46.0425L21.0099 49.616L22.1469 53.1895C23.0804 52.8924 23.9771 52.5086 24.8331 52.0378L23.0259 48.752ZM21.0099 49.616L19.8913 46.0367C19.1989 46.2531 18.4824 46.3735 17.7316 46.3956L17.8419 50.144L17.9521 53.8924C19.3773 53.8505 20.7728 53.6189 22.1284 53.1953L21.0099 49.616ZM17.8419 50.144L17.615 46.4009C16.9421 46.4417 16.2602 46.3819 15.5574 46.2116L14.6739 49.856L13.7904 53.5004C15.1996 53.8421 16.6297 53.9743 18.0687 53.8871L17.8419 50.144ZM14.6739 49.856L15.5574 46.2116C14.8353 46.0365 14.1194 45.7598 13.405 45.368L11.6019 48.656L9.79875 51.944C11.0683 52.6403 12.4005 53.1635 13.7904 53.5004L14.6739 49.856ZM11.6019 48.656L13.4507 45.3934C12.8485 45.0522 12.2688 44.5959 11.7135 43.9962L8.96188 46.544L6.21027 49.0918C7.25498 50.2201 8.43528 51.1718 9.75308 51.9186L11.6019 48.656ZM8.96188 46.544L11.6566 43.9362C10.9878 43.245 10.4349 42.4485 9.99717 41.527L6.60988 43.136L3.22259 44.745C4.00087 46.3835 5.01597 47.859 6.26712 49.1518L8.96188 46.544ZM6.60988 43.136L10.0123 41.5593C9.50405 40.4625 9.10279 39.326 8.80791 38.1465L5.16988 39.056L1.53184 39.9655C1.94096 41.602 2.4997 43.1855 3.20746 44.7127L6.60988 43.136ZM5.16988 39.056L8.80791 38.1465C8.50973 36.9538 8.32064 35.7506 8.23957 34.5346L4.49788 34.784L0.756183 35.0334C0.867111 36.6974 1.12602 38.3422 1.53184 39.9655L5.16988 39.056ZM4.49788 34.784L8.23957 34.5346C8.15391 33.2497 8.15611 32.068 8.23737 30.9845L4.49788 30.704L0.758379 30.4235C0.647643 31.9 0.649841 33.4383 0.756183 35.0334L4.49788 34.784ZM4.49788 30.704L8.23624 30.9991C8.31824 29.9606 8.48536 28.8026 8.74781 27.5195L5.07388 26.768L1.39995 26.0165C1.08639 27.5494 0.869515 29.0154 0.759509 30.4089L4.49788 30.704ZM5.07388 26.768L8.75105 27.5034C8.9873 26.3222 9.33901 25.2056 9.80354 24.1475L6.36988 22.64L2.93621 21.1325C2.24874 22.6984 1.73645 24.3338 1.3967 26.0326L5.07388 26.768ZM6.36988 22.64L9.77229 24.2167C10.2397 23.2081 10.8012 22.3446 11.448 21.6054L8.62588 19.136L5.80371 16.6666C4.65854 17.9754 3.71604 19.4479 2.96746 21.0633L6.36988 22.64ZM8.62588 19.136L11.4046 21.6542C11.8735 21.1368 12.3986 20.8105 13.0392 20.623L11.9859 17.024L10.9325 13.425C8.94913 14.0055 7.23426 15.0872 5.84718 16.6178L8.62588 19.136ZM11.9859 17.024L13.1065 20.6027C15.8682 19.7379 17.7554 19.7353 19.0059 20.0977L20.0499 16.496L21.0939 12.8943C17.9284 11.9767 14.4396 12.3261 10.8653 13.4453L11.9859 17.024ZM20.0499 16.496L19.0543 20.1114C20.6128 20.5406 21.7697 21.2752 22.6587 22.2854L25.4739 19.808L28.2891 17.3306C26.362 15.1408 23.9029 13.6674 21.0454 12.8806L20.0499 16.496ZM25.4739 19.808L22.6517 22.2774C23.447 23.1863 24.1026 24.2866 24.5973 25.6224L28.1139 24.32L31.6304 23.0176C30.8452 20.8974 29.7408 18.9897 28.296 17.3386L25.4739 19.808ZM28.1139 24.32L24.6189 25.6792C25.1733 27.1048 25.5463 28.604 25.734 30.1858L29.4579 29.744L33.1818 29.3022C32.9214 27.108 32.3985 24.9912 31.6089 22.9608L28.1139 24.32ZM29.4579 29.744L25.7419 30.2479C25.9637 31.8838 26.0196 33.5354 25.9082 35.2066L29.6499 35.456L33.3916 35.7054C33.5362 33.5366 33.4641 31.3802 33.1739 29.2401L29.4579 29.744ZM29.6499 35.456L25.9085 35.2023C25.7955 36.8693 25.5441 38.3792 25.1697 39.7433L28.7859 40.736L32.4021 41.7287C32.9237 39.8288 33.2483 37.8187 33.3913 35.7097L29.6499 35.456ZM28.7859 40.736L25.2746 39.4193L24.4106 41.7233L27.9219 43.04L31.4331 44.3567L32.2971 42.0527L28.7859 40.736ZM27.9219 43.04L25.3632 45.7815C25.8474 46.2334 26.3005 46.6542 26.7223 47.0435L29.2659 44.288L31.8094 41.5325C31.3992 41.1538 30.9563 40.7426 30.4806 40.2985L27.9219 43.04ZM29.2659 44.288L26.949 47.2367C27.1387 47.3857 27.259 47.4868 27.3265 47.5468C27.3593 47.576 27.3652 47.5826 27.3522 47.5697C27.345 47.5624 27.3284 47.5456 27.3051 47.52C27.2823 47.4951 27.246 47.4541 27.2016 47.3986L30.1299 45.056L33.0581 42.7134C32.6196 42.1652 31.9914 41.6604 31.5827 41.3393L29.2659 44.288ZM30.1299 45.056L27.4782 47.7076C27.5755 47.8049 27.6673 47.9105 27.7539 48.026L30.7539 45.776L33.7539 43.526C33.4565 43.1295 33.1323 42.7551 32.7815 42.4044L30.1299 45.056ZM30.7539 45.776L28.1022 48.4276C28.007 48.3324 27.973 48.2635 27.9758 48.2691L31.3299 46.592L34.684 44.915C34.3667 44.2805 33.9488 43.6676 33.4055 43.1244L30.7539 45.776ZM12.7059 41.6L9.73354 43.8864C11.1637 45.7456 13.0785 47.0861 15.4602 47.5398L16.1619 43.856L16.8635 40.1722C16.5572 40.1139 16.1681 39.9504 15.6782 39.3136L12.7059 41.6ZM16.1619 43.856L15.5593 47.5573C17.7936 47.921 19.967 47.5195 21.9184 46.3593L20.0019 43.136L18.0853 39.9127C17.6687 40.1605 17.2821 40.239 16.7644 40.1547L16.1619 43.856ZM20.0019 43.136L22.6535 40.4843C22.175 40.0058 21.7193 39.5672 21.2878 39.1717L18.7539 41.936L16.2199 44.7003C16.5564 45.0088 16.9328 45.3702 17.3502 45.7877L20.0019 43.136ZM18.7539 41.936L21.2878 39.1717C21.1172 39.0152 21.0046 38.9074 20.9375 38.8403C20.9044 38.8072 20.8951 38.7967 20.9022 38.8045C20.9064 38.8091 20.9196 38.8237 20.9393 38.847C20.958 38.869 20.9917 38.9098 21.0339 38.966L18.0339 41.216L15.0339 43.466C15.378 43.9248 15.8954 44.4028 16.2199 44.7003L18.7539 41.936ZM18.0339 41.216L20.6855 38.5644C20.6014 38.4802 20.5134 38.3608 20.4342 38.153L16.9299 39.488L13.4255 40.823C13.8584 41.9592 14.5064 42.9918 15.3822 43.8676L18.0339 41.216ZM16.9299 39.488L20.284 37.8109C20.2945 37.832 20.3457 37.9405 20.3769 38.1275C20.4095 38.3236 20.4135 38.5684 20.3566 38.8337L16.6899 38.048L13.0231 37.2623C12.7079 38.7331 13.0362 40.0858 13.5758 41.1651L16.9299 39.488ZM16.6899 38.048L20.3756 38.7391C20.3681 38.7794 20.3474 38.8613 20.2966 38.9668C20.2448 39.0744 20.1741 39.1805 20.0887 39.2745L17.3139 36.752L14.5391 34.2295C13.7077 35.1441 13.2156 36.229 13.0041 37.3569L16.6899 38.048ZM17.3139 36.752L19.6565 39.6803C19.794 39.5703 19.9063 39.4832 19.9959 39.416L17.7459 36.416L15.4959 33.416C15.3294 33.5408 15.1538 33.6777 14.9713 33.8237L17.3139 36.752ZM17.7459 36.416L20.3975 39.0677C20.3021 39.1631 20.202 39.2387 20.1072 39.2956L18.1779 36.08L16.2485 32.8644C15.8337 33.1133 15.4456 33.4129 15.0942 33.7643L17.7459 36.416ZM18.1779 36.08L20.1072 39.2956C19.8465 39.4521 19.5741 39.545 19.3224 39.587L18.7059 35.888L18.0894 32.189C17.4537 32.295 16.8293 32.5159 16.2485 32.8644L18.1779 36.08ZM18.7059 35.888L19.2362 39.6003C19.2863 39.5932 19.3331 39.59 19.3779 39.59V35.84V32.09C18.9746 32.09 18.5734 32.1189 18.1755 32.1757L18.7059 35.888ZM19.3779 35.84V39.59C18.7725 39.59 18.3566 39.3665 18.1874 39.2481L20.3379 36.176L22.4884 33.1039C21.6792 32.5375 20.6232 32.09 19.3779 32.09V35.84ZM20.3379 36.176L18.5167 39.4541C18.6892 39.5499 18.9354 39.7 19.2657 39.9202L21.3459 36.8L23.426 33.6798C22.9883 33.388 22.5625 33.1221 22.159 32.8979L20.3379 36.176ZM21.3459 36.8L18.6942 39.4517C18.8542 39.6117 19.0142 39.7717 19.1742 39.9317L21.8259 37.28L24.4775 34.6283C24.3175 34.4683 24.1575 34.3083 23.9975 34.1483L21.3459 36.8ZM21.8259 37.28L19.7457 40.4002C19.7364 40.3939 19.7203 40.3817 19.7022 40.3637L22.3539 37.712L25.0055 35.0603C24.6675 34.7223 24.2994 34.4221 23.906 34.1598L21.8259 37.28ZM22.3539 37.712L19.7022 40.3636C19.8302 40.4916 19.9582 40.6197 20.0862 40.7477L22.7379 38.096L25.3895 35.4443C25.2615 35.3163 25.1335 35.1884 25.0055 35.0604L22.3539 37.712ZM22.7379 38.096L20.4879 41.096C20.5774 41.1632 20.6898 41.2503 20.8273 41.3603L23.1699 38.432L25.5125 35.5037C25.33 35.3577 25.1543 35.2208 24.9879 35.096L22.7379 38.096ZM23.1699 38.432L26.8383 39.2101C27.0986 37.9828 27.2799 36.7031 27.3876 35.3751L23.6499 35.072L19.9121 34.7689C19.8278 35.8089 19.6891 36.7692 19.5015 37.6539L23.1699 38.432ZM23.6499 35.072L27.3782 35.4751C27.5314 34.0571 27.5507 32.6367 27.4356 31.2169L23.6979 31.52L19.9601 31.8231C20.037 32.7713 20.0243 33.7189 19.9216 34.6689L23.6499 35.072ZM23.6979 31.52L27.4362 31.2249C27.3191 29.7407 27.0448 28.288 26.6122 26.8722L23.0259 27.968L19.4396 29.0638C19.7109 29.952 19.8847 30.8673 19.9595 31.8151L23.6979 31.52ZM23.0259 27.968L26.6204 26.8994C26.1744 25.3993 25.5408 23.9853 24.7179 22.6685L21.5379 24.656L18.3579 26.6435C18.8149 27.3747 19.1733 28.1687 19.4314 29.0366L23.0259 27.968ZM21.5379 24.656L24.7085 22.6535C23.5585 20.8327 21.9483 19.4062 19.8529 18.67L18.6099 22.208L17.3668 25.746C17.6395 25.8418 17.9813 26.0473 18.3673 26.6585L21.5379 24.656ZM18.6099 22.208L19.937 18.7007C17.3915 17.7375 14.8067 18.3535 12.6383 19.4173L14.2899 22.784L15.9415 26.1507C17.165 25.5505 17.4602 25.7825 17.2828 25.7153L18.6099 22.208ZM14.2899 22.784L12.5499 19.4621C11.3122 20.1104 10.3011 21.0333 9.51037 22.1404L12.5619 24.32L15.6134 26.4996C15.7826 26.2627 15.9236 26.1616 16.0299 26.1059L14.2899 22.784ZM12.5619 24.32L9.48976 22.1695C8.84443 23.0914 8.32419 24.1045 7.90983 25.1818L11.4099 26.528L14.9099 27.8742C15.1356 27.2875 15.3833 26.8286 15.634 26.4705L12.5619 24.32ZM11.4099 26.528L7.92809 25.1353C7.5309 26.1283 7.21589 27.1543 6.98117 28.2105L10.6419 29.024L14.3026 29.8375C14.4519 29.1657 14.6489 28.5277 14.8917 27.9207L11.4099 26.528ZM10.6419 29.024L6.95457 28.3412C6.76682 29.355 6.64745 30.3482 6.60713 31.3159L10.3539 31.472L14.1006 31.6281C14.1243 31.0598 14.1969 30.421 14.3292 29.7068L10.6419 29.024ZM10.3539 31.472L6.60665 31.3279C6.57077 32.2606 6.57131 33.2323 6.6061 34.2412L10.3539 34.112L14.1016 33.9828C14.0724 33.1357 14.073 32.3474 14.1011 31.6161L10.3539 31.472ZM10.3539 34.112L6.61341 34.3792C6.68668 35.405 6.81429 36.4405 6.9944 37.4851L10.6899 36.848L14.3854 36.2108C14.2455 35.3995 14.1491 34.611 14.0943 33.8448L10.3539 34.112ZM10.6899 36.848L7.02312 37.6337C7.25488 38.7153 7.56583 39.767 7.95783 40.7862L11.4579 39.44L14.9579 38.0938C14.7099 37.449 14.5089 36.7727 14.3566 36.0623L10.6899 36.848ZM11.4579 39.44L7.97609 40.8327C8.42589 41.9572 9.02389 43.0005 9.77762 43.9426L12.7059 41.6L15.6341 39.2574C15.3639 38.9195 15.1299 38.5228 14.9397 38.0473L11.4579 39.44ZM44.024 26.624L40.9519 24.4735L40.9166 24.5239L40.883 24.5755L44.024 26.624ZM42.296 27.968L41.4274 24.32L41.4069 24.3249L41.3865 24.33L42.296 27.968ZM40.424 27.824L38.9688 31.2801L38.9688 31.2801L40.424 27.824ZM38.888 26.576L35.7174 28.5785L35.7797 28.6771L35.8479 28.7716L38.888 26.576ZM38.408 24.512L42.145 24.8234L42.1483 24.7847L42.1507 24.7459L38.408 24.512ZM39.608 21.104L36.4082 19.1486L36.3917 19.1755L36.3757 19.2027L39.608 21.104ZM40.712 19.52L37.8016 17.1553L37.7926 17.1663L37.7837 17.1774L40.712 19.52ZM41.96 18.224L39.6324 15.2838L39.5844 15.3218L39.5377 15.3613L41.96 18.224ZM44.552 16.64L43.0085 13.2224L42.9873 13.232L42.9662 13.2418L44.552 16.64ZM47.624 15.632L46.8678 11.959L46.8568 11.9613L46.8459 11.9636L47.624 15.632ZM50.84 15.344L50.7264 19.0923L50.7297 19.0924L50.84 15.344ZM53.864 15.824L54.9825 12.2447L54.9755 12.2425L53.864 15.824ZM59.816 19.616L56.9089 21.9848V21.9848L59.816 19.616ZM61.544 29.888L57.8996 29.0045L57.8896 29.0455L57.8806 29.0866L61.544 29.888ZM60.296 32.864L57.1279 30.8576L57.1037 30.8958L57.0804 30.9346L60.296 32.864ZM57.944 35.792L55.2923 33.1404L55.2706 33.1621L55.2492 33.1842L57.944 35.792ZM54.344 39.056L51.9624 36.1594L51.9248 36.1903L51.888 36.2222L54.344 39.056ZM51.32 41.552L53.6626 44.4803L53.6737 44.4714L53.6847 44.4624L51.32 41.552ZM49.208 42.896L47.0024 39.8632L47.0023 39.8632L49.208 42.896ZM49.352 44L49.6915 40.2654L49.6258 40.2594L49.56 40.2558L49.352 44ZM51.032 44.048L50.7444 40.309H50.7444L51.032 44.048ZM57.56 44L57.9331 40.2686L57.8961 40.2649L57.859 40.2619L57.56 44ZM58.616 44.048V47.798H58.772L58.9274 47.785L58.616 44.048ZM59.768 44.048L59.4566 47.785L59.612 47.798H59.768V44.048ZM60.872 44.192L59.8853 47.8099L60.0417 47.8525L60.2012 47.8815L60.872 44.192ZM61.784 44.624L59.3146 47.4462L59.3146 47.4462L61.784 44.624ZM62.552 46.784H58.802V46.928L58.813 47.0716L62.552 46.784ZM62.456 48.032L66.094 48.9415L66.1023 48.9084L66.11 48.8752L62.456 48.032ZM61.976 48.944L59.3244 46.2923L59.2298 46.3869L59.1422 46.488L61.976 48.944ZM60.44 49.664L60.2429 53.4088L60.3414 53.414H60.44V49.664ZM40.424 49.664L40.1126 45.927L40.0985 45.9281L40.0845 45.9294L40.424 49.664ZM39.464 49.568L40.6499 46.0104L40.5595 45.9803L40.4677 45.9548L39.464 49.568ZM38.6 48.656L34.8595 48.3888L34.85 48.5222V48.656H38.6ZM39.224 45.056L42.4799 46.9165L42.4983 46.8843L42.5161 46.8517L39.224 45.056ZM40.664 43.136L38.0123 40.4843L40.664 43.136ZM44.456 39.968L46.8567 42.8488L46.8992 42.8134L46.9407 42.7767L44.456 39.968ZM47.144 37.76L44.8624 34.784H44.8624L47.144 37.76ZM49.88 35.552L47.4874 32.6644L47.4677 32.6807L47.4482 32.6973L49.88 35.552ZM52.712 33.008L50.115 30.3028L50.0874 30.3293L50.0603 30.3564L52.712 33.008ZM54.632 30.848L51.5805 28.6684V28.6684L54.632 30.848ZM55.688 28.88L59.2275 30.1188L59.2367 30.0924L59.2456 30.0659L55.688 28.88ZM54.536 23.024L52.0224 25.8069L52.0475 25.8296L52.0731 25.8518L54.536 23.024ZM47.576 22.4L45.9426 19.0244L45.9207 19.035L45.8989 19.0459L47.576 22.4ZM45.176 24.512L42.089 22.383L41.9777 22.5443L41.8839 22.7163L45.176 24.512ZM44.6 25.616L41.2459 23.9389L41.2149 24.001L41.1861 24.0642L44.6 25.616ZM44.024 26.624L40.883 24.5755C40.8251 24.6642 40.8303 24.6292 40.9297 24.5519C41.0406 24.4657 41.2127 24.3711 41.4274 24.32L42.296 27.968L43.1646 31.616C45.0058 31.1776 46.309 29.9851 47.165 28.6725L44.024 26.624ZM42.296 27.968L41.3865 24.33C41.4362 24.3175 41.5244 24.3045 41.6356 24.313C41.7468 24.3216 41.832 24.348 41.8792 24.3679L40.424 27.824L38.9688 31.2801C40.3246 31.851 41.7783 31.9628 43.2055 31.606L42.296 27.968ZM40.424 27.824L41.8792 24.3679C41.8891 24.372 41.9017 24.3782 41.9154 24.3864C41.9291 24.3946 41.9404 24.4028 41.9487 24.4096C41.9569 24.4163 41.9594 24.4193 41.9565 24.4162C41.9535 24.4129 41.9436 24.402 41.928 24.3804L38.888 26.576L35.8479 28.7716C36.6344 29.8606 37.6781 30.7367 38.9688 31.2801L40.424 27.824ZM38.888 26.576L42.0586 24.5735C42.0865 24.6177 42.1158 24.6825 42.1325 24.7546C42.1486 24.8237 42.1425 24.8537 42.145 24.8234L38.408 24.512L34.671 24.2006C34.5444 25.719 34.866 27.2305 35.7174 28.5785L38.888 26.576ZM38.408 24.512L42.1507 24.7459C42.1549 24.6778 42.1811 24.4803 42.3108 24.1284L38.792 22.832L35.2732 21.5356C34.9549 22.3997 34.725 23.3222 34.6653 24.2781L38.408 24.512ZM38.792 22.832L42.3108 24.1284C42.4596 23.7246 42.6366 23.3516 42.8403 23.0053L39.608 21.104L36.3757 19.2027C35.9394 19.9444 35.5724 20.7234 35.2732 21.5356L38.792 22.832ZM39.608 21.104L42.8078 23.0594C43.0854 22.6052 43.3639 22.2081 43.6403 21.8626L40.712 19.52L37.7837 17.1774C37.2921 17.7919 36.8346 18.4509 36.4082 19.1486L39.608 21.104ZM40.712 19.52L43.6224 21.8847C43.921 21.5172 44.1766 21.2607 44.3823 21.0867L41.96 18.224L39.5377 15.3613C38.9114 15.8913 38.335 16.4988 37.8016 17.1553L40.712 19.52ZM41.96 18.224L44.2876 21.1642C44.8093 20.7512 45.4207 20.3728 46.1378 20.0382L44.552 16.64L42.9662 13.2418C41.7633 13.8032 40.6467 14.4808 39.6324 15.2838L41.96 18.224ZM44.552 16.64L46.0954 20.0576C46.8441 19.7195 47.6117 19.468 48.4021 19.3004L47.624 15.632L46.8459 11.9636C45.5243 12.244 44.2439 12.6645 43.0085 13.2224L44.552 16.64ZM47.624 15.632L48.3802 19.305C49.1969 19.1368 49.9769 19.0696 50.7264 19.0923L50.84 15.344L50.9536 11.5957C49.5911 11.5544 48.2271 11.6792 46.8678 11.959L47.624 15.632ZM50.84 15.344L50.7297 19.0924C51.5182 19.1156 52.1854 19.2295 52.7525 19.4055L53.864 15.824L54.9755 12.2425C53.6866 11.8425 52.3378 11.6364 50.9502 11.5956L50.84 15.344ZM53.864 15.824L52.7455 19.4033C54.748 20.0291 56.0527 20.934 56.9089 21.9848L59.816 19.616L62.7231 17.2472C60.7633 14.842 58.1 13.2189 54.9825 12.2447L53.864 15.824ZM59.816 19.616L56.9089 21.9848C57.6531 22.8982 58.178 24.2385 58.178 26.336H61.928H65.678C65.678 22.9295 64.7949 19.7898 62.7231 17.2472L59.816 19.616ZM61.928 26.336H58.178C58.178 27.4095 58.0727 28.2901 57.8996 29.0045L61.544 29.888L65.1884 30.7715C65.5273 29.3739 65.678 27.8865 65.678 26.336H61.928ZM61.544 29.888L57.8806 29.0866C57.7577 29.6485 57.5215 30.2361 57.1279 30.8576L60.296 32.864L63.4641 34.8704C64.2865 33.5719 64.8823 32.1755 65.2074 30.6894L61.544 29.888ZM60.296 32.864L57.0804 30.9346C56.696 31.5753 56.1196 32.3131 55.2923 33.1404L57.944 35.792L60.5956 38.4436C61.7524 37.2869 62.744 36.0727 63.5116 34.7934L60.296 32.864ZM57.944 35.792L55.2492 33.1842C54.4154 34.0458 53.3279 35.0367 51.9624 36.1594L54.344 39.056L56.7256 41.9526C58.2401 40.7073 59.5526 39.5222 60.6388 38.3998L57.944 35.792ZM54.344 39.056L51.888 36.2222C51.4392 36.6112 50.9736 37.0017 50.4913 37.3936L52.856 40.304L55.2207 43.2144C55.7624 42.7743 56.2888 42.3328 56.8 41.8898L54.344 39.056ZM52.856 40.304L50.4913 37.3936C50.4758 37.4061 50.5007 37.3859 50.4853 37.3984C50.4698 37.411 50.4947 37.3908 50.4793 37.4033C50.4526 37.425 50.4939 37.3914 50.4673 37.4131C50.4662 37.4139 50.4563 37.422 50.4553 37.4228C50.4233 37.4488 50.4753 37.4066 50.4433 37.4326C50.4198 37.4516 50.4547 37.4233 50.4313 37.4423C50.4046 37.464 50.4459 37.4304 50.4193 37.4521C50.4011 37.4668 50.4254 37.4471 50.4073 37.4618C50.403 37.4653 50.3995 37.4681 50.3953 37.4716C50.3937 37.4729 50.3909 37.4751 50.3893 37.4764C50.3738 37.489 50.3987 37.4688 50.3833 37.4813C50.3737 37.4891 50.3809 37.4833 50.3713 37.4911C50.3702 37.4919 50.3603 37.5 50.3593 37.5008C50.3273 37.5268 50.3793 37.4846 50.3473 37.5106C50.3409 37.5158 50.3417 37.5151 50.3353 37.5203C50.3257 37.5281 50.3329 37.5223 50.3233 37.5301C50.3223 37.5309 50.3213 37.5317 50.3203 37.5325C50.3193 37.5333 50.3183 37.5341 50.3173 37.5349C50.3163 37.5358 50.3153 37.5366 50.3143 37.5374C50.3133 37.5382 50.3123 37.539 50.3113 37.5398C50.307 37.5433 50.3035 37.5461 50.2993 37.5496C50.2838 37.5621 50.3087 37.5419 50.2933 37.5544C50.2778 37.567 50.3027 37.5468 50.2873 37.5593C50.2777 37.5671 50.2849 37.5613 50.2753 37.5691C50.2742 37.5699 50.2643 37.578 50.2633 37.5788C50.2483 37.591 50.2662 37.5764 50.2513 37.5886C50.2278 37.6076 50.2627 37.5793 50.2393 37.5983C50.2126 37.62 50.2539 37.5864 50.2273 37.6081C50.2091 37.6228 50.2334 37.6031 50.2153 37.6178C50.211 37.6213 50.2075 37.6241 50.2033 37.6276C50.2017 37.6289 50.1989 37.6311 50.1973 37.6324C50.1818 37.645 50.2067 37.6248 50.1913 37.6373C50.1817 37.6451 50.1889 37.6393 50.1793 37.6471C50.1611 37.6618 50.1854 37.6421 50.1673 37.6568C50.1353 37.6828 50.1873 37.6406 50.1553 37.6666C50.1318 37.6856 50.1667 37.6573 50.1433 37.6763C50.1337 37.6841 50.1409 37.6783 50.1313 37.6861C50.1303 37.6869 50.1293 37.6877 50.1283 37.6885C50.1273 37.6893 50.1263 37.6901 50.1253 37.6909C50.1243 37.6918 50.1233 37.6926 50.1223 37.6934C50.1213 37.6942 50.1203 37.695 50.1193 37.6958C50.115 37.6993 50.1115 37.7021 50.1073 37.7056C50.0918 37.7181 50.1167 37.6979 50.1013 37.7104C50.0858 37.723 50.1107 37.7028 50.0953 37.7153C50.0686 37.737 50.1099 37.7034 50.0833 37.7251C50.0708 37.7352 50.0837 37.7247 50.0713 37.7348C50.0597 37.7442 50.0768 37.7303 50.0653 37.7397C50.0635 37.7411 50.0611 37.7431 50.0593 37.7446C50.0583 37.7454 50.0573 37.7462 50.0563 37.747C50.0553 37.7478 50.0543 37.7486 50.0533 37.7494C50.0523 37.7503 50.0513 37.7511 50.0503 37.7519C50.0493 37.7527 50.0483 37.7535 50.0473 37.7543C50.0471 37.7545 50.0415 37.759 50.0413 37.7592C50.0403 37.76 50.0393 37.7608 50.0383 37.7616C50.0373 37.7624 50.0363 37.7633 50.0353 37.7641C50.0336 37.7654 50.0309 37.7676 50.0293 37.7689C50.0283 37.7698 50.0273 37.7706 50.0263 37.7714C50.0253 37.7722 50.0243 37.773 50.0233 37.7738C50.0171 37.7789 50.0235 37.7736 50.0173 37.7787C50.0163 37.7795 50.0153 37.7803 50.0143 37.7811C50.0133 37.7819 50.0123 37.7828 50.0113 37.7836C49.9976 37.7947 50.0129 37.7822 49.9993 37.7933C49.9978 37.7945 49.9947 37.797 49.9933 37.7982C49.9896 37.8012 49.991 37.8001 49.9873 37.8031C49.9716 37.8158 49.9909 37.8001 49.9753 37.8128C49.9743 37.8136 49.9733 37.8144 49.9723 37.8153C49.9713 37.8161 49.9703 37.8169 49.9693 37.8177C49.9675 37.8191 49.965 37.8211 49.9633 37.8226C49.9623 37.8234 49.9613 37.8242 49.9603 37.825C49.9593 37.8258 49.9583 37.8266 49.9573 37.8274C49.935 37.8455 49.9735 37.8143 49.9513 37.8323C49.9457 37.8368 49.9508 37.8327 49.9453 37.8372C49.9443 37.838 49.9433 37.8388 49.9423 37.8396C49.9413 37.8404 49.9403 37.8413 49.9393 37.8421C49.9149 37.8618 49.9516 37.8321 49.9273 37.8518C49.9211 37.8569 49.9275 37.8516 49.9213 37.8567C49.9195 37.8581 49.917 37.8601 49.9153 37.8616C49.9016 37.8727 49.9169 37.8602 49.9033 37.8713C49.9031 37.8715 49.8975 37.876 49.8973 37.8762C49.8936 37.8792 49.895 37.8781 49.8913 37.8811C49.8756 37.8938 49.8949 37.8781 49.8793 37.8908C49.8629 37.9041 49.8836 37.8873 49.8673 37.9006C49.8663 37.9014 49.8653 37.9022 49.8643 37.903C49.8633 37.9038 49.8623 37.9046 49.8613 37.9054C49.8603 37.9063 49.8593 37.9071 49.8583 37.9079C49.8573 37.9087 49.8563 37.9095 49.8553 37.9103C49.8551 37.9105 49.8495 37.915 49.8493 37.9152C49.8456 37.9182 49.847 37.9171 49.8433 37.9201C49.8351 37.9267 49.8455 37.9183 49.8373 37.9249C49.8363 37.9258 49.8353 37.9266 49.8343 37.9274C49.8333 37.9282 49.8323 37.929 49.8313 37.9298C49.8251 37.9349 49.8315 37.9296 49.8253 37.9347C49.8243 37.9355 49.8233 37.9363 49.8223 37.9371C49.8213 37.9379 49.8203 37.9388 49.8193 37.9396C49.8056 37.9507 49.8209 37.9382 49.8073 37.9493C49.8058 37.9505 49.8027 37.953 49.8013 37.9542C49.7976 37.9572 49.799 37.9561 49.7953 37.9591C49.7796 37.9718 49.7989 37.9561 49.7833 37.9688C49.7823 37.9696 49.7813 37.9704 49.7803 37.9713C49.7793 37.9721 49.7783 37.9729 49.7773 37.9737C49.7755 37.9751 49.7731 37.9771 49.7713 37.9786C49.7703 37.9794 49.7693 37.9802 49.7683 37.981C49.7673 37.9818 49.7663 37.9826 49.7653 37.9834C49.7643 37.9843 49.7633 37.9851 49.7623 37.9859C49.7613 37.9867 49.7603 37.9875 49.7593 37.9883C49.7537 37.9928 49.7588 37.9887 49.7533 37.9932C49.7523 37.994 49.7513 37.9948 49.7503 37.9956C49.7493 37.9964 49.7483 37.9973 49.7473 37.9981C49.7229 38.0178 49.7596 37.988 49.7353 38.0078C49.7291 38.0129 49.7355 38.0076 49.7293 38.0127C49.7275 38.0141 49.7251 38.0161 49.7233 38.0176C49.7096 38.0287 49.7249 38.0162 49.7113 38.0273C49.7111 38.0275 49.7055 38.032 49.7053 38.0322C49.7016 38.0352 49.703 38.0341 49.6993 38.0371C49.6836 38.0498 49.7029 38.0341 49.6873 38.0468C49.6863 38.0476 49.6853 38.0484 49.6843 38.0493C49.6833 38.0501 49.6823 38.0509 49.6813 38.0517C49.6795 38.0531 49.6771 38.0551 49.6753 38.0566C49.6743 38.0574 49.6733 38.0582 49.6723 38.059C49.6713 38.0598 49.6703 38.0606 49.6693 38.0614C49.6683 38.0623 49.6673 38.0631 49.6663 38.0639C49.6653 38.0647 49.6643 38.0655 49.6633 38.0663C49.6631 38.0665 49.6575 38.071 49.6573 38.0712C49.6536 38.0742 49.655 38.0731 49.6513 38.0761C49.6496 38.0774 49.6469 38.0796 49.6453 38.0809C49.6443 38.0818 49.6433 38.0826 49.6423 38.0834C49.6413 38.0842 49.6403 38.085 49.6393 38.0858C49.6331 38.0909 49.6395 38.0856 49.6333 38.0907C49.6323 38.0915 49.6313 38.0923 49.6303 38.0931C49.6293 38.0939 49.6283 38.0948 49.6273 38.0956C49.6136 38.1067 49.6289 38.0942 49.6153 38.1053C49.6138 38.1065 49.6107 38.109 49.6093 38.1102C49.6056 38.1132 49.607 38.1121 49.6033 38.1151C49.5876 38.1278 49.6069 38.1121 49.5913 38.1248C49.5903 38.1256 49.5893 38.1264 49.5883 38.1273C49.5873 38.1281 49.5863 38.1289 49.5853 38.1297C49.5835 38.1311 49.5811 38.1331 49.5793 38.1346C49.5783 38.1354 49.5773 38.1362 49.5763 38.137C49.5753 38.1378 49.5743 38.1386 49.5733 38.1394C49.5723 38.1403 49.5713 38.1411 49.5703 38.1419C49.5693 38.1427 49.5683 38.1435 49.5673 38.1443C49.5617 38.1488 49.5668 38.1447 49.5613 38.1492C49.5603 38.15 49.5593 38.1508 49.5583 38.1516C49.5573 38.1524 49.5563 38.1533 49.5553 38.1541C49.5309 38.1738 49.5676 38.1441 49.5433 38.1638C49.5371 38.1689 49.5435 38.1636 49.5373 38.1687C49.5355 38.1701 49.5331 38.1721 49.5313 38.1736C49.5176 38.1847 49.5329 38.1722 49.5193 38.1833C49.5191 38.1835 49.5135 38.188 49.5133 38.1882C49.5096 38.1912 49.511 38.1901 49.5073 38.1931C49.4916 38.2058 49.5109 38.1901 49.4953 38.2028C49.4943 38.2036 49.4933 38.2044 49.4923 38.2053C49.4913 38.2061 49.4903 38.2069 49.4893 38.2077C49.4875 38.2091 49.4851 38.2111 49.4833 38.2126C49.4823 38.2134 49.4813 38.2142 49.4803 38.215C49.4793 38.2158 49.4783 38.2166 49.4773 38.2174C49.4763 38.2183 49.4753 38.2191 49.4743 38.2199C49.4733 38.2207 49.4723 38.2215 49.4713 38.2223C49.4711 38.2225 49.4655 38.227 49.4653 38.2272C49.4616 38.2302 49.463 38.2291 49.4593 38.2321C49.4576 38.2334 49.4549 38.2356 49.4533 38.2369C49.4523 38.2378 49.4513 38.2386 49.4503 38.2394C49.4493 38.2402 49.4483 38.241 49.4473 38.2418C49.4411 38.2469 49.4475 38.2416 49.4413 38.2467C49.4403 38.2475 49.4393 38.2483 49.4383 38.2491C49.4373 38.2499 49.4363 38.2508 49.4353 38.2516C49.4216 38.2627 49.4369 38.2502 49.4233 38.2613C49.4218 38.2625 49.4187 38.265 49.4173 38.2662C49.4136 38.2692 49.415 38.2681 49.4113 38.2711C49.3956 38.2838 49.4149 38.2681 49.3993 38.2808C49.3983 38.2816 49.3973 38.2824 49.3963 38.2833C49.3953 38.2841 49.3943 38.2849 49.3933 38.2857C49.3915 38.2871 49.389 38.2891 49.3873 38.2906C49.3863 38.2914 49.3853 38.2922 49.3843 38.293C49.3833 38.2938 49.3823 38.2946 49.3813 38.2954C49.3803 38.2963 49.3793 38.2971 49.3783 38.2979C49.3773 38.2987 49.3763 38.2995 49.3753 38.3003C49.3697 38.3048 49.3748 38.3007 49.3693 38.3052C49.3683 38.306 49.3673 38.3068 49.3663 38.3076C49.3653 38.3084 49.3643 38.3093 49.3633 38.3101C49.3389 38.3298 49.3756 38.3 49.3513 38.3198C49.3451 38.3249 49.3515 38.3196 49.3453 38.3247C49.3435 38.3261 49.341 38.3281 49.3393 38.3296C49.3256 38.3407 49.3409 38.3282 49.3273 38.3393C49.3271 38.3395 49.3215 38.344 49.3213 38.3442C49.3176 38.3472 49.319 38.3461 49.3153 38.3491C49.2996 38.3618 49.3189 38.3461 49.3033 38.3588C49.3023 38.3596 49.3013 38.3604 49.3003 38.3613C49.2993 38.3621 49.2983 38.3629 49.2973 38.3637C49.2955 38.3651 49.293 38.3671 49.2913 38.3686C49.2903 38.3694 49.2893 38.3702 49.2883 38.371C49.2873 38.3718 49.2863 38.3726 49.2853 38.3734C49.2843 38.3743 49.2833 38.3751 49.2823 38.3759C49.2813 38.3767 49.2803 38.3775 49.2793 38.3783C49.2791 38.3785 49.2735 38.383 49.2733 38.3832C49.2696 38.3862 49.271 38.3851 49.2673 38.3881C49.2656 38.3894 49.2629 38.3916 49.2613 38.3929C49.2603 38.3938 49.2593 38.3946 49.2583 38.3954C49.2573 38.3962 49.2563 38.397 49.2553 38.3978C49.2491 38.4029 49.2555 38.3976 49.2493 38.4027C49.2483 38.4035 49.2473 38.4043 49.2463 38.4051C49.2453 38.4059 49.2443 38.4068 49.2433 38.4076C49.2296 38.4187 49.2449 38.4062 49.2313 38.4173C49.2298 38.4185 49.2267 38.421 49.2253 38.4222C49.2216 38.4252 49.223 38.4241 49.2193 38.4271C49.2036 38.4398 49.2229 38.4241 49.2073 38.4368C49.2063 38.4376 49.2053 38.4384 49.2043 38.4393C49.2033 38.4401 49.2023 38.4409 49.2013 38.4417C49.1995 38.4431 49.1971 38.4451 49.1953 38.4466C49.1943 38.4474 49.1933 38.4482 49.1923 38.449C49.1913 38.4498 49.1903 38.4506 49.1893 38.4514C49.1883 38.4523 49.1873 38.4531 49.1863 38.4539C49.1853 38.4547 49.1843 38.4555 49.1833 38.4563C49.1777 38.4608 49.1828 38.4567 49.1773 38.4612C49.1763 38.462 49.1753 38.4628 49.1743 38.4636C49.1733 38.4644 49.1723 38.4653 49.1713 38.4661C49.1469 38.4858 49.1836 38.4561 49.1593 38.4758C49.1531 38.4809 49.1595 38.4756 49.1533 38.4807C49.1515 38.4821 49.1491 38.4841 49.1473 38.4856C49.1336 38.4967 49.1489 38.4842 49.1353 38.4953C49.1351 38.4955 49.1295 38.5 49.1293 38.5002C49.1256 38.5032 49.127 38.5021 49.1233 38.5051C49.1076 38.5178 49.1269 38.5021 49.1113 38.5148C49.1103 38.5156 49.1093 38.5164 49.1083 38.5173C49.1073 38.5181 49.1063 38.5189 49.1053 38.5197C49.1035 38.5211 49.1011 38.5231 49.0993 38.5246C49.0983 38.5254 49.0973 38.5262 49.0963 38.527C49.0953 38.5278 49.0943 38.5286 49.0933 38.5294C49.0923 38.5303 49.0913 38.5311 49.0903 38.5319C49.0893 38.5327 49.0883 38.5335 49.0873 38.5343C49.0871 38.5345 49.0815 38.539 49.0813 38.5392C49.0776 38.5422 49.079 38.5411 49.0753 38.5441C49.0736 38.5454 49.0709 38.5476 49.0693 38.5489C49.0683 38.5498 49.0673 38.5506 49.0663 38.5514C49.0653 38.5522 49.0643 38.553 49.0633 38.5538C49.0571 38.5589 49.0635 38.5536 49.0573 38.5587C49.0563 38.5595 49.0553 38.5603 49.0543 38.5611C49.0533 38.5619 49.0523 38.5628 49.0513 38.5636C49.0376 38.5747 49.0529 38.5622 49.0393 38.5733C49.0378 38.5745 49.0347 38.577 49.0333 38.5782C49.0296 38.5812 49.031 38.5801 49.0273 38.5831C49.0116 38.5958 49.0309 38.5801 49.0153 38.5928C49.0143 38.5936 49.0133 38.5944 49.0123 38.5953C49.0113 38.5961 49.0103 38.5969 49.0093 38.5977C49.0075 38.5991 49.0051 38.6011 49.0033 38.6026C49.0023 38.6034 49.0013 38.6042 49.0003 38.605C48.9993 38.6058 48.9983 38.6066 48.9973 38.6074C48.9963 38.6083 48.9953 38.6091 48.9943 38.6099C48.9933 38.6107 48.9923 38.6115 48.9913 38.6123C48.9857 38.6168 48.9908 38.6127 48.9853 38.6172C48.9843 38.618 48.9833 38.6188 48.9823 38.6196C48.9813 38.6204 48.9803 38.6213 48.9793 38.6221C48.9549 38.6418 48.9916 38.612 48.9673 38.6318C48.9611 38.6369 48.9675 38.6316 48.9613 38.6367C48.9595 38.6381 48.9571 38.6401 48.9553 38.6416L51.32 41.552L53.6847 44.4624C53.6947 44.4543 53.6867 44.4608 53.6967 44.4527C53.7127 44.4397 53.6927 44.4559 53.7087 44.4429C53.7121 44.4402 53.7174 44.4359 53.7207 44.4332C53.7217 44.4324 53.7227 44.4316 53.7237 44.4307C53.7247 44.4299 53.7257 44.4291 53.7267 44.4283C53.7285 44.4269 53.7309 44.4249 53.7327 44.4234C53.7337 44.4226 53.7347 44.4218 53.7357 44.421C53.7367 44.4202 53.7377 44.4194 53.7387 44.4186C53.7397 44.4177 53.7407 44.4169 53.7417 44.4161C53.7427 44.4153 53.7437 44.4145 53.7447 44.4137C53.7501 44.4093 53.7514 44.4083 53.7567 44.4039C53.7637 44.3983 53.7557 44.4047 53.7627 44.3991C53.764 44.3981 53.7675 44.3952 53.7687 44.3942C53.7697 44.3934 53.7707 44.3926 53.7717 44.3917C53.7727 44.3909 53.7737 44.3901 53.7747 44.3893C53.7765 44.3879 53.7789 44.3859 53.7807 44.3844C53.7907 44.3763 53.7827 44.3828 53.7927 44.3747C53.8087 44.3617 53.7887 44.3779 53.8047 44.3649C53.8081 44.3622 53.8134 44.3579 53.8167 44.3552C53.8177 44.3544 53.8187 44.3536 53.8197 44.3527C53.8207 44.3519 53.8217 44.3511 53.8227 44.3503C53.8245 44.3489 53.8269 44.3469 53.8287 44.3454C53.8297 44.3446 53.8307 44.3438 53.8317 44.343C53.8327 44.3422 53.8337 44.3414 53.8347 44.3406C53.8632 44.3174 53.8123 44.3588 53.8407 44.3357C53.8417 44.3349 53.8427 44.3341 53.8437 44.3332C53.8447 44.3324 53.8457 44.3316 53.8467 44.3308C53.8477 44.33 53.8487 44.3292 53.8497 44.3284C53.8507 44.3276 53.8517 44.3267 53.8527 44.3259C53.8561 44.3232 53.8614 44.3189 53.8647 44.3162C53.8657 44.3154 53.8667 44.3146 53.8677 44.3137C53.8687 44.3129 53.8697 44.3121 53.8707 44.3113C53.8725 44.3099 53.8749 44.3079 53.8767 44.3064C53.8867 44.2983 53.8787 44.3048 53.8887 44.2967C53.9047 44.2837 53.8847 44.2999 53.9007 44.2869C53.9041 44.2842 53.9094 44.2799 53.9127 44.2772C53.9137 44.2764 53.9147 44.2756 53.9157 44.2747C53.9167 44.2739 53.9177 44.2731 53.9187 44.2723C53.9205 44.2709 53.9229 44.2689 53.9247 44.2674C53.9257 44.2666 53.9267 44.2658 53.9277 44.265C53.9287 44.2642 53.9297 44.2634 53.9307 44.2626C53.9317 44.2617 53.9327 44.2609 53.9337 44.2601C53.9347 44.2593 53.9357 44.2585 53.9367 44.2577C53.9421 44.2533 53.9434 44.2523 53.9487 44.2479C53.9557 44.2423 53.9477 44.2487 53.9547 44.2431C53.956 44.2421 53.9595 44.2392 53.9607 44.2382C53.9617 44.2374 53.9627 44.2366 53.9637 44.2357C53.9647 44.2349 53.9657 44.2341 53.9667 44.2333C53.9685 44.2319 53.9709 44.2299 53.9727 44.2284C53.9827 44.2203 53.9747 44.2268 53.9847 44.2187C54.0007 44.2057 53.9807 44.2219 53.9967 44.2089C54.0001 44.2062 54.0054 44.2019 54.0087 44.1992C54.0097 44.1984 54.0107 44.1976 54.0117 44.1967C54.0127 44.1959 54.0137 44.1951 54.0147 44.1943C54.0165 44.1929 54.0189 44.1909 54.0207 44.1894C54.0217 44.1886 54.0227 44.1878 54.0237 44.187C54.0247 44.1862 54.0257 44.1854 54.0267 44.1846C54.0552 44.1614 54.0043 44.2028 54.0327 44.1797C54.0337 44.1789 54.0347 44.1781 54.0357 44.1772C54.0367 44.1764 54.0377 44.1756 54.0387 44.1748C54.0397 44.174 54.0407 44.1732 54.0417 44.1724C54.0427 44.1716 54.0437 44.1707 54.0447 44.1699C54.0481 44.1672 54.0534 44.1629 54.0567 44.1602C54.0577 44.1594 54.0587 44.1586 54.0597 44.1577C54.0607 44.1569 54.0617 44.1561 54.0627 44.1553C54.0645 44.1539 54.0669 44.1519 54.0687 44.1504C54.0787 44.1423 54.0707 44.1488 54.0807 44.1407C54.0967 44.1277 54.0767 44.1439 54.0927 44.1309C54.0961 44.1282 54.1014 44.1239 54.1047 44.1212C54.1057 44.1204 54.1067 44.1196 54.1077 44.1187C54.1087 44.1179 54.1097 44.1171 54.1107 44.1163C54.1125 44.1149 54.1149 44.1129 54.1167 44.1114C54.1177 44.1106 54.1187 44.1098 54.1197 44.109C54.1207 44.1082 54.1217 44.1074 54.1227 44.1066C54.1237 44.1057 54.1247 44.1049 54.1257 44.1041C54.1267 44.1033 54.1277 44.1025 54.1287 44.1017C54.1341 44.0973 54.1354 44.0963 54.1407 44.0919C54.1477 44.0863 54.1397 44.0927 54.1467 44.0871C54.1479 44.0861 54.1515 44.0832 54.1527 44.0822C54.1537 44.0814 54.1547 44.0806 54.1557 44.0797C54.1567 44.0789 54.1577 44.0781 54.1587 44.0773C54.1605 44.0759 54.1629 44.0739 54.1647 44.0724C54.1747 44.0643 54.1667 44.0708 54.1767 44.0627C54.1927 44.0497 54.1727 44.0659 54.1887 44.0529C54.1921 44.0502 54.1974 44.0459 54.2007 44.0432C54.2017 44.0424 54.2027 44.0416 54.2037 44.0407C54.2047 44.0399 54.2057 44.0391 54.2067 44.0383C54.2085 44.0369 54.2109 44.0349 54.2127 44.0334C54.2137 44.0326 54.2147 44.0318 54.2157 44.031C54.2167 44.0302 54.2177 44.0294 54.2187 44.0286C54.2472 44.0054 54.1963 44.0468 54.2247 44.0237C54.2257 44.0229 54.2267 44.0221 54.2277 44.0212C54.2287 44.0204 54.2297 44.0196 54.2307 44.0188C54.2317 44.018 54.2327 44.0172 54.2337 44.0164C54.2347 44.0156 54.2357 44.0147 54.2367 44.0139C54.2401 44.0112 54.2454 44.0069 54.2487 44.0042C54.2497 44.0034 54.2507 44.0026 54.2517 44.0017C54.2527 44.0009 54.2537 44.0001 54.2547 43.9993C54.2565 43.9979 54.2589 43.9959 54.2607 43.9944C54.2707 43.9863 54.2627 43.9928 54.2727 43.9847C54.2887 43.9717 54.2687 43.9879 54.2847 43.9749C54.2881 43.9722 54.2934 43.9679 54.2967 43.9652C54.2977 43.9644 54.2987 43.9636 54.2997 43.9627C54.3007 43.9619 54.3017 43.9611 54.3027 43.9603C54.3045 43.9589 54.3069 43.9569 54.3087 43.9554C54.3097 43.9546 54.3107 43.9538 54.3117 43.953C54.3127 43.9522 54.3137 43.9514 54.3147 43.9506C54.3157 43.9497 54.3167 43.9489 54.3177 43.9481C54.3187 43.9473 54.3197 43.9465 54.3207 43.9457C54.3261 43.9413 54.3274 43.9403 54.3327 43.9359C54.3397 43.9303 54.3317 43.9367 54.3387 43.9311C54.34 43.9301 54.3435 43.9272 54.3447 43.9262C54.3457 43.9254 54.3467 43.9246 54.3477 43.9237C54.3487 43.9229 54.3497 43.9221 54.3507 43.9213C54.3525 43.9199 54.3549 43.9179 54.3567 43.9164C54.3667 43.9083 54.3587 43.9148 54.3687 43.9067C54.3847 43.8937 54.3647 43.9099 54.3807 43.8969C54.3841 43.8942 54.3894 43.8899 54.3927 43.8872C54.3937 43.8864 54.3947 43.8856 54.3957 43.8847C54.3967 43.8839 54.3977 43.8831 54.3987 43.8823C54.4005 43.8809 54.4029 43.8789 54.4047 43.8774C54.4057 43.8766 54.4067 43.8758 54.4077 43.875C54.4087 43.8742 54.4097 43.8734 54.4107 43.8726C54.4392 43.8494 54.3883 43.8908 54.4167 43.8677C54.4177 43.8669 54.4187 43.8661 54.4197 43.8652C54.4207 43.8644 54.4217 43.8636 54.4227 43.8628C54.4237 43.862 54.4247 43.8612 54.4257 43.8604C54.4267 43.8596 54.4277 43.8587 54.4287 43.8579C54.4321 43.8552 54.4374 43.8509 54.4407 43.8482C54.4417 43.8474 54.4427 43.8466 54.4437 43.8457C54.4447 43.8449 54.4457 43.8441 54.4467 43.8433C54.4485 43.8419 54.4509 43.8399 54.4527 43.8384C54.4627 43.8303 54.4547 43.8368 54.4647 43.8287C54.4807 43.8157 54.4607 43.8319 54.4767 43.8189C54.4801 43.8162 54.4854 43.8119 54.4887 43.8092C54.4897 43.8084 54.4907 43.8076 54.4917 43.8067C54.4927 43.8059 54.4937 43.8051 54.4947 43.8043C54.4965 43.8029 54.4989 43.8009 54.5007 43.7994C54.5017 43.7986 54.5027 43.7978 54.5037 43.797C54.5047 43.7962 54.5057 43.7954 54.5067 43.7946C54.5077 43.7937 54.5087 43.7929 54.5097 43.7921C54.5107 43.7913 54.5117 43.7905 54.5127 43.7897C54.5181 43.7853 54.5194 43.7843 54.5247 43.7799C54.5317 43.7743 54.5237 43.7807 54.5307 43.7751C54.532 43.7741 54.5355 43.7712 54.5367 43.7702C54.5377 43.7694 54.5387 43.7686 54.5397 43.7677C54.5407 43.7669 54.5417 43.7661 54.5427 43.7653C54.5445 43.7639 54.5469 43.7619 54.5487 43.7604C54.5587 43.7523 54.5507 43.7588 54.5607 43.7507C54.5767 43.7377 54.5567 43.7539 54.5727 43.7409C54.5761 43.7382 54.5814 43.7339 54.5847 43.7312C54.5857 43.7304 54.5867 43.7296 54.5877 43.7287C54.5887 43.7279 54.5897 43.7271 54.5907 43.7263C54.5925 43.7249 54.5949 43.7229 54.5967 43.7214C54.6001 43.7187 54.6054 43.7144 54.6087 43.7117C54.6097 43.7109 54.6107 43.7101 54.6117 43.7092C54.6127 43.7084 54.6137 43.7076 54.6147 43.7068C54.6157 43.706 54.6167 43.7052 54.6177 43.7044C54.6187 43.7036 54.6197 43.7027 54.6207 43.7019C54.6241 43.6992 54.6294 43.6949 54.6327 43.6922C54.6337 43.6914 54.6347 43.6906 54.6357 43.6897C54.6367 43.6889 54.6377 43.6881 54.6387 43.6873C54.6405 43.6859 54.6429 43.6839 54.6447 43.6824C54.6547 43.6743 54.6467 43.6808 54.6567 43.6727C54.6727 43.6597 54.6527 43.6759 54.6687 43.6629C54.6721 43.6602 54.6774 43.6559 54.6807 43.6532C54.6901 43.6456 54.6834 43.651 54.6927 43.6434C54.6937 43.6426 54.6947 43.6418 54.6957 43.641C54.6967 43.6402 54.6977 43.6394 54.6987 43.6386C54.6997 43.6377 54.7007 43.6369 54.7017 43.6361C54.7027 43.6353 54.7037 43.6345 54.7047 43.6337C54.7101 43.6293 54.7114 43.6283 54.7167 43.6239C54.7303 43.6129 54.7092 43.6301 54.7227 43.6191C54.7239 43.6181 54.7275 43.6152 54.7287 43.6142C54.7297 43.6134 54.7307 43.6126 54.7317 43.6117C54.7327 43.6109 54.7337 43.6101 54.7347 43.6093C54.7365 43.6079 54.7389 43.6059 54.7407 43.6044C54.7507 43.5963 54.7427 43.6028 54.7527 43.5947C54.7687 43.5817 54.7487 43.5979 54.7647 43.5849C54.7717 43.5793 54.7637 43.5857 54.7707 43.5801C54.7719 43.5791 54.7755 43.5762 54.7767 43.5752C54.7777 43.5744 54.7787 43.5736 54.7797 43.5727C54.7807 43.5719 54.7817 43.5711 54.7827 43.5703C54.7845 43.5689 54.7869 43.5669 54.7887 43.5654C54.8154 43.5438 54.768 43.5822 54.7947 43.5606C54.8232 43.5374 54.7723 43.5788 54.8007 43.5557C54.8221 43.5383 54.7914 43.5633 54.8127 43.5459C54.8137 43.5451 54.8147 43.5443 54.8157 43.5435C54.8167 43.5427 54.8177 43.5419 54.8187 43.5411C54.8197 43.5402 54.8207 43.5394 54.8217 43.5386C54.8227 43.5378 54.8237 43.537 54.8247 43.5362C54.829 43.5327 54.8325 43.5299 54.8367 43.5264C54.841 43.523 54.8385 43.525 54.8427 43.5216C54.847 43.5181 54.8445 43.5201 54.8487 43.5167C54.8615 43.5063 54.8479 43.5173 54.8607 43.5069C54.8756 43.4948 54.8578 43.5093 54.8727 43.4972C54.9047 43.4712 54.8527 43.5134 54.8847 43.4874C54.9082 43.4684 54.8733 43.4967 54.8967 43.4777C54.9095 43.4673 54.8959 43.4783 54.9087 43.4679C54.9407 43.4419 54.8887 43.4842 54.9207 43.4582C54.925 43.4547 54.9285 43.4519 54.9327 43.4484C54.9337 43.4476 54.9347 43.4468 54.9357 43.446C54.9367 43.4452 54.9377 43.4444 54.9387 43.4436C54.943 43.4401 54.9405 43.4421 54.9447 43.4387C54.9457 43.4379 54.9467 43.4371 54.9477 43.4362C54.9487 43.4354 54.9497 43.4346 54.9507 43.4338C54.9517 43.433 54.9527 43.4322 54.9537 43.4314C54.9547 43.4306 54.9557 43.4297 54.9567 43.4289C54.9716 43.4168 54.9538 43.4313 54.9687 43.4192C55.0007 43.3932 54.9487 43.4354 54.9807 43.4094C54.9871 43.4042 54.9863 43.4049 54.9927 43.3997C54.9937 43.3989 54.9947 43.3981 54.9957 43.3972C54.9967 43.3964 54.9977 43.3956 54.9987 43.3948C54.9997 43.394 55.0007 43.3932 55.0017 43.3924C55.0027 43.3916 55.0037 43.3907 55.0047 43.3899C55.0057 43.3891 55.0067 43.3883 55.0077 43.3875C55.0087 43.3867 55.0097 43.3859 55.0107 43.3851C55.0117 43.3842 55.0127 43.3834 55.0137 43.3826C55.0147 43.3818 55.0157 43.381 55.0167 43.3802C55.021 43.3767 55.0245 43.3739 55.0287 43.3704C55.033 43.367 55.0305 43.369 55.0347 43.3656C55.039 43.3621 55.0365 43.3641 55.0407 43.3607C55.0417 43.3599 55.0427 43.3591 55.0437 43.3582C55.0447 43.3574 55.0457 43.3566 55.0467 43.3558C55.0477 43.355 55.0487 43.3542 55.0497 43.3534C55.0507 43.3526 55.0517 43.3517 55.0527 43.3509C55.0676 43.3388 55.0498 43.3533 55.0647 43.3412C55.0796 43.329 55.0618 43.3436 55.0767 43.3314C55.1002 43.3124 55.0653 43.3407 55.0887 43.3217C55.1015 43.3113 55.0879 43.3223 55.1007 43.3119C55.1327 43.2859 55.0807 43.3282 55.1127 43.3022C55.117 43.2987 55.1205 43.2959 55.1247 43.2924C55.1257 43.2916 55.1267 43.2908 55.1277 43.29C55.1287 43.2892 55.1297 43.2884 55.1307 43.2876C55.135 43.2841 55.1325 43.2861 55.1367 43.2827C55.1377 43.2819 55.1387 43.2811 55.1397 43.2802C55.1407 43.2794 55.1417 43.2786 55.1427 43.2778C55.1437 43.277 55.1447 43.2762 55.1457 43.2754C55.1467 43.2746 55.1477 43.2737 55.1487 43.2729C55.1807 43.2469 55.1287 43.2892 55.1607 43.2632C55.1927 43.2372 55.1407 43.2794 55.1727 43.2534C55.1962 43.2344 55.1613 43.2627 55.1847 43.2437C55.1857 43.2429 55.1867 43.2421 55.1877 43.2412C55.1887 43.2404 55.1897 43.2396 55.1907 43.2388C55.1917 43.238 55.1927 43.2372 55.1937 43.2364C55.1947 43.2356 55.1957 43.2347 55.1967 43.2339C55.1977 43.2331 55.1987 43.2323 55.1997 43.2315C55.2007 43.2307 55.2017 43.2299 55.2027 43.2291C55.2037 43.2282 55.2047 43.2274 55.2057 43.2266C55.2067 43.2258 55.2077 43.225 55.2087 43.2242C55.213 43.2207 55.2165 43.2179 55.2207 43.2144L52.856 40.304ZM51.32 41.552L48.9774 38.6237C49.0269 38.5841 49.0539 38.5661 49.044 38.573C49.0371 38.5777 49.0138 38.5935 48.9695 38.6214C48.8794 38.6783 48.7422 38.7608 48.5475 38.8721L50.408 42.128L52.2685 45.3839C52.7075 45.1331 53.2474 44.8124 53.6626 44.4803L51.32 41.552ZM50.408 42.128L48.5475 38.8721C48.0016 39.184 47.4833 39.5135 47.0024 39.8632L49.208 42.896L51.4136 45.9288C51.6367 45.7665 51.9184 45.584 52.2685 45.3839L50.408 42.128ZM49.208 42.896L47.0023 39.8632C46.4839 40.2403 45.4003 41.1087 44.9783 42.5858L48.584 43.616L52.1897 44.6462C52.0273 45.2147 51.7532 45.5724 51.6218 45.724C51.4847 45.8822 51.3898 45.9461 51.4136 45.9288L49.208 42.896ZM48.584 43.616L44.9783 42.5858C44.7391 43.423 44.732 44.5133 45.3039 45.5617C45.8208 46.5093 46.5834 47.0003 47.0509 47.2341C47.901 47.6591 48.7589 47.7228 49.144 47.7442L49.352 44L49.56 40.2558C49.3691 40.2452 49.811 40.2289 50.405 40.5259C50.7446 40.6957 51.4192 41.1107 51.8881 41.9703C52.412 42.9307 52.3969 43.921 52.1897 44.6462L48.584 43.616ZM49.352 44L49.0125 47.7346C49.8031 47.8065 50.6006 47.8423 51.3196 47.787L51.032 44.048L50.7444 40.309C50.6314 40.3177 50.3089 40.3215 49.6915 40.2654L49.352 44ZM51.032 44.048L51.3196 47.787C51.5972 47.7656 52.0485 47.75 52.712 47.75V44V40.25C51.9675 40.25 51.2988 40.2664 50.7444 40.309L51.032 44.048ZM52.712 44V47.75C53.592 47.75 54.458 47.7331 55.3099 47.699L55.16 43.952L55.0101 40.205C54.262 40.2349 53.496 40.25 52.712 40.25V44ZM55.16 43.952L55.3099 47.699C55.9598 47.673 56.6099 47.686 57.261 47.7381L57.56 44L57.859 40.2619C56.9101 40.186 55.9602 40.167 55.0101 40.205L55.16 43.952ZM57.56 44L57.1869 47.7314C57.6519 47.7779 58.1304 47.798 58.616 47.798V44.048V40.298C58.3335 40.298 58.1081 40.2861 57.9331 40.2686L57.56 44ZM58.616 44.048L58.9274 47.785C59.1042 47.7703 59.2798 47.7703 59.4566 47.785L59.768 44.048L60.0794 40.311C59.4882 40.2617 58.8958 40.2617 58.3046 40.311L58.616 44.048ZM59.768 44.048V47.798C59.8362 47.798 59.8713 47.806 59.8853 47.8099L60.872 44.192L61.8587 40.5741C61.1687 40.386 60.4678 40.298 59.768 40.298V44.048ZM60.872 44.192L60.2012 47.8815C59.9223 47.8308 59.5956 47.692 59.3146 47.4462L61.784 44.624L64.2534 41.8018C63.4604 41.108 62.5257 40.6812 61.5428 40.5025L60.872 44.192ZM61.784 44.624L59.3146 47.4462C58.9811 47.1543 58.845 46.8496 58.8024 46.7219L62.36 45.536L65.9176 44.3501C65.619 43.4544 65.0989 42.5417 64.2534 41.8018L61.784 44.624ZM62.36 45.536L58.8024 46.7219C58.797 46.7054 58.7965 46.699 58.7976 46.7062C58.7988 46.7139 58.802 46.7388 58.802 46.784H62.552H66.302C66.302 45.9757 66.1859 45.155 65.9176 44.3501L62.36 45.536ZM62.552 46.784L58.813 47.0716C58.8152 47.0997 58.8146 47.1345 58.802 47.1888L62.456 48.032L66.11 48.8752C66.2894 48.0975 66.3528 47.3003 66.291 46.4964L62.552 46.784ZM62.456 48.032L58.818 47.1225C58.846 47.0102 58.9614 46.6553 59.3244 46.2923L61.976 48.944L64.6276 51.5957C65.4386 50.7847 65.874 49.8218 66.094 48.9415L62.456 48.032ZM61.976 48.944L59.1422 46.488C59.2355 46.3804 59.4137 46.2173 59.6884 46.0885C59.9673 45.9578 60.236 45.914 60.44 45.914V49.664V53.414C62.1898 53.414 63.7179 52.6599 64.8098 51.4L61.976 48.944ZM60.44 49.664L60.6371 45.9192C59.971 45.8841 59.3289 45.866 58.712 45.866V49.616V53.366C59.1831 53.366 59.6929 53.3799 60.2429 53.4088L60.44 49.664ZM58.712 49.616V45.866H41.48V49.616V53.366H58.712V49.616ZM41.48 49.616V45.866C41.0377 45.866 40.5801 45.888 40.1126 45.927L40.424 49.664L40.7354 53.401C41.0359 53.376 41.2823 53.366 41.48 53.366V49.616ZM40.424 49.664L40.0845 45.9294C40.1639 45.9222 40.373 45.9182 40.6499 46.0104L39.464 49.568L38.2781 53.1256C39.131 53.4098 39.9801 53.4698 40.7635 53.3986L40.424 49.664ZM39.464 49.568L40.4677 45.9548C40.5702 45.9833 41.055 46.1308 41.5383 46.641C42.1031 47.2371 42.35 47.9941 42.35 48.656H38.6H34.85C34.85 49.7659 35.2409 50.8989 36.0937 51.799C36.8649 52.6132 37.7818 52.9927 38.4603 53.1812L39.464 49.568ZM38.6 48.656L42.3405 48.9232C42.3792 48.3804 42.398 47.8271 42.398 47.264H38.648H34.898C34.898 47.6609 34.8848 48.0356 34.8595 48.3888L38.6 48.656ZM38.648 47.264H42.398C42.398 47.0937 42.4309 47.0023 42.4799 46.9165L39.224 45.056L35.9681 43.1955C35.2491 44.4537 34.898 45.8343 34.898 47.264H38.648ZM39.224 45.056L42.5161 46.8517C42.7259 46.4671 42.9889 46.1144 43.3156 45.7877L40.664 43.136L38.0123 40.4843C37.1871 41.3096 36.4901 42.2369 35.9319 43.2603L39.224 45.056ZM40.664 43.136L43.3156 45.7877C43.807 45.2963 44.3206 44.8473 44.8567 44.4389L42.584 41.456L40.3113 38.4731C39.5034 39.0887 38.737 39.7597 38.0123 40.4843L40.664 43.136ZM42.584 41.456L44.8567 44.4389C45.5667 43.8979 46.2339 43.3678 46.8567 42.8488L44.456 39.968L42.0553 37.0872C41.5261 37.5282 40.9453 37.9901 40.3113 38.4731L42.584 41.456ZM44.456 39.968L46.9407 42.7767C47.7015 42.1037 48.5292 41.4233 49.4256 40.736L47.144 37.76L44.8624 34.784C43.8388 35.5687 42.8745 36.3603 41.9713 37.1593L44.456 39.968ZM47.144 37.76L49.4256 40.736C50.4334 39.9634 51.3957 39.187 52.3117 38.4067L49.88 35.552L47.4482 32.6973C46.6363 33.389 45.7746 34.0846 44.8624 34.784L47.144 37.76ZM49.88 35.552L52.2726 38.4396C53.4545 37.4602 54.4907 36.5326 55.3636 35.6597L52.712 33.008L50.0603 30.3564C49.3973 31.0194 48.5455 31.7878 47.4874 32.6644L49.88 35.552ZM52.712 33.008L55.309 35.7132C56.2235 34.8353 57.0318 33.9401 57.6835 33.0276L54.632 30.848L51.5805 28.6684C51.2722 29.0999 50.8005 29.6447 50.115 30.3028L52.712 33.008ZM54.632 30.848L57.6835 33.0276C58.3267 32.1272 58.8639 31.1575 59.2275 30.1188L55.688 28.88L52.1485 27.6412C52.0641 27.8825 51.8973 28.2248 51.5805 28.6684L54.632 30.848ZM55.688 28.88L59.2456 30.0659C59.6019 28.9967 59.774 27.8912 59.774 26.768H56.024H52.274C52.274 27.1168 52.222 27.4193 52.1304 27.6941L55.688 28.88ZM56.024 26.768H59.774C59.774 24.3342 59 21.9391 56.9989 20.1962L54.536 23.024L52.0731 25.8518C52.1086 25.8828 52.1351 25.9125 52.1671 25.993C52.2067 26.0926 52.274 26.327 52.274 26.768H56.024ZM54.536 23.024L57.0496 20.2411C55.266 18.6301 53.0608 17.93 50.744 17.93V21.68V25.43C51.4992 25.43 51.822 25.6259 52.0224 25.8069L54.536 23.024ZM50.744 21.68V17.93C49.0678 17.93 47.4524 18.2939 45.9426 19.0244L47.576 22.4L49.2094 25.7756C49.6836 25.5461 50.1802 25.43 50.744 25.43V21.68ZM47.576 22.4L45.8989 19.0459C44.3444 19.8232 43.0694 20.9614 42.089 22.383L45.176 24.512L48.263 26.641C48.5626 26.2066 48.8876 25.9368 49.2531 25.7541L47.576 22.4ZM45.176 24.512L41.8839 22.7163C41.6691 23.1101 41.4565 23.5178 41.2459 23.9389L44.6 25.616L47.9541 27.2931C48.1275 26.9462 48.2989 26.6179 48.4681 26.3077L45.176 24.512ZM44.6 25.616L41.1861 24.0642C41.1224 24.2045 41.0452 24.3402 40.9519 24.4735L44.024 26.624L47.0961 28.7745C47.4508 28.2678 47.7576 27.7315 48.0139 27.1678L44.6 25.616Z" fill="#DD6E24" mask="url(#path-1-outside-1_49_6709)"/>
<path opacity="0.9" d="M44.3215 20.8916C43.9166 20.7427 43.5846 20.4549 43.4388 20.0724C43.1756 19.375 43.6413 18.6302 44.4754 18.4102L45.8035 18.0615C46.6377 17.8415 47.5285 18.2308 47.7917 18.9281C48.0549 19.6255 47.5892 20.3703 46.7551 20.5903L45.4269 20.939C45.0504 21.0372 44.6576 21.0135 44.3215 20.8916Z" fill="white"/>
<path opacity="0.9" d="M12.7205 25.6021C12.6239 25.5897 12.524 25.5681 12.4296 25.5385C11.5149 25.2592 10.9987 24.3114 11.2789 23.4181C11.863 21.5518 12.9102 20.4213 13.0283 20.3013C13.6783 19.6215 14.7761 19.5884 15.4748 20.2281C16.1691 20.8673 16.2153 21.9291 15.5741 22.6101C15.5434 22.641 14.9373 23.3265 14.5905 24.425C14.3406 25.2218 13.5415 25.7079 12.7205 25.6021Z" fill="white"/>
<defs>
<linearGradient id="paint0_linear_49_6709" x1="33.5" y1="0" x2="33.5" y2="72" gradientUnits="userSpaceOnUse">
<stop stop-color="#FFC45C"/>
<stop offset="1" stop-color="#FF9F5C"/>
</linearGradient>
</defs>
</svg>
