<svg width="68" height="72" viewBox="0 0 68 72" fill="none" xmlns="http://www.w3.org/2000/svg">
<mask id="path-1-outside-1_49_8809" maskUnits="userSpaceOnUse" x="0" y="11" width="68" height="43" fill="black">
<rect fill="white" y="11" width="68" height="43"/>
<path d="M31.033 46.592C31.161 46.816 31.241 47.056 31.273 47.312C31.305 47.536 31.305 47.76 31.273 47.984C31.241 48.432 31.065 48.832 30.745 49.184C30.521 49.44 30.249 49.68 29.929 49.904C29.673 50.064 29.321 50.144 28.873 50.144C28.521 50.144 28.201 50.08 27.913 49.952C27.529 49.792 27.193 49.584 26.905 49.328C26.553 49.136 26.217 48.896 25.897 48.608L24.553 47.456C24.009 47.968 23.401 48.4 22.729 48.752C22.089 49.104 21.417 49.392 20.713 49.616C19.689 49.936 18.633 50.112 17.545 50.144C16.489 50.208 15.433 50.112 14.377 49.856C13.321 49.6 12.297 49.2 11.305 48.656C10.345 48.112 9.465 47.408 8.665 46.544C7.705 45.552 6.921 44.416 6.313 43.136C5.705 41.824 5.225 40.464 4.873 39.056C4.521 37.648 4.297 36.224 4.201 34.784C4.105 33.344 4.105 31.984 4.201 30.704C4.297 29.488 4.489 28.176 4.777 26.768C5.065 25.328 5.497 23.952 6.073 22.64C6.681 21.328 7.433 20.16 8.329 19.136C9.257 18.112 10.377 17.408 11.689 17.024C14.857 16.032 17.545 15.856 19.753 16.496C21.961 17.104 23.769 18.208 25.177 19.808C26.297 21.088 27.177 22.592 27.817 24.32C28.489 26.048 28.937 27.856 29.161 29.744C29.417 31.632 29.481 33.536 29.353 35.456C29.225 37.344 28.937 39.104 28.489 40.736L27.625 43.04C28.105 43.488 28.553 43.904 28.969 44.288C29.417 44.64 29.705 44.896 29.833 45.056C30.057 45.28 30.265 45.52 30.457 45.776C30.681 46 30.873 46.272 31.033 46.592ZM12.409 41.6C13.369 42.848 14.521 43.6 15.865 43.856C17.241 44.08 18.521 43.84 19.705 43.136C19.257 42.688 18.841 42.288 18.457 41.936C18.073 41.584 17.833 41.344 17.737 41.216C17.257 40.736 16.889 40.16 16.633 39.488C16.377 38.976 16.297 38.496 16.393 38.048C16.489 37.536 16.697 37.104 17.017 36.752C17.177 36.624 17.321 36.512 17.449 36.416C17.577 36.288 17.721 36.176 17.881 36.08C18.041 35.984 18.217 35.92 18.409 35.888C18.633 35.856 18.857 35.84 19.081 35.84C19.401 35.84 19.721 35.952 20.041 36.176C20.329 36.336 20.665 36.544 21.049 36.8C21.209 36.96 21.369 37.12 21.529 37.28C21.721 37.408 21.897 37.552 22.057 37.712C22.185 37.84 22.313 37.968 22.441 38.096C22.569 38.192 22.713 38.304 22.873 38.432C23.097 37.376 23.257 36.256 23.353 35.072C23.481 33.888 23.497 32.704 23.401 31.52C23.305 30.304 23.081 29.12 22.729 27.968C22.377 26.784 21.881 25.68 21.241 24.656C20.473 23.44 19.497 22.624 18.313 22.208C17.129 21.76 15.689 21.952 13.993 22.784C13.321 23.136 12.745 23.648 12.265 24.32C11.817 24.96 11.433 25.696 11.113 26.528C10.793 27.328 10.537 28.16 10.345 29.024C10.185 29.888 10.089 30.704 10.057 31.472C10.025 32.304 10.025 33.184 10.057 34.112C10.121 35.008 10.233 35.92 10.393 36.848C10.585 37.744 10.841 38.608 11.161 39.44C11.481 40.24 11.897 40.96 12.409 41.6ZM58.5591 23.216C58.2711 23.024 57.9671 22.832 57.6471 22.64C57.3271 22.416 56.9911 22.24 56.6391 22.112C55.5191 21.664 54.2871 21.424 52.9431 21.392C51.6311 21.328 50.3991 21.568 49.2471 22.112C48.3191 22.56 47.5351 23.12 46.8951 23.792C46.2871 24.464 45.7911 25.216 45.4071 26.048C45.0231 26.88 44.7351 27.76 44.5431 28.688C44.3511 29.616 44.2391 30.544 44.2071 31.472C45.0711 30.608 46.1271 29.84 47.3751 29.168C48.6231 28.464 50.2231 28.112 52.1751 28.112C53.8071 28.112 55.3271 28.352 56.7351 28.832C58.1751 29.28 59.4231 29.952 60.4791 30.848C61.5351 31.744 62.3671 32.848 62.9751 34.16C63.5831 35.472 63.8871 36.976 63.8871 38.672C63.8871 40.368 63.5671 41.92 62.9271 43.328C62.2871 44.704 61.4071 45.904 60.2871 46.928C59.1991 47.92 57.8871 48.704 56.3511 49.28C54.8471 49.824 53.2151 50.096 51.4551 50.096C49.4071 50.096 47.6151 49.792 46.0791 49.184C44.5751 48.544 43.2631 47.68 42.1431 46.592C41.5031 45.952 40.9271 45.248 40.4151 44.48C39.9351 43.68 39.5191 42.784 39.1671 41.792C38.8151 40.768 38.5431 39.6 38.3511 38.288C38.1591 36.976 38.0631 35.472 38.0631 33.776C38.0631 32.368 38.1591 30.944 38.3511 29.504C38.5431 28.064 38.8631 26.672 39.3111 25.328C39.7911 23.984 40.4151 22.72 41.1831 21.536C41.9511 20.352 42.9111 19.296 44.0631 18.368C45.1511 17.504 46.3351 16.832 47.6151 16.352C48.8951 15.872 50.2071 15.6 51.5511 15.536C52.8951 15.472 54.2391 15.6 55.5831 15.92C56.9271 16.24 58.1911 16.768 59.3751 17.504C59.6951 17.696 60.0631 17.984 60.4791 18.368C60.8951 18.72 61.2471 19.12 61.5351 19.568C61.8231 20.016 61.9991 20.528 62.0631 21.104C62.1271 21.648 61.9671 22.208 61.5831 22.784C61.5191 22.912 61.3751 23.04 61.1511 23.168C60.9271 23.296 60.6711 23.392 60.3831 23.456C60.0951 23.52 59.7911 23.536 59.4711 23.504C59.1511 23.472 58.8471 23.376 58.5591 23.216ZM51.1191 33.872C50.0311 33.936 49.0071 34.224 48.0471 34.736C47.0871 35.216 46.2551 35.872 45.5511 36.704C45.1031 37.248 44.8471 37.872 44.7831 38.576C44.7191 39.248 44.7671 39.92 44.9271 40.592C45.0551 41.392 45.3751 42.096 45.8871 42.704C46.3991 43.28 46.9911 43.76 47.6631 44.144C48.3671 44.496 49.1191 44.752 49.9191 44.912C50.7511 45.04 51.5511 45.056 52.3191 44.96C53.1831 44.864 53.9671 44.64 54.6711 44.288C55.4071 43.904 56.0311 43.44 56.5431 42.896C57.0551 42.32 57.4391 41.664 57.6951 40.928C57.9831 40.16 58.0791 39.344 57.9831 38.48C57.8871 37.552 57.6471 36.784 57.2631 36.176C56.8791 35.536 56.3831 35.04 55.7751 34.688C55.1671 34.336 54.4631 34.112 53.6631 34.016C52.8631 33.888 52.0151 33.84 51.1191 33.872Z"/>
</mask>
<path d="M31.033 46.592C31.161 46.816 31.241 47.056 31.273 47.312C31.305 47.536 31.305 47.76 31.273 47.984C31.241 48.432 31.065 48.832 30.745 49.184C30.521 49.44 30.249 49.68 29.929 49.904C29.673 50.064 29.321 50.144 28.873 50.144C28.521 50.144 28.201 50.08 27.913 49.952C27.529 49.792 27.193 49.584 26.905 49.328C26.553 49.136 26.217 48.896 25.897 48.608L24.553 47.456C24.009 47.968 23.401 48.4 22.729 48.752C22.089 49.104 21.417 49.392 20.713 49.616C19.689 49.936 18.633 50.112 17.545 50.144C16.489 50.208 15.433 50.112 14.377 49.856C13.321 49.6 12.297 49.2 11.305 48.656C10.345 48.112 9.465 47.408 8.665 46.544C7.705 45.552 6.921 44.416 6.313 43.136C5.705 41.824 5.225 40.464 4.873 39.056C4.521 37.648 4.297 36.224 4.201 34.784C4.105 33.344 4.105 31.984 4.201 30.704C4.297 29.488 4.489 28.176 4.777 26.768C5.065 25.328 5.497 23.952 6.073 22.64C6.681 21.328 7.433 20.16 8.329 19.136C9.257 18.112 10.377 17.408 11.689 17.024C14.857 16.032 17.545 15.856 19.753 16.496C21.961 17.104 23.769 18.208 25.177 19.808C26.297 21.088 27.177 22.592 27.817 24.32C28.489 26.048 28.937 27.856 29.161 29.744C29.417 31.632 29.481 33.536 29.353 35.456C29.225 37.344 28.937 39.104 28.489 40.736L27.625 43.04C28.105 43.488 28.553 43.904 28.969 44.288C29.417 44.64 29.705 44.896 29.833 45.056C30.057 45.28 30.265 45.52 30.457 45.776C30.681 46 30.873 46.272 31.033 46.592ZM12.409 41.6C13.369 42.848 14.521 43.6 15.865 43.856C17.241 44.08 18.521 43.84 19.705 43.136C19.257 42.688 18.841 42.288 18.457 41.936C18.073 41.584 17.833 41.344 17.737 41.216C17.257 40.736 16.889 40.16 16.633 39.488C16.377 38.976 16.297 38.496 16.393 38.048C16.489 37.536 16.697 37.104 17.017 36.752C17.177 36.624 17.321 36.512 17.449 36.416C17.577 36.288 17.721 36.176 17.881 36.08C18.041 35.984 18.217 35.92 18.409 35.888C18.633 35.856 18.857 35.84 19.081 35.84C19.401 35.84 19.721 35.952 20.041 36.176C20.329 36.336 20.665 36.544 21.049 36.8C21.209 36.96 21.369 37.12 21.529 37.28C21.721 37.408 21.897 37.552 22.057 37.712C22.185 37.84 22.313 37.968 22.441 38.096C22.569 38.192 22.713 38.304 22.873 38.432C23.097 37.376 23.257 36.256 23.353 35.072C23.481 33.888 23.497 32.704 23.401 31.52C23.305 30.304 23.081 29.12 22.729 27.968C22.377 26.784 21.881 25.68 21.241 24.656C20.473 23.44 19.497 22.624 18.313 22.208C17.129 21.76 15.689 21.952 13.993 22.784C13.321 23.136 12.745 23.648 12.265 24.32C11.817 24.96 11.433 25.696 11.113 26.528C10.793 27.328 10.537 28.16 10.345 29.024C10.185 29.888 10.089 30.704 10.057 31.472C10.025 32.304 10.025 33.184 10.057 34.112C10.121 35.008 10.233 35.92 10.393 36.848C10.585 37.744 10.841 38.608 11.161 39.44C11.481 40.24 11.897 40.96 12.409 41.6ZM58.5591 23.216C58.2711 23.024 57.9671 22.832 57.6471 22.64C57.3271 22.416 56.9911 22.24 56.6391 22.112C55.5191 21.664 54.2871 21.424 52.9431 21.392C51.6311 21.328 50.3991 21.568 49.2471 22.112C48.3191 22.56 47.5351 23.12 46.8951 23.792C46.2871 24.464 45.7911 25.216 45.4071 26.048C45.0231 26.88 44.7351 27.76 44.5431 28.688C44.3511 29.616 44.2391 30.544 44.2071 31.472C45.0711 30.608 46.1271 29.84 47.3751 29.168C48.6231 28.464 50.2231 28.112 52.1751 28.112C53.8071 28.112 55.3271 28.352 56.7351 28.832C58.1751 29.28 59.4231 29.952 60.4791 30.848C61.5351 31.744 62.3671 32.848 62.9751 34.16C63.5831 35.472 63.8871 36.976 63.8871 38.672C63.8871 40.368 63.5671 41.92 62.9271 43.328C62.2871 44.704 61.4071 45.904 60.2871 46.928C59.1991 47.92 57.8871 48.704 56.3511 49.28C54.8471 49.824 53.2151 50.096 51.4551 50.096C49.4071 50.096 47.6151 49.792 46.0791 49.184C44.5751 48.544 43.2631 47.68 42.1431 46.592C41.5031 45.952 40.9271 45.248 40.4151 44.48C39.9351 43.68 39.5191 42.784 39.1671 41.792C38.8151 40.768 38.5431 39.6 38.3511 38.288C38.1591 36.976 38.0631 35.472 38.0631 33.776C38.0631 32.368 38.1591 30.944 38.3511 29.504C38.5431 28.064 38.8631 26.672 39.3111 25.328C39.7911 23.984 40.4151 22.72 41.1831 21.536C41.9511 20.352 42.9111 19.296 44.0631 18.368C45.1511 17.504 46.3351 16.832 47.6151 16.352C48.8951 15.872 50.2071 15.6 51.5511 15.536C52.8951 15.472 54.2391 15.6 55.5831 15.92C56.9271 16.24 58.1911 16.768 59.3751 17.504C59.6951 17.696 60.0631 17.984 60.4791 18.368C60.8951 18.72 61.2471 19.12 61.5351 19.568C61.8231 20.016 61.9991 20.528 62.0631 21.104C62.1271 21.648 61.9671 22.208 61.5831 22.784C61.5191 22.912 61.3751 23.04 61.1511 23.168C60.9271 23.296 60.6711 23.392 60.3831 23.456C60.0951 23.52 59.7911 23.536 59.4711 23.504C59.1511 23.472 58.8471 23.376 58.5591 23.216ZM51.1191 33.872C50.0311 33.936 49.0071 34.224 48.0471 34.736C47.0871 35.216 46.2551 35.872 45.5511 36.704C45.1031 37.248 44.8471 37.872 44.7831 38.576C44.7191 39.248 44.7671 39.92 44.9271 40.592C45.0551 41.392 45.3751 42.096 45.8871 42.704C46.3991 43.28 46.9911 43.76 47.6631 44.144C48.3671 44.496 49.1191 44.752 49.9191 44.912C50.7511 45.04 51.5511 45.056 52.3191 44.96C53.1831 44.864 53.9671 44.64 54.6711 44.288C55.4071 43.904 56.0311 43.44 56.5431 42.896C57.0551 42.32 57.4391 41.664 57.6951 40.928C57.9831 40.16 58.0791 39.344 57.9831 38.48C57.8871 37.552 57.6471 36.784 57.2631 36.176C56.8791 35.536 56.3831 35.04 55.7751 34.688C55.1671 34.336 54.4631 34.112 53.6631 34.016C52.8631 33.888 52.0151 33.84 51.1191 33.872Z" fill="url(#paint0_linear_49_8809)"/>
<path d="M31.033 46.592L27.6789 48.2691L27.7254 48.3621L27.7771 48.4525L31.033 46.592ZM31.273 47.312L27.552 47.7771L27.556 47.8098L27.5607 47.8424L31.273 47.312ZM31.273 47.984L27.5607 47.4536L27.542 47.5847L27.5325 47.7168L31.273 47.984ZM30.745 49.184L27.9702 46.6615L27.9463 46.6878L27.9228 46.7146L30.745 49.184ZM29.929 49.904L31.9165 53.084L31.9994 53.0322L32.0795 52.9761L29.929 49.904ZM27.913 49.952L29.436 46.5252L29.3959 46.5074L29.3553 46.4905L27.913 49.952ZM26.905 49.328L29.3964 46.5252L29.0765 46.2408L28.7007 46.0359L26.905 49.328ZM25.897 48.608L28.4056 45.8206L28.3719 45.7903L28.3375 45.7608L25.897 48.608ZM24.553 47.456L26.9935 44.6088L24.4359 42.4166L21.9829 44.7253L24.553 47.456ZM22.729 48.752L20.989 45.4301L20.9552 45.4478L20.9218 45.4662L22.729 48.752ZM20.713 49.616L21.8315 53.1953L21.8408 53.1924L21.85 53.1895L20.713 49.616ZM17.545 50.144L17.4348 46.3956L17.3764 46.3973L17.3181 46.4009L17.545 50.144ZM14.377 49.856L13.4935 53.5004L14.377 49.856ZM11.305 48.656L9.4562 51.9186L9.47895 51.9315L9.50188 51.944L11.305 48.656ZM8.665 46.544L11.4166 43.9962L11.3885 43.9659L11.3598 43.9362L8.665 46.544ZM6.313 43.136L2.91059 44.7127L2.91807 44.7289L2.92571 44.745L6.313 43.136ZM4.873 39.056L1.23497 39.9655L4.873 39.056ZM4.201 34.784L7.9427 34.5346L4.201 34.784ZM4.201 30.704L0.462634 30.4089L0.462055 30.4162L0.461504 30.4235L4.201 30.704ZM4.777 26.768L8.45093 27.5195L8.45257 27.5115L8.45418 27.5034L4.777 26.768ZM6.073 22.64L2.67059 21.0633L2.65461 21.0977L2.63934 21.1325L6.073 22.64ZM8.329 19.136L5.5503 16.6178L5.52836 16.642L5.50684 16.6666L8.329 19.136ZM11.689 17.024L12.7424 20.623L12.7761 20.6131L12.8096 20.6027L11.689 17.024ZM19.753 16.496L18.709 20.0977L18.7332 20.1048L18.7574 20.1114L19.753 16.496ZM25.177 19.808L27.9992 17.3386L27.9922 17.3306L25.177 19.808ZM27.817 24.32L24.3004 25.6224L24.311 25.6509L24.322 25.6792L27.817 24.32ZM29.161 29.744L25.4371 30.1858L25.4408 30.2169L25.445 30.2479L29.161 29.744ZM29.353 35.456L33.0944 35.7097L33.0947 35.7054L29.353 35.456ZM28.489 40.736L32.0002 42.0527L32.0601 41.8931L32.1052 41.7287L28.489 40.736ZM27.625 43.04L24.1138 41.7233L23.2335 44.0708L25.0663 45.7815L27.625 43.04ZM28.969 44.288L26.4255 47.0435L26.535 47.1446L26.6522 47.2367L28.969 44.288ZM29.833 45.056L26.9047 47.3986L27.0345 47.5608L27.1813 47.7076L29.833 45.056ZM30.457 45.776L27.457 48.026L27.6169 48.2392L27.8053 48.4276L30.457 45.776ZM12.409 41.6L15.3813 39.3136L15.3596 39.2853L15.3373 39.2574L12.409 41.6ZM15.865 43.856L15.1633 47.5398L15.2128 47.5492L15.2625 47.5573L15.865 43.856ZM19.705 43.136L21.6215 46.3593L25.7668 43.8945L22.3567 40.4843L19.705 43.136ZM18.457 41.936L20.991 39.1717H20.991L18.457 41.936ZM17.737 41.216L20.737 38.966L20.5771 38.7528L20.3887 38.5644L17.737 41.216ZM16.633 39.488L20.1373 38.153L20.0707 37.9782L19.9871 37.8109L16.633 39.488ZM16.393 38.048L20.0598 38.8337L20.0699 38.7865L20.0788 38.7391L16.393 38.048ZM17.017 36.752L14.6744 33.8237L14.4422 34.0095L14.2422 34.2295L17.017 36.752ZM17.449 36.416L19.699 39.416L19.9122 39.2561L20.1006 39.0677L17.449 36.416ZM17.881 36.08L15.9516 32.8644L15.9516 32.8644L17.881 36.08ZM18.409 35.888L17.8787 32.1757L17.8355 32.1819L17.7925 32.189L18.409 35.888ZM20.041 36.176L17.8905 39.2481L18.0498 39.3596L18.2198 39.4541L20.041 36.176ZM21.049 36.8L23.7006 34.1483L23.4381 33.8858L23.1291 33.6798L21.049 36.8ZM21.529 37.28L18.8774 39.9317L19.1399 40.1942L19.4489 40.4002L21.529 37.28ZM22.057 37.712L24.7087 35.0604L24.7086 35.0603L22.057 37.712ZM22.441 38.096L19.7894 40.7477L19.9778 40.9361L20.191 41.096L22.441 38.096ZM22.873 38.432L20.5304 41.3603L25.2794 45.1595L26.5414 39.2101L22.873 38.432ZM23.353 35.072L19.6247 34.6689L19.6193 34.7189L19.6153 34.7689L23.353 35.072ZM23.401 31.52L19.6626 31.8151L19.6633 31.8231L23.401 31.52ZM22.729 27.968L19.1345 29.0366L19.1385 29.0502L19.1427 29.0638L22.729 27.968ZM21.241 24.656L24.421 22.6685L24.4163 22.661L24.4116 22.6535L21.241 24.656ZM18.313 22.208L16.9859 25.7153L17.0277 25.7311L17.0699 25.746L18.313 22.208ZM13.993 22.784L12.3414 19.4173L12.2969 19.4391L12.253 19.4621L13.993 22.784ZM12.265 24.32L9.2135 22.1404L9.20312 22.1549L9.19288 22.1695L12.265 24.32ZM11.113 26.528L14.5948 27.9207L14.6041 27.8975L14.613 27.8742L11.113 26.528ZM10.345 29.024L6.6843 28.2105L6.66984 28.2756L6.65769 28.3412L10.345 29.024ZM10.057 31.472L6.31023 31.3159L6.30977 31.3279L10.057 31.472ZM10.057 34.112L6.30923 34.2412L6.31161 34.3103L6.31653 34.3792L10.057 34.112ZM10.393 36.848L6.69753 37.4851L6.71038 37.5597L6.72624 37.6337L10.393 36.848ZM11.161 39.44L7.66096 40.7862L7.66993 40.8095L7.67921 40.8327L11.161 39.44ZM31.033 46.592L27.7771 48.4525C27.6595 48.2467 27.5814 48.0124 27.552 47.7771L31.273 47.312L34.994 46.8469C34.9006 46.0996 34.6625 45.3853 34.2889 44.7315L31.033 46.592ZM31.273 47.312L27.5607 47.8424C27.5424 47.7146 27.5424 47.5814 27.5607 47.4536L31.273 47.984L34.9853 48.5144C35.0676 47.9386 35.0676 47.3574 34.9853 46.7816L31.273 47.312ZM31.273 47.984L27.5325 47.7168C27.5463 47.524 27.5946 47.3143 27.6846 47.1097C27.7735 46.9076 27.8818 46.7587 27.9702 46.6615L30.745 49.184L33.5198 51.7065C34.3695 50.7718 34.9179 49.5897 35.0135 48.2512L31.273 47.984ZM30.745 49.184L27.9228 46.7146C27.9244 46.7128 27.8869 46.756 27.7785 46.8319L29.929 49.904L32.0795 52.9761C32.6111 52.604 33.1176 52.1672 33.5672 51.6534L30.745 49.184ZM29.929 49.904L27.9415 46.724C28.2315 46.5428 28.4863 46.4626 28.6419 46.4273C28.7946 46.3925 28.8814 46.394 28.873 46.394V50.144V53.894C29.7054 53.894 30.8424 53.7553 31.9165 53.084L29.929 49.904ZM28.873 50.144V46.394C28.9842 46.394 29.1913 46.4165 29.436 46.5252L27.913 49.952L26.39 53.3788C27.2107 53.7435 28.0578 53.894 28.873 53.894V50.144ZM27.913 49.952L29.3553 46.4905C29.3378 46.4832 29.3366 46.4812 29.3468 46.4875C29.3574 46.4941 29.3752 46.5064 29.3964 46.5252L26.905 49.328L24.4136 52.1308C25.0362 52.6842 25.7335 53.1064 26.4707 53.4135L27.913 49.952ZM26.905 49.328L28.7007 46.0359C28.6233 45.9937 28.5243 45.9275 28.4056 45.8206L25.897 48.608L23.3884 51.3954C23.9097 51.8645 24.4827 52.2783 25.1093 52.6201L26.905 49.328ZM25.897 48.608L28.3375 45.7608L26.9935 44.6088L24.553 47.456L22.1125 50.3032L23.4565 51.4552L25.897 48.608ZM24.553 47.456L21.9829 44.7253C21.6912 44.9997 21.3634 45.234 20.989 45.4301L22.729 48.752L24.469 52.0739C25.4386 51.566 26.3268 50.9363 27.1231 50.1867L24.553 47.456ZM22.729 48.752L20.9218 45.4662C20.4978 45.6994 20.0504 45.8916 19.576 46.0425L20.713 49.616L21.85 53.1895C22.7836 52.8924 23.6802 52.5086 24.5362 52.0378L22.729 48.752ZM20.713 49.616L19.5945 46.0367C18.902 46.2531 18.1856 46.3735 17.4348 46.3956L17.545 50.144L17.6552 53.8924C19.0804 53.8505 20.476 53.6189 21.8315 53.1953L20.713 49.616ZM17.545 50.144L17.3181 46.4009C16.6452 46.4417 15.9633 46.3819 15.2605 46.2116L14.377 49.856L13.4935 53.5004C14.9027 53.8421 16.3328 53.9743 17.7719 53.8871L17.545 50.144ZM14.377 49.856L15.2605 46.2116C14.5384 46.0365 13.8226 45.7598 13.1081 45.368L11.305 48.656L9.50188 51.944C10.7714 52.6403 12.1036 53.1635 13.4935 53.5004L14.377 49.856ZM11.305 48.656L13.1538 45.3934C12.5516 45.0522 11.9719 44.5959 11.4166 43.9962L8.665 46.544L5.9134 49.0918C6.95811 50.2201 8.13841 51.1718 9.4562 51.9186L11.305 48.656ZM8.665 46.544L11.3598 43.9362C10.6909 43.245 10.138 42.4485 9.70029 41.527L6.313 43.136L2.92571 44.745C3.704 46.3835 4.71909 47.859 5.97024 49.1518L8.665 46.544ZM6.313 43.136L9.71542 41.5593C9.20718 40.4625 8.80591 39.326 8.51103 38.1465L4.873 39.056L1.23497 39.9655C1.64409 41.602 2.20283 43.1855 2.91059 44.7127L6.313 43.136ZM4.873 39.056L8.51103 38.1465C8.21285 36.9538 8.02377 35.7506 7.9427 34.5346L4.201 34.784L0.459308 35.0334C0.570236 36.6974 0.829149 38.3422 1.23497 39.9655L4.873 39.056ZM4.201 34.784L7.9427 34.5346C7.85704 33.2497 7.85923 32.068 7.9405 30.9845L4.201 30.704L0.461504 30.4235C0.350768 31.9 0.352966 33.4383 0.459308 35.0334L4.201 34.784ZM4.201 30.704L7.93937 30.9991C8.02136 29.9606 8.18848 28.8026 8.45093 27.5195L4.777 26.768L1.10307 26.0165C0.789519 27.5494 0.57264 29.0154 0.462634 30.4089L4.201 30.704ZM4.777 26.768L8.45418 27.5034C8.69043 26.3222 9.04214 25.2056 9.50667 24.1475L6.073 22.64L2.63934 21.1325C1.95187 22.6984 1.43958 24.3338 1.09982 26.0326L4.777 26.768ZM6.073 22.64L9.47541 24.2167C9.94284 23.2081 10.5043 22.3446 11.1512 21.6054L8.329 19.136L5.50684 16.6666C4.36166 17.9754 3.41916 19.4479 2.67059 21.0633L6.073 22.64ZM8.329 19.136L11.1077 21.6542C11.5766 21.1368 12.1017 20.8105 12.7424 20.623L11.689 17.024L10.6356 13.425C8.65225 14.0055 6.93739 15.0872 5.5503 16.6178L8.329 19.136ZM11.689 17.024L12.8096 20.6027C15.5713 19.7379 17.4585 19.7353 18.709 20.0977L19.753 16.496L20.797 12.8943C17.6315 11.9767 14.1427 12.3261 10.5684 13.4453L11.689 17.024ZM19.753 16.496L18.7574 20.1114C20.3159 20.5406 21.4729 21.2752 22.3618 22.2854L25.177 19.808L27.9922 17.3306C26.0651 15.1408 23.6061 13.6674 20.7486 12.8806L19.753 16.496ZM25.177 19.808L22.3548 22.2774C23.1501 23.1863 23.8057 24.2866 24.3004 25.6224L27.817 24.32L31.3336 23.0176C30.5483 20.8974 29.4439 18.9897 27.9992 17.3386L25.177 19.808ZM27.817 24.32L24.322 25.6792C24.8764 27.1048 25.2494 28.604 25.4371 30.1858L29.161 29.744L32.8849 29.3022C32.6246 27.108 32.1016 24.9912 31.312 22.9608L27.817 24.32ZM29.161 29.744L25.445 30.2479C25.6668 31.8838 25.7227 33.5354 25.6113 35.2066L29.353 35.456L33.0947 35.7054C33.2393 33.5366 33.1672 31.3802 32.877 29.2401L29.161 29.744ZM29.353 35.456L25.6116 35.2023C25.4986 36.8693 25.2472 38.3792 24.8728 39.7433L28.489 40.736L32.1052 41.7287C32.6268 39.8288 32.9514 37.8187 33.0944 35.7097L29.353 35.456ZM28.489 40.736L24.9778 39.4193L24.1138 41.7233L27.625 43.04L31.1362 44.3567L32.0002 42.0527L28.489 40.736ZM27.625 43.04L25.0663 45.7815C25.5506 46.2334 26.0037 46.6542 26.4255 47.0435L28.969 44.288L31.5126 41.5325C31.1023 41.1538 30.6594 40.7426 30.1837 40.2985L27.625 43.04ZM28.969 44.288L26.6522 47.2367C26.8418 47.3857 26.9621 47.4868 27.0296 47.5468C27.0625 47.576 27.0683 47.5826 27.0554 47.5697C27.0481 47.5624 27.0315 47.5456 27.0082 47.52C26.9854 47.4951 26.9491 47.4541 26.9047 47.3986L29.833 45.056L32.7613 42.7134C32.3227 42.1652 31.6945 41.6604 31.2858 41.3393L28.969 44.288ZM29.833 45.056L27.1813 47.7076C27.2786 47.8049 27.3704 47.9105 27.457 48.026L30.457 45.776L33.457 43.526C33.1596 43.1295 32.8354 42.7551 32.4847 42.4044L29.833 45.056ZM30.457 45.776L27.8053 48.4276C27.7101 48.3324 27.6761 48.2635 27.6789 48.2691L31.033 46.592L34.3871 44.915C34.0699 44.2805 33.6519 43.6676 33.1087 43.1244L30.457 45.776ZM12.409 41.6L9.43666 43.8864C10.8668 45.7456 12.7816 47.0861 15.1633 47.5398L15.865 43.856L16.5667 40.1722C16.2604 40.1139 15.8712 39.9504 15.3813 39.3136L12.409 41.6ZM15.865 43.856L15.2625 47.5573C17.4967 47.921 19.6701 47.5195 21.6215 46.3593L19.705 43.136L17.7885 39.9127C17.3719 40.1605 16.9853 40.239 16.4675 40.1547L15.865 43.856ZM19.705 43.136L22.3567 40.4843C21.8781 40.0058 21.4224 39.5672 20.991 39.1717L18.457 41.936L15.923 44.7003C16.2596 45.0088 16.6359 45.3702 17.0534 45.7877L19.705 43.136ZM18.457 41.936L20.991 39.1717C20.8203 39.0152 20.7077 38.9074 20.6406 38.8403C20.6075 38.8072 20.5982 38.7967 20.6053 38.8045C20.6095 38.8091 20.6228 38.8237 20.6424 38.847C20.6611 38.869 20.6948 38.9098 20.737 38.966L17.737 41.216L14.737 43.466C15.0811 43.9248 15.5985 44.4028 15.923 44.7003L18.457 41.936ZM17.737 41.216L20.3887 38.5644C20.3045 38.4802 20.2165 38.3608 20.1373 38.153L16.633 39.488L13.1287 40.823C13.5615 41.9592 14.2095 42.9918 15.0853 43.8676L17.737 41.216ZM16.633 39.488L19.9871 37.8109C19.9976 37.832 20.0488 37.9405 20.08 38.1275C20.1127 38.3236 20.1166 38.5684 20.0598 38.8337L16.393 38.048L12.7262 37.2623C12.4111 38.7331 12.7393 40.0858 13.2789 41.1651L16.633 39.488ZM16.393 38.048L20.0788 38.7391C20.0712 38.7794 20.0505 38.8613 19.9998 38.9668C19.948 39.0744 19.8772 39.1805 19.7918 39.2745L17.017 36.752L14.2422 34.2295C13.4108 35.1441 12.9187 36.229 12.7072 37.3569L16.393 38.048ZM17.017 36.752L19.3596 39.6803C19.4971 39.5703 19.6095 39.4832 19.699 39.416L17.449 36.416L15.199 33.416C15.0325 33.5408 14.8569 33.6777 14.6744 33.8237L17.017 36.752ZM17.449 36.416L20.1006 39.0677C20.0052 39.1631 19.9052 39.2387 19.8104 39.2956L17.881 36.08L15.9516 32.8644C15.5368 33.1133 15.1488 33.4129 14.7974 33.7643L17.449 36.416ZM17.881 36.08L19.8104 39.2956C19.5496 39.4521 19.2772 39.545 19.0255 39.587L18.409 35.888L17.7925 32.189C17.1568 32.295 16.5324 32.5159 15.9516 32.8644L17.881 36.08ZM18.409 35.888L18.9393 39.6003C18.9895 39.5932 19.0362 39.59 19.081 39.59V35.84V32.09C18.6778 32.09 18.2765 32.1189 17.8787 32.1757L18.409 35.888ZM19.081 35.84V39.59C18.4756 39.59 18.0597 39.3665 17.8905 39.2481L20.041 36.176L22.1915 33.1039C21.3823 32.5375 20.3264 32.09 19.081 32.09V35.84ZM20.041 36.176L18.2198 39.4541C18.3923 39.5499 18.6385 39.7 18.9689 39.9202L21.049 36.8L23.1291 33.6798C22.6915 33.388 22.2657 33.1221 21.8622 32.8979L20.041 36.176ZM21.049 36.8L18.3974 39.4517C18.5574 39.6117 18.7174 39.7717 18.8774 39.9317L21.529 37.28L24.1807 34.6283C24.0206 34.4683 23.8606 34.3083 23.7006 34.1483L21.049 36.8ZM21.529 37.28L19.4489 40.4002C19.4395 40.3939 19.4234 40.3817 19.4054 40.3637L22.057 37.712L24.7086 35.0603C24.3706 34.7223 24.0025 34.4221 23.6091 34.1598L21.529 37.28ZM22.057 37.712L19.4053 40.3636C19.5333 40.4916 19.6614 40.6197 19.7894 40.7477L22.441 38.096L25.0926 35.4443C24.9647 35.3163 24.8367 35.1884 24.7087 35.0604L22.057 37.712ZM22.441 38.096L20.191 41.096C20.2805 41.1632 20.3929 41.2503 20.5304 41.3603L22.873 38.432L25.2156 35.5037C25.0331 35.3577 24.8575 35.2208 24.691 35.096L22.441 38.096ZM22.873 38.432L26.5414 39.2101C26.8017 37.9828 26.9831 36.7031 27.0907 35.3751L23.353 35.072L19.6153 34.7689C19.5309 35.8089 19.3923 36.7692 19.2046 37.6539L22.873 38.432ZM23.353 35.072L27.0813 35.4751C27.2346 34.0571 27.2538 32.6367 27.1387 31.2169L23.401 31.52L19.6633 31.8231C19.7402 32.7713 19.7274 33.7189 19.6247 34.6689L23.353 35.072ZM23.401 31.52L27.1394 31.2249C27.0222 29.7407 26.7479 28.288 26.3153 26.8722L22.729 27.968L19.1427 29.0638C19.4141 29.952 19.5878 30.8673 19.6626 31.8151L23.401 31.52ZM22.729 27.968L26.3235 26.8994C25.8775 25.3993 25.244 23.9853 24.421 22.6685L21.241 24.656L18.061 26.6435C18.518 27.3747 18.8765 28.1687 19.1345 29.0366L22.729 27.968ZM21.241 24.656L24.4116 22.6535C23.2616 20.8327 21.6514 19.4062 19.5561 18.67L18.313 22.208L17.0699 25.746C17.3426 25.8418 17.6844 26.0473 18.0704 26.6585L21.241 24.656ZM18.313 22.208L19.6401 18.7007C17.0947 17.7375 14.5099 18.3535 12.3414 19.4173L13.993 22.784L15.6446 26.1507C16.8681 25.5505 17.1633 25.7825 16.9859 25.7153L18.313 22.208ZM13.993 22.784L12.253 19.4621C11.0153 20.1104 10.0043 21.0333 9.2135 22.1404L12.265 24.32L15.3165 26.4996C15.4857 26.2627 15.6267 26.1616 15.733 26.1059L13.993 22.784ZM12.265 24.32L9.19288 22.1695C8.54756 23.0914 8.02732 24.1045 7.61296 25.1818L11.113 26.528L14.613 27.8742C14.8387 27.2875 15.0864 26.8286 15.3371 26.4705L12.265 24.32ZM11.113 26.528L7.63121 25.1353C7.23403 26.1283 6.91902 27.1543 6.6843 28.2105L10.345 29.024L14.0057 29.8375C14.155 29.1657 14.352 28.5277 14.5948 27.9207L11.113 26.528ZM10.345 29.024L6.65769 28.3412C6.46994 29.355 6.35057 30.3482 6.31025 31.3159L10.057 31.472L13.8037 31.6281C13.8274 31.0598 13.9001 30.421 14.0323 29.7068L10.345 29.024ZM10.057 31.472L6.30977 31.3279C6.2739 32.2606 6.27444 33.2323 6.30923 34.2412L10.057 34.112L13.8048 33.9828C13.7756 33.1357 13.7761 32.3474 13.8042 31.6161L10.057 31.472ZM10.057 34.112L6.31653 34.3792C6.3898 35.405 6.51742 36.4405 6.69753 37.4851L10.393 36.848L14.0885 36.2108C13.9486 35.3995 13.8522 34.611 13.7975 33.8448L10.057 34.112ZM10.393 36.848L6.72624 37.6337C6.958 38.7153 7.26896 39.767 7.66096 40.7862L11.161 39.44L14.661 38.0938C14.413 37.449 14.212 36.7727 14.0598 36.0623L10.393 36.848ZM11.161 39.44L7.67921 40.8327C8.12902 41.9572 8.72702 43.0005 9.48074 43.9426L12.409 41.6L15.3373 39.2574C15.067 38.9195 14.833 38.5228 14.6428 38.0473L11.161 39.44ZM58.5591 23.216L56.479 26.3362L56.6053 26.4204L56.738 26.4941L58.5591 23.216ZM57.6471 22.64L55.4966 25.7121L55.6047 25.7877L55.7178 25.8556L57.6471 22.64ZM56.6391 22.112L55.2464 25.5938L55.3017 25.6159L55.3576 25.6362L56.6391 22.112ZM52.9431 21.392L52.7604 25.1375L52.8071 25.1398L52.8539 25.1409L52.9431 21.392ZM49.2471 22.112L47.6458 18.7211L47.6313 18.7279L47.6168 18.7349L49.2471 22.112ZM46.8951 23.792L44.1796 21.2058L44.1465 21.2405L44.1144 21.2761L46.8951 23.792ZM45.4071 26.048L42.0023 24.4765L45.4071 26.048ZM44.5431 28.688L40.8709 27.9282L40.8709 27.9282L44.5431 28.688ZM44.2071 31.472L40.4594 31.3428L40.1315 40.8509L46.8588 34.1236L44.2071 31.472ZM47.3751 29.168L49.153 32.4698L49.1855 32.4523L49.2176 32.4342L47.3751 29.168ZM56.7351 28.832L55.5251 32.3814L55.5729 32.3977L55.6211 32.4127L56.7351 28.832ZM60.4791 30.848L62.9053 27.9886L60.4791 30.848ZM62.9271 43.328L66.3273 44.9095L66.3342 44.8947L66.341 44.8798L62.9271 43.328ZM60.2871 46.928L62.8137 49.6991L62.8175 49.6956L60.2871 46.928ZM56.3511 49.28L57.6266 52.8064L57.6473 52.7989L57.6678 52.7912L56.3511 49.28ZM46.0791 49.184L44.6108 52.6346L44.6546 52.6532L44.6989 52.6708L46.0791 49.184ZM42.1431 46.592L39.4915 49.2436L39.5107 49.2629L39.5302 49.2818L42.1431 46.592ZM40.4151 44.48L37.1995 46.4094L37.2454 46.4859L37.2949 46.5601L40.4151 44.48ZM39.1671 41.792L35.6208 43.011L35.6268 43.0286L35.633 43.046L39.1671 41.792ZM38.3511 38.288L42.0616 37.745L38.3511 38.288ZM38.3511 29.504L42.0682 29.9996H42.0682L38.3511 29.504ZM39.3111 25.328L35.7796 24.0667L35.7662 24.1043L35.7536 24.1421L39.3111 25.328ZM44.0631 18.368L41.7311 15.4313L41.7208 15.4395L41.7106 15.4477L44.0631 18.368ZM47.6151 16.352L46.2984 12.8408L47.6151 16.352ZM51.5511 15.536L51.3728 11.7902H51.3727L51.5511 15.536ZM55.5831 15.92L56.4517 12.272L55.5831 15.92ZM59.3751 17.504L57.3954 20.6888L57.4204 20.7044L57.4458 20.7196L59.3751 17.504ZM60.4791 18.368L57.9356 21.1235L57.9951 21.1784L58.0568 21.2307L60.4791 18.368ZM62.0631 21.104L58.3361 21.5181L58.3374 21.5301L58.3388 21.5422L62.0631 21.104ZM61.5831 22.784L58.4629 20.7039L58.3334 20.8981L58.229 21.1069L61.5831 22.784ZM61.1511 23.168L63.0116 26.4239L63.0117 26.4239L61.1511 23.168ZM60.3831 23.456L59.5696 19.7953L59.5696 19.7953L60.3831 23.456ZM59.4711 23.504L59.8443 19.7726L59.8443 19.7726L59.4711 23.504ZM51.1191 33.872L50.9853 30.1244L50.9421 30.1259L50.8989 30.1285L51.1191 33.872ZM48.0471 34.736L49.7242 38.0901L49.7683 38.068L49.8118 38.0448L48.0471 34.736ZM45.5511 36.704L42.6884 34.2817L42.6723 34.3008L42.6564 34.3201L45.5511 36.704ZM44.7831 38.576L48.5162 38.9315L48.517 38.9235L48.5177 38.9155L44.7831 38.576ZM44.9271 40.592L48.63 39.9995L48.6078 39.8604L48.5751 39.7234L44.9271 40.592ZM45.8871 42.704L43.0187 45.1195L43.051 45.1579L43.0843 45.1954L45.8871 42.704ZM47.6631 44.144L45.8026 47.3999L45.893 47.4516L45.9861 47.4981L47.6631 44.144ZM49.9191 44.912L49.1837 48.5892L49.266 48.6056L49.3489 48.6184L49.9191 44.912ZM52.3191 44.96L51.905 41.2329L51.8795 41.2358L51.854 41.239L52.3191 44.96ZM54.6711 44.288L56.3482 47.6421L56.3771 47.6276L56.4057 47.6127L54.6711 44.288ZM56.5431 42.896L59.2739 45.4661L59.3105 45.4273L59.3459 45.3874L56.5431 42.896ZM57.6951 40.928L54.1839 39.6113L54.1681 39.6535L54.1533 39.696L57.6951 40.928ZM57.9831 38.48L54.253 38.8659L54.2545 38.88L54.2561 38.8941L57.9831 38.48ZM57.2631 36.176L54.0475 38.1054L54.0696 38.1422L54.0925 38.1785L57.2631 36.176ZM55.7751 34.688L53.8962 37.9333L53.8962 37.9334L55.7751 34.688ZM53.6631 34.016L53.0707 37.7189L53.1433 37.7305L53.2163 37.7393L53.6631 34.016ZM58.5591 23.216L60.6392 20.0958C60.2981 19.8684 59.9436 19.6447 59.5765 19.4244L57.6471 22.64L55.7178 25.8556C55.9907 26.0193 56.2441 26.1796 56.479 26.3362L58.5591 23.216ZM57.6471 22.64L59.7976 19.5679C59.2205 19.1639 58.5938 18.8326 57.9207 18.5878L56.6391 22.112L55.3576 25.6362C55.3885 25.6474 55.4337 25.6681 55.4966 25.7121L57.6471 22.64ZM56.6391 22.112L58.0318 18.6302C56.452 17.9983 54.7724 17.6845 53.0324 17.6431L52.9431 21.392L52.8539 25.1409C53.8018 25.1635 54.5863 25.3297 55.2464 25.5938L56.6391 22.112ZM52.9431 21.392L53.1258 17.6465C51.2189 17.5534 49.3721 17.9059 47.6458 18.7211L49.2471 22.112L50.8484 25.5029C51.4262 25.2301 52.0433 25.1026 52.7604 25.1375L52.9431 21.392ZM49.2471 22.112L47.6168 18.7349C46.3272 19.3575 45.1633 20.1729 44.1796 21.2058L46.8951 23.792L49.6106 26.3782C49.9069 26.0671 50.3111 25.7625 50.8774 25.4891L49.2471 22.112ZM46.8951 23.792L44.1144 21.2761C43.2489 22.2327 42.5435 23.3038 42.0023 24.4765L45.4071 26.048L48.812 27.6195C49.0387 27.1282 49.3254 26.6953 49.6759 26.3079L46.8951 23.792ZM45.4071 26.048L42.0023 24.4765C41.4945 25.5768 41.1188 26.7299 40.8709 27.9282L44.5431 28.688L48.2154 29.4478C48.3514 28.7901 48.5518 28.1832 48.812 27.6195L45.4071 26.048ZM44.5431 28.688L40.8709 27.9282C40.6368 29.0596 40.4988 30.1985 40.4594 31.3428L44.2071 31.472L47.9549 31.6012C47.9794 30.8895 48.0654 30.1724 48.2154 29.4478L44.5431 28.688ZM44.2071 31.472L46.8588 34.1236C47.4273 33.5551 48.1762 32.9958 49.153 32.4698L47.3751 29.168L45.5972 25.8662C44.0781 26.6842 42.715 27.6609 41.5555 28.8204L44.2071 31.472ZM47.3751 29.168L49.2176 32.4342C49.736 32.1417 50.6447 31.862 52.1751 31.862V28.112V24.362C49.8015 24.362 47.5102 24.7863 45.5327 25.9018L47.3751 29.168ZM52.1751 28.112V31.862C53.4353 31.862 54.5427 32.0465 55.5251 32.3814L56.7351 28.832L57.9452 25.2826C56.1116 24.6575 54.1789 24.362 52.1751 24.362V28.112ZM56.7351 28.832L55.6211 32.4127C56.6229 32.7244 57.4144 33.1656 58.053 33.7074L60.4791 30.848L62.9053 27.9886C61.4318 26.7384 59.7274 25.8356 57.8491 25.2513L56.7351 28.832ZM60.4791 30.848L58.053 33.7074C58.6761 34.2361 59.183 34.8957 59.5727 35.7367L62.9751 34.16L66.3775 32.5833C65.5513 30.8003 64.3942 29.2519 62.9053 27.9886L60.4791 30.848ZM62.9751 34.16L59.5727 35.7367C59.9155 36.4764 60.1371 37.4272 60.1371 38.672H63.8871H67.6371C67.6371 36.5248 67.2508 34.4676 66.3775 32.5833L62.9751 34.16ZM63.8871 38.672H60.1371C60.1371 39.8849 59.9111 40.901 59.5132 41.7762L62.9271 43.328L66.341 44.8798C67.2231 42.939 67.6371 40.8511 67.6371 38.672H63.8871ZM62.9271 43.328L59.5269 41.7465C59.0957 42.6736 58.5113 43.4705 57.7567 44.1604L60.2871 46.928L62.8175 49.6956C64.3029 48.3375 65.4785 46.7344 66.3273 44.9095L62.9271 43.328ZM60.2871 46.928L57.7605 44.1569C57.0632 44.7928 56.1746 45.3412 55.0344 45.7688L56.3511 49.28L57.6678 52.7912C59.5996 52.0668 61.3351 51.0472 62.8137 49.6991L60.2871 46.928ZM56.3511 49.28L55.0756 45.7536C54.0197 46.1355 52.8238 46.346 51.4551 46.346V50.096V53.846C53.6065 53.846 55.6746 53.5125 57.6266 52.8064L56.3511 49.28ZM51.4551 50.096V46.346C49.7702 46.346 48.4645 46.0951 47.4593 45.6972L46.0791 49.184L44.6989 52.6708C46.7657 53.4889 49.044 53.846 51.4551 53.846V50.096ZM46.0791 49.184L47.5475 45.7334C46.4484 45.2658 45.5293 44.6533 44.7561 43.9022L42.1431 46.592L39.5302 49.2818C40.997 50.7067 42.7018 51.8222 44.6108 52.6346L46.0791 49.184ZM42.1431 46.592L44.7948 43.9403C44.3328 43.4784 43.9131 42.9665 43.5353 42.3999L40.4151 44.48L37.2949 46.5601C37.9412 47.5295 38.6734 48.4256 39.4915 49.2436L42.1431 46.592ZM40.4151 44.48L43.6307 42.5506C43.2942 41.9898 42.9802 41.3242 42.7012 40.538L39.1671 41.792L35.633 43.046C36.058 44.2438 36.576 45.3702 37.1995 46.4094L40.4151 44.48ZM39.1671 41.792L42.7134 40.573C42.4516 39.8111 42.2271 38.8761 42.0616 37.745L38.3511 38.288L34.6406 38.831C34.8591 40.3239 35.1787 41.7249 35.6208 43.011L39.1671 41.792ZM38.3511 38.288L42.0616 37.745C41.902 36.6543 41.8131 35.3377 41.8131 33.776H38.0631H34.3131C34.3131 35.6063 34.4163 37.2977 34.6406 38.831L38.3511 38.288ZM38.0631 33.776H41.8131C41.8131 32.5389 41.8974 31.2805 42.0682 29.9996L38.3511 29.504L34.634 29.0084C34.4208 30.6075 34.3131 32.1971 34.3131 33.776H38.0631ZM38.3511 29.504L42.0682 29.9996C42.2297 28.7882 42.4974 27.6277 42.8687 26.5139L39.3111 25.328L35.7536 24.1421C35.2288 25.7163 34.8565 27.3398 34.634 29.0084L38.3511 29.504ZM39.3111 25.328L42.8427 26.5893C43.2259 25.516 43.7213 24.514 44.3292 23.5767L41.1831 21.536L38.037 19.4953C37.109 20.926 36.3563 22.452 35.7796 24.0667L39.3111 25.328ZM41.1831 21.536L44.3292 23.5767C44.8707 22.7419 45.5581 21.9791 46.4156 21.2883L44.0631 18.368L41.7106 15.4477C40.2642 16.6129 39.0315 17.9621 38.037 19.4953L41.1831 21.536ZM44.0631 18.368L46.3952 21.3047C47.1818 20.68 48.0242 20.2036 48.9318 19.8632L47.6151 16.352L46.2984 12.8408C44.646 13.4604 43.1204 14.328 41.7311 15.4313L44.0631 18.368ZM47.6151 16.352L48.9318 19.8632C49.8528 19.5179 50.7811 19.3269 51.7295 19.2818L51.5511 15.536L51.3727 11.7902C49.6332 11.8731 47.9374 12.2261 46.2984 12.8408L47.6151 16.352ZM51.5511 15.536L51.7295 19.2818C52.7123 19.235 53.7039 19.3274 54.7145 19.568L55.5831 15.92L56.4517 12.272C54.7743 11.8726 53.078 11.709 51.3728 11.7902L51.5511 15.536ZM55.5831 15.92L54.7145 19.568C55.662 19.7936 56.5512 20.1641 57.3954 20.6888L59.3751 17.504L61.3549 14.3192C59.831 13.3719 58.1922 12.6864 56.4517 12.272L55.5831 15.92ZM59.3751 17.504L57.4458 20.7196C57.4451 20.7192 57.4888 20.7458 57.58 20.8171C57.6692 20.887 57.7873 20.9867 57.9356 21.1235L60.4791 18.368L63.0227 15.6125C62.5042 15.1339 61.9261 14.6614 61.3045 14.2884L59.3751 17.504ZM60.4791 18.368L58.0568 21.2307C58.1954 21.3479 58.2986 21.4682 58.3807 21.5958L61.5351 19.568L64.6895 17.5402C64.1956 16.7718 63.5949 16.0921 62.9014 15.5053L60.4791 18.368ZM61.5351 19.568L58.3807 21.5958C58.3594 21.5627 58.3449 21.5306 58.3368 21.507C58.3291 21.4846 58.3324 21.4851 58.3361 21.5181L62.0631 21.104L65.7902 20.6899C65.668 19.5906 65.3172 18.5166 64.6895 17.5402L61.5351 19.568ZM62.0631 21.104L58.3388 21.5422C58.3093 21.291 58.3379 21.068 58.3854 20.9018C58.4299 20.7462 58.4792 20.6795 58.4629 20.7039L61.5831 22.784L64.7033 24.8641C65.4474 23.748 65.9806 22.3078 65.7874 20.6658L62.0631 21.104ZM61.5831 22.784L58.229 21.1069C58.4703 20.6244 58.7673 20.323 58.9358 20.1732C59.1104 20.018 59.2478 19.9365 59.2906 19.9121L61.1511 23.168L63.0117 26.4239C63.4306 26.1845 64.3691 25.5972 64.9372 24.4611L61.5831 22.784ZM61.1511 23.168L59.2906 19.9121C59.4363 19.8288 59.542 19.8014 59.5696 19.7953L60.3831 23.456L61.1966 27.1167C61.8002 26.9826 62.4179 26.7632 63.0116 26.4239L61.1511 23.168ZM60.3831 23.456L59.5696 19.7953C59.7044 19.7654 59.8031 19.7685 59.8443 19.7726L59.4711 23.504L59.098 27.2354C59.7792 27.3035 60.4859 27.2746 61.1966 27.1167L60.3831 23.456ZM59.4711 23.504L59.8443 19.7726C60.0454 19.7927 60.2327 19.8559 60.3803 19.9379L58.5591 23.216L56.738 26.4941C57.4615 26.8961 58.2569 27.1513 59.098 27.2354L59.4711 23.504ZM51.1191 33.872L50.8989 30.1285C49.2717 30.2242 47.7207 30.6601 46.2824 31.4272L48.0471 34.736L49.8118 38.0448C50.2935 37.7879 50.7905 37.6478 51.3393 37.6155L51.1191 33.872ZM48.0471 34.736L46.3701 31.3819C44.9487 32.0926 43.7153 33.0682 42.6884 34.2817L45.5511 36.704L48.4138 39.1263C48.795 38.6758 49.2256 38.3394 49.7242 38.0901L48.0471 34.736ZM45.5511 36.704L42.6564 34.3201C41.7278 35.4476 41.1805 36.7846 41.0485 38.2365L44.7831 38.576L48.5177 38.9155C48.5178 38.9148 48.5169 38.9242 48.5128 38.9415C48.5086 38.959 48.502 38.9802 48.4925 39.0033C48.4718 39.0538 48.4496 39.0833 48.4459 39.0879L45.5511 36.704ZM44.7831 38.576L41.05 38.2205C40.9461 39.312 41.026 40.3975 41.2791 41.4606L44.9271 40.592L48.5751 39.7234C48.5083 39.4425 48.4922 39.184 48.5162 38.9315L44.7831 38.576ZM44.9271 40.592L41.2242 41.1845C41.4576 42.643 42.0594 43.9804 43.0187 45.1195L45.8871 42.704L48.7555 40.2885C48.6908 40.2116 48.6527 40.141 48.63 39.9995L44.9271 40.592ZM45.8871 42.704L43.0843 45.1954C43.868 46.077 44.7786 46.8148 45.8026 47.3999L47.6631 44.144L49.5236 40.8881C49.2036 40.7052 48.9302 40.483 48.6899 40.2126L45.8871 42.704ZM47.6631 44.144L45.9861 47.4981C46.9989 48.0045 48.0688 48.3662 49.1837 48.5892L49.9191 44.912L50.6546 41.2348C50.1694 41.1378 49.7353 40.9875 49.3402 40.7899L47.6631 44.144ZM49.9191 44.912L49.3489 48.6184C50.4939 48.7945 51.6434 48.8236 52.7843 48.681L52.3191 44.96L51.854 41.239C51.4588 41.2884 51.0084 41.2855 50.4893 41.2056L49.9191 44.912ZM52.3191 44.96L52.7332 48.6871C53.9911 48.5473 55.2093 48.2116 56.3482 47.6421L54.6711 44.288L52.9941 40.9339C52.725 41.0684 52.3751 41.1807 51.905 41.2329L52.3191 44.96ZM54.6711 44.288L56.4057 47.6127C57.4726 47.0561 58.4442 46.3476 59.2739 45.4661L56.5431 42.896L53.8124 40.3259C53.618 40.5324 53.3417 40.7519 52.9365 40.9633L54.6711 44.288ZM56.5431 42.896L59.3459 45.3874C60.1881 44.4399 60.8214 43.3548 61.237 42.16L57.6951 40.928L54.1533 39.696C54.0569 39.9732 53.9221 40.2001 53.7403 40.4046L56.5431 42.896ZM57.6951 40.928L61.2064 42.2447C61.7137 40.8918 61.8673 39.4798 61.7102 38.0659L57.9831 38.48L54.2561 38.8941C54.291 39.2082 54.2525 39.4282 54.1839 39.6113L57.6951 40.928ZM57.9831 38.48L61.7132 38.0941C61.5748 36.7562 61.204 35.3932 60.4337 34.1735L57.2631 36.176L54.0925 38.1785C54.0902 38.1748 54.1994 38.3478 54.253 38.8659L57.9831 38.48ZM57.2631 36.176L60.4787 34.2466C59.7889 33.0969 58.8463 32.1329 57.654 31.4426L55.7751 34.688L53.8962 37.9334C53.92 37.9471 53.9693 37.9751 54.0475 38.1054L57.2631 36.176ZM55.7751 34.688L57.654 31.4427C56.546 30.8012 55.3411 30.4404 54.1099 30.2927L53.6631 34.016L53.2163 37.7393C53.5852 37.7836 53.7882 37.8708 53.8962 37.9333L55.7751 34.688ZM53.6631 34.016L54.2556 30.3131C53.1916 30.1429 52.0989 30.0846 50.9853 30.1244L51.1191 33.872L51.253 37.6196C51.9314 37.5954 52.5346 37.6331 53.0707 37.7189L53.6631 34.016Z" fill="#DD6E24" mask="url(#path-1-outside-1_49_8809)"/>
<path opacity="0.9" d="M45.3215 20.8916C44.9166 20.7427 44.5846 20.4549 44.4388 20.0724C44.1756 19.375 44.6413 18.6302 45.4754 18.4102L46.8035 18.0615C47.6377 17.8415 48.5285 18.2308 48.7917 18.9281C49.0549 19.6255 48.5892 20.3703 47.7551 20.5903L46.4269 20.939C46.0504 21.0372 45.6576 21.0135 45.3215 20.8916Z" fill="white"/>
<path opacity="0.9" d="M13.7205 25.6021C13.6239 25.5897 13.524 25.5681 13.4296 25.5385C12.5149 25.2592 11.9987 24.3114 12.2789 23.4181C12.863 21.5518 13.9102 20.4213 14.0283 20.3013C14.6783 19.6215 15.7761 19.5884 16.4748 20.2281C17.1691 20.8673 17.2153 21.9291 16.5741 22.6101C16.5434 22.641 15.9373 23.3265 15.5905 24.425C15.3406 25.2218 14.5415 25.7079 13.7205 25.6021Z" fill="white"/>
<defs>
<linearGradient id="paint0_linear_49_8809" x1="34" y1="0" x2="34" y2="72" gradientUnits="userSpaceOnUse">
<stop stop-color="#FFC45C"/>
<stop offset="1" stop-color="#FF9F5C"/>
</linearGradient>
</defs>
</svg>
