<svg width="66" height="72" viewBox="0 0 66 72" fill="none" xmlns="http://www.w3.org/2000/svg">
<mask id="path-1-outside-1_49_9859" maskUnits="userSpaceOnUse" x="0" y="11" width="66" height="43" fill="black">
<rect fill="white" y="11" width="66" height="43"/>
<path d="M30.9236 46.592C31.0516 46.816 31.1316 47.056 31.1636 47.312C31.1956 47.536 31.1956 47.76 31.1636 47.984C31.1316 48.432 30.9556 48.832 30.6356 49.184C30.4116 49.44 30.1396 49.68 29.8196 49.904C29.5636 50.064 29.2116 50.144 28.7636 50.144C28.4116 50.144 28.0916 50.08 27.8036 49.952C27.4196 49.792 27.0836 49.584 26.7956 49.328C26.4436 49.136 26.1076 48.896 25.7876 48.608L24.4436 47.456C23.8996 47.968 23.2916 48.4 22.6196 48.752C21.9796 49.104 21.3076 49.392 20.6036 49.616C19.5796 49.936 18.5236 50.112 17.4356 50.144C16.3796 50.208 15.3236 50.112 14.2676 49.856C13.2116 49.6 12.1876 49.2 11.1956 48.656C10.2356 48.112 9.35563 47.408 8.55563 46.544C7.59563 45.552 6.81163 44.416 6.20363 43.136C5.59563 41.824 5.11563 40.464 4.76363 39.056C4.41163 37.648 4.18763 36.224 4.09163 34.784C3.99563 33.344 3.99563 31.984 4.09163 30.704C4.18763 29.488 4.37963 28.176 4.66763 26.768C4.95563 25.328 5.38763 23.952 5.96363 22.64C6.57163 21.328 7.32363 20.16 8.21963 19.136C9.14763 18.112 10.2676 17.408 11.5796 17.024C14.7476 16.032 17.4356 15.856 19.6436 16.496C21.8516 17.104 23.6596 18.208 25.0676 19.808C26.1876 21.088 27.0676 22.592 27.7076 24.32C28.3796 26.048 28.8276 27.856 29.0516 29.744C29.3076 31.632 29.3716 33.536 29.2436 35.456C29.1156 37.344 28.8276 39.104 28.3796 40.736L27.5156 43.04C27.9956 43.488 28.4436 43.904 28.8596 44.288C29.3076 44.64 29.5956 44.896 29.7236 45.056C29.9476 45.28 30.1556 45.52 30.3476 45.776C30.5716 46 30.7636 46.272 30.9236 46.592ZM12.2996 41.6C13.2596 42.848 14.4116 43.6 15.7556 43.856C17.1316 44.08 18.4116 43.84 19.5956 43.136C19.1476 42.688 18.7316 42.288 18.3476 41.936C17.9636 41.584 17.7236 41.344 17.6276 41.216C17.1476 40.736 16.7796 40.16 16.5236 39.488C16.2676 38.976 16.1876 38.496 16.2836 38.048C16.3796 37.536 16.5876 37.104 16.9076 36.752C17.0676 36.624 17.2116 36.512 17.3396 36.416C17.4676 36.288 17.6116 36.176 17.7716 36.08C17.9316 35.984 18.1076 35.92 18.2996 35.888C18.5236 35.856 18.7476 35.84 18.9716 35.84C19.2916 35.84 19.6116 35.952 19.9316 36.176C20.2196 36.336 20.5556 36.544 20.9396 36.8C21.0996 36.96 21.2596 37.12 21.4196 37.28C21.6116 37.408 21.7876 37.552 21.9476 37.712C22.0756 37.84 22.2036 37.968 22.3316 38.096C22.4596 38.192 22.6036 38.304 22.7636 38.432C22.9876 37.376 23.1476 36.256 23.2436 35.072C23.3716 33.888 23.3876 32.704 23.2916 31.52C23.1956 30.304 22.9716 29.12 22.6196 27.968C22.2676 26.784 21.7716 25.68 21.1316 24.656C20.3636 23.44 19.3876 22.624 18.2036 22.208C17.0196 21.76 15.5796 21.952 13.8836 22.784C13.2116 23.136 12.6356 23.648 12.1556 24.32C11.7076 24.96 11.3236 25.696 11.0036 26.528C10.6836 27.328 10.4276 28.16 10.2356 29.024C10.0756 29.888 9.97963 30.704 9.94763 31.472C9.91563 32.304 9.91563 33.184 9.94763 34.112C10.0116 35.008 10.1236 35.92 10.2836 36.848C10.4756 37.744 10.7316 38.608 11.0516 39.44C11.3716 40.24 11.7876 40.96 12.2996 41.6ZM50.0977 49.952C49.1377 49.952 48.1457 49.904 47.1217 49.808C46.1297 49.712 45.1537 49.52 44.1937 49.232C43.2657 48.912 42.3857 48.48 41.5537 47.936C40.7537 47.392 40.0817 46.688 39.5377 45.824C38.9297 44.896 38.4977 43.904 38.2417 42.848C38.0177 41.76 37.9377 40.656 38.0017 39.536C38.1617 37.808 38.7377 36.336 39.7297 35.12C40.7537 33.904 42.0337 32.976 43.5697 32.336C43.4417 32.336 43.2337 32.256 42.9457 32.096C42.6897 31.936 42.4177 31.744 42.1297 31.52C41.8417 31.296 41.5697 31.088 41.3137 30.896C41.0897 30.672 40.9297 30.528 40.8337 30.464C40.4497 30.048 40.1297 29.568 39.8737 29.024C39.6497 28.48 39.4577 27.936 39.2977 27.392C38.8817 25.952 38.8337 24.448 39.1537 22.88C39.4737 21.28 40.1297 19.888 41.1217 18.704C41.5377 18.192 42.0657 17.744 42.7057 17.36C43.3457 16.944 44.0337 16.608 44.7697 16.352C45.5057 16.064 46.2417 15.84 46.9777 15.68C47.7457 15.52 48.4337 15.44 49.0417 15.44C49.8737 15.44 50.6897 15.424 51.4897 15.392C52.2897 15.36 53.0897 15.408 53.8897 15.536C54.8817 15.696 55.7937 16.016 56.6257 16.496C57.4897 16.976 58.2417 17.568 58.8817 18.272C60.1617 19.68 60.9777 21.264 61.3297 23.024C61.7137 24.752 61.6657 26.528 61.1857 28.352C61.0257 28.864 60.7857 29.344 60.4657 29.792C60.1457 30.208 59.7777 30.608 59.3617 30.992C59.2657 31.056 59.1057 31.168 58.8817 31.328C58.6577 31.488 58.4017 31.664 58.1137 31.856C57.8577 32.016 57.6017 32.16 57.3457 32.288C57.0897 32.384 56.8977 32.416 56.7697 32.384C57.5377 32.864 58.2737 33.344 58.9777 33.824C59.6817 34.272 60.2577 34.912 60.7057 35.744C61.1537 36.576 61.4737 37.456 61.6657 38.384C61.8897 39.312 61.9697 40.24 61.9057 41.168C61.8737 42.096 61.6977 43.008 61.3777 43.904C61.0577 44.768 60.5937 45.552 59.9857 46.256C59.3777 46.96 58.6737 47.552 57.8737 48.032C57.1057 48.48 56.2897 48.848 55.4257 49.136C54.5617 49.424 53.6657 49.632 52.7377 49.76C51.8417 49.888 50.9617 49.952 50.0977 49.952ZM50.1937 35.936C49.4897 35.968 48.7697 36.064 48.0337 36.224C47.3297 36.384 46.6737 36.64 46.0657 36.992C45.4897 37.312 44.9937 37.76 44.5777 38.336C44.1617 38.88 43.9057 39.568 43.8097 40.4C43.7457 41.04 43.8257 41.616 44.0497 42.128C44.3057 42.608 44.6257 43.04 45.0097 43.424C45.4257 43.776 45.9057 44.064 46.4497 44.288C46.9937 44.48 47.5377 44.608 48.0817 44.672C49.3617 44.864 50.5937 44.848 51.7777 44.624C52.2257 44.528 52.6417 44.448 53.0257 44.384C53.4417 44.288 53.8097 44.16 54.1297 44C54.4817 43.84 54.7857 43.632 55.0417 43.376C55.3297 43.088 55.5697 42.704 55.7617 42.224C56.0497 41.552 56.1617 40.8 56.0977 39.968C56.0657 39.104 55.8097 38.4 55.3297 37.856C54.6257 37.024 53.8417 36.48 52.9777 36.224C52.1457 35.968 51.2177 35.872 50.1937 35.936ZM50.2417 20.72C49.5057 20.784 48.8017 20.896 48.1297 21.056C47.4577 21.216 46.8657 21.472 46.3537 21.824C45.8417 22.176 45.4417 22.64 45.1537 23.216C44.8977 23.792 44.7857 24.512 44.8177 25.376C44.8497 25.984 44.9457 26.56 45.1057 27.104C45.2657 27.616 45.5697 28.096 46.0177 28.544C46.5617 29.184 47.2177 29.568 47.9857 29.696C48.7537 29.792 49.5217 29.824 50.2897 29.792C51.4737 29.792 52.4977 29.616 53.3617 29.264C54.2577 28.912 54.9777 28.16 55.5217 27.008C55.9377 26.08 56.0497 25.216 55.8577 24.416C55.6657 23.616 55.2977 22.944 54.7537 22.4C54.2097 21.824 53.5217 21.392 52.6897 21.104C51.8897 20.784 51.0737 20.656 50.2417 20.72Z"/>
</mask>
<path d="M30.9236 46.592C31.0516 46.816 31.1316 47.056 31.1636 47.312C31.1956 47.536 31.1956 47.76 31.1636 47.984C31.1316 48.432 30.9556 48.832 30.6356 49.184C30.4116 49.44 30.1396 49.68 29.8196 49.904C29.5636 50.064 29.2116 50.144 28.7636 50.144C28.4116 50.144 28.0916 50.08 27.8036 49.952C27.4196 49.792 27.0836 49.584 26.7956 49.328C26.4436 49.136 26.1076 48.896 25.7876 48.608L24.4436 47.456C23.8996 47.968 23.2916 48.4 22.6196 48.752C21.9796 49.104 21.3076 49.392 20.6036 49.616C19.5796 49.936 18.5236 50.112 17.4356 50.144C16.3796 50.208 15.3236 50.112 14.2676 49.856C13.2116 49.6 12.1876 49.2 11.1956 48.656C10.2356 48.112 9.35563 47.408 8.55563 46.544C7.59563 45.552 6.81163 44.416 6.20363 43.136C5.59563 41.824 5.11563 40.464 4.76363 39.056C4.41163 37.648 4.18763 36.224 4.09163 34.784C3.99563 33.344 3.99563 31.984 4.09163 30.704C4.18763 29.488 4.37963 28.176 4.66763 26.768C4.95563 25.328 5.38763 23.952 5.96363 22.64C6.57163 21.328 7.32363 20.16 8.21963 19.136C9.14763 18.112 10.2676 17.408 11.5796 17.024C14.7476 16.032 17.4356 15.856 19.6436 16.496C21.8516 17.104 23.6596 18.208 25.0676 19.808C26.1876 21.088 27.0676 22.592 27.7076 24.32C28.3796 26.048 28.8276 27.856 29.0516 29.744C29.3076 31.632 29.3716 33.536 29.2436 35.456C29.1156 37.344 28.8276 39.104 28.3796 40.736L27.5156 43.04C27.9956 43.488 28.4436 43.904 28.8596 44.288C29.3076 44.64 29.5956 44.896 29.7236 45.056C29.9476 45.28 30.1556 45.52 30.3476 45.776C30.5716 46 30.7636 46.272 30.9236 46.592ZM12.2996 41.6C13.2596 42.848 14.4116 43.6 15.7556 43.856C17.1316 44.08 18.4116 43.84 19.5956 43.136C19.1476 42.688 18.7316 42.288 18.3476 41.936C17.9636 41.584 17.7236 41.344 17.6276 41.216C17.1476 40.736 16.7796 40.16 16.5236 39.488C16.2676 38.976 16.1876 38.496 16.2836 38.048C16.3796 37.536 16.5876 37.104 16.9076 36.752C17.0676 36.624 17.2116 36.512 17.3396 36.416C17.4676 36.288 17.6116 36.176 17.7716 36.08C17.9316 35.984 18.1076 35.92 18.2996 35.888C18.5236 35.856 18.7476 35.84 18.9716 35.84C19.2916 35.84 19.6116 35.952 19.9316 36.176C20.2196 36.336 20.5556 36.544 20.9396 36.8C21.0996 36.96 21.2596 37.12 21.4196 37.28C21.6116 37.408 21.7876 37.552 21.9476 37.712C22.0756 37.84 22.2036 37.968 22.3316 38.096C22.4596 38.192 22.6036 38.304 22.7636 38.432C22.9876 37.376 23.1476 36.256 23.2436 35.072C23.3716 33.888 23.3876 32.704 23.2916 31.52C23.1956 30.304 22.9716 29.12 22.6196 27.968C22.2676 26.784 21.7716 25.68 21.1316 24.656C20.3636 23.44 19.3876 22.624 18.2036 22.208C17.0196 21.76 15.5796 21.952 13.8836 22.784C13.2116 23.136 12.6356 23.648 12.1556 24.32C11.7076 24.96 11.3236 25.696 11.0036 26.528C10.6836 27.328 10.4276 28.16 10.2356 29.024C10.0756 29.888 9.97963 30.704 9.94763 31.472C9.91563 32.304 9.91563 33.184 9.94763 34.112C10.0116 35.008 10.1236 35.92 10.2836 36.848C10.4756 37.744 10.7316 38.608 11.0516 39.44C11.3716 40.24 11.7876 40.96 12.2996 41.6ZM50.0977 49.952C49.1377 49.952 48.1457 49.904 47.1217 49.808C46.1297 49.712 45.1537 49.52 44.1937 49.232C43.2657 48.912 42.3857 48.48 41.5537 47.936C40.7537 47.392 40.0817 46.688 39.5377 45.824C38.9297 44.896 38.4977 43.904 38.2417 42.848C38.0177 41.76 37.9377 40.656 38.0017 39.536C38.1617 37.808 38.7377 36.336 39.7297 35.12C40.7537 33.904 42.0337 32.976 43.5697 32.336C43.4417 32.336 43.2337 32.256 42.9457 32.096C42.6897 31.936 42.4177 31.744 42.1297 31.52C41.8417 31.296 41.5697 31.088 41.3137 30.896C41.0897 30.672 40.9297 30.528 40.8337 30.464C40.4497 30.048 40.1297 29.568 39.8737 29.024C39.6497 28.48 39.4577 27.936 39.2977 27.392C38.8817 25.952 38.8337 24.448 39.1537 22.88C39.4737 21.28 40.1297 19.888 41.1217 18.704C41.5377 18.192 42.0657 17.744 42.7057 17.36C43.3457 16.944 44.0337 16.608 44.7697 16.352C45.5057 16.064 46.2417 15.84 46.9777 15.68C47.7457 15.52 48.4337 15.44 49.0417 15.44C49.8737 15.44 50.6897 15.424 51.4897 15.392C52.2897 15.36 53.0897 15.408 53.8897 15.536C54.8817 15.696 55.7937 16.016 56.6257 16.496C57.4897 16.976 58.2417 17.568 58.8817 18.272C60.1617 19.68 60.9777 21.264 61.3297 23.024C61.7137 24.752 61.6657 26.528 61.1857 28.352C61.0257 28.864 60.7857 29.344 60.4657 29.792C60.1457 30.208 59.7777 30.608 59.3617 30.992C59.2657 31.056 59.1057 31.168 58.8817 31.328C58.6577 31.488 58.4017 31.664 58.1137 31.856C57.8577 32.016 57.6017 32.16 57.3457 32.288C57.0897 32.384 56.8977 32.416 56.7697 32.384C57.5377 32.864 58.2737 33.344 58.9777 33.824C59.6817 34.272 60.2577 34.912 60.7057 35.744C61.1537 36.576 61.4737 37.456 61.6657 38.384C61.8897 39.312 61.9697 40.24 61.9057 41.168C61.8737 42.096 61.6977 43.008 61.3777 43.904C61.0577 44.768 60.5937 45.552 59.9857 46.256C59.3777 46.96 58.6737 47.552 57.8737 48.032C57.1057 48.48 56.2897 48.848 55.4257 49.136C54.5617 49.424 53.6657 49.632 52.7377 49.76C51.8417 49.888 50.9617 49.952 50.0977 49.952ZM50.1937 35.936C49.4897 35.968 48.7697 36.064 48.0337 36.224C47.3297 36.384 46.6737 36.64 46.0657 36.992C45.4897 37.312 44.9937 37.76 44.5777 38.336C44.1617 38.88 43.9057 39.568 43.8097 40.4C43.7457 41.04 43.8257 41.616 44.0497 42.128C44.3057 42.608 44.6257 43.04 45.0097 43.424C45.4257 43.776 45.9057 44.064 46.4497 44.288C46.9937 44.48 47.5377 44.608 48.0817 44.672C49.3617 44.864 50.5937 44.848 51.7777 44.624C52.2257 44.528 52.6417 44.448 53.0257 44.384C53.4417 44.288 53.8097 44.16 54.1297 44C54.4817 43.84 54.7857 43.632 55.0417 43.376C55.3297 43.088 55.5697 42.704 55.7617 42.224C56.0497 41.552 56.1617 40.8 56.0977 39.968C56.0657 39.104 55.8097 38.4 55.3297 37.856C54.6257 37.024 53.8417 36.48 52.9777 36.224C52.1457 35.968 51.2177 35.872 50.1937 35.936ZM50.2417 20.72C49.5057 20.784 48.8017 20.896 48.1297 21.056C47.4577 21.216 46.8657 21.472 46.3537 21.824C45.8417 22.176 45.4417 22.64 45.1537 23.216C44.8977 23.792 44.7857 24.512 44.8177 25.376C44.8497 25.984 44.9457 26.56 45.1057 27.104C45.2657 27.616 45.5697 28.096 46.0177 28.544C46.5617 29.184 47.2177 29.568 47.9857 29.696C48.7537 29.792 49.5217 29.824 50.2897 29.792C51.4737 29.792 52.4977 29.616 53.3617 29.264C54.2577 28.912 54.9777 28.16 55.5217 27.008C55.9377 26.08 56.0497 25.216 55.8577 24.416C55.6657 23.616 55.2977 22.944 54.7537 22.4C54.2097 21.824 53.5217 21.392 52.6897 21.104C51.8897 20.784 51.0737 20.656 50.2417 20.72Z" fill="url(#paint0_linear_49_9859)"/>
<path d="M30.9236 46.592L27.5695 48.2691L27.6161 48.3621L27.6677 48.4525L30.9236 46.592ZM31.1636 47.312L27.4426 47.7771L27.4467 47.8098L27.4513 47.8424L31.1636 47.312ZM31.1636 47.984L27.4513 47.4536L27.4326 47.5847L27.4232 47.7168L31.1636 47.984ZM30.6356 49.184L27.8608 46.6615L27.8369 46.6878L27.8135 46.7146L30.6356 49.184ZM29.8196 49.904L31.8071 53.084L31.89 53.0322L31.9701 52.9761L29.8196 49.904ZM27.8036 49.952L29.3266 46.5252L29.2865 46.5074L29.2459 46.4905L27.8036 49.952ZM26.7956 49.328L29.287 46.5252L28.9671 46.2408L28.5913 46.0359L26.7956 49.328ZM25.7876 48.608L28.2962 45.8206L28.2625 45.7903L28.2281 45.7608L25.7876 48.608ZM24.4436 47.456L26.8841 44.6088L24.3265 42.4166L21.8735 44.7253L24.4436 47.456ZM22.6196 48.752L20.8796 45.4301L20.8458 45.4478L20.8124 45.4662L22.6196 48.752ZM20.6036 49.616L21.7222 53.1953L21.7314 53.1924L21.7406 53.1895L20.6036 49.616ZM17.4356 50.144L17.3254 46.3956L17.267 46.3973L17.2088 46.4009L17.4356 50.144ZM14.2676 49.856L13.3841 53.5004L14.2676 49.856ZM11.1956 48.656L9.34683 51.9186L9.36958 51.9315L9.3925 51.944L11.1956 48.656ZM8.55563 46.544L11.3072 43.9962L11.2791 43.9659L11.2504 43.9362L8.55563 46.544ZM6.20363 43.136L2.80121 44.7127L2.8087 44.7289L2.81634 44.745L6.20363 43.136ZM4.76363 39.056L1.12559 39.9655L4.76363 39.056ZM4.09163 34.784L7.83332 34.5346L4.09163 34.784ZM4.09163 30.704L0.353259 30.4089L0.35268 30.4162L0.352129 30.4235L4.09163 30.704ZM4.66763 26.768L8.34156 27.5195L8.3432 27.5115L8.3448 27.5034L4.66763 26.768ZM5.96363 22.64L2.56121 21.0633L2.54524 21.0977L2.52996 21.1325L5.96363 22.64ZM8.21963 19.136L5.44093 16.6178L5.41898 16.642L5.39746 16.6666L8.21963 19.136ZM11.5796 17.024L12.633 20.623L12.6667 20.6131L12.7002 20.6027L11.5796 17.024ZM19.6436 16.496L18.5996 20.0977L18.6238 20.1048L18.6481 20.1114L19.6436 16.496ZM25.0676 19.808L27.8898 17.3386L27.8828 17.3306L25.0676 19.808ZM27.7076 24.32L24.1911 25.6224L24.2016 25.6509L24.2126 25.6792L27.7076 24.32ZM29.0516 29.744L25.3277 30.1858L25.3314 30.2169L25.3356 30.2479L29.0516 29.744ZM29.2436 35.456L32.985 35.7097L32.9853 35.7054L29.2436 35.456ZM28.3796 40.736L31.8909 42.0527L31.9507 41.8931L31.9958 41.7287L28.3796 40.736ZM27.5156 43.04L24.0044 41.7233L23.1241 44.0708L24.9569 45.7815L27.5156 43.04ZM28.8596 44.288L26.3161 47.0435L26.4256 47.1446L26.5428 47.2367L28.8596 44.288ZM29.7236 45.056L26.7954 47.3986L26.9251 47.5608L27.072 47.7076L29.7236 45.056ZM30.3476 45.776L27.3476 48.026L27.5075 48.2392L27.696 48.4276L30.3476 45.776ZM12.2996 41.6L15.272 39.3136L15.2502 39.2853L15.2279 39.2574L12.2996 41.6ZM15.7556 43.856L15.054 47.5398L15.1034 47.5492L15.1531 47.5573L15.7556 43.856ZM19.5956 43.136L21.5122 46.3593L25.6574 43.8945L22.2473 40.4843L19.5956 43.136ZM18.3476 41.936L20.8816 39.1717H20.8816L18.3476 41.936ZM17.6276 41.216L20.6276 38.966L20.4677 38.7528L20.2793 38.5644L17.6276 41.216ZM16.5236 39.488L20.028 38.153L19.9614 37.9782L19.8777 37.8109L16.5236 39.488ZM16.2836 38.048L19.9504 38.8337L19.9605 38.7865L19.9694 38.7391L16.2836 38.048ZM16.9076 36.752L14.565 33.8237L14.3329 34.0095L14.1328 34.2295L16.9076 36.752ZM17.3396 36.416L19.5896 39.416L19.8028 39.2561L19.9913 39.0677L17.3396 36.416ZM17.7716 36.08L15.8423 32.8644L15.8423 32.8644L17.7716 36.08ZM18.2996 35.888L17.7693 32.1757L17.7261 32.1819L17.6831 32.189L18.2996 35.888ZM19.9316 36.176L17.7811 39.2481L17.9405 39.3596L18.1105 39.4541L19.9316 36.176ZM20.9396 36.8L23.5913 34.1483L23.3287 33.8858L23.0198 33.6798L20.9396 36.8ZM21.4196 37.28L18.768 39.9317L19.0305 40.1942L19.3395 40.4002L21.4196 37.28ZM21.9476 37.712L24.5993 35.0604L24.5993 35.0603L21.9476 37.712ZM22.3316 38.096L19.68 40.7477L19.8684 40.9361L20.0816 41.096L22.3316 38.096ZM22.7636 38.432L20.421 41.3603L25.17 45.1595L26.432 39.2101L22.7636 38.432ZM23.2436 35.072L19.5154 34.6689L19.51 34.7189L19.5059 34.7689L23.2436 35.072ZM23.2916 31.52L19.5533 31.8151L19.5539 31.8231L23.2916 31.52ZM22.6196 27.968L19.0251 29.0366L19.0292 29.0502L19.0333 29.0638L22.6196 27.968ZM21.1316 24.656L24.3116 22.6685L24.3069 22.661L24.3022 22.6535L21.1316 24.656ZM18.2036 22.208L16.8765 25.7153L16.9184 25.7311L16.9606 25.746L18.2036 22.208ZM13.8836 22.784L12.232 19.4173L12.1875 19.4391L12.1436 19.4621L13.8836 22.784ZM12.1556 24.32L9.10412 22.1404L9.09375 22.1549L9.08351 22.1695L12.1556 24.32ZM11.0036 26.528L14.4854 27.9207L14.4947 27.8975L14.5037 27.8742L11.0036 26.528ZM10.2356 29.024L6.57492 28.2105L6.56046 28.2756L6.54832 28.3412L10.2356 29.024ZM9.94763 31.472L6.20086 31.3159L6.2004 31.3279L9.94763 31.472ZM9.94763 34.112L6.19985 34.2412L6.20223 34.3103L6.20716 34.3792L9.94763 34.112ZM10.2836 36.848L6.58815 37.4851L6.60101 37.5597L6.61687 37.6337L10.2836 36.848ZM11.0516 39.44L7.55158 40.7862L7.56055 40.8095L7.56984 40.8327L11.0516 39.44ZM30.9236 46.592L27.6677 48.4525C27.5501 48.2467 27.472 48.0124 27.4426 47.7771L31.1636 47.312L34.8847 46.8469C34.7913 46.0996 34.5532 45.3853 34.1795 44.7315L30.9236 46.592ZM31.1636 47.312L27.4513 47.8424C27.4331 47.7146 27.4331 47.5814 27.4513 47.4536L31.1636 47.984L34.8759 48.5144C34.9582 47.9386 34.9582 47.3574 34.8759 46.7816L31.1636 47.312ZM31.1636 47.984L27.4232 47.7168C27.4369 47.524 27.4852 47.3143 27.5752 47.1097C27.6641 46.9076 27.7725 46.7587 27.8608 46.6615L30.6356 49.184L33.4104 51.7065C34.2602 50.7718 34.8085 49.5897 34.9041 48.2512L31.1636 47.984ZM30.6356 49.184L27.8135 46.7146C27.8151 46.7128 27.7775 46.756 27.6691 46.8319L29.8196 49.904L31.9701 52.9761C32.5017 52.604 33.0082 52.1672 33.4578 51.6534L30.6356 49.184ZM29.8196 49.904L27.8321 46.724C28.1221 46.5428 28.377 46.4626 28.5325 46.4273C28.6853 46.3925 28.772 46.394 28.7636 46.394V50.144V53.894C29.596 53.894 30.733 53.7553 31.8071 53.084L29.8196 49.904ZM28.7636 50.144V46.394C28.8748 46.394 29.082 46.4165 29.3266 46.5252L27.8036 49.952L26.2806 53.3788C27.1013 53.7435 27.9485 53.894 28.7636 53.894V50.144ZM27.8036 49.952L29.2459 46.4905C29.2285 46.4832 29.2272 46.4812 29.2375 46.4875C29.2481 46.4941 29.2658 46.5064 29.287 46.5252L26.7956 49.328L24.3043 52.1308C24.9268 52.6842 25.6241 53.1064 26.3613 53.4135L27.8036 49.952ZM26.7956 49.328L28.5913 46.0359C28.5139 45.9937 28.415 45.9275 28.2962 45.8206L25.7876 48.608L23.279 51.3954C23.8003 51.8645 24.3733 52.2783 24.9999 52.6201L26.7956 49.328ZM25.7876 48.608L28.2281 45.7608L26.8841 44.6088L24.4436 47.456L22.0032 50.3032L23.3472 51.4552L25.7876 48.608ZM24.4436 47.456L21.8735 44.7253C21.5819 44.9997 21.254 45.234 20.8796 45.4301L22.6196 48.752L24.3597 52.0739C25.3292 51.566 26.2174 50.9363 27.0137 50.1867L24.4436 47.456ZM22.6196 48.752L20.8124 45.4662C20.3884 45.6994 19.9411 45.8916 19.4666 46.0425L20.6036 49.616L21.7406 53.1895C22.6742 52.8924 23.5709 52.5086 24.4268 52.0378L22.6196 48.752ZM20.6036 49.616L19.4851 46.0367C18.7927 46.2531 18.0762 46.3735 17.3254 46.3956L17.4356 50.144L17.5459 53.8924C18.9711 53.8505 20.3666 53.6189 21.7222 53.1953L20.6036 49.616ZM17.4356 50.144L17.2088 46.4009C16.5358 46.4417 15.8539 46.3819 15.1511 46.2116L14.2676 49.856L13.3841 53.5004C14.7933 53.8421 16.2234 53.9743 17.6625 53.8871L17.4356 50.144ZM14.2676 49.856L15.1511 46.2116C14.429 46.0365 13.7132 45.7598 12.9987 45.368L11.1956 48.656L9.3925 51.944C10.6621 52.6403 11.9942 53.1635 13.3841 53.5004L14.2676 49.856ZM11.1956 48.656L13.0444 45.3934C12.4422 45.0522 11.8625 44.5959 11.3072 43.9962L8.55563 46.544L5.80402 49.0918C6.84873 50.2201 8.02903 51.1718 9.34683 51.9186L11.1956 48.656ZM8.55563 46.544L11.2504 43.9362C10.5815 43.245 10.0286 42.4485 9.59092 41.527L6.20363 43.136L2.81634 44.745C3.59462 46.3835 4.60972 47.859 5.86087 49.1518L8.55563 46.544ZM6.20363 43.136L9.60604 41.5593C9.0978 40.4625 8.69654 39.326 8.40166 38.1465L4.76363 39.056L1.12559 39.9655C1.53471 41.602 2.09345 43.1855 2.80121 44.7127L6.20363 43.136ZM4.76363 39.056L8.40166 38.1465C8.10348 36.9538 7.91439 35.7506 7.83332 34.5346L4.09163 34.784L0.349933 35.0334C0.460861 36.6974 0.719774 38.3422 1.12559 39.9655L4.76363 39.056ZM4.09163 34.784L7.83332 34.5346C7.74766 33.2497 7.74986 32.068 7.83112 30.9845L4.09163 30.704L0.352129 30.4235C0.241393 31.9 0.243591 33.4383 0.349933 35.0334L4.09163 34.784ZM4.09163 30.704L7.82999 30.9991C7.91199 29.9606 8.07911 28.8026 8.34156 27.5195L4.66763 26.768L0.993696 26.0165C0.680144 27.5494 0.463265 29.0154 0.353259 30.4089L4.09163 30.704ZM4.66763 26.768L8.3448 27.5034C8.58105 26.3222 8.93276 25.2056 9.39729 24.1475L5.96363 22.64L2.52996 21.1325C1.84249 22.6984 1.3302 24.3338 0.990449 26.0326L4.66763 26.768ZM5.96363 22.64L9.36604 24.2167C9.83347 23.2081 10.395 22.3446 11.0418 21.6054L8.21963 19.136L5.39746 16.6666C4.25229 17.9754 3.30979 19.4479 2.56121 21.0633L5.96363 22.64ZM8.21963 19.136L10.9983 21.6542C11.4672 21.1368 11.9924 20.8105 12.633 20.623L11.5796 17.024L10.5263 13.425C8.54288 14.0055 6.82801 15.0872 5.44093 16.6178L8.21963 19.136ZM11.5796 17.024L12.7002 20.6027C15.4619 19.7379 17.3491 19.7353 18.5996 20.0977L19.6436 16.496L20.6876 12.8943C17.5221 11.9767 14.0333 12.3261 10.459 13.4453L11.5796 17.024ZM19.6436 16.496L18.6481 20.1114C20.2066 20.5406 21.3635 21.2752 22.2525 22.2854L25.0676 19.808L27.8828 17.3306C25.9558 15.1408 23.4967 13.6674 20.6392 12.8806L19.6436 16.496ZM25.0676 19.808L22.2455 22.2774C23.0407 23.1863 23.6963 24.2866 24.1911 25.6224L27.7076 24.32L31.2242 23.0176C30.4389 20.8974 29.3345 18.9897 27.8898 17.3386L25.0676 19.808ZM27.7076 24.32L24.2126 25.6792C24.767 27.1048 25.1401 28.604 25.3277 30.1858L29.0516 29.744L32.7755 29.3022C32.5152 27.108 31.9922 24.9912 31.2026 22.9608L27.7076 24.32ZM29.0516 29.744L25.3356 30.2479C25.5574 31.8838 25.6133 33.5354 25.5019 35.2066L29.2436 35.456L32.9853 35.7054C33.1299 33.5366 33.0578 31.3802 32.7676 29.2401L29.0516 29.744ZM29.2436 35.456L25.5022 35.2023C25.3892 36.8693 25.1379 38.3792 24.7634 39.7433L28.3796 40.736L31.9958 41.7287C32.5174 39.8288 32.8421 37.8187 32.985 35.7097L29.2436 35.456ZM28.3796 40.736L24.8684 39.4193L24.0044 41.7233L27.5156 43.04L31.0269 44.3567L31.8909 42.0527L28.3796 40.736ZM27.5156 43.04L24.9569 45.7815C25.4412 46.2334 25.8943 46.6542 26.3161 47.0435L28.8596 44.288L31.4032 41.5325C30.993 41.1538 30.5501 40.7426 30.0743 40.2985L27.5156 43.04ZM28.8596 44.288L26.5428 47.2367C26.7324 47.3857 26.8527 47.4868 26.9203 47.5468C26.9531 47.576 26.9589 47.5826 26.946 47.5697C26.9388 47.5624 26.9222 47.5456 26.8988 47.52C26.8761 47.4951 26.8398 47.4541 26.7954 47.3986L29.7236 45.056L32.6519 42.7134C32.2134 42.1652 31.5852 41.6604 31.1765 41.3393L28.8596 44.288ZM29.7236 45.056L27.072 47.7076C27.1692 47.8049 27.261 47.9105 27.3476 48.026L30.3476 45.776L33.3476 43.526C33.0502 43.1295 32.726 42.7551 32.3753 42.4044L29.7236 45.056ZM30.3476 45.776L27.696 48.4276C27.6007 48.3324 27.5668 48.2635 27.5695 48.2691L30.9236 46.592L34.2777 44.915C33.9605 44.2805 33.5425 43.6676 32.9993 43.1244L30.3476 45.776ZM12.2996 41.6L9.32729 43.8864C10.7574 45.7456 12.6723 47.0861 15.054 47.5398L15.7556 43.856L16.4573 40.1722C16.151 40.1139 15.7618 39.9504 15.272 39.3136L12.2996 41.6ZM15.7556 43.856L15.1531 47.5573C17.3874 47.921 19.5608 47.5195 21.5122 46.3593L19.5956 43.136L17.6791 39.9127C17.2625 40.1605 16.8759 40.239 16.3582 40.1547L15.7556 43.856ZM19.5956 43.136L22.2473 40.4843C21.7687 40.0058 21.3131 39.5672 20.8816 39.1717L18.3476 41.936L15.8137 44.7003C16.1502 45.0088 16.5265 45.3702 16.944 45.7877L19.5956 43.136ZM18.3476 41.936L20.8816 39.1717C20.7109 39.0152 20.5984 38.9074 20.5313 38.8403C20.4982 38.8072 20.4888 38.7967 20.4959 38.8045C20.5001 38.8091 20.5134 38.8237 20.5331 38.847C20.5518 38.869 20.5855 38.9098 20.6276 38.966L17.6276 41.216L14.6276 43.466C14.9717 43.9248 15.4891 44.4028 15.8137 44.7003L18.3476 41.936ZM17.6276 41.216L20.2793 38.5644C20.1951 38.4802 20.1071 38.3608 20.028 38.153L16.5236 39.488L13.0193 40.823C13.4521 41.9592 14.1001 42.9918 14.976 43.8676L17.6276 41.216ZM16.5236 39.488L19.8777 37.8109C19.8882 37.832 19.9394 37.9405 19.9706 38.1275C20.0033 38.3236 20.0072 38.5684 19.9504 38.8337L16.2836 38.048L12.6169 37.2623C12.3017 38.7331 12.6299 40.0858 13.1695 41.1651L16.5236 39.488ZM16.2836 38.048L19.9694 38.7391C19.9618 38.7794 19.9412 38.8613 19.8904 38.9668C19.8386 39.0744 19.7678 39.1805 19.6824 39.2745L16.9076 36.752L14.1328 34.2295C13.3014 35.1441 12.8093 36.229 12.5979 37.3569L16.2836 38.048ZM16.9076 36.752L19.2502 39.6803C19.3877 39.5703 19.5001 39.4832 19.5896 39.416L17.3396 36.416L15.0896 33.416C14.9232 33.5408 14.7475 33.6777 14.565 33.8237L16.9076 36.752ZM17.3396 36.416L19.9913 39.0677C19.8959 39.1631 19.7958 39.2387 19.701 39.2956L17.7716 36.08L15.8423 32.8644C15.4275 33.1133 15.0394 33.4129 14.688 33.7643L17.3396 36.416ZM17.7716 36.08L19.701 39.2956C19.4402 39.4521 19.1678 39.545 18.9161 39.587L18.2996 35.888L17.6831 32.189C17.0474 32.295 16.423 32.5159 15.8423 32.8644L17.7716 36.08ZM18.2996 35.888L18.83 39.6003C18.8801 39.5932 18.9269 39.59 18.9716 39.59V35.84V32.09C18.5684 32.09 18.1672 32.1189 17.7693 32.1757L18.2996 35.888ZM18.9716 35.84V39.59C18.3663 39.59 17.9503 39.3665 17.7811 39.2481L19.9316 36.176L22.0821 33.1039C21.2729 32.5375 20.217 32.09 18.9716 32.09V35.84ZM19.9316 36.176L18.1105 39.4541C18.283 39.5499 18.5292 39.7 18.8595 39.9202L20.9396 36.8L23.0198 33.6798C22.5821 33.388 22.1563 33.1221 21.7528 32.8979L19.9316 36.176ZM20.9396 36.8L18.288 39.4517C18.448 39.6117 18.608 39.7717 18.768 39.9317L21.4196 37.28L24.0713 34.6283C23.9113 34.4683 23.7513 34.3083 23.5913 34.1483L20.9396 36.8ZM21.4196 37.28L19.3395 40.4002C19.3301 40.3939 19.314 40.3817 19.296 40.3637L21.9476 37.712L24.5993 35.0603C24.2612 34.7223 23.8931 34.4221 23.4998 34.1598L21.4196 37.28ZM21.9476 37.712L19.296 40.3636C19.424 40.4916 19.552 40.6197 19.68 40.7477L22.3316 38.096L24.9833 35.4443C24.8553 35.3163 24.7273 35.1884 24.5993 35.0604L21.9476 37.712ZM22.3316 38.096L20.0816 41.096C20.1712 41.1632 20.2835 41.2503 20.421 41.3603L22.7636 38.432L25.1062 35.5037C24.9237 35.3577 24.7481 35.2208 24.5816 35.096L22.3316 38.096ZM22.7636 38.432L26.432 39.2101C26.6924 37.9828 26.8737 36.7031 26.9814 35.3751L23.2436 35.072L19.5059 34.7689C19.4216 35.8089 19.2829 36.7692 19.0952 37.6539L22.7636 38.432ZM23.2436 35.072L26.9719 35.4751C27.1252 34.0571 27.1445 32.6367 27.0294 31.2169L23.2916 31.52L19.5539 31.8231C19.6308 32.7713 19.6181 33.7189 19.5154 34.6689L23.2436 35.072ZM23.2916 31.52L27.03 31.2249C26.9128 29.7407 26.6386 28.288 26.2059 26.8722L22.6196 27.968L19.0333 29.0638C19.3047 29.952 19.4784 30.8673 19.5533 31.8151L23.2916 31.52ZM22.6196 27.968L26.2141 26.8994C25.7682 25.3993 25.1346 23.9853 24.3116 22.6685L21.1316 24.656L17.9516 26.6435C18.4087 27.3747 18.7671 28.1687 19.0251 29.0366L22.6196 27.968ZM21.1316 24.656L24.3022 22.6535C23.1522 20.8327 21.542 19.4062 19.4467 18.67L18.2036 22.208L16.9606 25.746C17.2332 25.8418 17.575 26.0473 17.961 26.6585L21.1316 24.656ZM18.2036 22.208L19.5307 18.7007C16.9853 17.7375 14.4005 18.3535 12.232 19.4173L13.8836 22.784L15.5352 26.1507C16.7588 25.5505 17.054 25.7825 16.8765 25.7153L18.2036 22.208ZM13.8836 22.784L12.1436 19.4621C10.9059 20.1104 9.89488 21.0333 9.10412 22.1404L12.1556 24.32L15.2071 26.4996C15.3764 26.2627 15.5173 26.1616 15.6236 26.1059L13.8836 22.784ZM12.1556 24.32L9.08351 22.1695C8.43818 23.0914 7.91794 24.1045 7.50358 25.1818L11.0036 26.528L14.5037 27.8742C14.7293 27.2875 14.9771 26.8286 15.2277 26.4705L12.1556 24.32ZM11.0036 26.528L7.52184 25.1353C7.12465 26.1283 6.80964 27.1543 6.57492 28.2105L10.2356 29.024L13.8963 29.8375C14.0456 29.1657 14.2426 28.5277 14.4854 27.9207L11.0036 26.528ZM10.2356 29.024L6.54832 28.3412C6.36057 29.355 6.2412 30.3482 6.20088 31.3159L9.94763 31.472L13.6944 31.6281C13.7181 31.0598 13.7907 30.421 13.9229 29.7068L10.2356 29.024ZM9.94763 31.472L6.2004 31.3279C6.16452 32.2606 6.16506 33.2323 6.19985 34.2412L9.94763 34.112L13.6954 33.9828C13.6662 33.1357 13.6667 32.3474 13.6949 31.6161L9.94763 31.472ZM9.94763 34.112L6.20716 34.3792C6.28043 35.405 6.40804 36.4405 6.58815 37.4851L10.2836 36.848L13.9791 36.2108C13.8392 35.3995 13.7428 34.611 13.6881 33.8448L9.94763 34.112ZM10.2836 36.848L6.61687 37.6337C6.84863 38.7153 7.15958 39.767 7.55158 40.7862L11.0516 39.44L14.5517 38.0938C14.3037 37.449 14.1026 36.7727 13.9504 36.0623L10.2836 36.848ZM11.0516 39.44L7.56984 40.8327C8.01964 41.9572 8.61764 43.0005 9.37137 43.9426L12.2996 41.6L15.2279 39.2574C14.9576 38.9195 14.7236 38.5228 14.5334 38.0473L11.0516 39.44ZM47.1217 49.808L46.7605 53.5406L46.7717 53.5416L47.1217 49.808ZM44.1937 49.232L42.9713 52.7771L43.0433 52.802L43.1162 52.8238L44.1937 49.232ZM41.5537 47.936L39.4451 51.037L39.4732 51.0561L39.5016 51.0746L41.5537 47.936ZM39.5378 45.824L42.7111 43.826L42.6931 43.7973L42.6745 43.7689L39.5378 45.824ZM38.2417 42.848L34.5688 43.6042L34.5819 43.6681L34.5973 43.7315L38.2417 42.848ZM38.0017 39.536L34.2677 39.1903L34.2616 39.2561L34.2579 39.3221L38.0017 39.536ZM39.7297 35.12L36.8613 32.7045L36.8425 32.7269L36.824 32.7495L39.7297 35.12ZM43.5697 32.336L45.0121 35.7975L43.5697 28.586V32.336ZM42.9457 32.096L40.9583 35.276L41.0402 35.3272L41.1246 35.3741L42.9457 32.096ZM42.1297 31.52L39.8275 34.4801L42.1297 31.52ZM41.3137 30.896L38.6621 33.5476L38.8505 33.7361L39.0637 33.896L41.3137 30.896ZM40.8337 30.464L38.0782 33.0075L38.3816 33.3361L38.7536 33.5842L40.8337 30.464ZM39.8737 29.024L36.4062 30.4518L36.4414 30.5372L36.4807 30.6207L39.8737 29.024ZM39.2977 27.392L35.6951 28.4328L35.6976 28.4415L35.7001 28.4501L39.2977 27.392ZM39.1537 22.88L42.828 23.6299L42.8295 23.6226L42.8309 23.6154L39.1537 22.88ZM41.1217 18.704L43.9962 21.1123L44.0144 21.0907L44.0322 21.0687L41.1217 18.704ZM42.7057 17.36L44.6351 20.5756L44.6929 20.5409L44.7495 20.5042L42.7057 17.36ZM44.7697 16.352L46.0017 19.8939L46.0695 19.8703L46.1362 19.8442L44.7697 16.352ZM46.9777 15.68L46.2129 12.0088L46.197 12.0121L46.1811 12.0156L46.9777 15.68ZM51.4897 15.392L51.6396 19.139H51.6396L51.4897 15.392ZM53.8897 15.536L54.4869 11.8338L54.4822 11.8331L53.8897 15.536ZM56.6257 16.496L54.7518 19.7442L54.7781 19.7594L54.8046 19.7741L56.6257 16.496ZM58.8817 18.272L56.107 20.7945L56.107 20.7945L58.8817 18.272ZM61.3297 23.024L57.6526 23.7594L57.6604 23.7985L57.669 23.8375L61.3297 23.024ZM61.1857 28.352L64.765 29.4705L64.7905 29.389L64.8123 29.3063L61.1857 28.352ZM60.4657 29.792L63.4381 32.0784L63.4786 32.0257L63.5172 31.9717L60.4657 29.792ZM59.3617 30.992L61.4419 34.1122L61.688 33.9481L61.9053 33.7475L59.3617 30.992ZM58.8817 31.328L56.7021 28.2765L56.7021 28.2765L58.8817 31.328ZM58.1137 31.856L60.1012 35.036L60.148 35.0068L60.1939 34.9762L58.1137 31.856ZM57.3457 32.288L58.6625 35.7992L58.8468 35.7301L59.0228 35.6421L57.3457 32.288ZM56.7697 32.384L57.6792 28.746L54.7823 35.564L56.7697 32.384ZM58.9777 33.824L56.8652 36.9224L56.9143 36.9558L56.9645 36.9877L58.9777 33.824ZM61.6657 38.384L57.9935 39.1438L58.006 39.2041L58.0204 39.2639L61.6657 38.384ZM61.9057 41.168L58.1646 40.91L58.1602 40.9743L58.158 41.0388L61.9057 41.168ZM61.3777 43.904L64.8943 45.2064L64.9019 45.1859L64.9093 45.1653L61.3777 43.904ZM59.9857 46.256L57.1477 43.8049L59.9857 46.256ZM57.8737 48.032L59.7633 51.2712L59.7833 51.2595L59.8031 51.2476L57.8737 48.032ZM55.4257 49.136L54.2399 45.5784L55.4257 49.136ZM52.7377 49.76L52.2254 46.0452L52.2164 46.0464L52.2074 46.0477L52.7377 49.76ZM50.1937 35.936L50.364 39.6821L50.3959 39.6807L50.4277 39.6787L50.1937 35.936ZM48.0337 36.224L47.2371 32.5596L47.2199 32.5633L47.2027 32.5673L48.0337 36.224ZM46.0657 36.992L47.8869 40.2701L47.9159 40.254L47.9446 40.2374L46.0657 36.992ZM44.5777 38.336L47.5566 40.6139L47.5878 40.5732L47.6178 40.5316L44.5777 38.336ZM43.8097 40.4L40.0845 39.9702L40.0812 39.9985L40.0784 40.0269L43.8097 40.4ZM44.0497 42.128L40.6142 43.6311L40.6725 43.7643L40.7409 43.8927L44.0497 42.128ZM45.0097 43.424L42.3581 46.0756L42.4684 46.1859L42.5875 46.2867L45.0097 43.424ZM46.4497 44.288L45.0219 47.7555L45.1109 47.7922L45.2017 47.8242L46.4497 44.288ZM48.0817 44.672L48.638 40.9635L48.5791 40.9546L48.5199 40.9477L48.0817 44.672ZM51.7777 44.624L52.4748 48.3086L52.5193 48.3002L52.5635 48.2908L51.7777 44.624ZM53.0257 44.384L53.6422 48.083L53.7563 48.064L53.869 48.038L53.0257 44.384ZM54.1297 44L52.578 40.5861L52.5148 40.6149L52.4527 40.6459L54.1297 44ZM55.0417 43.376L57.6934 46.0277L55.0417 43.376ZM55.7617 42.224L52.315 40.7468L52.2969 40.7888L52.28 40.8313L55.7617 42.224ZM56.0977 39.968L52.3503 40.1068L52.3531 40.1813L52.3588 40.2556L56.0977 39.968ZM55.3297 37.856L52.467 40.2783L52.4921 40.3079L52.5179 40.3371L55.3297 37.856ZM52.9777 36.224L51.8749 39.8082L51.8936 39.8139L51.9124 39.8195L52.9777 36.224ZM50.2417 20.72L49.9541 16.981L49.9355 16.9825L49.9169 16.9841L50.2417 20.72ZM46.3537 21.824L48.4782 24.9142L48.4782 24.9142L46.3537 21.824ZM45.1537 23.216L41.7996 21.5389L41.7616 21.6151L41.727 21.693L45.1537 23.216ZM44.8177 25.376L41.0703 25.5148L41.0714 25.544L41.0729 25.5731L44.8177 25.376ZM45.1057 27.104L41.5081 28.1621L41.517 28.1924L41.5264 28.2225L45.1057 27.104ZM46.0177 28.544L48.875 26.1153L48.7767 25.9997L48.6694 25.8924L46.0177 28.544ZM47.9857 29.696L47.3693 33.395L47.4447 33.4076L47.5206 33.417L47.9857 29.696ZM50.2897 29.792V26.042H50.2117L50.1336 26.0453L50.2897 29.792ZM53.3617 29.264L51.9906 25.7737L51.9687 25.7823L51.9469 25.7912L53.3617 29.264ZM55.5217 27.008L58.9127 28.6093L58.9285 28.5758L58.9437 28.542L55.5217 27.008ZM55.8577 24.416L59.5042 23.5408V23.5408L55.8577 24.416ZM54.7537 22.4L52.0274 24.9748L52.0642 25.0138L52.1021 25.0516L54.7537 22.4ZM52.6897 21.104L51.297 24.5858L51.3793 24.6187L51.4631 24.6477L52.6897 21.104ZM50.0977 49.952V46.202C49.2625 46.202 48.3876 46.1602 47.4718 46.0744L47.1217 49.808L46.7717 53.5416C47.9039 53.6478 49.013 53.702 50.0977 53.702V49.952ZM47.1217 49.808L47.483 46.0754C46.7351 46.0031 45.999 45.8585 45.2713 45.6402L44.1937 49.232L43.1162 52.8238C44.3085 53.1815 45.5244 53.4209 46.7605 53.5406L47.1217 49.808ZM44.1937 49.232L45.4162 45.6869C44.7842 45.4689 44.1825 45.1743 43.6059 44.7974L41.5537 47.936L39.5016 51.0746C40.589 51.7857 41.7473 52.3551 42.9713 52.7771L44.1937 49.232ZM41.5537 47.936L43.6624 44.835C43.3129 44.5974 42.9955 44.2776 42.7111 43.826L39.5378 45.824L36.3644 47.822C37.168 49.0984 38.1946 50.1866 39.4451 51.037L41.5537 47.936ZM39.5378 45.824L42.6745 43.7689C42.2964 43.1919 42.039 42.595 41.8862 41.9645L38.2417 42.848L34.5973 43.7315C34.9565 45.213 35.5631 46.6001 36.401 47.8791L39.5378 45.824ZM38.2417 42.848L41.9147 42.0918C41.757 41.3259 41.7 40.5481 41.7456 39.7499L38.0017 39.536L34.2579 39.3221C34.1755 40.7639 34.2785 42.1941 34.5688 43.6042L38.2417 42.848ZM38.0017 39.536L41.7358 39.8817C41.8346 38.8142 42.164 38.0684 42.6355 37.4905L39.7297 35.12L36.824 32.7495C35.3115 34.6036 34.4889 36.8018 34.2677 39.1903L38.0017 39.536ZM39.7297 35.12L42.5982 37.5355C43.2188 36.7985 44.0014 36.2186 45.0121 35.7975L43.5697 32.336L42.1274 28.8745C40.0661 29.7334 38.2887 31.0096 36.8613 32.7045L39.7297 35.12ZM43.5697 32.336V28.586C43.9116 28.586 44.1766 28.6371 44.3273 28.673C44.4863 28.7108 44.6023 28.7523 44.6639 28.776C44.7804 28.8208 44.8229 28.849 44.7669 28.8179L42.9457 32.096L41.1246 35.3741C41.3566 35.503 41.6471 35.6512 41.9716 35.776C42.235 35.8774 42.825 36.086 43.5697 36.086V32.336ZM42.9457 32.096L44.9332 28.916C44.8054 28.8361 44.639 28.7209 44.432 28.5599L42.1297 31.52L39.8275 34.4801C40.1965 34.7671 40.5741 35.0359 40.9583 35.276L42.9457 32.096ZM42.1297 31.52L44.432 28.5599C44.1291 28.3243 43.8395 28.1028 43.5638 27.896L41.3137 30.896L39.0637 33.896C39.3 34.0732 39.5544 34.2677 39.8275 34.4801L42.1297 31.52ZM41.3137 30.896L43.9654 28.2444C43.7687 28.0477 43.3632 27.6433 42.9139 27.3438L40.8337 30.464L38.7536 33.5842C38.6973 33.5466 38.653 33.5145 38.6228 33.4918C38.5919 33.4686 38.5683 33.4498 38.553 33.4374C38.5239 33.4138 38.5108 33.4017 38.5171 33.4074C38.5222 33.4119 38.5371 33.4255 38.5631 33.4505C38.5887 33.475 38.6215 33.507 38.6621 33.5476L41.3137 30.896ZM40.8337 30.464L43.5893 27.9205C43.4805 27.8026 43.37 27.6465 43.2668 27.4273L39.8737 29.024L36.4807 30.6207C36.8895 31.4895 37.419 32.2934 38.0782 33.0075L40.8337 30.464ZM39.8737 29.024L43.3413 27.5962C43.1652 27.1686 43.0171 26.7479 42.8954 26.3339L39.2977 27.392L35.7001 28.4501C35.8984 29.1241 36.1343 29.7914 36.4062 30.4518L39.8737 29.024ZM39.2977 27.392L42.9004 26.3512C42.664 25.5327 42.6208 24.6453 42.828 23.6299L39.1537 22.88L35.4795 22.1302C35.0467 24.2507 35.0995 26.3713 35.6951 28.4328L39.2977 27.392ZM39.1537 22.88L42.8309 23.6154C43.0349 22.5956 43.4306 21.7874 43.9962 21.1123L41.1217 18.704L38.2473 16.2957C36.8289 17.9886 35.9126 19.9644 35.4766 22.1446L39.1537 22.88ZM41.1217 18.704L44.0322 21.0687C44.1395 20.9366 44.3205 20.7644 44.6351 20.5756L42.7057 17.36L40.7764 14.1444C39.811 14.7236 38.936 15.4474 38.2113 16.3393L41.1217 18.704ZM42.7057 17.36L44.7495 20.5042C45.1306 20.2564 45.5453 20.0526 46.0017 19.8939L44.7697 16.352L43.5378 12.8101C42.5222 13.1634 41.5609 13.6316 40.662 14.2158L42.7057 17.36ZM44.7697 16.352L46.1362 19.8442C46.6962 19.625 47.2419 19.4602 47.7744 19.3444L46.9777 15.68L46.1811 12.0156C45.2416 12.2198 44.3153 12.503 43.4033 12.8598L44.7697 16.352ZM46.9777 15.68L47.7426 19.3512C48.3274 19.2293 48.7522 19.19 49.0417 19.19V15.44V11.69C48.1153 11.69 47.1641 11.8107 46.2129 12.0088L46.9777 15.68ZM49.0417 15.44V19.19C49.9218 19.19 50.7878 19.1731 51.6396 19.139L51.4897 15.392L51.3399 11.645C50.5917 11.6749 49.8257 11.69 49.0417 11.69V15.44ZM51.4897 15.392L51.6396 19.139C52.1884 19.1171 52.7397 19.1497 53.2973 19.2389L53.8897 15.536L54.4822 11.8331C53.4398 11.6663 52.3911 11.6029 51.3399 11.645L51.4897 15.392ZM53.8897 15.536L53.2926 19.2382C53.856 19.329 54.3323 19.5022 54.7518 19.7442L56.6257 16.496L58.4997 13.2478C57.2552 12.5298 55.9075 12.063 54.4869 11.8338L53.8897 15.536ZM56.6257 16.496L54.8046 19.7741C55.3257 20.0636 55.7522 20.4042 56.107 20.7945L58.8817 18.272L61.6565 15.7495C60.7313 14.7318 59.6538 13.8884 58.4469 13.2179L56.6257 16.496ZM58.8817 18.272L56.107 20.7945C56.9584 21.7311 57.442 22.7065 57.6526 23.7594L61.3297 23.024L65.0069 22.2886C64.5135 19.8215 63.3651 17.6289 61.6565 15.7495L58.8817 18.272ZM61.3297 23.024L57.669 23.8375C57.9149 24.9439 57.8973 26.1129 57.5592 27.3977L61.1857 28.352L64.8123 29.3063C65.4342 26.9431 65.5126 24.5601 64.9904 22.2105L61.3297 23.024ZM61.1857 28.352L57.6064 27.2335C57.5681 27.356 57.5093 27.4792 57.4143 27.6124L60.4657 29.792L63.5172 31.9717C64.0621 31.2088 64.4833 30.372 64.765 29.4705L61.1857 28.352ZM60.4657 29.792L57.4934 27.5056C57.3125 27.7408 57.0903 27.9853 56.8182 28.2365L59.3617 30.992L61.9053 33.7475C62.4651 33.2307 62.979 32.6752 63.4381 32.0784L60.4657 29.792ZM59.3617 30.992L57.2816 27.8718C57.1302 27.9727 56.9266 28.1162 56.7021 28.2765L58.8817 31.328L61.0614 34.3795C61.2849 34.2198 61.4012 34.1393 61.4419 34.1122L59.3617 30.992ZM58.8817 31.328L56.7021 28.2765C56.518 28.408 56.2962 28.5608 56.0336 28.7358L58.1137 31.856L60.1939 34.9762C60.5073 34.7672 60.7975 34.568 61.0614 34.3795L58.8817 31.328ZM58.1137 31.856L56.1263 28.676C55.9655 28.7765 55.8129 28.8618 55.6687 28.9339L57.3457 32.288L59.0228 35.6421C59.3906 35.4582 59.75 35.2555 60.1012 35.036L58.1137 31.856ZM57.3457 32.288L56.029 28.7768C56.0445 28.771 56.1762 28.7212 56.3933 28.685C56.5844 28.6532 57.0654 28.5925 57.6792 28.746L56.7697 32.384L55.8603 36.022C57.1794 36.3518 58.3163 35.929 58.6625 35.7992L57.3457 32.288ZM56.7697 32.384L54.7823 35.564C55.5107 36.0192 56.2048 36.4721 56.8652 36.9224L58.9777 33.824L61.0903 30.7257C60.3427 30.2159 59.5648 29.7088 58.7572 29.204L56.7697 32.384ZM58.9777 33.824L56.9645 36.9877C57.0592 37.048 57.2191 37.1784 57.404 37.5219L60.7057 35.744L64.0075 33.9661C63.2964 32.6456 62.3043 31.496 60.991 30.6603L58.9777 33.824ZM60.7057 35.744L57.404 37.5219C57.6794 38.0333 57.8749 38.5703 57.9935 39.1438L61.6657 38.384L65.338 37.6242C65.0726 36.3417 64.6281 35.1187 64.0075 33.9661L60.7057 35.744ZM61.6657 38.384L58.0204 39.2639C58.157 39.8296 58.2016 40.374 58.1646 40.91L61.9057 41.168L65.6469 41.426C65.7379 40.106 65.6225 38.7944 65.3111 37.5041L61.6657 38.384ZM61.9057 41.168L58.158 41.0388C58.1396 41.571 58.0395 42.1016 57.8462 42.6427L61.3777 43.904L64.9093 45.1653C65.356 43.9144 65.6079 42.621 65.6535 41.2972L61.9057 41.168ZM61.3777 43.904L57.8612 42.6016C57.6984 43.0411 57.4655 43.4369 57.1477 43.8049L59.9857 46.256L62.8238 48.7071C63.722 47.6671 64.4171 46.4949 64.8943 45.2064L61.3777 43.904ZM59.9857 46.256L57.1477 43.8049C56.8008 44.2065 56.4038 44.5407 55.9444 44.8164L57.8737 48.032L59.8031 51.2476C60.9437 50.5633 61.9547 49.7135 62.8238 48.7071L59.9857 46.256ZM57.8737 48.032L55.9842 44.7928C55.4446 45.1076 54.865 45.3701 54.2399 45.5784L55.4257 49.136L56.6116 52.6936C57.7145 52.3259 58.7669 51.8524 59.7633 51.2712L57.8737 48.032ZM55.4257 49.136L54.2399 45.5784C53.6012 45.7913 52.931 45.9478 52.2254 46.0452L52.7377 49.76L53.2501 53.4748C54.4005 53.3162 55.5223 53.0567 56.6116 52.6936L55.4257 49.136ZM52.7377 49.76L52.2074 46.0477C51.4788 46.1518 50.7761 46.202 50.0977 46.202V49.952V53.702C51.1474 53.702 52.2047 53.6242 53.2681 53.4723L52.7377 49.76ZM50.1937 35.936L50.0235 32.1899C49.0949 32.2321 48.1652 32.3578 47.2371 32.5596L48.0337 36.224L48.8304 39.8884C49.3743 39.7702 49.8846 39.7039 50.364 39.6821L50.1937 35.936ZM48.0337 36.224L47.2027 32.5673C46.141 32.8086 45.1304 33.2004 44.1869 33.7467L46.0657 36.992L47.9446 40.2374C48.2171 40.0796 48.5185 39.9594 48.8648 39.8807L48.0337 36.224ZM46.0657 36.992L44.2446 33.7139C43.151 34.3215 42.2501 35.1541 41.5377 36.1404L44.5777 38.336L47.6178 40.5316C47.7374 40.3659 47.8285 40.3025 47.8869 40.2701L46.0657 36.992ZM44.5777 38.336L41.5989 36.0581C40.6892 37.2476 40.2408 38.6156 40.0845 39.9702L43.8097 40.4L47.535 40.8298C47.5532 40.6727 47.5792 40.5922 47.5883 40.5678C47.5961 40.5469 47.5899 40.5704 47.5566 40.6139L44.5777 38.336ZM43.8097 40.4L40.0784 40.0269C39.9601 41.2095 40.0955 42.4455 40.6142 43.6311L44.0497 42.128L47.4853 40.6249C47.5165 40.6962 47.5308 40.7577 47.5361 40.7961C47.5411 40.832 47.5356 40.828 47.5411 40.7731L43.8097 40.4ZM44.0497 42.128L40.7409 43.8927C41.1707 44.6986 41.712 45.4296 42.3581 46.0756L45.0097 43.424L47.6614 40.7724C47.5395 40.6504 47.4408 40.5174 47.3586 40.3633L44.0497 42.128ZM45.0097 43.424L42.5875 46.2867C43.3242 46.9101 44.1457 47.3947 45.0219 47.7555L46.4497 44.288L47.8776 40.8205C47.6658 40.7333 47.5273 40.6419 47.432 40.5613L45.0097 43.424ZM46.4497 44.288L45.2017 47.8242C45.9939 48.1038 46.8092 48.2982 47.6436 48.3963L48.0817 44.672L48.5199 40.9477C48.2663 40.9178 47.9935 40.8562 47.6978 40.7518L46.4497 44.288ZM48.0817 44.672L47.5255 48.3805C49.1907 48.6303 50.8477 48.6165 52.4748 48.3086L51.7777 44.624L51.0807 40.9394C50.3398 41.0795 49.5328 41.0977 48.638 40.9635L48.0817 44.672ZM51.7777 44.624L52.5635 48.2908C52.9648 48.2048 53.3237 48.1361 53.6422 48.083L53.0257 44.384L52.4092 40.685C51.9598 40.7599 51.4867 40.8512 50.992 40.9572L51.7777 44.624ZM53.0257 44.384L53.869 48.038C54.5201 47.8877 55.1765 47.6692 55.8068 47.3541L54.1297 44L52.4527 40.6459C52.443 40.6508 52.3634 40.6883 52.1825 40.73L53.0257 44.384ZM54.1297 44L55.6815 47.4139C56.4148 47.0805 57.0984 46.6227 57.6934 46.0277L55.0417 43.376L52.3901 40.7243C52.4289 40.6856 52.4682 40.6537 52.5042 40.6291C52.5398 40.6047 52.5663 40.5915 52.578 40.5861L54.1297 44ZM55.0417 43.376L57.6934 46.0277C58.4232 45.2979 58.9118 44.446 59.2435 43.6167L55.7617 42.224L52.28 40.8313C52.2553 40.8929 52.2445 40.9057 52.2578 40.8845C52.2717 40.8623 52.3125 40.8019 52.3901 40.7243L55.0417 43.376ZM55.7617 42.224L59.2085 43.7012C59.7667 42.3989 59.9405 41.0297 59.8367 39.6804L56.0977 39.968L52.3588 40.2556C52.383 40.5703 52.3328 40.7051 52.315 40.7468L55.7617 42.224ZM56.0977 39.968L59.8452 39.8292C59.7875 38.2728 59.2995 36.6871 58.1416 35.3749L55.3297 37.856L52.5179 40.3371C52.4807 40.295 52.4466 40.2481 52.4176 40.1989C52.3888 40.15 52.3695 40.1066 52.3575 40.0735C52.3333 40.007 52.3466 40.0061 52.3503 40.1068L56.0977 39.968ZM55.3297 37.856L58.1924 35.4337C57.1164 34.162 55.7426 33.1321 54.0431 32.6285L52.9777 36.224L51.9124 39.8195C51.9409 39.8279 52.1351 39.886 52.467 40.2783L55.3297 37.856ZM52.9777 36.224L54.0806 32.6398C52.7465 32.2294 51.3563 32.106 49.9598 32.1933L50.1937 35.936L50.4277 39.6787C51.0792 39.638 51.545 39.7066 51.8749 39.8082L52.9777 36.224ZM50.2417 20.72L49.9169 16.9841C49.0103 17.0629 48.1239 17.2026 47.2612 17.408L48.1297 21.056L48.9983 24.704C49.4796 24.5894 50.0012 24.5051 50.5666 24.4559L50.2417 20.72ZM48.1297 21.056L47.2612 17.408C46.1898 17.6631 45.1622 18.0924 44.2293 18.7338L46.3537 21.824L48.4782 24.9142C48.5693 24.8516 48.7256 24.7689 48.9983 24.704L48.1297 21.056ZM46.3537 21.824L44.2293 18.7338C43.175 19.4587 42.3606 20.417 41.7996 21.5389L45.1537 23.216L48.5079 24.8931C48.5112 24.8863 48.5139 24.8815 48.5156 24.8785C48.5173 24.8755 48.5183 24.8741 48.5183 24.874C48.5184 24.8739 48.5177 24.875 48.5162 24.8769C48.5147 24.8789 48.5127 24.8815 48.51 24.8845C48.5045 24.891 48.498 24.8976 48.4912 24.9037C48.4845 24.9097 48.4797 24.9132 48.4782 24.9142L46.3537 21.824ZM45.1537 23.216L41.727 21.693C41.1691 22.9481 41.0246 24.2803 41.0703 25.5148L44.8177 25.376L48.5652 25.2372C48.5564 25.0016 48.57 24.849 48.5832 24.7644C48.5961 24.6812 48.6057 24.6825 48.5805 24.739L45.1537 23.216ZM44.8177 25.376L41.0729 25.5731C41.1192 26.4515 41.2599 27.3181 41.5081 28.1621L45.1057 27.104L48.7034 26.0459C48.6316 25.8019 48.5803 25.5165 48.5626 25.1789L44.8177 25.376ZM45.1057 27.104L41.5264 28.2225C41.8973 29.4092 42.567 30.3965 43.3661 31.1957L46.0177 28.544L48.6694 25.8924C48.6187 25.8417 48.6102 25.8232 48.6218 25.8416C48.6347 25.8619 48.6617 25.9109 48.685 25.9855L45.1057 27.104ZM46.0177 28.544L43.1605 30.9727C44.2293 32.2301 45.6563 33.1095 47.3693 33.395L47.9857 29.696L48.6022 25.997C48.6577 26.0063 48.7363 26.0313 48.8122 26.0757C48.8845 26.118 48.9023 26.1475 48.875 26.1153L46.0177 28.544ZM47.9857 29.696L47.5206 33.417C48.4932 33.5386 49.469 33.5795 50.4459 33.5387L50.2897 29.792L50.1336 26.0453C49.5745 26.0685 49.0143 26.0454 48.4509 25.975L47.9857 29.696ZM50.2897 29.792V33.542C51.8335 33.542 53.3603 33.3139 54.7766 32.7368L53.3617 29.264L51.9469 25.7912C51.6352 25.9181 51.114 26.042 50.2897 26.042V29.792ZM53.3617 29.264L54.7329 32.7543C56.7751 31.952 58.0961 30.3385 58.9127 28.6093L55.5217 27.008L52.1308 25.4067C51.9942 25.6961 51.8913 25.8153 51.8651 25.8426C51.8535 25.8547 51.8595 25.8463 51.8854 25.8286C51.912 25.8104 51.9482 25.7903 51.9906 25.7737L53.3617 29.264ZM55.5217 27.008L58.9437 28.542C59.6168 27.0403 59.9316 25.3216 59.5042 23.5408L55.8577 24.416L52.2113 25.2911C52.2039 25.2602 52.2002 25.2314 52.1991 25.2081C52.198 25.1851 52.1997 25.1754 52.1989 25.1819C52.1971 25.1959 52.1824 25.2898 52.0998 25.474L55.5217 27.008ZM55.8577 24.416L59.5042 23.5408C59.1624 22.1168 58.4726 20.8156 57.4054 19.7484L54.7537 22.4L52.1021 25.0516C52.1228 25.0724 52.1691 25.1152 52.2113 25.2912L55.8577 24.416ZM54.7537 22.4L57.48 19.8252C56.477 18.7631 55.2545 18.0235 53.9164 17.5603L52.6897 21.104L51.4631 24.6477C51.789 24.7605 51.9425 24.8849 52.0274 24.9748L54.7537 22.4ZM52.6897 21.104L54.0825 17.6222C52.7673 17.0962 51.3775 16.8716 49.9541 16.981L50.2417 20.72L50.5294 24.459C50.77 24.4404 51.0122 24.4718 51.297 24.5858L52.6897 21.104Z" fill="#DD6E24" mask="url(#path-1-outside-1_49_9859)"/>
<path opacity="0.9" d="M44.3215 20.8916C43.9166 20.7427 43.5846 20.4549 43.4388 20.0724C43.1756 19.375 43.6413 18.6302 44.4754 18.4102L45.8035 18.0615C46.6377 17.8415 47.5285 18.2308 47.7917 18.9281C48.0549 19.6255 47.5892 20.3703 46.7551 20.5903L45.4269 20.939C45.0504 21.0372 44.6576 21.0135 44.3215 20.8916Z" fill="white"/>
<path opacity="0.9" d="M12.7205 25.6021C12.6239 25.5897 12.524 25.5681 12.4296 25.5385C11.5149 25.2592 10.9987 24.3114 11.2789 23.4181C11.863 21.5518 12.9102 20.4213 13.0283 20.3013C13.6783 19.6215 14.7761 19.5884 15.4748 20.2281C16.1691 20.8673 16.2153 21.9291 15.5741 22.6101C15.5434 22.641 14.9373 23.3265 14.5905 24.425C14.3406 25.2218 13.5415 25.7079 12.7205 25.6021Z" fill="white"/>
<defs>
<linearGradient id="paint0_linear_49_9859" x1="33" y1="0" x2="33" y2="72" gradientUnits="userSpaceOnUse">
<stop stop-color="#FFC45C"/>
<stop offset="1" stop-color="#FF9F5C"/>
</linearGradient>
</defs>
</svg>
