<svg width="207" height="124" viewBox="0 0 207 124" fill="none" xmlns="http://www.w3.org/2000/svg">
<g clip-path="url(#clip0_9_3502)">
<path d="M26.7108 55.9214C25.4707 55.9214 24.5238 55.6413 23.7609 55.3686L23.4979 55.2753L23.2649 55.1222C22.4081 54.5545 21.6415 53.7104 21.2169 52.8626L21.1605 52.7468L21.1154 52.6273C20.8561 51.9251 20.6757 51.152 20.5743 50.3304L20.5555 50.1922V50.0503C20.5555 49.9345 20.5292 49.7141 20.5066 49.5162C20.4728 49.2211 20.4352 48.8887 20.4352 48.5563V48.2687L20.5066 47.9924C20.548 47.8355 20.5555 47.5143 20.5555 47.3126C20.4578 46.4088 20.439 45.0643 20.4352 43.6898H9.89453C8.81227 43.6898 7.76008 43.5367 6.7605 43.2305C5.38513 43.0288 4.21645 42.1996 3.42354 40.8588C2.68701 39.9401 2.30371 38.7711 2.30371 37.4602C2.30371 35.9961 2.82229 34.7972 3.94212 33.688C4.28409 33.3481 4.94922 32.8066 5.90371 32.5489C6.4486 32.265 6.97469 32.1754 7.35799 32.1081C7.4369 32.0932 7.51958 32.082 7.60225 32.0633C8.29369 31.8803 8.81603 31.8803 9.23691 31.8803H17.8574C17.3801 31.7907 16.9029 31.6973 16.4256 31.5965C14.9789 31.3388 13.5246 30.8458 11.9876 30.0839L11.8862 30.0316L11.7885 29.9718C9.09035 28.2874 7.42939 26.476 6.5726 24.2799C5.5843 22.2183 5.12584 20.0671 5.12584 17.5236C5.12584 14.9802 5.65194 12.7057 6.6891 11.0176C7.6511 9.21366 9.27448 7.58154 11.6457 6.02785C12.8557 5.16137 14.1597 4.71692 15.7379 4.32477C17.0682 3.96622 18.6691 3.59274 20.2549 3.27902C22.2164 2.91674 23.8849 2.81216 25.1288 2.75987C25.8916 2.69638 26.6206 2.6665 27.2895 2.6665C27.9584 2.6665 28.5897 2.69638 29.1609 2.75987C31.3517 2.83084 32.8812 2.98023 34.4144 3.27528L34.467 3.28649C36.064 3.63009 37.8377 4.14923 39.4649 4.75054L39.5476 4.78415C40.4832 5.17257 41.434 5.66557 42.287 6.21085C43.7225 7.0848 44.6432 7.85791 45.267 8.71692C46.0486 9.75147 46.7551 10.7225 47.2098 11.7832C47.6945 12.6198 48.0778 13.7104 48.3597 15.0213C48.5663 16.0447 48.7204 16.9746 48.5889 18.1922C48.5889 19.0325 48.5776 19.9027 48.3785 20.8775C47.8974 24.7169 45.9283 27.645 42.5238 29.5871C40.7538 30.6404 38.578 31.4097 36.0904 31.8766H44.7822C45.8908 31.8766 46.6949 32.0671 47.5555 32.3546L47.6194 32.3771L47.6833 32.4032C48.6302 32.7804 49.5171 33.4041 50.1785 34.1511C51.2043 35.294 51.2908 36.5003 51.2908 37.6357C51.2908 39.477 50.6707 40.829 49.4457 41.6618C48.4311 42.5657 47.1684 42.9952 46.2139 43.1968C45.1655 43.5292 44.0269 43.6898 42.7379 43.6898H33.3396V47.1856C33.3396 48.0185 33.3396 48.8066 33.1592 49.5087L33.1029 49.7739C32.9413 50.5395 32.7759 51.3313 32.3663 52.2277C31.9004 53.3182 31.2089 54.1772 30.1943 54.9317L30.1004 54.9989L30.0027 55.0587C28.9542 55.6861 27.8419 55.843 26.8912 55.9177L26.801 55.9251H26.7108V55.9214ZM31.254 21.0755C32.558 20.9186 33.6064 20.7617 34.6774 20.5638C35.2336 20.3173 35.6544 20.0783 35.9476 19.8392C36.0265 19.5106 36.0716 19.1558 36.1279 18.7412C36.1392 18.6441 36.1542 18.547 36.1655 18.4499C36.1542 17.9718 36.0828 17.6095 35.9438 17.3257C35.6845 16.8551 35.4327 16.5899 35.0457 16.3845L34.948 16.3322L34.854 16.2725C34.467 16.0185 33.5425 15.7608 32.3476 15.7608H32.1747L32.0056 15.7347C30.9309 15.5741 29.4653 15.4583 27.7668 15.4023H27.6878L27.6089 15.3911C27.1805 15.3462 26.7221 15.3238 26.2073 15.3238C25.5308 15.3238 24.8507 15.3612 24.1329 15.3985C23.7121 15.4209 23.2912 15.4433 22.8703 15.4583C21.3446 15.5703 20.2586 15.8355 19.4469 16.2949L19.2853 16.3845L19.1125 16.448C18.3309 16.7393 18.2782 17.0941 18.2444 17.3257L18.2294 17.4153L18.2106 17.5012C18.1091 17.9307 18.1279 18.2631 18.1542 18.3565L18.1881 18.4611L18.2106 18.5545C18.3346 19.0923 18.3985 19.1408 18.4887 19.2043L18.624 19.3052L18.7405 19.4247C18.8983 19.5815 19.3793 19.8915 20.0707 20.1044L20.2774 20.1679L20.4691 20.2687C20.7847 20.4368 21.5513 20.7132 23.1672 20.7132H23.2837L23.4002 20.7244C23.8549 20.7692 24.3133 20.8066 24.7868 20.8439C25.5008 20.8999 26.3087 20.9672 27.2068 21.0717H31.254V21.0755Z" fill="url(#paint0_linear_9_3502)"/>
<path d="M27.2895 4.96361C27.9133 4.96361 28.4808 4.99349 28.9918 5.05325C30.9121 5.113 32.4152 5.23252 33.9747 5.53131C35.3576 5.83009 37.0374 6.30815 38.657 6.90572C39.3747 7.20451 40.2165 7.61907 41.0582 8.15689C42.1367 8.81422 42.9184 9.40806 43.3994 10.0654C44.1209 11.0215 44.7822 11.9141 45.1392 12.8105C45.6202 13.5873 45.9209 14.6592 46.1012 15.4958C46.2816 16.3884 46.4019 17.1055 46.2816 18.0579C46.2816 18.8945 46.2816 19.6676 46.1012 20.5042C45.7442 23.5481 44.3012 25.9347 41.3589 27.6041C38.657 29.2138 34.7526 30.1102 29.9501 30.1102H25.8691C24.366 30.1102 22.8666 30.1102 21.3672 29.9907C19.8077 29.9309 18.3046 29.6321 16.8653 29.3334C15.4862 29.0943 14.2236 28.6163 13.0211 28.0187C10.9204 26.704 9.42107 25.2736 8.69957 23.3651C7.80144 21.5164 7.44069 19.6639 7.44069 17.5164C7.44069 15.4884 7.80144 13.5799 8.69957 12.1457C9.54132 10.536 11.0407 9.16156 12.9609 7.90666C13.8628 7.24933 14.8812 6.89452 16.3242 6.53597C17.647 6.17743 19.2065 5.81889 20.7096 5.5201C22.3292 5.22131 23.7722 5.1018 25.2716 5.04204C25.9931 4.98229 26.6695 4.95241 27.2933 4.95241M27.0716 23.3726H31.3931C32.8962 23.1933 34.095 23.014 35.3576 22.775C36.4962 22.2969 37.3981 21.7591 37.9994 21.0458C38.3 20.2092 38.3601 19.4361 38.4804 18.5995C38.4804 17.7629 38.3601 16.9898 37.9994 16.2727C37.5785 15.4958 37.0374 14.8422 36.1392 14.3642C35.2374 13.7666 33.7981 13.4678 32.3551 13.4678C31.1564 13.2885 29.5969 13.169 27.8532 13.113C27.3008 13.057 26.7559 13.0346 26.211 13.0346C25.0461 13.0346 23.8962 13.1317 22.7501 13.169C21.0703 13.2885 19.5672 13.5873 18.3083 14.3044C16.8691 14.8422 16.1476 15.7983 15.9672 16.9898C15.7868 17.7666 15.7868 18.5434 15.9672 19.0775C16.1476 19.8544 16.3881 20.508 17.1096 21.0458C17.5868 21.5238 18.4286 22.0019 19.3906 22.2969C20.2925 22.775 21.5513 23.0103 23.1747 23.0103C24.3735 23.1298 25.576 23.1896 27.0753 23.3688M44.7822 34.1737C45.5639 34.1737 46.1012 34.2932 46.8227 34.5322C47.424 34.7713 48.0215 35.1896 48.4424 35.6676C48.9234 36.2017 48.9797 36.7395 48.9797 37.6359C48.9797 38.7078 48.7392 39.4249 48.0177 39.8432C47.4165 40.4407 46.5184 40.7993 45.6165 40.9748C44.7184 41.2736 43.7564 41.3931 42.7342 41.3931H30.9685C31.0286 41.6321 31.0286 41.8712 31.0286 42.0504V47.1821C31.0286 47.8954 31.0286 48.5528 30.9083 48.9711C30.728 49.8077 30.6077 50.521 30.247 51.2979C29.9463 52.0112 29.5292 52.549 28.8077 53.0869C28.2065 53.4454 27.4887 53.5649 26.7071 53.6247C25.8653 53.6247 25.2039 53.4454 24.5463 53.2064C24.0052 52.8478 23.5242 52.31 23.2875 51.832C23.047 51.1746 22.9267 50.5173 22.8666 50.043C22.8666 49.5649 22.7463 48.9673 22.7463 48.549C22.8666 48.071 22.8666 47.4771 22.8666 47.1784C22.7463 46.2222 22.7463 44.3137 22.7463 43.1186V41.3894H9.89831C9.06032 41.3894 8.15844 41.2699 7.25656 40.9711C6.47493 40.9113 5.81731 40.437 5.33631 39.5406C4.79518 38.9431 4.61856 38.1662 4.61856 37.4529C4.61856 36.5565 4.91919 35.9589 5.58057 35.3053C5.82107 35.0663 6.23819 34.7713 6.77932 34.7078C7.14007 34.409 7.62107 34.409 8.15844 34.2895C8.57932 34.17 8.87994 34.17 9.24069 34.17H44.7822M27.2895 0.373509C26.568 0.373509 25.7939 0.407123 24.986 0.470615C23.6708 0.526637 21.9158 0.638682 19.8678 1.0159L19.834 1.02337L19.8002 1.03084C18.1731 1.35203 16.5271 1.73672 15.1518 2.10647C13.5772 2.49863 11.9125 3.0215 10.338 4.13821C7.68119 5.88611 5.82858 7.76473 4.68245 9.88238C3.44612 11.9291 2.81856 14.4986 2.81856 17.5238C2.81856 20.3922 3.33714 22.831 4.45322 25.1914C5.21606 27.0962 6.3885 28.5677 7.62107 29.7068C7.45197 29.7367 7.27159 29.7741 7.0837 29.8226C7.04236 29.8301 7.00479 29.8376 6.96345 29.8413C6.55009 29.9123 5.84737 30.0318 5.06199 30.394C4.0361 30.7115 3.08537 31.2829 2.3075 32.056C0.751757 33.6023 -0.00732422 35.3688 -0.00732422 37.4491C-0.00732422 39.2344 0.518772 40.8478 1.51835 42.155C2.63067 43.9477 4.30666 45.1205 6.23443 45.4641C7.40687 45.8077 8.63568 45.9795 9.8908 45.9795H18.1543C18.1731 46.5024 18.1994 46.9841 18.2407 47.4099C18.2407 47.4547 18.2407 47.4958 18.2369 47.5294L18.1204 47.9776V48.549C18.1204 49.0159 18.1693 49.4342 18.2106 49.7741C18.2219 49.8712 18.2369 50.0131 18.2445 50.0803V50.3231L18.2783 50.6032C18.4023 51.5967 18.624 52.5378 18.9434 53.4081L19.0336 53.6471L19.1501 53.8749C19.7551 55.085 20.7885 56.2316 21.9835 57.0234L22.4495 57.3296L22.9756 57.5201C23.8699 57.8413 25.1025 58.211 26.7108 58.211H26.8912L27.0716 58.1961C28.2177 58.1065 29.7246 57.8936 31.1902 57.0159L31.3893 56.8964L31.5735 56.7582C32.9225 55.7573 33.8507 54.6032 34.4783 53.1391C34.9856 52.0224 35.1923 51.0327 35.3614 50.2334L35.4065 50.0168C35.647 49.0532 35.647 48.0971 35.647 47.1746V45.9757H42.738C44.2261 45.9757 45.5601 45.789 46.8077 45.4081C48.401 45.0532 49.7914 44.3884 50.8737 43.4622C52.219 42.5061 53.6019 40.7582 53.6019 37.6284C53.6019 36.62 53.6019 34.521 51.9071 32.62C51.0127 31.6116 49.8215 30.775 48.5476 30.2671L48.4198 30.2148L48.2883 30.17C47.7096 29.9795 47.082 29.7965 46.3267 29.6844C48.7618 27.5145 50.2161 24.6872 50.667 21.24C50.885 20.1307 50.9037 19.1672 50.9037 18.3007C51.0465 16.8217 50.8474 15.6564 50.6332 14.5845V14.5584L50.6219 14.5322C50.3063 13.0458 49.8553 11.7759 49.2841 10.7489C48.7355 9.51637 47.9726 8.45941 47.1121 7.32029C46.0787 5.9272 44.6545 4.95241 43.5159 4.25773C42.5538 3.64522 41.4904 3.09246 40.4382 2.65549L40.3555 2.62188L40.2691 2.592C38.5405 1.95334 36.6541 1.40059 34.9555 1.03457L34.9029 1.02337L34.8503 1.01216C33.2119 0.698439 31.5998 0.537842 29.3225 0.45941C28.695 0.395918 28.011 0.362305 27.2933 0.362305L27.2895 0.373509ZM23.0019 17.7517C23.4227 17.7367 23.8399 17.7143 24.2607 17.6919C24.9484 17.6546 25.5948 17.6209 26.211 17.6209C26.647 17.6209 27.0265 17.6396 27.376 17.6732L27.5376 17.6882H27.6991C29.3113 17.7479 30.6829 17.8525 31.6712 18.0019L32.0131 18.0542H32.3589C33.0503 18.0542 33.505 18.1737 33.6591 18.2297L33.7718 18.3044L33.8582 18.3492C33.8582 18.3604 33.8582 18.3679 33.8545 18.3791C33.0052 18.5248 32.1447 18.6518 31.1188 18.7787H27.3459C26.4628 18.6779 25.6812 18.6144 24.9822 18.5584C24.5125 18.521 24.0691 18.4837 23.6445 18.4426L23.4115 18.4202H23.1785C21.976 18.4202 21.5513 18.2372 21.5476 18.2372L21.1868 18.0467C21.649 17.9048 22.2503 17.8077 23.0094 17.7517H23.0019Z" fill="#DD6E24"/>
<path d="M74.1984 55.1447C66.9383 55.1447 51.8356 55.1447 51.8356 43.5406C51.8356 38.4761 55.0899 35.055 61.5421 33.3034H61.1362C60.6928 33.3109 60.2418 33.3221 59.7947 33.3221C56.8185 33.3221 53.5454 32.9785 51.8581 30.4201C50.7421 28.7282 50.2498 25.9458 50.3963 22.1512V22.0728L50.5166 11.3464C50.5166 7.94393 51.2118 6.7712 51.4373 6.38651L51.4748 6.32675C52.5533 4.63114 53.8122 3.78334 55.6761 3.50322C56.6531 3.31648 57.8519 3.23058 59.5504 3.23058C59.6443 3.23058 68.8698 3.31648 70.8126 3.46961H71.0757C73.1613 3.46961 76.6485 3.46961 78.55 6.50229C79.9479 8.65729 79.8765 11.3874 78.3658 13.4715C76.6899 15.8767 73.9767 15.8767 72.8155 15.8767L63.3345 15.8282C63.297 16.5042 63.2556 17.2959 63.2368 18.1437C63.2368 19.3015 63.2556 20.2315 63.2819 20.9374C65.2661 21.0009 68.1483 21.0382 70.4669 21.0382C71.4928 21.0382 72.3233 21.0308 72.808 21.0158H72.8719C74.3976 21.0158 76.1901 21.0831 78.1554 21.9122C80.5304 22.9131 81.4473 25.3968 81.3007 27.4136V27.4659C81.1429 29.0569 80.3913 30.831 78.1592 32C80.1433 32.0709 81.8869 32.2054 83.4389 32.4033C82.755 31.1484 82.5709 29.8898 82.5709 29.4565V9.21377C82.522 8.22405 82.7287 6.30808 83.3412 5.07185C84.1679 3.33516 86.1746 2.53217 87.7905 2.35663C88.1137 2.31555 88.4443 2.29688 88.7788 2.29688C90.6389 2.29688 92.3299 2.92433 93.3032 3.97755L93.3746 4.05598L93.4385 4.13814C94.8702 6.00556 94.8702 7.70864 94.8702 10.0653V14.379C96.3245 14.4463 97.1475 14.506 97.6698 14.6255C100.451 15.1708 101.405 16.7955 101.709 18.0989C102.066 19.3986 102.157 21.3893 101.255 22.8459C99.7855 25.2138 97.2264 25.408 94.874 25.4677V28.7843C94.7951 29.845 94.626 31.0999 93.9571 32.3622C93.5512 33.1615 92.9537 33.8562 92.2285 34.3716C91.9993 34.5322 91.7512 34.6704 91.4957 34.7861C95.6143 37.1577 96.5575 40.7507 96.5575 43.5406C96.5575 55.1447 81.4548 55.1447 74.1947 55.1447H74.1984ZM65.7095 43.4547C66.8707 43.8244 69.3057 44.2875 74.1984 44.2875C74.1984 44.2875 75.9045 44.2875 75.912 44.2875C77.5053 44.2875 81.9208 44.2875 83.4765 43.6414C82.5709 43.2605 80.226 42.7301 74.1984 42.7301C69.1817 42.7301 66.818 43.1111 65.7095 43.4509V43.4547Z" fill="url(#paint1_linear_9_3502)"/>
<path d="M88.7864 4.5901C89.94 4.5901 91.0636 4.93744 91.6122 5.53128C92.5742 6.78245 92.5743 7.91783 92.5743 10.0691V16.5714C93.2356 16.6312 96.4786 16.6909 97.1964 16.8702C98.7596 17.169 99.297 17.8263 99.4774 18.6592C99.7179 19.4958 99.778 20.8665 99.297 21.6433C98.335 23.1933 96.2945 23.1373 93.9534 23.1933H92.5705V28.6237C92.5104 29.4603 92.3901 30.4127 91.9091 31.3091C91.6686 31.7871 91.3079 32.2054 90.8907 32.5042C90.2895 32.9225 89.3275 33.1018 88.6699 33.1018C88.0686 33.1018 87.2306 32.9823 86.7496 32.6835C85.13 31.7274 84.8857 29.5201 84.8857 29.4603V9.169C84.8256 8.87021 84.9459 7.02148 85.4269 6.06536C85.7876 5.28852 86.93 4.7507 88.0686 4.63492C88.3054 4.60504 88.5459 4.5901 88.7864 4.5901ZM59.5504 5.53128C60.3321 5.53128 69.9408 5.65079 70.7187 5.77031C70.8352 5.77031 70.9555 5.77031 71.0757 5.77031C73.0974 5.77031 75.4122 5.8226 76.5997 7.73856C77.4978 9.11298 77.4415 10.8422 76.4795 12.1569C75.5776 13.4678 74.1383 13.5873 72.8156 13.5873L61.0461 13.5275C61.2264 13.5275 60.9859 15.5556 60.9258 18.1214C60.9258 21.0458 61.0461 23.014 61.1663 23.1335C62.7446 23.268 67.3742 23.3352 70.4669 23.3352C71.4928 23.3352 72.3496 23.3277 72.872 23.3128C74.2548 23.3128 75.6941 23.3726 77.2573 24.0261C78.8168 24.6835 79.0573 26.4127 78.9972 27.2493C78.6966 30.3529 74.9124 31.0065 71.3726 31.0065H61.1062C60.6703 31.014 60.2269 31.0252 59.7872 31.0252C57.307 31.0252 54.8532 30.7787 53.7784 29.1578C52.3993 27.07 52.6999 22.3567 52.6999 22.1176L52.8202 11.3763C52.8202 10.902 52.8202 8.57143 53.4214 7.55556C54.1392 6.4239 54.8006 5.94585 56.0632 5.76657C56.9651 5.5873 58.1074 5.52754 59.5467 5.52754M74.1985 34.2334C85.2465 34.2334 94.2502 35.4846 94.2502 43.5406C94.2502 51.5966 85.2427 52.8515 74.1985 52.8515C63.1542 52.8515 54.1467 51.4771 54.1467 43.5406C54.1467 36.3212 63.1542 34.2334 74.1985 34.2334ZM75.8932 46.5845C80.9926 46.5845 86.1484 46.4388 86.1484 43.5406C86.1484 40.7993 79.7864 40.437 74.2022 40.437C68.6181 40.437 62.6131 40.7955 62.6131 43.5406C62.6131 45.9869 68.6181 46.5845 74.2022 46.5845C74.7621 46.5845 75.3296 46.5845 75.897 46.5845M88.7864 0C88.3655 0 87.9408 0.0261438 87.5275 0.0784314C84.6941 0.392157 82.3079 1.91597 81.2669 4.0747C81.0377 4.54155 80.8498 5.06816 80.7033 5.61345C80.6394 5.5014 80.5717 5.39309 80.5003 5.28105C77.9187 1.18021 73.3003 1.18021 71.0757 1.18021H70.8916H70.8427C68.2461 1.0084 59.6406 0.941176 59.5467 0.941176C57.7241 0.941176 56.3976 1.03455 55.2816 1.24743C52.7788 1.63585 50.9488 2.86461 49.5208 5.10924L49.4832 5.169L49.4456 5.22876C48.912 6.12512 48.2056 7.73483 48.2056 11.3539L48.0853 22.0317V22.0691C47.9162 26.3492 48.5363 29.5836 49.9229 31.6825C50.9037 33.1653 52.234 34.0878 53.6319 34.6629C51.411 36.5528 49.5246 39.3838 49.5246 43.5406C49.5246 49.1279 52.6849 53.3669 58.4231 55.4771C62.117 56.8366 66.9834 57.4416 74.1947 57.4416C81.406 57.4416 86.2724 56.8366 89.9663 55.4771C95.7045 53.3669 98.8649 49.1279 98.8649 43.5406C98.8649 39.9664 97.591 36.9449 95.1972 34.6816C95.5054 34.2857 95.7797 33.8599 96.0089 33.4118C96.877 31.7684 97.0874 30.1587 97.1738 28.9412L97.1851 28.7806V27.6041C99.3459 27.324 101.691 26.5173 103.224 24.0448C104.502 21.9795 104.441 19.3539 103.949 17.5313C103.551 15.8842 102.269 13.1951 98.1471 12.3772C97.869 12.3175 97.5534 12.2689 97.1851 12.2278V10.0654C97.1851 7.5817 97.1851 5.23249 95.2799 2.74883L95.1521 2.58077L95.0093 2.4239C93.5851 0.881419 91.3154 0 88.7826 0L88.7864 0ZM80.2636 14.7899C80.2636 14.7899 80.2636 14.7862 80.2674 14.7824V20.4444C79.8991 20.2017 79.497 19.9851 79.0611 19.8021C76.8102 18.8534 74.7584 18.7227 72.8757 18.7227H72.7479C72.282 18.7376 71.474 18.7451 70.4707 18.7451C68.93 18.7451 67.1413 18.7302 65.5479 18.7003C65.5479 18.5322 65.5479 18.3567 65.5479 18.1774C65.5479 18.1662 65.5479 18.155 65.5479 18.1401L72.793 18.1774H72.8043H72.8156C77.8398 18.1774 79.6436 15.6825 80.2598 14.7899H80.2636Z" fill="#DD6E24"/>
<path d="M125.17 55.3837C120.48 55.3837 114.546 55.1857 110.217 53.6283C104.096 51.4285 102.811 47.1222 102.811 43.8991C102.811 37.8972 107.41 35.0326 112.592 33.6619H111.784C108.301 33.6619 104.43 33.3445 102.138 30.9915L102.108 30.9616C100.124 28.844 99.9811 25.1689 100.116 23.5517H100.109V10.2446C100.041 9.14652 100.135 6.92803 100.958 5.65819L101.014 5.57602C102.115 4.02607 103.292 3.28657 105.077 3.01767L105.133 3.0102H105.189C105.843 2.93923 107.271 2.88321 107.433 2.87574H107.523H123.133C124.189 2.87574 125.072 2.97285 125.914 3.182L126.154 3.24176C126.936 3.4285 128.116 3.70487 129.067 4.72075C129.837 5.50506 130.356 6.49852 130.562 7.59656L130.585 7.71234C130.724 8.38088 130.803 8.89255 130.634 9.72915C130.371 11.6339 129.191 13.1727 127.552 13.9308C129.022 14.9542 129.732 16.6797 129.51 18.7786C129.499 18.8683 129.495 18.9392 129.488 19.0139C129.431 19.6414 129.333 20.6834 128.604 21.576C128.153 22.1624 127.665 22.5882 127.176 22.9019C127.237 22.9168 127.297 22.9355 127.357 22.9504C127.905 23.0961 128.349 23.3389 128.638 23.5256C130.269 24.5415 131.209 26.3529 131.092 28.2614C130.987 29.9794 130.047 31.5256 128.597 32.4406C130.75 32.4892 133.114 32.6199 135.425 32.9784C134.057 31.3725 133.734 29.2884 133.734 28.6834V10.2035C133.662 9.12411 133.914 7.04007 134.474 5.78891L134.489 5.75529C135.226 4.18293 136.763 3.14839 138.822 2.84213L138.878 2.83466C139.194 2.79731 139.513 2.7749 139.825 2.7749C141.64 2.7749 143.286 3.4285 144.346 4.57135L144.391 4.61991L144.436 4.67219C145.259 5.67313 145.503 6.68153 145.684 7.41729L145.721 7.57042C145.984 8.51533 146.067 9.64325 145.973 11.1185C145.966 11.4658 145.951 12.9262 145.951 14.2558C147.548 14.3305 148.457 14.4089 149.062 14.5695C151.989 15.1297 152.959 16.8664 153.248 18.267C153.53 19.3874 153.737 21.6022 152.82 23.1969C151.272 25.8188 148.506 26.0055 145.981 26.0653V27.8692C145.905 29.0046 145.74 30.3491 145.03 31.7198C144.639 32.5564 144.068 33.2511 143.286 33.8449C142.786 34.2334 142.2 34.5321 141.561 34.7226C145.045 36.3547 147.544 39.1409 147.544 43.9028C147.544 47.126 146.259 51.4322 140.137 53.632C135.808 55.1895 129.871 55.3874 125.181 55.3874L125.17 55.3837ZM116.779 43.8132C117.966 44.1456 120.375 44.5303 125.17 44.5303C125.606 44.5303 126.049 44.5303 126.493 44.5303C126.932 44.5303 127.376 44.5303 127.812 44.5303C131.16 44.5303 133.358 44.351 134.369 43.9925C133.354 43.6152 130.923 43.2044 125.166 43.2044C120.446 43.2044 118.004 43.477 116.775 43.8057L116.779 43.8132Z" fill="url(#paint2_linear_9_3502)"/>
<path d="M139.818 5.07169C140.994 5.07169 142.031 5.47132 142.64 6.12865C143.177 6.78224 143.301 7.43957 143.478 8.15666C143.718 8.99326 143.718 10.0652 143.658 11.0213V11.0175C143.658 11.0175 143.602 15.223 143.658 16.4517C144.38 16.5115 147.803 16.5712 148.521 16.8065C150.201 17.1053 150.802 17.8224 150.982 18.7748C151.223 19.6674 151.283 21.2211 150.802 22.0577C149.78 23.7869 147.619 23.7309 145.098 23.7869H143.658V27.7272C143.598 28.6833 143.478 29.6954 142.941 30.7113C142.7 31.2491 142.339 31.6674 141.862 32.0259C141.261 32.504 140.479 32.6833 139.761 32.6833C139.16 32.6833 138.503 32.5638 138.022 32.2052C136.282 31.1893 136.041 28.743 136.041 28.6833V10.1249C135.981 9.82613 136.101 7.79812 136.582 6.72622C137.003 5.82986 137.961 5.29578 139.164 5.11651C139.386 5.09037 139.607 5.07543 139.822 5.07543M123.129 5.17253C123.911 5.17253 124.629 5.23229 125.35 5.41156C126.068 5.59083 126.85 5.71035 127.391 6.30419C127.872 6.78224 128.172 7.37982 128.289 8.03715C128.409 8.63472 128.469 8.81399 128.349 9.34807C128.169 10.9018 126.97 12.1529 125.166 12.1529C124.805 12.1529 122.043 12.0932 110.638 12.0932V15.0773C111.48 15.1184 112.258 15.1296 112.927 15.1296C114.265 15.1296 115.159 15.0773 115.2 15.0773H120.424C120.664 15.0773 120.931 15.1034 121.224 15.1034C121.371 15.1034 121.525 15.096 121.686 15.0773H123.246C124.144 15.0773 125.106 15.1968 125.888 15.6151C127.09 16.2127 127.327 17.4041 127.21 18.5395C127.15 19.0736 127.15 19.7309 126.789 20.1492C125.888 21.3443 124.869 21.4639 123.787 21.4639H110.638V23.3163C110.638 23.7346 110.698 24.209 110.995 24.5077C111.356 24.8065 112.017 24.8663 112.435 24.8663H122.881C123.216 24.8663 123.546 24.8625 123.881 24.8625C124.862 24.8625 125.827 24.8962 126.726 25.1651C126.966 25.2248 127.207 25.3443 127.387 25.4639C129.427 26.715 129.187 29.6991 126.966 30.715C125.745 31.3014 124.381 31.3873 123.054 31.3873C122.483 31.3873 121.923 31.3723 121.382 31.3723H111.777C109.135 31.3723 105.535 31.1931 103.792 29.4041C102.172 27.6749 102.352 23.7346 102.412 23.5554V10.2444C102.352 10.0054 102.352 7.73836 102.893 6.90176C103.615 5.88589 104.216 5.47132 105.415 5.29205C106.016 5.23229 107.516 5.17253 107.516 5.17253H123.126M125.17 34.7113C136.218 34.7113 145.222 35.8467 145.222 43.899C145.222 51.9512 136.214 53.0866 125.17 53.0866C114.126 53.0866 105.118 51.8355 105.118 43.899C105.118 36.6795 114.126 34.7113 125.17 34.7113ZM127.815 46.8308C132.588 46.8308 137.116 46.6179 137.116 43.899C137.116 41.18 130.754 40.9148 125.17 40.9148C119.586 40.9148 113.581 41.1539 113.581 43.899C113.581 46.3453 119.586 46.8233 125.17 46.8233C126.042 46.8233 126.932 46.8308 127.815 46.8308ZM139.818 0.481591C139.408 0.481591 138.995 0.507735 138.585 0.560022L138.529 0.567492L138.473 0.574961C135.662 0.993262 133.445 2.53201 132.389 4.79158L132.374 4.82519L132.359 4.85881C132.302 4.98206 132.25 5.10904 132.201 5.23976C131.832 4.46292 131.34 3.7533 130.735 3.13705C129.315 1.63192 127.612 1.22856 126.688 1.0082C126.617 0.989527 126.545 0.974588 126.474 0.955914C125.44 0.698211 124.381 0.578696 123.129 0.578696H107.339C107.065 0.593636 105.659 0.649658 104.953 0.72062L104.844 0.731824L104.735 0.746763C102.322 1.10904 100.594 2.18841 99.1281 4.25003L99.0717 4.32846L99.0191 4.41063C98.3539 5.43397 97.9782 6.70381 97.8316 8.40316C97.764 9.19868 97.7527 9.88589 97.8015 10.4685V23.3611C97.6926 24.5936 97.8354 25.9531 97.8955 26.4461C98.2111 29.0306 99.0604 31.0736 100.421 32.5227L100.451 32.5563L100.481 32.5862C101.323 33.4526 102.51 34.3864 104.603 35.0512C102.382 36.9298 100.503 39.7458 100.503 43.8952C100.503 47.1371 101.665 52.9895 109.436 55.7832C113.126 57.109 117.835 57.6767 125.174 57.6767C132.513 57.6767 137.221 57.1128 140.911 55.7832C148.683 52.9895 149.844 47.1371 149.844 43.8952C149.844 40.1193 148.423 36.9746 145.759 34.6889C146.308 34.1025 146.755 33.4452 147.093 32.7244C147.935 31.0848 148.164 29.5385 148.258 28.2202C150.599 27.9475 153.173 27.1184 154.793 24.377L154.804 24.3546L154.815 24.3322C156.01 22.2556 155.931 19.5217 155.488 17.7402C155.165 16.2612 153.966 13.2061 149.569 12.3285C149.205 12.2388 148.792 12.1679 148.265 12.1118C148.269 11.7122 148.273 11.3873 148.277 11.2043C148.378 9.5124 148.277 8.16786 147.95 6.99139L147.923 6.87935C147.717 6.03528 147.375 4.61978 146.217 3.21548L146.131 3.11091L146.037 3.01007C144.541 1.40036 142.275 0.474121 139.818 0.474121V0.481591ZM130.919 14.293C131.096 14.1025 131.261 13.9046 131.419 13.6991V15.3948C131.284 15.0101 131.115 14.6403 130.919 14.293ZM130.874 22.3378C131.115 21.9344 131.291 21.5273 131.419 21.1427V22.8681C131.246 22.6814 131.066 22.5059 130.874 22.3378Z" fill="#DD6E24"/>
<path d="M176.381 55.3837C171.691 55.3837 165.758 55.1857 161.429 53.6283C155.307 51.4285 154.022 47.1222 154.022 43.8991C154.022 37.8972 158.622 35.0326 163.804 33.6619H162.999C159.512 33.6619 155.638 33.3445 153.353 30.9915L153.323 30.9616C151.339 28.8403 151.2 25.1689 151.331 23.5517H151.324V10.2446C151.256 9.14652 151.35 6.92803 152.173 5.65819L152.226 5.57976C153.323 4.0298 154.503 3.28657 156.292 3.0214L156.348 3.01393L156.404 3.00646C157.058 2.93923 158.486 2.88321 158.648 2.87948H158.738H174.348C175.404 2.87948 176.287 2.97658 177.129 3.18573L177.373 3.24549C178.155 3.43223 179.335 3.70861 180.285 4.72448C181.06 5.5088 181.574 6.50226 181.781 7.60403L181.804 7.71981C181.943 8.38835 182.022 8.90002 181.852 9.73289C181.589 11.6376 180.409 13.1764 178.771 13.9346C180.24 14.9579 180.951 16.6834 180.729 18.7824C180.721 18.8608 180.714 18.9318 180.706 19.0027C180.65 19.6376 180.556 20.6834 179.819 21.5798C179.369 22.1624 178.884 22.5919 178.391 22.9056C178.452 22.9206 178.512 22.9392 178.568 22.9542C179.117 23.0998 179.56 23.3426 179.853 23.5293C181.484 24.5452 182.424 26.3566 182.307 28.2614C182.202 29.9794 181.262 31.5256 179.812 32.4444C181.965 32.4929 184.329 32.6236 186.64 32.9822C185.272 31.3762 184.949 29.2922 184.949 28.6871V10.2035C184.877 9.12411 185.129 7.04008 185.689 5.79264L185.704 5.75529C186.441 4.18293 187.978 3.14839 190.033 2.84213L190.09 2.83466C190.405 2.79731 190.725 2.7749 191.037 2.7749C192.852 2.7749 194.498 3.4285 195.557 4.57135L195.602 4.61991L195.647 4.67219C196.467 5.66566 196.715 6.67033 196.895 7.40609L196.936 7.57042C197.199 8.51533 197.278 9.64698 197.188 11.1185C197.181 11.4658 197.166 12.9262 197.166 14.2558C198.763 14.3305 199.668 14.4089 200.277 14.5695C203.204 15.1297 204.174 16.8664 204.463 18.267C204.745 19.3874 204.952 21.6022 204.035 23.1969C202.487 25.8188 199.721 26.0055 197.196 26.0616V27.8655C197.117 29.0644 196.951 30.3566 196.241 31.7161C195.85 32.5527 195.283 33.2474 194.498 33.8375C193.998 34.2259 193.412 34.5247 192.773 34.7151C196.256 36.3473 198.755 39.1334 198.755 43.8954C198.755 47.1185 197.47 51.4248 191.348 53.6246C187.019 55.182 181.082 55.3799 176.396 55.3799L176.381 55.3837ZM167.99 43.8132C169.177 44.1456 171.586 44.5303 176.381 44.5303C176.817 44.5303 177.26 44.5303 177.704 44.5303C178.143 44.5303 178.587 44.5303 179.023 44.5303C182.371 44.5303 184.569 44.351 185.58 43.9925C184.566 43.6152 182.134 43.2044 176.377 43.2044C171.657 43.2044 169.215 43.4771 167.986 43.8057L167.99 43.8132Z" fill="url(#paint3_linear_9_3502)"/>
<path d="M191.029 5.07169C192.205 5.07169 193.243 5.47132 193.851 6.12865C194.389 6.78224 194.513 7.43957 194.693 8.15666C194.934 8.99326 194.934 10.0652 194.87 11.0213V11.0175C194.87 11.0175 194.813 15.223 194.87 16.4517C195.591 16.5115 199.011 16.5712 199.732 16.8065C201.416 17.1053 202.013 17.8224 202.194 18.7748C202.434 19.6674 202.494 21.2211 202.013 22.0577C200.991 23.7869 198.831 23.7309 196.309 23.7869H194.87V27.7272C194.81 28.6833 194.693 29.6954 194.152 30.7113C193.911 31.2491 193.551 31.6674 193.074 32.0259C192.472 32.504 191.691 32.6833 190.973 32.6833C190.372 32.6833 189.714 32.5638 189.233 32.2052C187.489 31.1893 187.253 28.743 187.253 28.6833V10.1249C187.193 9.82613 187.313 7.79812 187.794 6.72622C188.215 5.82986 189.173 5.29578 190.372 5.11651C190.597 5.09037 190.815 5.07543 191.033 5.07543M174.341 5.17253C175.122 5.17253 175.84 5.23229 176.562 5.41156C177.279 5.59083 178.061 5.71035 178.602 6.30419C179.083 6.78224 179.384 7.37982 179.5 8.03715C179.62 8.63472 179.681 8.81399 179.56 9.34807C179.38 10.9018 178.181 12.1529 176.377 12.1529C176.017 12.1529 173.255 12.0932 161.85 12.0932V15.0773C162.691 15.1184 163.469 15.1296 164.138 15.1296C165.476 15.1296 166.37 15.0773 166.412 15.0773H171.635C171.876 15.0773 172.142 15.1034 172.436 15.1034C172.582 15.1034 172.736 15.096 172.898 15.0773H174.457C175.355 15.0773 176.317 15.1968 177.099 15.6151C178.301 16.2127 178.538 17.4041 178.422 18.5395C178.362 19.0736 178.362 19.7309 178.001 20.1492C177.099 21.3443 176.081 21.4639 174.998 21.4639H161.853V23.3163C161.853 23.7346 161.914 24.209 162.21 24.5077C162.571 24.8065 163.233 24.8663 163.65 24.8663H174.096C174.431 24.8663 174.762 24.8625 175.096 24.8625C176.077 24.8625 177.043 24.8962 177.941 25.1651C178.181 25.2248 178.422 25.3443 178.602 25.4639C180.643 26.715 180.402 29.6991 178.181 30.715C176.964 31.3014 175.596 31.3873 174.269 31.3873C173.698 31.3873 173.138 31.3723 172.597 31.3723H162.992C160.35 31.3723 156.747 31.1931 155.007 29.4041C153.387 27.6749 153.567 23.7346 153.628 23.5554V10.2444C153.567 10.0054 153.567 7.73836 154.109 6.90176C154.826 5.88589 155.431 5.47132 156.63 5.29205C157.231 5.23229 158.731 5.17253 158.731 5.17253H174.341ZM176.381 34.7113C187.429 34.7113 196.433 35.8467 196.433 43.899C196.433 51.9512 187.425 53.0866 176.381 53.0866C165.337 53.0866 156.329 51.8355 156.329 43.899C156.329 36.6795 165.337 34.7113 176.381 34.7113ZM179.027 46.8308C183.799 46.8308 188.327 46.6179 188.327 43.899C188.327 41.18 181.965 40.9148 176.381 40.9148C170.797 40.9148 164.792 41.1539 164.792 43.899C164.792 46.3453 170.797 46.8233 176.381 46.8233C177.253 46.8233 178.144 46.8308 179.027 46.8308ZM191.029 0.481591C190.62 0.481591 190.206 0.507735 189.797 0.560022L189.74 0.567492L189.684 0.574961C186.877 0.993262 184.66 2.53201 183.604 4.79158L183.589 4.82519L183.574 4.85881C183.517 4.98206 183.465 5.10904 183.416 5.23976C183.048 4.46665 182.555 3.75703 181.95 3.13705C180.53 1.63192 178.828 1.22856 177.903 1.0082C177.832 0.989527 177.76 0.974588 177.689 0.955914C176.656 0.698211 175.596 0.578696 174.344 0.578696H158.554C158.28 0.593636 156.878 0.649658 156.168 0.72062L156.055 0.731824L155.946 0.746763C153.53 1.10904 151.798 2.18841 150.336 4.25377L150.283 4.32846L150.23 4.40689C149.565 5.43024 149.19 6.70008 149.043 8.39942C148.975 9.19494 148.964 9.88215 149.013 10.4648V23.3574C148.904 24.5899 149.047 25.9494 149.107 26.4424C149.423 29.0231 150.272 31.0661 151.628 32.5189L151.658 32.5526L151.689 32.5824C152.53 33.4489 153.718 34.3864 155.811 35.0512C153.59 36.9298 151.711 39.7458 151.711 43.8952C151.711 47.1371 152.872 52.9895 160.643 55.7832C164.334 57.109 169.042 57.6767 176.381 57.6767C183.72 57.6767 188.429 57.1128 192.119 55.7832C199.89 52.9895 201.051 47.1371 201.051 43.8952C201.051 40.1193 199.631 36.9746 196.967 34.6889C197.512 34.1025 197.959 33.4452 198.301 32.7281C199.142 31.0922 199.375 29.5423 199.466 28.2202C201.807 27.9475 204.381 27.1184 206 24.377L206.012 24.3546L206.023 24.3322C207.218 22.2556 207.139 19.5217 206.696 17.7402C206.372 16.2612 205.174 13.2024 200.777 12.3285C200.413 12.2388 199.999 12.1679 199.473 12.1118C199.477 11.7122 199.481 11.3873 199.484 11.2043C199.586 9.50867 199.484 8.16413 199.157 6.99139L199.127 6.86068C198.921 6.02034 198.575 4.61604 197.425 3.21548L197.339 3.11091L197.245 3.01007C195.749 1.40036 193.483 0.474121 191.025 0.474121L191.029 0.481591ZM182.131 14.293C182.307 14.1025 182.473 13.9046 182.631 13.6991V15.3985C182.495 15.0101 182.326 14.6441 182.131 14.293ZM182.086 22.3378C182.326 21.9344 182.503 21.5311 182.631 21.1501V22.8719C182.458 22.6851 182.277 22.5096 182.086 22.3415V22.3378Z" fill="#DD6E24"/>
<path d="M41.6968 120.926C40.2125 120.926 38.8183 120.328 37.8751 119.282C36.4509 117.699 36.2066 116.183 36.0751 114.763L36.0638 114.659V114.554C36.0638 114.151 36.0525 113.43 36.0375 112.567C36.0225 111.536 35.9999 110.289 35.9924 109.142H34.8801C32.2496 109.142 30.9081 108.048 30.2354 107.096C29.777 109.251 29.0855 111.286 27.9056 113.101C26.0718 115.899 23.1707 117.867 19.939 118.509C19.1085 118.67 18.2705 118.752 17.44 118.752C15.2943 118.752 13.2237 118.214 11.4613 117.202C9.17655 115.876 7.45171 113.796 6.17405 110.834C5.34732 108.874 4.84753 106.745 4.71977 104.649C4.45296 101.691 4.3252 98.6102 4.3252 95.2302C4.3252 93.1536 4.3252 91.0098 4.55818 88.866C4.68219 87.0659 4.97906 85.2694 5.24586 83.7232L5.26089 83.6448C5.30599 83.4244 5.35108 83.2115 5.39242 82.9986C5.61789 81.8782 5.84712 80.7204 6.41455 79.4804C7.1586 77.852 8.07175 76.5262 9.1277 75.5327C10.969 73.7139 13.4981 72.515 16.2488 72.1527C16.5607 72.1153 16.8425 72.0967 17.0943 72.0855C17.2822 72.0743 17.4663 72.0668 17.6429 72.0444L17.7895 72.0257H17.9361C19.0221 72.0257 19.9953 72.1452 20.9348 72.261L21.0175 72.2722C22.8851 72.571 24.6062 73.4599 25.9928 74.8455L26.0267 74.8791C28.7849 77.7475 30.0814 81.7475 30.7089 85.7363C30.7277 85.7213 30.8254 85.6354 30.8254 85.6354L30.893 85.5831C31.6446 85.0229 32.5239 84.6233 33.3732 84.4552C34.0045 84.3282 34.7786 84.2834 35.7294 84.2386C35.7331 82.6662 35.7482 81.6018 35.7857 81.0341L35.797 80.5934C35.8496 78.3488 35.9173 75.2713 37.7887 73.4113C38.7018 72.5038 39.8818 72.022 41.1933 72.022H41.4075C43.7185 72.1303 47.6003 73.4449 47.6003 81.0864V113.733C47.6304 115.189 47.4237 117.886 45.7214 119.465C44.6805 120.466 42.9106 120.926 41.6893 120.926H41.6968ZM15.6475 95.0285C15.6738 95.7531 15.6513 96.4291 15.6325 97.0864C15.61 97.8259 15.5874 98.5206 15.64 99.1891C16.0008 104.127 16.7298 106.633 17.8045 106.648C17.8722 106.648 18.1427 106.621 18.4922 106.401C19.0446 105.968 19.3227 104.836 19.5406 103.675C20.093 100.646 20.063 96.8847 19.9465 93.2694V93.1237C19.8939 90.6961 19.83 87.3684 18.8229 85.6616C18.5185 85.1499 18.2141 84.9818 18.139 84.9594L18.0939 84.9669H18.0338C17.4889 85.0229 17.1394 85.5159 16.9402 85.9342L16.5006 86.9501C16.1849 87.9734 15.9745 89.2096 15.8617 90.726C15.749 92.2199 15.6475 93.669 15.6438 95.0285H15.6475ZM31.3515 94.4944C31.3703 96.0406 31.3365 97.5495 31.2538 99.0061C31.949 98.5392 32.7344 98.2031 33.4935 98.05C34.2187 97.9118 35.0342 97.8632 35.8383 97.8259C35.8383 97.0378 35.8308 96.1415 35.8233 95.2563L34.696 95.219C33.997 95.1928 32.5653 95.1368 31.3477 94.4944H31.3515Z" fill="url(#paint4_linear_9_3502)"/>
<path d="M41.3099 74.3191C44.9663 74.4834 45.3007 78.7785 45.3007 81.0903V113.736C45.3007 113.845 45.4097 116.653 44.1358 117.807C43.636 118.304 42.4748 118.633 41.697 118.633C40.8665 118.633 40.0924 118.304 39.5926 117.751C38.6494 116.706 38.484 115.772 38.3751 114.558C38.3751 113.292 38.2623 108.889 38.3187 106.853H34.884C33.2231 106.853 32.3362 106.3 31.9492 105.475C31.7275 105.034 31.5057 104.541 31.5057 104.045C31.5057 103.548 31.5057 103.219 31.6147 102.722C31.7801 102.173 31.9454 101.404 32.3888 101.016C32.8323 100.687 33.3847 100.411 33.9408 100.302C35.102 100.082 36.9321 100.138 38.1496 99.9699C38.1496 98.8681 38.1496 95.4545 38.097 93.0343L34.7713 92.926C33.3884 92.8737 32.1709 92.6496 31.7801 91.8242C31.5584 91.3835 31.393 90.8345 31.393 90.3378C31.393 89.8411 31.393 89.5124 31.502 89.0156C31.6673 88.4666 31.8327 87.8056 32.2761 87.4209C32.7195 87.0922 33.2719 86.8158 33.8243 86.7075C34.6548 86.5432 36.0941 86.5432 38.0331 86.4312C38.0331 84.0072 38.0331 81.8597 38.0895 81.1464C38.1421 79.2752 38.0895 76.3583 39.416 75.0362C39.9158 74.5395 40.5245 74.3228 41.1897 74.3228H41.2986M17.9362 74.3191C18.8794 74.3191 19.7663 74.4274 20.6494 74.5395C22.0323 74.7598 23.3062 75.4209 24.3584 76.4666C27.9584 80.2089 28.7362 86.6515 28.9579 91.8803C29.1233 95.2379 29.0669 98.6515 28.6799 101.953C28.2928 105.367 27.793 109.057 25.9667 111.865C24.4147 114.233 21.9759 115.776 19.4845 116.269C18.8156 116.399 18.1316 116.467 17.4402 116.467C15.783 116.467 14.1032 116.078 12.6151 115.223C10.6235 114.065 9.28947 112.25 8.29364 109.938C7.5759 108.231 7.12871 106.36 7.01974 104.489C6.74166 101.408 6.63268 98.3228 6.63268 95.2416C6.63268 93.1501 6.63268 91.1146 6.85439 89.0754C6.96337 87.4246 7.24145 85.7178 7.51577 84.1193C7.79385 82.8009 7.95919 81.6431 8.51159 80.433C9.06775 79.2192 9.7855 78.0651 10.7287 77.1837C12.3333 75.589 14.4414 74.7075 16.5458 74.4311C16.9893 74.3789 17.489 74.3789 17.9287 74.3228M17.7709 108.945C18.436 108.945 19.1538 108.724 19.8189 108.284C21.0402 107.402 21.4799 105.86 21.8106 104.101C22.4231 100.743 22.3667 96.6683 22.254 93.2024C22.1976 90.3938 22.145 86.7598 20.8147 84.504C20.1609 83.4022 19.1876 82.6664 18.1392 82.6664C18.0339 82.6664 17.9287 82.6739 17.8235 82.6889C16.6022 82.7972 15.4974 83.5703 14.8323 85.0007L14.3325 86.1585C13.889 87.5329 13.6711 89.0754 13.5584 90.5619C13.4456 92.0483 13.3366 93.5908 13.3366 95.0773C13.393 96.5637 13.2277 97.9382 13.3366 99.3723C13.6147 103.171 14.1108 108.896 17.7671 108.952M41.4151 69.729H41.2009C39.2882 69.729 37.4995 70.461 36.1617 71.7869C33.6364 74.3004 33.55 78.0539 33.4936 80.5413C33.4936 80.672 33.4861 80.799 33.4861 80.9223C33.4673 81.2211 33.4523 81.617 33.4448 82.1174C33.2682 82.1436 33.0953 82.1734 32.9262 82.2071C32.7383 82.2444 32.5542 82.2892 32.3776 82.3378C31.5396 79.0138 30.1229 75.813 27.6991 73.2958L27.6652 73.2622L27.6314 73.2285C25.8953 71.4993 23.7383 70.3901 21.3897 70.0129L21.307 69.9979L21.2243 69.9867C20.2586 69.8672 19.1688 69.7327 17.94 69.7327H17.6469L17.3575 69.7701C17.2899 69.7776 17.102 69.7888 16.9667 69.7962C16.6961 69.8112 16.3579 69.8298 15.9972 69.8747H15.9746L15.9521 69.8784C12.7128 70.3042 9.72162 71.7271 7.52329 73.8859C6.26066 75.081 5.18216 76.6422 4.31786 78.532C3.63769 80.0185 3.37088 81.3667 3.13038 82.5581C3.08905 82.7636 3.04771 82.969 3.00262 83.1819L2.98759 83.2603L2.97255 83.3387C2.69823 84.9298 2.39009 86.7822 2.25857 88.672C2.01807 90.9241 2.01807 93.1165 2.01807 95.2379C2.01807 98.6739 2.14959 101.811 2.42015 104.829C2.56671 107.167 3.12663 109.542 4.03978 111.712L4.04729 111.727L4.05481 111.742C5.53164 115.171 7.57214 117.606 10.2928 119.186C12.4235 120.411 14.8924 121.053 17.444 121.053C18.421 121.053 19.4055 120.96 20.3713 120.773H20.3826L20.3939 120.769C24.2306 120.007 27.6728 117.673 29.8373 114.371C30.5588 113.262 31.1187 112.086 31.5621 110.868C32.325 111.152 33.0728 111.301 33.7116 111.376C33.7191 111.798 33.7229 112.213 33.7304 112.609C33.7454 113.456 33.7567 114.185 33.7567 114.558V114.767L33.7755 114.973C33.9446 116.825 34.3504 118.812 36.1504 120.814C37.5371 122.349 39.555 123.223 41.697 123.223C43.2941 123.223 45.7066 122.674 47.3187 121.131C49.6523 118.954 49.9492 115.555 49.9154 113.695V81.0903C49.9154 78.7673 49.6072 76.8513 48.9796 75.2379C47.6719 71.8952 44.955 69.8896 41.5204 69.7327H41.4151V69.729Z" fill="#DD6E24"/>
<path d="M73.0708 120.982C66.318 120.982 52.2637 120.982 52.2637 110.207C52.2637 105.442 55.3301 102.782 59.1931 101.303C58.5167 101.139 57.8516 100.926 57.2052 100.668C52.3689 98.6703 49.3815 94.4388 49.3815 89.6171C49.3815 87.9962 49.6558 86.4687 50.1856 85.0793C48.7238 84.1755 47.7769 82.6143 47.7769 80.8104C47.7769 77.9682 50.2044 75.6526 53.1881 75.6526H56.8896C57.1526 73.2399 59.3998 71.4136 62.2182 71.4136C65.0366 71.4136 67.3326 73.2399 67.6032 75.6526H71.6353C72.5297 75.6526 73.3752 75.8618 74.123 76.2278C74.2245 75.8057 74.3597 75.3949 74.5401 75.0289C75.2165 73.5984 76.7384 72.6274 78.6174 72.4182C78.9142 72.3809 79.2073 72.3585 79.4854 72.3585C80.9585 72.3585 82.2098 72.9 83.1982 73.9645C83.4161 74.2072 83.5927 74.4463 83.7355 74.6853C83.9121 74.4313 84.1075 74.1811 84.3255 73.9383C85.2462 72.7992 86.5539 72.1942 88.1134 72.1942C88.4027 72.1942 88.7034 72.2166 89.0078 72.2576L89.0604 72.2651C90.7589 72.534 92.0779 73.4939 92.7731 74.9729C93.3556 76.1568 93.5021 77.8823 93.442 78.7936V97.1577C93.442 98.4052 92.8821 100.84 90.7852 102.091C90.4996 102.267 90.2253 102.405 89.951 102.517C92.3146 104.112 93.8892 106.532 93.8892 110.207C93.8892 120.982 79.8349 120.982 73.0783 120.982H73.0708ZM66.1489 110.14C67.3965 110.383 69.5121 110.614 73.0708 110.614C73.4766 110.614 75.1113 110.622 75.5172 110.622C78.0311 110.622 79.8311 110.513 80.8946 110.293C79.7297 110.013 77.4637 109.755 73.0708 109.755C69.5497 109.755 67.419 109.92 66.1489 110.14ZM73.8637 95.604C73.0633 96.9785 71.9885 98.196 70.6883 99.1633C70.5493 99.2679 70.4103 99.3687 70.2675 99.4696C71.3685 99.436 72.3268 99.436 73.067 99.436C73.5142 99.436 73.9877 99.436 74.48 99.436C73.9952 98.3902 73.8599 97.4117 73.8599 97.0494V95.604H73.8637ZM62.3723 87.4584C61.9025 87.4584 60.3693 87.6153 60.3693 89.6209C60.3693 90.943 60.8165 91.4098 62.0716 91.4098C62.3234 91.4098 62.5902 91.3837 62.8645 91.3351C64.3376 91.0102 64.4992 90.5396 64.4992 89.6209C64.4992 87.5704 62.6428 87.4621 62.4286 87.4584H62.3685H62.3723Z" fill="url(#paint5_linear_9_3502)"/>
<path d="M62.2146 73.7144C63.9319 73.7144 65.3148 74.7602 65.3148 76.1383V77.9535H71.628C73.2889 77.9535 74.7319 79.2196 74.7319 80.8143C74.7319 82.4091 73.2927 83.6229 71.628 83.6229H71.1845C72.4021 85.1654 73.1762 87.2009 73.1762 89.6211C73.1762 92.65 71.737 95.5146 69.2981 97.3298C67.3704 98.7901 65.0593 99.4474 62.7482 99.4474C61.1399 99.4474 59.5315 99.1299 58.0547 98.5436C54.4547 97.0571 51.6852 93.8638 51.6852 89.6248C51.6852 87.2046 52.4029 85.1654 53.6242 83.6267H53.1808C51.4635 83.6267 50.0806 82.4166 50.0806 80.8181C50.0806 79.2196 51.4635 77.9572 53.1808 77.9572H59.1633V76.1421C59.1633 74.7677 60.5461 73.7182 62.2109 73.7182M62.0756 93.707C62.4852 93.707 62.9023 93.6659 63.3232 93.5875C65.3712 93.1467 66.8104 92.101 66.8104 89.6211C66.8104 86.7602 64.6534 85.2177 62.4927 85.1617C62.4514 85.1617 62.4138 85.1617 62.3724 85.1617C60.1967 85.1617 58.0622 86.6519 58.0622 89.6211C58.0622 92.5903 59.9073 93.707 62.0756 93.707ZM88.1061 74.495C88.2902 74.495 88.4856 74.51 88.6923 74.5361C89.7445 74.7004 90.3532 75.2532 90.6839 75.9665C91.1274 76.848 91.1837 78.4427 91.1273 78.7191V97.1617C91.1273 97.27 91.0747 99.2532 89.5791 100.135C89.1357 100.411 88.805 100.519 88.3052 100.519C87.6401 100.519 86.9749 100.355 86.4752 99.9665C86.0881 99.6902 85.7574 99.3092 85.5357 98.8648C84.4271 96.8293 84.8142 94.185 84.8706 91.9292V91.1598C84.0965 91.2158 83.266 91.2681 82.5445 91.2681H82.3791V96.2803C82.3228 97.0496 82.2138 97.9311 81.7666 98.7565C81.5449 99.1972 81.2142 99.5819 80.8271 99.8022C80.3273 100.187 80.053 100.407 79.3879 100.407C78.8355 100.407 78.3357 100.243 77.8359 99.9665C76.3967 99.0851 76.1749 97.1057 76.1749 97.0496V78.8834C76.1186 78.551 76.1749 76.904 76.6184 76.0226C76.9491 75.3055 77.8359 74.8087 78.8881 74.7004C79.0985 74.6706 79.2939 74.6593 79.4781 74.6593C80.3687 74.6593 80.985 74.9805 81.4923 75.5258C81.9921 76.0786 82.0447 76.6276 82.21 77.2326C82.4317 77.946 82.4317 78.8274 82.4317 79.6005C82.3791 79.8209 82.3791 80.0412 82.3791 80.2616V85.1057C82.7098 85.1617 83.8747 85.2177 84.9232 85.27V79.4325C84.8706 78.6631 84.8706 77.8377 85.0885 77.0646C85.2539 76.5156 85.5883 75.9628 86.0843 75.4138C86.5466 74.8199 87.1967 74.4913 88.1023 74.4913M73.071 101.733C83.2622 101.733 91.5708 102.779 91.5708 110.211C91.5708 117.643 83.2622 118.689 73.071 118.689C62.8797 118.689 54.5712 117.531 54.5712 110.211C54.5712 103.552 62.8797 101.733 73.071 101.733ZM75.5173 112.915C79.9177 112.915 84.0927 112.721 84.0927 110.211C84.0927 107.701 78.2192 107.459 73.071 107.459C67.9228 107.459 62.3837 107.679 62.3837 110.211C62.3837 112.467 67.9228 112.908 73.071 112.908C73.8752 112.908 74.7019 112.915 75.5173 112.915ZM62.2146 69.1243C58.9979 69.1243 56.3073 70.8461 55.1537 73.3634H53.1883C48.9307 73.3634 45.4697 76.706 45.4697 80.8143C45.4697 82.7938 46.2438 84.5716 47.5215 85.8862C47.2246 87.0739 47.0743 88.3251 47.0743 89.6211C47.0743 94.5735 49.6785 98.9955 54.0188 101.629C50.5766 104.448 49.9566 108.011 49.9566 110.207C49.9566 113.289 51.0576 118.857 58.4342 121.509C61.8802 122.749 66.258 123.276 73.0747 123.276C79.8914 123.276 84.2731 122.749 87.719 121.509C95.0919 118.857 96.1929 113.292 96.1929 110.207C96.1929 107.122 95.2985 104.751 93.5962 102.742C95.1557 101.05 95.7495 98.8237 95.7495 97.1617V78.8461C95.8209 77.509 95.5917 75.496 94.8551 73.9871C93.8367 71.8358 91.8564 70.3867 89.4175 70.002L89.3649 69.9946L89.3123 69.9871C88.9027 69.9311 88.5006 69.9049 88.1098 69.9049C86.4338 69.9049 84.9119 70.4129 83.6868 71.3615C82.4731 70.5137 81.0451 70.0692 79.4818 70.0692C79.1098 70.0692 78.7265 70.0954 78.3357 70.1439C75.9232 70.4166 73.9052 71.6267 72.7816 73.4418C72.4058 73.3895 72.0225 73.3596 71.6355 73.3596H69.3319C68.1708 70.8461 65.4576 69.1206 62.2184 69.1206L62.2146 69.1243Z" fill="#DD6E24"/>
<path d="M130.983 120.818C126.428 120.818 121.261 120.65 117.466 119.41C111.758 117.542 110.563 113.707 110.563 110.816C110.563 105.49 114.794 103.055 119.198 101.916C118.777 101.905 118.357 101.894 117.939 101.879C117.488 101.86 116.985 101.849 116.463 101.834C115.448 101.811 114.396 101.785 113.573 101.711C113.385 101.703 113.223 101.684 113.084 101.669C113.035 101.666 112.99 101.658 112.945 101.654H112.836L112.765 101.643C111.483 101.524 110.273 101.408 108.763 100.004C107.831 99.1634 107.293 97.8076 107.293 96.2801C107.293 94.9692 107.808 93.6732 108.673 92.8029C110.187 91.2455 112.769 91.0102 114.174 91.0102H139.941C139.622 90.0018 139.543 88.9075 139.479 88.0112C139.464 87.7945 139.449 87.5966 139.434 87.4248C139.378 86.9393 139.404 86.45 139.423 86.0168C139.43 85.8823 139.438 85.7143 139.442 85.5649C139.239 85.52 138.886 85.4715 138.303 85.4715C137.946 85.4715 137.597 85.4864 137.273 85.5014C136.939 85.5163 136.627 85.5275 136.357 85.5275H120.683C120.363 85.5275 119.833 85.5761 119.319 85.6209L119.225 85.6283C118.819 85.662 118.36 85.6806 117.849 85.6806C117.338 85.6806 116.85 85.6657 116.335 85.6358H116.263C113.494 85.3818 111.559 84.493 110.514 82.9953C109.946 82.1811 109.387 80.8067 109.916 78.8534C110.352 77.1503 111.592 75.6227 113.235 74.7637C115.399 73.5835 117.706 73.5649 119.747 73.5649C120.386 73.5126 120.995 73.5088 121.581 73.5088C122.253 73.4565 122.888 73.4565 123.561 73.4565C124.482 73.4565 136.98 73.5088 138.19 73.5686H138.311C139.434 73.6246 140.498 73.6769 141.565 73.6769C143.786 73.6769 145.717 73.9234 147.468 74.4276L147.51 74.4388C150.339 75.309 150.64 77.6209 150.817 79.0028C150.835 79.1596 150.858 79.3202 150.881 79.4846C151.407 82.9206 151.192 85.0233 150.865 88.2016L150.839 88.4743C150.753 89.225 150.636 90.211 150.227 91.1522C151.294 91.2903 152.553 91.6339 153.586 92.5527C155.172 93.8375 155.172 95.5032 155.172 96.5004C155.172 98.5807 153.879 100.377 151.873 101.083C150.031 101.755 148.164 101.819 146.518 101.875H146.195C145.372 101.901 144.56 101.92 143.752 101.935C147.788 103.051 151.459 105.464 151.459 110.812C151.459 120.814 138.641 120.814 130.983 120.814V120.818ZM128.578 110.805C129.296 110.823 130.092 110.835 130.983 110.835C131.61 110.835 132.245 110.842 132.881 110.846C133.497 110.853 134.109 110.857 134.711 110.857C134.977 110.857 135.233 110.857 135.477 110.853C134.038 110.797 132.58 110.797 131.659 110.797H130.329C129.863 110.797 129.258 110.797 128.585 110.805H128.578Z" fill="url(#paint6_linear_9_3502)"/>
<path d="M123.561 75.7498C124.726 75.7498 136.965 75.8021 138.07 75.8581C139.235 75.9104 140.396 75.9664 141.561 75.9664C143.335 75.9664 145.105 76.1307 146.822 76.6275C148.431 77.1242 148.374 78.3343 148.596 79.8207C149.096 83.07 148.874 84.9972 148.543 88.2428C148.378 89.6732 148.209 90.9393 146.77 91.5481C146.198 91.7647 145.413 91.9402 144.65 91.9402C143.887 91.9402 143.094 91.7498 142.613 91.2157C141.839 90.3903 141.839 88.2988 141.73 87.197C141.618 86.2073 142.005 84.8852 141.396 84.1121C140.742 83.324 139.487 83.1746 138.299 83.1746C137.578 83.1746 136.879 83.2306 136.353 83.2306H120.679C120.236 83.2306 119.627 83.2867 119.018 83.3389C118.684 83.3651 118.285 83.38 117.849 83.38C117.413 83.38 116.944 83.3651 116.47 83.3389C114.031 83.1186 111.375 82.2372 112.149 79.4286C112.427 78.3268 113.257 77.3371 114.31 76.7881C116.027 75.8543 117.966 75.8543 119.849 75.8543C120.461 75.7983 121.07 75.7983 121.679 75.7983C122.287 75.746 122.896 75.746 123.561 75.746M114.174 93.3109C114.219 93.3109 114.246 93.3109 114.257 93.3109H145.939C147.048 93.3109 148.156 93.3109 149.208 93.367C150.208 93.4192 151.313 93.5873 152.091 94.3007C152.865 94.9057 152.865 95.6228 152.865 96.5042C152.865 97.606 152.2 98.5397 151.091 98.9281C149.596 99.4771 147.987 99.5332 146.435 99.5854H146.157C142.501 99.6938 139.122 99.6937 135.413 99.6937C135.47 100.796 135.47 101.569 135.413 103.216C143.335 103.492 149.152 104.979 149.152 110.812C149.152 117.64 141.009 118.521 130.983 118.521C120.957 118.521 112.87 117.64 112.87 110.812C112.87 105.307 119.296 103.492 127.714 103.16C127.714 102.002 127.77 100.683 127.77 99.69C124.388 99.69 121.122 99.69 118.022 99.5817C116.748 99.5294 114.866 99.5294 113.701 99.4174C113.479 99.4174 113.201 99.3614 112.983 99.3614C111.818 99.253 111.266 99.197 110.326 98.3156C109.826 97.8749 109.605 97.0495 109.605 96.2801C109.605 95.563 109.883 94.8497 110.326 94.4052C111.341 93.3483 113.693 93.3035 114.174 93.3035M130.983 108.504C130.765 108.504 130.543 108.504 130.325 108.504C125.482 108.504 120.517 108.553 120.517 110.816C120.517 112.908 125.944 113.128 130.987 113.128C132.219 113.128 133.493 113.154 134.711 113.154C138.532 113.154 141.843 112.9 141.843 110.816C141.843 108.553 136.571 108.504 131.652 108.504C131.426 108.504 131.205 108.504 130.983 108.504ZM123.561 71.1597C122.9 71.1597 122.22 71.1597 121.491 71.212C120.931 71.212 120.315 71.2194 119.657 71.268C117.47 71.268 114.787 71.3091 112.122 72.7507C109.935 73.9085 108.282 75.9664 107.684 78.267C107.094 80.4519 107.425 82.592 108.616 84.3025C110.071 86.3866 112.573 87.6004 116.053 87.9141L116.125 87.9216H116.196C116.756 87.9589 117.312 87.9776 117.849 87.9776C118.424 87.9776 118.95 87.9589 119.409 87.9178H119.42H119.431L119.525 87.9104C119.924 87.8768 120.469 87.8282 120.683 87.8282H136.357C136.62 87.8282 136.887 87.8207 137.15 87.8095C137.161 87.9253 137.168 88.0486 137.176 88.1793C137.187 88.3511 137.202 88.5341 137.217 88.7208H114.174C112.404 88.7208 109.131 89.0458 107.023 91.2045C105.727 92.5117 104.986 94.3604 104.986 96.2838C104.986 98.45 105.791 100.418 107.196 101.696C108.571 102.973 109.804 103.481 111.048 103.731C108.699 106.2 108.256 109.031 108.256 110.816C108.256 113.804 109.36 119.171 116.748 121.591C120.841 122.932 126.011 123.115 130.987 123.115C135.962 123.115 141.17 122.932 145.27 121.591C148.446 120.556 153.77 117.778 153.77 110.816C153.77 108.022 152.876 105.591 151.193 103.679C151.677 103.567 152.166 103.421 152.658 103.246C155.589 102.207 157.483 99.5668 157.483 96.5042C157.483 95.38 157.483 92.7806 155.089 90.8123C154.432 90.2372 153.733 89.8263 153.034 89.5313C153.075 89.2474 153.105 88.9935 153.132 88.7768V88.7432L153.139 88.7096L153.165 88.4407C153.496 85.2101 153.737 82.8721 153.165 79.1447C153.143 78.9991 153.124 78.8534 153.109 78.7152C152.929 77.3035 152.444 73.5574 148.194 72.2502L148.153 72.239L148.111 72.2278C146.146 71.6601 144.004 71.3838 141.561 71.3838C140.55 71.3838 139.517 71.3352 138.42 71.2867L138.288 71.2792C136.872 71.212 124.095 71.1634 123.561 71.1634V71.1597Z" fill="#DD6E24"/>
<path d="M182.202 121.707C178.749 121.707 174.657 121.662 171.369 121.625C169.32 121.602 167.554 121.583 166.634 121.583C166.382 121.583 166.198 121.583 166.089 121.587H166.014C164.12 121.587 161.944 121.412 160.155 120.09C157.927 118.394 157.596 115.268 157.491 114.166L157.446 114.032V113.662C157.446 113.662 157.502 105.352 157.502 105.09C157.502 102.943 158.487 101.273 160.204 100.515C160.482 100.392 160.771 100.302 161.053 100.231C160.587 99.9364 160.144 99.6152 159.719 99.2753C156.574 96.7431 154.842 93.2175 154.842 89.3482C154.842 87.3911 155.214 85.5461 155.935 83.8841C154.225 82.9915 153.068 81.2847 153.068 79.3276C153.068 76.4219 155.571 74.0615 158.644 74.0615H163.68C163.981 71.6189 166.329 69.7104 169.17 69.7104C172.011 69.7104 174.36 71.6189 174.66 74.0615H180.083C183.157 74.0615 185.66 76.4257 185.66 79.3276C185.66 81.1726 184.63 82.7973 183.078 83.7235C183.867 85.4415 184.277 87.3426 184.277 89.3482C184.277 93.5274 182.274 97.5088 178.918 99.9962C176.412 101.845 173.338 102.823 170.019 102.823C169.347 102.823 168.674 102.782 168.005 102.7C168.129 102.992 168.223 103.301 168.287 103.63L168.325 103.839V104.011H187.569C187.704 102.82 188.106 101.968 188.636 101.367C186.67 99.8991 186.25 97.3706 186.25 96.7282V78.6255C186.193 77.6283 186.426 75.8206 186.975 74.7077C187.655 73.2735 189.154 72.3024 191.003 72.1007C191.308 72.0634 191.616 72.041 191.92 72.041C193.581 72.041 195.077 72.6274 196.024 73.6544L196.076 73.7105L196.125 73.7702C196.824 74.6404 197.057 75.4994 197.222 76.1269L197.264 76.2837C197.519 77.1316 197.602 78.1138 197.519 79.3575V82.6479C198.782 82.7076 199.485 82.7637 199.958 82.8682C202.611 83.3911 203.524 84.9523 203.817 86.2072C204.156 87.4434 204.234 89.337 203.374 90.7226C202.017 92.9187 199.605 93.1577 197.515 93.2175V96.041L197.508 96.1231C197.437 97.1241 197.275 98.3043 196.647 99.4882C196.463 99.8468 196.242 100.183 195.986 100.493C196.283 100.642 196.569 100.825 196.828 101.049L196.888 101.102C198.263 102.368 198.218 103.992 198.188 104.963C198.188 105.083 198.181 105.203 198.181 105.318V105.393C198.139 106.648 198.154 107.884 198.169 109.191C198.196 111.238 198.218 113.356 198.012 115.514C197.91 117.09 197.301 118.118 196.685 119.033C195.05 121.427 191.965 121.475 189.925 121.505C189.624 121.509 189.335 121.513 189.098 121.524C188.433 121.625 186.945 121.707 182.206 121.707H182.202ZM169.456 86.6031C168.941 86.6031 166.382 86.7338 166.382 89.3482C166.382 91.9626 168.67 92.0783 169.369 92.0783C169.651 92.0783 169.937 92.0522 170.211 91.9962C170.981 91.8505 172.733 91.3052 172.733 89.3482C172.733 87.182 170.673 86.6031 169.456 86.6031Z" fill="url(#paint7_linear_9_3502)"/>
<path d="M169.17 72.0037C170.944 72.0037 172.383 73.1615 172.383 74.5919V76.3548H180.083C181.909 76.3548 183.352 77.6731 183.352 79.3277C183.352 80.9822 181.913 82.2446 180.083 82.2446H179.418C180.97 84.0634 181.965 86.4276 181.965 89.3482C181.965 92.7618 180.361 96.0634 177.535 98.1549C175.333 99.7796 172.676 100.527 170.016 100.527C163.586 100.527 157.152 96.1643 157.152 89.3482C157.152 86.4313 158.096 84.0634 159.644 82.2446H158.648C156.822 82.2446 155.379 80.9262 155.379 79.3277C155.379 77.7292 156.818 76.3548 158.648 76.3548H165.957V74.5919C165.957 73.1615 167.396 72.0037 169.17 72.0037ZM169.373 94.3753C169.809 94.3753 170.241 94.3342 170.669 94.2483C172.995 93.8076 175.047 92.1568 175.047 89.3482C175.047 86.0317 172.236 84.3099 169.463 84.3099C166.69 84.3099 164.082 85.9495 164.082 89.3482C164.082 92.7469 166.705 94.3753 169.377 94.3753M191.916 74.3305C192.927 74.3305 193.81 74.6517 194.314 75.197C194.757 75.7497 194.87 76.2987 195.035 76.9038C195.257 77.6171 195.257 78.4985 195.2 79.2717V83.07C195.2 83.07 195.144 83.7833 195.2 84.8328C195.809 84.8851 198.8 84.9411 199.466 85.1054C200.905 85.3818 201.401 85.9869 201.57 86.7562C201.792 87.5256 201.848 88.7917 201.405 89.5088C200.522 90.9393 198.635 90.8832 196.474 90.9393H195.204V95.9477C195.148 96.717 195.039 97.5984 194.592 98.4238C194.37 98.8646 194.039 99.2492 193.652 99.5256C193.096 99.9103 192.431 100.075 191.822 100.075C191.27 100.075 190.714 99.9663 190.27 99.69C188.775 98.8085 188.553 96.773 188.553 96.717V78.5508C188.497 78.2782 188.609 76.5714 189.053 75.69C189.383 74.9766 190.218 74.4799 191.27 74.3716C191.488 74.3417 191.706 74.3305 191.916 74.3305ZM192.946 102.155C193.833 102.155 194.78 102.319 195.317 102.779C196.035 103.44 195.869 104.429 195.869 105.311C195.76 108.668 196.035 111.97 195.704 115.328C195.648 116.317 195.317 116.926 194.761 117.752C193.596 119.458 190.552 119.126 188.835 119.238C188.173 119.369 185.502 119.41 182.202 119.41C176.532 119.41 169.005 119.287 166.633 119.287C166.352 119.287 166.141 119.287 166.017 119.294C164.522 119.294 162.804 119.186 161.53 118.248C159.869 116.982 159.813 113.845 159.757 113.677C159.757 113.677 159.809 105.311 159.809 105.091C159.809 104.045 160.14 103.055 161.14 102.611C161.639 102.39 162.301 102.334 162.913 102.282C163 102.278 163.086 102.274 163.176 102.274C164.39 102.274 165.758 102.655 166.013 104.041V105.471C166.089 106.207 166.261 106.304 166.63 106.304C166.765 106.304 166.923 106.293 167.111 106.293C167.182 106.293 167.261 106.293 167.344 106.301H189.831V104.65C189.887 103.331 190.274 102.502 191.604 102.282C191.98 102.203 192.454 102.155 192.946 102.155ZM167.479 114.334C167.75 114.334 168.043 114.301 168.34 114.282C170.388 114.282 172.992 114.338 175.205 114.394C175.273 114.401 175.468 114.401 175.765 114.401C177.843 114.401 184.866 114.271 186.945 114.271C187.241 114.271 187.433 114.271 187.501 114.278C187.771 114.297 188.121 114.345 188.455 114.345C189.075 114.345 189.658 114.185 189.658 113.401C189.658 112.848 189.879 112.407 189.436 111.914C189.083 111.485 188.587 111.387 188.072 111.387C187.861 111.387 187.651 111.402 187.444 111.417C187.11 111.417 169.388 111.365 169.275 111.365C168.869 111.35 168.426 111.316 168.009 111.316C167.002 111.316 166.119 111.492 166.119 112.463C166.119 112.848 166.119 113.068 166.175 113.344C166.4 114.17 166.889 114.33 167.471 114.33M169.17 67.4136C165.946 67.4136 163.173 69.2063 161.974 71.7646H158.648C154.3 71.7646 150.764 75.1559 150.764 79.3277C150.764 81.4491 151.692 83.365 153.18 84.732C152.752 86.1885 152.534 87.7385 152.534 89.3482C152.534 93.4005 154.131 97.1241 157.059 99.9887C155.86 101.288 155.191 103.066 155.191 105.091C155.191 105.318 155.157 110.334 155.138 113.647V114.386L155.217 114.637C155.375 116.168 155.897 119.735 158.719 121.886L158.75 121.908L158.78 121.931C161.124 123.66 163.879 123.88 166.013 123.88H166.16C166.254 123.877 166.416 123.873 166.63 123.873C167.535 123.873 169.298 123.892 171.335 123.914C174.63 123.951 178.73 123.996 182.198 123.996C186.933 123.996 188.512 123.91 189.308 123.806C189.489 123.798 189.714 123.795 189.951 123.791C192.16 123.757 196.279 123.694 198.579 120.321L198.586 120.31L198.594 120.299C199.402 119.1 200.165 117.714 200.3 115.69C200.518 113.419 200.492 111.249 200.465 109.154C200.45 107.873 200.435 106.663 200.473 105.457V105.382V105.307C200.473 105.214 200.473 105.117 200.48 105.02C200.51 104.03 200.574 101.826 198.966 99.9514C199.56 98.5956 199.725 97.2997 199.8 96.2838L199.811 96.1195V95.3277C201.795 95.0252 203.911 94.211 205.332 91.914C206.564 89.9309 206.512 87.3986 206.042 85.6395C205.655 84.0373 204.411 81.4192 200.42 80.6199C200.236 80.5788 200.037 80.5452 199.811 80.5153V79.4248C199.902 77.9495 199.793 76.7432 199.469 75.6563L199.436 75.5368C199.24 74.8048 198.913 73.5835 197.91 72.3361L197.816 72.2166L197.714 72.1045C196.335 70.6069 194.22 69.7478 191.909 69.7478C191.514 69.7478 191.116 69.774 190.721 69.8225C188.196 70.1026 186.095 71.4472 185.021 73.4453C183.668 72.3996 181.947 71.7684 180.075 71.7684H176.362C175.164 69.2138 172.387 67.4173 169.166 67.4173L169.17 67.4136ZM168.723 89.0681C168.805 89.0083 169.069 88.9 169.459 88.9C170.012 88.9 170.357 89.1092 170.418 89.1801C170.418 89.1801 170.429 89.2399 170.429 89.3482C170.429 89.4229 170.421 89.4677 170.418 89.4864C170.365 89.535 170.17 89.6694 169.805 89.7366H169.786L169.767 89.7441C169.64 89.7702 169.508 89.7815 169.377 89.7815C169.046 89.7815 168.813 89.6993 168.73 89.647C168.719 89.5984 168.7 89.5013 168.7 89.3445C168.7 89.1876 168.719 89.1055 168.73 89.0644L168.723 89.0681ZM180.459 101.71C181.883 100.624 183.097 99.3053 184.055 97.83C184.254 98.9094 184.735 100.388 185.746 101.71H180.459Z" fill="#DD6E24"/>
<path opacity="0.9" d="M86.9485 48.0559C86.6516 48.0559 86.3548 47.9401 86.1368 47.7048C85.7159 47.2604 85.7422 46.562 86.1894 46.1437L86.9034 45.4826C87.3506 45.0643 88.0533 45.0905 88.4742 45.5349C88.8951 45.9794 88.8687 46.6778 88.4216 47.0961L87.7076 47.7571C87.4934 47.9551 87.2228 48.0559 86.9485 48.0559Z" fill="white"/>
<path opacity="0.9" d="M91.2024 9.53509C90.992 9.74424 90.6989 9.86749 90.3795 9.85628C89.7669 9.83761 89.2859 9.32594 89.3047 8.71716L89.3386 7.74984C89.3573 7.14107 89.8722 6.66301 90.4847 6.68168C91.0972 6.70036 91.5782 7.21203 91.5594 7.8208L91.5256 8.78812C91.5143 9.07944 91.3941 9.34088 91.2024 9.53135V9.53509Z" fill="white"/>
<path opacity="0.9" d="M89.8157 78.9282C89.6053 79.1373 89.3122 79.2606 88.9928 79.2494C88.3802 79.2307 87.8992 78.719 87.918 78.1102L87.9518 77.1429C87.9706 76.5341 88.4854 76.0561 89.098 76.0747C89.7105 76.0934 90.1915 76.6051 90.1727 77.2139L90.1389 78.1812C90.1276 78.4725 90.0074 78.7339 89.8157 78.9244V78.9282Z" fill="white"/>
<path opacity="0.9" d="M81.1692 78.9282C80.9588 79.1373 80.6657 79.2606 80.3463 79.2494C79.7337 79.2307 79.2527 78.719 79.2715 78.1102L79.3053 77.1429C79.3241 76.5341 79.839 76.0561 80.4515 76.0747C81.064 76.0934 81.545 76.6051 81.5262 77.2139L81.4924 78.1812C81.4811 78.4725 81.3609 78.7339 81.1692 78.9244V78.9282Z" fill="white"/>
<path opacity="0.9" d="M62.181 77.8823C61.9781 78.0989 61.6887 78.2296 61.3693 78.2296C60.7568 78.2296 60.2607 77.7329 60.2607 77.1241V76.153C60.2607 75.5443 60.7605 75.0513 61.3731 75.0513C61.9856 75.0513 62.4816 75.548 62.4816 76.1568V77.1278C62.4816 77.4191 62.3651 77.6843 62.181 77.8823Z" fill="white"/>
<path opacity="0.9" d="M52.2562 80.9226C52.0344 80.7246 51.8916 80.4445 51.8841 80.1233C51.8691 79.5145 52.3539 79.0066 52.9664 78.9954L53.9434 78.973C54.5559 78.9581 55.0633 79.4398 55.0783 80.0486C55.0933 80.6574 54.6086 81.1653 53.996 81.1765L53.019 81.199C52.7259 81.2064 52.4553 81.0981 52.2524 80.9188L52.2562 80.9226Z" fill="white"/>
<path opacity="0.9" d="M116.06 79.0964C115.839 78.8985 115.696 78.6183 115.688 78.2972C115.673 77.6884 116.158 77.1804 116.771 77.1692L117.748 77.1468C118.36 77.1319 118.867 77.6137 118.882 78.2225C118.898 78.8312 118.413 79.3392 117.8 79.3504L116.823 79.3728C116.53 79.3803 116.26 79.2719 116.057 79.0927L116.06 79.0964Z" fill="white"/>
<path opacity="0.9" d="M163.018 106.073C162.815 106.289 162.53 106.424 162.21 106.424C161.598 106.424 161.098 105.935 161.098 105.322V104.351C161.094 103.742 161.587 103.246 162.203 103.246C162.815 103.246 163.315 103.735 163.315 104.347V105.318C163.319 105.61 163.206 105.875 163.022 106.073H163.018Z" fill="white"/>
<path opacity="0.9" d="M192.622 106.073C192.42 106.289 192.134 106.424 191.814 106.424C191.202 106.424 190.702 105.935 190.702 105.322V104.351C190.698 103.742 191.191 103.246 191.807 103.246C192.419 103.246 192.919 103.735 192.919 104.347V105.318C192.923 105.61 192.81 105.875 192.626 106.073H192.622Z" fill="white"/>
<path opacity="0.9" d="M193.896 78.9694C193.693 79.186 193.408 79.3204 193.088 79.3204C192.476 79.3204 191.976 78.8312 191.976 78.2187V77.2476C191.972 76.6388 192.465 76.1421 193.081 76.1421C193.693 76.1421 194.193 76.6314 194.193 77.2439V78.2149C194.197 78.5062 194.084 78.7714 193.9 78.9694H193.896Z" fill="white"/>
<path opacity="0.9" d="M168.963 76.2277C168.76 76.4443 168.475 76.5787 168.155 76.5787C167.543 76.5787 167.043 76.0895 167.043 75.477V74.5059C167.039 73.8971 167.532 73.4004 168.148 73.4004C168.76 73.4004 169.26 73.8897 169.26 74.5022V75.4732C169.264 75.7645 169.151 76.0297 168.967 76.2277H168.963Z" fill="white"/>
<path opacity="0.9" d="M157.461 79.3875C157.243 79.1858 157.107 78.902 157.107 78.5845C157.107 77.9758 157.6 77.479 158.216 77.479H159.193C159.806 77.4753 160.305 77.9646 160.305 78.5771C160.305 79.1858 159.813 79.6826 159.197 79.6826H158.22C157.927 79.6863 157.66 79.5743 157.461 79.3913V79.3875Z" fill="white"/>
<path opacity="0.9" d="M141.99 9.53509C141.779 9.74424 141.486 9.86749 141.167 9.85628C140.554 9.83761 140.073 9.32594 140.092 8.71716L140.126 7.74984C140.144 7.14107 140.659 6.66301 141.272 6.68168C141.884 6.70036 142.365 7.21203 142.347 7.8208L142.313 8.78812C142.301 9.07944 142.181 9.34088 141.99 9.53135V9.53509Z" fill="white"/>
<path opacity="0.9" d="M192.781 9.53509C192.57 9.74424 192.277 9.86749 191.958 9.85628C191.345 9.83761 190.864 9.32594 190.883 8.71716L190.917 7.74984C190.935 7.14107 191.45 6.66301 192.063 6.68168C192.675 6.70036 193.156 7.21203 193.138 7.8208L193.104 8.78812C193.092 9.07944 192.972 9.34088 192.781 9.53135V9.53509Z" fill="white"/>
<path opacity="0.9" d="M58.9116 42.1215C58.502 42.1215 58.0923 41.9497 57.7992 41.6173C57.2656 41.0085 57.3333 40.086 57.9458 39.5557L58.9228 38.7116C59.5354 38.1812 60.4635 38.2485 60.9972 38.8572C61.5308 39.466 61.4631 40.3885 60.8506 40.9189L59.8736 41.7629C59.5955 42.002 59.2535 42.1215 58.9116 42.1215Z" fill="white"/>
<path opacity="0.9" d="M56.0856 10.1251C55.7774 9.85619 55.582 9.4603 55.582 9.01959C55.582 8.21286 56.2472 7.55927 57.0589 7.563H58.3515C59.1632 7.57047 59.8209 8.2278 59.8171 9.03453C59.8171 9.84125 59.152 10.4948 58.3403 10.4911H57.0476C56.6793 10.4836 56.3449 10.3492 56.0856 10.1251Z" fill="white"/>
<path opacity="0.9" d="M105.035 10.1251C104.727 9.85619 104.532 9.4603 104.532 9.01959C104.532 8.21286 105.197 7.55927 106.009 7.563H107.301C108.113 7.57047 108.771 8.2278 108.767 9.03453C108.767 9.84125 108.102 10.4948 107.29 10.4911H105.997C105.629 10.4836 105.295 10.3492 105.035 10.1251Z" fill="white"/>
<path opacity="0.9" d="M155.822 10.1251C155.514 9.85619 155.318 9.4603 155.318 9.01959C155.318 8.21286 155.983 7.55927 156.795 7.563H158.088C158.9 7.57047 159.557 8.2278 159.553 9.03453C159.553 9.84125 158.888 10.4948 158.077 10.4911H156.784C156.416 10.4836 156.081 10.3492 155.822 10.1251Z" fill="white"/>
<path opacity="0.9" d="M85.4119 114.506C85.115 114.506 84.8181 114.39 84.6002 114.155C84.1793 113.711 84.2056 113.012 84.6528 112.594L85.3668 111.933C85.814 111.515 86.5167 111.541 86.9376 111.985C87.3584 112.43 87.3321 113.128 86.8849 113.546L86.171 114.207C85.9568 114.405 85.6862 114.506 85.4119 114.506Z" fill="white"/>
<path opacity="0.9" d="M58.9116 109.311C58.502 109.311 58.0923 109.139 57.7992 108.807C57.2656 108.198 57.3333 107.275 57.9458 106.745L58.9228 105.901C59.5354 105.371 60.4635 105.438 60.9972 106.047C61.5308 106.655 61.4631 107.578 60.8506 108.108L59.8736 108.952C59.5955 109.191 59.2535 109.311 58.9116 109.311Z" fill="white"/>
<path opacity="0.9" d="M143.981 114.506C143.684 114.506 143.387 114.39 143.17 114.155C142.749 113.711 142.775 113.012 143.222 112.594L143.936 111.933C144.383 111.515 145.086 111.541 145.507 111.985C145.928 112.43 145.901 113.128 145.454 113.546L144.74 114.207C144.526 114.405 144.256 114.506 143.981 114.506Z" fill="white"/>
<path opacity="0.9" d="M117.477 109.311C117.068 109.311 116.658 109.139 116.365 108.807C115.832 108.198 115.899 107.275 116.512 106.745L117.489 105.901C118.101 105.371 119.029 105.438 119.563 106.047C120.097 106.655 120.029 107.578 119.417 108.108L118.439 108.952C118.161 109.191 117.819 109.311 117.477 109.311Z" fill="white"/>
<path opacity="0.9" d="M138.16 48.0559C137.864 48.0559 137.567 47.9401 137.349 47.7048C136.928 47.2604 136.954 46.562 137.401 46.1437L138.115 45.4826C138.562 45.0643 139.265 45.0905 139.686 45.5349C140.107 45.9794 140.081 46.6778 139.633 47.0961L138.919 47.7571C138.705 47.9551 138.435 48.0559 138.16 48.0559Z" fill="white"/>
<path opacity="0.9" d="M110.123 42.1215C109.713 42.1215 109.304 41.9497 109.011 41.6173C108.477 41.0085 108.545 40.086 109.157 39.5557L110.134 38.7116C110.747 38.1812 111.675 38.2485 112.209 38.8572C112.742 39.466 112.675 40.3885 112.062 40.9189L111.085 41.7629C110.807 42.002 110.465 42.1215 110.123 42.1215Z" fill="white"/>
<path opacity="0.9" d="M189.372 48.0559C189.075 48.0559 188.778 47.9401 188.56 47.7048C188.139 47.2604 188.166 46.562 188.613 46.1437L189.327 45.4826C189.774 45.0643 190.477 45.0905 190.898 45.5349C191.318 45.9794 191.292 46.6778 190.845 47.0961L190.131 47.7571C189.917 47.9551 189.646 48.0559 189.372 48.0559Z" fill="white"/>
<path opacity="0.9" d="M161.335 42.1215C160.925 42.1215 160.516 41.9497 160.223 41.6173C159.689 41.0085 159.757 40.086 160.369 39.5557L161.346 38.7116C161.959 38.1812 162.887 38.2485 163.42 38.8572C163.954 39.466 163.886 40.3885 163.274 40.9189L162.297 41.7629C162.019 42.002 161.677 42.1215 161.335 42.1215Z" fill="white"/>
<path opacity="0.9" d="M11.2923 84.9338C11.2096 84.9338 11.1231 84.9263 11.0405 84.9114C10.2401 84.7732 9.70269 84.0188 9.84173 83.2232C10.1311 81.5612 10.8902 80.4781 10.9766 80.3624C11.4501 79.7088 12.3707 79.5594 13.0284 80.03C13.6822 80.5005 13.8363 81.4044 13.3703 82.058C13.3478 82.0879 12.9119 82.7414 12.739 83.72C12.615 84.4296 11.995 84.9338 11.2923 84.9338Z" fill="white"/>
<path opacity="0.9" d="M13.1298 14.663C12.8479 14.663 12.5623 14.5845 12.3106 14.4165C11.6379 13.9683 11.4575 13.0607 11.9085 12.3884C12.8517 10.9879 13.9903 10.3081 14.1181 10.2335C14.8208 9.82636 15.7189 10.0654 16.1285 10.7601C16.5344 11.4547 16.3014 12.3436 15.6099 12.7507C15.5761 12.7731 14.911 13.1914 14.3548 14.0131C14.0692 14.4351 13.607 14.6592 13.1335 14.6592L13.1298 14.663Z" fill="white"/>
</g>
<defs>
<linearGradient id="paint0_linear_9_3502" x1="26.801" y1="55.9214" x2="26.801" y2="2.6665" gradientUnits="userSpaceOnUse">
<stop stop-color="#FF9F5C"/>
<stop offset="1" stop-color="#FFC45C"/>
</linearGradient>
<linearGradient id="paint1_linear_9_3502" x1="76.1713" y1="55.1447" x2="76.1713" y2="2.29688" gradientUnits="userSpaceOnUse">
<stop stop-color="#FF9F5C"/>
<stop offset="1" stop-color="#FFC45C"/>
</linearGradient>
<linearGradient id="paint2_linear_9_3502" x1="126.778" y1="55.3837" x2="126.778" y2="2.7749" gradientUnits="userSpaceOnUse">
<stop stop-color="#FF9F5C"/>
<stop offset="1" stop-color="#FFC45C"/>
</linearGradient>
<linearGradient id="paint3_linear_9_3502" x1="177.989" y1="55.3837" x2="177.989" y2="2.7749" gradientUnits="userSpaceOnUse">
<stop stop-color="#FF9F5C"/>
<stop offset="1" stop-color="#FFC45C"/>
</linearGradient>
<linearGradient id="paint4_linear_9_3502" x1="25.9703" y1="120.926" x2="25.9703" y2="72.022" gradientUnits="userSpaceOnUse">
<stop stop-color="#FF9F5C"/>
<stop offset="1" stop-color="#FFC45C"/>
</linearGradient>
<linearGradient id="paint5_linear_9_3502" x1="70.8274" y1="120.982" x2="70.8274" y2="71.4173" gradientUnits="userSpaceOnUse">
<stop stop-color="#FF9F5C"/>
<stop offset="1" stop-color="#FFC45C"/>
</linearGradient>
<linearGradient id="paint6_linear_9_3502" x1="131.235" y1="120.818" x2="131.235" y2="73.4565" gradientUnits="userSpaceOnUse">
<stop stop-color="#FF9F5C"/>
<stop offset="1" stop-color="#FFC45C"/>
</linearGradient>
<linearGradient id="paint7_linear_9_3502" x1="178.561" y1="121.707" x2="178.561" y2="69.7104" gradientUnits="userSpaceOnUse">
<stop stop-color="#FF9F5C"/>
<stop offset="1" stop-color="#FFC45C"/>
</linearGradient>
<clipPath id="clip0_9_3502">
<rect width="207" height="124" fill="white"/>
</clipPath>
</defs>
</svg>
