<svg width="137" height="21" viewBox="0 0 137 21" fill="none" xmlns="http://www.w3.org/2000/svg">
<g filter="url(#filter0_d_21_6216)">
<mask id="path-1-outside-1_21_6216" maskUnits="userSpaceOnUse" x="2" y="0" width="133" height="17" fill="black">
<rect fill="white" x="2" width="133" height="17"/>
<path d="M12.8281 8.03H6.41606C5.52006 8.03 5.22606 7.75 5.22606 6.868V3.774C5.22606 2.892 5.52006 2.612 6.41606 2.612H12.8281C13.7241 2.612 14.0181 2.892 14.0181 3.774V6.868C14.0181 7.75 13.7241 8.03 12.8281 8.03ZM7.35406 6.518H11.8901C12.1281 6.518 12.2121 6.434 12.2121 6.196V4.446C12.2121 4.208 12.1281 4.124 11.8901 4.124H7.35406C7.11606 4.124 7.03206 4.208 7.03206 4.446V6.196C7.03206 6.434 7.11606 6.518 7.35406 6.518ZM8.72606 10.844H4.33006C3.89606 10.844 3.70006 10.494 3.70006 10.088C3.70006 9.682 3.89606 9.332 4.33006 9.332H14.9141C15.3481 9.332 15.5441 9.682 15.5441 10.088C15.5441 10.494 15.3481 10.844 14.9141 10.844H10.5181V14.498C10.5181 15.016 10.0841 15.254 9.62206 15.254C9.16006 15.254 8.72606 15.016 8.72606 14.498V10.844ZM18.0382 9.192C17.1422 9.192 16.8482 8.912 16.8482 8.03V3.368C16.8482 2.85 17.2822 2.612 17.7442 2.612C18.2202 2.612 18.6542 2.85 18.6542 3.368V7.372C18.6542 7.61 18.7382 7.694 18.9762 7.694C20.3202 7.694 21.8602 7.666 23.1342 7.526C23.5682 7.484 23.8062 7.778 23.8482 8.17C23.8902 8.576 23.7222 8.968 23.3162 9.01C22.1962 9.136 20.5862 9.192 18.0382 9.192ZM25.2202 4.796H22.4342C22.0142 4.796 21.8462 4.46 21.8462 4.054C21.8462 3.662 22.0142 3.326 22.4342 3.326H25.2202V2.794C25.2202 2.276 25.6542 2.038 26.1022 2.038C26.5502 2.038 26.9842 2.276 26.9842 2.794V8.744C26.9842 9.262 26.5502 9.5 26.1022 9.5C25.6542 9.5 25.2202 9.262 25.2202 8.744V6.938H22.4342C22.0142 6.938 21.8462 6.602 21.8462 6.196C21.8462 5.804 22.0142 5.468 22.4342 5.468H25.2202V4.796ZM25.7942 15.016H19.6902C18.7942 15.016 18.5002 14.736 18.5002 13.854V11.18C18.5002 10.298 18.7942 10.018 19.6902 10.018H25.7942C26.6902 10.018 26.9842 10.298 26.9842 11.18V13.854C26.9842 14.736 26.6902 15.016 25.7942 15.016ZM20.6002 13.532H24.8842C25.1222 13.532 25.2062 13.448 25.2062 13.21V11.824C25.2062 11.586 25.1222 11.502 24.8842 11.502H20.6002C20.3622 11.502 20.2782 11.586 20.2782 11.824V13.21C20.2782 13.448 20.3622 13.532 20.6002 13.532ZM37.7804 8.03H31.3684C30.4724 8.03 30.1784 7.75 30.1784 6.868V3.774C30.1784 2.892 30.4724 2.612 31.3684 2.612H37.7804C38.6764 2.612 38.9704 2.892 38.9704 3.774V6.868C38.9704 7.75 38.6764 8.03 37.7804 8.03ZM32.3064 6.518H36.8424C37.0804 6.518 37.1644 6.434 37.1644 6.196V4.446C37.1644 4.208 37.0804 4.124 36.8424 4.124H32.3064C32.0684 4.124 31.9844 4.208 31.9844 4.446V6.196C31.9844 6.434 32.0684 6.518 32.3064 6.518ZM33.6784 10.844H29.2824C28.8484 10.844 28.6524 10.494 28.6524 10.088C28.6524 9.682 28.8484 9.332 29.2824 9.332H39.8664C40.3004 9.332 40.4964 9.682 40.4964 10.088C40.4964 10.494 40.3004 10.844 39.8664 10.844H35.4704V14.498C35.4704 15.016 35.0364 15.254 34.5744 15.254C34.1124 15.254 33.6784 15.016 33.6784 14.498V10.844ZM45.8746 3.242V4.362C45.8746 5.216 46.1266 5.79 46.7286 6.308C47.3446 6.826 47.8766 7.246 48.2966 7.554C48.6886 7.834 48.6606 8.282 48.4086 8.632C48.1986 8.926 47.7366 9.15 47.3166 8.856C46.9806 8.618 46.4626 8.212 45.9166 7.75C45.2586 7.204 45.0626 6.966 44.9926 6.686H44.9786C44.9086 7.008 44.6706 7.302 44.0126 7.848C43.4666 8.31 42.9486 8.716 42.4026 9.108C41.9966 9.402 41.5206 9.178 41.3106 8.884C41.0726 8.548 41.0026 8.058 41.4366 7.75C42.0526 7.302 42.5846 6.882 43.2006 6.364C43.8026 5.846 44.0546 5.272 44.0546 4.418V3.242C44.0546 2.71 44.4886 2.472 44.9646 2.472C45.4406 2.472 45.8746 2.71 45.8746 3.242ZM51.2506 5.048H52.5666C53.0146 5.048 53.2106 5.398 53.2106 5.818C53.2106 6.252 53.0146 6.602 52.5666 6.602H51.2506V8.996C51.2506 9.514 50.8166 9.752 50.3546 9.752C49.8926 9.752 49.4586 9.514 49.4586 8.996V2.794C49.4586 2.276 49.8926 2.038 50.3546 2.038C50.8166 2.038 51.2506 2.276 51.2506 2.794V5.048ZM43.0326 12.552C43.0326 10.732 44.5866 9.836 47.1626 9.836C49.7386 9.836 51.2926 10.732 51.2926 12.552C51.2926 14.372 49.7386 15.268 47.1626 15.268C44.5866 15.268 43.0326 14.372 43.0326 12.552ZM49.5146 12.552C49.5146 11.782 48.8706 11.264 47.1626 11.264C45.4546 11.264 44.8106 11.782 44.8106 12.552C44.8106 13.322 45.4546 13.84 47.1626 13.84C48.8706 13.84 49.5146 13.322 49.5146 12.552ZM64.0208 7.092C64.0208 8.408 62.8448 9.164 60.9268 9.164C59.0088 9.164 57.8328 8.408 57.8328 7.092C57.8328 5.776 59.0088 5.02 60.9268 5.02C62.8448 5.02 64.0208 5.776 64.0208 7.092ZM57.6648 3.088H60.0308V2.486C60.0308 1.996 60.4508 1.758 60.9268 1.758C61.4028 1.758 61.8228 1.996 61.8228 2.486V3.088H64.0488C64.4688 3.088 64.6648 3.424 64.6648 3.816C64.6648 4.208 64.4688 4.544 64.0488 4.544H57.6648C57.2448 4.544 57.0488 4.208 57.0488 3.816C57.0488 3.424 57.2448 3.088 57.6648 3.088ZM62.4108 7.092C62.4108 6.616 61.9348 6.294 60.9268 6.294C59.9188 6.294 59.4428 6.616 59.4428 7.092C59.4428 7.568 59.9188 7.89 60.9268 7.89C61.9348 7.89 62.4108 7.568 62.4108 7.092ZM67.5628 2.794V8.492C67.5628 9.01 67.1288 9.248 66.6808 9.248C66.2188 9.248 65.7848 9.01 65.7848 8.492V2.794C65.7848 2.276 66.2188 2.038 66.6808 2.038C67.1288 2.038 67.5628 2.276 67.5628 2.794ZM59.7088 9.766H66.3728C67.2688 9.766 67.5628 10.046 67.5628 10.928V11.922C67.5628 12.804 67.2688 13.084 66.3728 13.084H61.0948C60.9548 13.084 60.8848 13.154 60.8848 13.294V13.532C60.8848 13.672 60.9548 13.742 61.0948 13.742H67.2688C67.6608 13.742 67.8428 14.078 67.8428 14.414C67.8428 14.778 67.6608 15.1 67.2688 15.1H60.3528C59.4568 15.1 59.1628 14.82 59.1628 13.938V12.944C59.1628 12.062 59.4568 11.782 60.3528 11.782H65.6308C65.7708 11.782 65.8408 11.712 65.8408 11.572V11.334C65.8408 11.194 65.7708 11.124 65.6308 11.124H59.7088C59.3168 11.124 59.1348 10.802 59.1348 10.438C59.1348 10.102 59.3168 9.766 59.7088 9.766ZM70.631 2.668H74.803C75.699 2.668 75.993 2.948 75.993 3.83V5.636C75.993 6.518 75.699 6.798 74.803 6.798H72.115C71.877 6.798 71.793 6.882 71.793 7.12V7.736C71.793 7.974 71.877 8.058 72.115 8.058C73.879 8.058 75.321 7.974 76.679 7.792C77.113 7.736 77.365 8.044 77.407 8.422C77.449 8.828 77.309 9.206 76.903 9.262C75.755 9.416 74.145 9.542 71.233 9.542C70.337 9.542 70.043 9.262 70.043 8.38V6.56C70.043 5.678 70.337 5.398 71.233 5.398H73.921C74.159 5.398 74.243 5.314 74.243 5.076V4.474C74.243 4.236 74.159 4.152 73.921 4.152H70.631C70.211 4.152 70.029 3.802 70.029 3.41C70.029 3.018 70.211 2.668 70.631 2.668ZM80.039 2.794V9.416C80.039 9.934 79.605 10.172 79.143 10.172C78.681 10.172 78.247 9.934 78.247 9.416V2.794C78.247 2.276 78.681 2.038 79.143 2.038C79.605 2.038 80.039 2.276 80.039 2.794ZM71.681 12.776C71.681 11.054 73.263 10.284 75.881 10.284C78.499 10.284 80.081 11.068 80.081 12.776C80.081 14.498 78.499 15.268 75.881 15.268C73.263 15.268 71.681 14.498 71.681 12.776ZM78.303 12.776C78.303 12.118 77.631 11.698 75.881 11.698C74.131 11.698 73.459 12.118 73.459 12.776C73.459 13.434 74.131 13.854 75.881 13.854C77.631 13.854 78.303 13.434 78.303 12.776ZM86.1032 4.418H83.0512C82.6172 4.418 82.4212 4.068 82.4212 3.662C82.4212 3.256 82.6172 2.906 83.0512 2.906H86.9992C87.8952 2.906 88.1892 3.186 88.1892 4.068V6.658C88.1892 7.54 87.8952 7.82 86.9992 7.82H84.5212C84.2832 7.82 84.1992 7.904 84.1992 8.142V9.514C84.1992 9.752 84.2832 9.836 84.5212 9.836C86.0752 9.836 87.5172 9.766 88.8192 9.584C89.2532 9.528 89.5052 9.836 89.5472 10.228C89.5892 10.648 89.4492 11.026 89.0432 11.082C87.9512 11.236 86.3412 11.348 83.6252 11.348C82.7292 11.348 82.4352 11.068 82.4352 10.186V7.526C82.4352 6.644 82.7292 6.364 83.6252 6.364H86.1032C86.3412 6.364 86.4252 6.28 86.4252 6.042V4.74C86.4252 4.502 86.3412 4.418 86.1032 4.418ZM90.8212 13.518V7.68H89.4772C89.0292 7.68 88.8332 7.33 88.8332 6.91C88.8332 6.49 89.0292 6.14 89.4772 6.14H90.8212V2.794C90.8212 2.276 91.2552 2.038 91.7172 2.038C92.1652 2.038 92.5992 2.276 92.5992 2.794V13.518C92.5992 14.036 92.1652 14.274 91.7172 14.274C91.2552 14.274 90.8212 14.036 90.8212 13.518ZM104.151 3.34V7.806C104.151 8.688 103.857 8.968 102.961 8.968H99.2934C98.3974 8.968 98.1034 8.688 98.1034 7.806V3.34C98.1034 2.85 98.5374 2.612 98.9714 2.612C99.4194 2.612 99.8534 2.85 99.8534 3.34V4.67H102.401V3.34C102.401 2.85 102.835 2.612 103.269 2.612C103.717 2.612 104.151 2.85 104.151 3.34ZM100.175 7.512H102.079C102.317 7.512 102.401 7.428 102.401 7.19V6.126H99.8534V7.19C99.8534 7.428 99.9374 7.512 100.175 7.512ZM108.309 2.794V9.08C108.309 9.598 107.875 9.836 107.427 9.836C106.979 9.836 106.545 9.598 106.545 9.08V7.89H105.313C104.879 7.89 104.697 7.54 104.697 7.12C104.697 6.714 104.879 6.364 105.313 6.364H106.545V5.37H105.313C104.879 5.37 104.697 5.02 104.697 4.6C104.697 4.194 104.879 3.844 105.313 3.844H106.545V2.794C106.545 2.276 106.979 2.038 107.427 2.038C107.875 2.038 108.309 2.276 108.309 2.794ZM99.8954 12.594C99.8954 10.802 101.491 9.92 104.123 9.92C106.755 9.92 108.351 10.802 108.351 12.594C108.351 14.386 106.755 15.268 104.123 15.268C101.491 15.268 99.8954 14.386 99.8954 12.594ZM106.573 12.594C106.573 11.852 105.887 11.348 104.123 11.348C102.359 11.348 101.673 11.852 101.673 12.594C101.673 13.336 102.359 13.84 104.123 13.84C105.887 13.84 106.573 13.336 106.573 12.594ZM110.118 7.008C110.118 4.25 111.252 2.766 113.478 2.766C115.704 2.766 116.838 4.25 116.838 7.008C116.838 9.766 115.704 11.25 113.478 11.25C111.252 11.25 110.118 9.766 110.118 7.008ZM115.116 7.008C115.116 5.244 114.682 4.32 113.478 4.32C112.274 4.32 111.84 5.244 111.84 7.008C111.84 8.772 112.274 9.696 113.478 9.696C114.682 9.696 115.116 8.772 115.116 7.008ZM120.1 6.168H121.416C121.864 6.168 122.06 6.518 122.06 6.938C122.06 7.372 121.864 7.722 121.416 7.722H120.1V13.518C120.1 14.036 119.666 14.274 119.204 14.274C118.742 14.274 118.308 14.036 118.308 13.518V2.794C118.308 2.276 118.742 2.038 119.204 2.038C119.666 2.038 120.1 2.276 120.1 2.794V6.168ZM127.074 4.404H123.798C123.364 4.404 123.168 4.054 123.168 3.648C123.168 3.242 123.364 2.892 123.798 2.892H127.97C128.866 2.892 129.16 3.172 129.16 4.054V6.658C129.16 7.54 128.866 7.82 127.97 7.82H125.268C125.03 7.82 124.946 7.904 124.946 8.142V9.528C124.946 9.766 125.03 9.85 125.268 9.85C127.018 9.85 128.46 9.766 129.818 9.584C130.252 9.528 130.504 9.836 130.546 10.228C130.588 10.648 130.448 11.026 130.042 11.082C128.894 11.236 127.284 11.362 124.372 11.362C123.476 11.362 123.182 11.082 123.182 10.2V7.526C123.182 6.644 123.476 6.364 124.372 6.364H127.074C127.312 6.364 127.396 6.28 127.396 6.042V4.726C127.396 4.488 127.312 4.404 127.074 4.404ZM133.178 2.794V13.518C133.178 14.036 132.744 14.274 132.268 14.274C131.806 14.274 131.372 14.036 131.372 13.518V2.794C131.372 2.276 131.806 2.038 132.268 2.038C132.744 2.038 133.178 2.276 133.178 2.794Z"/>
</mask>
<path d="M12.8281 8.03H6.41606C5.52006 8.03 5.22606 7.75 5.22606 6.868V3.774C5.22606 2.892 5.52006 2.612 6.41606 2.612H12.8281C13.7241 2.612 14.0181 2.892 14.0181 3.774V6.868C14.0181 7.75 13.7241 8.03 12.8281 8.03ZM7.35406 6.518H11.8901C12.1281 6.518 12.2121 6.434 12.2121 6.196V4.446C12.2121 4.208 12.1281 4.124 11.8901 4.124H7.35406C7.11606 4.124 7.03206 4.208 7.03206 4.446V6.196C7.03206 6.434 7.11606 6.518 7.35406 6.518ZM8.72606 10.844H4.33006C3.89606 10.844 3.70006 10.494 3.70006 10.088C3.70006 9.682 3.89606 9.332 4.33006 9.332H14.9141C15.3481 9.332 15.5441 9.682 15.5441 10.088C15.5441 10.494 15.3481 10.844 14.9141 10.844H10.5181V14.498C10.5181 15.016 10.0841 15.254 9.62206 15.254C9.16006 15.254 8.72606 15.016 8.72606 14.498V10.844ZM18.0382 9.192C17.1422 9.192 16.8482 8.912 16.8482 8.03V3.368C16.8482 2.85 17.2822 2.612 17.7442 2.612C18.2202 2.612 18.6542 2.85 18.6542 3.368V7.372C18.6542 7.61 18.7382 7.694 18.9762 7.694C20.3202 7.694 21.8602 7.666 23.1342 7.526C23.5682 7.484 23.8062 7.778 23.8482 8.17C23.8902 8.576 23.7222 8.968 23.3162 9.01C22.1962 9.136 20.5862 9.192 18.0382 9.192ZM25.2202 4.796H22.4342C22.0142 4.796 21.8462 4.46 21.8462 4.054C21.8462 3.662 22.0142 3.326 22.4342 3.326H25.2202V2.794C25.2202 2.276 25.6542 2.038 26.1022 2.038C26.5502 2.038 26.9842 2.276 26.9842 2.794V8.744C26.9842 9.262 26.5502 9.5 26.1022 9.5C25.6542 9.5 25.2202 9.262 25.2202 8.744V6.938H22.4342C22.0142 6.938 21.8462 6.602 21.8462 6.196C21.8462 5.804 22.0142 5.468 22.4342 5.468H25.2202V4.796ZM25.7942 15.016H19.6902C18.7942 15.016 18.5002 14.736 18.5002 13.854V11.18C18.5002 10.298 18.7942 10.018 19.6902 10.018H25.7942C26.6902 10.018 26.9842 10.298 26.9842 11.18V13.854C26.9842 14.736 26.6902 15.016 25.7942 15.016ZM20.6002 13.532H24.8842C25.1222 13.532 25.2062 13.448 25.2062 13.21V11.824C25.2062 11.586 25.1222 11.502 24.8842 11.502H20.6002C20.3622 11.502 20.2782 11.586 20.2782 11.824V13.21C20.2782 13.448 20.3622 13.532 20.6002 13.532ZM37.7804 8.03H31.3684C30.4724 8.03 30.1784 7.75 30.1784 6.868V3.774C30.1784 2.892 30.4724 2.612 31.3684 2.612H37.7804C38.6764 2.612 38.9704 2.892 38.9704 3.774V6.868C38.9704 7.75 38.6764 8.03 37.7804 8.03ZM32.3064 6.518H36.8424C37.0804 6.518 37.1644 6.434 37.1644 6.196V4.446C37.1644 4.208 37.0804 4.124 36.8424 4.124H32.3064C32.0684 4.124 31.9844 4.208 31.9844 4.446V6.196C31.9844 6.434 32.0684 6.518 32.3064 6.518ZM33.6784 10.844H29.2824C28.8484 10.844 28.6524 10.494 28.6524 10.088C28.6524 9.682 28.8484 9.332 29.2824 9.332H39.8664C40.3004 9.332 40.4964 9.682 40.4964 10.088C40.4964 10.494 40.3004 10.844 39.8664 10.844H35.4704V14.498C35.4704 15.016 35.0364 15.254 34.5744 15.254C34.1124 15.254 33.6784 15.016 33.6784 14.498V10.844ZM45.8746 3.242V4.362C45.8746 5.216 46.1266 5.79 46.7286 6.308C47.3446 6.826 47.8766 7.246 48.2966 7.554C48.6886 7.834 48.6606 8.282 48.4086 8.632C48.1986 8.926 47.7366 9.15 47.3166 8.856C46.9806 8.618 46.4626 8.212 45.9166 7.75C45.2586 7.204 45.0626 6.966 44.9926 6.686H44.9786C44.9086 7.008 44.6706 7.302 44.0126 7.848C43.4666 8.31 42.9486 8.716 42.4026 9.108C41.9966 9.402 41.5206 9.178 41.3106 8.884C41.0726 8.548 41.0026 8.058 41.4366 7.75C42.0526 7.302 42.5846 6.882 43.2006 6.364C43.8026 5.846 44.0546 5.272 44.0546 4.418V3.242C44.0546 2.71 44.4886 2.472 44.9646 2.472C45.4406 2.472 45.8746 2.71 45.8746 3.242ZM51.2506 5.048H52.5666C53.0146 5.048 53.2106 5.398 53.2106 5.818C53.2106 6.252 53.0146 6.602 52.5666 6.602H51.2506V8.996C51.2506 9.514 50.8166 9.752 50.3546 9.752C49.8926 9.752 49.4586 9.514 49.4586 8.996V2.794C49.4586 2.276 49.8926 2.038 50.3546 2.038C50.8166 2.038 51.2506 2.276 51.2506 2.794V5.048ZM43.0326 12.552C43.0326 10.732 44.5866 9.836 47.1626 9.836C49.7386 9.836 51.2926 10.732 51.2926 12.552C51.2926 14.372 49.7386 15.268 47.1626 15.268C44.5866 15.268 43.0326 14.372 43.0326 12.552ZM49.5146 12.552C49.5146 11.782 48.8706 11.264 47.1626 11.264C45.4546 11.264 44.8106 11.782 44.8106 12.552C44.8106 13.322 45.4546 13.84 47.1626 13.84C48.8706 13.84 49.5146 13.322 49.5146 12.552ZM64.0208 7.092C64.0208 8.408 62.8448 9.164 60.9268 9.164C59.0088 9.164 57.8328 8.408 57.8328 7.092C57.8328 5.776 59.0088 5.02 60.9268 5.02C62.8448 5.02 64.0208 5.776 64.0208 7.092ZM57.6648 3.088H60.0308V2.486C60.0308 1.996 60.4508 1.758 60.9268 1.758C61.4028 1.758 61.8228 1.996 61.8228 2.486V3.088H64.0488C64.4688 3.088 64.6648 3.424 64.6648 3.816C64.6648 4.208 64.4688 4.544 64.0488 4.544H57.6648C57.2448 4.544 57.0488 4.208 57.0488 3.816C57.0488 3.424 57.2448 3.088 57.6648 3.088ZM62.4108 7.092C62.4108 6.616 61.9348 6.294 60.9268 6.294C59.9188 6.294 59.4428 6.616 59.4428 7.092C59.4428 7.568 59.9188 7.89 60.9268 7.89C61.9348 7.89 62.4108 7.568 62.4108 7.092ZM67.5628 2.794V8.492C67.5628 9.01 67.1288 9.248 66.6808 9.248C66.2188 9.248 65.7848 9.01 65.7848 8.492V2.794C65.7848 2.276 66.2188 2.038 66.6808 2.038C67.1288 2.038 67.5628 2.276 67.5628 2.794ZM59.7088 9.766H66.3728C67.2688 9.766 67.5628 10.046 67.5628 10.928V11.922C67.5628 12.804 67.2688 13.084 66.3728 13.084H61.0948C60.9548 13.084 60.8848 13.154 60.8848 13.294V13.532C60.8848 13.672 60.9548 13.742 61.0948 13.742H67.2688C67.6608 13.742 67.8428 14.078 67.8428 14.414C67.8428 14.778 67.6608 15.1 67.2688 15.1H60.3528C59.4568 15.1 59.1628 14.82 59.1628 13.938V12.944C59.1628 12.062 59.4568 11.782 60.3528 11.782H65.6308C65.7708 11.782 65.8408 11.712 65.8408 11.572V11.334C65.8408 11.194 65.7708 11.124 65.6308 11.124H59.7088C59.3168 11.124 59.1348 10.802 59.1348 10.438C59.1348 10.102 59.3168 9.766 59.7088 9.766ZM70.631 2.668H74.803C75.699 2.668 75.993 2.948 75.993 3.83V5.636C75.993 6.518 75.699 6.798 74.803 6.798H72.115C71.877 6.798 71.793 6.882 71.793 7.12V7.736C71.793 7.974 71.877 8.058 72.115 8.058C73.879 8.058 75.321 7.974 76.679 7.792C77.113 7.736 77.365 8.044 77.407 8.422C77.449 8.828 77.309 9.206 76.903 9.262C75.755 9.416 74.145 9.542 71.233 9.542C70.337 9.542 70.043 9.262 70.043 8.38V6.56C70.043 5.678 70.337 5.398 71.233 5.398H73.921C74.159 5.398 74.243 5.314 74.243 5.076V4.474C74.243 4.236 74.159 4.152 73.921 4.152H70.631C70.211 4.152 70.029 3.802 70.029 3.41C70.029 3.018 70.211 2.668 70.631 2.668ZM80.039 2.794V9.416C80.039 9.934 79.605 10.172 79.143 10.172C78.681 10.172 78.247 9.934 78.247 9.416V2.794C78.247 2.276 78.681 2.038 79.143 2.038C79.605 2.038 80.039 2.276 80.039 2.794ZM71.681 12.776C71.681 11.054 73.263 10.284 75.881 10.284C78.499 10.284 80.081 11.068 80.081 12.776C80.081 14.498 78.499 15.268 75.881 15.268C73.263 15.268 71.681 14.498 71.681 12.776ZM78.303 12.776C78.303 12.118 77.631 11.698 75.881 11.698C74.131 11.698 73.459 12.118 73.459 12.776C73.459 13.434 74.131 13.854 75.881 13.854C77.631 13.854 78.303 13.434 78.303 12.776ZM86.1032 4.418H83.0512C82.6172 4.418 82.4212 4.068 82.4212 3.662C82.4212 3.256 82.6172 2.906 83.0512 2.906H86.9992C87.8952 2.906 88.1892 3.186 88.1892 4.068V6.658C88.1892 7.54 87.8952 7.82 86.9992 7.82H84.5212C84.2832 7.82 84.1992 7.904 84.1992 8.142V9.514C84.1992 9.752 84.2832 9.836 84.5212 9.836C86.0752 9.836 87.5172 9.766 88.8192 9.584C89.2532 9.528 89.5052 9.836 89.5472 10.228C89.5892 10.648 89.4492 11.026 89.0432 11.082C87.9512 11.236 86.3412 11.348 83.6252 11.348C82.7292 11.348 82.4352 11.068 82.4352 10.186V7.526C82.4352 6.644 82.7292 6.364 83.6252 6.364H86.1032C86.3412 6.364 86.4252 6.28 86.4252 6.042V4.74C86.4252 4.502 86.3412 4.418 86.1032 4.418ZM90.8212 13.518V7.68H89.4772C89.0292 7.68 88.8332 7.33 88.8332 6.91C88.8332 6.49 89.0292 6.14 89.4772 6.14H90.8212V2.794C90.8212 2.276 91.2552 2.038 91.7172 2.038C92.1652 2.038 92.5992 2.276 92.5992 2.794V13.518C92.5992 14.036 92.1652 14.274 91.7172 14.274C91.2552 14.274 90.8212 14.036 90.8212 13.518ZM104.151 3.34V7.806C104.151 8.688 103.857 8.968 102.961 8.968H99.2934C98.3974 8.968 98.1034 8.688 98.1034 7.806V3.34C98.1034 2.85 98.5374 2.612 98.9714 2.612C99.4194 2.612 99.8534 2.85 99.8534 3.34V4.67H102.401V3.34C102.401 2.85 102.835 2.612 103.269 2.612C103.717 2.612 104.151 2.85 104.151 3.34ZM100.175 7.512H102.079C102.317 7.512 102.401 7.428 102.401 7.19V6.126H99.8534V7.19C99.8534 7.428 99.9374 7.512 100.175 7.512ZM108.309 2.794V9.08C108.309 9.598 107.875 9.836 107.427 9.836C106.979 9.836 106.545 9.598 106.545 9.08V7.89H105.313C104.879 7.89 104.697 7.54 104.697 7.12C104.697 6.714 104.879 6.364 105.313 6.364H106.545V5.37H105.313C104.879 5.37 104.697 5.02 104.697 4.6C104.697 4.194 104.879 3.844 105.313 3.844H106.545V2.794C106.545 2.276 106.979 2.038 107.427 2.038C107.875 2.038 108.309 2.276 108.309 2.794ZM99.8954 12.594C99.8954 10.802 101.491 9.92 104.123 9.92C106.755 9.92 108.351 10.802 108.351 12.594C108.351 14.386 106.755 15.268 104.123 15.268C101.491 15.268 99.8954 14.386 99.8954 12.594ZM106.573 12.594C106.573 11.852 105.887 11.348 104.123 11.348C102.359 11.348 101.673 11.852 101.673 12.594C101.673 13.336 102.359 13.84 104.123 13.84C105.887 13.84 106.573 13.336 106.573 12.594ZM110.118 7.008C110.118 4.25 111.252 2.766 113.478 2.766C115.704 2.766 116.838 4.25 116.838 7.008C116.838 9.766 115.704 11.25 113.478 11.25C111.252 11.25 110.118 9.766 110.118 7.008ZM115.116 7.008C115.116 5.244 114.682 4.32 113.478 4.32C112.274 4.32 111.84 5.244 111.84 7.008C111.84 8.772 112.274 9.696 113.478 9.696C114.682 9.696 115.116 8.772 115.116 7.008ZM120.1 6.168H121.416C121.864 6.168 122.06 6.518 122.06 6.938C122.06 7.372 121.864 7.722 121.416 7.722H120.1V13.518C120.1 14.036 119.666 14.274 119.204 14.274C118.742 14.274 118.308 14.036 118.308 13.518V2.794C118.308 2.276 118.742 2.038 119.204 2.038C119.666 2.038 120.1 2.276 120.1 2.794V6.168ZM127.074 4.404H123.798C123.364 4.404 123.168 4.054 123.168 3.648C123.168 3.242 123.364 2.892 123.798 2.892H127.97C128.866 2.892 129.16 3.172 129.16 4.054V6.658C129.16 7.54 128.866 7.82 127.97 7.82H125.268C125.03 7.82 124.946 7.904 124.946 8.142V9.528C124.946 9.766 125.03 9.85 125.268 9.85C127.018 9.85 128.46 9.766 129.818 9.584C130.252 9.528 130.504 9.836 130.546 10.228C130.588 10.648 130.448 11.026 130.042 11.082C128.894 11.236 127.284 11.362 124.372 11.362C123.476 11.362 123.182 11.082 123.182 10.2V7.526C123.182 6.644 123.476 6.364 124.372 6.364H127.074C127.312 6.364 127.396 6.28 127.396 6.042V4.726C127.396 4.488 127.312 4.404 127.074 4.404ZM133.178 2.794V13.518C133.178 14.036 132.744 14.274 132.268 14.274C131.806 14.274 131.372 14.036 131.372 13.518V2.794C131.372 2.276 131.806 2.038 132.268 2.038C132.744 2.038 133.178 2.276 133.178 2.794Z" fill="#745F56"/>
<path d="M8.72606 10.844H10.4086V9.16146H8.72606V10.844ZM10.5181 10.844V9.16146H8.83552V10.844H10.5181ZM12.8281 8.03V6.34746H6.41606V8.03V9.71254H12.8281V8.03ZM6.41606 8.03V6.34746C6.26549 6.34746 6.23723 6.33409 6.27655 6.34434C6.33119 6.35858 6.49322 6.41334 6.6576 6.57306C6.82428 6.73503 6.88812 6.90251 6.90766 6.97316C6.92212 7.02543 6.9086 7.00955 6.9086 6.868H5.22606H3.54352C3.54352 7.39908 3.60936 8.30317 4.31252 8.98644C5.00165 9.65606 5.89601 9.71254 6.41606 9.71254V8.03ZM5.22606 6.868H6.9086V3.774H5.22606H3.54352V6.868H5.22606ZM5.22606 3.774H6.9086C6.9086 3.63245 6.92212 3.61656 6.90766 3.66884C6.88812 3.73949 6.82428 3.90697 6.6576 4.06894C6.49322 4.22866 6.33119 4.28342 6.27655 4.29766C6.23723 4.30791 6.26549 4.29454 6.41606 4.29454V2.612V0.92946C5.89601 0.92946 5.00165 0.985939 4.31252 1.65556C3.60936 2.33883 3.54352 3.24292 3.54352 3.774H5.22606ZM6.41606 2.612V4.29454H12.8281V2.612V0.92946H6.41606V2.612ZM12.8281 2.612V4.29454C12.9786 4.29454 13.0069 4.30791 12.9676 4.29766C12.9129 4.28342 12.7509 4.22866 12.5865 4.06894C12.4198 3.90697 12.356 3.73949 12.3365 3.66884C12.322 3.61656 12.3355 3.63245 12.3355 3.774H14.0181H15.7006C15.7006 3.24291 15.6348 2.33883 14.9316 1.65556C14.2425 0.98594 13.3481 0.92946 12.8281 0.92946V2.612ZM14.0181 3.774H12.3355V6.868H14.0181H15.7006V3.774H14.0181ZM14.0181 6.868H12.3355C12.3355 7.00955 12.322 7.02543 12.3365 6.97316C12.356 6.90251 12.4198 6.73503 12.5865 6.57306C12.7509 6.41334 12.9129 6.35858 12.9676 6.34434C13.0069 6.33409 12.9786 6.34746 12.8281 6.34746V8.03V9.71254C13.3481 9.71254 14.2425 9.65606 14.9316 8.98644C15.6348 8.30317 15.7006 7.39909 15.7006 6.868H14.0181ZM7.35406 6.518V8.20054H11.8901V6.518V4.83546H7.35406V6.518ZM11.8901 6.518V8.20054C12.1246 8.20054 12.7889 8.17716 13.33 7.63599C13.8712 7.09481 13.8946 6.43058 13.8946 6.196H12.2121H10.5295C10.5295 6.16906 10.5304 6.05203 10.5752 5.89242C10.6243 5.71727 10.7309 5.47617 10.9506 5.25651C11.1702 5.03686 11.4113 4.93022 11.5865 4.88111C11.7461 4.83635 11.8631 4.83546 11.8901 4.83546V6.518ZM12.2121 6.196H13.8946V4.446H12.2121H10.5295V6.196H12.2121ZM12.2121 4.446H13.8946C13.8946 4.21142 13.8712 3.54719 13.33 3.00601C12.7889 2.46484 12.1246 2.44146 11.8901 2.44146V4.124V5.80654C11.8631 5.80654 11.7461 5.80565 11.5865 5.76089C11.4113 5.71178 11.1702 5.60514 10.9506 5.38549C10.7309 5.16583 10.6243 4.92473 10.5752 4.74958C10.5304 4.58997 10.5295 4.47294 10.5295 4.446H12.2121ZM11.8901 4.124V2.44146H7.35406V4.124V5.80654H11.8901V4.124ZM7.35406 4.124V2.44146C7.11949 2.44146 6.45525 2.46484 5.91408 3.00601C5.3729 3.54719 5.34952 4.21142 5.34952 4.446H7.03206H8.7146C8.7146 4.47294 8.71371 4.58996 8.66895 4.74958C8.61984 4.92473 8.5132 5.16583 8.29354 5.38549C8.07389 5.60514 7.83278 5.71178 7.65764 5.76089C7.49802 5.80565 7.381 5.80654 7.35406 5.80654V4.124ZM7.03206 4.446H5.34952V6.196H7.03206H8.7146V4.446H7.03206ZM7.03206 6.196H5.34952C5.34952 6.43058 5.3729 7.09481 5.91408 7.63599C6.45525 8.17716 7.11949 8.20054 7.35406 8.20054V6.518V4.83546C7.381 4.83546 7.49802 4.83635 7.65764 4.88111C7.83278 4.93022 8.07389 5.03686 8.29354 5.25651C8.5132 5.47617 8.61984 5.71727 8.66895 5.89242C8.71371 6.05204 8.7146 6.16906 8.7146 6.196H7.03206ZM8.72606 10.844V9.16146H4.33006V10.844V12.5265H8.72606V10.844ZM4.33006 10.844V9.16146C4.45232 9.16146 4.61731 9.18746 4.79266 9.27392C4.96857 9.36067 5.10503 9.48377 5.20039 9.61146C5.37713 9.84812 5.3826 10.0495 5.3826 10.088H3.70006H2.01752C2.01752 10.5325 2.12099 11.1119 2.50423 11.625C2.93485 12.2016 3.59878 12.5265 4.33006 12.5265V10.844ZM3.70006 10.088H5.3826C5.3826 10.1265 5.37713 10.3279 5.20039 10.5645C5.10503 10.6922 4.96857 10.8153 4.79266 10.9021C4.61731 10.9885 4.45232 11.0145 4.33006 11.0145V9.332V7.64946C3.59878 7.64946 2.93485 7.97437 2.50423 8.55096C2.12099 9.06412 2.01752 9.64349 2.01752 10.088H3.70006ZM4.33006 9.332V11.0145H14.9141V9.332V7.64946H4.33006V9.332ZM14.9141 9.332V11.0145C14.7918 11.0145 14.6268 10.9885 14.4515 10.9021C14.2756 10.8153 14.1391 10.6922 14.0437 10.5645C13.867 10.3279 13.8615 10.1265 13.8615 10.088H15.5441H17.2266C17.2266 9.64349 17.1231 9.06412 16.7399 8.55096C16.3093 7.97437 15.6453 7.64946 14.9141 7.64946V9.332ZM15.5441 10.088H13.8615C13.8615 10.0495 13.867 9.84812 14.0437 9.61146C14.1391 9.48377 14.2756 9.36067 14.4515 9.27393C14.6268 9.18746 14.7918 9.16146 14.9141 9.16146V10.844V12.5265C15.6453 12.5265 16.3093 12.2016 16.7399 11.625C17.1231 11.1119 17.2266 10.5325 17.2266 10.088H15.5441ZM14.9141 10.844V9.16146H10.5181V10.844V12.5265H14.9141V10.844ZM10.5181 10.844H8.83552V14.498H10.5181H12.2006V10.844H10.5181ZM10.5181 14.498H8.83552C8.83552 14.3867 8.86046 14.2364 8.9402 14.0781C9.01935 13.9208 9.12877 13.8027 9.23606 13.7225C9.43296 13.5754 9.59205 13.5715 9.62206 13.5715V15.254V16.9365C10.1141 16.9365 10.7212 16.8136 11.2506 16.418C11.838 15.979 12.2006 15.2924 12.2006 14.498H10.5181ZM9.62206 15.254V13.5715C9.65207 13.5715 9.81116 13.5754 10.0081 13.7225C10.1154 13.8027 10.2248 13.9208 10.3039 14.0781C10.3837 14.2364 10.4086 14.3867 10.4086 14.498H8.72606H7.04352C7.04352 15.2924 7.40615 15.979 7.99356 16.418C8.52296 16.8136 9.13005 16.9365 9.62206 16.9365V15.254ZM8.72606 14.498H10.4086V10.844H8.72606H7.04352V14.498H8.72606ZM23.1342 7.526L22.9722 5.85128L22.9613 5.85234L22.9505 5.85353L23.1342 7.526ZM23.8482 8.17L25.5219 7.99687L25.5212 7.99075L23.8482 8.17ZM23.3162 9.01L23.1431 7.33639L23.1356 7.33717L23.1281 7.33801L23.3162 9.01ZM25.2202 4.796H26.9028V3.11346H25.2202V4.796ZM25.2202 3.326V5.00854H26.9028V3.326H25.2202ZM25.2202 6.938H26.9028V5.25546H25.2202V6.938ZM25.2202 5.468V7.15054H26.9028V5.468H25.2202ZM18.0382 9.192V7.50946C17.8877 7.50946 17.8594 7.49609 17.8987 7.50634C17.9534 7.52058 18.1154 7.57534 18.2798 7.73506C18.4465 7.89703 18.5103 8.06451 18.5298 8.13516C18.5443 8.18743 18.5308 8.17155 18.5308 8.03H16.8482H15.1657C15.1657 8.56108 15.2315 9.46517 15.9347 10.1484C16.6238 10.8181 17.5182 10.8745 18.0382 10.8745V9.192ZM16.8482 8.03H18.5308V3.368H16.8482H15.1657V8.03H16.8482ZM16.8482 3.368H18.5308C18.5308 3.47935 18.5058 3.62956 18.4261 3.78794C18.347 3.94516 18.2375 4.0633 18.1303 4.14348C17.9333 4.29064 17.7743 4.29454 17.7442 4.29454V2.612V0.92946C17.2522 0.92946 16.6452 1.05236 16.1157 1.44802C15.5283 1.88703 15.1657 2.57362 15.1657 3.368H16.8482ZM17.7442 2.612V4.29454C17.7304 4.29454 17.5753 4.29495 17.3773 4.14851C17.2691 4.06848 17.158 3.94968 17.0776 3.79069C16.9967 3.63072 16.9717 3.4793 16.9717 3.368H18.6542H20.3368C20.3368 2.57234 19.9727 1.88265 19.3782 1.44298C18.8442 1.04804 18.2341 0.92946 17.7442 0.92946V2.612ZM18.6542 3.368H16.9717V7.372H18.6542H20.3368V3.368H18.6542ZM18.6542 7.372H16.9717C16.9717 7.60658 16.9951 8.27081 17.5363 8.81199C18.0774 9.35316 18.7417 9.37654 18.9762 9.37654V7.694V6.01146C19.0032 6.01146 19.1202 6.01235 19.2798 6.05711C19.455 6.10622 19.6961 6.21286 19.9157 6.43252C20.1354 6.65217 20.242 6.89327 20.2911 7.06842C20.3359 7.22803 20.3368 7.34506 20.3368 7.372H18.6542ZM18.9762 7.694V9.37654C20.3275 9.37654 21.946 9.34924 23.318 9.19847L23.1342 7.526L22.9505 5.85353C21.7745 5.98276 20.313 6.01146 18.9762 6.01146V7.694ZM23.1342 7.526L23.2963 9.20072C23.0711 9.22252 22.7302 9.15258 22.4574 8.88377C22.2258 8.65564 22.1831 8.42239 22.1753 8.34925L23.8482 8.17L25.5212 7.99075C25.4714 7.52561 25.2887 6.94936 24.8191 6.48673C24.3083 5.98342 23.6314 5.78748 22.9722 5.85128L23.1342 7.526ZM23.8482 8.17L22.1746 8.34313C22.1691 8.28968 22.161 8.11764 22.2874 7.89531C22.3558 7.77476 22.4665 7.6381 22.6316 7.526C22.8005 7.41138 22.9816 7.3531 23.1431 7.33639L23.3162 9.01L23.4894 10.6836C24.2769 10.6021 24.8796 10.1448 25.2131 9.55769C25.5145 9.02736 25.5694 8.45632 25.5219 7.99687L23.8482 8.17ZM23.3162 9.01L23.1281 7.33801C22.1094 7.45262 20.5809 7.50946 18.0382 7.50946V9.192V10.8745C20.5916 10.8745 22.2831 10.8194 23.5043 10.682L23.3162 9.01ZM25.2202 4.796V3.11346H22.4342V4.796V6.47854H25.2202V4.796ZM22.4342 4.796V3.11346C22.5577 3.11346 22.7343 3.13948 22.9247 3.23577C23.117 3.33309 23.2623 3.47137 23.3603 3.61118C23.4533 3.74382 23.4934 3.86171 23.5107 3.9303C23.528 3.99938 23.5288 4.04327 23.5288 4.054H21.8462H20.1637C20.1637 4.45081 20.2399 5.02245 20.6052 5.54332C21.0309 6.15027 21.7046 6.47854 22.4342 6.47854V4.796ZM21.8462 4.054H23.5288C23.5288 4.06171 23.5326 4.26659 23.3543 4.51754C23.2558 4.65619 23.1112 4.79218 22.9212 4.88777C22.7328 4.98249 22.5578 5.00854 22.4342 5.00854V3.326V1.64346C21.7063 1.64346 21.0365 1.96984 20.6112 2.56846C20.2439 3.0854 20.1637 3.65428 20.1637 4.054H21.8462ZM22.4342 3.326V5.00854H25.2202V3.326V1.64346H22.4342V3.326ZM25.2202 3.326H26.9028V2.794H25.2202H23.5377V3.326H25.2202ZM25.2202 2.794H26.9028C26.9028 2.9054 26.8778 3.05441 26.7993 3.21118C26.7214 3.36663 26.6136 3.48405 26.5073 3.56435C26.3118 3.71205 26.1488 3.72054 26.1022 3.72054V2.038V0.35546C25.6077 0.35546 25.0037 0.482952 24.4792 0.879153C23.8989 1.31742 23.5377 2.00088 23.5377 2.794H25.2202ZM26.1022 2.038V3.72054C26.0557 3.72054 25.8927 3.71205 25.6972 3.56434C25.5909 3.48405 25.4831 3.36663 25.4052 3.21118C25.3267 3.05441 25.3017 2.9054 25.3017 2.794H26.9842H28.6668C28.6668 2.00088 28.3056 1.31742 27.7253 0.879154C27.2008 0.482952 26.5968 0.35546 26.1022 0.35546V2.038ZM26.9842 2.794H25.3017V8.744H26.9842H28.6668V2.794H26.9842ZM26.9842 8.744H25.3017C25.3017 8.6326 25.3267 8.48359 25.4052 8.32682C25.4831 8.17137 25.5909 8.05395 25.6972 7.97365C25.8927 7.82595 26.0557 7.81746 26.1022 7.81746V9.5V11.1825C26.5968 11.1825 27.2008 11.055 27.7253 10.6588C28.3056 10.2206 28.6668 9.53712 28.6668 8.744H26.9842ZM26.1022 9.5V7.81746C26.1488 7.81746 26.3118 7.82595 26.5073 7.97365C26.6136 8.05395 26.7214 8.17137 26.7993 8.32682C26.8778 8.48359 26.9028 8.6326 26.9028 8.744H25.2202H23.5377C23.5377 9.53712 23.8989 10.2206 24.4792 10.6588C25.0037 11.055 25.6077 11.1825 26.1022 11.1825V9.5ZM25.2202 8.744H26.9028V6.938H25.2202H23.5377V8.744H25.2202ZM25.2202 6.938V5.25546H22.4342V6.938V8.62054H25.2202V6.938ZM22.4342 6.938V5.25546C22.5577 5.25546 22.7343 5.28148 22.9247 5.37777C23.117 5.47509 23.2623 5.61337 23.3603 5.75318C23.4533 5.88582 23.4934 6.00371 23.5107 6.0723C23.528 6.14138 23.5288 6.18527 23.5288 6.196H21.8462H20.1637C20.1637 6.59281 20.2399 7.16445 20.6052 7.68532C21.0309 8.29227 21.7046 8.62054 22.4342 8.62054V6.938ZM21.8462 6.196H23.5288C23.5288 6.20371 23.5326 6.4086 23.3543 6.65954C23.2558 6.79819 23.1112 6.93417 22.9212 7.02977C22.7328 7.12449 22.5578 7.15054 22.4342 7.15054V5.468V3.78546C21.7063 3.78546 21.0365 4.11184 20.6112 4.71046C20.2439 5.2274 20.1637 5.79629 20.1637 6.196H21.8462ZM22.4342 5.468V7.15054H25.2202V5.468V3.78546H22.4342V5.468ZM25.2202 5.468H26.9028V4.796H25.2202H23.5377V5.468H25.2202ZM25.7942 15.016V13.3335H19.6902V15.016V16.6985H25.7942V15.016ZM19.6902 15.016V13.3335C19.5397 13.3335 19.5114 13.3201 19.5507 13.3303C19.6054 13.3446 19.7674 13.3993 19.9318 13.5591C20.0985 13.721 20.1623 13.8885 20.1818 13.9592C20.1963 14.0114 20.1828 13.9956 20.1828 13.854H18.5002H16.8177C16.8177 14.3851 16.8835 15.2892 17.5867 15.9724C18.2758 16.6421 19.1702 16.6985 19.6902 16.6985V15.016ZM18.5002 13.854H20.1828V11.18H18.5002H16.8177V13.854H18.5002ZM18.5002 11.18H20.1828C20.1828 11.0384 20.1963 11.0226 20.1818 11.0748C20.1623 11.1455 20.0985 11.313 19.9318 11.4749C19.7674 11.6347 19.6054 11.6894 19.5507 11.7037C19.5114 11.7139 19.5397 11.7005 19.6902 11.7005V10.018V8.33546C19.1702 8.33546 18.2758 8.39194 17.5867 9.06156C16.8835 9.74483 16.8177 10.6489 16.8177 11.18H18.5002ZM19.6902 10.018V11.7005H25.7942V10.018V8.33546H19.6902V10.018ZM25.7942 10.018V11.7005C25.9448 11.7005 25.9731 11.7139 25.9338 11.7037C25.8791 11.6894 25.7171 11.6347 25.5527 11.4749C25.386 11.313 25.3222 11.1455 25.3026 11.0748C25.2882 11.0226 25.3017 11.0384 25.3017 11.18H26.9842H28.6668C28.6668 10.6489 28.601 9.74483 27.8978 9.06156C27.2087 8.39194 26.3143 8.33546 25.7942 8.33546V10.018ZM26.9842 11.18H25.3017V13.854H26.9842H28.6668V11.18H26.9842ZM26.9842 13.854H25.3017C25.3017 13.9956 25.2882 14.0114 25.3026 13.9592C25.3222 13.8885 25.386 13.721 25.5527 13.5591C25.7171 13.3993 25.8791 13.3446 25.9338 13.3303C25.9731 13.3201 25.9448 13.3335 25.7942 13.3335V15.016V16.6985C26.3143 16.6985 27.2087 16.6421 27.8978 15.9724C28.601 15.2892 28.6668 14.3851 28.6668 13.854H26.9842ZM20.6002 13.532V15.2145H24.8842V13.532V11.8495H20.6002V13.532ZM24.8842 13.532V15.2145C25.1188 15.2145 25.7831 15.1912 26.3242 14.65C26.8654 14.1088 26.8888 13.4446 26.8888 13.21H25.2062H23.5237C23.5237 13.1831 23.5246 13.066 23.5694 12.9064C23.6185 12.7313 23.7251 12.4902 23.9448 12.2705C24.1644 12.0509 24.4055 11.9442 24.5807 11.8951C24.7403 11.8503 24.8573 11.8495 24.8842 11.8495V13.532ZM25.2062 13.21H26.8888V11.824H25.2062H23.5237V13.21H25.2062ZM25.2062 11.824H26.8888C26.8888 11.5894 26.8654 10.9252 26.3242 10.384C25.7831 9.84284 25.1188 9.81946 24.8842 9.81946V11.502V13.1845C24.8573 13.1845 24.7403 13.1837 24.5807 13.1389C24.4055 13.0898 24.1644 12.9831 23.9448 12.7635C23.7251 12.5438 23.6185 12.3027 23.5694 12.1276C23.5246 11.968 23.5237 11.8509 23.5237 11.824H25.2062ZM24.8842 11.502V9.81946H20.6002V11.502V13.1845H24.8842V11.502ZM20.6002 11.502V9.81946C20.3657 9.81946 19.7014 9.84284 19.1603 10.384C18.6191 10.9252 18.5957 11.5894 18.5957 11.824H20.2782H21.9608C21.9608 11.8509 21.9599 11.968 21.9151 12.1276C21.866 12.3027 21.7594 12.5438 21.5397 12.7635C21.3201 12.9831 21.079 13.0898 20.9038 13.1389C20.7442 13.1837 20.6272 13.1845 20.6002 13.1845V11.502ZM20.2782 11.824H18.5957V13.21H20.2782H21.9608V11.824H20.2782ZM20.2782 13.21H18.5957C18.5957 13.4446 18.6191 14.1088 19.1603 14.65C19.7014 15.1912 20.3657 15.2145 20.6002 15.2145V13.532V11.8495C20.6272 11.8495 20.7442 11.8503 20.9038 11.8951C21.079 11.9442 21.3201 12.0509 21.5397 12.2705C21.7594 12.4902 21.866 12.7313 21.9151 12.9064C21.9599 13.066 21.9608 13.1831 21.9608 13.21H20.2782ZM33.6784 10.844H35.361V9.16146H33.6784V10.844ZM35.4704 10.844V9.16146H33.7879V10.844H35.4704ZM37.7804 8.03V6.34746H31.3684V8.03V9.71254H37.7804V8.03ZM31.3684 8.03V6.34746C31.2179 6.34746 31.1896 6.33409 31.2289 6.34434C31.2836 6.35858 31.4456 6.41334 31.61 6.57306C31.7767 6.73503 31.8405 6.90251 31.86 6.97316C31.8745 7.02543 31.861 7.00955 31.861 6.868H30.1784H28.4959C28.4959 7.39908 28.5617 8.30317 29.2649 8.98644C29.954 9.65606 30.8484 9.71254 31.3684 9.71254V8.03ZM30.1784 6.868H31.861V3.774H30.1784H28.4959V6.868H30.1784ZM30.1784 3.774H31.861C31.861 3.63245 31.8745 3.61656 31.86 3.66884C31.8405 3.73949 31.7767 3.90697 31.61 4.06894C31.4456 4.22866 31.2836 4.28342 31.2289 4.29766C31.1896 4.30791 31.2179 4.29454 31.3684 4.29454V2.612V0.92946C30.8484 0.92946 29.954 0.985939 29.2649 1.65556C28.5617 2.33883 28.4959 3.24292 28.4959 3.774H30.1784ZM31.3684 2.612V4.29454H37.7804V2.612V0.92946H31.3684V2.612ZM37.7804 2.612V4.29454C37.931 4.29454 37.9593 4.30791 37.9199 4.29766C37.8653 4.28342 37.7033 4.22866 37.5389 4.06894C37.3722 3.90697 37.3084 3.73949 37.2888 3.66884C37.2744 3.61656 37.2879 3.63245 37.2879 3.774H38.9704H40.653C40.653 3.24291 40.5871 2.33883 39.884 1.65556C39.1948 0.98594 38.3005 0.92946 37.7804 0.92946V2.612ZM38.9704 3.774H37.2879V6.868H38.9704H40.653V3.774H38.9704ZM38.9704 6.868H37.2879C37.2879 7.00955 37.2744 7.02543 37.2888 6.97316C37.3084 6.90251 37.3722 6.73503 37.5389 6.57306C37.7033 6.41334 37.8653 6.35858 37.9199 6.34434C37.9593 6.33409 37.931 6.34746 37.7804 6.34746V8.03V9.71254C38.3005 9.71254 39.1948 9.65606 39.884 8.98644C40.5871 8.30317 40.653 7.39909 40.653 6.868H38.9704ZM32.3064 6.518V8.20054H36.8424V6.518V4.83546H32.3064V6.518ZM36.8424 6.518V8.20054C37.077 8.20054 37.7412 8.17716 38.2824 7.63599C38.8236 7.09481 38.847 6.43058 38.847 6.196H37.1644H35.4819C35.4819 6.16906 35.4828 6.05203 35.5275 5.89242C35.5767 5.71727 35.6833 5.47617 35.903 5.25651C36.1226 5.03686 36.3637 4.93022 36.5389 4.88111C36.6985 4.83635 36.8155 4.83546 36.8424 4.83546V6.518ZM37.1644 6.196H38.847V4.446H37.1644H35.4819V6.196H37.1644ZM37.1644 4.446H38.847C38.847 4.21142 38.8236 3.54719 38.2824 3.00601C37.7412 2.46484 37.077 2.44146 36.8424 2.44146V4.124V5.80654C36.8155 5.80654 36.6985 5.80565 36.5389 5.76089C36.3637 5.71178 36.1226 5.60514 35.903 5.38549C35.6833 5.16583 35.5767 4.92473 35.5275 4.74958C35.4828 4.58997 35.4819 4.47294 35.4819 4.446H37.1644ZM36.8424 4.124V2.44146H32.3064V4.124V5.80654H36.8424V4.124ZM32.3064 4.124V2.44146C32.0719 2.44146 31.4076 2.46484 30.8665 3.00601C30.3253 3.54719 30.3019 4.21142 30.3019 4.446H31.9844H33.667C33.667 4.47294 33.6661 4.58996 33.6213 4.74958C33.5722 4.92473 33.4656 5.16583 33.2459 5.38549C33.0263 5.60514 32.7852 5.71178 32.61 5.76089C32.4504 5.80565 32.3334 5.80654 32.3064 5.80654V4.124ZM31.9844 4.446H30.3019V6.196H31.9844H33.667V4.446H31.9844ZM31.9844 6.196H30.3019C30.3019 6.43058 30.3253 7.09481 30.8665 7.63599C31.4076 8.17716 32.0719 8.20054 32.3064 8.20054V6.518V4.83546C32.3334 4.83546 32.4504 4.83635 32.61 4.88111C32.7852 4.93022 33.0263 5.03686 33.2459 5.25651C33.4656 5.47617 33.5722 5.71727 33.6213 5.89242C33.6661 6.05204 33.667 6.16906 33.667 6.196H31.9844ZM33.6784 10.844V9.16146H29.2824V10.844V12.5265H33.6784V10.844ZM29.2824 10.844V9.16146C29.4047 9.16146 29.5697 9.18746 29.745 9.27392C29.9209 9.36067 30.0574 9.48377 30.1528 9.61146C30.3295 9.84812 30.335 10.0495 30.335 10.088H28.6524H26.9699C26.9699 10.5325 27.0734 11.1119 27.4566 11.625C27.8872 12.2016 28.5512 12.5265 29.2824 12.5265V10.844ZM28.6524 10.088H30.335C30.335 10.1265 30.3295 10.3279 30.1528 10.5645C30.0574 10.6922 29.9209 10.8153 29.745 10.9021C29.5697 10.9885 29.4047 11.0145 29.2824 11.0145V9.332V7.64946C28.5512 7.64946 27.8872 7.97437 27.4566 8.55096C27.0734 9.06412 26.9699 9.64349 26.9699 10.088H28.6524ZM29.2824 9.332V11.0145H39.8664V9.332V7.64946H29.2824V9.332ZM39.8664 9.332V11.0145C39.7442 11.0145 39.5792 10.9885 39.4038 10.9021C39.2279 10.8153 39.0915 10.6922 38.9961 10.5645C38.8194 10.3279 38.8139 10.1265 38.8139 10.088H40.4964H42.179C42.179 9.64349 42.0755 9.06412 41.6923 8.55096C41.2616 7.97437 40.5977 7.64946 39.8664 7.64946V9.332ZM40.4964 10.088H38.8139C38.8139 10.0495 38.8194 9.84812 38.9961 9.61146C39.0915 9.48377 39.2279 9.36067 39.4038 9.27393C39.5792 9.18746 39.7442 9.16146 39.8664 9.16146V10.844V12.5265C40.5977 12.5265 41.2616 12.2016 41.6923 11.625C42.0755 11.1119 42.179 10.5325 42.179 10.088H40.4964ZM39.8664 10.844V9.16146H35.4704V10.844V12.5265H39.8664V10.844ZM35.4704 10.844H33.7879V14.498H35.4704H37.153V10.844H35.4704ZM35.4704 14.498H33.7879C33.7879 14.3867 33.8128 14.2364 33.8926 14.0781C33.9717 13.9208 34.0811 13.8027 34.1884 13.7225C34.3853 13.5754 34.5444 13.5715 34.5744 13.5715V15.254V16.9365C35.0664 16.9365 35.6735 16.8136 36.2029 16.418C36.7903 15.979 37.153 15.2924 37.153 14.498H35.4704ZM34.5744 15.254V13.5715C34.6045 13.5715 34.7635 13.5754 34.9604 13.7225C35.0677 13.8027 35.1771 13.9208 35.2563 14.0781C35.336 14.2364 35.361 14.3867 35.361 14.498H33.6784H31.9959C31.9959 15.2924 32.3585 15.979 32.9459 16.418C33.4753 16.8136 34.0824 16.9365 34.5744 16.9365V15.254ZM33.6784 14.498H35.361V10.844H33.6784H31.9959V14.498H33.6784ZM46.7286 6.308L45.6312 7.58338L45.6384 7.58961L45.6457 7.59575L46.7286 6.308ZM48.2966 7.554L47.3016 8.91081L47.3101 8.91703L47.3187 8.92314L48.2966 7.554ZM48.4086 8.632L47.0432 7.64888L47.0395 7.65404L48.4086 8.632ZM47.3166 8.856L46.3441 10.229L46.3517 10.2344L47.3166 8.856ZM45.9166 7.75L47.0034 6.46557L46.9973 6.46035L46.991 6.45518L45.9166 7.75ZM44.9926 6.686L46.6249 6.27792L46.3063 5.00346H44.9926V6.686ZM44.9786 6.686V5.00346H43.6226L43.3345 6.32858L44.9786 6.686ZM44.0126 7.848L42.9382 6.55318L42.932 6.55835L42.9258 6.56357L44.0126 7.848ZM42.4026 9.108L41.4213 7.74122L41.4158 7.74524L42.4026 9.108ZM41.3106 8.884L39.9376 9.85654L39.9415 9.86196L41.3106 8.884ZM41.4366 7.75L42.4104 9.12212L42.4184 9.11647L42.4262 9.11073L41.4366 7.75ZM43.2006 6.364L44.2835 7.65175L44.2908 7.64561L44.298 7.63938L43.2006 6.364ZM51.2506 5.048H49.5681V6.73054H51.2506V5.048ZM51.2506 6.602V4.91946H49.5681V6.602H51.2506ZM45.8746 3.242H44.1921V4.362H45.8746H47.5572V3.242H45.8746ZM45.8746 4.362H44.1921C44.1921 4.95527 44.2799 5.55555 44.5352 6.13719C44.7934 6.72553 45.1786 7.19395 45.6312 7.58338L46.7286 6.308L47.826 5.03262C47.6766 4.90405 47.6348 4.82647 47.6166 4.78481C47.5953 4.73644 47.5572 4.62273 47.5572 4.362H45.8746ZM46.7286 6.308L45.6457 7.59575C46.2816 8.13048 46.8437 8.57498 47.3016 8.91081L48.2966 7.554L49.2916 6.19719C48.9096 5.91702 48.4076 5.52152 47.8115 5.02025L46.7286 6.308ZM48.2966 7.554L47.3187 8.92314C47.2329 8.86189 47.1294 8.76098 47.0464 8.61254C46.9632 8.46381 46.9222 8.30568 46.9141 8.15923C46.8988 7.88081 47 7.70881 47.0432 7.64888L48.4086 8.632L49.7741 9.61512C50.0692 9.20519 50.3104 8.63419 50.2741 7.97427C50.2346 7.25593 49.8718 6.61142 49.2746 6.18486L48.2966 7.554ZM48.4086 8.632L47.0395 7.65404C47.1364 7.5184 47.2756 7.40537 47.4753 7.3478C47.7281 7.27492 48.0409 7.3092 48.2815 7.47761L47.3166 8.856L46.3517 10.2344C47.0123 10.6968 47.7662 10.7661 48.4074 10.5812C48.9956 10.4116 49.4709 10.0396 49.7778 9.60996L48.4086 8.632ZM47.3166 8.856L48.2892 7.48301C48.0062 7.28261 47.5282 6.90963 47.0034 6.46557L45.9166 7.75L44.8298 9.03443C45.397 9.51437 45.955 9.95339 46.3441 10.229L47.3166 8.856ZM45.9166 7.75L46.991 6.45518C46.8392 6.3292 46.7283 6.23275 46.6462 6.15691C46.5632 6.08021 46.5242 6.03789 46.5097 6.02101C46.497 6.00631 46.5189 6.02925 46.5493 6.08469C46.5833 6.14657 46.6091 6.21466 46.6249 6.27792L44.9926 6.686L43.3603 7.09408C43.5828 7.98381 44.2393 8.54453 44.8422 9.04482L45.9166 7.75ZM44.9926 6.686V5.00346H44.9786V6.686V8.36854H44.9926V6.686ZM44.9786 6.686L43.3345 6.32858C43.3492 6.26088 43.3729 6.19834 43.3988 6.14861C43.4221 6.10392 43.4367 6.09 43.4195 6.11078C43.401 6.13313 43.359 6.17989 43.2767 6.25751C43.195 6.33455 43.0857 6.43078 42.9382 6.55318L44.0126 7.848L45.087 9.14282C45.7153 8.62149 46.4155 7.99702 46.6228 7.04342L44.9786 6.686ZM44.0126 7.848L42.9258 6.56357C42.4108 6.99934 41.928 7.37752 41.4214 7.74123L42.4026 9.108L43.3839 10.4748C43.9693 10.0545 44.5224 9.62066 45.0994 9.13243L44.0126 7.848ZM42.4026 9.108L41.4158 7.74524C41.6809 7.55326 42.0071 7.53063 42.2453 7.5987C42.4331 7.65235 42.5745 7.75873 42.6798 7.90604L41.3106 8.884L39.9415 9.86196C40.2567 10.3033 40.7411 10.6687 41.3209 10.8343C41.9511 11.0144 42.7183 10.9567 43.3895 10.4708L42.4026 9.108ZM41.3106 8.884L42.6836 7.91146C42.7253 7.97031 42.8116 8.11846 42.8032 8.36448C42.7985 8.49904 42.7641 8.65432 42.6827 8.80593C42.6007 8.95865 42.4957 9.06157 42.4104 9.12212L41.4366 7.75L40.4629 6.37788C39.8155 6.83732 39.4651 7.52407 39.4401 8.24852C39.4176 8.90054 39.6579 9.46169 39.9376 9.85654L41.3106 8.884ZM41.4366 7.75L42.4262 9.11073C43.0786 8.63631 43.6418 8.1914 44.2835 7.65175L43.2006 6.364L42.1177 5.07625C41.5275 5.5726 41.0267 5.96769 40.447 6.38927L41.4366 7.75ZM43.2006 6.364L44.298 7.63938C44.7506 7.24995 45.1358 6.78153 45.3941 6.19319C45.6493 5.61155 45.7372 5.01127 45.7372 4.418H44.0546H42.3721C42.3721 4.67873 42.3339 4.79244 42.3127 4.84081C42.2944 4.88247 42.2526 4.96005 42.1032 5.08862L43.2006 6.364ZM44.0546 4.418H45.7372V3.242H44.0546H42.3721V4.418H44.0546ZM44.0546 3.242H45.7372C45.7372 3.34283 45.7152 3.48751 45.6375 3.64427C45.5599 3.80095 45.4506 3.92103 45.3406 4.00353C45.1388 4.1549 44.9784 4.15454 44.9646 4.15454V2.472V0.78946C44.4749 0.78946 43.8594 0.908103 43.3216 1.31147C42.7227 1.76064 42.3721 2.4555 42.3721 3.242H44.0546ZM44.9646 2.472V4.15454C44.9509 4.15454 44.7904 4.1549 44.5886 4.00353C44.4786 3.92103 44.3694 3.80095 44.2918 3.64427C44.2141 3.48751 44.1921 3.34283 44.1921 3.242H45.8746H47.5572C47.5572 2.45549 47.2065 1.76064 46.6076 1.31147C46.0698 0.908103 45.4544 0.78946 44.9646 0.78946V2.472ZM51.2506 5.048V6.73054H52.5666V5.048V3.36546H51.2506V5.048ZM52.5666 5.048V6.73054C52.4559 6.73054 52.297 6.70779 52.1234 6.6238C51.9479 6.53889 51.8089 6.41608 51.7106 6.28502C51.5288 6.04268 51.5281 5.83879 51.5281 5.818H53.2106H54.8932C54.8932 5.37721 54.7944 4.78832 54.4027 4.26598C53.9606 3.67658 53.2872 3.36546 52.5666 3.36546V5.048ZM53.2106 5.818H51.5281C51.5281 5.81422 51.5245 5.61446 51.7046 5.37126C51.8026 5.23896 51.9424 5.11403 52.1201 5.02758C52.2956 4.94219 52.456 4.91946 52.5666 4.91946V6.602V8.28454C53.2886 8.28454 53.966 7.97183 54.4086 7.37424C54.7988 6.84754 54.8932 6.25578 54.8932 5.818H53.2106ZM52.5666 6.602V4.91946H51.2506V6.602V8.28454H52.5666V6.602ZM51.2506 6.602H49.5681V8.996H51.2506H52.9332V6.602H51.2506ZM51.2506 8.996H49.5681C49.5681 8.88465 49.593 8.73443 49.6728 8.57606C49.7519 8.41884 49.8613 8.3007 49.9686 8.22052C50.1655 8.07336 50.3246 8.06946 50.3546 8.06946V9.752V11.4345C50.8466 11.4345 51.4537 11.3116 51.9831 10.916C52.5705 10.477 52.9332 9.79038 52.9332 8.996H51.2506ZM50.3546 9.752V8.06946C50.3846 8.06946 50.5437 8.07336 50.7406 8.22052C50.8479 8.3007 50.9573 8.41884 51.0365 8.57606C51.1162 8.73443 51.1412 8.88465 51.1412 8.996H49.4586H47.7761C47.7761 9.79038 48.1387 10.477 48.7261 10.916C49.2555 11.3116 49.8626 11.4345 50.3546 11.4345V9.752ZM49.4586 8.996H51.1412V2.794H49.4586H47.7761V8.996H49.4586ZM49.4586 2.794H51.1412C51.1412 2.90535 51.1162 3.05556 51.0365 3.21394C50.9573 3.37116 50.8479 3.4893 50.7406 3.56948C50.5437 3.71664 50.3846 3.72054 50.3546 3.72054V2.038V0.35546C49.8626 0.35546 49.2555 0.478357 48.7261 0.874017C48.1387 1.31303 47.7761 1.99962 47.7761 2.794H49.4586ZM50.3546 2.038V3.72054C50.3246 3.72054 50.1655 3.71664 49.9686 3.56948C49.8613 3.4893 49.7519 3.37116 49.6728 3.21394C49.593 3.05556 49.5681 2.90535 49.5681 2.794H51.2506H52.9332C52.9332 1.99962 52.5705 1.31303 51.9831 0.874017C51.4537 0.478357 50.8466 0.35546 50.3546 0.35546V2.038ZM51.2506 2.794H49.5681V5.048H51.2506H52.9332V2.794H51.2506ZM43.0326 12.552H44.7152C44.7152 12.2129 44.8133 12.0718 45.034 11.9316C45.3607 11.724 46.025 11.5185 47.1626 11.5185V9.836V8.15346C45.7243 8.15346 44.3235 8.39602 43.2292 9.09143C42.0289 9.85418 41.3501 11.0711 41.3501 12.552H43.0326ZM47.1626 9.836V11.5185C48.3003 11.5185 48.9645 11.724 49.2912 11.9316C49.5119 12.0718 49.6101 12.2129 49.6101 12.552H51.2926H52.9752C52.9752 11.0711 52.2963 9.85418 51.096 9.09143C50.0017 8.39602 48.601 8.15346 47.1626 8.15346V9.836ZM51.2926 12.552H49.6101C49.6101 12.8911 49.5119 13.0322 49.2912 13.1724C48.9645 13.38 48.3003 13.5855 47.1626 13.5855V15.268V16.9505C48.601 16.9505 50.0017 16.708 51.096 16.0126C52.2963 15.2498 52.9752 14.0329 52.9752 12.552H51.2926ZM47.1626 15.268V13.5855C46.025 13.5855 45.3607 13.38 45.034 13.1724C44.8133 13.0322 44.7152 12.8911 44.7152 12.552H43.0326H41.3501C41.3501 14.0329 42.0289 15.2498 43.2292 16.0126C44.3235 16.708 45.7243 16.9505 47.1626 16.9505V15.268ZM49.5146 12.552H51.1972C51.1972 11.5965 50.7436 10.7183 49.8478 10.1783C49.0857 9.71893 48.1327 9.58146 47.1626 9.58146V11.264V12.9465C47.5096 12.9465 47.7542 12.9733 47.9182 13.0063C48.0844 13.0398 48.1307 13.0724 48.1105 13.0602C48.0795 13.0416 47.9899 12.9753 47.9162 12.8425C47.8437 12.7118 47.8321 12.5988 47.8321 12.552H49.5146ZM47.1626 11.264V9.58146C46.1926 9.58146 45.2395 9.71893 44.4775 10.1783C43.5816 10.7183 43.1281 11.5965 43.1281 12.552H44.8106H46.4932C46.4932 12.5988 46.4816 12.7118 46.409 12.8425C46.3353 12.9753 46.2457 13.0416 46.2148 13.0602C46.1945 13.0724 46.2408 13.0398 46.4071 13.0063C46.571 12.9733 46.8157 12.9465 47.1626 12.9465V11.264ZM44.8106 12.552H43.1281C43.1281 13.5075 43.5816 14.3857 44.4775 14.9257C45.2395 15.3851 46.1926 15.5225 47.1626 15.5225V13.84V12.1575C46.8157 12.1575 46.571 12.1307 46.4071 12.0977C46.2408 12.0642 46.1945 12.0316 46.2148 12.0438C46.2457 12.0624 46.3353 12.1287 46.409 12.2615C46.4816 12.3922 46.4932 12.5052 46.4932 12.552H44.8106ZM47.1626 13.84V15.5225C48.1327 15.5225 49.0857 15.3851 49.8478 14.9257C50.7436 14.3857 51.1972 13.5075 51.1972 12.552H49.5146H47.8321C47.8321 12.5052 47.8437 12.3922 47.9162 12.2615C47.9899 12.1287 48.0795 12.0624 48.1105 12.0438C48.1307 12.0316 48.0844 12.0642 47.9182 12.0977C47.7542 12.1307 47.5096 12.1575 47.1626 12.1575V13.84ZM60.0308 3.088V4.77054H61.7133V3.088H60.0308ZM61.8228 3.088H60.1403V4.77054H61.8228V3.088ZM64.0208 7.092H62.3383C62.3383 7.16313 62.3245 7.17519 62.3315 7.16251C62.3374 7.15173 62.3305 7.1747 62.264 7.21872C62.1054 7.32374 61.6996 7.48146 60.9268 7.48146V9.164V10.8465C62.072 10.8465 63.2132 10.6263 64.1221 10.0243C65.1087 9.37089 65.7033 8.33531 65.7033 7.092H64.0208ZM60.9268 9.164V7.48146C60.154 7.48146 59.7482 7.32374 59.5896 7.21872C59.5231 7.1747 59.5162 7.15173 59.5221 7.16251C59.5291 7.17519 59.5153 7.16313 59.5153 7.092H57.8328H56.1503C56.1503 8.33531 56.745 9.37089 57.7315 10.0243C58.6404 10.6263 59.7816 10.8465 60.9268 10.8465V9.164ZM57.8328 7.092H59.5153C59.5153 7.02087 59.5291 7.0088 59.5221 7.02149C59.5162 7.03227 59.5231 7.0093 59.5896 6.96528C59.7482 6.86026 60.154 6.70254 60.9268 6.70254V5.02V3.33746C59.7816 3.33746 58.6404 3.55774 57.7315 4.15972C56.745 4.81311 56.1503 5.84869 56.1503 7.092H57.8328ZM60.9268 5.02V6.70254C61.6996 6.70254 62.1054 6.86026 62.264 6.96528C62.3305 7.0093 62.3374 7.03227 62.3315 7.02149C62.3245 7.0088 62.3383 7.02087 62.3383 7.092H64.0208H65.7033C65.7033 5.84869 65.1087 4.81311 64.1221 4.15972C63.2132 3.55774 62.072 3.33746 60.9268 3.33746V5.02ZM57.6648 3.088V4.77054H60.0308V3.088V1.40546H57.6648V3.088ZM60.0308 3.088H61.7133V2.486H60.0308H58.3483V3.088H60.0308ZM60.0308 2.486H61.7133C61.7133 2.61032 61.6849 2.76978 61.6008 2.93374C61.5175 3.09597 61.4041 3.2152 61.2959 3.2946C61.0972 3.44047 60.9419 3.44054 60.9268 3.44054V1.758V0.07546C60.4357 0.07546 59.8324 0.194531 59.3047 0.5819C58.7193 1.01163 58.3483 1.69193 58.3483 2.486H60.0308ZM60.9268 1.758V3.44054C60.9117 3.44054 60.7564 3.44047 60.5577 3.2946C60.4495 3.2152 60.3361 3.09597 60.2528 2.93374C60.1687 2.76978 60.1403 2.61032 60.1403 2.486H61.8228H63.5053C63.5053 1.69193 63.1344 1.01163 62.5489 0.5819C62.0212 0.194531 61.4179 0.07546 60.9268 0.07546V1.758ZM61.8228 2.486H60.1403V3.088H61.8228H63.5053V2.486H61.8228ZM61.8228 3.088V4.77054H64.0488V3.088V1.40546H61.8228V3.088ZM64.0488 3.088V4.77054C63.9251 4.77054 63.7609 4.74453 63.5869 4.65999C63.4124 4.57516 63.2747 4.45406 63.1768 4.32575C62.9934 4.08544 62.9823 3.87355 62.9823 3.816H64.6648H66.3473C66.3473 3.36645 66.2382 2.79056 65.8518 2.28425C65.4212 1.72 64.7654 1.40546 64.0488 1.40546V3.088ZM64.6648 3.816H62.9823C62.9823 3.75845 62.9934 3.54656 63.1768 3.30625C63.2747 3.17793 63.4124 3.05684 63.5869 2.97201C63.7609 2.88747 63.9251 2.86146 64.0488 2.86146V4.544V6.22654C64.7654 6.22654 65.4212 5.91199 65.8518 5.34775C66.2382 4.84144 66.3473 4.26555 66.3473 3.816H64.6648ZM64.0488 4.544V2.86146H57.6648V4.544V6.22654H64.0488V4.544ZM57.6648 4.544V2.86146C57.7885 2.86146 57.9527 2.88747 58.1267 2.97201C58.3013 3.05684 58.4389 3.17793 58.5368 3.30625C58.7202 3.54656 58.7313 3.75845 58.7313 3.816H57.0488H55.3663C55.3663 4.26555 55.4754 4.84144 55.8618 5.34775C56.2924 5.912 56.9483 6.22654 57.6648 6.22654V4.544ZM57.0488 3.816H58.7313C58.7313 3.87355 58.7202 4.08544 58.5368 4.32575C58.4389 4.45407 58.3013 4.57516 58.1267 4.65999C57.9527 4.74453 57.7885 4.77054 57.6648 4.77054V3.088V1.40546C56.9483 1.40546 56.2924 1.72 55.8618 2.28425C55.4754 2.79056 55.3663 3.36645 55.3663 3.816H57.0488ZM62.4108 7.092H64.0933C64.0933 6.17358 63.5807 5.45315 62.8816 5.05365C62.2746 4.70679 61.5676 4.61146 60.9268 4.61146V6.294V7.97654C61.093 7.97654 61.197 7.99012 61.251 8.00102C61.3075 8.01243 61.2821 8.01538 61.212 7.97535C61.1368 7.93234 61.0038 7.83509 60.8917 7.65477C60.7753 7.4675 60.7283 7.26536 60.7283 7.092H62.4108ZM60.9268 6.294V4.61146C60.286 4.61146 59.579 4.70679 58.972 5.05365C58.2729 5.45315 57.7603 6.17358 57.7603 7.092H59.4428H61.1253C61.1253 7.26536 61.0783 7.4675 60.9619 7.65477C60.8498 7.83509 60.7169 7.93234 60.6416 7.97535C60.5715 8.01538 60.5461 8.01243 60.6026 8.00102C60.6566 7.99012 60.7607 7.97654 60.9268 7.97654V6.294ZM59.4428 7.092H57.7603C57.7603 8.01042 58.2729 8.73085 58.972 9.13035C59.579 9.47721 60.286 9.57254 60.9268 9.57254V7.89V6.20746C60.7607 6.20746 60.6566 6.19387 60.6026 6.18298C60.5461 6.17156 60.5715 6.16862 60.6416 6.20865C60.7169 6.25166 60.8498 6.34891 60.9619 6.52923C61.0783 6.7165 61.1253 6.91864 61.1253 7.092H59.4428ZM60.9268 7.89V9.57254C61.5676 9.57254 62.2746 9.47721 62.8816 9.13035C63.5807 8.73085 64.0933 8.01042 64.0933 7.092H62.4108H60.7283C60.7283 6.91864 60.7753 6.7165 60.8917 6.52923C61.0038 6.34891 61.1368 6.25166 61.212 6.20865C61.2821 6.16862 61.3075 6.17156 61.251 6.18298C61.197 6.19387 61.093 6.20746 60.9268 6.20746V7.89ZM67.5628 2.794H65.8803V8.492H67.5628H69.2453V2.794H67.5628ZM67.5628 8.492H65.8803C65.8803 8.3806 65.9052 8.23159 65.9838 8.07482C66.0617 7.91937 66.1694 7.80195 66.2757 7.72165C66.4713 7.57395 66.6343 7.56546 66.6808 7.56546V9.248V10.9305C67.1753 10.9305 67.7794 10.803 68.3039 10.4068C68.8841 9.96858 69.2453 9.28512 69.2453 8.492H67.5628ZM66.6808 9.248V7.56546C66.7108 7.56546 66.8699 7.56936 67.0668 7.71652C67.1741 7.7967 67.2835 7.91484 67.3627 8.07206C67.4424 8.23043 67.4673 8.38065 67.4673 8.492H65.7848H64.1023C64.1023 9.28638 64.4649 9.97297 65.0523 10.412C65.5817 10.8076 66.1888 10.9305 66.6808 10.9305V9.248ZM65.7848 8.492H67.4673V2.794H65.7848H64.1023V8.492H65.7848ZM65.7848 2.794H67.4673C67.4673 2.90535 67.4424 3.05556 67.3627 3.21394C67.2835 3.37116 67.1741 3.4893 67.0668 3.56948C66.8699 3.71664 66.7108 3.72054 66.6808 3.72054V2.038V0.35546C66.1888 0.35546 65.5817 0.478357 65.0523 0.874017C64.4649 1.31303 64.1023 1.99962 64.1023 2.794H65.7848ZM66.6808 2.038V3.72054C66.6343 3.72054 66.4713 3.71205 66.2757 3.56435C66.1694 3.48405 66.0617 3.36663 65.9838 3.21118C65.9052 3.05441 65.8803 2.9054 65.8803 2.794H67.5628H69.2453C69.2453 2.00088 68.8841 1.31742 68.3039 0.879153C67.7794 0.482952 67.1753 0.35546 66.6808 0.35546V2.038ZM59.7088 9.766V11.4485H66.3728V9.766V8.08346H59.7088V9.766ZM66.3728 9.766V11.4485C66.5234 11.4485 66.5516 11.4619 66.5123 11.4517C66.4577 11.4374 66.2956 11.3827 66.1313 11.2229C65.9646 11.061 65.9007 10.8935 65.8812 10.8228C65.8668 10.7706 65.8803 10.7864 65.8803 10.928H67.5628H69.2453C69.2453 10.3969 69.1795 9.49283 68.4763 8.80956C67.7872 8.13994 66.8929 8.08346 66.3728 8.08346V9.766ZM67.5628 10.928H65.8803V11.922H67.5628H69.2453V10.928H67.5628ZM67.5628 11.922H65.8803C65.8803 12.0636 65.8668 12.0794 65.8812 12.0272C65.9007 11.9565 65.9646 11.789 66.1313 11.6271C66.2956 11.4673 66.4577 11.4126 66.5123 11.3983C66.5516 11.3881 66.5234 11.4015 66.3728 11.4015V13.084V14.7665C66.8929 14.7665 67.7872 14.7101 68.4763 14.0404C69.1795 13.3572 69.2453 12.4531 69.2453 11.922H67.5628ZM66.3728 13.084V11.4015H61.0948V13.084V14.7665H66.3728V13.084ZM61.0948 13.084V11.4015C60.7655 11.4015 60.2094 11.4849 59.7476 11.9468C59.2857 12.4086 59.2023 12.9646 59.2023 13.294H60.8848H62.5673C62.5673 13.4834 62.5189 13.9344 62.127 14.3262C61.7352 14.7181 61.2842 14.7665 61.0948 14.7665V13.084ZM60.8848 13.294H59.2023V13.532H60.8848H62.5673V13.294H60.8848ZM60.8848 13.532H59.2023C59.2023 13.8614 59.2857 14.4174 59.7476 14.8792C60.2094 15.3411 60.7655 15.4245 61.0948 15.4245V13.742V12.0595C61.2842 12.0595 61.7352 12.1079 62.127 12.4998C62.5189 12.8916 62.5673 13.3426 62.5673 13.532H60.8848ZM61.0948 13.742V15.4245H67.2688V13.742V12.0595H61.0948V13.742ZM67.2688 13.742V15.4245C67.1198 15.4245 66.9406 15.3908 66.7605 15.2992C66.5827 15.2086 66.449 15.0845 66.3568 14.9615C66.1853 14.7329 66.1603 14.5219 66.1603 14.414H67.8428H69.5253C69.5253 13.9701 69.4093 13.4231 69.0488 12.9425C68.6476 12.4074 68.0124 12.0595 67.2688 12.0595V13.742ZM67.8428 14.414H66.1603C66.1603 14.3433 66.1744 14.1272 66.3568 13.884C66.4545 13.7536 66.5941 13.6272 66.7751 13.5373C66.9564 13.4472 67.1313 13.4175 67.2688 13.4175V15.1V16.7825C67.9883 16.7825 68.6329 16.4576 69.0488 15.903C69.4203 15.4078 69.5253 14.8487 69.5253 14.414H67.8428ZM67.2688 15.1V13.4175H60.3528V15.1V16.7825H67.2688V15.1ZM60.3528 15.1V13.4175C60.2022 13.4175 60.174 13.4041 60.2133 13.4143C60.2679 13.4286 60.43 13.4833 60.5943 13.6431C60.761 13.805 60.8249 13.9725 60.8444 14.0432C60.8589 14.0954 60.8453 14.0796 60.8453 13.938H59.1628H57.4803C57.4803 14.4691 57.5461 15.3732 58.2493 16.0564C58.9384 16.7261 59.8328 16.7825 60.3528 16.7825V15.1ZM59.1628 13.938H60.8453V12.944H59.1628H57.4803V13.938H59.1628ZM59.1628 12.944H60.8453C60.8453 12.8024 60.8589 12.7866 60.8444 12.8388C60.8249 12.9095 60.761 13.077 60.5943 13.2389C60.43 13.3987 60.2679 13.4534 60.2133 13.4677C60.174 13.4779 60.2022 13.4645 60.3528 13.4645V11.782V10.0995C59.8328 10.0995 58.9384 10.1559 58.2493 10.8256C57.5461 11.5088 57.4803 12.4129 57.4803 12.944H59.1628ZM60.3528 11.782V13.4645H65.6308V11.782V10.0995H60.3528V11.782ZM65.6308 11.782V13.4645C65.9602 13.4645 66.5162 13.3811 66.978 12.9192C67.4399 12.4574 67.5233 11.9014 67.5233 11.572H65.8408H64.1583C64.1583 11.3826 64.2067 10.9316 64.5986 10.5398C64.9904 10.1479 65.4415 10.0995 65.6308 10.0995V11.782ZM65.8408 11.572H67.5233V11.334H65.8408H64.1583V11.572H65.8408ZM65.8408 11.334H67.5233C67.5233 11.0046 67.4399 10.4486 66.978 9.98676C66.5162 9.52494 65.9602 9.44146 65.6308 9.44146V11.124V12.8065C65.4415 12.8065 64.9904 12.7581 64.5986 12.3662C64.2067 11.9744 64.1583 11.5234 64.1583 11.334H65.8408ZM65.6308 11.124V9.44146H59.7088V11.124V12.8065H65.6308V11.124ZM59.7088 11.124V9.44146C59.8464 9.44146 60.0213 9.47117 60.2025 9.56127C60.3835 9.65122 60.5231 9.77764 60.6208 9.90798C60.8033 10.1512 60.8173 10.3673 60.8173 10.438H59.1348H57.4523C57.4523 10.8727 57.5574 11.4318 57.9288 11.927C58.3447 12.4816 58.9893 12.8065 59.7088 12.8065V11.124ZM59.1348 10.438H60.8173C60.8173 10.5459 60.7923 10.7569 60.6208 10.9855C60.5286 11.1085 60.3949 11.2326 60.2171 11.3232C60.037 11.4148 59.8578 11.4485 59.7088 11.4485V9.766V8.08346C58.9652 8.08346 58.33 8.43145 57.9288 8.96648C57.5683 9.44711 57.4523 9.99408 57.4523 10.438H59.1348ZM76.679 7.792L76.4637 6.12327L76.4555 6.12437L76.679 7.792ZM77.407 8.422L79.0807 8.24886L79.0792 8.2362L77.407 8.422ZM76.903 9.262L77.1267 10.9296L77.1329 10.9288L76.903 9.262ZM70.631 2.668V4.35054H74.803V2.668V0.98546H70.631V2.668ZM74.803 2.668V4.35054C74.9536 4.35054 74.9818 4.36391 74.9425 4.35366C74.8879 4.33942 74.7258 4.28466 74.5615 4.12494C74.3948 3.96297 74.3309 3.79549 74.3114 3.72484C74.2969 3.67256 74.3105 3.68845 74.3105 3.83H75.993H77.6755C77.6755 3.29892 77.6097 2.39483 76.9065 1.71156C76.2174 1.04194 75.323 0.98546 74.803 0.98546V2.668ZM75.993 3.83H74.3105V5.636H75.993H77.6755V3.83H75.993ZM75.993 5.636H74.3105C74.3105 5.77755 74.2969 5.79343 74.3114 5.74116C74.3309 5.67051 74.3948 5.50303 74.5615 5.34106C74.7258 5.18134 74.8879 5.12658 74.9425 5.11234C74.9818 5.10209 74.9536 5.11546 74.803 5.11546V6.798V8.48054C75.323 8.48054 76.2174 8.42406 76.9065 7.75444C77.6097 7.07117 77.6755 6.16708 77.6755 5.636H75.993ZM74.803 6.798V5.11546H72.115V6.798V8.48054H74.803V6.798ZM72.115 6.798V5.11546C71.8804 5.11546 71.2162 5.13884 70.675 5.68002C70.1338 6.22119 70.1105 6.88542 70.1105 7.12H71.793H73.4755C73.4755 7.14694 73.4746 7.26396 73.4299 7.42358C73.3808 7.59873 73.2741 7.83983 73.0545 8.05948C72.8348 8.27914 72.5937 8.38578 72.4186 8.43489C72.259 8.47965 72.1419 8.48054 72.115 8.48054V6.798ZM71.793 7.12H70.1105V7.736H71.793H73.4755V7.12H71.793ZM71.793 7.736H70.1105C70.1105 7.97058 70.1338 8.63481 70.675 9.17598C71.2162 9.71716 71.8804 9.74054 72.115 9.74054V8.058V6.37546C72.1419 6.37546 72.259 6.37635 72.4186 6.42111C72.5937 6.47022 72.8348 6.57686 73.0545 6.79651C73.2741 7.01617 73.3808 7.25727 73.4299 7.43242C73.4746 7.59204 73.4755 7.70906 73.4755 7.736H71.793ZM72.115 8.058V9.74054C73.9337 9.74054 75.4529 9.65391 76.9025 9.45963L76.679 7.792L76.4555 6.12437C75.1891 6.29409 73.8243 6.37546 72.115 6.37546V8.058ZM76.679 7.792L76.8943 9.46071C76.637 9.4939 76.293 9.4147 76.0266 9.15975C75.8015 8.94429 75.7467 8.7156 75.7347 8.6078L77.407 8.422L79.0792 8.2362C79.0253 7.7504 78.8235 7.17871 78.3534 6.72875C77.842 6.2393 77.155 6.0341 76.4637 6.12329L76.679 7.792ZM77.407 8.422L75.7334 8.59513C75.7325 8.58616 75.7125 8.41957 75.8356 8.1868C75.9035 8.05838 76.0146 7.91385 76.1814 7.79479C76.3504 7.67417 76.5265 7.61546 76.6731 7.59524L76.903 9.262L77.1329 10.9288C77.8951 10.8236 78.4878 10.3699 78.8104 9.7597C79.0945 9.22243 79.1235 8.66384 79.0806 8.24887L77.407 8.422ZM76.903 9.262L76.6793 7.5944C75.6279 7.73544 74.0969 7.85946 71.233 7.85946V9.542V11.2245C74.1931 11.2245 75.8821 11.0966 77.1267 10.9296L76.903 9.262ZM71.233 9.542V7.85946C71.0824 7.85946 71.0542 7.84609 71.0935 7.85634C71.1481 7.87058 71.3102 7.92534 71.4745 8.08506C71.6412 8.24703 71.7051 8.41451 71.7246 8.48516C71.7391 8.53743 71.7255 8.52155 71.7255 8.38H70.043H68.3605C68.3605 8.91108 68.4263 9.81517 69.1295 10.4984C69.8186 11.1681 70.713 11.2245 71.233 11.2245V9.542ZM70.043 8.38H71.7255V6.56H70.043H68.3605V8.38H70.043ZM70.043 6.56H71.7255C71.7255 6.41845 71.7391 6.40257 71.7246 6.45484C71.7051 6.52549 71.6412 6.69297 71.4745 6.85494C71.3102 7.01466 71.1481 7.06942 71.0935 7.08366C71.0542 7.09391 71.0824 7.08054 71.233 7.08054V5.398V3.71546C70.713 3.71546 69.8186 3.77194 69.1295 4.44156C68.4263 5.12483 68.3605 6.02892 68.3605 6.56H70.043ZM71.233 5.398V7.08054H73.921V5.398V3.71546H71.233V5.398ZM73.921 5.398V7.08054C74.1556 7.08054 74.8198 7.05716 75.361 6.51598C75.9022 5.97481 75.9255 5.31057 75.9255 5.076H74.243H72.5605C72.5605 5.04906 72.5613 4.93204 72.6061 4.77242C72.6552 4.59728 72.7619 4.35617 72.9815 4.13651C73.2012 3.91686 73.4423 3.81022 73.6174 3.76111C73.777 3.71635 73.8941 3.71546 73.921 3.71546V5.398ZM74.243 5.076H75.9255V4.474H74.243H72.5605V5.076H74.243ZM74.243 4.474H75.9255C75.9255 4.23943 75.9022 3.57519 75.361 3.03401C74.8198 2.49284 74.1556 2.46946 73.921 2.46946V4.152V5.83454C73.8941 5.83454 73.777 5.83365 73.6174 5.78889C73.4423 5.73978 73.2012 5.63314 72.9815 5.41348C72.7619 5.19383 72.6552 4.95272 72.6061 4.77758C72.5613 4.61796 72.5605 4.50094 72.5605 4.474H74.243ZM73.921 4.152V2.46946H70.631V4.152V5.83454H73.921V4.152ZM70.631 4.152V2.46946C70.7653 2.46946 70.9419 2.49909 71.1259 2.59323C71.3096 2.68716 71.4466 2.81771 71.5393 2.94673C71.7086 3.18265 71.7115 3.37781 71.7115 3.41H70.029H68.3465C68.3465 3.83419 68.4404 4.40035 68.8057 4.90927C69.2216 5.48858 69.8822 5.83454 70.631 5.83454V4.152ZM70.029 3.41H71.7115C71.7115 3.44219 71.7086 3.63735 71.5393 3.87327C71.4466 4.00229 71.3096 4.13284 71.1259 4.22677C70.9419 4.32091 70.7653 4.35054 70.631 4.35054V2.668V0.98546C69.8822 0.98546 69.2216 1.33142 68.8057 1.91073C68.4404 2.41965 68.3465 2.98581 68.3465 3.41H70.029ZM80.039 2.794H78.3565V9.416H80.039H81.7215V2.794H80.039ZM80.039 9.416H78.3565C78.3565 9.30465 78.3814 9.15443 78.4611 8.99606C78.5403 8.83884 78.6497 8.7207 78.757 8.64052C78.9539 8.49336 79.113 8.48946 79.143 8.48946V10.172V11.8545C79.635 11.8545 80.2421 11.7316 80.7715 11.336C81.3589 10.897 81.7215 10.2104 81.7215 9.416H80.039ZM79.143 10.172V8.48946C79.173 8.48946 79.3321 8.49336 79.529 8.64052C79.6363 8.7207 79.7457 8.83884 79.8249 8.99606C79.9046 9.15443 79.9295 9.30465 79.9295 9.416H78.247H76.5645C76.5645 10.2104 76.9271 10.897 77.5145 11.336C78.0439 11.7316 78.651 11.8545 79.143 11.8545V10.172ZM78.247 9.416H79.9295V2.794H78.247H76.5645V9.416H78.247ZM78.247 2.794H79.9295C79.9295 2.90535 79.9046 3.05556 79.8249 3.21394C79.7457 3.37116 79.6363 3.4893 79.529 3.56948C79.3321 3.71664 79.173 3.72054 79.143 3.72054V2.038V0.35546C78.651 0.35546 78.0439 0.478357 77.5145 0.874017C76.9271 1.31303 76.5645 1.99962 76.5645 2.794H78.247ZM79.143 2.038V3.72054C79.113 3.72054 78.9539 3.71664 78.757 3.56948C78.6497 3.4893 78.5403 3.37116 78.4611 3.21394C78.3814 3.05556 78.3565 2.90535 78.3565 2.794H80.039H81.7215C81.7215 1.99962 81.3589 1.31303 80.7715 0.874017C80.2421 0.478357 79.635 0.35546 79.143 0.35546V2.038ZM71.681 12.776H73.3635C73.3635 12.6122 73.3981 12.5487 73.4106 12.5279C73.4254 12.5033 73.4727 12.4361 73.626 12.3497C73.9781 12.151 74.6858 11.9665 75.881 11.9665V10.284V8.60146C74.4582 8.60146 73.0659 8.80196 71.9725 9.41883C70.7514 10.1077 69.9985 11.2738 69.9985 12.776H71.681ZM75.881 10.284V11.9665C77.0718 11.9665 77.7802 12.1533 78.1333 12.3534C78.288 12.441 78.3368 12.5096 78.3522 12.5351C78.3651 12.5565 78.3985 12.6182 78.3985 12.776H80.081H81.7635C81.7635 11.2773 81.0076 10.1142 79.7922 9.4256C78.6998 8.80669 77.3081 8.60146 75.881 8.60146V10.284ZM80.081 12.776H78.3985C78.3985 12.9398 78.3639 13.0033 78.3514 13.0241C78.3366 13.0487 78.2893 13.1159 78.136 13.2023C77.7839 13.401 77.0762 13.5855 75.881 13.5855V15.268V16.9505C77.3038 16.9505 78.6961 16.75 79.7895 16.1332C81.0106 15.4443 81.7635 14.2782 81.7635 12.776H80.081ZM75.881 15.268V13.5855C74.6858 13.5855 73.9781 13.401 73.626 13.2023C73.4727 13.1159 73.4254 13.0487 73.4106 13.0241C73.3981 13.0033 73.3635 12.9398 73.3635 12.776H71.681H69.9985C69.9985 14.2782 70.7514 15.4443 71.9725 16.1332C73.0659 16.75 74.4582 16.9505 75.881 16.9505V15.268ZM78.303 12.776H79.9855C79.9855 12.3095 79.861 11.8204 79.5588 11.3792C79.2654 10.9507 78.8714 10.6646 78.4815 10.4759C77.7489 10.1212 76.8358 10.0155 75.881 10.0155V11.698V13.3805C76.2557 13.3805 76.5328 13.4033 76.7308 13.4351C76.8284 13.4508 76.8993 13.4675 76.948 13.4816C76.997 13.4958 77.0167 13.5054 77.015 13.5046C77.0119 13.5031 76.8953 13.4454 76.7825 13.2807C76.661 13.1033 76.6205 12.9135 76.6205 12.776H78.303ZM75.881 11.698V10.0155C74.9262 10.0155 74.0131 10.1212 73.2805 10.4759C72.8906 10.6646 72.4966 10.9507 72.2032 11.3792C71.901 11.8204 71.7765 12.3095 71.7765 12.776H73.459H75.1415C75.1415 12.9135 75.101 13.1033 74.9795 13.2807C74.8667 13.4454 74.7501 13.5031 74.747 13.5046C74.7453 13.5054 74.765 13.4958 74.814 13.4816C74.8627 13.4675 74.9336 13.4508 75.0312 13.4351C75.2292 13.4033 75.5063 13.3805 75.881 13.3805V11.698ZM73.459 12.776H71.7765C71.7765 13.2425 71.901 13.7316 72.2032 14.1728C72.4966 14.6013 72.8906 14.8874 73.2805 15.0761C74.0131 15.4308 74.9262 15.5365 75.881 15.5365V13.854V12.1715C75.5063 12.1715 75.2292 12.1487 75.0312 12.1169C74.9336 12.1012 74.8627 12.0845 74.814 12.0704C74.765 12.0562 74.7453 12.0466 74.747 12.0474C74.7501 12.0489 74.8667 12.1066 74.9795 12.2713C75.101 12.4487 75.1415 12.6385 75.1415 12.776H73.459ZM75.881 13.854V15.5365C76.8358 15.5365 77.7489 15.4308 78.4815 15.0761C78.8714 14.8874 79.2654 14.6013 79.5588 14.1728C79.861 13.7316 79.9855 13.2425 79.9855 12.776H78.303H76.6205C76.6205 12.6385 76.661 12.4487 76.7825 12.2713C76.8953 12.1066 77.0119 12.0489 77.015 12.0474C77.0167 12.0466 76.997 12.0562 76.948 12.0704C76.8993 12.0845 76.8284 12.1012 76.7308 12.1169C76.5328 12.1487 76.2557 12.1715 75.881 12.1715V13.854ZM88.8192 9.584L88.6039 7.91529L88.5951 7.91643L88.5863 7.91766L88.8192 9.584ZM89.5472 10.228L91.2214 10.0606L91.2202 10.0488L89.5472 10.228ZM89.0432 11.082L88.8133 9.41523L88.8082 9.41595L89.0432 11.082ZM90.8212 7.68H92.5037V5.99746H90.8212V7.68ZM90.8212 6.14V7.82254H92.5037V6.14H90.8212ZM86.1032 4.418V2.73546H83.0512V4.418V6.10054H86.1032V4.418ZM83.0512 4.418V2.73546C83.1734 2.73546 83.3384 2.76146 83.5138 2.84792C83.6897 2.93467 83.8261 3.05777 83.9215 3.18546C84.0983 3.42212 84.1037 3.62349 84.1037 3.662H82.4212H80.7386C80.7386 4.10651 80.8421 4.68588 81.2254 5.19904C81.656 5.77563 82.3199 6.10054 83.0512 6.10054V4.418ZM82.4212 3.662H84.1037C84.1037 3.70051 84.0983 3.90188 83.9215 4.13854C83.8261 4.26623 83.6897 4.38933 83.5138 4.47607C83.3384 4.56254 83.1734 4.58854 83.0512 4.58854V2.906V1.22346C82.3199 1.22346 81.656 1.54837 81.2254 2.12496C80.8421 2.63812 80.7386 3.21749 80.7386 3.662H82.4212ZM83.0512 2.906V4.58854H86.9992V2.906V1.22346H83.0512V2.906ZM86.9992 2.906V4.58854C87.1498 4.58854 87.178 4.60191 87.1387 4.59166C87.0841 4.57742 86.922 4.52266 86.7577 4.36294C86.591 4.20097 86.5271 4.03349 86.5076 3.96284C86.4931 3.91056 86.5066 3.92645 86.5066 4.068H88.1892H89.8717C89.8717 3.53692 89.8059 2.63283 89.1027 1.94956C88.4136 1.27994 87.5192 1.22346 86.9992 1.22346V2.906ZM88.1892 4.068H86.5066V6.658H88.1892H89.8717V4.068H88.1892ZM88.1892 6.658H86.5066C86.5066 6.79955 86.4931 6.81543 86.5076 6.76316C86.5271 6.69251 86.591 6.52503 86.7577 6.36306C86.922 6.20334 87.0841 6.14858 87.1387 6.13434C87.178 6.12409 87.1498 6.13746 86.9992 6.13746V7.82V9.50254C87.5192 9.50254 88.4136 9.44606 89.1027 8.77644C89.8059 8.09317 89.8717 7.18908 89.8717 6.658H88.1892ZM86.9992 7.82V6.13746H84.5212V7.82V9.50254H86.9992V7.82ZM84.5212 7.82V6.13746C84.2866 6.13746 83.6224 6.16084 83.0812 6.70201C82.54 7.24319 82.5166 7.90742 82.5166 8.142H84.1992H85.8817C85.8817 8.16894 85.8808 8.28596 85.8361 8.44558C85.787 8.62072 85.6803 8.86183 85.4607 9.08149C85.241 9.30114 84.9999 9.40778 84.8248 9.45689C84.6651 9.50165 84.5481 9.50254 84.5212 9.50254V7.82ZM84.1992 8.142H82.5166V9.514H84.1992H85.8817V8.142H84.1992ZM84.1992 9.514H82.5166C82.5166 9.74858 82.54 10.4128 83.0812 10.954C83.6224 11.4952 84.2866 11.5185 84.5212 11.5185V9.836V8.15346C84.5481 8.15346 84.6652 8.15435 84.8248 8.19911C84.9999 8.24822 85.241 8.35486 85.4607 8.57451C85.6803 8.79417 85.787 9.03527 85.8361 9.21042C85.8808 9.37004 85.8817 9.48706 85.8817 9.514H84.1992ZM84.5212 9.836V11.5185C86.1201 11.5185 87.646 11.4469 89.0521 11.2503L88.8192 9.584L88.5863 7.91766C87.3884 8.0851 86.0303 8.15346 84.5212 8.15346V9.836ZM88.8192 9.584L89.0345 11.2527C88.7764 11.286 88.427 11.2063 88.1578 10.9449C87.9318 10.7253 87.8839 10.4978 87.8742 10.4072L89.5472 10.228L91.2202 10.0488C91.1684 9.56622 90.9736 8.98869 90.5026 8.53115C89.9884 8.03168 89.296 7.82599 88.6039 7.91529L88.8192 9.584ZM89.5472 10.228L87.873 10.3954C87.8721 10.3866 87.8693 10.3516 87.8775 10.2939C87.8855 10.2372 87.9077 10.1352 87.9721 10.0121C88.0393 9.88352 88.1504 9.7373 88.3187 9.61661C88.4892 9.49439 88.6667 9.43546 88.8133 9.41524L89.0432 11.082L89.2731 12.7488C90.0374 12.6433 90.6322 12.1871 90.9543 11.5709C91.2364 11.0313 91.2625 10.4718 91.2214 10.0606L89.5472 10.228ZM89.0432 11.082L88.8082 9.41595C87.8262 9.55444 86.3035 9.66546 83.6252 9.66546V11.348V13.0305C86.3788 13.0305 88.0762 12.9176 89.2781 12.7481L89.0432 11.082ZM83.6252 11.348V9.66546C83.4746 9.66546 83.4464 9.65209 83.4857 9.66234C83.5403 9.67658 83.7023 9.73134 83.8667 9.89106C84.0334 10.053 84.0972 10.2205 84.1168 10.2912C84.1312 10.3434 84.1177 10.3276 84.1177 10.186H82.4352H80.7526C80.7526 10.7171 80.8185 11.6212 81.5217 12.3044C82.2108 12.9741 83.1051 13.0305 83.6252 13.0305V11.348ZM82.4352 10.186H84.1177V7.526H82.4352H80.7526V10.186H82.4352ZM82.4352 7.526H84.1177C84.1177 7.38445 84.1312 7.36856 84.1168 7.42084C84.0972 7.49149 84.0334 7.65897 83.8667 7.82094C83.7023 7.98066 83.5403 8.03542 83.4857 8.04966C83.4464 8.05991 83.4746 8.04654 83.6252 8.04654V6.364V4.68146C83.1051 4.68146 82.2108 4.73794 81.5217 5.40756C80.8185 6.09083 80.7526 6.99492 80.7526 7.526H82.4352ZM83.6252 6.364V8.04654H86.1032V6.364V4.68146H83.6252V6.364ZM86.1032 6.364V8.04654C86.3378 8.04654 87.002 8.02316 87.5432 7.48199C88.0843 6.94081 88.1077 6.27657 88.1077 6.042H86.4252H84.7426C84.7426 6.01506 84.7435 5.89804 84.7883 5.73842C84.8374 5.56327 84.944 5.32217 85.1637 5.10251C85.3834 4.88286 85.6245 4.77622 85.7996 4.72711C85.9592 4.68235 86.0762 4.68146 86.1032 4.68146V6.364ZM86.4252 6.042H88.1077V4.74H86.4252H84.7426V6.042H86.4252ZM86.4252 4.74H88.1077C88.1077 4.50543 88.0844 3.84119 87.5432 3.30001C87.002 2.75884 86.3378 2.73546 86.1032 2.73546V4.418V6.10054C86.0762 6.10054 85.9592 6.09965 85.7996 6.05489C85.6245 6.00578 85.3834 5.89914 85.1637 5.67948C84.944 5.45983 84.8374 5.21872 84.7883 5.04358C84.7435 4.88396 84.7426 4.76694 84.7426 4.74H86.4252ZM90.8212 13.518H92.5037V7.68H90.8212H89.1386V13.518H90.8212ZM90.8212 7.68V5.99746H89.4772V7.68V9.36254H90.8212V7.68ZM89.4772 7.68V5.99746C89.5879 5.99746 89.7468 6.02021 89.9204 6.1042C90.0959 6.18911 90.2349 6.31192 90.3332 6.44298C90.515 6.68532 90.5157 6.88921 90.5157 6.91H88.8332H87.1506C87.1506 7.35079 87.2494 7.93968 87.6412 8.46202C88.0832 9.05142 88.7566 9.36254 89.4772 9.36254V7.68ZM88.8332 6.91H90.5157C90.5157 6.93079 90.515 7.13468 90.3332 7.37702C90.2349 7.50808 90.0959 7.63089 89.9204 7.7158C89.7468 7.79979 89.5879 7.82254 89.4772 7.82254V6.14V4.45746C88.7566 4.45746 88.0832 4.76858 87.6412 5.35798C87.2494 5.88032 87.1506 6.46921 87.1506 6.91H88.8332ZM89.4772 6.14V7.82254H90.8212V6.14V4.45746H89.4772V6.14ZM90.8212 6.14H92.5037V2.794H90.8212H89.1386V6.14H90.8212ZM90.8212 2.794H92.5037C92.5037 2.90535 92.4788 3.05556 92.399 3.21394C92.3199 3.37116 92.2105 3.4893 92.1032 3.56948C91.9063 3.71664 91.7472 3.72054 91.7172 3.72054V2.038V0.35546C91.2252 0.35546 90.6181 0.478356 90.0887 0.874017C89.5013 1.31303 89.1386 1.99962 89.1386 2.794H90.8212ZM91.7172 2.038V3.72054C91.6707 3.72054 91.5076 3.71205 91.3121 3.56434C91.2058 3.48405 91.0981 3.36663 91.0202 3.21118C90.9416 3.05441 90.9166 2.9054 90.9166 2.794H92.5992H94.2817C94.2817 2.00088 93.9205 1.31742 93.3403 0.879154C92.8157 0.482952 92.2117 0.35546 91.7172 0.35546V2.038ZM92.5992 2.794H90.9166V13.518H92.5992H94.2817V2.794H92.5992ZM92.5992 13.518H90.9166C90.9166 13.4066 90.9416 13.2576 91.0202 13.1008C91.0981 12.9454 91.2058 12.8279 91.3121 12.7477C91.5076 12.6 91.6707 12.5915 91.7172 12.5915V14.274V15.9565C92.2117 15.9565 92.8157 15.829 93.3403 15.4328C93.9205 14.9946 94.2817 14.3111 94.2817 13.518H92.5992ZM91.7172 14.274V12.5915C91.7472 12.5915 91.9063 12.5954 92.1032 12.7425C92.2105 12.8227 92.3199 12.9408 92.399 13.0981C92.4788 13.2564 92.5037 13.4066 92.5037 13.518H90.8212H89.1386C89.1386 14.3124 89.5013 14.999 90.0887 15.438C90.6181 15.8336 91.2252 15.9565 91.7172 15.9565V14.274ZM99.8534 4.67H98.1708V6.35254H99.8534V4.67ZM102.401 4.67V6.35254H104.084V4.67H102.401ZM102.401 6.126H104.084V4.44346H102.401V6.126ZM99.8534 6.126V4.44346H98.1708V6.126H99.8534ZM106.545 7.89H108.228V6.20746H106.545V7.89ZM106.545 6.364V8.04654H108.228V6.364H106.545ZM106.545 5.37H108.228V3.68746H106.545V5.37ZM106.545 3.844V5.52654H108.228V3.844H106.545ZM104.151 3.34H102.469V7.806H104.151H105.834V3.34H104.151ZM104.151 7.806H102.469C102.469 7.94755 102.455 7.96343 102.47 7.91116C102.489 7.84051 102.553 7.67303 102.72 7.51106C102.884 7.35134 103.046 7.29658 103.101 7.28234C103.14 7.27209 103.112 7.28546 102.961 7.28546V8.968V10.6505C103.481 10.6505 104.376 10.5941 105.065 9.92444C105.768 9.24117 105.834 8.33708 105.834 7.806H104.151ZM102.961 8.968V7.28546H99.2934V8.968V10.6505H102.961V8.968ZM99.2934 8.968V7.28546C99.1428 7.28546 99.1145 7.27209 99.1539 7.28234C99.2085 7.29658 99.3705 7.35134 99.5349 7.51106C99.7016 7.67303 99.7654 7.84051 99.785 7.91116C99.7994 7.96343 99.7859 7.94755 99.7859 7.806H98.1034H96.4208C96.4208 8.33708 96.4867 9.24117 97.1898 9.92444C97.879 10.5941 98.7733 10.6505 99.2934 10.6505V8.968ZM98.1034 7.806H99.7859V3.34H98.1034H96.4208V7.806H98.1034ZM98.1034 3.34H99.7859C99.7859 3.47348 99.7544 3.6351 99.6705 3.79623C99.5884 3.95408 99.4787 4.06813 99.3772 4.14349C99.1911 4.28156 99.0345 4.29454 98.9714 4.29454V2.612V0.92946C98.4742 0.92946 97.8837 1.06144 97.3721 1.44101C96.8093 1.85854 96.4208 2.52869 96.4208 3.34H98.1034ZM98.9714 2.612V4.29454C98.9249 4.29454 98.7724 4.28634 98.5848 4.1486C98.4822 4.07334 98.3709 3.95863 98.2875 3.79904C98.2024 3.63629 98.1708 3.47346 98.1708 3.34H99.8534H101.536C101.536 2.52725 101.146 1.85418 100.576 1.4359C100.059 1.05666 99.4659 0.92946 98.9714 0.92946V2.612ZM99.8534 3.34H98.1708V4.67H99.8534H101.536V3.34H99.8534ZM99.8534 4.67V6.35254H102.401V4.67V2.98746H99.8534V4.67ZM102.401 4.67H104.084V3.34H102.401H100.719V4.67H102.401ZM102.401 3.34H104.084C104.084 3.47348 104.052 3.6351 103.969 3.79623C103.886 3.95408 103.777 4.06813 103.675 4.14349C103.489 4.28156 103.333 4.29454 103.269 4.29454V2.612V0.92946C102.772 0.92946 102.182 1.06144 101.67 1.44101C101.107 1.85854 100.719 2.52869 100.719 3.34H102.401ZM103.269 2.612V4.29454C103.223 4.29454 103.07 4.28634 102.883 4.1486C102.78 4.07334 102.669 3.95863 102.585 3.79904C102.5 3.63629 102.469 3.47346 102.469 3.34H104.151H105.834C105.834 2.52725 105.444 1.85418 104.874 1.4359C104.357 1.05666 103.764 0.92946 103.269 0.92946V2.612ZM100.175 7.512V9.19454H102.079V7.512V5.82946H100.175V7.512ZM102.079 7.512V9.19454C102.314 9.19454 102.978 9.17116 103.519 8.62998C104.061 8.08881 104.084 7.42458 104.084 7.19H102.401H100.719C100.719 7.16306 100.72 7.04603 100.764 6.88642C100.814 6.71127 100.92 6.47017 101.14 6.25051C101.36 6.03086 101.601 5.92422 101.776 5.87511C101.935 5.83035 102.052 5.82946 102.079 5.82946V7.512ZM102.401 7.19H104.084V6.126H102.401H100.719V7.19H102.401ZM102.401 6.126V4.44346H99.8534V6.126V7.80854H102.401V6.126ZM99.8534 6.126H98.1708V7.19H99.8534H101.536V6.126H99.8534ZM99.8534 7.19H98.1708C98.1708 7.42458 98.1942 8.08881 98.7354 8.62998C99.2766 9.17116 99.9408 9.19454 100.175 9.19454V7.512V5.82946C100.202 5.82946 100.319 5.83035 100.479 5.87511C100.654 5.92422 100.895 6.03086 101.115 6.25051C101.335 6.47017 101.441 6.71127 101.49 6.88642C101.535 7.04603 101.536 7.16306 101.536 7.19H99.8534ZM108.309 2.794H106.627V9.08H108.309H109.992V2.794H108.309ZM108.309 9.08H106.627C106.627 8.9686 106.652 8.81959 106.73 8.66282C106.808 8.50737 106.916 8.38995 107.022 8.30965C107.218 8.16195 107.381 8.15346 107.427 8.15346V9.836V11.5185C107.922 11.5185 108.526 11.391 109.05 10.9948C109.631 10.5566 109.992 9.87312 109.992 9.08H108.309ZM107.427 9.836V8.15346C107.474 8.15346 107.637 8.16195 107.832 8.30965C107.939 8.38995 108.047 8.50737 108.124 8.66282C108.203 8.81959 108.228 8.9686 108.228 9.08H106.545H104.863C104.863 9.87312 105.224 10.5566 105.804 10.9948C106.329 11.391 106.933 11.5185 107.427 11.5185V9.836ZM106.545 9.08H108.228V7.89H106.545H104.863V9.08H106.545ZM106.545 7.89V6.20746H105.313V7.89V9.57254H106.545V7.89ZM105.313 7.89V6.20746C105.435 6.20746 105.607 6.23347 105.792 6.32637C105.977 6.41996 106.118 6.55241 106.213 6.68616C106.304 6.8135 106.344 6.92714 106.361 6.99484C106.379 7.06295 106.38 7.10702 106.38 7.12H104.697H103.015C103.015 7.5377 103.1 8.11644 103.472 8.63884C103.901 9.24 104.575 9.57254 105.313 9.57254V7.89ZM104.697 7.12H106.38C106.38 7.13454 106.382 7.33246 106.207 7.57423C106.111 7.70685 105.972 7.83713 105.788 7.9291C105.606 8.02052 105.436 8.04654 105.313 8.04654V6.364V4.68146C104.576 4.68146 103.906 5.0122 103.478 5.60527C103.104 6.12354 103.015 6.69946 103.015 7.12H104.697ZM105.313 6.364V8.04654H106.545V6.364V4.68146H105.313V6.364ZM106.545 6.364H108.228V5.37H106.545H104.863V6.364H106.545ZM106.545 5.37V3.68746H105.313V5.37V7.05254H106.545V5.37ZM105.313 5.37V3.68746C105.435 3.68746 105.607 3.71347 105.792 3.80637C105.977 3.89996 106.118 4.03241 106.213 4.16616C106.304 4.2935 106.344 4.40714 106.361 4.47484C106.379 4.54295 106.38 4.58702 106.38 4.6H104.697H103.015C103.015 5.0177 103.1 5.59644 103.472 6.11884C103.901 6.72 104.575 7.05254 105.313 7.05254V5.37ZM104.697 4.6H106.38C106.38 4.61454 106.382 4.81246 106.207 5.05423C106.111 5.18685 105.972 5.31713 105.788 5.4091C105.606 5.50052 105.436 5.52654 105.313 5.52654V3.844V2.16146C104.576 2.16146 103.906 2.4922 103.478 3.08527C103.104 3.60353 103.015 4.17946 103.015 4.6H104.697ZM105.313 3.844V5.52654H106.545V3.844V2.16146H105.313V3.844ZM106.545 3.844H108.228V2.794H106.545H104.863V3.844H106.545ZM106.545 2.794H108.228C108.228 2.9054 108.203 3.05441 108.124 3.21118C108.047 3.36663 107.939 3.48405 107.832 3.56435C107.637 3.71205 107.474 3.72054 107.427 3.72054V2.038V0.35546C106.933 0.35546 106.329 0.482952 105.804 0.879153C105.224 1.31742 104.863 2.00088 104.863 2.794H106.545ZM107.427 2.038V3.72054C107.381 3.72054 107.218 3.71205 107.022 3.56434C106.916 3.48405 106.808 3.36663 106.73 3.21118C106.652 3.05441 106.627 2.9054 106.627 2.794H108.309H109.992C109.992 2.00088 109.631 1.31742 109.05 0.879154C108.526 0.482952 107.922 0.35546 107.427 0.35546V2.038ZM99.8954 12.594H101.578C101.578 12.3015 101.657 12.169 101.899 12.021C102.25 11.8068 102.95 11.6025 104.123 11.6025V9.92V8.23746C102.665 8.23746 101.251 8.4742 100.146 9.14898C98.9319 9.89001 98.2128 11.0945 98.2128 12.594H99.8954ZM104.123 9.92V11.6025C105.297 11.6025 105.997 11.8068 106.348 12.021C106.59 12.169 106.669 12.3015 106.669 12.594H108.351H110.034C110.034 11.0945 109.315 9.89001 108.101 9.14898C106.996 8.4742 105.582 8.23746 104.123 8.23746V9.92ZM108.351 12.594H106.669C106.669 12.8865 106.59 13.019 106.348 13.167C105.997 13.3812 105.297 13.5855 104.123 13.5855V15.268V16.9505C105.582 16.9505 106.996 16.7138 108.101 16.039C109.315 15.298 110.034 14.0935 110.034 12.594H108.351ZM104.123 15.268V13.5855C102.95 13.5855 102.25 13.3812 101.899 13.167C101.657 13.019 101.578 12.8865 101.578 12.594H99.8954H98.2128C98.2128 14.0935 98.9319 15.298 100.146 16.039C101.251 16.7138 102.665 16.9505 104.123 16.9505V15.268ZM106.573 12.594H108.256C108.256 11.5772 107.722 10.7215 106.83 10.2235C106.067 9.79791 105.113 9.66546 104.123 9.66546V11.348V13.0305C104.489 13.0305 104.754 13.057 104.939 13.0918C105.127 13.1272 105.194 13.1643 105.19 13.162C105.177 13.1549 105.084 13.0975 105 12.9583C104.913 12.8154 104.891 12.6768 104.891 12.594H106.573ZM104.123 11.348V9.66546C103.133 9.66546 102.18 9.79791 101.417 10.2235C100.524 10.7215 99.9908 11.5772 99.9908 12.594H101.673H103.356C103.356 12.6768 103.334 12.8154 103.247 12.9583C103.163 13.0975 103.069 13.1549 103.057 13.162C103.053 13.1643 103.12 13.1272 103.308 13.0918C103.493 13.057 103.758 13.0305 104.123 13.0305V11.348ZM101.673 12.594H99.9908C99.9908 13.6108 100.524 14.4665 101.417 14.9645C102.18 15.3901 103.133 15.5225 104.123 15.5225V13.84V12.1575C103.758 12.1575 103.493 12.131 103.308 12.0962C103.12 12.0608 103.053 12.0237 103.057 12.026C103.069 12.0331 103.163 12.0905 103.247 12.2297C103.334 12.3726 103.356 12.5112 103.356 12.594H101.673ZM104.123 13.84V15.5225C105.113 15.5225 106.067 15.3901 106.83 14.9645C107.722 14.4665 108.256 13.6108 108.256 12.594H106.573H104.891C104.891 12.5112 104.913 12.3726 105 12.2297C105.084 12.0905 105.177 12.0331 105.19 12.026C105.194 12.0237 105.127 12.0608 104.939 12.0962C104.754 12.131 104.489 12.1575 104.123 12.1575V13.84ZM120.1 6.168H118.417V7.85054H120.1V6.168ZM120.1 7.722V6.03946H118.417V7.722H120.1ZM110.118 7.008H111.8C111.8 5.8197 112.051 5.19198 112.286 4.89154C112.466 4.66241 112.77 4.44854 113.478 4.44854V2.766V1.08346C111.959 1.08346 110.583 1.61159 109.639 2.81396C108.752 3.94502 108.435 5.4383 108.435 7.008H110.118ZM113.478 2.766V4.44854C114.185 4.44854 114.489 4.66241 114.669 4.89154C114.905 5.19198 115.155 5.8197 115.155 7.008H116.838H118.52C118.52 5.4383 118.204 3.94502 117.316 2.81396C116.372 1.61159 114.996 1.08346 113.478 1.08346V2.766ZM116.838 7.008H115.155C115.155 8.1963 114.905 8.82402 114.669 9.12446C114.489 9.35359 114.185 9.56746 113.478 9.56746V11.25V12.9325C114.996 12.9325 116.372 12.4044 117.316 11.202C118.204 10.071 118.52 8.5777 118.52 7.008H116.838ZM113.478 11.25V9.56746C112.77 9.56746 112.466 9.35359 112.286 9.12446C112.051 8.82402 111.8 8.1963 111.8 7.008H110.118H108.435C108.435 8.5777 108.752 10.071 109.639 11.202C110.583 12.4044 111.959 12.9325 113.478 12.9325V11.25ZM115.116 7.008H116.798C116.798 6.05918 116.695 5.01456 116.208 4.16529C115.943 3.70446 115.562 3.29503 115.045 3.01379C114.537 2.73736 113.994 2.63746 113.478 2.63746V4.32V6.00254C113.563 6.00254 113.526 6.01814 113.438 5.97009C113.396 5.94722 113.358 5.91836 113.329 5.88857C113.3 5.85982 113.289 5.83965 113.289 5.83971C113.293 5.84694 113.335 5.92755 113.372 6.13831C113.409 6.34565 113.433 6.62951 113.433 7.008H115.116ZM113.478 4.32V2.63746C112.961 2.63746 112.418 2.73736 111.91 3.01379C111.393 3.29503 111.012 3.70446 110.748 4.16529C110.26 5.01456 110.157 6.05918 110.157 7.008H111.84H113.522C113.522 6.62951 113.546 6.34565 113.583 6.13831C113.62 5.92755 113.662 5.84694 113.667 5.83971C113.667 5.83965 113.655 5.85982 113.626 5.88857C113.597 5.91836 113.559 5.94722 113.517 5.97009C113.429 6.01814 113.392 6.00254 113.478 6.00254V4.32ZM111.84 7.008H110.157C110.157 7.95682 110.26 9.00144 110.748 9.85071C111.012 10.3115 111.393 10.721 111.91 11.0022C112.418 11.2786 112.961 11.3785 113.478 11.3785V9.696V8.01346C113.392 8.01346 113.429 7.99786 113.517 8.04591C113.559 8.06878 113.597 8.09764 113.626 8.12743C113.655 8.15618 113.667 8.17635 113.667 8.17629C113.662 8.16906 113.62 8.08845 113.583 7.87769C113.546 7.67035 113.522 7.38649 113.522 7.008H111.84ZM113.478 9.696V11.3785C113.994 11.3785 114.537 11.2786 115.045 11.0022C115.562 10.721 115.943 10.3115 116.208 9.85071C116.695 9.00144 116.798 7.95682 116.798 7.008H115.116H113.433C113.433 7.38649 113.409 7.67035 113.372 7.87769C113.335 8.08845 113.293 8.16906 113.289 8.17629C113.289 8.17635 113.3 8.15618 113.329 8.12743C113.358 8.09764 113.396 8.06878 113.438 8.04591C113.526 7.99786 113.563 8.01346 113.478 8.01346V9.696ZM120.1 6.168V7.85054H121.416V6.168V4.48546H120.1V6.168ZM121.416 6.168V7.85054C121.305 7.85054 121.146 7.82779 120.972 7.7438C120.797 7.65889 120.658 7.53608 120.56 7.40502C120.378 7.16268 120.377 6.95879 120.377 6.938H122.06H123.742C123.742 6.49721 123.643 5.90832 123.252 5.38598C122.81 4.79658 122.136 4.48546 121.416 4.48546V6.168ZM122.06 6.938H120.377C120.377 6.93422 120.373 6.73446 120.554 6.49126C120.652 6.35896 120.791 6.23403 120.969 6.14758C121.145 6.06219 121.305 6.03946 121.416 6.03946V7.722V9.40454C122.138 9.40454 122.815 9.09183 123.258 8.49424C123.648 7.96754 123.742 7.37578 123.742 6.938H122.06ZM121.416 7.722V6.03946H120.1V7.722V9.40454H121.416V7.722ZM120.1 7.722H118.417V13.518H120.1H121.782V7.722H120.1ZM120.1 13.518H118.417C118.417 13.4066 118.442 13.2564 118.522 13.0981C118.601 12.9408 118.71 12.8227 118.818 12.7425C119.014 12.5954 119.174 12.5915 119.204 12.5915V14.274V15.9565C119.696 15.9565 120.303 15.8336 120.832 15.438C121.419 14.999 121.782 14.3124 121.782 13.518H120.1ZM119.204 14.274V12.5915C119.234 12.5915 119.393 12.5954 119.59 12.7425C119.697 12.8227 119.806 12.9408 119.885 13.0981C119.965 13.2564 119.99 13.4066 119.99 13.518H118.308H116.625C116.625 14.3124 116.988 14.999 117.575 15.438C118.104 15.8336 118.712 15.9565 119.204 15.9565V14.274ZM118.308 13.518H119.99V2.794H118.308H116.625V13.518H118.308ZM118.308 2.794H119.99C119.99 2.90535 119.965 3.05556 119.885 3.21394C119.806 3.37116 119.697 3.4893 119.59 3.56948C119.393 3.71664 119.234 3.72054 119.204 3.72054V2.038V0.35546C118.712 0.35546 118.104 0.478357 117.575 0.874017C116.988 1.31303 116.625 1.99962 116.625 2.794H118.308ZM119.204 2.038V3.72054C119.174 3.72054 119.014 3.71664 118.818 3.56948C118.71 3.4893 118.601 3.37116 118.522 3.21394C118.442 3.05556 118.417 2.90535 118.417 2.794H120.1H121.782C121.782 1.99962 121.419 1.31303 120.832 0.874017C120.303 0.478357 119.696 0.35546 119.204 0.35546V2.038ZM120.1 2.794H118.417V6.168H120.1H121.782V2.794H120.1ZM129.818 9.584L129.602 7.91527L129.594 7.91637L129.818 9.584ZM130.546 10.228L132.22 10.0606L132.219 10.0488L130.546 10.228ZM130.042 11.082L130.265 12.7496L130.272 12.7488L130.042 11.082ZM127.074 4.404V2.72146H123.798V4.404V6.08654H127.074V4.404ZM123.798 4.404V2.72146C123.92 2.72146 124.085 2.74746 124.26 2.83393C124.436 2.92067 124.573 3.04377 124.668 3.17146C124.845 3.40812 124.85 3.60949 124.85 3.648H123.168H121.485C121.485 4.09251 121.589 4.67188 121.972 5.18504C122.403 5.76163 123.066 6.08654 123.798 6.08654V4.404ZM123.168 3.648H124.85C124.85 3.68651 124.845 3.88788 124.668 4.12454C124.573 4.25223 124.436 4.37533 124.26 4.46207C124.085 4.54854 123.92 4.57454 123.798 4.57454V2.892V1.20946C123.066 1.20946 122.403 1.53437 121.972 2.11096C121.589 2.62412 121.485 3.20349 121.485 3.648H123.168ZM123.798 2.892V4.57454H127.97V2.892V1.20946H123.798V2.892ZM127.97 2.892V4.57454C128.12 4.57454 128.149 4.58791 128.109 4.57766C128.055 4.56342 127.893 4.50866 127.728 4.34894C127.562 4.18697 127.498 4.01949 127.478 3.94884C127.464 3.89656 127.477 3.91245 127.477 4.054H129.16H130.842C130.842 3.52291 130.776 2.61883 130.073 1.93556C129.384 1.26594 128.49 1.20946 127.97 1.20946V2.892ZM129.16 4.054H127.477V6.658H129.16H130.842V4.054H129.16ZM129.16 6.658H127.477C127.477 6.79955 127.464 6.81543 127.478 6.76316C127.498 6.69251 127.562 6.52503 127.728 6.36306C127.893 6.20334 128.055 6.14858 128.109 6.13434C128.149 6.12409 128.12 6.13746 127.97 6.13746V7.82V9.50254C128.49 9.50254 129.384 9.44606 130.073 8.77644C130.776 8.09317 130.842 7.18909 130.842 6.658H129.16ZM127.97 7.82V6.13746H125.268V7.82V9.50254H127.97V7.82ZM125.268 7.82V6.13746C125.033 6.13746 124.369 6.16084 123.828 6.70201C123.287 7.24319 123.263 7.90742 123.263 8.142H124.946H126.628C126.628 8.16894 126.627 8.28596 126.583 8.44558C126.534 8.62072 126.427 8.86183 126.207 9.08149C125.988 9.30114 125.746 9.40778 125.571 9.45689C125.412 9.50165 125.295 9.50254 125.268 9.50254V7.82ZM124.946 8.142H123.263V9.528H124.946H126.628V8.142H124.946ZM124.946 9.528H123.263C123.263 9.76258 123.287 10.4268 123.828 10.968C124.369 11.5092 125.033 11.5325 125.268 11.5325V9.85V8.16746C125.295 8.16746 125.412 8.16835 125.571 8.21311C125.746 8.26222 125.988 8.36886 126.207 8.58851C126.427 8.80817 126.534 9.04927 126.583 9.22442C126.627 9.38404 126.628 9.50106 126.628 9.528H124.946ZM125.268 9.85V11.5325C127.073 11.5325 128.592 11.4459 130.041 11.2516L129.818 9.584L129.594 7.91637C128.328 8.08612 126.963 8.16746 125.268 8.16746V9.85ZM129.818 9.584L130.033 11.2527C129.775 11.286 129.426 11.2063 129.156 10.9449C128.93 10.7253 128.882 10.4978 128.873 10.4072L130.546 10.228L132.219 10.0488C132.167 9.56623 131.972 8.9887 131.501 8.53115C130.987 8.03168 130.295 7.82599 129.602 7.91529L129.818 9.584ZM130.546 10.228L128.872 10.3954C128.871 10.3866 128.868 10.3516 128.876 10.2939C128.884 10.2372 128.906 10.1352 128.971 10.0121C129.038 9.88352 129.149 9.7373 129.317 9.61661C129.488 9.49439 129.665 9.43546 129.812 9.41524L130.042 11.082L130.272 12.7488C131.036 12.6433 131.631 12.1871 131.953 11.5709C132.235 11.0313 132.261 10.4718 132.22 10.0606L130.546 10.228ZM130.042 11.082L129.818 9.4144C128.767 9.55544 127.236 9.67946 124.372 9.67946V11.362V13.0445C127.332 13.0445 129.021 12.9166 130.265 12.7496L130.042 11.082ZM124.372 11.362V9.67946C124.221 9.67946 124.193 9.66609 124.232 9.67634C124.287 9.69058 124.449 9.74534 124.613 9.90506C124.78 10.067 124.844 10.2345 124.863 10.3052C124.878 10.3574 124.864 10.3416 124.864 10.2H123.182H121.499C121.499 10.7311 121.565 11.6352 122.268 12.3184C122.957 12.9881 123.852 13.0445 124.372 13.0445V11.362ZM123.182 10.2H124.864V7.526H123.182H121.499V10.2H123.182ZM123.182 7.526H124.864C124.864 7.38445 124.878 7.36856 124.863 7.42084C124.844 7.49149 124.78 7.65897 124.613 7.82094C124.449 7.98066 124.287 8.03542 124.232 8.04966C124.193 8.05991 124.221 8.04654 124.372 8.04654V6.364V4.68146C123.852 4.68146 122.957 4.73794 122.268 5.40756C121.565 6.09083 121.499 6.99492 121.499 7.526H123.182ZM124.372 6.364V8.04654H127.074V6.364V4.68146H124.372V6.364ZM127.074 6.364V8.04654C127.308 8.04654 127.973 8.02316 128.514 7.48199C129.055 6.94081 129.078 6.27658 129.078 6.042H127.396H125.713C125.713 6.01506 125.714 5.89803 125.759 5.73842C125.808 5.56327 125.915 5.32217 126.134 5.10251C126.354 4.88286 126.595 4.77622 126.77 4.72711C126.93 4.68235 127.047 4.68146 127.074 4.68146V6.364ZM127.396 6.042H129.078V4.726H127.396H125.713V6.042H127.396ZM127.396 4.726H129.078C129.078 4.49142 129.055 3.82719 128.514 3.28601C127.973 2.74484 127.308 2.72146 127.074 2.72146V4.404V6.08654C127.047 6.08654 126.93 6.08565 126.77 6.04089C126.595 5.99178 126.354 5.88514 126.134 5.66549C125.915 5.44583 125.808 5.20473 125.759 5.02958C125.714 4.86996 125.713 4.75294 125.713 4.726H127.396ZM133.178 2.794H131.495V13.518H133.178H134.86V2.794H133.178ZM133.178 13.518H131.495C131.495 13.4067 131.52 13.2553 131.601 13.0953C131.681 12.9363 131.793 12.8175 131.901 12.7375C132.099 12.591 132.254 12.5915 132.268 12.5915V14.274V15.9565C132.758 15.9565 133.368 15.838 133.902 15.443C134.496 15.0033 134.86 14.3137 134.86 13.518H133.178ZM132.268 14.274V12.5915C132.298 12.5915 132.457 12.5954 132.654 12.7425C132.761 12.8227 132.87 12.9408 132.95 13.0981C133.029 13.2564 133.054 13.4066 133.054 13.518H131.372H129.689C129.689 14.3124 130.052 14.999 130.639 15.438C131.169 15.8336 131.776 15.9565 132.268 15.9565V14.274ZM131.372 13.518H133.054V2.794H131.372H129.689V13.518H131.372ZM131.372 2.794H133.054C133.054 2.90535 133.029 3.05556 132.95 3.21394C132.87 3.37116 132.761 3.4893 132.654 3.56948C132.457 3.71664 132.298 3.72054 132.268 3.72054V2.038V0.35546C131.776 0.35546 131.169 0.478357 130.639 0.874017C130.052 1.31303 129.689 1.99962 129.689 2.794H131.372ZM132.268 2.038V3.72054C132.254 3.72054 132.099 3.72095 131.901 3.57451C131.793 3.49448 131.681 3.37568 131.601 3.21669C131.52 3.05672 131.495 2.9053 131.495 2.794H133.178H134.86C134.86 1.99833 134.496 1.30865 133.902 0.868984C133.368 0.474044 132.758 0.35546 132.268 0.35546V2.038Z" fill="#FFFBEB" mask="url(#path-1-outside-1_21_6216)"/>
</g>
<defs>
<filter id="filter0_d_21_6216" x="0.0175781" y="0.0756836" width="136.843" height="20.875" filterUnits="userSpaceOnUse" color-interpolation-filters="sRGB">
<feFlood flood-opacity="0" result="BackgroundImageFix"/>
<feColorMatrix in="SourceAlpha" type="matrix" values="0 0 0 0 0 0 0 0 0 0 0 0 0 0 0 0 0 0 127 0" result="hardAlpha"/>
<feOffset dy="2"/>
<feGaussianBlur stdDeviation="1"/>
<feComposite in2="hardAlpha" operator="out"/>
<feColorMatrix type="matrix" values="0 0 0 0 0.580392 0 0 0 0 0.439216 0 0 0 0 0.368627 0 0 0 0.25 0"/>
<feBlend mode="normal" in2="BackgroundImageFix" result="effect1_dropShadow_21_6216"/>
<feBlend mode="normal" in="SourceGraphic" in2="effect1_dropShadow_21_6216" result="shape"/>
</filter>
</defs>
</svg>
