<svg width="158" height="27" viewBox="0 0 158 27" fill="none" xmlns="http://www.w3.org/2000/svg">
<g filter="url(#filter0_d_24_8523)">
<mask id="path-1-outside-1_24_8523" maskUnits="userSpaceOnUse" x="2" y="0" width="154" height="24" fill="black">
<rect fill="white" x="2" width="154" height="24"/>
<path d="M10.1775 5.9H5.4975C4.8775 5.9 4.5975 5.4 4.5975 4.82C4.5975 4.22 4.8775 3.72 5.4975 3.72H11.4775C12.7575 3.72 13.1775 4.12 13.1775 5.38V7.56C13.1775 10.94 12.2575 12.1 6.2175 15.82C5.6575 16.16 4.9775 15.86 4.6575 15.38C4.3375 14.9 4.2775 14.14 4.8575 13.78C10.2975 10.46 10.6375 9.86 10.6375 7.48V6.36C10.6375 6.02 10.5175 5.9 10.1775 5.9ZM18.4975 8.24H20.3775C21.0175 8.24 21.2975 8.74 21.2975 9.34C21.2975 9.96 21.0175 10.46 20.3775 10.46H18.4975V18.74C18.4975 19.48 17.8775 19.82 17.2175 19.82C16.5575 19.82 15.9375 19.48 15.9375 18.74V3.42C15.9375 2.68 16.5575 2.34 17.2175 2.34C17.8775 2.34 18.4975 2.68 18.4975 3.42V8.24ZM28.8606 4.06V5.78C28.8606 6.98 29.1806 7.78 30.0406 8.52C30.9206 9.26 31.6806 9.86 32.2806 10.3C32.8406 10.7 32.8006 11.34 32.4406 11.84C32.1406 12.26 31.4806 12.58 30.8806 12.16C30.4006 11.82 29.6606 11.24 28.8806 10.58C27.9406 9.8 27.7006 9.48 27.6006 9.1H27.5806C27.4806 9.54 27.1806 9.94 26.2406 10.72C25.4606 11.38 24.7206 11.96 23.9406 12.52C23.3606 12.94 22.6806 12.62 22.3806 12.2C22.0406 11.72 21.9406 11.02 22.5606 10.58C23.4406 9.94 24.2006 9.34 25.0806 8.6C25.9406 7.86 26.2606 7.06 26.2606 5.86V4.06C26.2606 3.3 26.8806 2.96 27.5606 2.96C28.2406 2.96 28.8606 3.3 28.8606 4.06ZM34.7606 8.08H32.2606C31.6406 8.08 31.3606 7.58 31.3606 7C31.3606 6.4 31.6406 5.9 32.2606 5.9H34.7606V3.42C34.7606 2.68 35.3806 2.34 36.0406 2.34C36.6806 2.34 37.3006 2.68 37.3006 3.42V12.28C37.3006 13.02 36.6806 13.36 36.0406 13.36C35.3806 13.36 34.7606 13.02 34.7606 12.28V8.08ZM25.2806 17.36C25.2806 14.76 27.5606 13.48 31.3206 13.48C35.0806 13.48 37.3606 14.76 37.3606 17.36C37.3606 19.96 35.0806 21.24 31.3206 21.24C27.5606 21.24 25.2806 19.96 25.2806 17.36ZM34.8206 17.36C34.8206 16.26 33.8406 15.52 31.3206 15.52C28.8006 15.52 27.8206 16.26 27.8206 17.36C27.8206 18.46 28.8006 19.2 31.3206 19.2C33.8406 19.2 34.8206 18.46 34.8206 17.36ZM43.1838 4.56V7.68H47.0638V4.56C47.0638 3.84 47.6838 3.5 48.3238 3.5C48.9638 3.5 49.5838 3.84 49.5838 4.56V13.6C49.5838 14.86 49.1638 15.26 47.8838 15.26H42.3638C41.0838 15.26 40.6638 14.86 40.6638 13.6V4.56C40.6638 3.84 41.2838 3.5 41.9238 3.5C42.5638 3.5 43.1838 3.84 43.1838 4.56ZM43.6438 13.12H46.6038C46.9438 13.12 47.0638 13 47.0638 12.66V9.82H43.1838V12.66C43.1838 13 43.3038 13.12 43.6438 13.12ZM55.0038 3.42V18.74C55.0038 19.48 54.3838 19.82 53.7038 19.82C53.0438 19.82 52.4238 19.48 52.4238 18.74V3.42C52.4238 2.68 53.0438 2.34 53.7038 2.34C54.3838 2.34 55.0038 2.68 55.0038 3.42ZM71.7069 5.52H68.9269V6.02C68.9269 7.24 69.2669 8 70.1269 8.72C71.0069 9.44 71.7869 10.02 72.3669 10.44C72.9269 10.84 72.9069 11.48 72.5469 11.98C72.2469 12.38 71.6269 12.74 70.9869 12.3C70.5269 11.98 69.8269 11.44 69.0269 10.8C68.0669 10.02 67.7869 9.68 67.6869 9.3H67.6669C67.5669 9.74 67.2269 10.16 66.2669 10.94C65.4669 11.58 64.7469 12.12 63.9469 12.68C63.3669 13.1 62.7069 12.76 62.4069 12.34C62.0669 11.86 62.0069 11.16 62.6069 10.74C63.5069 10.1 64.2869 9.52 65.1669 8.8C66.0269 8.08 66.3669 7.32 66.3669 6.1V5.52H63.3869C62.7669 5.52 62.4869 5.02 62.4869 4.44C62.4869 3.86 62.7669 3.36 63.3869 3.36H71.7069C72.3269 3.36 72.6069 3.86 72.6069 4.44C72.6069 5.02 72.3269 5.52 71.7069 5.52ZM76.5869 6.64H78.4669C79.1069 6.64 79.3869 7.14 79.3869 7.74C79.3869 8.36 79.1069 8.86 78.4669 8.86H76.5869V12.28C76.5869 13.02 75.9669 13.36 75.3069 13.36C74.6469 13.36 74.0269 13.02 74.0269 12.28V3.42C74.0269 2.68 74.6469 2.34 75.3069 2.34C75.9669 2.34 76.5869 2.68 76.5869 3.42V6.64ZM64.8469 17.36C64.8469 14.76 67.0669 13.48 70.7469 13.48C74.4269 13.48 76.6469 14.76 76.6469 17.36C76.6469 19.96 74.4269 21.24 70.7469 21.24C67.0669 21.24 64.8469 19.96 64.8469 17.36ZM74.1069 17.36C74.1069 16.26 73.1869 15.52 70.7469 15.52C68.3069 15.52 67.3869 16.26 67.3869 17.36C67.3869 18.46 68.3069 19.2 70.7469 19.2C73.1869 19.2 74.1069 18.46 74.1069 17.36ZM80.55 8C80.55 5.26 82.17 3.24 85.35 3.24C88.53 3.24 90.15 5.26 90.15 8C90.15 10.74 88.53 12.76 85.35 12.76C82.17 12.76 80.55 10.74 80.55 8ZM87.71 8C87.71 6.56 87.07 5.38 85.35 5.38C83.63 5.38 82.99 6.56 82.99 8C82.99 9.44 83.63 10.62 85.35 10.62C87.07 10.62 87.71 9.44 87.71 8ZM95.27 3.42V14.9C95.27 15.64 94.65 15.98 93.99 15.98C93.33 15.98 92.71 15.64 92.71 14.9V3.42C92.71 2.68 93.33 2.34 93.99 2.34C94.65 2.34 95.27 2.68 95.27 3.42ZM94.81 20.74H84.93C83.65 20.74 83.23 20.34 83.23 19.08V15.3C83.23 14.56 83.85 14.22 84.53 14.22C85.19 14.22 85.81 14.56 85.81 15.3V18.1C85.81 18.44 85.93 18.56 86.27 18.56H94.81C95.43 18.56 95.71 19.06 95.71 19.66C95.71 20.24 95.43 20.74 94.81 20.74ZM108.693 9.56C105.453 9.56 103.813 8.2 103.813 6.1C103.813 4 105.453 2.64 108.693 2.64C111.933 2.64 113.573 4 113.573 6.1C113.573 8.2 111.933 9.56 108.693 9.56ZM108.693 7.56C110.393 7.56 111.173 7 111.173 6.1C111.173 5.2 110.393 4.64 108.693 4.64C106.993 4.64 106.213 5.2 106.213 6.1C106.213 7 106.993 7.56 108.693 7.56ZM115.533 15.5V15.08H112.833C112.253 15.08 111.973 14.62 111.973 14.06C111.973 13.5 112.253 13.04 112.833 13.04H115.533V3.42C115.533 2.68 116.153 2.34 116.813 2.34C117.453 2.34 118.073 2.68 118.073 3.42V15.5C118.073 16.24 117.453 16.58 116.813 16.58C116.153 16.58 115.533 16.24 115.533 15.5ZM103.493 12.64C102.893 12.64 102.613 12.16 102.613 11.58C102.613 11 102.893 10.52 103.493 10.52C106.713 10.52 110.413 10.46 113.773 10.06C114.393 9.98 114.713 10.42 114.753 11C114.793 11.56 114.573 12.06 113.973 12.14C112.813 12.3 111.353 12.42 109.793 12.5V14.44C109.793 15.12 109.233 15.42 108.513 15.42C107.813 15.42 107.253 15.12 107.253 14.44V12.6C105.993 12.64 104.713 12.64 103.493 12.64ZM108.493 18.62H117.613C118.233 18.62 118.513 19.12 118.513 19.7C118.513 20.28 118.233 20.78 117.613 20.78H107.153C105.873 20.78 105.453 20.38 105.453 19.12V16.78C105.453 16.04 106.073 15.7 106.753 15.7C107.413 15.7 108.033 16.04 108.033 16.78V18.16C108.033 18.5 108.153 18.62 108.493 18.62ZM122.376 17.78C122.376 15.6 124.236 14.5 127.416 14.28V12.92H121.096C120.496 12.92 120.216 12.44 120.216 11.86C120.216 11.28 120.496 10.8 121.096 10.8H136.256C136.856 10.8 137.136 11.28 137.136 11.86C137.136 12.44 136.856 12.92 136.256 12.92H129.936V14.28C133.096 14.5 134.976 15.6 134.976 17.78C134.976 20.24 132.596 21.32 128.676 21.32C124.756 21.32 122.376 20.24 122.376 17.78ZM129.976 3.7V4.22C129.976 5.3 130.656 5.88 131.936 6.44C133.136 6.96 134.096 7.36 135.236 7.78C135.716 7.96 135.816 8.66 135.616 9.18C135.416 9.7 134.816 10.04 134.276 9.84C133.396 9.52 132.256 9.06 131.316 8.66C129.416 7.86 128.816 7.3 128.696 6.82H128.676C128.536 7.38 127.936 7.92 126.036 8.72C125.096 9.12 124.056 9.54 123.136 9.88C122.496 10.12 121.956 9.76 121.736 9.22C121.516 8.72 121.576 7.98 122.116 7.78C123.256 7.36 124.216 6.96 125.416 6.44C126.696 5.88 127.376 5.3 127.376 4.22V3.7C127.376 2.94 127.996 2.6 128.676 2.6C129.356 2.6 129.976 2.94 129.976 3.7ZM132.436 17.78C132.436 16.82 131.356 16.26 128.676 16.26C125.996 16.26 124.916 16.82 124.916 17.78C124.916 18.74 125.996 19.3 128.676 19.3C131.356 19.3 132.436 18.74 132.436 17.78ZM138.639 9.44C138.639 5.5 140.259 3.36 143.459 3.36C146.659 3.36 148.279 5.5 148.279 9.44C148.279 13.38 146.659 15.52 143.459 15.52C140.259 15.52 138.639 13.38 138.639 9.44ZM145.819 9.44C145.819 6.92 145.199 5.58 143.459 5.58C141.719 5.58 141.099 6.92 141.099 9.44C141.099 11.96 141.719 13.3 143.459 13.3C145.199 13.3 145.819 11.96 145.819 9.44ZM153.359 3.42V18.74C153.359 19.48 152.739 19.82 152.059 19.82C151.399 19.82 150.779 19.48 150.779 18.74V3.42C150.779 2.68 151.399 2.34 152.059 2.34C152.739 2.34 153.359 2.68 153.359 3.42Z"/>
</mask>
<path d="M10.1775 5.9H5.4975C4.8775 5.9 4.5975 5.4 4.5975 4.82C4.5975 4.22 4.8775 3.72 5.4975 3.72H11.4775C12.7575 3.72 13.1775 4.12 13.1775 5.38V7.56C13.1775 10.94 12.2575 12.1 6.2175 15.82C5.6575 16.16 4.9775 15.86 4.6575 15.38C4.3375 14.9 4.2775 14.14 4.8575 13.78C10.2975 10.46 10.6375 9.86 10.6375 7.48V6.36C10.6375 6.02 10.5175 5.9 10.1775 5.9ZM18.4975 8.24H20.3775C21.0175 8.24 21.2975 8.74 21.2975 9.34C21.2975 9.96 21.0175 10.46 20.3775 10.46H18.4975V18.74C18.4975 19.48 17.8775 19.82 17.2175 19.82C16.5575 19.82 15.9375 19.48 15.9375 18.74V3.42C15.9375 2.68 16.5575 2.34 17.2175 2.34C17.8775 2.34 18.4975 2.68 18.4975 3.42V8.24ZM28.8606 4.06V5.78C28.8606 6.98 29.1806 7.78 30.0406 8.52C30.9206 9.26 31.6806 9.86 32.2806 10.3C32.8406 10.7 32.8006 11.34 32.4406 11.84C32.1406 12.26 31.4806 12.58 30.8806 12.16C30.4006 11.82 29.6606 11.24 28.8806 10.58C27.9406 9.8 27.7006 9.48 27.6006 9.1H27.5806C27.4806 9.54 27.1806 9.94 26.2406 10.72C25.4606 11.38 24.7206 11.96 23.9406 12.52C23.3606 12.94 22.6806 12.62 22.3806 12.2C22.0406 11.72 21.9406 11.02 22.5606 10.58C23.4406 9.94 24.2006 9.34 25.0806 8.6C25.9406 7.86 26.2606 7.06 26.2606 5.86V4.06C26.2606 3.3 26.8806 2.96 27.5606 2.96C28.2406 2.96 28.8606 3.3 28.8606 4.06ZM34.7606 8.08H32.2606C31.6406 8.08 31.3606 7.58 31.3606 7C31.3606 6.4 31.6406 5.9 32.2606 5.9H34.7606V3.42C34.7606 2.68 35.3806 2.34 36.0406 2.34C36.6806 2.34 37.3006 2.68 37.3006 3.42V12.28C37.3006 13.02 36.6806 13.36 36.0406 13.36C35.3806 13.36 34.7606 13.02 34.7606 12.28V8.08ZM25.2806 17.36C25.2806 14.76 27.5606 13.48 31.3206 13.48C35.0806 13.48 37.3606 14.76 37.3606 17.36C37.3606 19.96 35.0806 21.24 31.3206 21.24C27.5606 21.24 25.2806 19.96 25.2806 17.36ZM34.8206 17.36C34.8206 16.26 33.8406 15.52 31.3206 15.52C28.8006 15.52 27.8206 16.26 27.8206 17.36C27.8206 18.46 28.8006 19.2 31.3206 19.2C33.8406 19.2 34.8206 18.46 34.8206 17.36ZM43.1838 4.56V7.68H47.0638V4.56C47.0638 3.84 47.6838 3.5 48.3238 3.5C48.9638 3.5 49.5838 3.84 49.5838 4.56V13.6C49.5838 14.86 49.1638 15.26 47.8838 15.26H42.3638C41.0838 15.26 40.6638 14.86 40.6638 13.6V4.56C40.6638 3.84 41.2838 3.5 41.9238 3.5C42.5638 3.5 43.1838 3.84 43.1838 4.56ZM43.6438 13.12H46.6038C46.9438 13.12 47.0638 13 47.0638 12.66V9.82H43.1838V12.66C43.1838 13 43.3038 13.12 43.6438 13.12ZM55.0038 3.42V18.74C55.0038 19.48 54.3838 19.82 53.7038 19.82C53.0438 19.82 52.4238 19.48 52.4238 18.74V3.42C52.4238 2.68 53.0438 2.34 53.7038 2.34C54.3838 2.34 55.0038 2.68 55.0038 3.42ZM71.7069 5.52H68.9269V6.02C68.9269 7.24 69.2669 8 70.1269 8.72C71.0069 9.44 71.7869 10.02 72.3669 10.44C72.9269 10.84 72.9069 11.48 72.5469 11.98C72.2469 12.38 71.6269 12.74 70.9869 12.3C70.5269 11.98 69.8269 11.44 69.0269 10.8C68.0669 10.02 67.7869 9.68 67.6869 9.3H67.6669C67.5669 9.74 67.2269 10.16 66.2669 10.94C65.4669 11.58 64.7469 12.12 63.9469 12.68C63.3669 13.1 62.7069 12.76 62.4069 12.34C62.0669 11.86 62.0069 11.16 62.6069 10.74C63.5069 10.1 64.2869 9.52 65.1669 8.8C66.0269 8.08 66.3669 7.32 66.3669 6.1V5.52H63.3869C62.7669 5.52 62.4869 5.02 62.4869 4.44C62.4869 3.86 62.7669 3.36 63.3869 3.36H71.7069C72.3269 3.36 72.6069 3.86 72.6069 4.44C72.6069 5.02 72.3269 5.52 71.7069 5.52ZM76.5869 6.64H78.4669C79.1069 6.64 79.3869 7.14 79.3869 7.74C79.3869 8.36 79.1069 8.86 78.4669 8.86H76.5869V12.28C76.5869 13.02 75.9669 13.36 75.3069 13.36C74.6469 13.36 74.0269 13.02 74.0269 12.28V3.42C74.0269 2.68 74.6469 2.34 75.3069 2.34C75.9669 2.34 76.5869 2.68 76.5869 3.42V6.64ZM64.8469 17.36C64.8469 14.76 67.0669 13.48 70.7469 13.48C74.4269 13.48 76.6469 14.76 76.6469 17.36C76.6469 19.96 74.4269 21.24 70.7469 21.24C67.0669 21.24 64.8469 19.96 64.8469 17.36ZM74.1069 17.36C74.1069 16.26 73.1869 15.52 70.7469 15.52C68.3069 15.52 67.3869 16.26 67.3869 17.36C67.3869 18.46 68.3069 19.2 70.7469 19.2C73.1869 19.2 74.1069 18.46 74.1069 17.36ZM80.55 8C80.55 5.26 82.17 3.24 85.35 3.24C88.53 3.24 90.15 5.26 90.15 8C90.15 10.74 88.53 12.76 85.35 12.76C82.17 12.76 80.55 10.74 80.55 8ZM87.71 8C87.71 6.56 87.07 5.38 85.35 5.38C83.63 5.38 82.99 6.56 82.99 8C82.99 9.44 83.63 10.62 85.35 10.62C87.07 10.62 87.71 9.44 87.71 8ZM95.27 3.42V14.9C95.27 15.64 94.65 15.98 93.99 15.98C93.33 15.98 92.71 15.64 92.71 14.9V3.42C92.71 2.68 93.33 2.34 93.99 2.34C94.65 2.34 95.27 2.68 95.27 3.42ZM94.81 20.74H84.93C83.65 20.74 83.23 20.34 83.23 19.08V15.3C83.23 14.56 83.85 14.22 84.53 14.22C85.19 14.22 85.81 14.56 85.81 15.3V18.1C85.81 18.44 85.93 18.56 86.27 18.56H94.81C95.43 18.56 95.71 19.06 95.71 19.66C95.71 20.24 95.43 20.74 94.81 20.74ZM108.693 9.56C105.453 9.56 103.813 8.2 103.813 6.1C103.813 4 105.453 2.64 108.693 2.64C111.933 2.64 113.573 4 113.573 6.1C113.573 8.2 111.933 9.56 108.693 9.56ZM108.693 7.56C110.393 7.56 111.173 7 111.173 6.1C111.173 5.2 110.393 4.64 108.693 4.64C106.993 4.64 106.213 5.2 106.213 6.1C106.213 7 106.993 7.56 108.693 7.56ZM115.533 15.5V15.08H112.833C112.253 15.08 111.973 14.62 111.973 14.06C111.973 13.5 112.253 13.04 112.833 13.04H115.533V3.42C115.533 2.68 116.153 2.34 116.813 2.34C117.453 2.34 118.073 2.68 118.073 3.42V15.5C118.073 16.24 117.453 16.58 116.813 16.58C116.153 16.58 115.533 16.24 115.533 15.5ZM103.493 12.64C102.893 12.64 102.613 12.16 102.613 11.58C102.613 11 102.893 10.52 103.493 10.52C106.713 10.52 110.413 10.46 113.773 10.06C114.393 9.98 114.713 10.42 114.753 11C114.793 11.56 114.573 12.06 113.973 12.14C112.813 12.3 111.353 12.42 109.793 12.5V14.44C109.793 15.12 109.233 15.42 108.513 15.42C107.813 15.42 107.253 15.12 107.253 14.44V12.6C105.993 12.64 104.713 12.64 103.493 12.64ZM108.493 18.62H117.613C118.233 18.62 118.513 19.12 118.513 19.7C118.513 20.28 118.233 20.78 117.613 20.78H107.153C105.873 20.78 105.453 20.38 105.453 19.12V16.78C105.453 16.04 106.073 15.7 106.753 15.7C107.413 15.7 108.033 16.04 108.033 16.78V18.16C108.033 18.5 108.153 18.62 108.493 18.62ZM122.376 17.78C122.376 15.6 124.236 14.5 127.416 14.28V12.92H121.096C120.496 12.92 120.216 12.44 120.216 11.86C120.216 11.28 120.496 10.8 121.096 10.8H136.256C136.856 10.8 137.136 11.28 137.136 11.86C137.136 12.44 136.856 12.92 136.256 12.92H129.936V14.28C133.096 14.5 134.976 15.6 134.976 17.78C134.976 20.24 132.596 21.32 128.676 21.32C124.756 21.32 122.376 20.24 122.376 17.78ZM129.976 3.7V4.22C129.976 5.3 130.656 5.88 131.936 6.44C133.136 6.96 134.096 7.36 135.236 7.78C135.716 7.96 135.816 8.66 135.616 9.18C135.416 9.7 134.816 10.04 134.276 9.84C133.396 9.52 132.256 9.06 131.316 8.66C129.416 7.86 128.816 7.3 128.696 6.82H128.676C128.536 7.38 127.936 7.92 126.036 8.72C125.096 9.12 124.056 9.54 123.136 9.88C122.496 10.12 121.956 9.76 121.736 9.22C121.516 8.72 121.576 7.98 122.116 7.78C123.256 7.36 124.216 6.96 125.416 6.44C126.696 5.88 127.376 5.3 127.376 4.22V3.7C127.376 2.94 127.996 2.6 128.676 2.6C129.356 2.6 129.976 2.94 129.976 3.7ZM132.436 17.78C132.436 16.82 131.356 16.26 128.676 16.26C125.996 16.26 124.916 16.82 124.916 17.78C124.916 18.74 125.996 19.3 128.676 19.3C131.356 19.3 132.436 18.74 132.436 17.78ZM138.639 9.44C138.639 5.5 140.259 3.36 143.459 3.36C146.659 3.36 148.279 5.5 148.279 9.44C148.279 13.38 146.659 15.52 143.459 15.52C140.259 15.52 138.639 13.38 138.639 9.44ZM145.819 9.44C145.819 6.92 145.199 5.58 143.459 5.58C141.719 5.58 141.099 6.92 141.099 9.44C141.099 11.96 141.719 13.3 143.459 13.3C145.199 13.3 145.819 11.96 145.819 9.44ZM153.359 3.42V18.74C153.359 19.48 152.739 19.82 152.059 19.82C151.399 19.82 150.779 19.48 150.779 18.74V3.42C150.779 2.68 151.399 2.34 152.059 2.34C152.739 2.34 153.359 2.68 153.359 3.42Z" fill="#745F56"/>
<path d="M6.2175 15.82L7.09072 17.2582L7.09984 17.2526L6.2175 15.82ZM4.6575 15.38L6.05746 14.4467H6.05746L4.6575 15.38ZM4.8575 13.78L3.98097 12.3438L3.97019 12.3504L4.8575 13.78ZM18.4975 8.24H16.815V9.92254H18.4975V8.24ZM18.4975 10.46V8.77746H16.815V10.46H18.4975ZM10.1775 5.9V4.21746H5.4975V5.9V7.58254H10.1775V5.9ZM5.4975 5.9V4.21746C5.57326 4.21746 5.69812 4.23408 5.83944 4.30377C5.98132 4.37373 6.08984 4.47265 6.16308 4.57071C6.29557 4.74812 6.28004 4.86849 6.28004 4.82H4.5975H2.91496C2.91496 5.35151 3.03943 6.01188 3.46692 6.58429C3.94179 7.22013 4.67322 7.58254 5.4975 7.58254V5.9ZM4.5975 4.82H6.28004C6.28004 4.75114 6.30023 4.86587 6.16911 5.04366C6.09615 5.14259 5.98684 5.24345 5.84278 5.31489C5.69952 5.38593 5.57318 5.40254 5.4975 5.40254V3.72V2.03746C4.67171 2.03746 3.93641 2.40156 3.46089 3.04634C3.03477 3.62412 2.91496 4.28885 2.91496 4.82H4.5975ZM5.4975 3.72V5.40254H11.4775V3.72V2.03746H5.4975V3.72ZM11.4775 3.72V5.40254C11.5358 5.40254 11.5875 5.40368 11.6334 5.4057C11.6793 5.40773 11.7181 5.41058 11.7506 5.41384C11.7832 5.41709 11.8081 5.42062 11.8264 5.42374C11.8447 5.42687 11.8551 5.42937 11.8587 5.43032C11.8663 5.43231 11.8416 5.42671 11.7978 5.40375C11.7756 5.39216 11.7494 5.37658 11.7209 5.35618C11.6923 5.33569 11.6633 5.31169 11.635 5.28419C11.6066 5.25667 11.5812 5.22773 11.5589 5.19835C11.5367 5.16907 11.5192 5.1414 11.5056 5.11696C11.4922 5.09267 11.4833 5.07273 11.4778 5.05891C11.4723 5.04521 11.4702 5.03757 11.4702 5.03756C11.4702 5.03751 11.4707 5.03922 11.4715 5.04284C11.4723 5.04647 11.4734 5.05186 11.4748 5.05919C11.4775 5.074 11.4807 5.09552 11.4838 5.12481C11.487 5.15408 11.4898 5.18975 11.4918 5.23266C11.4938 5.27554 11.495 5.32443 11.495 5.38H13.1775H14.86C14.86 4.65991 14.7627 3.63133 13.98 2.87081C13.2114 2.12394 12.1895 2.03746 11.4775 2.03746V3.72ZM13.1775 5.38H11.495V7.56H13.1775H14.86V5.38H13.1775ZM13.1775 7.56H11.495C11.495 9.05011 11.3019 9.72991 10.672 10.4829C9.89196 11.4154 8.39763 12.5012 5.33516 14.3874L6.2175 15.82L7.09984 17.2526C10.0774 15.4188 12.063 14.0646 13.253 12.6421C14.5931 11.0401 14.86 9.44989 14.86 7.56H13.1775ZM6.2175 15.82L5.3443 14.3818C5.5484 14.2579 5.76226 14.2725 5.87528 14.3099C5.96182 14.3385 6.01485 14.3828 6.05746 14.4467L4.6575 15.38L3.25754 16.3133C3.8956 17.2704 5.50755 18.2194 7.0907 17.2582L6.2175 15.82ZM4.6575 15.38L6.05746 14.4467C6.0792 14.4793 6.10595 14.5273 6.09959 14.6346C6.09569 14.7003 6.07666 14.8052 6.01188 14.9233C5.94329 15.0484 5.84557 15.147 5.74481 15.2096L4.8575 13.78L3.97019 12.3504C3.14169 12.8647 2.78475 13.6879 2.74041 14.4354C2.69905 15.1327 2.9158 15.8007 3.25754 16.3133L4.6575 15.38ZM4.8575 13.78L5.734 15.2162C8.38924 13.5957 10.0797 12.4837 11.0463 11.394C11.5851 10.7864 11.9354 10.154 12.1262 9.43094C12.3033 8.76013 12.32 8.08596 12.32 7.48H10.6375H8.95496C8.95496 8.06404 8.92924 8.35737 8.87255 8.57218C8.82964 8.73475 8.7549 8.90606 8.52875 9.16104C7.96528 9.79632 6.76576 10.6443 3.98099 12.3438L4.8575 13.78ZM10.6375 7.48H12.32V6.36H10.6375H8.95496V7.48H10.6375ZM10.6375 6.36H12.32C12.32 6.07442 12.2877 5.37569 11.7247 4.81276C11.1618 4.24984 10.4631 4.21746 10.1775 4.21746V5.9V7.58254C10.1761 7.58254 10.0804 7.5839 9.93851 7.54411C9.78109 7.49996 9.55404 7.40101 9.34526 7.19223C9.13649 6.98346 9.03754 6.75641 8.99339 6.59899C8.9536 6.45709 8.95496 6.36144 8.95496 6.36H10.6375ZM18.4975 8.24V9.92254H20.3775V8.24V6.55746H18.4975V8.24ZM20.3775 8.24V9.92254C20.3148 9.92254 20.1971 9.90917 20.0584 9.84205C19.9178 9.77402 19.8073 9.67558 19.7315 9.57452C19.5947 9.39218 19.615 9.27079 19.615 9.34H21.2975H22.98C22.98 8.80921 22.8603 8.13782 22.4235 7.55548C21.9365 6.90608 21.1941 6.55746 20.3775 6.55746V8.24ZM21.2975 9.34H19.615C19.615 9.42922 19.5903 9.31346 19.7255 9.13101C19.801 9.02909 19.9123 8.92872 20.0551 8.85923C20.1957 8.79081 20.3149 8.77746 20.3775 8.77746V10.46V12.1425C21.1955 12.1425 21.9419 11.7923 22.4295 11.134C22.8647 10.5465 22.98 9.87078 22.98 9.34H21.2975ZM20.3775 10.46V8.77746H18.4975V10.46V12.1425H20.3775V10.46ZM18.4975 10.46H16.815V18.74H18.4975H20.18V10.46H18.4975ZM18.4975 18.74H16.815C16.815 18.6841 16.8283 18.5819 16.8875 18.4643C16.9461 18.3479 17.0261 18.2633 17.0977 18.2098C17.2234 18.1159 17.2865 18.1375 17.2175 18.1375V19.82V21.5025C17.8085 21.5025 18.5116 21.3541 19.1123 20.9052C19.7709 20.413 20.18 19.6454 20.18 18.74H18.4975ZM17.2175 19.82V18.1375C17.1485 18.1375 17.2116 18.1159 17.3373 18.2098C17.4089 18.2633 17.4889 18.3479 17.5475 18.4643C17.6067 18.5819 17.62 18.6841 17.62 18.74H15.9375H14.255C14.255 19.6454 14.6641 20.413 15.3227 20.9052C15.9234 21.3541 16.6265 21.5025 17.2175 21.5025V19.82ZM15.9375 18.74H17.62V3.42H15.9375H14.255V18.74H15.9375ZM15.9375 3.42H17.62C17.62 3.47585 17.6067 3.57806 17.5475 3.69566C17.4889 3.8121 17.4089 3.89667 17.3373 3.95023C17.2116 4.04414 17.1485 4.02254 17.2175 4.02254V2.34V0.657459C16.6265 0.657459 15.9234 0.805856 15.3227 1.25477C14.6641 1.74703 14.255 2.51462 14.255 3.42H15.9375ZM17.2175 2.34V4.02254C17.2865 4.02254 17.2234 4.04414 17.0977 3.95023C17.0261 3.89667 16.9461 3.8121 16.8875 3.69566C16.8283 3.57806 16.815 3.47585 16.815 3.42H18.4975H20.18C20.18 2.51462 19.7709 1.74703 19.1123 1.25477C18.5116 0.805856 17.8085 0.657459 17.2175 0.657459V2.34ZM18.4975 3.42H16.815V8.24H18.4975H20.18V3.42H18.4975ZM30.0406 8.52L28.9432 9.79538L28.9504 9.80161L28.9577 9.80775L30.0406 8.52ZM32.2806 10.3L31.2856 11.6568L31.2941 11.663L31.3027 11.6691L32.2806 10.3ZM32.4406 11.84L31.0752 10.8569L31.0715 10.862L32.4406 11.84ZM30.8806 12.16L29.9081 13.533L29.9158 13.5384L30.8806 12.16ZM28.8806 10.58L29.9674 9.29557L29.9613 9.29035L29.955 9.28518L28.8806 10.58ZM27.6006 9.1L29.2278 8.6718L28.8977 7.41746H27.6006V9.1ZM27.5806 9.1V7.41746H26.2376L25.9399 8.72711L27.5806 9.1ZM26.2406 10.72L25.1662 9.42518L25.16 9.43035L25.1538 9.43557L26.2406 10.72ZM23.9406 12.52L22.9593 11.1532L22.9538 11.1572L23.9406 12.52ZM22.3806 12.2L21.0076 13.1725L21.0115 13.178L22.3806 12.2ZM22.5606 10.58L23.5344 11.9521L23.5424 11.9465L23.5502 11.9407L22.5606 10.58ZM25.0806 8.6L26.1635 9.88775L26.1708 9.88161L26.178 9.87538L25.0806 8.6ZM34.7606 8.08H36.4432V6.39746H34.7606V8.08ZM34.7606 5.9V7.58254H36.4432V5.9H34.7606ZM28.8606 4.06H27.1781V5.78H28.8606H30.5432V4.06H28.8606ZM28.8606 5.78H27.1781C27.1781 6.52686 27.2772 7.26687 27.5789 7.97894C27.8856 8.70281 28.3558 9.28997 28.9432 9.79538L30.0406 8.52L31.138 7.24462C30.8654 7.01003 30.7456 6.82719 30.6773 6.66606C30.6041 6.49313 30.5432 6.23314 30.5432 5.78H28.8606ZM30.0406 8.52L28.9577 9.80775C29.8576 10.5645 30.6477 11.189 31.2856 11.6568L32.2806 10.3L33.2756 8.94319C32.7136 8.53102 31.9836 7.95552 31.1235 7.23225L30.0406 8.52ZM32.2806 10.3L31.3027 11.6691C31.2589 11.6379 31.1862 11.5715 31.124 11.4603C31.0616 11.3488 31.0314 11.2306 31.0256 11.125C31.0201 11.024 31.0373 10.9508 31.0504 10.9115C31.0572 10.8913 31.0637 10.8774 31.0679 10.8693C31.0722 10.8611 31.0749 10.8572 31.0752 10.8569L32.4406 11.84L33.8061 12.8231C34.1552 12.3382 34.4264 11.6817 34.3856 10.94C34.3416 10.1399 33.9398 9.41742 33.2586 8.93086L32.2806 10.3ZM32.4406 11.84L31.0715 10.862C31.1234 10.7894 31.1906 10.7319 31.3071 10.6983C31.3769 10.6782 31.4728 10.6656 31.5834 10.6821C31.6981 10.6992 31.7885 10.7417 31.8455 10.7816L30.8806 12.16L29.9158 13.5384C30.6663 14.0638 31.5147 14.1406 32.2392 13.9317C32.9106 13.7381 33.4579 13.3106 33.8098 12.818L32.4406 11.84ZM30.8806 12.16L31.8532 10.787C31.4263 10.4846 30.7262 9.93763 29.9674 9.29557L28.8806 10.58L27.7938 11.8644C28.595 12.5424 29.375 13.1554 29.9081 13.533L30.8806 12.16ZM28.8806 10.58L29.955 9.28518C29.4986 8.90645 29.3 8.70974 29.2111 8.60446C29.1752 8.56194 29.1783 8.5586 29.1936 8.58707C29.2118 8.62096 29.2233 8.65495 29.2278 8.6718L27.6006 9.1L25.9735 9.52819C26.226 10.4877 26.8877 11.1127 27.8062 11.8748L28.8806 10.58ZM27.6006 9.1V7.41746H27.5806V9.1V10.7825H27.6006V9.1ZM27.5806 9.1L25.9399 8.72711C25.9563 8.65485 25.9899 8.63511 25.9194 8.72199C25.82 8.84441 25.6116 9.05561 25.1662 9.42518L26.2406 10.72L27.315 12.0148C28.2557 11.2343 28.9838 10.5178 29.2213 9.47289L27.5806 9.1ZM26.2406 10.72L25.1538 9.43557C24.4048 10.0693 23.7 10.6215 22.9594 11.1532L23.9406 12.52L24.9219 13.8868C25.7413 13.2985 26.5165 12.6907 27.3274 12.0044L26.2406 10.72ZM23.9406 12.52L22.9538 11.1572C23.0244 11.1061 23.1255 11.0602 23.2448 11.0423C23.3586 11.0253 23.4532 11.0387 23.5179 11.0572C23.58 11.0749 23.6222 11.0991 23.6501 11.1191C23.6771 11.1384 23.712 11.1691 23.7498 11.222L22.3806 12.2L21.0115 13.178C21.3717 13.6823 21.9296 14.1032 22.5934 14.2928C23.3076 14.4969 24.1693 14.4317 24.9275 13.8828L23.9406 12.52ZM22.3806 12.2L23.7536 11.2275C23.7557 11.2304 23.7631 11.241 23.7715 11.2657C23.7798 11.2903 23.7951 11.3472 23.7922 11.433C23.789 11.524 23.7651 11.6362 23.7054 11.7473C23.6452 11.8595 23.5732 11.9246 23.5344 11.9521L22.5606 10.58L21.5869 9.20788C20.8465 9.73332 20.4571 10.5056 20.4291 11.317C20.4036 12.056 20.6769 12.7057 21.0076 13.1725L22.3806 12.2ZM22.5606 10.58L23.5502 11.9407C24.4666 11.2743 25.2578 10.6494 26.1635 9.88775L25.0806 8.6L23.9977 7.31225C23.1435 8.03059 22.4147 8.60569 21.571 9.21927L22.5606 10.58ZM25.0806 8.6L26.178 9.87538C26.7654 9.36997 27.2356 8.78281 27.5423 8.05894C27.8441 7.34687 27.9432 6.60686 27.9432 5.86H26.2606H24.5781C24.5781 6.31314 24.5172 6.57313 24.4439 6.74606C24.3756 6.90719 24.2558 7.09003 23.9832 7.32462L25.0806 8.6ZM26.2606 5.86H27.9432V4.06H26.2606H24.5781V5.86H26.2606ZM26.2606 4.06H27.9432C27.9432 4.10383 27.9328 4.19938 27.8757 4.31452C27.8187 4.42957 27.7392 4.51553 27.6651 4.57103C27.5353 4.6684 27.4724 4.64254 27.5606 4.64254V2.96V1.27746C26.9689 1.27746 26.2559 1.4216 25.6461 1.87897C24.9752 2.38214 24.5781 3.15949 24.5781 4.06H26.2606ZM27.5606 2.96V4.64254C27.6489 4.64254 27.5859 4.6684 27.4561 4.57103C27.3821 4.51553 27.3025 4.42957 27.2455 4.31452C27.1885 4.19938 27.1781 4.10383 27.1781 4.06H28.8606H30.5432C30.5432 3.15949 30.146 2.38214 29.4751 1.87897C28.8653 1.4216 28.1524 1.27746 27.5606 1.27746V2.96ZM34.7606 8.08V6.39746H32.2606V8.08V9.76254H34.7606V8.08ZM32.2606 8.08V6.39746C32.3364 6.39746 32.4612 6.41408 32.6026 6.48377C32.7444 6.55373 32.853 6.65265 32.9262 6.75071C33.0587 6.92812 33.0432 7.04849 33.0432 7H31.3606H29.6781C29.6781 7.53151 29.8026 8.19188 30.23 8.76429C30.7049 9.40013 31.4363 9.76254 32.2606 9.76254V8.08ZM31.3606 7H33.0432C33.0432 6.93114 33.0634 7.04587 32.9322 7.22366C32.8593 7.32259 32.75 7.42346 32.6059 7.49489C32.4626 7.56593 32.3363 7.58254 32.2606 7.58254V5.9V4.21746C31.4348 4.21746 30.6995 4.58156 30.224 5.22634C29.7979 5.80412 29.6781 6.46885 29.6781 7H31.3606ZM32.2606 5.9V7.58254H34.7606V5.9V4.21746H32.2606V5.9ZM34.7606 5.9H36.4432V3.42H34.7606H33.0781V5.9H34.7606ZM34.7606 3.42H36.4432C36.4432 3.47585 36.4298 3.57806 36.3706 3.69566C36.312 3.8121 36.232 3.89667 36.1604 3.95023C36.0347 4.04414 35.9716 4.02254 36.0406 4.02254V2.34V0.657459C35.4496 0.657459 34.7465 0.805856 34.1459 1.25477C33.4872 1.74703 33.0781 2.51462 33.0781 3.42H34.7606ZM36.0406 2.34V4.02254C36.0901 4.02254 36.0216 4.03955 35.8965 3.94509C35.8255 3.89143 35.747 3.80756 35.6895 3.6929C35.6314 3.57691 35.6181 3.4759 35.6181 3.42H37.3006H38.9832C38.9832 2.51588 38.5755 1.75142 37.9247 1.2599C37.3297 0.810452 36.6311 0.657459 36.0406 0.657459V2.34ZM37.3006 3.42H35.6181V12.28H37.3006H38.9832V3.42H37.3006ZM37.3006 12.28H35.6181C35.6181 12.2241 35.6314 12.1231 35.6895 12.0071C35.747 11.8924 35.8255 11.8086 35.8965 11.7549C36.0216 11.6605 36.0901 11.6775 36.0406 11.6775V13.36V15.0425C36.6311 15.0425 37.3297 14.8895 37.9247 14.4401C38.5755 13.9486 38.9832 13.1841 38.9832 12.28H37.3006ZM36.0406 13.36V11.6775C35.9716 11.6775 36.0347 11.6559 36.1604 11.7498C36.232 11.8033 36.312 11.8879 36.3706 12.0043C36.4298 12.1219 36.4432 12.2241 36.4432 12.28H34.7606H33.0781C33.0781 13.1854 33.4872 13.953 34.1459 14.4452C34.7465 14.8941 35.4496 15.0425 36.0406 15.0425V13.36ZM34.7606 12.28H36.4432V8.08H34.7606H33.0781V12.28H34.7606ZM25.2806 17.36H26.9632C26.9632 16.6512 27.2245 16.2178 27.7774 15.8749C28.4378 15.4653 29.5865 15.1625 31.3206 15.1625V13.48V11.7975C29.2947 11.7975 27.4235 12.1347 26.0038 13.0151C24.4768 13.9622 23.5981 15.4688 23.5981 17.36H25.2806ZM31.3206 13.48V15.1625C33.0547 15.1625 34.2035 15.4653 34.8638 15.8749C35.4168 16.2178 35.6781 16.6512 35.6781 17.36H37.3606H39.0432C39.0432 15.4688 38.1645 13.9622 36.6374 13.0151C35.2178 12.1347 33.3465 11.7975 31.3206 11.7975V13.48ZM37.3606 17.36H35.6781C35.6781 18.0688 35.4168 18.5022 34.8638 18.8451C34.2035 19.2547 33.0547 19.5575 31.3206 19.5575V21.24V22.9225C33.3465 22.9225 35.2178 22.5853 36.6374 21.7049C38.1645 20.7578 39.0432 19.2512 39.0432 17.36H37.3606ZM31.3206 21.24V19.5575C29.5865 19.5575 28.4378 19.2547 27.7774 18.8451C27.2245 18.5022 26.9632 18.0688 26.9632 17.36H25.2806H23.5981C23.5981 19.2512 24.4768 20.7578 26.0038 21.7049C27.4235 22.5853 29.2947 22.9225 31.3206 22.9225V21.24ZM34.8206 17.36H36.5032C36.5032 16.1934 35.9238 15.1848 34.8553 14.5695C33.9181 14.0297 32.6927 13.8375 31.3206 13.8375V15.52V17.2025C32.4686 17.2025 32.9932 17.3803 33.1759 17.4855C33.2436 17.5245 33.2151 17.525 33.1763 17.4589C33.1367 17.3912 33.1381 17.3422 33.1381 17.36H34.8206ZM31.3206 15.52V13.8375C29.9486 13.8375 28.7232 14.0297 27.7859 14.5695C26.7174 15.1848 26.1381 16.1934 26.1381 17.36H27.8206H29.5032C29.5032 17.3422 29.5046 17.3912 29.4649 17.4589C29.4262 17.525 29.3976 17.5245 29.4653 17.4855C29.6481 17.3803 30.1727 17.2025 31.3206 17.2025V15.52ZM27.8206 17.36H26.1381C26.1381 18.5266 26.7174 19.5352 27.7859 20.1505C28.7232 20.6903 29.9486 20.8825 31.3206 20.8825V19.2V17.5175C30.1727 17.5175 29.6481 17.3397 29.4653 17.2345C29.3976 17.1955 29.4262 17.195 29.4649 17.2611C29.5046 17.3288 29.5032 17.3778 29.5032 17.36H27.8206ZM31.3206 19.2V20.8825C32.6927 20.8825 33.9181 20.6903 34.8553 20.1505C35.9238 19.5352 36.5032 18.5266 36.5032 17.36H34.8206H33.1381C33.1381 17.3778 33.1367 17.3288 33.1763 17.2611C33.2151 17.195 33.2436 17.1955 33.1759 17.2345C32.9932 17.3397 32.4686 17.5175 31.3206 17.5175V19.2ZM43.1838 7.68H41.5012V9.36254H43.1838V7.68ZM47.0638 7.68V9.36254H48.7463V7.68H47.0638ZM47.0638 9.82H48.7463V8.13746H47.0638V9.82ZM43.1838 9.82V8.13746H41.5012V9.82H43.1838ZM43.1838 4.56H41.5012V7.68H43.1838H44.8663V4.56H43.1838ZM43.1838 7.68V9.36254H47.0638V7.68V5.99746H43.1838V7.68ZM47.0638 7.68H48.7463V4.56H47.0638H45.3812V7.68H47.0638ZM47.0638 4.56H48.7463C48.7463 4.62823 48.7298 4.73721 48.6684 4.85711C48.6082 4.97479 48.5279 5.05791 48.4587 5.10947C48.3375 5.1997 48.2742 5.18254 48.3237 5.18254V3.5V1.81746C47.7333 1.81746 47.04 1.9703 46.4488 2.41053C45.8029 2.8915 45.3812 3.64936 45.3812 4.56H47.0638ZM48.3237 3.5V5.18254C48.3733 5.18254 48.31 5.1997 48.1888 5.10947C48.1196 5.05791 48.0393 4.97479 47.9791 4.85711C47.9177 4.73721 47.9012 4.62823 47.9012 4.56H49.5838H51.2663C51.2663 3.64936 50.8446 2.8915 50.1987 2.41053C49.6075 1.9703 48.9142 1.81746 48.3237 1.81746V3.5ZM49.5838 4.56H47.9012V13.6H49.5838H51.2663V4.56H49.5838ZM49.5838 13.6H47.9012C47.9012 13.6556 47.9 13.7045 47.898 13.7473C47.896 13.7902 47.8932 13.8259 47.8901 13.8552C47.887 13.8845 47.8837 13.906 47.881 13.9208C47.8797 13.9281 47.8786 13.9335 47.8777 13.9372C47.8769 13.9408 47.8764 13.9425 47.8765 13.9424C47.8765 13.9424 47.8786 13.9348 47.884 13.9211C47.8895 13.9073 47.8984 13.8873 47.9119 13.863C47.9254 13.8386 47.943 13.8109 47.9652 13.7816C47.9875 13.7523 48.0129 13.7233 48.0412 13.6958C48.0695 13.6683 48.0986 13.6443 48.1272 13.6238C48.1557 13.6034 48.1818 13.5878 48.204 13.5762C48.2479 13.5533 48.2726 13.5477 48.2649 13.5497C48.2613 13.5506 48.251 13.5531 48.2327 13.5563C48.2144 13.5594 48.1894 13.5629 48.1569 13.5662C48.1243 13.5694 48.0855 13.5723 48.0396 13.5743C47.9938 13.5763 47.942 13.5775 47.8838 13.5775V15.26V16.9425C48.5958 16.9425 49.6177 16.8561 50.3863 16.1092C51.169 15.3487 51.2663 14.3201 51.2663 13.6H49.5838ZM47.8838 15.26V13.5775H42.3638V15.26V16.9425H47.8838V15.26ZM42.3638 15.26V13.5775C42.3055 13.5775 42.2537 13.5763 42.2079 13.5743C42.162 13.5723 42.1232 13.5694 42.0906 13.5662C42.0581 13.5629 42.0331 13.5594 42.0148 13.5563C41.9965 13.5531 41.9862 13.5506 41.9826 13.5497C41.9749 13.5477 41.9996 13.5533 42.0435 13.5762C42.0657 13.5878 42.0918 13.6034 42.1203 13.6238C42.1489 13.6443 42.178 13.6683 42.2063 13.6958C42.2346 13.7233 42.26 13.7523 42.2823 13.7816C42.3045 13.8109 42.3221 13.8386 42.3356 13.863C42.3491 13.8873 42.358 13.9073 42.3635 13.9211C42.3689 13.9348 42.371 13.9424 42.371 13.9424C42.3711 13.9425 42.3706 13.9408 42.3698 13.9372C42.3689 13.9335 42.3678 13.9281 42.3665 13.9208C42.3638 13.906 42.3605 13.8845 42.3574 13.8552C42.3543 13.8259 42.3515 13.7902 42.3495 13.7473C42.3475 13.7045 42.3463 13.6556 42.3463 13.6H40.6637H38.9812C38.9812 14.3201 39.0785 15.3487 39.8612 16.1092C40.6298 16.8561 41.6517 16.9425 42.3638 16.9425V15.26ZM40.6637 13.6H42.3463V4.56H40.6637H38.9812V13.6H40.6637ZM40.6637 4.56H42.3463C42.3463 4.62823 42.3298 4.73721 42.2684 4.85711C42.2082 4.97479 42.1279 5.05791 42.0587 5.10947C41.9375 5.1997 41.8742 5.18254 41.9238 5.18254V3.5V1.81746C41.3333 1.81746 40.64 1.9703 40.0488 2.41053C39.4029 2.8915 38.9812 3.64936 38.9812 4.56H40.6637ZM41.9238 3.5V5.18254C41.9733 5.18254 41.91 5.1997 41.7888 5.10947C41.7196 5.05791 41.6393 4.97479 41.5791 4.85711C41.5177 4.73721 41.5012 4.62823 41.5012 4.56H43.1838H44.8663C44.8663 3.64936 44.4446 2.8915 43.7987 2.41053C43.2075 1.9703 42.5142 1.81746 41.9238 1.81746V3.5ZM43.6437 13.12V14.8025H46.6038V13.12V11.4375H43.6437V13.12ZM46.6038 13.12V14.8025C46.8893 14.8025 47.5881 14.7702 48.151 14.2072C48.7139 13.6443 48.7463 12.9456 48.7463 12.66H47.0638H45.3812C45.3812 12.6586 45.3799 12.5629 45.4196 12.421C45.4638 12.2636 45.5627 12.0365 45.7715 11.8278C45.9803 11.619 46.2073 11.52 46.3648 11.4759C46.5067 11.4361 46.6023 11.4375 46.6038 11.4375V13.12ZM47.0638 12.66H48.7463V9.82H47.0638H45.3812V12.66H47.0638ZM47.0638 9.82V8.13746H43.1838V9.82V11.5025H47.0638V9.82ZM43.1838 9.82H41.5012V12.66H43.1838H44.8663V9.82H43.1838ZM43.1838 12.66H41.5012C41.5012 12.9456 41.5336 13.6443 42.0965 14.2072C42.6594 14.7702 43.3582 14.8025 43.6437 14.8025V13.12V11.4375C43.6452 11.4375 43.7408 11.4361 43.8827 11.4759C44.0402 11.52 44.2672 11.619 44.476 11.8278C44.6848 12.0365 44.7837 12.2636 44.8279 12.421C44.8677 12.5629 44.8663 12.6586 44.8663 12.66H43.1838ZM55.0037 3.42H53.3212V18.74H55.0037H56.6863V3.42H55.0037ZM55.0037 18.74H53.3212C53.3212 18.6842 53.3345 18.5808 53.3948 18.4616C53.4546 18.3434 53.5361 18.2581 53.6083 18.2047C53.7343 18.1115 53.7919 18.1375 53.7038 18.1375V19.82V21.5025C54.2956 21.5025 55.0032 21.3585 55.6092 20.9103C56.2757 20.4173 56.6863 19.6467 56.6863 18.74H55.0037ZM53.7038 19.82V18.1375C53.6348 18.1375 53.6978 18.1159 53.8235 18.2098C53.8952 18.2633 53.9751 18.3479 54.0338 18.4643C54.093 18.5819 54.1063 18.6841 54.1063 18.74H52.4238H50.7412C50.7412 19.6454 51.1503 20.413 51.809 20.9052C52.4097 21.3541 53.1127 21.5025 53.7038 21.5025V19.82ZM52.4238 18.74H54.1063V3.42H52.4238H50.7412V18.74H52.4238ZM52.4238 3.42H54.1063C54.1063 3.47585 54.093 3.57806 54.0338 3.69566C53.9751 3.8121 53.8952 3.89667 53.8235 3.95023C53.6978 4.04414 53.6348 4.02254 53.7038 4.02254V2.34V0.657459C53.1127 0.657459 52.4097 0.805856 51.809 1.25477C51.1503 1.74703 50.7412 2.51462 50.7412 3.42H52.4238ZM53.7038 2.34V4.02254C53.7919 4.02254 53.7343 4.04845 53.6083 3.95526C53.5361 3.90186 53.4546 3.81661 53.3948 3.69841C53.3345 3.57922 53.3212 3.4758 53.3212 3.42H55.0037H56.6863C56.6863 2.51333 56.2757 1.74265 55.6092 1.24973C55.0032 0.801544 54.2956 0.657459 53.7038 0.657459V2.34ZM68.9269 5.52V3.83746H67.2443V5.52H68.9269ZM70.1269 8.72L69.0468 10.0101L69.0541 10.0162L69.0614 10.0222L70.1269 8.72ZM72.3669 10.44L71.38 11.8028L71.3889 11.8091L72.3669 10.44ZM72.5469 11.98L73.8929 12.9895L73.9027 12.9764L73.9123 12.9631L72.5469 11.98ZM70.9869 12.3L70.026 13.6812L70.0337 13.6865L70.9869 12.3ZM69.0269 10.8L67.9658 12.1059L67.9758 12.1138L69.0269 10.8ZM67.6869 9.3L69.314 8.8718L68.9839 7.61746H67.6869V9.3ZM67.6669 9.3V7.61746H66.3238L66.0262 8.92711L67.6669 9.3ZM66.2669 10.94L67.318 12.2539L67.3279 12.2458L66.2669 10.94ZM63.9469 12.68L62.982 11.3016L62.971 11.3093L62.96 11.3172L63.9469 12.68ZM62.4069 12.34L61.0339 13.3125L61.0377 13.318L62.4069 12.34ZM62.6069 10.74L63.5718 12.1184L63.5819 12.1112L62.6069 10.74ZM65.1669 8.8L66.2323 10.1022L66.2397 10.0962L66.247 10.0901L65.1669 8.8ZM66.3669 5.52H68.0494V3.83746H66.3669V5.52ZM76.5869 6.64H74.9043V8.32254H76.5869V6.64ZM76.5869 8.86V7.17746H74.9043V8.86H76.5869ZM71.7069 5.52V3.83746H68.9269V5.52V7.20254H71.7069V5.52ZM68.9269 5.52H67.2443V6.02H68.9269H70.6094V5.52H68.9269ZM68.9269 6.02H67.2443C67.2443 6.78448 67.3506 7.53025 67.6672 8.24167C67.9878 8.96195 68.4709 9.52794 69.0468 10.0101L70.1269 8.72L71.207 7.4299C70.9229 7.19206 70.8059 7.01805 70.7415 6.87333C70.6732 6.71974 70.6094 6.47552 70.6094 6.02H68.9269ZM70.1269 8.72L69.0614 10.0222C69.9755 10.7701 70.7839 11.371 71.3801 11.8028L72.3669 10.44L73.3537 9.07724C72.7899 8.66895 72.0383 8.10991 71.1923 7.41779L70.1269 8.72ZM72.3669 10.44L71.3889 11.8091C71.3495 11.781 71.2821 11.7201 71.2228 11.617C71.1633 11.5134 71.1316 11.4007 71.1238 11.2957C71.1092 11.0956 71.1812 10.9972 71.1814 10.9969L72.5469 11.98L73.9123 12.9631C74.2725 12.4628 74.5346 11.7944 74.4799 11.0493C74.4216 10.2551 74.0126 9.54783 73.3448 9.07086L72.3669 10.44ZM72.5469 11.98L71.2008 10.9705C71.2172 10.9487 71.2333 10.9325 71.254 10.9169C71.275 10.9011 71.3198 10.8717 71.3934 10.8488C71.4718 10.8243 71.5778 10.8093 71.6969 10.8263C71.8184 10.8437 71.9018 10.8872 71.9401 10.9135L70.9869 12.3L70.0337 13.6865C70.7949 14.2098 71.6488 14.2941 72.3954 14.0612C73.0715 13.8503 73.5767 13.4111 73.8929 12.9895L72.5469 11.98ZM70.9869 12.3L71.9477 10.9188C71.5378 10.6336 70.8758 10.1244 70.0779 9.48616L69.0269 10.8L67.9758 12.1138C68.778 12.7556 69.5159 13.3264 70.026 13.6812L70.9869 12.3ZM69.0269 10.8L70.0879 9.49416C69.6198 9.11381 69.4018 8.90695 69.2972 8.78816C69.2526 8.73755 69.2522 8.72881 69.2669 8.75478C69.2855 8.78764 69.3032 8.83079 69.314 8.8718L67.6869 9.3L66.0597 9.7282C66.3193 10.7147 67.0629 11.3722 67.9659 12.1058L69.0269 10.8ZM67.6869 9.3V7.61746H67.6669V9.3V10.9825H67.6869V9.3ZM67.6669 9.3L66.0262 8.92711C66.0505 8.82008 66.096 8.79783 66.004 8.9068C65.8899 9.0419 65.6629 9.26284 65.2059 9.63416L66.2669 10.94L67.3279 12.2458C68.2568 11.4911 69.064 10.7446 69.3076 9.67288L67.6669 9.3ZM66.2669 10.94L65.2158 9.62616C64.4425 10.2448 63.7512 10.7632 62.982 11.3016L63.9469 12.68L64.9117 14.0584C65.7426 13.4768 66.4913 12.9152 67.3179 12.2538L66.2669 10.94ZM63.9469 12.68L62.96 11.3172C63.0326 11.2647 63.1407 11.2149 63.2717 11.1967C63.3968 11.1792 63.5001 11.1963 63.5687 11.2175C63.6344 11.2378 63.6756 11.2636 63.6984 11.2807C63.7208 11.2973 63.747 11.3214 63.776 11.362L62.4069 12.34L61.0377 13.318C61.3797 13.7967 61.9135 14.2281 62.575 14.4325C63.2938 14.6547 64.1654 14.5991 64.9337 14.0428L63.9469 12.68ZM62.4069 12.34L63.7799 11.3675C63.7918 11.3842 63.8435 11.4611 63.8338 11.6197C63.8284 11.708 63.803 11.8133 63.7455 11.9168C63.6871 12.0218 63.6171 12.0867 63.5717 12.1184L62.6069 10.74L61.642 9.36161C60.9149 9.87056 60.5231 10.624 60.4749 11.4153C60.4303 12.1489 60.682 12.8158 61.0339 13.3125L62.4069 12.34ZM62.6069 10.74L63.5819 12.1112C64.5018 11.4571 65.3141 10.8535 66.2323 10.1022L65.1669 8.8L64.1014 7.49779C63.2596 8.18652 62.5119 8.74294 61.6318 9.3688L62.6069 10.74ZM65.1669 8.8L66.247 10.0901C66.8229 9.60794 67.3059 9.04195 67.6265 8.32167C67.9432 7.61025 68.0494 6.86448 68.0494 6.1H66.3669H64.6843C64.6843 6.55552 64.6206 6.79974 64.5522 6.95333C64.4878 7.09805 64.3709 7.27206 64.0868 7.5099L65.1669 8.8ZM66.3669 6.1H68.0494V5.52H66.3669H64.6843V6.1H66.3669ZM66.3669 5.52V3.83746H63.3869V5.52V7.20254H66.3669V5.52ZM63.3869 5.52V3.83746C63.4626 3.83746 63.5875 3.85408 63.7288 3.92377C63.8707 3.99373 63.9792 4.09265 64.0525 4.19071C64.1849 4.36812 64.1694 4.48849 64.1694 4.44H62.4869H60.8043C60.8043 4.97151 60.9288 5.63188 61.3563 6.20429C61.8312 6.84013 62.5626 7.20254 63.3869 7.20254V5.52ZM62.4869 4.44H64.1694C64.1694 4.39151 64.1849 4.51188 64.0525 4.68929C63.9792 4.78735 63.8707 4.88627 63.7288 4.95623C63.5875 5.02592 63.4626 5.04254 63.3869 5.04254V3.36V1.67746C62.5626 1.67746 61.8312 2.03987 61.3563 2.67571C60.9288 3.24812 60.8043 3.90849 60.8043 4.44H62.4869ZM63.3869 3.36V5.04254H71.7069V3.36V1.67746H63.3869V3.36ZM71.7069 3.36V5.04254C71.6311 5.04254 71.5063 5.02592 71.3649 4.95623C71.2231 4.88627 71.1145 4.78735 71.0413 4.68929C70.9088 4.51188 70.9243 4.39151 70.9243 4.44H72.6069H74.2894C74.2894 3.90849 74.1649 3.24812 73.7374 2.67571C73.2626 2.03987 72.5312 1.67746 71.7069 1.67746V3.36ZM72.6069 4.44H70.9243C70.9243 4.48849 70.9088 4.36812 71.0413 4.19071C71.1145 4.09265 71.2231 3.99373 71.3649 3.92377C71.5063 3.85408 71.6311 3.83746 71.7069 3.83746V5.52V7.20254C72.5312 7.20254 73.2626 6.84013 73.7374 6.20429C74.1649 5.63188 74.2894 4.97151 74.2894 4.44H72.6069ZM76.5869 6.64V8.32254H78.4669V6.64V4.95746H76.5869V6.64ZM78.4669 6.64V8.32254C78.4042 8.32254 78.2865 8.30917 78.1478 8.24205C78.0072 8.17402 77.8966 8.07558 77.8208 7.97452C77.6841 7.79218 77.7043 7.67079 77.7043 7.74H79.3869H81.0694C81.0694 7.20921 80.9497 6.53782 80.5129 5.95548C80.0259 5.30608 79.2835 4.95746 78.4669 4.95746V6.64ZM79.3869 7.74H77.7043C77.7043 7.82922 77.6797 7.71346 77.8149 7.53101C77.8904 7.42909 78.0017 7.32872 78.1445 7.25923C78.2851 7.19081 78.4043 7.17746 78.4669 7.17746V8.86V10.5425C79.2849 10.5425 80.0312 10.1923 80.5189 9.53399C80.954 8.94654 81.0694 8.27078 81.0694 7.74H79.3869ZM78.4669 8.86V7.17746H76.5869V8.86V10.5425H78.4669V8.86ZM76.5869 8.86H74.9043V12.28H76.5869H78.2694V8.86H76.5869ZM76.5869 12.28H74.9043C74.9043 12.2241 74.9177 12.1219 74.9769 12.0043C75.0355 11.8879 75.1155 11.8033 75.1871 11.7498C75.3128 11.6559 75.3759 11.6775 75.3069 11.6775V13.36V15.0425C75.8979 15.0425 76.601 14.8941 77.2016 14.4452C77.8603 13.953 78.2694 13.1854 78.2694 12.28H76.5869ZM75.3069 13.36V11.6775C75.2379 11.6775 75.301 11.6559 75.4266 11.7498C75.4983 11.8033 75.5783 11.8879 75.6369 12.0043C75.6961 12.1219 75.7094 12.2241 75.7094 12.28H74.0269H72.3443C72.3443 13.1854 72.7535 13.953 73.4121 14.4452C74.0128 14.8941 74.7159 15.0425 75.3069 15.0425V13.36ZM74.0269 12.28H75.7094V3.42H74.0269H72.3443V12.28H74.0269ZM74.0269 3.42H75.7094C75.7094 3.47585 75.6961 3.57806 75.6369 3.69566C75.5783 3.8121 75.4983 3.89667 75.4266 3.95023C75.301 4.04414 75.2379 4.02254 75.3069 4.02254V2.34V0.657459C74.7159 0.657459 74.0128 0.805856 73.4121 1.25477C72.7535 1.74703 72.3443 2.51462 72.3443 3.42H74.0269ZM75.3069 2.34V4.02254C75.3759 4.02254 75.3128 4.04414 75.1871 3.95023C75.1155 3.89667 75.0355 3.8121 74.9769 3.69566C74.9177 3.57806 74.9043 3.47585 74.9043 3.42H76.5869H78.2694C78.2694 2.51462 77.8603 1.74703 77.2016 1.25477C76.601 0.805856 75.8979 0.657459 75.3069 0.657459V2.34ZM76.5869 3.42H74.9043V6.64H76.5869H78.2694V3.42H76.5869ZM64.8469 17.36H66.5294C66.5294 16.6309 66.7941 16.1988 67.3193 15.8651C67.9504 15.464 69.0572 15.1625 70.7469 15.1625V13.48V11.7975C68.7565 11.7975 66.9133 12.136 65.5145 13.0249C64.0097 13.9812 63.1643 15.4891 63.1643 17.36H64.8469ZM70.7469 13.48V15.1625C72.4365 15.1625 73.5433 15.464 74.1745 15.8651C74.6997 16.1988 74.9643 16.6309 74.9643 17.36H76.6469H78.3294C78.3294 15.4891 77.4841 13.9812 75.9793 13.0249C74.5805 12.136 72.7372 11.7975 70.7469 11.7975V13.48ZM76.6469 17.36H74.9643C74.9643 18.0891 74.6997 18.5212 74.1745 18.8549C73.5433 19.256 72.4365 19.5575 70.7469 19.5575V21.24V22.9225C72.7372 22.9225 74.5805 22.584 75.9793 21.6951C77.4841 20.7388 78.3294 19.2309 78.3294 17.36H76.6469ZM70.7469 21.24V19.5575C69.0572 19.5575 67.9504 19.256 67.3193 18.8549C66.7941 18.5212 66.5294 18.0891 66.5294 17.36H64.8469H63.1643C63.1643 19.2309 64.0097 20.7388 65.5145 21.6951C66.9133 22.584 68.7565 22.9225 70.7469 22.9225V21.24ZM74.1069 17.36H75.7894C75.7894 16.2395 75.2669 15.2233 74.2105 14.5865C73.288 14.0304 72.0829 13.8375 70.7469 13.8375V15.52V17.2025C71.8508 17.2025 72.3258 17.3796 72.4732 17.4685C72.5225 17.4982 72.4903 17.4906 72.4539 17.425C72.4187 17.3616 72.4243 17.3243 72.4243 17.36H74.1069ZM70.7469 15.52V13.8375C69.4108 13.8375 68.2057 14.0304 67.2832 14.5865C66.2269 15.2233 65.7043 16.2395 65.7043 17.36H67.3869H69.0694C69.0694 17.3243 69.0751 17.3616 69.0398 17.425C69.0035 17.4906 68.9712 17.4982 69.0205 17.4685C69.168 17.3796 69.6429 17.2025 70.7469 17.2025V15.52ZM67.3869 17.36H65.7043C65.7043 18.4805 66.2269 19.4967 67.2832 20.1335C68.2057 20.6896 69.4108 20.8825 70.7469 20.8825V19.2V17.5175C69.6429 17.5175 69.168 17.3404 69.0205 17.2515C68.9712 17.2218 69.0035 17.2294 69.0398 17.295C69.0751 17.3584 69.0694 17.3957 69.0694 17.36H67.3869ZM70.7469 19.2V20.8825C72.0829 20.8825 73.288 20.6896 74.2105 20.1335C75.2669 19.4967 75.7894 18.4805 75.7894 17.36H74.1069H72.4243C72.4243 17.3957 72.4187 17.3584 72.4539 17.295C72.4903 17.2294 72.5225 17.2218 72.4732 17.2515C72.3258 17.3404 71.8508 17.5175 70.7469 17.5175V19.2ZM80.55 8H82.2325C82.2325 6.95432 82.5383 6.21503 82.9792 5.74936C83.4052 5.29953 84.1291 4.92254 85.35 4.92254V3.24V1.55746C83.3909 1.55746 81.7148 2.19047 80.5358 3.43564C79.3717 4.66497 78.8675 6.30568 78.8675 8H80.55ZM85.35 3.24V4.92254C86.5709 4.92254 87.2948 5.29953 87.7208 5.74936C88.1617 6.21503 88.4675 6.95432 88.4675 8H90.15H91.8325C91.8325 6.30568 91.3283 4.66497 90.1642 3.43564C88.9852 2.19047 87.3091 1.55746 85.35 1.55746V3.24ZM90.15 8H88.4675C88.4675 9.04568 88.1617 9.78497 87.7208 10.2506C87.2948 10.7005 86.5709 11.0775 85.35 11.0775V12.76V14.4425C87.3091 14.4425 88.9852 13.8095 90.1642 12.5644C91.3283 11.335 91.8325 9.69432 91.8325 8H90.15ZM85.35 12.76V11.0775C84.1291 11.0775 83.4052 10.7005 82.9792 10.2506C82.5383 9.78497 82.2325 9.04568 82.2325 8H80.55H78.8675C78.8675 9.69432 79.3717 11.335 80.5358 12.5644C81.7148 13.8095 83.3909 14.4425 85.35 14.4425V12.76ZM87.71 8H89.3925C89.3925 7.06616 89.1899 5.98684 88.4956 5.10742C87.7481 4.16061 86.6321 3.69746 85.35 3.69746V5.38V7.06254C85.5877 7.06254 85.7124 7.10298 85.7655 7.12636C85.812 7.14689 85.8343 7.16706 85.8544 7.19258C85.9101 7.26316 86.0275 7.49383 86.0275 8H87.71ZM85.35 5.38V3.69746C84.0679 3.69746 82.9519 4.16061 82.2044 5.10742C81.5101 5.98684 81.3075 7.06616 81.3075 8H82.99H84.6725C84.6725 7.49383 84.7899 7.26316 84.8456 7.19258C84.8657 7.16706 84.888 7.14689 84.9345 7.12636C84.9875 7.10298 85.1123 7.06254 85.35 7.06254V5.38ZM82.99 8H81.3075C81.3075 8.93384 81.5101 10.0132 82.2044 10.8926C82.9519 11.8394 84.0679 12.3025 85.35 12.3025V10.62V8.93746C85.1123 8.93746 84.9875 8.89702 84.9345 8.87364C84.888 8.85311 84.8657 8.83294 84.8456 8.80742C84.7899 8.73684 84.6725 8.50616 84.6725 8H82.99ZM85.35 10.62V12.3025C86.6321 12.3025 87.7481 11.8394 88.4956 10.8926C89.1899 10.0132 89.3925 8.93384 89.3925 8H87.71H86.0275C86.0275 8.50616 85.9101 8.73684 85.8544 8.80742C85.8343 8.83294 85.812 8.85311 85.7655 8.87364C85.7124 8.89702 85.5877 8.93746 85.35 8.93746V10.62ZM95.27 3.42H93.5875V14.9H95.27H96.9525V3.42H95.27ZM95.27 14.9H93.5875C93.5875 14.8441 93.6008 14.7419 93.66 14.6243C93.7186 14.5079 93.7986 14.4233 93.8702 14.3698C93.9959 14.2759 94.059 14.2975 93.99 14.2975V15.98V17.6625C94.581 17.6625 95.2841 17.5141 95.8848 17.0652C96.5434 16.573 96.9525 15.8054 96.9525 14.9H95.27ZM93.99 15.98V14.2975C93.921 14.2975 93.9841 14.2759 94.1097 14.3698C94.1814 14.4233 94.2614 14.5079 94.32 14.6243C94.3792 14.7419 94.3925 14.8441 94.3925 14.9H92.71H91.0275C91.0275 15.8054 91.4366 16.573 92.0952 17.0652C92.6959 17.5141 93.399 17.6625 93.99 17.6625V15.98ZM92.71 14.9H94.3925V3.42H92.71H91.0275V14.9H92.71ZM92.71 3.42H94.3925C94.3925 3.47585 94.3792 3.57806 94.32 3.69566C94.2614 3.8121 94.1814 3.89667 94.1097 3.95023C93.9841 4.04414 93.921 4.02254 93.99 4.02254V2.34V0.657459C93.399 0.657459 92.6959 0.805856 92.0952 1.25477C91.4366 1.74703 91.0275 2.51462 91.0275 3.42H92.71ZM93.99 2.34V4.02254C94.059 4.02254 93.9959 4.04414 93.8702 3.95023C93.7986 3.89667 93.7186 3.8121 93.66 3.69566C93.6008 3.57806 93.5875 3.47585 93.5875 3.42H95.27H96.9525C96.9525 2.51462 96.5434 1.74703 95.8848 1.25477C95.2841 0.805856 94.581 0.657459 93.99 0.657459V2.34ZM94.81 20.74V19.0575H84.93V20.74V22.4225H94.81V20.74ZM84.93 20.74V19.0575C84.8717 19.0575 84.82 19.0563 84.7741 19.0543C84.7282 19.0523 84.6894 19.0494 84.6569 19.0462C84.6243 19.0429 84.5994 19.0394 84.5811 19.0363C84.5627 19.0331 84.5524 19.0306 84.5488 19.0297C84.5412 19.0277 84.5659 19.0333 84.6097 19.0562C84.6319 19.0678 84.6581 19.0834 84.6866 19.1038C84.7152 19.1243 84.7442 19.1483 84.7725 19.1758C84.8009 19.2033 84.8263 19.2323 84.8486 19.2616C84.8708 19.2909 84.8883 19.3186 84.9019 19.343C84.9153 19.3673 84.9242 19.3873 84.9297 19.4011C84.9352 19.4148 84.9373 19.4224 84.9373 19.4224C84.9373 19.4225 84.9368 19.4208 84.936 19.4172C84.9352 19.4135 84.9341 19.4081 84.9327 19.4008C84.93 19.386 84.9268 19.3645 84.9237 19.3352C84.9205 19.3059 84.9177 19.2702 84.9157 19.2273C84.9137 19.1845 84.9125 19.1356 84.9125 19.08H83.23H81.5475C81.5475 19.8001 81.6448 20.8287 82.4275 21.5892C83.1961 22.3361 84.2179 22.4225 84.93 22.4225V20.74ZM83.23 19.08H84.9125V15.3H83.23H81.5475V19.08H83.23ZM83.23 15.3H84.9125C84.9125 15.3558 84.8992 15.4592 84.8389 15.5784C84.7792 15.6966 84.6977 15.7819 84.6255 15.8353C84.4995 15.9285 84.4419 15.9025 84.53 15.9025V14.22V12.5375C83.9381 12.5375 83.2305 12.6815 82.6245 13.1297C81.958 13.6227 81.5475 14.3933 81.5475 15.3H83.23ZM84.53 14.22V15.9025C84.599 15.9025 84.5359 15.9241 84.4102 15.8302C84.3386 15.7767 84.2586 15.6921 84.2 15.5757C84.1408 15.4581 84.1275 15.3559 84.1275 15.3H85.81H87.4925C87.4925 14.3946 87.0834 13.627 86.4248 13.1348C85.8241 12.6859 85.121 12.5375 84.53 12.5375V14.22ZM85.81 15.3H84.1275V18.1H85.81H87.4925V15.3H85.81ZM85.81 18.1H84.1275C84.1275 18.3856 84.1598 19.0843 84.7228 19.6472C85.2857 20.2102 85.9844 20.2425 86.27 20.2425V18.56V16.8775C86.2714 16.8775 86.3671 16.8761 86.509 16.9159C86.6664 16.96 86.8935 17.059 87.1022 17.2678C87.311 17.4765 87.41 17.7036 87.4541 17.861C87.4939 18.0029 87.4925 18.0986 87.4925 18.1H85.81ZM86.27 18.56V20.2425H94.81V18.56V16.8775H86.27V18.56ZM94.81 18.56V20.2425C94.7343 20.2425 94.608 20.2259 94.4647 20.1549C94.3207 20.0835 94.2113 19.9826 94.1384 19.8837C94.0073 19.7059 94.0275 19.5911 94.0275 19.66H95.71H97.3925C97.3925 19.1289 97.2727 18.4641 96.8466 17.8863C96.3711 17.2416 95.6358 16.8775 94.81 16.8775V18.56ZM95.71 19.66H94.0275C94.0275 19.7085 94.0119 19.5881 94.1444 19.4107C94.2177 19.3126 94.3262 19.2137 94.4681 19.1438C94.6094 19.0741 94.7342 19.0575 94.81 19.0575V20.74V22.4225C95.6343 22.4225 96.3657 22.0601 96.8406 21.4243C97.2681 20.8519 97.3925 20.1915 97.3925 19.66H95.71ZM115.533 15.08H117.216V13.3975H115.533V15.08ZM115.533 13.04V14.7225H117.216V13.04H115.533ZM113.773 10.06L113.972 11.7307L113.98 11.7298L113.988 11.7287L113.773 10.06ZM114.753 11L113.075 11.1158L113.075 11.1199L114.753 11ZM113.973 12.14L113.751 10.4722L113.743 10.4732L113.973 12.14ZM109.793 12.5L109.707 10.8197L108.111 10.9015V12.5H109.793ZM107.253 12.6H108.936V10.8632L107.2 10.9183L107.253 12.6ZM108.693 9.56V7.87746C107.276 7.87746 106.459 7.57525 106.038 7.26453C105.686 7.00402 105.496 6.65935 105.496 6.1H103.813H102.131C102.131 7.64065 102.76 9.02598 104.038 9.97047C105.248 10.8648 106.871 11.2425 108.693 11.2425V9.56ZM103.813 6.1H105.496C105.496 5.54065 105.686 5.19598 106.038 4.93547C106.459 4.62475 107.276 4.32254 108.693 4.32254V2.64V0.95746C106.871 0.95746 105.248 1.33525 104.038 2.22953C102.76 3.17402 102.131 4.55935 102.131 6.1H103.813ZM108.693 2.64V4.32254C110.111 4.32254 110.928 4.62475 111.348 4.93547C111.7 5.19598 111.891 5.54065 111.891 6.1H113.573H115.256C115.256 4.55935 114.626 3.17402 113.348 2.22953C112.139 1.33525 110.516 0.95746 108.693 0.95746V2.64ZM113.573 6.1H111.891C111.891 6.65935 111.7 7.00402 111.348 7.26453C110.928 7.57525 110.111 7.87746 108.693 7.87746V9.56V11.2425C110.516 11.2425 112.139 10.8648 113.348 9.97047C114.626 9.02598 115.256 7.64065 115.256 6.1H113.573ZM108.693 7.56V9.24254C109.681 9.24254 110.666 9.08801 111.457 8.59773C112.36 8.03839 112.856 7.13232 112.856 6.1H111.173H109.491C109.491 6.07589 109.498 5.99132 109.555 5.88939C109.611 5.78734 109.676 5.7422 109.684 5.73727C109.685 5.73663 109.67 5.74649 109.63 5.76142C109.591 5.77638 109.531 5.79498 109.447 5.81289C109.276 5.84931 109.03 5.87746 108.693 5.87746V7.56ZM111.173 6.1H112.856C112.856 5.06768 112.36 4.16161 111.457 3.60227C110.666 3.11199 109.681 2.95746 108.693 2.95746V4.64V6.32254C109.03 6.32254 109.276 6.35069 109.447 6.38711C109.531 6.40502 109.591 6.42362 109.63 6.43858C109.67 6.45351 109.685 6.46337 109.684 6.46273C109.676 6.4578 109.611 6.41266 109.555 6.31061C109.498 6.20868 109.491 6.1241 109.491 6.1H111.173ZM108.693 4.64V2.95746C107.705 2.95746 106.721 3.11199 105.929 3.60227C105.027 4.16161 104.531 5.06768 104.531 6.1H106.213H107.896C107.896 6.1241 107.888 6.20868 107.832 6.31061C107.775 6.41266 107.71 6.4578 107.702 6.46273C107.701 6.46337 107.717 6.45351 107.756 6.43858C107.796 6.42362 107.855 6.40502 107.939 6.38711C108.11 6.35069 108.356 6.32254 108.693 6.32254V4.64ZM106.213 6.1H104.531C104.531 7.13232 105.027 8.03839 105.929 8.59773C106.721 9.08801 107.705 9.24254 108.693 9.24254V7.56V5.87746C108.356 5.87746 108.11 5.84931 107.939 5.81289C107.855 5.79498 107.796 5.77638 107.756 5.76142C107.717 5.74649 107.701 5.73663 107.702 5.73727C107.71 5.7422 107.775 5.78734 107.832 5.88939C107.888 5.99132 107.896 6.07589 107.896 6.1H106.213ZM115.533 15.5H117.216V15.08H115.533H113.851V15.5H115.533ZM115.533 15.08V13.3975H112.833V15.08V16.7625H115.533V15.08ZM112.833 15.08V13.3975C112.915 13.3975 113.041 13.4148 113.184 13.4832C113.327 13.552 113.44 13.6507 113.519 13.7533C113.594 13.8513 113.628 13.938 113.642 13.9874C113.649 14.0128 113.653 14.0317 113.654 14.0431C113.655 14.0489 113.655 14.0532 113.655 14.0559C113.656 14.0586 113.656 14.06 113.656 14.06H111.973H110.291C110.291 14.5947 110.421 15.2467 110.853 15.8067C111.327 16.4225 112.043 16.7625 112.833 16.7625V15.08ZM111.973 14.06H113.656C113.656 14.06 113.656 14.0614 113.655 14.0641C113.655 14.0668 113.655 14.0711 113.654 14.0769C113.653 14.0883 113.649 14.1072 113.642 14.1326C113.628 14.182 113.594 14.2687 113.519 14.3667C113.44 14.4693 113.327 14.568 113.184 14.6368C113.041 14.7052 112.915 14.7225 112.833 14.7225V13.04V11.3575C112.043 11.3575 111.327 11.6975 110.853 12.3133C110.421 12.8733 110.291 13.5253 110.291 14.06H111.973ZM112.833 13.04V14.7225H115.533V13.04V11.3575H112.833V13.04ZM115.533 13.04H117.216V3.42H115.533H113.851V13.04H115.533ZM115.533 3.42H117.216C117.216 3.47585 117.202 3.57806 117.143 3.69566C117.085 3.8121 117.005 3.89667 116.933 3.95023C116.807 4.04414 116.744 4.02254 116.813 4.02254V2.34V0.657459C116.222 0.657459 115.519 0.805856 114.918 1.25477C114.26 1.74703 113.851 2.51462 113.851 3.42H115.533ZM116.813 2.34V4.02254C116.863 4.02254 116.794 4.03955 116.669 3.9451C116.598 3.89143 116.519 3.80756 116.462 3.6929C116.404 3.57691 116.391 3.4759 116.391 3.42H118.073H119.756C119.756 2.51588 119.348 1.75142 118.697 1.2599C118.102 0.810452 117.404 0.657459 116.813 0.657459V2.34ZM118.073 3.42H116.391V15.5H118.073H119.756V3.42H118.073ZM118.073 15.5H116.391C116.391 15.4441 116.404 15.3431 116.462 15.2271C116.519 15.1124 116.598 15.0286 116.669 14.9749C116.794 14.8805 116.863 14.8975 116.813 14.8975V16.58V18.2625C117.404 18.2625 118.102 18.1095 118.697 17.6601C119.348 17.1686 119.756 16.4041 119.756 15.5H118.073ZM116.813 16.58V14.8975C116.744 14.8975 116.807 14.8759 116.933 14.9698C117.005 15.0233 117.085 15.1079 117.143 15.2243C117.202 15.3419 117.216 15.4441 117.216 15.5H115.533H113.851C113.851 16.4054 114.26 17.173 114.918 17.6652C115.519 18.1141 116.222 18.2625 116.813 18.2625V16.58ZM103.493 12.64V10.9575C103.572 10.9575 103.698 10.9745 103.841 11.0443C103.985 11.1145 104.096 11.2143 104.172 11.3152C104.311 11.4992 104.296 11.6275 104.296 11.58H102.613H100.931C100.931 12.1125 101.056 12.7708 101.484 13.3398C101.959 13.9703 102.685 14.3225 103.493 14.3225V12.64ZM102.613 11.58H104.296C104.296 11.5325 104.311 11.6608 104.172 11.8448C104.096 11.9457 103.985 12.0455 103.841 12.1157C103.698 12.1855 103.572 12.2025 103.493 12.2025V10.52V8.83746C102.685 8.83746 101.959 9.18968 101.484 9.82019C101.056 10.3892 100.931 11.0475 100.931 11.58H102.613ZM103.493 10.52V12.2025C106.721 12.2025 110.506 12.1434 113.972 11.7307L113.773 10.06L113.574 8.38926C110.32 8.77663 106.705 8.83746 103.493 8.83746V10.52ZM113.773 10.06L113.988 11.7287C113.929 11.7364 113.807 11.7397 113.653 11.6886C113.494 11.6362 113.358 11.5444 113.256 11.4362C113.068 11.237 113.072 11.072 113.075 11.1158L114.753 11L116.432 10.8842C116.395 10.348 116.218 9.67301 115.705 9.12879C115.134 8.52206 114.343 8.28997 113.558 8.39129L113.773 10.06ZM114.753 11L113.075 11.1199C113.079 11.1729 113.055 11.0576 113.167 10.8741C113.228 10.7732 113.321 10.6701 113.446 10.5902C113.57 10.5109 113.682 10.4813 113.751 10.4722L113.973 12.14L114.195 13.8078C114.979 13.7033 115.64 13.2816 116.04 12.6259C116.402 12.0324 116.468 11.3871 116.431 10.8801L114.753 11ZM113.973 12.14L113.743 10.4732C112.649 10.6241 111.242 10.741 109.707 10.8197L109.793 12.5L109.879 14.1803C111.464 14.099 112.977 13.9759 114.203 13.8068L113.973 12.14ZM109.793 12.5H108.111V14.44H109.793H111.476V12.5H109.793ZM109.793 14.44H108.111C108.111 14.3741 108.126 14.251 108.199 14.1095C108.272 13.9671 108.373 13.8659 108.462 13.8038C108.614 13.6981 108.676 13.7375 108.513 13.7375V15.42V17.1025C109.071 17.1025 109.772 16.9919 110.384 16.5662C111.078 16.0833 111.476 15.316 111.476 14.44H109.793ZM108.513 15.42V13.7375C108.369 13.7375 108.436 13.7013 108.589 13.8087C108.677 13.8713 108.777 13.972 108.849 14.1125C108.921 14.2523 108.936 14.374 108.936 14.44H107.253H105.571C105.571 15.3144 105.966 16.0786 106.653 16.5613C107.26 16.9887 107.958 17.1025 108.513 17.1025V15.42ZM107.253 14.44H108.936V12.6H107.253H105.571V14.44H107.253ZM107.253 12.6L107.2 10.9183C105.971 10.9573 104.718 10.9575 103.493 10.9575V12.64V14.3225C104.709 14.3225 106.015 14.3227 107.307 14.2817L107.253 12.6ZM108.493 18.62V20.3025H117.613V18.62V16.9375H108.493V18.62ZM117.613 18.62V20.3025C117.537 20.3025 117.412 20.2859 117.271 20.2162C117.129 20.1463 117.021 20.0474 116.948 19.9493C116.815 19.7719 116.831 19.6515 116.831 19.7H118.513H120.196C120.196 19.1685 120.071 18.5081 119.644 17.9357C119.169 17.2999 118.437 16.9375 117.613 16.9375V18.62ZM118.513 19.7H116.831C116.831 19.7485 116.815 19.6281 116.948 19.4507C117.021 19.3526 117.129 19.2537 117.271 19.1838C117.412 19.1141 117.537 19.0975 117.613 19.0975V20.78V22.4625C118.437 22.4625 119.169 22.1001 119.644 21.4643C120.071 20.8919 120.196 20.2315 120.196 19.7H118.513ZM117.613 20.78V19.0975H107.153V20.78V22.4625H117.613V20.78ZM107.153 20.78V19.0975C107.095 19.0975 107.043 19.0963 106.997 19.0943C106.951 19.0923 106.913 19.0894 106.88 19.0862C106.847 19.0829 106.822 19.0794 106.804 19.0763C106.786 19.0731 106.776 19.0706 106.772 19.0697C106.764 19.0677 106.789 19.0733 106.833 19.0962C106.855 19.1078 106.881 19.1234 106.91 19.1438C106.938 19.1643 106.967 19.1883 106.996 19.2158C107.024 19.2433 107.049 19.2723 107.072 19.3016C107.094 19.3309 107.111 19.3586 107.125 19.383C107.138 19.4073 107.147 19.4273 107.153 19.4411C107.158 19.4548 107.16 19.4624 107.16 19.4624C107.16 19.4625 107.16 19.4608 107.159 19.4572C107.158 19.4535 107.157 19.4481 107.156 19.4408C107.153 19.426 107.15 19.4045 107.147 19.3752C107.144 19.3459 107.141 19.3102 107.139 19.2673C107.137 19.2245 107.136 19.1756 107.136 19.12H105.453H103.771C103.771 19.8401 103.868 20.8687 104.651 21.6292C105.419 22.3761 106.441 22.4625 107.153 22.4625V20.78ZM105.453 19.12H107.136V16.78H105.453H103.771V19.12H105.453ZM105.453 16.78H107.136C107.136 16.8358 107.122 16.9392 107.062 17.0584C107.002 17.1766 106.921 17.2619 106.849 17.3153C106.723 17.4085 106.665 17.3825 106.753 17.3825V15.7V14.0175C106.161 14.0175 105.454 14.1615 104.848 14.6097C104.181 15.1027 103.771 15.8733 103.771 16.78H105.453ZM106.753 15.7V17.3825C106.822 17.3825 106.759 17.4041 106.633 17.3102C106.562 17.2567 106.482 17.1721 106.423 17.0557C106.364 16.9381 106.351 16.8358 106.351 16.78H108.033H109.716C109.716 15.8746 109.307 15.107 108.648 14.6148C108.047 14.1659 107.344 14.0175 106.753 14.0175V15.7ZM108.033 16.78H106.351V18.16H108.033H109.716V16.78H108.033ZM108.033 18.16H106.351C106.351 18.4456 106.383 19.1443 106.946 19.7072C107.509 20.2702 108.208 20.3025 108.493 20.3025V18.62V16.9375C108.495 16.9375 108.59 16.9361 108.732 16.9759C108.89 17.02 109.117 17.119 109.325 17.3278C109.534 17.5365 109.633 17.7636 109.677 17.921C109.717 18.0629 109.716 18.1586 109.716 18.16H108.033ZM127.416 14.28L127.532 15.9585L129.099 15.8502V14.28H127.416ZM127.416 12.92H129.099V11.2375H127.416V12.92ZM129.936 12.92V11.2375H128.254V12.92H129.936ZM129.936 14.28H128.254V15.8495L129.819 15.9585L129.936 14.28ZM131.936 6.44L131.262 7.98148L131.267 7.98382L131.936 6.44ZM135.236 7.78L135.827 6.20456L135.818 6.2012L135.236 7.78ZM134.276 9.84L134.861 8.26217L134.851 8.25876L134.276 9.84ZM131.316 8.66L131.975 7.11179L131.969 7.10931L131.316 8.66ZM128.696 6.82L130.329 6.41192L130.01 5.13746H128.696V6.82ZM128.676 6.82V5.13746H127.363L127.044 6.41192L128.676 6.82ZM126.036 8.72L125.383 7.1693L125.377 7.1718L126.036 8.72ZM123.136 9.88L122.553 8.30177L122.545 8.30459L123.136 9.88ZM121.736 9.22L123.294 8.58518L123.286 8.56365L123.276 8.54238L121.736 9.22ZM122.116 7.78L121.535 6.2012L121.532 6.2022L122.116 7.78ZM125.416 6.44L126.085 7.98383L126.091 7.98147L125.416 6.44ZM122.376 17.78H124.059C124.059 17.2666 124.231 16.9658 124.637 16.695C125.147 16.3551 126.067 16.0599 127.532 15.9585L127.416 14.28L127.3 12.6015C125.585 12.7201 123.986 13.0849 122.77 13.895C121.452 14.7742 120.694 16.1134 120.694 17.78H122.376ZM127.416 14.28H129.099V12.92H127.416H125.734V14.28H127.416ZM127.416 12.92V11.2375H121.096V12.92V14.6025H127.416V12.92ZM121.096 12.92V11.2375C121.175 11.2375 121.302 11.2545 121.444 11.3243C121.588 11.3945 121.699 11.4943 121.775 11.5952C121.914 11.7792 121.899 11.9075 121.899 11.86H120.216H118.534C118.534 12.3925 118.659 13.0508 119.087 13.6198C119.562 14.2503 120.288 14.6025 121.096 14.6025V12.92ZM120.216 11.86H121.899C121.899 11.8125 121.914 11.9408 121.775 12.1248C121.699 12.2257 121.588 12.3255 121.444 12.3957C121.302 12.4655 121.175 12.4825 121.096 12.4825V10.8V9.11746C120.288 9.11746 119.562 9.46968 119.087 10.1002C118.659 10.6692 118.534 11.3275 118.534 11.86H120.216ZM121.096 10.8V12.4825H136.256V10.8V9.11746H121.096V10.8ZM136.256 10.8V12.4825C136.178 12.4825 136.051 12.4655 135.908 12.3957C135.764 12.3255 135.653 12.2257 135.577 12.1248C135.439 11.9408 135.454 11.8125 135.454 11.86H137.136H138.819C138.819 11.3275 138.694 10.6692 138.265 10.1002C137.79 9.46968 137.064 9.11746 136.256 9.11746V10.8ZM137.136 11.86H135.454C135.454 11.9075 135.439 11.7792 135.577 11.5952C135.653 11.4943 135.764 11.3945 135.908 11.3243C136.051 11.2545 136.178 11.2375 136.256 11.2375V12.92V14.6025C137.064 14.6025 137.79 14.2503 138.265 13.6198C138.694 13.0508 138.819 12.3925 138.819 11.86H137.136ZM136.256 12.92V11.2375H129.936V12.92V14.6025H136.256V12.92ZM129.936 12.92H128.254V14.28H129.936H131.619V12.92H129.936ZM129.936 14.28L129.819 15.9585C131.273 16.0597 132.196 16.3544 132.71 16.6962C133.122 16.9704 133.294 17.2731 133.294 17.78H134.976H136.659C136.659 16.1069 135.89 14.7696 134.573 13.8938C133.357 13.0856 131.759 12.7203 130.053 12.6015L129.936 14.28ZM134.976 17.78H133.294C133.294 18.1119 133.217 18.3201 133.123 18.4681C133.025 18.6235 132.845 18.8065 132.506 18.9872C131.781 19.373 130.533 19.6375 128.676 19.6375V21.32V23.0025C130.739 23.0025 132.641 22.727 134.087 21.9578C134.832 21.561 135.493 21.0128 135.963 20.2738C136.438 19.5274 136.659 18.6781 136.659 17.78H134.976ZM128.676 21.32V19.6375C126.819 19.6375 125.571 19.373 124.847 18.9872C124.507 18.8065 124.328 18.6235 124.229 18.4681C124.135 18.3201 124.059 18.1119 124.059 17.78H122.376H120.694C120.694 18.6781 120.915 19.5274 121.39 20.2738C121.86 21.0128 122.52 21.561 123.266 21.9578C124.711 22.727 126.613 23.0025 128.676 23.0025V21.32ZM129.976 3.7H128.294V4.22H129.976H131.659V3.7H129.976ZM129.976 4.22H128.294C128.294 5.17319 128.617 6.00562 129.252 6.67924C129.82 7.28147 130.564 7.67616 131.262 7.98147L131.936 6.44L132.611 4.89853C132.029 4.64384 131.793 4.46853 131.7 4.37076C131.683 4.35189 131.675 4.34054 131.672 4.33676C131.671 4.33469 131.671 4.33367 131.671 4.33353C131.67 4.33341 131.67 4.33335 131.67 4.33304C131.67 4.33272 131.67 4.33128 131.669 4.3283C131.668 4.32529 131.667 4.31999 131.665 4.31194C131.662 4.29601 131.659 4.26656 131.659 4.22H129.976ZM131.936 6.44L131.267 7.98382C132.48 8.50946 133.473 8.92331 134.655 9.3588L135.236 7.78L135.818 6.2012C134.72 5.79669 133.792 5.41053 132.605 4.89618L131.936 6.44ZM135.236 7.78L134.645 9.35541C134.183 9.18198 134.059 8.80725 134.041 8.72741C134.022 8.64571 134.033 8.61021 134.046 8.576L135.616 9.18L137.187 9.784C137.4 9.22979 137.46 8.58429 137.321 7.97759C137.183 7.37275 136.77 6.55802 135.827 6.20459L135.236 7.78ZM135.616 9.18L134.046 8.576C134.101 8.43338 134.195 8.33979 134.303 8.28445C134.42 8.22404 134.627 8.17581 134.861 8.2622L134.276 9.84L133.692 11.4178C135.244 11.9926 136.716 11.0083 137.187 9.784L135.616 9.18ZM134.276 9.84L134.851 8.25876C134.009 7.95248 132.899 7.5048 131.975 7.1118L131.316 8.66L130.657 10.2082C131.614 10.6152 132.784 11.0875 133.701 11.4212L134.276 9.84ZM131.316 8.66L131.969 7.10931C131.069 6.73034 130.588 6.45227 130.344 6.27096C130.101 6.08973 130.257 6.12542 130.329 6.41192L128.696 6.82L127.064 7.22808C127.256 7.99458 127.771 8.55027 128.333 8.96904C128.895 9.38773 129.663 9.78966 130.663 10.2107L131.316 8.66ZM128.696 6.82V5.13746H128.676V6.82V8.50254H128.696V6.82ZM128.676 6.82L127.044 6.41192C127.097 6.20144 127.214 6.17823 127.004 6.33596C126.766 6.51537 126.292 6.78659 125.383 7.16931L126.036 8.72L126.689 10.2707C127.68 9.8534 128.457 9.45463 129.028 9.02404C129.629 8.57177 130.116 7.99856 130.309 7.22808L128.676 6.82ZM126.036 8.72L125.377 7.1718C124.455 7.56421 123.441 7.97352 122.553 8.30179L123.136 9.88L123.719 11.4582C124.671 11.1065 125.737 10.6758 126.695 10.2682L126.036 8.72ZM123.136 9.88L122.545 8.30459C122.591 8.2874 122.672 8.26825 122.777 8.2744C122.881 8.28052 122.979 8.31 123.062 8.35326C123.219 8.43617 123.277 8.5429 123.294 8.58518L121.736 9.22L120.178 9.85482C120.415 10.4371 120.853 10.9938 121.496 11.3317C122.172 11.6872 122.967 11.7403 123.727 11.4554L123.136 9.88ZM121.736 9.22L123.276 8.54238C123.296 8.58815 123.309 8.63027 123.291 8.72038C123.279 8.77716 123.246 8.89144 123.149 9.02151C123.045 9.16287 122.889 9.28796 122.701 9.3578L122.116 7.78L121.532 6.2022C120.559 6.56265 120.125 7.39604 119.992 8.05462C119.864 8.68973 119.956 9.35185 120.196 9.89762L121.736 9.22ZM122.116 7.78L122.698 9.3588C123.88 8.92331 124.872 8.50946 126.085 7.98382L125.416 6.44L124.747 4.89618C123.56 5.41053 122.633 5.79669 121.535 6.2012L122.116 7.78ZM125.416 6.44L126.091 7.98147C126.789 7.67616 127.533 7.28147 128.1 6.67924C128.736 6.00562 129.059 5.17319 129.059 4.22H127.376H125.694C125.694 4.26656 125.69 4.29601 125.687 4.31194C125.686 4.31999 125.685 4.32529 125.684 4.3283C125.683 4.33128 125.682 4.33272 125.682 4.33304C125.682 4.33335 125.682 4.33341 125.682 4.33353C125.682 4.33367 125.681 4.33469 125.68 4.33676C125.678 4.34054 125.67 4.35189 125.652 4.37076C125.56 4.46853 125.324 4.64384 124.742 4.89853L125.416 6.44ZM127.376 4.22H129.059V3.7H127.376H125.694V4.22H127.376ZM127.376 3.7H129.059C129.059 3.74383 129.048 3.83938 128.991 3.95452C128.934 4.06957 128.855 4.15553 128.781 4.21103C128.651 4.3084 128.588 4.28254 128.676 4.28254V2.6V0.917459C128.084 0.917459 127.372 1.0616 126.762 1.51897C126.091 2.02214 125.694 2.79949 125.694 3.7H127.376ZM128.676 2.6V4.28254C128.764 4.28254 128.702 4.3084 128.572 4.21103C128.498 4.15553 128.418 4.06957 128.361 3.95452C128.304 3.83938 128.294 3.74383 128.294 3.7H129.976H131.659C131.659 2.79949 131.262 2.02214 130.591 1.51897C129.981 1.0616 129.268 0.917459 128.676 0.917459V2.6ZM132.436 17.78H134.119C134.119 17.2008 133.947 16.6202 133.563 16.1166C133.196 15.6356 132.709 15.322 132.226 15.1142C131.299 14.7159 130.079 14.5775 128.676 14.5775V16.26V17.9425C129.953 17.9425 130.614 18.0841 130.897 18.2058C131.018 18.258 130.969 18.2644 130.888 18.1584C130.79 18.0298 130.754 17.8792 130.754 17.78H132.436ZM128.676 16.26V14.5775C127.273 14.5775 126.054 14.7159 125.127 15.1142C124.643 15.322 124.157 15.6356 123.789 16.1166C123.405 16.6202 123.234 17.2008 123.234 17.78H124.916H126.599C126.599 17.8792 126.562 18.0298 126.464 18.1584C126.383 18.2644 126.334 18.258 126.456 18.2058C126.739 18.0841 127.399 17.9425 128.676 17.9425V16.26ZM124.916 17.78H123.234C123.234 18.3591 123.405 18.9398 123.789 19.4434C124.157 19.9244 124.643 20.238 125.127 20.4458C126.054 20.8441 127.273 20.9825 128.676 20.9825V19.3V17.6175C127.399 17.6175 126.739 17.4759 126.456 17.3542C126.334 17.302 126.383 17.2956 126.464 17.4016C126.562 17.5302 126.599 17.6808 126.599 17.78H124.916ZM128.676 19.3V20.9825C130.079 20.9825 131.299 20.8441 132.226 20.4458C132.709 20.238 133.196 19.9244 133.563 19.4434C133.947 18.9398 134.119 18.3591 134.119 17.78H132.436H130.754C130.754 17.6808 130.79 17.5302 130.888 17.4016C130.969 17.2956 131.018 17.302 130.897 17.3542C130.614 17.4759 129.953 17.6175 128.676 17.6175V19.3ZM138.639 9.44H140.322C140.322 7.66076 140.694 6.57277 141.174 5.96016C141.598 5.41915 142.266 5.04254 143.459 5.04254V3.36V1.67746C141.452 1.67746 139.711 2.37084 138.525 3.88484C137.395 5.32723 136.957 7.27923 136.957 9.44H138.639ZM143.459 3.36V5.04254C144.652 5.04254 145.321 5.41915 145.745 5.96016C146.225 6.57277 146.597 7.66076 146.597 9.44H148.279H149.962C149.962 7.27923 149.524 5.32723 148.394 3.88484C147.208 2.37084 145.466 1.67746 143.459 1.67746V3.36ZM148.279 9.44H146.597C146.597 11.2192 146.225 12.3072 145.745 12.9198C145.321 13.4608 144.652 13.8375 143.459 13.8375V15.52V17.2025C145.466 17.2025 147.208 16.5092 148.394 14.9952C149.524 13.5528 149.962 11.6008 149.962 9.44H148.279ZM143.459 15.52V13.8375C142.266 13.8375 141.598 13.4608 141.174 12.9198C140.694 12.3072 140.322 11.2192 140.322 9.44H138.639H136.957C136.957 11.6008 137.395 13.5528 138.525 14.9952C139.711 16.5092 141.452 17.2025 143.459 17.2025V15.52ZM145.819 9.44H147.502C147.502 8.11291 147.352 6.7758 146.752 5.72841C146.431 5.16871 145.977 4.68361 145.367 4.35131C144.766 4.02371 144.111 3.89746 143.459 3.89746V5.58V7.26254C143.678 7.26254 143.753 7.30378 143.757 7.30619C143.762 7.30859 143.766 7.31125 143.774 7.31916C143.782 7.32811 143.804 7.35176 143.832 7.40159C143.977 7.6542 144.137 8.24709 144.137 9.44H145.819ZM143.459 5.58V3.89746C142.808 3.89746 142.153 4.02371 141.552 4.35131C140.942 4.68361 140.488 5.16871 140.167 5.72841C139.567 6.7758 139.417 8.11291 139.417 9.44H141.099H142.782C142.782 8.24709 142.942 7.6542 143.087 7.40159C143.115 7.35176 143.136 7.32811 143.145 7.31916C143.153 7.31125 143.157 7.30859 143.162 7.30619C143.166 7.30378 143.241 7.26254 143.459 7.26254V5.58ZM141.099 9.44H139.417C139.417 10.7671 139.567 12.1042 140.167 13.1516C140.488 13.7113 140.942 14.1964 141.552 14.5287C142.153 14.8563 142.808 14.9825 143.459 14.9825V13.3V11.6175C143.241 11.6175 143.166 11.5762 143.162 11.5738C143.157 11.5714 143.153 11.5687 143.145 11.5608C143.136 11.5519 143.115 11.5282 143.087 11.4784C142.942 11.2258 142.782 10.6329 142.782 9.44H141.099ZM143.459 13.3V14.9825C144.111 14.9825 144.766 14.8563 145.367 14.5287C145.977 14.1964 146.431 13.7113 146.752 13.1516C147.352 12.1042 147.502 10.7671 147.502 9.44H145.819H144.137C144.137 10.6329 143.977 11.2258 143.832 11.4784C143.804 11.5282 143.782 11.5519 143.774 11.5608C143.766 11.5687 143.762 11.5714 143.757 11.5738C143.753 11.5762 143.678 11.6175 143.459 11.6175V13.3ZM153.359 3.42H151.677V18.74H153.359H155.042V3.42H153.359ZM153.359 18.74H151.677C151.677 18.6842 151.69 18.5808 151.75 18.4616C151.81 18.3434 151.892 18.2581 151.964 18.2047C152.09 18.1115 152.148 18.1375 152.059 18.1375V19.82V21.5025C152.651 21.5025 153.359 21.3585 153.965 20.9103C154.631 20.4173 155.042 19.6467 155.042 18.74H153.359ZM152.059 19.82V18.1375C151.99 18.1375 152.053 18.1159 152.179 18.2098C152.251 18.2633 152.331 18.3479 152.389 18.4643C152.449 18.5819 152.462 18.6841 152.462 18.74H150.779H149.097C149.097 19.6454 149.506 20.413 150.165 20.9052C150.765 21.3541 151.468 21.5025 152.059 21.5025V19.82ZM150.779 18.74H152.462V3.42H150.779H149.097V18.74H150.779ZM150.779 3.42H152.462C152.462 3.47585 152.449 3.57806 152.389 3.69566C152.331 3.8121 152.251 3.89667 152.179 3.95023C152.053 4.04414 151.99 4.02254 152.059 4.02254V2.34V0.657459C151.468 0.657459 150.765 0.805856 150.165 1.25477C149.506 1.74703 149.097 2.51462 149.097 3.42H150.779ZM152.059 2.34V4.02254C152.148 4.02254 152.09 4.04845 151.964 3.95526C151.892 3.90186 151.81 3.81661 151.75 3.69841C151.69 3.57922 151.677 3.4758 151.677 3.42H153.359H155.042C155.042 2.51333 154.631 1.74265 153.965 1.24973C153.359 0.801544 152.651 0.657459 152.059 0.657459V2.34Z" fill="#FFFBEB" mask="url(#path-1-outside-1_24_8523)"/>
</g>
<defs>
<filter id="filter0_d_24_8523" x="0.735352" y="0.657227" width="156.307" height="26.3452" filterUnits="userSpaceOnUse" color-interpolation-filters="sRGB">
<feFlood flood-opacity="0" result="BackgroundImageFix"/>
<feColorMatrix in="SourceAlpha" type="matrix" values="0 0 0 0 0 0 0 0 0 0 0 0 0 0 0 0 0 0 127 0" result="hardAlpha"/>
<feOffset dy="2"/>
<feGaussianBlur stdDeviation="1"/>
<feComposite in2="hardAlpha" operator="out"/>
<feColorMatrix type="matrix" values="0 0 0 0 0.580392 0 0 0 0 0.439216 0 0 0 0 0.368627 0 0 0 0.25 0"/>
<feBlend mode="normal" in2="BackgroundImageFix" result="effect1_dropShadow_24_8523"/>
<feBlend mode="normal" in="SourceGraphic" in2="effect1_dropShadow_24_8523" result="shape"/>
</filter>
</defs>
</svg>
