<svg width="125" height="22" viewBox="0 0 125 22" fill="none" xmlns="http://www.w3.org/2000/svg">
<g filter="url(#filter0_d_21_6217)">
<mask id="path-1-outside-1_21_6217" maskUnits="userSpaceOnUse" x="2" y="0" width="121" height="18" fill="black">
<rect fill="white" x="2" width="121" height="18"/>
<path d="M10.6722 4.53H8.71216V5.566C8.71216 6.77 8.96416 7.428 9.73416 8.226C10.2662 8.772 10.7982 9.276 11.2182 9.64C11.5682 9.948 11.4562 10.452 11.1762 10.746C10.8962 11.026 10.4342 11.152 10.0982 10.858C9.73416 10.536 9.27216 10.088 8.76816 9.584C8.04016 8.856 7.87216 8.534 7.81616 8.268H7.80216C7.73216 8.59 7.56416 8.898 6.83616 9.626C6.33216 10.13 5.82816 10.62 5.29616 11.082C4.93216 11.39 4.44216 11.194 4.19016 10.914C3.91016 10.592 3.86816 10.102 4.21816 9.794C4.80616 9.276 5.33816 8.772 5.87016 8.226C6.64016 7.428 6.89216 6.77 6.89216 5.566V4.53H4.82016C4.38616 4.53 4.19016 4.18 4.19016 3.774C4.19016 3.354 4.38616 3.004 4.82016 3.004H10.6722C11.1062 3.004 11.3022 3.354 11.3022 3.774C11.3022 4.18 11.1062 4.53 10.6722 4.53ZM14.0602 6.168H15.3762C15.8242 6.168 16.0202 6.518 16.0202 6.938C16.0202 7.372 15.8242 7.722 15.3762 7.722H14.0602V13.518C14.0602 14.036 13.6262 14.274 13.1642 14.274C12.7022 14.274 12.2682 14.036 12.2682 13.518V2.794C12.2682 2.276 12.7022 2.038 13.1642 2.038C13.6262 2.038 14.0602 2.276 14.0602 2.794V6.168ZM18.0803 8.044C17.1843 8.044 16.8903 7.764 16.8903 6.882V3.228C16.8903 2.71 17.3243 2.472 17.7863 2.472C18.2623 2.472 18.6963 2.71 18.6963 3.228V6.196C18.6963 6.434 18.7803 6.518 19.0183 6.518C20.5583 6.518 22.0003 6.434 23.3583 6.252C23.7923 6.196 24.0443 6.504 24.0863 6.91C24.1283 7.33 23.9883 7.708 23.5823 7.764C22.4343 7.918 20.8243 8.044 18.0803 8.044ZM26.5363 4.6H27.8523C28.3003 4.6 28.4963 4.95 28.4963 5.37C28.4963 5.804 28.3003 6.154 27.8523 6.154H26.5363V7.96C26.5363 8.478 26.1023 8.716 25.6403 8.716C25.1783 8.716 24.7443 8.478 24.7443 7.96V2.794C24.7443 2.276 25.1783 2.038 25.6403 2.038C26.1023 2.038 26.5363 2.276 26.5363 2.794V4.6ZM22.4483 15.436C20.2923 15.436 18.9903 14.75 18.9903 13.476C18.9903 12.202 20.2923 11.516 22.4483 11.516C24.6043 11.516 25.9063 12.202 25.9063 13.476C25.9063 14.75 24.6043 15.436 22.4483 15.436ZM22.4483 12.818C21.1183 12.818 20.6983 13.112 20.6983 13.476C20.6983 13.84 21.1183 14.134 22.4483 14.134C23.7783 14.134 24.1983 13.84 24.1983 13.476C24.1983 13.112 23.7783 12.818 22.4483 12.818ZM26.4663 11.082H18.3603C17.9683 11.082 17.7863 10.746 17.7863 10.382C17.7863 10.032 17.9683 9.696 18.3603 9.696H21.5523V9.276C21.5523 8.758 21.9863 8.52 22.4483 8.52C22.9103 8.52 23.3443 8.758 23.3443 9.276V9.696H26.4663C26.8583 9.696 27.0403 10.032 27.0403 10.382C27.0403 10.746 26.8583 11.082 26.4663 11.082ZM34.5185 4.586H30.4025C29.9685 4.586 29.7725 4.236 29.7725 3.816C29.7725 3.396 29.9685 3.046 30.4025 3.046H35.4285C36.3245 3.046 36.6185 3.326 36.6185 4.208V5.272C36.6185 6.532 36.4785 7.82 36.2685 8.59C36.1565 9.01 35.7225 9.206 35.2045 9.108C34.7565 9.024 34.4485 8.73 34.5465 8.226C34.7425 7.274 34.8405 6.322 34.8405 5.37V4.908C34.8405 4.67 34.7565 4.586 34.5185 4.586ZM38.0885 13.518V2.794C38.0885 2.276 38.5225 2.038 38.9845 2.038C39.4325 2.038 39.8665 2.276 39.8665 2.794V13.518C39.8665 14.036 39.4325 14.274 38.9845 14.274C38.5225 14.274 38.0885 14.036 38.0885 13.518ZM36.9965 11.796C35.1345 11.964 32.3625 12.062 29.6745 12.062C29.2405 12.062 29.0445 11.712 29.0445 11.306C29.0445 10.9 29.2405 10.55 29.6745 10.55H31.4105V7.54C31.4105 7.022 31.8445 6.784 32.2925 6.784C32.7405 6.784 33.1745 7.022 33.1745 7.54V10.522C34.4205 10.48 35.6525 10.424 36.8705 10.312C37.3045 10.27 37.5145 10.578 37.5425 10.984C37.5705 11.376 37.4165 11.754 36.9965 11.796ZM50.6067 4.152H47.1347C46.8967 4.152 46.8127 4.236 46.8127 4.474V5.216H50.4807C50.9007 5.216 51.0967 5.552 51.0967 5.944C51.0967 6.336 50.9007 6.672 50.4807 6.672H46.8127V7.428C46.8127 7.666 46.8967 7.75 47.1347 7.75C48.7447 7.75 50.1867 7.666 51.5447 7.484C51.9787 7.428 52.2307 7.722 52.2727 8.114C52.3147 8.52 52.1747 8.898 51.7687 8.954C50.6207 9.108 49.0107 9.234 46.2387 9.234C45.3427 9.234 45.0487 8.954 45.0487 8.072V3.83C45.0487 2.948 45.3427 2.668 46.2387 2.668H50.6067C51.0407 2.668 51.2367 3.018 51.2367 3.41C51.2367 3.802 51.0407 4.152 50.6067 4.152ZM54.7227 5.048H56.0387C56.4867 5.048 56.6827 5.398 56.6827 5.818C56.6827 6.252 56.4867 6.602 56.0387 6.602H54.7227V8.94C54.7227 9.458 54.2887 9.696 53.8267 9.696C53.3647 9.696 52.9307 9.458 52.9307 8.94V2.794C52.9307 2.276 53.3647 2.038 53.8267 2.038C54.2887 2.038 54.7227 2.276 54.7227 2.794V5.048ZM53.5327 15.016H47.6247C46.7287 15.016 46.4347 14.736 46.4347 13.854V11.376C46.4347 10.494 46.7287 10.214 47.6247 10.214H53.5327C54.4287 10.214 54.7227 10.494 54.7227 11.376V13.854C54.7227 14.736 54.4287 15.016 53.5327 15.016ZM48.5347 13.546H52.6227C52.8607 13.546 52.9447 13.462 52.9447 13.224V12.006C52.9447 11.768 52.8607 11.684 52.6227 11.684H48.5347C48.2967 11.684 48.2127 11.768 48.2127 12.006V13.224C48.2127 13.462 48.2967 13.546 48.5347 13.546ZM61.0389 5.3C62.9289 5.3 64.0909 6.14 64.0909 7.54C64.0909 8.94 62.9289 9.78 61.0389 9.78C59.1489 9.78 57.9869 8.94 57.9869 7.54C57.9869 6.14 59.1489 5.3 61.0389 5.3ZM57.8329 3.312H60.1429V2.654C60.1429 2.136 60.5769 1.898 61.0389 1.898C61.5009 1.898 61.9349 2.136 61.9349 2.654V3.312H64.1049C64.5389 3.312 64.7349 3.662 64.7349 4.068C64.7349 4.46 64.5389 4.81 64.1049 4.81H57.8329C57.3989 4.81 57.2029 4.46 57.2029 4.068C57.2029 3.662 57.3989 3.312 57.8329 3.312ZM61.0389 8.422C62.0189 8.422 62.4809 8.058 62.4809 7.54C62.4809 7.022 62.0189 6.658 61.0389 6.658C60.0589 6.658 59.5969 7.022 59.5969 7.54C59.5969 8.058 60.0589 8.422 61.0389 8.422ZM66.1209 9.164V7.498H65.0709C64.6229 7.498 64.4269 7.148 64.4269 6.728C64.4269 6.308 64.6229 5.958 65.0709 5.958H66.1209V2.794C66.1209 2.276 66.5549 2.038 67.0029 2.038C67.4509 2.038 67.8849 2.276 67.8849 2.794V9.164C67.8849 9.682 67.4509 9.92 67.0029 9.92C66.5549 9.92 66.1209 9.682 66.1209 9.164ZM66.6949 15.016H60.5909C59.6949 15.016 59.4009 14.736 59.4009 13.854V11.6C59.4009 10.718 59.6949 10.438 60.5909 10.438H66.6949C67.5909 10.438 67.8849 10.718 67.8849 11.6V13.854C67.8849 14.736 67.5909 15.016 66.6949 15.016ZM61.4729 13.574H65.8129C66.0509 13.574 66.1349 13.49 66.1349 13.252V12.202C66.1349 11.964 66.0509 11.88 65.8129 11.88H61.4729C61.2349 11.88 61.1509 11.964 61.1509 12.202V13.252C61.1509 13.49 61.2349 13.574 61.4729 13.574ZM73.8511 4.53H70.5751C70.1411 4.53 69.9451 4.18 69.9451 3.774C69.9451 3.354 70.1411 3.004 70.5751 3.004H74.7611C75.6571 3.004 75.9511 3.284 75.9511 4.166V5.692C75.9511 8.058 75.3071 8.87 71.0791 11.474C70.6871 11.712 70.2111 11.502 69.9871 11.166C69.7631 10.83 69.7211 10.298 70.1271 10.046C73.9351 7.722 74.1731 7.302 74.1731 5.636V4.852C74.1731 4.614 74.0891 4.53 73.8511 4.53ZM79.6751 6.168H80.9911C81.4391 6.168 81.6351 6.518 81.6351 6.938C81.6351 7.372 81.4391 7.722 80.9911 7.722H79.6751V13.518C79.6751 14.036 79.2411 14.274 78.7791 14.274C78.3171 14.274 77.8831 14.036 77.8831 13.518V2.794C77.8831 2.276 78.3171 2.038 78.7791 2.038C79.2411 2.038 79.6751 2.276 79.6751 2.794V6.168ZM93.5093 4.432H87.3773C86.9433 4.432 86.7473 4.082 86.7473 3.676C86.7473 3.256 86.9433 2.906 87.3773 2.906H94.4053C95.3013 2.906 95.5953 3.186 95.5953 4.068V5.356C95.5953 7.26 95.4413 8.548 95.1753 9.71C95.0633 10.214 94.5873 10.396 94.0833 10.298C93.6633 10.214 93.3413 9.92 93.4393 9.43C93.5793 8.772 93.6773 8.198 93.7333 7.568L87.1393 7.708C86.6773 7.722 86.4813 7.386 86.4673 6.966C86.4533 6.546 86.6493 6.168 87.0833 6.168L93.8173 6.098C93.8313 5.86 93.8313 5.594 93.8313 5.314V4.754C93.8313 4.516 93.7473 4.432 93.5093 4.432ZM91.1853 11.614H96.4773C96.9113 11.614 97.1073 11.964 97.1073 12.37C97.1073 12.776 96.9113 13.126 96.4773 13.126H85.8933C85.4593 13.126 85.2633 12.776 85.2633 12.37C85.2633 11.964 85.4593 11.614 85.8933 11.614H89.3933V9.5C89.3933 8.982 89.8273 8.744 90.2893 8.744C90.7513 8.744 91.1853 8.982 91.1853 9.5V11.614ZM101.505 10.704C103.395 8.506 103.605 8.016 103.605 6.14V4.838C103.605 4.6 103.521 4.516 103.283 4.516H102.695C102.275 4.516 102.079 4.166 102.079 3.76C102.079 3.34 102.275 2.99 102.695 2.99H104.123C105.019 2.99 105.313 3.27 105.313 4.152V6.21C105.313 8.394 105.033 9.15 102.793 11.754C102.457 12.146 101.953 12.034 101.645 11.768C101.323 11.488 101.183 11.068 101.505 10.704ZM98.1035 9.612C99.8955 7.764 100.035 7.442 100.035 5.818V4.838C100.035 4.6 99.9515 4.516 99.7135 4.516H98.8595C98.4255 4.516 98.2295 4.166 98.2295 3.76C98.2295 3.34 98.4255 2.99 98.8595 2.99H100.553C101.505 2.99 101.743 3.214 101.743 4.152V5.888C101.743 7.876 101.477 8.464 99.2795 10.732C98.9295 11.082 98.4815 10.97 98.1875 10.69C97.8795 10.396 97.7535 9.962 98.1035 9.612ZM108.631 2.78V13.532C108.631 14.036 108.211 14.274 107.749 14.274C107.301 14.274 106.881 14.036 106.881 13.532V2.78C106.881 2.276 107.301 2.038 107.749 2.038C108.211 2.038 108.631 2.276 108.631 2.78ZM114.836 4.404H111.56C111.126 4.404 110.93 4.054 110.93 3.648C110.93 3.242 111.126 2.892 111.56 2.892H115.732C116.628 2.892 116.922 3.172 116.922 4.054V6.658C116.922 7.54 116.628 7.82 115.732 7.82H113.03C112.792 7.82 112.708 7.904 112.708 8.142V9.528C112.708 9.766 112.792 9.85 113.03 9.85C114.78 9.85 116.222 9.766 117.58 9.584C118.014 9.528 118.266 9.836 118.308 10.228C118.35 10.648 118.21 11.026 117.804 11.082C116.656 11.236 115.046 11.362 112.134 11.362C111.238 11.362 110.944 11.082 110.944 10.2V7.526C110.944 6.644 111.238 6.364 112.134 6.364H114.836C115.074 6.364 115.158 6.28 115.158 6.042V4.726C115.158 4.488 115.074 4.404 114.836 4.404ZM120.94 2.794V13.518C120.94 14.036 120.506 14.274 120.03 14.274C119.568 14.274 119.134 14.036 119.134 13.518V2.794C119.134 2.276 119.568 2.038 120.03 2.038C120.506 2.038 120.94 2.276 120.94 2.794Z"/>
</mask>
<path d="M10.6722 4.53H8.71216V5.566C8.71216 6.77 8.96416 7.428 9.73416 8.226C10.2662 8.772 10.7982 9.276 11.2182 9.64C11.5682 9.948 11.4562 10.452 11.1762 10.746C10.8962 11.026 10.4342 11.152 10.0982 10.858C9.73416 10.536 9.27216 10.088 8.76816 9.584C8.04016 8.856 7.87216 8.534 7.81616 8.268H7.80216C7.73216 8.59 7.56416 8.898 6.83616 9.626C6.33216 10.13 5.82816 10.62 5.29616 11.082C4.93216 11.39 4.44216 11.194 4.19016 10.914C3.91016 10.592 3.86816 10.102 4.21816 9.794C4.80616 9.276 5.33816 8.772 5.87016 8.226C6.64016 7.428 6.89216 6.77 6.89216 5.566V4.53H4.82016C4.38616 4.53 4.19016 4.18 4.19016 3.774C4.19016 3.354 4.38616 3.004 4.82016 3.004H10.6722C11.1062 3.004 11.3022 3.354 11.3022 3.774C11.3022 4.18 11.1062 4.53 10.6722 4.53ZM14.0602 6.168H15.3762C15.8242 6.168 16.0202 6.518 16.0202 6.938C16.0202 7.372 15.8242 7.722 15.3762 7.722H14.0602V13.518C14.0602 14.036 13.6262 14.274 13.1642 14.274C12.7022 14.274 12.2682 14.036 12.2682 13.518V2.794C12.2682 2.276 12.7022 2.038 13.1642 2.038C13.6262 2.038 14.0602 2.276 14.0602 2.794V6.168ZM18.0803 8.044C17.1843 8.044 16.8903 7.764 16.8903 6.882V3.228C16.8903 2.71 17.3243 2.472 17.7863 2.472C18.2623 2.472 18.6963 2.71 18.6963 3.228V6.196C18.6963 6.434 18.7803 6.518 19.0183 6.518C20.5583 6.518 22.0003 6.434 23.3583 6.252C23.7923 6.196 24.0443 6.504 24.0863 6.91C24.1283 7.33 23.9883 7.708 23.5823 7.764C22.4343 7.918 20.8243 8.044 18.0803 8.044ZM26.5363 4.6H27.8523C28.3003 4.6 28.4963 4.95 28.4963 5.37C28.4963 5.804 28.3003 6.154 27.8523 6.154H26.5363V7.96C26.5363 8.478 26.1023 8.716 25.6403 8.716C25.1783 8.716 24.7443 8.478 24.7443 7.96V2.794C24.7443 2.276 25.1783 2.038 25.6403 2.038C26.1023 2.038 26.5363 2.276 26.5363 2.794V4.6ZM22.4483 15.436C20.2923 15.436 18.9903 14.75 18.9903 13.476C18.9903 12.202 20.2923 11.516 22.4483 11.516C24.6043 11.516 25.9063 12.202 25.9063 13.476C25.9063 14.75 24.6043 15.436 22.4483 15.436ZM22.4483 12.818C21.1183 12.818 20.6983 13.112 20.6983 13.476C20.6983 13.84 21.1183 14.134 22.4483 14.134C23.7783 14.134 24.1983 13.84 24.1983 13.476C24.1983 13.112 23.7783 12.818 22.4483 12.818ZM26.4663 11.082H18.3603C17.9683 11.082 17.7863 10.746 17.7863 10.382C17.7863 10.032 17.9683 9.696 18.3603 9.696H21.5523V9.276C21.5523 8.758 21.9863 8.52 22.4483 8.52C22.9103 8.52 23.3443 8.758 23.3443 9.276V9.696H26.4663C26.8583 9.696 27.0403 10.032 27.0403 10.382C27.0403 10.746 26.8583 11.082 26.4663 11.082ZM34.5185 4.586H30.4025C29.9685 4.586 29.7725 4.236 29.7725 3.816C29.7725 3.396 29.9685 3.046 30.4025 3.046H35.4285C36.3245 3.046 36.6185 3.326 36.6185 4.208V5.272C36.6185 6.532 36.4785 7.82 36.2685 8.59C36.1565 9.01 35.7225 9.206 35.2045 9.108C34.7565 9.024 34.4485 8.73 34.5465 8.226C34.7425 7.274 34.8405 6.322 34.8405 5.37V4.908C34.8405 4.67 34.7565 4.586 34.5185 4.586ZM38.0885 13.518V2.794C38.0885 2.276 38.5225 2.038 38.9845 2.038C39.4325 2.038 39.8665 2.276 39.8665 2.794V13.518C39.8665 14.036 39.4325 14.274 38.9845 14.274C38.5225 14.274 38.0885 14.036 38.0885 13.518ZM36.9965 11.796C35.1345 11.964 32.3625 12.062 29.6745 12.062C29.2405 12.062 29.0445 11.712 29.0445 11.306C29.0445 10.9 29.2405 10.55 29.6745 10.55H31.4105V7.54C31.4105 7.022 31.8445 6.784 32.2925 6.784C32.7405 6.784 33.1745 7.022 33.1745 7.54V10.522C34.4205 10.48 35.6525 10.424 36.8705 10.312C37.3045 10.27 37.5145 10.578 37.5425 10.984C37.5705 11.376 37.4165 11.754 36.9965 11.796ZM50.6067 4.152H47.1347C46.8967 4.152 46.8127 4.236 46.8127 4.474V5.216H50.4807C50.9007 5.216 51.0967 5.552 51.0967 5.944C51.0967 6.336 50.9007 6.672 50.4807 6.672H46.8127V7.428C46.8127 7.666 46.8967 7.75 47.1347 7.75C48.7447 7.75 50.1867 7.666 51.5447 7.484C51.9787 7.428 52.2307 7.722 52.2727 8.114C52.3147 8.52 52.1747 8.898 51.7687 8.954C50.6207 9.108 49.0107 9.234 46.2387 9.234C45.3427 9.234 45.0487 8.954 45.0487 8.072V3.83C45.0487 2.948 45.3427 2.668 46.2387 2.668H50.6067C51.0407 2.668 51.2367 3.018 51.2367 3.41C51.2367 3.802 51.0407 4.152 50.6067 4.152ZM54.7227 5.048H56.0387C56.4867 5.048 56.6827 5.398 56.6827 5.818C56.6827 6.252 56.4867 6.602 56.0387 6.602H54.7227V8.94C54.7227 9.458 54.2887 9.696 53.8267 9.696C53.3647 9.696 52.9307 9.458 52.9307 8.94V2.794C52.9307 2.276 53.3647 2.038 53.8267 2.038C54.2887 2.038 54.7227 2.276 54.7227 2.794V5.048ZM53.5327 15.016H47.6247C46.7287 15.016 46.4347 14.736 46.4347 13.854V11.376C46.4347 10.494 46.7287 10.214 47.6247 10.214H53.5327C54.4287 10.214 54.7227 10.494 54.7227 11.376V13.854C54.7227 14.736 54.4287 15.016 53.5327 15.016ZM48.5347 13.546H52.6227C52.8607 13.546 52.9447 13.462 52.9447 13.224V12.006C52.9447 11.768 52.8607 11.684 52.6227 11.684H48.5347C48.2967 11.684 48.2127 11.768 48.2127 12.006V13.224C48.2127 13.462 48.2967 13.546 48.5347 13.546ZM61.0389 5.3C62.9289 5.3 64.0909 6.14 64.0909 7.54C64.0909 8.94 62.9289 9.78 61.0389 9.78C59.1489 9.78 57.9869 8.94 57.9869 7.54C57.9869 6.14 59.1489 5.3 61.0389 5.3ZM57.8329 3.312H60.1429V2.654C60.1429 2.136 60.5769 1.898 61.0389 1.898C61.5009 1.898 61.9349 2.136 61.9349 2.654V3.312H64.1049C64.5389 3.312 64.7349 3.662 64.7349 4.068C64.7349 4.46 64.5389 4.81 64.1049 4.81H57.8329C57.3989 4.81 57.2029 4.46 57.2029 4.068C57.2029 3.662 57.3989 3.312 57.8329 3.312ZM61.0389 8.422C62.0189 8.422 62.4809 8.058 62.4809 7.54C62.4809 7.022 62.0189 6.658 61.0389 6.658C60.0589 6.658 59.5969 7.022 59.5969 7.54C59.5969 8.058 60.0589 8.422 61.0389 8.422ZM66.1209 9.164V7.498H65.0709C64.6229 7.498 64.4269 7.148 64.4269 6.728C64.4269 6.308 64.6229 5.958 65.0709 5.958H66.1209V2.794C66.1209 2.276 66.5549 2.038 67.0029 2.038C67.4509 2.038 67.8849 2.276 67.8849 2.794V9.164C67.8849 9.682 67.4509 9.92 67.0029 9.92C66.5549 9.92 66.1209 9.682 66.1209 9.164ZM66.6949 15.016H60.5909C59.6949 15.016 59.4009 14.736 59.4009 13.854V11.6C59.4009 10.718 59.6949 10.438 60.5909 10.438H66.6949C67.5909 10.438 67.8849 10.718 67.8849 11.6V13.854C67.8849 14.736 67.5909 15.016 66.6949 15.016ZM61.4729 13.574H65.8129C66.0509 13.574 66.1349 13.49 66.1349 13.252V12.202C66.1349 11.964 66.0509 11.88 65.8129 11.88H61.4729C61.2349 11.88 61.1509 11.964 61.1509 12.202V13.252C61.1509 13.49 61.2349 13.574 61.4729 13.574ZM73.8511 4.53H70.5751C70.1411 4.53 69.9451 4.18 69.9451 3.774C69.9451 3.354 70.1411 3.004 70.5751 3.004H74.7611C75.6571 3.004 75.9511 3.284 75.9511 4.166V5.692C75.9511 8.058 75.3071 8.87 71.0791 11.474C70.6871 11.712 70.2111 11.502 69.9871 11.166C69.7631 10.83 69.7211 10.298 70.1271 10.046C73.9351 7.722 74.1731 7.302 74.1731 5.636V4.852C74.1731 4.614 74.0891 4.53 73.8511 4.53ZM79.6751 6.168H80.9911C81.4391 6.168 81.6351 6.518 81.6351 6.938C81.6351 7.372 81.4391 7.722 80.9911 7.722H79.6751V13.518C79.6751 14.036 79.2411 14.274 78.7791 14.274C78.3171 14.274 77.8831 14.036 77.8831 13.518V2.794C77.8831 2.276 78.3171 2.038 78.7791 2.038C79.2411 2.038 79.6751 2.276 79.6751 2.794V6.168ZM93.5093 4.432H87.3773C86.9433 4.432 86.7473 4.082 86.7473 3.676C86.7473 3.256 86.9433 2.906 87.3773 2.906H94.4053C95.3013 2.906 95.5953 3.186 95.5953 4.068V5.356C95.5953 7.26 95.4413 8.548 95.1753 9.71C95.0633 10.214 94.5873 10.396 94.0833 10.298C93.6633 10.214 93.3413 9.92 93.4393 9.43C93.5793 8.772 93.6773 8.198 93.7333 7.568L87.1393 7.708C86.6773 7.722 86.4813 7.386 86.4673 6.966C86.4533 6.546 86.6493 6.168 87.0833 6.168L93.8173 6.098C93.8313 5.86 93.8313 5.594 93.8313 5.314V4.754C93.8313 4.516 93.7473 4.432 93.5093 4.432ZM91.1853 11.614H96.4773C96.9113 11.614 97.1073 11.964 97.1073 12.37C97.1073 12.776 96.9113 13.126 96.4773 13.126H85.8933C85.4593 13.126 85.2633 12.776 85.2633 12.37C85.2633 11.964 85.4593 11.614 85.8933 11.614H89.3933V9.5C89.3933 8.982 89.8273 8.744 90.2893 8.744C90.7513 8.744 91.1853 8.982 91.1853 9.5V11.614ZM101.505 10.704C103.395 8.506 103.605 8.016 103.605 6.14V4.838C103.605 4.6 103.521 4.516 103.283 4.516H102.695C102.275 4.516 102.079 4.166 102.079 3.76C102.079 3.34 102.275 2.99 102.695 2.99H104.123C105.019 2.99 105.313 3.27 105.313 4.152V6.21C105.313 8.394 105.033 9.15 102.793 11.754C102.457 12.146 101.953 12.034 101.645 11.768C101.323 11.488 101.183 11.068 101.505 10.704ZM98.1035 9.612C99.8955 7.764 100.035 7.442 100.035 5.818V4.838C100.035 4.6 99.9515 4.516 99.7135 4.516H98.8595C98.4255 4.516 98.2295 4.166 98.2295 3.76C98.2295 3.34 98.4255 2.99 98.8595 2.99H100.553C101.505 2.99 101.743 3.214 101.743 4.152V5.888C101.743 7.876 101.477 8.464 99.2795 10.732C98.9295 11.082 98.4815 10.97 98.1875 10.69C97.8795 10.396 97.7535 9.962 98.1035 9.612ZM108.631 2.78V13.532C108.631 14.036 108.211 14.274 107.749 14.274C107.301 14.274 106.881 14.036 106.881 13.532V2.78C106.881 2.276 107.301 2.038 107.749 2.038C108.211 2.038 108.631 2.276 108.631 2.78ZM114.836 4.404H111.56C111.126 4.404 110.93 4.054 110.93 3.648C110.93 3.242 111.126 2.892 111.56 2.892H115.732C116.628 2.892 116.922 3.172 116.922 4.054V6.658C116.922 7.54 116.628 7.82 115.732 7.82H113.03C112.792 7.82 112.708 7.904 112.708 8.142V9.528C112.708 9.766 112.792 9.85 113.03 9.85C114.78 9.85 116.222 9.766 117.58 9.584C118.014 9.528 118.266 9.836 118.308 10.228C118.35 10.648 118.21 11.026 117.804 11.082C116.656 11.236 115.046 11.362 112.134 11.362C111.238 11.362 110.944 11.082 110.944 10.2V7.526C110.944 6.644 111.238 6.364 112.134 6.364H114.836C115.074 6.364 115.158 6.28 115.158 6.042V4.726C115.158 4.488 115.074 4.404 114.836 4.404ZM120.94 2.794V13.518C120.94 14.036 120.506 14.274 120.03 14.274C119.568 14.274 119.134 14.036 119.134 13.518V2.794C119.134 2.276 119.568 2.038 120.03 2.038C120.506 2.038 120.94 2.276 120.94 2.794Z" fill="#745F56"/>
<path d="M8.71216 4.53V2.84746H7.02962V4.53H8.71216ZM9.73416 8.226L8.52336 9.39432L8.52907 9.40018L9.73416 8.226ZM11.2182 9.64L12.3297 8.37686L12.3201 8.36852L11.2182 9.64ZM11.1762 10.746L12.3659 11.9357L12.3804 11.9212L12.3945 11.9064L11.1762 10.746ZM10.0982 10.858L8.98334 12.1182L8.9902 12.1242L10.0982 10.858ZM7.81616 8.268L9.46261 7.92138L9.18136 6.58546H7.81616V8.268ZM7.80216 8.268V6.58546H6.44609L6.15802 7.91058L7.80216 8.268ZM5.29616 11.082L6.38298 12.3664L6.39122 12.3595L6.39938 12.3524L5.29616 11.082ZM4.19016 10.914L2.9205 12.018L2.92993 12.0289L2.93954 12.0396L4.19016 10.914ZM4.21816 9.794L5.32969 11.0571L5.33037 11.0565L4.21816 9.794ZM5.87016 8.226L7.07526 9.4002L7.08095 9.3943L5.87016 8.226ZM6.89216 4.53H8.5747V2.84746H6.89216V4.53ZM14.0602 6.168H12.3776V7.85054H14.0602V6.168ZM14.0602 7.722V6.03946H12.3776V7.722H14.0602ZM10.6722 4.53V2.84746H8.71216V4.53V6.21254H10.6722V4.53ZM8.71216 4.53H7.02962V5.566H8.71216H10.3947V4.53H8.71216ZM8.71216 5.566H7.02962C7.02962 6.27893 7.10271 6.97169 7.36368 7.65136C7.62877 8.34177 8.03867 8.89197 8.52337 9.3943L9.73416 8.226L10.9449 7.0577C10.6596 6.76202 10.5585 6.58423 10.5051 6.44514C10.4476 6.29531 10.3947 6.05707 10.3947 5.566H8.71216ZM9.73416 8.226L8.52907 9.40018C9.08707 9.97286 9.65363 10.5106 10.1162 10.9115L11.2182 9.64L12.3201 8.36852C11.9427 8.04143 11.4452 7.57114 10.9392 7.05181L9.73416 8.226ZM11.2182 9.64L10.1066 10.9031C9.82041 10.6512 9.7339 10.2953 9.75851 10.038C9.77859 9.82817 9.864 9.68408 9.95777 9.58563L11.1762 10.746L12.3945 11.9064C12.7683 11.5139 13.0497 10.9708 13.1083 10.3585C13.1714 9.69868 12.9659 8.93676 12.3297 8.37689L11.2182 9.64ZM11.1762 10.746L9.98642 9.55627C10.0685 9.47414 10.1998 9.38557 10.4012 9.35445C10.6404 9.31748 10.957 9.37377 11.2061 9.59176L10.0982 10.858L8.9902 12.1242C10.2519 13.2283 11.7364 12.5652 12.3659 11.9357L11.1762 10.746ZM10.0982 10.858L11.213 9.59778C10.8894 9.31159 10.4575 8.89387 9.95789 8.39426L8.76816 9.584L7.57842 10.7737C8.08682 11.2821 8.57887 11.7604 8.98335 12.1182L10.0982 10.858ZM8.76816 9.584L9.95789 8.39426C9.62512 8.06149 9.484 7.88342 9.42906 7.80307C9.40586 7.76914 9.41064 7.77069 9.42438 7.80171C9.44045 7.83797 9.45413 7.88112 9.46261 7.92138L7.81616 8.268L6.16971 8.61462C6.33402 9.39509 6.81995 10.0153 7.57842 10.7737L8.76816 9.584ZM7.81616 8.268V6.58546H7.80216V8.268V9.95054H7.81616V8.268ZM7.80216 8.268L6.15802 7.91058C6.15968 7.90292 6.16659 7.87624 6.17962 7.84611C6.19122 7.81925 6.1957 7.8176 6.17501 7.848C6.12206 7.92579 5.9855 8.09719 5.64642 8.43626L6.83616 9.626L8.02589 10.8157C8.79346 10.0482 9.26731 9.44877 9.4463 8.62542L7.80216 8.268ZM6.83616 9.626L5.64642 8.43626C5.15095 8.93173 4.67991 9.38873 4.19294 9.81163L5.29616 11.082L6.39938 12.3524C6.97641 11.8513 7.51336 11.3283 8.02589 10.8157L6.83616 9.626ZM5.29616 11.082L4.20933 9.79757C4.33586 9.69051 4.49588 9.61168 4.66976 9.5763C4.83588 9.5425 4.97674 9.55561 5.07529 9.57808C5.24809 9.61749 5.35919 9.69779 5.44078 9.78844L4.19016 10.914L2.93954 12.0396C3.27312 12.4102 3.75523 12.7285 4.32703 12.8589C4.94522 12.9999 5.72659 12.9218 6.38298 12.3664L5.29616 11.082ZM4.19016 10.914L5.45981 9.80995C5.56173 9.92716 5.64838 10.1037 5.65038 10.3341C5.65265 10.5944 5.54138 10.8708 5.32969 11.0571L4.21816 9.794L3.10663 8.53089C1.88986 9.60165 2.19558 11.1844 2.9205 12.018L4.19016 10.914ZM4.21816 9.794L5.33037 11.0565C5.94838 10.5121 6.51157 9.97869 7.07524 9.40018L5.87016 8.226L4.66507 7.05182C4.16475 7.56531 3.66393 8.03993 3.10595 8.53149L4.21816 9.794ZM5.87016 8.226L7.08095 9.3943C7.56565 8.89197 7.97555 8.34177 8.24064 7.65136C8.50161 6.97169 8.5747 6.27893 8.5747 5.566H6.89216H5.20962C5.20962 6.05707 5.1567 6.29531 5.09918 6.44514C5.04577 6.58423 4.94467 6.76202 4.65937 7.0577L5.87016 8.226ZM6.89216 5.566H8.5747V4.53H6.89216H5.20962V5.566H6.89216ZM6.89216 4.53V2.84746H4.82016V4.53V6.21254H6.89216V4.53ZM4.82016 4.53V2.84746C4.94242 2.84746 5.10741 2.87346 5.28276 2.95993C5.45867 3.04667 5.59512 3.16977 5.69049 3.29746C5.86723 3.53412 5.8727 3.73549 5.8727 3.774H4.19016H2.50762C2.50762 4.21851 2.61108 4.79788 2.99433 5.31104C3.42495 5.88763 4.08888 6.21254 4.82016 6.21254V4.53ZM4.19016 3.774H5.8727C5.8727 3.79515 5.87189 3.99238 5.69652 4.23016C5.60143 4.35909 5.46419 4.48433 5.28609 4.57264C5.10881 4.66055 4.94234 4.68654 4.82016 4.68654V3.004V1.32146C4.08737 1.32146 3.41957 1.64806 2.9883 2.23284C2.60643 2.75062 2.50762 3.33285 2.50762 3.774H4.19016ZM4.82016 3.004V4.68654H10.6722V3.004V1.32146H4.82016V3.004ZM10.6722 3.004V4.68654C10.55 4.68654 10.3835 4.66055 10.2062 4.57264C10.0281 4.48433 9.89089 4.35909 9.7958 4.23016C9.62043 3.99238 9.61962 3.79514 9.61962 3.774H11.3022H12.9847C12.9847 3.33285 12.8859 2.75062 12.504 2.23284C12.0727 1.64806 11.4049 1.32146 10.6722 1.32146V3.004ZM11.3022 3.774H9.61962C9.61962 3.73549 9.62508 3.53412 9.80183 3.29746C9.89719 3.16977 10.0336 3.04667 10.2096 2.95993C10.3849 2.87346 10.5499 2.84746 10.6722 2.84746V4.53V6.21254C11.4034 6.21254 12.0674 5.88763 12.498 5.31104C12.8812 4.79788 12.9847 4.21851 12.9847 3.774H11.3022ZM14.0602 6.168V7.85054H15.3762V6.168V4.48546H14.0602V6.168ZM15.3762 6.168V7.85054C15.2655 7.85054 15.1065 7.82779 14.9329 7.7438C14.7575 7.65889 14.6184 7.53608 14.5201 7.40502C14.3384 7.16268 14.3376 6.95879 14.3376 6.938H16.0202H17.7027C17.7027 6.49721 17.6039 5.90832 17.2122 5.38598C16.7701 4.79658 16.0968 4.48546 15.3762 4.48546V6.168ZM16.0202 6.938H14.3376C14.3376 6.93422 14.334 6.73446 14.5141 6.49126C14.6121 6.35896 14.752 6.23403 14.9296 6.14758C15.1051 6.06219 15.2656 6.03946 15.3762 6.03946V7.722V9.40454C16.0982 9.40454 16.7755 9.09183 17.2182 8.49424C17.6083 7.96754 17.7027 7.37578 17.7027 6.938H16.0202ZM15.3762 7.722V6.03946H14.0602V7.722V9.40454H15.3762V7.722ZM14.0602 7.722H12.3776V13.518H14.0602H15.7427V7.722H14.0602ZM14.0602 13.518H12.3776C12.3776 13.4066 12.4026 13.2564 12.4823 13.0981C12.5614 12.9408 12.6709 12.8227 12.7782 12.7425C12.9751 12.5954 13.1341 12.5915 13.1642 12.5915V14.274V15.9565C13.6562 15.9565 14.2633 15.8336 14.7927 15.438C15.3801 14.999 15.7427 14.3124 15.7427 13.518H14.0602ZM13.1642 14.274V12.5915C13.1942 12.5915 13.3533 12.5954 13.5502 12.7425C13.6574 12.8227 13.7669 12.9408 13.846 13.0981C13.9258 13.2564 13.9507 13.4066 13.9507 13.518H12.2682H10.5856C10.5856 14.3124 10.9482 14.999 11.5357 15.438C12.0651 15.8336 12.6721 15.9565 13.1642 15.9565V14.274ZM12.2682 13.518H13.9507V2.794H12.2682H10.5856V13.518H12.2682ZM12.2682 2.794H13.9507C13.9507 2.90535 13.9258 3.05556 13.846 3.21394C13.7669 3.37116 13.6574 3.4893 13.5502 3.56948C13.3533 3.71664 13.1942 3.72054 13.1642 3.72054V2.038V0.35546C12.6721 0.35546 12.0651 0.478357 11.5357 0.874017C10.9482 1.31303 10.5856 1.99962 10.5856 2.794H12.2682ZM13.1642 2.038V3.72054C13.1341 3.72054 12.9751 3.71664 12.7782 3.56948C12.6709 3.4893 12.5614 3.37116 12.4823 3.21394C12.4026 3.05556 12.3776 2.90535 12.3776 2.794H14.0602H15.7427C15.7427 1.99962 15.3801 1.31303 14.7927 0.874017C14.2633 0.478357 13.6562 0.35546 13.1642 0.35546V2.038ZM14.0602 2.794H12.3776V6.168H14.0602H15.7427V2.794H14.0602ZM23.3583 6.252L23.143 4.58327L23.1348 4.58437L23.3583 6.252ZM24.0863 6.91L25.7605 6.74258L25.76 6.73687L24.0863 6.91ZM23.5823 7.764L23.8061 9.43161L23.8122 9.43076L23.5823 7.764ZM26.5363 4.6H24.8538V6.28254H26.5363V4.6ZM26.5363 6.154V4.47146H24.8538V6.154H26.5363ZM21.5523 9.696V11.3785H23.2349V9.696H21.5523ZM23.3443 9.696H21.6618V11.3785H23.3443V9.696ZM18.0803 8.044V6.36146C17.9298 6.36146 17.9015 6.34809 17.9408 6.35834C17.9955 6.37258 18.1575 6.42734 18.3219 6.58706C18.4886 6.74903 18.5524 6.91651 18.5719 6.98716C18.5864 7.03943 18.5729 7.02355 18.5729 6.882H16.8903H15.2078C15.2078 7.41308 15.2736 8.31717 15.9768 9.00044C16.6659 9.67006 17.5603 9.72654 18.0803 9.72654V8.044ZM16.8903 6.882H18.5729V3.228H16.8903H15.2078V6.882H16.8903ZM16.8903 3.228H18.5729C18.5729 3.33935 18.5479 3.48956 18.4682 3.64794C18.3891 3.80516 18.2796 3.9233 18.1723 4.00348C17.9754 4.15064 17.8164 4.15454 17.7863 4.15454V2.472V0.78946C17.2943 0.78946 16.6872 0.912357 16.1578 1.30802C15.5704 1.74703 15.2078 2.43362 15.2078 3.228H16.8903ZM17.7863 2.472V4.15454C17.7725 4.15454 17.6174 4.15495 17.4194 4.00851C17.3112 3.92848 17.2001 3.80968 17.1197 3.65069C17.0387 3.49072 17.0138 3.3393 17.0138 3.228H18.6963H20.3789C20.3789 2.43234 20.0148 1.74265 19.4203 1.30298C18.8863 0.908045 18.2762 0.78946 17.7863 0.78946V2.472ZM18.6963 3.228H17.0138V6.196H18.6963H20.3789V3.228H18.6963ZM18.6963 6.196H17.0138C17.0138 6.43057 17.0372 7.09481 17.5784 7.63599C18.1195 8.17716 18.7838 8.20054 19.0183 8.20054V6.518V4.83546C19.0453 4.83546 19.1623 4.83635 19.3219 4.88111C19.4971 4.93022 19.7382 5.03686 19.9578 5.25651C20.1775 5.47617 20.2841 5.71727 20.3332 5.89242C20.378 6.05204 20.3789 6.16906 20.3789 6.196H18.6963ZM19.0183 6.518V8.20054C20.6186 8.20054 22.1367 8.11331 23.5818 7.91963L23.3583 6.252L23.1348 4.58437C21.864 4.75469 20.4981 4.83546 19.0183 4.83546V6.518ZM23.3583 6.252L23.5737 7.9207C23.4644 7.9348 23.3103 7.9323 23.1357 7.87635C22.9594 7.81983 22.8067 7.72283 22.6882 7.60601C22.4617 7.38275 22.4203 7.15664 22.4127 7.08313L24.0863 6.91L25.76 6.73687C25.7104 6.25736 25.522 5.67425 25.0505 5.20949C24.5337 4.7001 23.836 4.49388 23.143 4.58329L23.3583 6.252ZM24.0863 6.91L22.4122 7.07742C22.4113 7.06859 22.4084 7.03364 22.4166 6.97587C22.4247 6.91918 22.4469 6.81719 22.5112 6.69406C22.5784 6.56552 22.6895 6.4193 22.8579 6.29861C23.0283 6.17639 23.2058 6.11746 23.3524 6.09724L23.5823 7.764L23.8122 9.43076C24.5766 9.32534 25.1714 8.86914 25.4935 8.25294C25.7755 7.71335 25.8017 7.15382 25.7605 6.74258L24.0863 6.91ZM23.5823 7.764L23.3586 6.0964C22.3047 6.23777 20.7728 6.36146 18.0803 6.36146V8.044V9.72654C20.8759 9.72654 22.5639 9.59823 23.806 9.4316L23.5823 7.764ZM26.5363 4.6V6.28254H27.8523V4.6V2.91746H26.5363V4.6ZM27.8523 4.6V6.28254C27.7417 6.28254 27.5827 6.25979 27.4091 6.1758C27.2336 6.09089 27.0946 5.96808 26.9963 5.83702C26.8146 5.59468 26.8138 5.39079 26.8138 5.37H28.4963H30.1789C30.1789 4.92921 30.0801 4.34032 29.6884 3.81798C29.2463 3.22858 28.5729 2.91746 27.8523 2.91746V4.6ZM28.4963 5.37H26.8138C26.8138 5.36622 26.8102 5.16646 26.9903 4.92326C27.0883 4.79096 27.2281 4.66603 27.4058 4.57958C27.5813 4.49419 27.7418 4.47146 27.8523 4.47146V6.154V7.83654C28.5744 7.83654 29.2517 7.52383 29.6944 6.92624C30.0845 6.39954 30.1789 5.80778 30.1789 5.37H28.4963ZM27.8523 6.154V4.47146H26.5363V6.154V7.83654H27.8523V6.154ZM26.5363 6.154H24.8538V7.96H26.5363H28.2189V6.154H26.5363ZM26.5363 7.96H24.8538C24.8538 7.84865 24.8787 7.69843 24.9585 7.54006C25.0376 7.38284 25.1471 7.2647 25.2543 7.18452C25.4513 7.03736 25.6103 7.03346 25.6403 7.03346V8.716V10.3985C26.1324 10.3985 26.7394 10.2756 27.2688 9.87998C27.8563 9.44097 28.2189 8.75438 28.2189 7.96H26.5363ZM25.6403 8.716V7.03346C25.6704 7.03346 25.8294 7.03736 26.0263 7.18452C26.1336 7.2647 26.2431 7.38284 26.3222 7.54006C26.4019 7.69843 26.4269 7.84865 26.4269 7.96H24.7443H23.0618C23.0618 8.75438 23.4244 9.44097 24.0118 9.87998C24.5413 10.2756 25.1483 10.3985 25.6403 10.3985V8.716ZM24.7443 7.96H26.4269V2.794H24.7443H23.0618V7.96H24.7443ZM24.7443 2.794H26.4269C26.4269 2.90535 26.4019 3.05556 26.3222 3.21394C26.2431 3.37116 26.1336 3.4893 26.0263 3.56948C25.8294 3.71664 25.6704 3.72054 25.6403 3.72054V2.038V0.35546C25.1483 0.35546 24.5412 0.478357 24.0118 0.874017C23.4244 1.31303 23.0618 1.99962 23.0618 2.794H24.7443ZM25.6403 2.038V3.72054C25.6103 3.72054 25.4512 3.71664 25.2543 3.56948C25.1471 3.4893 25.0376 3.37116 24.9585 3.21394C24.8787 3.05556 24.8538 2.90535 24.8538 2.794H26.5363H28.2189C28.2189 1.99962 27.8563 1.31303 27.2688 0.874017C26.7394 0.478357 26.1324 0.35546 25.6403 0.35546V2.038ZM26.5363 2.794H24.8538V4.6H26.5363H28.2189V2.794H26.5363ZM22.4483 15.436V13.7535C21.5066 13.7535 20.9688 13.5968 20.7283 13.4632C20.6247 13.4056 20.6225 13.3781 20.6448 13.413C20.6731 13.4573 20.6729 13.494 20.6729 13.476H18.9903H17.3078C17.3078 14.8181 18.0522 15.8256 19.0934 16.4044C20.0429 16.9322 21.2341 17.1185 22.4483 17.1185V15.436ZM18.9903 13.476H20.6729C20.6729 13.458 20.6731 13.4947 20.6448 13.539C20.6225 13.5739 20.6247 13.5464 20.7283 13.4889C20.9688 13.3552 21.5066 13.1985 22.4483 13.1985V11.516V9.83346C21.2341 9.83346 20.0429 10.0198 19.0934 10.5476C18.0522 11.1264 17.3078 12.1339 17.3078 13.476H18.9903ZM22.4483 11.516V13.1985C23.3901 13.1985 23.9279 13.3552 24.1684 13.4889C24.272 13.5464 24.2742 13.5739 24.2519 13.539C24.2236 13.4947 24.2238 13.458 24.2238 13.476H25.9063H27.5889C27.5889 12.1339 26.8445 11.1264 25.8033 10.5476C24.8538 10.0198 23.6626 9.83346 22.4483 9.83346V11.516ZM25.9063 13.476H24.2238C24.2238 13.494 24.2236 13.4573 24.2519 13.413C24.2742 13.3781 24.272 13.4056 24.1684 13.4632C23.9279 13.5968 23.3901 13.7535 22.4483 13.7535V15.436V17.1185C23.6626 17.1185 24.8538 16.9322 25.8033 16.4044C26.8445 15.8256 27.5889 14.8181 27.5889 13.476H25.9063ZM22.4483 12.818V11.1355C21.7104 11.1355 20.9922 11.2093 20.3986 11.4697C20.0834 11.608 19.7275 11.8319 19.4477 12.1983C19.1509 12.5867 19.0158 13.037 19.0158 13.476H20.6983H22.3809C22.3809 13.733 22.2983 14.01 22.1218 14.241C21.9623 14.4499 21.7945 14.532 21.7506 14.5513C21.7072 14.5703 21.7281 14.5534 21.8583 14.5343C21.9831 14.516 22.1738 14.5005 22.4483 14.5005V12.818ZM20.6983 13.476H19.0158C19.0158 13.915 19.1509 14.3653 19.4477 14.7537C19.7275 15.1201 20.0834 15.344 20.3986 15.4823C20.9922 15.7427 21.7104 15.8165 22.4483 15.8165V14.134V12.4515C22.1738 12.4515 21.9831 12.436 21.8583 12.4177C21.7281 12.3986 21.7072 12.3817 21.7506 12.4007C21.7945 12.42 21.9623 12.5021 22.1218 12.711C22.2983 12.942 22.3809 13.219 22.3809 13.476H20.6983ZM22.4483 14.134V15.8165C23.1863 15.8165 23.9045 15.7427 24.4981 15.4823C24.8133 15.344 25.1691 15.1201 25.449 14.7537C25.7458 14.3653 25.8809 13.915 25.8809 13.476H24.1983H22.5158C22.5158 13.219 22.5984 12.942 22.7749 12.711C22.9344 12.5021 23.1022 12.42 23.1461 12.4007C23.1895 12.3817 23.1686 12.3986 23.0384 12.4177C22.9136 12.436 22.7229 12.4515 22.4483 12.4515V14.134ZM24.1983 13.476H25.8809C25.8809 13.037 25.7458 12.5867 25.449 12.1983C25.1691 11.8319 24.8133 11.608 24.4981 11.4697C23.9045 11.2093 23.1863 11.1355 22.4483 11.1355V12.818V14.5005C22.7229 14.5005 22.9136 14.516 23.0384 14.5343C23.1686 14.5534 23.1895 14.5703 23.1461 14.5513C23.1022 14.532 22.9344 14.4499 22.7749 14.241C22.5984 14.01 22.5158 13.733 22.5158 13.476H24.1983ZM26.4663 11.082V9.39946H18.3603V11.082V12.7645H26.4663V11.082ZM18.3603 11.082V9.39946C18.5093 9.39946 18.6916 9.43319 18.8758 9.52808C19.0582 9.62204 19.1936 9.75076 19.2855 9.87669C19.4555 10.1097 19.4689 10.3124 19.4689 10.382H17.7863H16.1038C16.1038 10.8156 16.2082 11.3683 16.5672 11.8603C16.9703 12.4126 17.6132 12.7645 18.3603 12.7645V11.082ZM17.7863 10.382H19.4689C19.4689 10.4704 19.4499 10.6773 19.279 10.9084C19.1869 11.0329 19.0524 11.1593 18.8722 11.2515C18.6901 11.3448 18.5093 11.3785 18.3603 11.3785V9.696V8.01346C17.615 8.01346 16.9759 8.36338 16.5737 8.90714C16.2138 9.3937 16.1038 9.94355 16.1038 10.382H17.7863ZM18.3603 9.696V11.3785H21.5523V9.696V8.01346H18.3603V9.696ZM21.5523 9.696H23.2349V9.276H21.5523H19.8698V9.696H21.5523ZM21.5523 9.276H23.2349C23.2349 9.38735 23.2099 9.53757 23.1302 9.69594C23.0511 9.85316 22.9416 9.9713 22.8343 10.0515C22.6374 10.1986 22.4784 10.2025 22.4483 10.2025V8.52V6.83746C21.9563 6.83746 21.3492 6.96036 20.8198 7.35602C20.2324 7.79503 19.8698 8.48162 19.8698 9.276H21.5523ZM22.4483 8.52V10.2025C22.4183 10.2025 22.2592 10.1986 22.0623 10.0515C21.9551 9.9713 21.8456 9.85316 21.7665 9.69594C21.6868 9.53757 21.6618 9.38735 21.6618 9.276H23.3443H25.0269C25.0269 8.48162 24.6643 7.79503 24.0768 7.35602C23.5474 6.96036 22.9404 6.83746 22.4483 6.83746V8.52ZM23.3443 9.276H21.6618V9.696H23.3443H25.0269V9.276H23.3443ZM23.3443 9.696V11.3785H26.4663V9.696V8.01346H23.3443V9.696ZM26.4663 9.696V11.3785C26.3174 11.3785 26.1366 11.3448 25.9545 11.2515C25.7743 11.1593 25.6398 11.0329 25.5477 10.9084C25.3768 10.6773 25.3578 10.4704 25.3578 10.382H27.0403H28.7229C28.7229 9.94355 28.6129 9.3937 28.253 8.90714C27.8508 8.36338 27.2117 8.01346 26.4663 8.01346V9.696ZM27.0403 10.382H25.3578C25.3578 10.3124 25.3712 10.1097 25.5412 9.8767C25.6331 9.75076 25.7685 9.62204 25.9509 9.52808C26.1351 9.43319 26.3174 9.39946 26.4663 9.39946V11.082V12.7645C27.2135 12.7645 27.8564 12.4126 28.2595 11.8603C28.6185 11.3683 28.7229 10.8156 28.7229 10.382H27.0403ZM36.2685 8.59L34.6453 8.14729L34.6428 8.15647L36.2685 8.59ZM35.2045 9.108L35.5173 7.45478L35.5146 7.45428L35.2045 9.108ZM34.5465 8.226L32.8986 7.88671L32.8967 7.89577L32.8949 7.90485L34.5465 8.226ZM36.9965 11.796L37.1477 13.4717L37.1558 13.471L37.164 13.4702L36.9965 11.796ZM31.4105 10.55V12.2325H33.0931V10.55H31.4105ZM33.1745 10.522H31.492V12.2622L33.2312 12.2036L33.1745 10.522ZM36.8705 10.312L37.0246 11.9875L37.0326 11.9867L36.8705 10.312ZM37.5425 10.984L35.864 11.0998L35.8643 11.1039L37.5425 10.984ZM34.5185 4.586V2.90346H30.4025V4.586V6.26854H34.5185V4.586ZM30.4025 4.586V2.90346C30.5247 2.90346 30.6912 2.92945 30.8685 3.01736C31.0466 3.10567 31.1838 3.23091 31.2789 3.35984C31.4543 3.59762 31.4551 3.79485 31.4551 3.816H29.7725H28.09C28.09 4.25714 28.1888 4.83938 28.5707 5.35716C29.0019 5.94194 29.6697 6.26854 30.4025 6.26854V4.586ZM29.7725 3.816H31.4551C31.4551 3.83714 31.4543 4.03437 31.2789 4.27216C31.1838 4.40109 31.0466 4.52633 30.8685 4.61464C30.6912 4.70255 30.5247 4.72854 30.4025 4.72854V3.046V1.36346C29.6697 1.36346 29.0019 1.69006 28.5707 2.27484C28.1888 2.79262 28.09 3.37486 28.09 3.816H29.7725ZM30.4025 3.046V4.72854H35.4285V3.046V1.36346H30.4025V3.046ZM35.4285 3.046V4.72854C35.5791 4.72854 35.6074 4.74191 35.568 4.73166C35.5134 4.71742 35.3514 4.66266 35.187 4.50294C35.0203 4.34097 34.9565 4.17349 34.9369 4.10284C34.9225 4.05057 34.936 4.06645 34.936 4.208H36.6185H38.3011C38.3011 3.67691 38.2352 2.77283 37.5321 2.08956C36.8429 1.41994 35.9486 1.36346 35.4285 1.36346V3.046ZM36.6185 4.208H34.936V5.272H36.6185H38.3011V4.208H36.6185ZM36.6185 5.272H34.936C34.936 6.4501 34.8014 7.57483 34.6453 8.14729L36.2685 8.59L37.8918 9.03271C38.1557 8.06517 38.3011 6.6139 38.3011 5.272H36.6185ZM36.2685 8.59L34.6428 8.15647C34.7209 7.86346 34.9324 7.63519 35.1649 7.52441C35.3658 7.42864 35.5042 7.4523 35.5173 7.45479L35.2045 9.108L34.8918 10.7612C35.9029 10.9525 37.469 10.6181 37.8943 9.02353L36.2685 8.59ZM35.2045 9.108L35.5146 7.45428C35.5476 7.46046 35.7671 7.50843 35.9709 7.75653C36.0768 7.88541 36.152 8.03948 36.1877 8.20078C36.2224 8.35746 36.2112 8.48017 36.1981 8.54714L34.5465 8.226L32.8949 7.90485C32.7648 8.57422 32.8861 9.3026 33.3706 9.89247C33.8159 10.4346 34.4135 10.6715 34.8945 10.7617L35.2045 9.108ZM34.5465 8.226L36.1945 8.56529C36.413 7.504 36.5231 6.43835 36.5231 5.37H34.8405H33.158C33.158 6.20565 33.0721 7.044 32.8986 7.88671L34.5465 8.226ZM34.8405 5.37H36.5231V4.908H34.8405H33.158V5.37H34.8405ZM34.8405 4.908H36.5231C36.5231 4.67343 36.4997 4.00919 35.9585 3.46801C35.4173 2.92684 34.7531 2.90346 34.5185 2.90346V4.586V6.26854C34.4916 6.26854 34.3746 6.26765 34.215 6.22289C34.0398 6.17378 33.7987 6.06714 33.579 5.84749C33.3594 5.62783 33.2528 5.38672 33.2036 5.21158C33.1589 5.05196 33.158 4.93494 33.158 4.908H34.8405ZM38.0885 13.518H39.7711V2.794H38.0885H36.406V13.518H38.0885ZM38.0885 2.794H39.7711C39.7711 2.90535 39.7461 3.05556 39.6664 3.21394C39.5872 3.37116 39.4778 3.4893 39.3705 3.56948C39.1736 3.71664 39.0145 3.72054 38.9845 3.72054V2.038V0.35546C38.4925 0.35546 37.8854 0.478357 37.356 0.874017C36.7686 1.31303 36.406 1.99962 36.406 2.794H38.0885ZM38.9845 2.038V3.72054C38.938 3.72054 38.775 3.71205 38.5794 3.56435C38.4731 3.48405 38.3654 3.36663 38.2875 3.21118C38.2089 3.05441 38.184 2.9054 38.184 2.794H39.8665H41.5491C41.5491 2.00088 41.1879 1.31742 40.6076 0.879153C40.0831 0.482952 39.479 0.35546 38.9845 0.35546V2.038ZM39.8665 2.794H38.184V13.518H39.8665H41.5491V2.794H39.8665ZM39.8665 13.518H38.184C38.184 13.4066 38.2089 13.2576 38.2875 13.1008C38.3654 12.9454 38.4731 12.8279 38.5794 12.7477C38.775 12.6 38.938 12.5915 38.9845 12.5915V14.274V15.9565C39.479 15.9565 40.0831 15.829 40.6076 15.4328C41.1879 14.9946 41.5491 14.3111 41.5491 13.518H39.8665ZM38.9845 14.274V12.5915C39.0145 12.5915 39.1736 12.5954 39.3705 12.7425C39.4778 12.8227 39.5872 12.9408 39.6664 13.0981C39.7461 13.2564 39.7711 13.4066 39.7711 13.518H38.0885H36.406C36.406 14.3124 36.7686 14.999 37.356 15.438C37.8854 15.8336 38.4925 15.9565 38.9845 15.9565V14.274ZM36.9965 11.796L36.8453 10.1203C35.0516 10.2821 32.3341 10.3795 29.6745 10.3795V12.062V13.7445C32.3909 13.7445 35.2174 13.6459 37.1477 13.4717L36.9965 11.796ZM29.6745 12.062V10.3795C29.7968 10.3795 29.9618 10.4055 30.1371 10.4919C30.313 10.5787 30.4495 10.7018 30.5449 10.8295C30.7216 11.0661 30.7271 11.2675 30.7271 11.306H29.0445H27.362C27.362 11.7505 27.4655 12.3299 27.8487 12.843C28.2793 13.4196 28.9433 13.7445 29.6745 13.7445V12.062ZM29.0445 11.306H30.7271C30.7271 11.3445 30.7216 11.5459 30.5449 11.7825C30.4495 11.9102 30.313 12.0333 30.1371 12.1201C29.9618 12.2065 29.7968 12.2325 29.6745 12.2325V10.55V8.86746C28.9433 8.86746 28.2793 9.19237 27.8487 9.76896C27.4655 10.2821 27.362 10.8615 27.362 11.306H29.0445ZM29.6745 10.55V12.2325H31.4105V10.55V8.86746H29.6745V10.55ZM31.4105 10.55H33.0931V7.54H31.4105H29.728V10.55H31.4105ZM31.4105 7.54H33.0931C33.0931 7.6514 33.0681 7.80041 32.9896 7.95718C32.9117 8.11263 32.8039 8.23005 32.6976 8.31035C32.5021 8.45805 32.339 8.46654 32.2925 8.46654V6.784V5.10146C31.798 5.10146 31.194 5.22895 30.6694 5.62515C30.0892 6.06342 29.728 6.74688 29.728 7.54H31.4105ZM32.2925 6.784V8.46654C32.246 8.46654 32.083 8.45805 31.8874 8.31035C31.7811 8.23005 31.6734 8.11263 31.5955 7.95718C31.5169 7.80041 31.492 7.6514 31.492 7.54H33.1745H34.8571C34.8571 6.74688 34.4959 6.06342 33.9156 5.62515C33.3911 5.22895 32.787 5.10146 32.2925 5.10146V6.784ZM33.1745 7.54H31.492V10.522H33.1745H34.8571V7.54H33.1745ZM33.1745 10.522L33.2312 12.2036C34.4871 12.1613 35.7576 12.104 37.0246 11.9875L36.8705 10.312L36.7165 8.63653C35.5475 8.74402 34.354 8.79875 33.1179 8.84042L33.1745 10.522ZM36.8705 10.312L37.0326 11.9867C36.93 11.9966 36.7695 11.992 36.5831 11.9247C36.3924 11.8558 36.23 11.741 36.1082 11.6056C35.8821 11.3544 35.8655 11.1217 35.864 11.0998L37.5425 10.984L39.2211 10.8682C39.1916 10.4403 39.056 9.85061 38.6094 9.35444C38.1024 8.79113 37.395 8.57085 36.7085 8.63728L36.8705 10.312ZM37.5425 10.984L35.8643 11.1039C35.8621 11.0738 35.852 10.8982 35.9873 10.6682C36.0615 10.5419 36.1783 10.4048 36.3463 10.2956C36.5161 10.1853 36.6888 10.1358 36.8291 10.1218L36.9965 11.796L37.164 13.4702C37.9249 13.3941 38.5368 12.9709 38.8878 12.3743C39.1981 11.8468 39.2509 11.2862 39.2208 10.8641L37.5425 10.984ZM46.8127 5.216H45.1302V6.89854H46.8127V5.216ZM46.8127 6.672V4.98946H45.1302V6.672H46.8127ZM51.5447 7.484L51.3294 5.81527L51.3212 5.81637L51.5447 7.484ZM52.2727 8.114L53.9463 7.94087L53.9457 7.93475L52.2727 8.114ZM51.7687 8.954L51.9924 10.6216L51.9986 10.6208L51.7687 8.954ZM54.7227 5.048H53.0402V6.73054H54.7227V5.048ZM54.7227 6.602V4.91946H53.0402V6.602H54.7227ZM50.6067 4.152V2.46946H47.1347V4.152V5.83454H50.6067V4.152ZM47.1347 4.152V2.46946C46.9001 2.46946 46.2359 2.49284 45.6947 3.03401C45.1536 3.57519 45.1302 4.23942 45.1302 4.474H46.8127H48.4953C48.4953 4.50094 48.4944 4.61796 48.4496 4.77758C48.4005 4.95272 48.2939 5.19383 48.0742 5.41349C47.8546 5.63314 47.6134 5.73978 47.4383 5.78889C47.2787 5.83365 47.1617 5.83454 47.1347 5.83454V4.152ZM46.8127 4.474H45.1302V5.216H46.8127H48.4953V4.474H46.8127ZM46.8127 5.216V6.89854H50.4807V5.216V3.53346H46.8127V5.216ZM50.4807 5.216V6.89854C50.357 6.89854 50.1928 6.87253 50.0189 6.78799C49.8443 6.70316 49.7066 6.58206 49.6087 6.45375C49.4253 6.21344 49.4142 6.00155 49.4142 5.944H51.0967H52.7793C52.7793 5.49445 52.6702 4.91856 52.2838 4.41225C51.8532 3.848 51.1973 3.53346 50.4807 3.53346V5.216ZM51.0967 5.944H49.4142C49.4142 5.88645 49.4253 5.67456 49.6087 5.43425C49.7066 5.30593 49.8443 5.18484 50.0189 5.10001C50.1929 5.01547 50.357 4.98946 50.4807 4.98946V6.672V8.35454C51.1973 8.35454 51.8532 8.04 52.2838 7.47575C52.6702 6.96944 52.7793 6.39355 52.7793 5.944H51.0967ZM50.4807 6.672V4.98946H46.8127V6.672V8.35454H50.4807V6.672ZM46.8127 6.672H45.1302V7.428H46.8127H48.4953V6.672H46.8127ZM46.8127 7.428H45.1302C45.1302 7.66257 45.1536 8.32681 45.6947 8.86798C46.2359 9.40916 46.9001 9.43254 47.1347 9.43254V7.75V6.06746C47.1617 6.06746 47.2787 6.06835 47.4383 6.11311C47.6134 6.16222 47.8546 6.26886 48.0742 6.48851C48.2939 6.70817 48.4005 6.94928 48.4496 7.12442C48.4944 7.28404 48.4953 7.40106 48.4953 7.428H46.8127ZM47.1347 7.75V9.43254C48.8032 9.43254 50.3216 9.34551 51.7682 9.15163L51.5447 7.484L51.3212 5.81637C50.0518 5.98649 48.6862 6.06746 47.1347 6.06746V7.75ZM51.5447 7.484L51.76 9.15271C51.5273 9.18273 51.1812 9.11897 50.9015 8.8552C50.6615 8.6289 50.6099 8.388 50.5998 8.29325L52.2727 8.114L53.9457 7.93475C53.8935 7.448 53.695 6.8641 53.21 6.4068C52.6852 5.91203 51.9961 5.72927 51.3294 5.81529L51.5447 7.484ZM52.2727 8.114L50.5991 8.28713C50.5982 8.27816 50.5782 8.11156 50.7013 7.8788C50.7692 7.75038 50.8803 7.60585 51.0471 7.48679C51.2161 7.36617 51.3922 7.30746 51.5388 7.28724L51.7687 8.954L51.9986 10.6208C52.7608 10.5156 53.3535 10.0619 53.6761 9.4517C53.9602 8.91444 53.9893 8.35584 53.9463 7.94087L52.2727 8.114ZM51.7687 8.954L51.545 7.2864C50.4915 7.42772 48.9597 7.55146 46.2387 7.55146V9.234V10.9165C49.0617 10.9165 50.7499 10.7883 51.9924 10.6216L51.7687 8.954ZM46.2387 9.234V7.55146C46.0882 7.55146 46.0599 7.53809 46.0992 7.54834C46.1538 7.56258 46.3159 7.61734 46.4803 7.77706C46.6469 7.93903 46.7108 8.10651 46.7303 8.17716C46.7448 8.22943 46.7313 8.21355 46.7313 8.072H45.0487H43.3662C43.3662 8.60308 43.432 9.50717 44.1352 10.1904C44.8243 10.8601 45.7187 10.9165 46.2387 10.9165V9.234ZM45.0487 8.072H46.7313V3.83H45.0487H43.3662V8.072H45.0487ZM45.0487 3.83H46.7313C46.7313 3.68845 46.7448 3.67256 46.7303 3.72484C46.7108 3.79549 46.6469 3.96297 46.4803 4.12494C46.3159 4.28466 46.1538 4.33942 46.0992 4.35366C46.0599 4.36391 46.0882 4.35054 46.2387 4.35054V2.668V0.98546C45.7187 0.98546 44.8243 1.04194 44.1352 1.71156C43.432 2.39483 43.3662 3.29891 43.3662 3.83H45.0487ZM46.2387 2.668V4.35054H50.6067V2.668V0.98546H46.2387V2.668ZM50.6067 2.668V4.35054C50.4844 4.35054 50.3209 4.32453 50.1475 4.2395C49.9738 4.15432 49.8382 4.03337 49.7426 3.90702C49.5647 3.67182 49.5542 3.46637 49.5542 3.41H51.2367H52.9193C52.9193 2.96163 52.8108 2.38518 52.4264 1.87698C51.9965 1.30872 51.3365 0.98546 50.6067 0.98546V2.668ZM51.2367 3.41H49.5542C49.5542 3.35363 49.5647 3.14818 49.7426 2.91298C49.8382 2.78663 49.9738 2.66568 50.1475 2.5805C50.3209 2.49547 50.4844 2.46946 50.6067 2.46946V4.152V5.83454C51.3365 5.83454 51.9965 5.51128 52.4264 4.94302C52.8108 4.43482 52.9193 3.85837 52.9193 3.41H51.2367ZM54.7227 5.048V6.73054H56.0387V5.048V3.36546H54.7227V5.048ZM56.0387 5.048V6.73054C55.928 6.73054 55.7691 6.70779 55.5955 6.6238C55.42 6.53889 55.281 6.41608 55.1827 6.28502C55.0009 6.04268 55.0002 5.83879 55.0002 5.818H56.6827H58.3653C58.3653 5.37721 58.2665 4.78832 57.8748 4.26598C57.4327 3.67658 56.7593 3.36546 56.0387 3.36546V5.048ZM56.6827 5.818H55.0002C55.0002 5.81422 54.9966 5.61446 55.1767 5.37126C55.2747 5.23896 55.4145 5.11403 55.5922 5.02758C55.7677 4.94219 55.9281 4.91946 56.0387 4.91946V6.602V8.28454C56.7607 8.28454 57.4381 7.97183 57.8807 7.37424C58.2709 6.84754 58.3653 6.25578 58.3653 5.818H56.6827ZM56.0387 6.602V4.91946H54.7227V6.602V8.28454H56.0387V6.602ZM54.7227 6.602H53.0402V8.94H54.7227H56.4053V6.602H54.7227ZM54.7227 8.94H53.0402C53.0402 8.82865 53.0651 8.67843 53.1449 8.52006C53.224 8.36284 53.3334 8.2447 53.4407 8.16452C53.6376 8.01736 53.7967 8.01346 53.8267 8.01346V9.696V11.3785C54.3187 11.3785 54.9258 11.2556 55.4552 10.86C56.0426 10.421 56.4053 9.73438 56.4053 8.94H54.7227ZM53.8267 9.696V8.01346C53.8567 8.01346 54.0158 8.01736 54.2127 8.16452C54.32 8.2447 54.4294 8.36284 54.5086 8.52006C54.5883 8.67843 54.6133 8.82865 54.6133 8.94H52.9307H51.2482C51.2482 9.73438 51.6108 10.421 52.1982 10.86C52.7276 11.2556 53.3347 11.3785 53.8267 11.3785V9.696ZM52.9307 8.94H54.6133V2.794H52.9307H51.2482V8.94H52.9307ZM52.9307 2.794H54.6133C54.6133 2.90535 54.5883 3.05556 54.5086 3.21394C54.4294 3.37116 54.32 3.4893 54.2127 3.56948C54.0158 3.71664 53.8567 3.72054 53.8267 3.72054V2.038V0.35546C53.3347 0.35546 52.7276 0.478357 52.1982 0.874017C51.6108 1.31303 51.2482 1.99962 51.2482 2.794H52.9307ZM53.8267 2.038V3.72054C53.7967 3.72054 53.6376 3.71664 53.4407 3.56948C53.3334 3.4893 53.224 3.37116 53.1449 3.21394C53.0651 3.05556 53.0402 2.90535 53.0402 2.794H54.7227H56.4053C56.4053 1.99962 56.0426 1.31303 55.4552 0.874017C54.9258 0.478357 54.3187 0.35546 53.8267 0.35546V2.038ZM54.7227 2.794H53.0402V5.048H54.7227H56.4053V2.794H54.7227ZM53.5327 15.016V13.3335H47.6247V15.016V16.6985H53.5327V15.016ZM47.6247 15.016V13.3335C47.4742 13.3335 47.4459 13.3201 47.4852 13.3303C47.5398 13.3446 47.7019 13.3993 47.8663 13.5591C48.0329 13.721 48.0968 13.8885 48.1163 13.9592C48.1308 14.0114 48.1173 13.9956 48.1173 13.854H46.4347H44.7522C44.7522 14.3851 44.818 15.2892 45.5212 15.9724C46.2103 16.6421 47.1047 16.6985 47.6247 16.6985V15.016ZM46.4347 13.854H48.1173V11.376H46.4347H44.7522V13.854H46.4347ZM46.4347 11.376H48.1173C48.1173 11.2344 48.1308 11.2186 48.1163 11.2708C48.0968 11.3415 48.0329 11.509 47.8663 11.6709C47.7019 11.8307 47.5398 11.8854 47.4852 11.8997C47.4459 11.9099 47.4742 11.8965 47.6247 11.8965V10.214V8.53146C47.1047 8.53146 46.2103 8.58794 45.5212 9.25756C44.818 9.94083 44.7522 10.8449 44.7522 11.376H46.4347ZM47.6247 10.214V11.8965H53.5327V10.214V8.53146H47.6247V10.214ZM53.5327 10.214V11.8965C53.6833 11.8965 53.7116 11.9099 53.6722 11.8997C53.6176 11.8854 53.4556 11.8307 53.2912 11.6709C53.1245 11.509 53.0607 11.3415 53.0411 11.2708C53.0267 11.2186 53.0402 11.2344 53.0402 11.376H54.7227H56.4053C56.4053 10.8449 56.3394 9.94083 55.6363 9.25756C54.9471 8.58794 54.0528 8.53146 53.5327 8.53146V10.214ZM54.7227 11.376H53.0402V13.854H54.7227H56.4053V11.376H54.7227ZM54.7227 13.854H53.0402C53.0402 13.9956 53.0267 14.0114 53.0411 13.9592C53.0607 13.8885 53.1245 13.721 53.2912 13.5591C53.4556 13.3993 53.6176 13.3446 53.6722 13.3303C53.7116 13.3201 53.6833 13.3335 53.5327 13.3335V15.016V16.6985C54.0528 16.6985 54.9471 16.6421 55.6363 15.9724C56.3394 15.2892 56.4053 14.3851 56.4053 13.854H54.7227ZM48.5347 13.546V15.2285H52.6227V13.546V11.8635H48.5347V13.546ZM52.6227 13.546V15.2285C52.8573 15.2285 53.5215 15.2052 54.0627 14.664C54.6039 14.1228 54.6273 13.4586 54.6273 13.224H52.9447H51.2622C51.2622 13.1971 51.2631 13.08 51.3078 12.9204C51.3569 12.7453 51.4636 12.5042 51.6832 12.2845C51.9029 12.0649 52.144 11.9582 52.3191 11.9091C52.4788 11.8643 52.5958 11.8635 52.6227 11.8635V13.546ZM52.9447 13.224H54.6273V12.006H52.9447H51.2622V13.224H52.9447ZM52.9447 12.006H54.6273C54.6273 11.7714 54.6039 11.1072 54.0627 10.566C53.5215 10.0248 52.8573 10.0015 52.6227 10.0015V11.684V13.3665C52.5958 13.3665 52.4788 13.3657 52.3191 13.3209C52.144 13.2718 51.9029 13.1651 51.6832 12.9455C51.4636 12.7258 51.3569 12.4847 51.3078 12.3096C51.2631 12.15 51.2622 12.0329 51.2622 12.006H52.9447ZM52.6227 11.684V10.0015H48.5347V11.684V13.3665H52.6227V11.684ZM48.5347 11.684V10.0015C48.3001 10.0015 47.6359 10.0248 47.0947 10.566C46.5536 11.1072 46.5302 11.7714 46.5302 12.006H48.2127H49.8953C49.8953 12.0329 49.8944 12.15 49.8496 12.3096C49.8005 12.4847 49.6939 12.7258 49.4742 12.9455C49.2546 13.1651 49.0134 13.2718 48.8383 13.3209C48.6787 13.3657 48.5617 13.3665 48.5347 13.3665V11.684ZM48.2127 12.006H46.5302V13.224H48.2127H49.8953V12.006H48.2127ZM48.2127 13.224H46.5302C46.5302 13.4586 46.5536 14.1228 47.0947 14.664C47.6359 15.2052 48.3001 15.2285 48.5347 15.2285V13.546V11.8635C48.5617 11.8635 48.6787 11.8643 48.8383 11.9091C49.0134 11.9582 49.2546 12.0649 49.4742 12.2845C49.6939 12.5042 49.8005 12.7453 49.8496 12.9204C49.8944 13.08 49.8953 13.1971 49.8953 13.224H48.2127ZM60.1429 3.312V4.99454H61.8254V3.312H60.1429ZM61.9349 3.312H60.2524V4.99454H61.9349V3.312ZM66.1209 7.498H67.8034V5.81546H66.1209V7.498ZM66.1209 5.958V7.64054H67.8034V5.958H66.1209ZM61.0389 5.3V6.98254C61.7628 6.98254 62.1354 7.14707 62.2808 7.25338C62.3449 7.30019 62.3666 7.33522 62.3763 7.35469C62.3864 7.37469 62.4084 7.42743 62.4084 7.54H64.0909H65.7734C65.7734 6.31388 65.2353 5.24474 64.2665 4.53661C63.3584 3.87293 62.205 3.61746 61.0389 3.61746V5.3ZM64.0909 7.54H62.4084C62.4084 7.65257 62.3864 7.70531 62.3763 7.72531C62.3666 7.74478 62.3449 7.77981 62.2808 7.82662C62.1354 7.93293 61.7628 8.09746 61.0389 8.09746V9.78V11.4625C62.205 11.4625 63.3584 11.2071 64.2665 10.5434C65.2353 9.83526 65.7734 8.76612 65.7734 7.54H64.0909ZM61.0389 9.78V8.09746C60.315 8.09746 59.9425 7.93293 59.797 7.82662C59.733 7.77981 59.7113 7.74478 59.7015 7.72531C59.6914 7.70531 59.6694 7.65257 59.6694 7.54H57.9869H56.3044C56.3044 8.76612 56.8425 9.83526 57.8113 10.5434C58.7194 11.2071 59.8728 11.4625 61.0389 11.4625V9.78ZM57.9869 7.54H59.6694C59.6694 7.42743 59.6914 7.37469 59.7015 7.35469C59.7113 7.33522 59.733 7.30019 59.797 7.25338C59.9424 7.14707 60.315 6.98254 61.0389 6.98254V5.3V3.61746C59.8728 3.61746 58.7194 3.87293 57.8113 4.53661C56.8425 5.24474 56.3044 6.31388 56.3044 7.54H57.9869ZM57.8329 3.312V4.99454H60.1429V3.312V1.62946H57.8329V3.312ZM60.1429 3.312H61.8254V2.654H60.1429H58.4604V3.312H60.1429ZM60.1429 2.654H61.8254C61.8254 2.76535 61.8005 2.91556 61.7208 3.07394C61.6416 3.23116 61.5322 3.3493 61.4249 3.42948C61.228 3.57664 61.0689 3.58054 61.0389 3.58054V1.898V0.21546C60.5469 0.21546 59.9398 0.338357 59.4104 0.734018C58.823 1.17303 58.4604 1.85962 58.4604 2.654H60.1429ZM61.0389 1.898V3.58054C61.0089 3.58054 60.8498 3.57664 60.6529 3.42948C60.5456 3.3493 60.4362 3.23116 60.357 3.07394C60.2773 2.91556 60.2524 2.76535 60.2524 2.654H61.9349H63.6174C63.6174 1.85962 63.2548 1.17303 62.6674 0.734018C62.138 0.338357 61.5309 0.21546 61.0389 0.21546V1.898ZM61.9349 2.654H60.2524V3.312H61.9349H63.6174V2.654H61.9349ZM61.9349 3.312V4.99454H64.1049V3.312V1.62946H61.9349V3.312ZM64.1049 3.312V4.99454C63.9826 4.99454 63.8177 4.96854 63.6423 4.88207C63.4664 4.79533 63.3299 4.67223 63.2346 4.54454C63.0578 4.30788 63.0524 4.10651 63.0524 4.068H64.7349H66.4174C66.4174 3.62349 66.314 3.04412 65.9307 2.53096C65.5001 1.95437 64.8362 1.62946 64.1049 1.62946V3.312ZM64.7349 4.068H63.0524C63.0524 4.01163 63.0629 3.80618 63.2408 3.57098C63.3363 3.44463 63.4719 3.32368 63.6457 3.2385C63.8191 3.15347 63.9826 3.12746 64.1049 3.12746V4.81V6.49254C64.8347 6.49254 65.4947 6.16928 65.9245 5.60102C66.309 5.09282 66.4174 4.51637 66.4174 4.068H64.7349ZM64.1049 4.81V3.12746H57.8329V4.81V6.49254H64.1049V4.81ZM57.8329 4.81V3.12746C57.9552 3.12746 58.1188 3.15347 58.2922 3.2385C58.4659 3.32368 58.6015 3.44463 58.697 3.57098C58.875 3.80618 58.8854 4.01163 58.8854 4.068H57.2029H55.5204C55.5204 4.51637 55.6289 5.09282 56.0133 5.60102C56.4431 6.16928 57.1031 6.49254 57.8329 6.49254V4.81ZM57.2029 4.068H58.8854C58.8854 4.10651 58.88 4.30788 58.7032 4.54454C58.6079 4.67223 58.4714 4.79533 58.2955 4.88207C58.1202 4.96854 57.9552 4.99454 57.8329 4.99454V3.312V1.62946C57.1016 1.62946 56.4377 1.95437 56.0071 2.53096C55.6238 3.04412 55.5204 3.62349 55.5204 4.068H57.2029ZM61.0389 8.422V10.1045C61.6996 10.1045 62.4301 9.98796 63.0487 9.58312C63.7495 9.12452 64.1634 8.38108 64.1634 7.54H62.4809H60.7984C60.7984 7.41286 60.8287 7.25046 60.9179 7.0877C61.0066 6.92583 61.1208 6.82318 61.2061 6.76738C61.3487 6.67404 61.3582 6.73946 61.0389 6.73946V8.422ZM62.4809 7.54H64.1634C64.1634 6.69892 63.7495 5.95548 63.0487 5.49688C62.4301 5.09204 61.6996 4.97546 61.0389 4.97546V6.658V8.34054C61.3582 8.34054 61.3487 8.40596 61.2061 8.31262C61.1208 8.25682 61.0066 8.15417 60.9179 7.9923C60.8287 7.82954 60.7984 7.66714 60.7984 7.54H62.4809ZM61.0389 6.658V4.97546C60.3782 4.97546 59.6477 5.09204 59.0291 5.49688C58.3283 5.95548 57.9144 6.69892 57.9144 7.54H59.5969H61.2794C61.2794 7.66714 61.2491 7.82954 61.1599 7.9923C61.0712 8.15417 60.957 8.25682 60.8717 8.31262C60.7291 8.40596 60.7196 8.34054 61.0389 8.34054V6.658ZM59.5969 7.54H57.9144C57.9144 8.38108 58.3283 9.12452 59.0291 9.58312C59.6477 9.98796 60.3782 10.1045 61.0389 10.1045V8.422V6.73946C60.7196 6.73946 60.7291 6.67404 60.8717 6.76738C60.957 6.82318 61.0712 6.92583 61.1599 7.0877C61.2491 7.25046 61.2794 7.41286 61.2794 7.54H59.5969ZM66.1209 9.164H67.8034V7.498H66.1209H64.4384V9.164H66.1209ZM66.1209 7.498V5.81546H65.0709V7.498V9.18054H66.1209V7.498ZM65.0709 7.498V5.81546C65.1816 5.81546 65.3406 5.83821 65.5141 5.9222C65.6896 6.00711 65.8286 6.12992 65.9269 6.26098C66.1087 6.50332 66.1094 6.70721 66.1094 6.728H64.4269H62.7444C62.7444 7.16879 62.8431 7.75768 63.2349 8.28002C63.6769 8.86942 64.3503 9.18054 65.0709 9.18054V7.498ZM64.4269 6.728H66.1094C66.1094 6.74879 66.1087 6.95268 65.9269 7.19502C65.8286 7.32608 65.6896 7.44889 65.5141 7.5338C65.3406 7.61779 65.1816 7.64054 65.0709 7.64054V5.958V4.27546C64.3503 4.27546 63.6769 4.58658 63.2349 5.17598C62.8431 5.69832 62.7444 6.28721 62.7444 6.728H64.4269ZM65.0709 5.958V7.64054H66.1209V5.958V4.27546H65.0709V5.958ZM66.1209 5.958H67.8034V2.794H66.1209H64.4384V5.958H66.1209ZM66.1209 2.794H67.8034C67.8034 2.9054 67.7785 3.05441 67.6999 3.21118C67.622 3.36663 67.5143 3.48405 67.408 3.56435C67.2124 3.71205 67.0494 3.72054 67.0029 3.72054V2.038V0.35546C66.5084 0.35546 65.9044 0.482952 65.3798 0.879153C64.7996 1.31742 64.4384 2.00088 64.4384 2.794H66.1209ZM67.0029 2.038V3.72054C66.9564 3.72054 66.7934 3.71205 66.5978 3.56434C66.4915 3.48405 66.3838 3.36663 66.3059 3.21118C66.2273 3.05441 66.2024 2.9054 66.2024 2.794H67.8849H69.5674C69.5674 2.00088 69.2062 1.31742 68.626 0.879154C68.1014 0.482952 67.4974 0.35546 67.0029 0.35546V2.038ZM67.8849 2.794H66.2024V9.164H67.8849H69.5674V2.794H67.8849ZM67.8849 9.164H66.2024C66.2024 9.0526 66.2273 8.90359 66.3059 8.74682C66.3838 8.59137 66.4915 8.47395 66.5978 8.39365C66.7934 8.24595 66.9564 8.23746 67.0029 8.23746V9.92V11.6025C67.4974 11.6025 68.1014 11.475 68.626 11.0788C69.2062 10.6406 69.5674 9.95712 69.5674 9.164H67.8849ZM67.0029 9.92V8.23746C67.0494 8.23746 67.2124 8.24595 67.408 8.39365C67.5143 8.47395 67.622 8.59137 67.6999 8.74682C67.7785 8.90359 67.8034 9.0526 67.8034 9.164H66.1209H64.4384C64.4384 9.95712 64.7996 10.6406 65.3798 11.0788C65.9044 11.475 66.5084 11.6025 67.0029 11.6025V9.92ZM66.6949 15.016V13.3335H60.5909V15.016V16.6985H66.6949V15.016ZM60.5909 15.016V13.3335C60.4403 13.3335 60.4121 13.3201 60.4514 13.3303C60.506 13.3446 60.6681 13.3993 60.8324 13.5591C60.9991 13.721 61.063 13.8885 61.0825 13.9592C61.097 14.0114 61.0834 13.9956 61.0834 13.854H59.4009H57.7184C57.7184 14.3851 57.7842 15.2892 58.4874 15.9724C59.1765 16.6421 60.0709 16.6985 60.5909 16.6985V15.016ZM59.4009 13.854H61.0834V11.6H59.4009H57.7184V13.854H59.4009ZM59.4009 11.6H61.0834C61.0834 11.4584 61.097 11.4426 61.0825 11.4948C61.063 11.5655 60.9991 11.733 60.8324 11.8949C60.6681 12.0547 60.506 12.1094 60.4514 12.1237C60.4121 12.1339 60.4403 12.1205 60.5909 12.1205V10.438V8.75546C60.0709 8.75546 59.1765 8.81194 58.4874 9.48156C57.7842 10.1648 57.7184 11.0689 57.7184 11.6H59.4009ZM60.5909 10.438V12.1205H66.6949V10.438V8.75546H60.5909V10.438ZM66.6949 10.438V12.1205C66.8455 12.1205 66.8737 12.1339 66.8344 12.1237C66.7798 12.1094 66.6177 12.0547 66.4534 11.8949C66.2867 11.733 66.2228 11.5655 66.2033 11.4948C66.1889 11.4426 66.2024 11.4584 66.2024 11.6H67.8849H69.5674C69.5674 11.0689 69.5016 10.1648 68.7984 9.48156C68.1093 8.81194 67.215 8.75546 66.6949 8.75546V10.438ZM67.8849 11.6H66.2024V13.854H67.8849H69.5674V11.6H67.8849ZM67.8849 13.854H66.2024C66.2024 13.9956 66.1889 14.0114 66.2033 13.9592C66.2228 13.8885 66.2867 13.721 66.4534 13.5591C66.6177 13.3993 66.7798 13.3446 66.8344 13.3303C66.8737 13.3201 66.8455 13.3335 66.6949 13.3335V15.016V16.6985C67.215 16.6985 68.1093 16.6421 68.7984 15.9724C69.5016 15.2892 69.5674 14.3851 69.5674 13.854H67.8849ZM61.4729 13.574V15.2565H65.8129V13.574V11.8915H61.4729V13.574ZM65.8129 13.574V15.2565C66.0475 15.2565 66.7117 15.2332 67.2529 14.692C67.7941 14.1508 67.8174 13.4866 67.8174 13.252H66.1349H64.4524C64.4524 13.2251 64.4533 13.108 64.498 12.9484C64.5471 12.7733 64.6538 12.5322 64.8734 12.3125C65.0931 12.0929 65.3342 11.9862 65.5093 11.9371C65.6689 11.8923 65.786 11.8915 65.8129 11.8915V13.574ZM66.1349 13.252H67.8174V12.202H66.1349H64.4524V13.252H66.1349ZM66.1349 12.202H67.8174C67.8174 11.9674 67.7941 11.3032 67.2529 10.762C66.7117 10.2208 66.0475 10.1975 65.8129 10.1975V11.88V13.5625C65.786 13.5625 65.6689 13.5617 65.5093 13.5169C65.3342 13.4678 65.0931 13.3611 64.8734 13.1415C64.6538 12.9218 64.5471 12.6807 64.498 12.5056C64.4533 12.346 64.4524 12.2289 64.4524 12.202H66.1349ZM65.8129 11.88V10.1975H61.4729V11.88V13.5625H65.8129V11.88ZM61.4729 11.88V10.1975C61.2383 10.1975 60.5741 10.2208 60.0329 10.762C59.4917 11.3032 59.4684 11.9674 59.4684 12.202H61.1509H62.8334C62.8334 12.2289 62.8326 12.346 62.7878 12.5056C62.7387 12.6807 62.632 12.9218 62.4124 13.1415C62.1927 13.3611 61.9516 13.4678 61.7765 13.5169C61.6169 13.5617 61.4998 13.5625 61.4729 13.5625V11.88ZM61.1509 12.202H59.4684V13.252H61.1509H62.8334V12.202H61.1509ZM61.1509 13.252H59.4684C59.4684 13.4866 59.4917 14.1508 60.0329 14.692C60.5741 15.2332 61.2383 15.2565 61.4729 15.2565V13.574V11.8915C61.4998 11.8915 61.6169 11.8923 61.7765 11.9371C61.9516 11.9862 62.1927 12.0929 62.4124 12.3125C62.632 12.5322 62.7387 12.7733 62.7878 12.9484C62.8326 13.108 62.8334 13.2251 62.8334 13.252H61.1509ZM71.0791 11.474L71.9523 12.9122L71.9614 12.9066L71.0791 11.474ZM69.9871 11.166L71.3871 10.2327L69.9871 11.166ZM70.1271 10.046L69.2506 8.60976L69.2398 8.61645L70.1271 10.046ZM79.6751 6.168H77.9926V7.85054H79.6751V6.168ZM79.6751 7.722V6.03946H77.9926V7.722H79.6751ZM73.8511 4.53V2.84746H70.5751V4.53V6.21254H73.8511V4.53ZM70.5751 4.53V2.84746C70.6974 2.84746 70.8623 2.87346 71.0377 2.95993C71.2136 3.04667 71.3501 3.16977 71.4454 3.29746C71.6222 3.53412 71.6276 3.73549 71.6276 3.774H69.9451H68.2626C68.2626 4.21851 68.366 4.79788 68.7493 5.31104C69.1799 5.88763 69.8438 6.21254 70.5751 6.21254V4.53ZM69.9451 3.774H71.6276C71.6276 3.79514 71.6268 3.99238 71.4515 4.23016C71.3564 4.35909 71.2191 4.48433 71.041 4.57264C70.8637 4.66055 70.6973 4.68654 70.5751 4.68654V3.004V1.32146C69.8423 1.32146 69.1745 1.64806 68.7432 2.23284C68.3614 2.75062 68.2626 3.33285 68.2626 3.774H69.9451ZM70.5751 3.004V4.68654H74.7611V3.004V1.32146H70.5751V3.004ZM74.7611 3.004V4.68654C74.9117 4.68654 74.9399 4.69991 74.9006 4.68966C74.846 4.67542 74.6839 4.62066 74.5196 4.46094C74.3529 4.29897 74.289 4.13149 74.2695 4.06084C74.255 4.00856 74.2686 4.02445 74.2686 4.166H75.9511H77.6336C77.6336 3.63491 77.5678 2.73083 76.8646 2.04756C76.1755 1.37794 75.2811 1.32146 74.7611 1.32146V3.004ZM75.9511 4.166H74.2686V5.692H75.9511H77.6336V4.166H75.9511ZM75.9511 5.692H74.2686C74.2686 6.67511 74.1445 7.01441 73.8101 7.41419C73.3256 7.99337 72.3532 8.71321 70.1968 10.0414L71.0791 11.474L71.9614 12.9066C74.033 11.6308 75.4966 10.6426 76.3911 9.57331C77.4357 8.32459 77.6336 7.07489 77.6336 5.692H75.9511ZM71.0791 11.474L70.2059 10.0358C70.494 9.86086 70.8009 9.87255 70.9979 9.93763C71.1684 9.99397 71.2964 10.0968 71.3871 10.2327L69.9871 11.166L68.5871 12.0993C69.1292 12.9124 70.5371 13.7714 71.9523 12.9122L71.0791 11.474ZM69.9871 11.166L71.3871 10.2327C71.4568 10.3373 71.512 10.4783 71.5004 10.6741C71.4939 10.7841 71.4638 10.932 71.3778 11.089C71.2879 11.2529 71.1587 11.386 71.0144 11.4756L70.1271 10.046L69.2398 8.61645C68.4983 9.07669 68.1804 9.81589 68.1413 10.4749C68.1051 11.0837 68.2934 11.6587 68.5871 12.0993L69.9871 11.166ZM70.1271 10.046L71.0036 11.4822C72.8428 10.3597 74.0998 9.54168 74.8368 8.71071C75.2609 8.23256 75.5475 7.72069 75.7032 7.13048C75.8452 6.59251 75.8556 6.06346 75.8556 5.636H74.1731H72.4906C72.4906 6.04154 72.4712 6.18974 72.4496 6.27171C72.4417 6.30143 72.4307 6.35219 72.3193 6.47779C71.9854 6.85432 71.2194 7.40827 69.2506 8.6098L70.1271 10.046ZM74.1731 5.636H75.8556V4.852H74.1731H72.4906V5.636H74.1731ZM74.1731 4.852H75.8556C75.8556 4.61742 75.8323 3.95319 75.2911 3.41201C74.7499 2.87084 74.0857 2.84746 73.8511 2.84746V4.53V6.21254C73.8242 6.21254 73.7071 6.21165 73.5475 6.16689C73.3724 6.11778 73.1313 6.01114 72.9116 5.79149C72.692 5.57183 72.5853 5.33073 72.5362 5.15558C72.4914 4.99596 72.4906 4.87894 72.4906 4.852H74.1731ZM79.6751 6.168V7.85054H80.9911V6.168V4.48546H79.6751V6.168ZM80.9911 6.168V7.85054C80.8804 7.85054 80.7215 7.82779 80.5479 7.7438C80.3724 7.65889 80.2334 7.53608 80.1351 7.40502C79.9533 7.16268 79.9526 6.95879 79.9526 6.938H81.6351H83.3176C83.3176 6.49721 83.2189 5.90832 82.8271 5.38598C82.3851 4.79658 81.7117 4.48546 80.9911 4.48546V6.168ZM81.6351 6.938H79.9526C79.9526 6.93422 79.9489 6.73446 80.1291 6.49126C80.2271 6.35896 80.3669 6.23403 80.5446 6.14758C80.7201 6.06219 80.8805 6.03946 80.9911 6.03946V7.722V9.40454C81.7131 9.40454 82.3905 9.09183 82.8331 8.49424C83.2233 7.96754 83.3176 7.37578 83.3176 6.938H81.6351ZM80.9911 7.722V6.03946H79.6751V7.722V9.40454H80.9911V7.722ZM79.6751 7.722H77.9926V13.518H79.6751H81.3576V7.722H79.6751ZM79.6751 13.518H77.9926C77.9926 13.4066 78.0175 13.2564 78.0972 13.0981C78.1764 12.9408 78.2858 12.8227 78.3931 12.7425C78.59 12.5954 78.7491 12.5915 78.7791 12.5915V14.274V15.9565C79.2711 15.9565 79.8782 15.8336 80.4076 15.438C80.995 14.999 81.3576 14.3124 81.3576 13.518H79.6751ZM78.7791 14.274V12.5915C78.8091 12.5915 78.9682 12.5954 79.1651 12.7425C79.2724 12.8227 79.3818 12.9408 79.461 13.0981C79.5407 13.2564 79.5656 13.4066 79.5656 13.518H77.8831H76.2006C76.2006 14.3124 76.5632 14.999 77.1506 15.438C77.68 15.8336 78.2871 15.9565 78.7791 15.9565V14.274ZM77.8831 13.518H79.5656V2.794H77.8831H76.2006V13.518H77.8831ZM77.8831 2.794H79.5656C79.5656 2.90535 79.5407 3.05556 79.461 3.21394C79.3818 3.37116 79.2724 3.4893 79.1651 3.56948C78.9682 3.71664 78.8091 3.72054 78.7791 3.72054V2.038V0.35546C78.2871 0.35546 77.68 0.478357 77.1506 0.874017C76.5632 1.31303 76.2006 1.99962 76.2006 2.794H77.8831ZM78.7791 2.038V3.72054C78.7491 3.72054 78.59 3.71664 78.3931 3.56948C78.2858 3.4893 78.1764 3.37116 78.0972 3.21394C78.0175 3.05556 77.9926 2.90535 77.9926 2.794H79.6751H81.3576C81.3576 1.99962 80.995 1.31303 80.4076 0.874017C79.8782 0.478357 79.2711 0.35546 78.7791 0.35546V2.038ZM79.6751 2.794H77.9926V6.168H79.6751H81.3576V2.794H79.6751ZM95.1753 9.71L93.5351 9.33454L93.5328 9.34501L95.1753 9.71ZM94.0833 10.298L93.7533 11.9479L93.7621 11.9496L94.0833 10.298ZM93.4393 9.43L91.7936 9.07985L91.7914 9.08992L91.7894 9.10003L93.4393 9.43ZM93.7333 7.568L95.4092 7.71697L95.5755 5.84597L93.6976 5.88584L93.7333 7.568ZM87.1393 7.708L87.1036 6.02584L87.0959 6.026L87.0883 6.02623L87.1393 7.708ZM86.4673 6.966L88.1489 6.90995L86.4673 6.966ZM87.0833 6.168V7.85054H87.092L87.1008 7.85045L87.0833 6.168ZM93.8173 6.098L93.8348 7.78045L95.4047 7.76413L95.4969 6.19681L93.8173 6.098ZM91.1853 11.614H89.5027V13.2965H91.1853V11.614ZM89.3933 11.614V13.2965H91.0758V11.614H89.3933ZM93.5093 4.432V2.74946H87.3773V4.432V6.11454H93.5093V4.432ZM87.3773 4.432V2.74946C87.4995 2.74946 87.6645 2.77546 87.8399 2.86192C88.0158 2.94867 88.1523 3.07177 88.2476 3.19946C88.4244 3.43612 88.4298 3.63749 88.4298 3.676H86.7473H85.0647C85.0647 4.12051 85.1682 4.69988 85.5515 5.21304C85.9821 5.78963 86.646 6.11454 87.3773 6.11454V4.432ZM86.7473 3.676H88.4298C88.4298 3.69714 88.429 3.89438 88.2536 4.13216C88.1586 4.2611 88.0213 4.38633 87.8432 4.47464C87.6659 4.56255 87.4995 4.58854 87.3773 4.58854V2.906V1.22346C86.6445 1.22346 85.9767 1.55006 85.5454 2.13484C85.1636 2.65262 85.0647 3.23486 85.0647 3.676H86.7473ZM87.3773 2.906V4.58854H94.4053V2.906V1.22346H87.3773V2.906ZM94.4053 2.906V4.58854C94.5559 4.58854 94.5841 4.60191 94.5448 4.59166C94.4902 4.57742 94.3281 4.52266 94.1637 4.36294C93.9971 4.20097 93.9332 4.03349 93.9137 3.96284C93.8992 3.91057 93.9127 3.92645 93.9127 4.068H95.5953H97.2778C97.2778 3.53691 97.212 2.63283 96.5088 1.94956C95.8197 1.27994 94.9253 1.22346 94.4053 1.22346V2.906ZM95.5953 4.068H93.9127V5.356H95.5953H97.2778V4.068H95.5953ZM95.5953 5.356H93.9127C93.9127 7.16002 93.7676 8.319 93.5352 9.33455L95.1753 9.71L96.8154 10.0854C97.1149 8.777 97.2778 7.35998 97.2778 5.356H95.5953ZM95.1753 9.71L93.5328 9.34501C93.5561 9.24042 93.6088 9.11085 93.7079 8.98538C93.8063 8.86081 93.9238 8.7739 94.0346 8.71949C94.2429 8.6172 94.3878 8.64316 94.4044 8.64639L94.0833 10.298L93.7621 11.9496C94.2828 12.0508 94.9176 12.0348 95.5179 11.74C96.1679 11.4208 96.6498 10.8307 96.8178 10.075L95.1753 9.71ZM94.0833 10.298L94.4133 8.64813C94.4687 8.65922 94.6712 8.7125 94.8609 8.94065C94.9607 9.06078 95.0385 9.21009 95.0775 9.37578C95.1158 9.53912 95.1063 9.67435 95.0891 9.75997L93.4393 9.43L91.7894 9.10003C91.6494 9.80018 91.8005 10.5233 92.2732 11.0919C92.7044 11.6105 93.2779 11.8528 93.7533 11.9479L94.0833 10.298ZM93.4393 9.43L95.085 9.78015C95.2338 9.0806 95.3453 8.43587 95.4092 7.71697L93.7333 7.568L92.0574 7.41903C92.0093 7.96013 91.9247 8.4634 91.7936 9.07985L93.4393 9.43ZM93.7333 7.568L93.6976 5.88584L87.1036 6.02584L87.1393 7.708L87.175 9.39016L93.769 9.25016L93.7333 7.568ZM87.1393 7.708L87.0883 6.02623C87.182 6.02339 87.3337 6.0369 87.5085 6.11242C87.6877 6.18981 87.8367 6.30907 87.9458 6.44453C88.1463 6.6936 88.1488 6.90856 88.1489 6.90995L86.4673 6.966L84.7857 7.02205C84.7997 7.44344 84.9072 8.0364 85.3248 8.55497C85.8 9.14523 86.4928 9.4109 87.1902 9.38977L87.1393 7.708ZM86.4673 6.966L88.1489 6.90995C88.1501 6.94729 88.1514 7.13443 87.9918 7.3655C87.9048 7.49153 87.7726 7.62337 87.5903 7.72003C87.4064 7.81758 87.2257 7.85054 87.0833 7.85054V6.168V4.48546C86.3023 4.48546 85.632 4.8608 85.2227 5.4535C84.8602 5.97857 84.7704 6.56471 84.7857 7.02205L86.4673 6.966ZM87.0833 6.168L87.1008 7.85045L93.8348 7.78045L93.8173 6.098L93.7998 4.41555L87.0658 4.48555L87.0833 6.168ZM93.8173 6.098L95.4969 6.19681C95.5144 5.89977 95.5138 5.58111 95.5138 5.314H93.8313H92.1487C92.1487 5.60689 92.1482 5.82023 92.1376 5.99919L93.8173 6.098ZM93.8313 5.314H95.5138V4.754H93.8313H92.1487V5.314H93.8313ZM93.8313 4.754H95.5138C95.5138 4.51942 95.4904 3.85519 94.9493 3.31401C94.4081 2.77284 93.7439 2.74946 93.5093 2.74946V4.432V6.11454C93.4823 6.11454 93.3653 6.11365 93.2057 6.06889C93.0306 6.01977 92.7895 5.91314 92.5698 5.69348C92.3502 5.47383 92.2435 5.23273 92.1944 5.05758C92.1496 4.89797 92.1487 4.78094 92.1487 4.754H93.8313ZM91.1853 11.614V13.2965H96.4773V11.614V9.93146H91.1853V11.614ZM96.4773 11.614V13.2965C96.355 13.2965 96.19 13.2705 96.0147 13.1841C95.8388 13.0973 95.7023 12.9742 95.607 12.8465C95.4302 12.6099 95.4247 12.4085 95.4247 12.37H97.1073H98.7898C98.7898 11.9255 98.6864 11.3461 98.3031 10.833C97.8725 10.2564 97.2086 9.93146 96.4773 9.93146V11.614ZM97.1073 12.37H95.4247C95.4247 12.3315 95.4302 12.1301 95.607 11.8935C95.7023 11.7658 95.8388 11.6427 96.0147 11.5559C96.19 11.4695 96.355 11.4435 96.4773 11.4435V13.126V14.8085C97.2086 14.8085 97.8725 14.4836 98.3031 13.907C98.6864 13.3939 98.7898 12.8145 98.7898 12.37H97.1073ZM96.4773 13.126V11.4435H85.8933V13.126V14.8085H96.4773V13.126ZM85.8933 13.126V11.4435C86.0155 11.4435 86.1805 11.4695 86.3559 11.5559C86.5318 11.6427 86.6683 11.7658 86.7636 11.8935C86.9404 12.1301 86.9458 12.3315 86.9458 12.37H85.2633H83.5807C83.5807 12.8145 83.6842 13.3939 84.0675 13.907C84.4981 14.4836 85.162 14.8085 85.8933 14.8085V13.126ZM85.2633 12.37H86.9458C86.9458 12.4085 86.9404 12.6099 86.7636 12.8465C86.6683 12.9742 86.5318 13.0973 86.3559 13.1841C86.1805 13.2705 86.0155 13.2965 85.8933 13.2965V11.614V9.93146C85.162 9.93146 84.4981 10.2564 84.0675 10.833C83.6842 11.3461 83.5807 11.9255 83.5807 12.37H85.2633ZM85.8933 11.614V13.2965H89.3933V11.614V9.93146H85.8933V11.614ZM89.3933 11.614H91.0758V9.5H89.3933H87.7107V11.614H89.3933ZM89.3933 9.5H91.0758C91.0758 9.61135 91.0509 9.76157 90.9711 9.91994C90.892 10.0772 90.7826 10.1953 90.6753 10.2755C90.4784 10.4226 90.3193 10.4265 90.2893 10.4265V8.744V7.06146C89.7973 7.06146 89.1902 7.18436 88.6608 7.58002C88.0734 8.01903 87.7107 8.70562 87.7107 9.5H89.3933ZM90.2893 8.744V10.4265C90.2593 10.4265 90.1002 10.4226 89.9033 10.2755C89.796 10.1953 89.6866 10.0772 89.6074 9.91994C89.5277 9.76157 89.5027 9.61135 89.5027 9.5H91.1853H92.8678C92.8678 8.70562 92.5052 8.01903 91.9178 7.58002C91.3884 7.18436 90.7813 7.06146 90.2893 7.06146V8.744ZM91.1853 9.5H89.5027V11.614H91.1853H92.8678V9.5H91.1853ZM101.505 10.704L102.766 11.8188L102.774 11.81L102.781 11.801L101.505 10.704ZM102.793 11.754L101.518 10.6568L101.516 10.659L102.793 11.754ZM101.645 11.768L100.541 13.0377L100.546 13.0414L101.645 11.768ZM98.1035 9.612L99.2932 10.8017L99.3024 10.7926L99.3114 10.7833L98.1035 9.612ZM99.2795 10.732L100.469 11.9217L100.479 11.9124L100.488 11.9029L99.2795 10.732ZM98.1875 10.69L97.0257 11.9071L97.0271 11.9084L98.1875 10.69ZM101.505 10.704L102.781 11.801C103.702 10.7304 104.391 9.88412 104.794 9.00068C105.241 8.02365 105.288 7.12602 105.288 6.14H103.605H101.923C101.923 7.02998 101.865 7.31535 101.734 7.60182C101.56 7.98188 101.199 8.47963 100.23 9.60701L101.505 10.704ZM103.605 6.14H105.288V4.838H103.605H101.923V6.14H103.605ZM103.605 4.838H105.288C105.288 4.60342 105.265 3.93919 104.723 3.39801C104.182 2.85684 103.518 2.83346 103.283 2.83346V4.516V6.19854C103.257 6.19854 103.14 6.19765 102.98 6.15289C102.805 6.10378 102.564 5.99714 102.344 5.77749C102.124 5.55783 102.018 5.31673 101.969 5.14158C101.924 4.98196 101.923 4.86494 101.923 4.838H103.605ZM103.283 4.516V2.83346H102.695V4.516V6.19854H103.283V4.516ZM102.695 4.516V2.83346C102.83 2.83346 103.002 2.86302 103.181 2.95347C103.36 3.04363 103.494 3.16906 103.586 3.29451C103.757 3.52647 103.762 3.72121 103.762 3.76H102.079H100.397C100.397 4.20479 100.5 4.77752 100.874 5.28599C101.293 5.8572 101.951 6.19854 102.695 6.19854V4.516ZM102.079 3.76H103.762C103.762 3.78154 103.761 3.97207 103.592 4.2051C103.5 4.33172 103.365 4.45928 103.185 4.55104C103.004 4.64298 102.83 4.67254 102.695 4.67254V2.99V1.30746C101.95 1.30746 101.288 1.65064 100.868 2.2299C100.496 2.74293 100.397 3.31845 100.397 3.76H102.079ZM102.695 2.99V4.67254H104.123V2.99V1.30746H102.695V2.99ZM104.123 2.99V4.67254C104.274 4.67254 104.302 4.68591 104.263 4.67566C104.208 4.66142 104.046 4.60666 103.882 4.44694C103.715 4.28497 103.651 4.11749 103.632 4.04684C103.617 3.99456 103.631 4.01045 103.631 4.152H105.313H106.996C106.996 3.62092 106.93 2.71683 106.227 2.03356C105.538 1.36394 104.644 1.30746 104.123 1.30746V2.99ZM105.313 4.152H103.631V6.21H105.313H106.996V4.152H105.313ZM105.313 6.21H103.631C103.631 7.23494 103.56 7.68238 103.356 8.14116C103.118 8.67673 102.643 9.34903 101.518 10.6568L102.793 11.754L104.069 12.8512C105.184 11.555 105.969 10.5473 106.431 9.50784C106.927 8.39162 106.996 7.36906 106.996 6.21H105.313ZM102.793 11.754L101.516 10.659C101.598 10.5634 101.721 10.4661 101.881 10.4008C102.037 10.337 102.187 10.321 102.309 10.3282C102.529 10.3412 102.667 10.4269 102.745 10.4946L101.645 11.768L100.546 13.0414C100.932 13.3751 101.476 13.6498 102.109 13.6873C102.804 13.7286 103.537 13.4716 104.071 12.849L102.793 11.754ZM101.645 11.768L102.75 10.4983C102.792 10.5357 102.934 10.6751 102.987 10.9555C103.016 11.1049 103.013 11.2754 102.964 11.4467C102.915 11.6171 102.834 11.7412 102.766 11.8188L101.505 10.704L100.245 9.58919C99.7556 10.1427 99.5449 10.8603 99.6806 11.5795C99.8035 12.2309 100.176 12.7203 100.541 13.0377L101.645 11.768ZM98.1035 9.612L99.3114 10.7833C100.165 9.90295 100.848 9.1748 101.244 8.38754C101.698 7.48698 101.718 6.64281 101.718 5.818H100.035H98.3529C98.3529 6.61719 98.3033 6.74602 98.2386 6.87446C98.1169 7.1162 97.8339 7.47305 96.8956 8.44071L98.1035 9.612ZM100.035 5.818H101.718V4.838H100.035H98.3529V5.818H100.035ZM100.035 4.838H101.718C101.718 4.60343 101.695 3.93919 101.153 3.39801C100.612 2.85684 99.9481 2.83346 99.7135 2.83346V4.516V6.19854C99.6865 6.19854 99.5695 6.19765 99.4099 6.15289C99.2347 6.10378 98.9936 5.99714 98.774 5.77749C98.5543 5.55783 98.4477 5.31672 98.3986 5.14158C98.3538 4.98196 98.3529 4.86494 98.3529 4.838H100.035ZM99.7135 4.516V2.83346H98.8595V4.516V6.19854H99.7135V4.516ZM98.8595 4.516V2.83346C98.9817 2.83346 99.1467 2.85946 99.3221 2.94593C99.498 3.03267 99.6344 3.15577 99.7298 3.28346C99.9065 3.52012 99.912 3.72149 99.912 3.76H98.2295H96.5469C96.5469 4.20451 96.6504 4.78388 97.0336 5.29704C97.4643 5.87363 98.1282 6.19854 98.8595 6.19854V4.516ZM98.2295 3.76H99.912C99.912 3.78114 99.9112 3.97837 99.7358 4.21616C99.6407 4.34509 99.5035 4.47033 99.3254 4.55864C99.1481 4.64655 98.9817 4.67254 98.8595 4.67254V2.99V1.30746C98.1267 1.30746 97.4589 1.63406 97.0276 2.21884C96.6457 2.73662 96.5469 3.31885 96.5469 3.76H98.2295ZM98.8595 2.99V4.67254H100.553V2.99V1.30746H98.8595V2.99ZM100.553 2.99V4.67254C100.745 4.67254 100.792 4.68577 100.767 4.67999C100.724 4.67035 100.53 4.61736 100.334 4.42661C100.134 4.23265 100.071 4.03207 100.057 3.97233C100.047 3.9338 100.061 3.9688 100.061 4.152H101.743H103.426C103.426 3.69496 103.41 2.72269 102.677 2.01189C101.962 1.3176 101.002 1.30746 100.553 1.30746V2.99ZM101.743 4.152H100.061V5.888H101.743H103.426V4.152H101.743ZM101.743 5.888H100.061C100.061 6.8168 99.9912 7.13347 99.8324 7.44945C99.6238 7.86444 99.1912 8.40542 98.0712 9.56106L99.2795 10.732L100.488 11.9029C101.566 10.7906 102.365 9.90356 102.839 8.96055C103.363 7.91853 103.426 6.9472 103.426 5.888H101.743ZM99.2795 10.732L98.0897 9.54226C98.1643 9.46768 98.2793 9.38436 98.4348 9.32861C98.5896 9.2731 98.7442 9.25949 98.8799 9.27306C99.1346 9.29854 99.2838 9.41057 99.3478 9.47161L98.1875 10.69L97.0271 11.9084C97.3852 12.2494 97.9053 12.5575 98.5451 12.6214C99.2429 12.6912 99.9397 12.4513 100.469 11.9217L99.2795 10.732ZM98.1875 10.69L99.3492 9.47293C99.3917 9.5135 99.5261 9.65885 99.5653 9.94054C99.5862 10.0915 99.5754 10.2638 99.5162 10.4354C99.4573 10.6062 99.3674 10.7276 99.2932 10.8017L98.1035 9.612L96.9137 8.42227C96.381 8.95504 96.1305 9.67143 96.2322 10.4035C96.3238 11.0632 96.6752 11.5725 97.0257 11.9071L98.1875 10.69ZM108.631 2.78H106.949V13.532H108.631H110.314V2.78H108.631ZM108.631 13.532H106.949C106.949 13.4186 106.974 13.2673 107.054 13.1081C107.133 12.9498 107.243 12.8299 107.352 12.7477C107.553 12.596 107.718 12.5915 107.749 12.5915V14.274V15.9565C108.243 15.9565 108.848 15.833 109.376 15.4363C109.959 14.9972 110.314 14.3147 110.314 13.532H108.631ZM107.749 14.274V12.5915C107.797 12.5915 107.966 12.6006 108.166 12.753C108.274 12.8353 108.383 12.9545 108.46 13.1109C108.539 13.2685 108.564 13.4186 108.564 13.532H106.881H105.199C105.199 14.3134 105.553 14.9927 106.129 15.431C106.651 15.8284 107.254 15.9565 107.749 15.9565V14.274ZM106.881 13.532H108.564V2.78H106.881H105.199V13.532H106.881ZM106.881 2.78H108.564C108.564 2.8934 108.539 3.04348 108.46 3.20106C108.383 3.35753 108.274 3.47675 108.166 3.55901C107.966 3.71135 107.797 3.72054 107.749 3.72054V2.038V0.35546C107.254 0.35546 106.651 0.483649 106.129 0.880987C105.553 1.31929 105.199 1.99855 105.199 2.78H106.881ZM107.749 2.038V3.72054C107.718 3.72054 107.553 3.71604 107.352 3.56429C107.243 3.48214 107.133 3.36218 107.054 3.20389C106.974 3.04466 106.949 2.89335 106.949 2.78H108.631H110.314C110.314 1.99727 109.959 1.31478 109.376 0.875704C108.848 0.47896 108.243 0.35546 107.749 0.35546V2.038ZM117.58 9.584L117.364 7.91527L117.356 7.91637L117.58 9.584ZM118.308 10.228L119.982 10.0606L119.981 10.0488L118.308 10.228ZM117.804 11.082L118.027 12.7496L118.034 12.7488L117.804 11.082ZM114.836 4.404V2.72146H111.56V4.404V6.08654H114.836V4.404ZM111.56 4.404V2.72146C111.682 2.72146 111.847 2.74746 112.022 2.83393C112.198 2.92067 112.335 3.04377 112.43 3.17146C112.607 3.40812 112.612 3.60949 112.612 3.648H110.93H109.247C109.247 4.09251 109.351 4.67188 109.734 5.18504C110.164 5.76163 110.828 6.08654 111.56 6.08654V4.404ZM110.93 3.648H112.612C112.612 3.68651 112.607 3.88788 112.43 4.12454C112.335 4.25223 112.198 4.37533 112.022 4.46207C111.847 4.54854 111.682 4.57454 111.56 4.57454V2.892V1.20946C110.828 1.20946 110.164 1.53437 109.734 2.11096C109.351 2.62412 109.247 3.20349 109.247 3.648H110.93ZM111.56 2.892V4.57454H115.732V2.892V1.20946H111.56V2.892ZM115.732 2.892V4.57454C115.882 4.57454 115.91 4.58791 115.871 4.57766C115.817 4.56342 115.654 4.50866 115.49 4.34894C115.323 4.18697 115.26 4.01949 115.24 3.94884C115.226 3.89656 115.239 3.91245 115.239 4.054H116.922H118.604C118.604 3.52291 118.538 2.61883 117.835 1.93556C117.146 1.26594 116.252 1.20946 115.732 1.20946V2.892ZM116.922 4.054H115.239V6.658H116.922H118.604V4.054H116.922ZM116.922 6.658H115.239C115.239 6.79955 115.226 6.81543 115.24 6.76316C115.26 6.69251 115.323 6.52503 115.49 6.36306C115.654 6.20334 115.817 6.14858 115.871 6.13434C115.91 6.12409 115.882 6.13746 115.732 6.13746V7.82V9.50254C116.252 9.50254 117.146 9.44606 117.835 8.77644C118.538 8.09317 118.604 7.18909 118.604 6.658H116.922ZM115.732 7.82V6.13746H113.03V7.82V9.50254H115.732V7.82ZM113.03 7.82V6.13746C112.795 6.13746 112.131 6.16084 111.59 6.70201C111.048 7.24319 111.025 7.90742 111.025 8.142H112.708H114.39C114.39 8.16894 114.389 8.28596 114.345 8.44558C114.295 8.62072 114.189 8.86183 113.969 9.08149C113.749 9.30114 113.508 9.40778 113.333 9.45689C113.174 9.50165 113.057 9.50254 113.03 9.50254V7.82ZM112.708 8.142H111.025V9.528H112.708H114.39V8.142H112.708ZM112.708 9.528H111.025C111.025 9.76258 111.048 10.4268 111.59 10.968C112.131 11.5092 112.795 11.5325 113.03 11.5325V9.85V8.16746C113.057 8.16746 113.174 8.16835 113.333 8.21311C113.508 8.26222 113.749 8.36886 113.969 8.58851C114.189 8.80817 114.295 9.04927 114.345 9.22442C114.389 9.38404 114.39 9.50106 114.39 9.528H112.708ZM113.03 9.85V11.5325C114.835 11.5325 116.354 11.4459 117.803 11.2516L117.58 9.584L117.356 7.91637C116.09 8.08612 114.725 8.16746 113.03 8.16746V9.85ZM117.58 9.584L117.795 11.2527C117.537 11.286 117.187 11.2063 116.918 10.9449C116.692 10.7253 116.644 10.4978 116.635 10.4072L118.308 10.228L119.981 10.0488C119.929 9.56623 119.734 8.9887 119.263 8.53115C118.749 8.03168 118.056 7.82599 117.364 7.91529L117.58 9.584ZM118.308 10.228L116.633 10.3954C116.633 10.3866 116.63 10.3516 116.638 10.2939C116.646 10.2372 116.668 10.1352 116.733 10.0121C116.8 9.88352 116.911 9.7373 117.079 9.61661C117.25 9.49439 117.427 9.43546 117.574 9.41524L117.804 11.082L118.034 12.7488C118.798 12.6433 119.393 12.1871 119.715 11.5709C119.997 11.0313 120.023 10.4718 119.982 10.0606L118.308 10.228ZM117.804 11.082L117.58 9.4144C116.529 9.55544 114.998 9.67946 112.134 9.67946V11.362V13.0445C115.094 13.0445 116.783 12.9166 118.027 12.7496L117.804 11.082ZM112.134 11.362V9.67946C111.983 9.67946 111.955 9.66609 111.994 9.67634C112.049 9.69058 112.211 9.74534 112.375 9.90506C112.542 10.067 112.606 10.2345 112.625 10.3052C112.64 10.3574 112.626 10.3416 112.626 10.2H110.944H109.261C109.261 10.7311 109.327 11.6352 110.03 12.3184C110.719 12.9881 111.614 13.0445 112.134 13.0445V11.362ZM110.944 10.2H112.626V7.526H110.944H109.261V10.2H110.944ZM110.944 7.526H112.626C112.626 7.38445 112.64 7.36856 112.625 7.42084C112.606 7.49149 112.542 7.65897 112.375 7.82094C112.211 7.98066 112.049 8.03542 111.994 8.04966C111.955 8.05991 111.983 8.04654 112.134 8.04654V6.364V4.68146C111.614 4.68146 110.719 4.73794 110.03 5.40756C109.327 6.09083 109.261 6.99492 109.261 7.526H110.944ZM112.134 6.364V8.04654H114.836V6.364V4.68146H112.134V6.364ZM114.836 6.364V8.04654C115.07 8.04654 115.734 8.02316 116.276 7.48199C116.817 6.94081 116.84 6.27658 116.84 6.042H115.158H113.475C113.475 6.01506 113.476 5.89803 113.521 5.73842C113.57 5.56327 113.677 5.32217 113.896 5.10251C114.116 4.88286 114.357 4.77622 114.532 4.72711C114.692 4.68235 114.809 4.68146 114.836 4.68146V6.364ZM115.158 6.042H116.84V4.726H115.158H113.475V6.042H115.158ZM115.158 4.726H116.84C116.84 4.49142 116.817 3.82719 116.276 3.28601C115.734 2.74484 115.07 2.72146 114.836 2.72146V4.404V6.08654C114.809 6.08654 114.692 6.08565 114.532 6.04089C114.357 5.99178 114.116 5.88514 113.896 5.66549C113.677 5.44583 113.57 5.20473 113.521 5.02958C113.476 4.86996 113.475 4.75294 113.475 4.726H115.158ZM120.94 2.794H119.257V13.518H120.94H122.622V2.794H120.94ZM120.94 13.518H119.257C119.257 13.4067 119.282 13.2553 119.363 13.0953C119.443 12.9363 119.554 12.8175 119.663 12.7375C119.861 12.591 120.016 12.5915 120.03 12.5915V14.274V15.9565C120.52 15.9565 121.13 15.838 121.664 15.443C122.258 15.0033 122.622 14.3137 122.622 13.518H120.94ZM120.03 14.274V12.5915C120.06 12.5915 120.219 12.5954 120.416 12.7425C120.523 12.8227 120.632 12.9408 120.712 13.0981C120.791 13.2564 120.816 13.4066 120.816 13.518H119.134H117.451C117.451 14.3124 117.814 14.999 118.401 15.438C118.931 15.8336 119.538 15.9565 120.03 15.9565V14.274ZM119.134 13.518H120.816V2.794H119.134H117.451V13.518H119.134ZM119.134 2.794H120.816C120.816 2.90535 120.791 3.05556 120.712 3.21394C120.632 3.37116 120.523 3.4893 120.416 3.56948C120.219 3.71664 120.06 3.72054 120.03 3.72054V2.038V0.35546C119.538 0.35546 118.931 0.478357 118.401 0.874017C117.814 1.31303 117.451 1.99962 117.451 2.794H119.134ZM120.03 2.038V3.72054C120.016 3.72054 119.861 3.72095 119.663 3.57451C119.554 3.49448 119.443 3.37568 119.363 3.21669C119.282 3.05672 119.257 2.9053 119.257 2.794H120.94H122.622C122.622 1.99833 122.258 1.30865 121.664 0.868984C121.13 0.474044 120.52 0.35546 120.03 0.35546V2.038Z" fill="#FFFBEB" mask="url(#path-1-outside-1_21_6217)"/>
</g>
<defs>
<filter id="filter0_d_21_6217" x="0.284668" y="0.215332" width="124.337" height="20.9033" filterUnits="userSpaceOnUse" color-interpolation-filters="sRGB">
<feFlood flood-opacity="0" result="BackgroundImageFix"/>
<feColorMatrix in="SourceAlpha" type="matrix" values="0 0 0 0 0 0 0 0 0 0 0 0 0 0 0 0 0 0 127 0" result="hardAlpha"/>
<feOffset dy="2"/>
<feGaussianBlur stdDeviation="1"/>
<feComposite in2="hardAlpha" operator="out"/>
<feColorMatrix type="matrix" values="0 0 0 0 0.580392 0 0 0 0 0.439216 0 0 0 0 0.368627 0 0 0 0.25 0"/>
<feBlend mode="normal" in2="BackgroundImageFix" result="effect1_dropShadow_21_6217"/>
<feBlend mode="normal" in="SourceGraphic" in2="effect1_dropShadow_21_6217" result="shape"/>
</filter>
</defs>
</svg>
