<svg width="112" height="21" viewBox="0 0 112 21" fill="none" xmlns="http://www.w3.org/2000/svg">
<g filter="url(#filter0_d_21_6214)">
<mask id="path-1-outside-1_21_6214" maskUnits="userSpaceOnUse" x="2" y="0" width="108" height="17" fill="black">
<rect fill="white" x="2" width="108" height="17"/>
<path d="M7.97425 4.278H4.69825C4.26425 4.278 4.06825 3.928 4.06825 3.522C4.06825 3.102 4.26425 2.752 4.69825 2.752H8.88425C9.78025 2.752 10.0742 3.032 10.0742 3.914V4.908C10.0742 6.854 9.36025 7.484 5.07625 9.444C4.64225 9.64 4.22225 9.36 4.04025 8.982C3.88625 8.646 3.88625 8.142 4.36225 7.932C8.10025 6.252 8.29625 5.916 8.29625 4.852V4.6C8.29625 4.362 8.21225 4.278 7.97425 4.278ZM13.7982 4.908H15.1142C15.5622 4.908 15.7582 5.258 15.7582 5.678C15.7582 6.112 15.5622 6.462 15.1142 6.462H13.7982V8.66C13.7982 9.178 13.3642 9.416 12.9022 9.416C12.4402 9.416 12.0062 9.178 12.0062 8.66V2.794C12.0062 2.276 12.4402 2.038 12.9022 2.038C13.3642 2.038 13.7982 2.276 13.7982 2.794V4.908ZM12.6082 15.016H6.70025C5.80425 15.016 5.51025 14.736 5.51025 13.854V11.096C5.51025 10.214 5.80425 9.934 6.70025 9.934H12.6082C13.5042 9.934 13.7982 10.214 13.7982 11.096V13.854C13.7982 14.736 13.5042 15.016 12.6082 15.016ZM7.61025 13.532H11.6982C11.9362 13.532 12.0202 13.448 12.0202 13.21V11.74C12.0202 11.502 11.9362 11.418 11.6982 11.418H7.61025C7.37225 11.418 7.28825 11.502 7.28825 11.74V13.21C7.28825 13.448 7.37225 13.532 7.61025 13.532ZM21.0524 3.242V4.446C21.0524 5.286 21.2764 5.846 21.8784 6.364C22.4944 6.882 23.0264 7.302 23.4464 7.61C23.8384 7.89 23.8104 8.338 23.5584 8.688C23.3484 8.982 22.8864 9.206 22.4664 8.912C22.1304 8.674 21.6124 8.268 21.0664 7.806C20.4084 7.26 20.2404 7.036 20.1704 6.77H20.1564C20.0864 7.078 19.8764 7.358 19.2184 7.904C18.6724 8.366 18.1544 8.772 17.6084 9.164C17.2024 9.458 16.7264 9.234 16.5164 8.94C16.2784 8.604 16.2084 8.114 16.6424 7.806C17.2584 7.358 17.7904 6.938 18.4064 6.42C19.0084 5.902 19.2324 5.342 19.2324 4.502V3.242C19.2324 2.71 19.6664 2.472 20.1424 2.472C20.6184 2.472 21.0524 2.71 21.0524 3.242ZM25.1824 6.056H23.4324C22.9984 6.056 22.8024 5.706 22.8024 5.3C22.8024 4.88 22.9984 4.53 23.4324 4.53H25.1824V2.794C25.1824 2.276 25.6164 2.038 26.0784 2.038C26.5264 2.038 26.9604 2.276 26.9604 2.794V8.996C26.9604 9.514 26.5264 9.752 26.0784 9.752C25.6164 9.752 25.1824 9.514 25.1824 8.996V6.056ZM18.5464 12.552C18.5464 10.732 20.1424 9.836 22.7744 9.836C25.4064 9.836 27.0024 10.732 27.0024 12.552C27.0024 14.372 25.4064 15.268 22.7744 15.268C20.1424 15.268 18.5464 14.372 18.5464 12.552ZM25.2244 12.552C25.2244 11.782 24.5384 11.264 22.7744 11.264C21.0104 11.264 20.3244 11.782 20.3244 12.552C20.3244 13.322 21.0104 13.84 22.7744 13.84C24.5384 13.84 25.2244 13.322 25.2244 12.552ZM43.0766 13.126H32.4926C32.0586 13.126 31.8626 12.776 31.8626 12.37C31.8626 11.964 32.0586 11.614 32.4926 11.614H36.8886V9.136H34.5646C33.6686 9.136 33.3746 8.856 33.3746 7.974V3.984C33.3746 3.102 33.6686 2.822 34.5646 2.822H41.5086C41.9426 2.822 42.1386 3.172 42.1386 3.578C42.1386 3.984 41.9426 4.334 41.5086 4.334H35.5026C35.2646 4.334 35.1806 4.418 35.1806 4.656V7.302C35.1806 7.54 35.2646 7.624 35.5026 7.624H41.6486C42.0826 7.624 42.2786 7.974 42.2786 8.38C42.2786 8.786 42.0826 9.136 41.6486 9.136H38.6806V11.614H43.0766C43.5106 11.614 43.7066 11.964 43.7066 12.37C43.7066 12.776 43.5106 13.126 43.0766 13.126ZM44.9828 11.124C44.5488 11.124 44.3528 10.774 44.3528 10.382C44.3528 9.99 44.5488 9.64 44.9828 9.64H45.7248V4.516H45.0668C44.6328 4.516 44.4368 4.166 44.4368 3.774C44.4368 3.382 44.6328 3.032 45.0668 3.032H51.1708C51.6048 3.032 51.8008 3.382 51.8008 3.774C51.8008 4.166 51.6048 4.516 51.1708 4.516H50.6108V9.458C50.8348 9.444 51.0588 9.402 51.2828 9.374C51.7168 9.318 51.9688 9.612 52.0108 10.004C52.0528 10.41 51.9128 10.788 51.5068 10.844C49.8268 11.068 47.9928 11.124 44.9828 11.124ZM47.4328 9.626C47.9368 9.626 48.4268 9.612 48.9028 9.584V4.516H47.4328V9.626ZM54.4608 6.168H55.7768C56.2248 6.168 56.4208 6.518 56.4208 6.938C56.4208 7.372 56.2248 7.722 55.7768 7.722H54.4608V13.518C54.4608 14.036 54.0268 14.274 53.5648 14.274C53.1028 14.274 52.6688 14.036 52.6688 13.518V2.794C52.6688 2.276 53.1028 2.038 53.5648 2.038C54.0268 2.038 54.4608 2.276 54.4608 2.794V6.168ZM63.717 3.998V8.002C63.717 8.884 63.423 9.164 62.527 9.164H58.677C57.781 9.164 57.487 8.884 57.487 8.002V3.998C57.487 3.116 57.781 2.836 58.677 2.836H62.527C63.423 2.836 63.717 3.116 63.717 3.998ZM61.953 7.344V4.656C61.953 4.418 61.869 4.334 61.631 4.334H59.573C59.335 4.334 59.251 4.418 59.251 4.656V7.344C59.251 7.582 59.335 7.666 59.573 7.666H61.631C61.869 7.666 61.953 7.582 61.953 7.344ZM67.539 2.794V10.83C67.539 11.348 67.105 11.586 66.643 11.586C66.181 11.586 65.747 11.348 65.747 10.83V2.794C65.747 2.276 66.181 2.038 66.643 2.038C67.105 2.038 67.539 2.276 67.539 2.794ZM67.217 14.918H60.301C59.405 14.918 59.111 14.638 59.111 13.756V11.11C59.111 10.592 59.545 10.354 60.021 10.354C60.483 10.354 60.917 10.592 60.917 11.11V13.07C60.917 13.308 61.001 13.392 61.239 13.392H67.217C67.651 13.392 67.847 13.742 67.847 14.162C67.847 14.568 67.651 14.918 67.217 14.918ZM73.6032 4.418H70.5512C70.1172 4.418 69.9212 4.068 69.9212 3.662C69.9212 3.256 70.1172 2.906 70.5512 2.906H74.4992C75.3952 2.906 75.6892 3.186 75.6892 4.068V6.658C75.6892 7.54 75.3952 7.82 74.4992 7.82H72.0212C71.7832 7.82 71.6992 7.904 71.6992 8.142V9.514C71.6992 9.752 71.7832 9.836 72.0212 9.836C73.5752 9.836 75.0172 9.766 76.3192 9.584C76.7532 9.528 77.0052 9.836 77.0472 10.228C77.0892 10.648 76.9492 11.026 76.5432 11.082C75.4512 11.236 73.8412 11.348 71.1252 11.348C70.2292 11.348 69.9352 11.068 69.9352 10.186V7.526C69.9352 6.644 70.2292 6.364 71.1252 6.364H73.6032C73.8412 6.364 73.9252 6.28 73.9252 6.042V4.74C73.9252 4.502 73.8412 4.418 73.6032 4.418ZM78.3212 13.518V7.68H76.9772C76.5292 7.68 76.3332 7.33 76.3332 6.91C76.3332 6.49 76.5292 6.14 76.9772 6.14H78.3212V2.794C78.3212 2.276 78.7552 2.038 79.2172 2.038C79.6652 2.038 80.0992 2.276 80.0992 2.794V13.518C80.0992 14.036 79.6652 14.274 79.2172 14.274C78.7552 14.274 78.3212 14.036 78.3212 13.518ZM93.6674 2.878V6.672H94.6474V2.738C94.6474 2.262 95.0534 2.038 95.4734 2.038C95.8934 2.038 96.2994 2.262 96.2994 2.738V13.574C96.2994 14.05 95.8934 14.274 95.4734 14.274C95.0534 14.274 94.6474 14.05 94.6474 13.574V8.184H93.6674V12.986C93.6674 13.462 93.2614 13.686 92.8414 13.686C92.4354 13.686 92.0294 13.462 92.0294 12.986V2.878C92.0294 2.402 92.4354 2.178 92.8414 2.178C93.2614 2.178 93.6674 2.402 93.6674 2.878ZM85.4494 10.438H87.3674V8.366H86.4854C85.5894 8.366 85.2954 8.086 85.2954 7.204V4.25C85.2954 3.368 85.5894 3.088 86.4854 3.088H90.4334C90.8674 3.088 91.0494 3.438 91.0494 3.844C91.0494 4.236 90.8674 4.586 90.4334 4.586H87.3674C87.1294 4.586 87.0454 4.67 87.0454 4.908V6.546C87.0454 6.784 87.1294 6.868 87.3674 6.868H90.5734C91.0074 6.868 91.1894 7.218 91.1894 7.624C91.1894 8.016 91.0074 8.366 90.5734 8.366H89.0754V10.396C89.7054 10.382 90.3354 10.354 90.9654 10.312C91.3994 10.284 91.6094 10.592 91.6234 10.998C91.6374 11.404 91.4694 11.754 91.0494 11.782C89.7474 11.866 87.6474 11.936 85.4494 11.936C85.0154 11.936 84.8194 11.586 84.8194 11.18C84.8194 10.788 85.0154 10.438 85.4494 10.438ZM104.52 4.516H102.546V5.58C102.546 6.784 102.812 7.442 103.582 8.24C104.114 8.786 104.646 9.29 105.066 9.654C105.416 9.962 105.304 10.466 105.024 10.76C104.744 11.04 104.282 11.166 103.946 10.872C103.582 10.55 103.12 10.102 102.616 9.598C101.888 8.87 101.706 8.548 101.65 8.282H101.636C101.566 8.604 101.384 8.912 100.656 9.64C100.152 10.144 99.6476 10.634 99.1156 11.096C98.7516 11.404 98.2616 11.208 98.0096 10.928C97.7296 10.606 97.6876 10.116 98.0376 9.808C98.6256 9.29 99.1576 8.786 99.6896 8.24C100.46 7.442 100.726 6.784 100.726 5.58V4.516H98.6396C98.2056 4.516 98.0096 4.166 98.0096 3.76C98.0096 3.34 98.2056 2.99 98.6396 2.99H104.52C104.954 2.99 105.15 3.34 105.15 3.76C105.15 4.166 104.954 4.516 104.52 4.516ZM108.202 2.794V13.518C108.202 14.036 107.768 14.274 107.292 14.274C106.83 14.274 106.396 14.036 106.396 13.518V2.794C106.396 2.276 106.83 2.038 107.292 2.038C107.768 2.038 108.202 2.276 108.202 2.794Z"/>
</mask>
<path d="M7.97425 4.278H4.69825C4.26425 4.278 4.06825 3.928 4.06825 3.522C4.06825 3.102 4.26425 2.752 4.69825 2.752H8.88425C9.78025 2.752 10.0742 3.032 10.0742 3.914V4.908C10.0742 6.854 9.36025 7.484 5.07625 9.444C4.64225 9.64 4.22225 9.36 4.04025 8.982C3.88625 8.646 3.88625 8.142 4.36225 7.932C8.10025 6.252 8.29625 5.916 8.29625 4.852V4.6C8.29625 4.362 8.21225 4.278 7.97425 4.278ZM13.7982 4.908H15.1142C15.5622 4.908 15.7582 5.258 15.7582 5.678C15.7582 6.112 15.5622 6.462 15.1142 6.462H13.7982V8.66C13.7982 9.178 13.3642 9.416 12.9022 9.416C12.4402 9.416 12.0062 9.178 12.0062 8.66V2.794C12.0062 2.276 12.4402 2.038 12.9022 2.038C13.3642 2.038 13.7982 2.276 13.7982 2.794V4.908ZM12.6082 15.016H6.70025C5.80425 15.016 5.51025 14.736 5.51025 13.854V11.096C5.51025 10.214 5.80425 9.934 6.70025 9.934H12.6082C13.5042 9.934 13.7982 10.214 13.7982 11.096V13.854C13.7982 14.736 13.5042 15.016 12.6082 15.016ZM7.61025 13.532H11.6982C11.9362 13.532 12.0202 13.448 12.0202 13.21V11.74C12.0202 11.502 11.9362 11.418 11.6982 11.418H7.61025C7.37225 11.418 7.28825 11.502 7.28825 11.74V13.21C7.28825 13.448 7.37225 13.532 7.61025 13.532ZM21.0524 3.242V4.446C21.0524 5.286 21.2764 5.846 21.8784 6.364C22.4944 6.882 23.0264 7.302 23.4464 7.61C23.8384 7.89 23.8104 8.338 23.5584 8.688C23.3484 8.982 22.8864 9.206 22.4664 8.912C22.1304 8.674 21.6124 8.268 21.0664 7.806C20.4084 7.26 20.2404 7.036 20.1704 6.77H20.1564C20.0864 7.078 19.8764 7.358 19.2184 7.904C18.6724 8.366 18.1544 8.772 17.6084 9.164C17.2024 9.458 16.7264 9.234 16.5164 8.94C16.2784 8.604 16.2084 8.114 16.6424 7.806C17.2584 7.358 17.7904 6.938 18.4064 6.42C19.0084 5.902 19.2324 5.342 19.2324 4.502V3.242C19.2324 2.71 19.6664 2.472 20.1424 2.472C20.6184 2.472 21.0524 2.71 21.0524 3.242ZM25.1824 6.056H23.4324C22.9984 6.056 22.8024 5.706 22.8024 5.3C22.8024 4.88 22.9984 4.53 23.4324 4.53H25.1824V2.794C25.1824 2.276 25.6164 2.038 26.0784 2.038C26.5264 2.038 26.9604 2.276 26.9604 2.794V8.996C26.9604 9.514 26.5264 9.752 26.0784 9.752C25.6164 9.752 25.1824 9.514 25.1824 8.996V6.056ZM18.5464 12.552C18.5464 10.732 20.1424 9.836 22.7744 9.836C25.4064 9.836 27.0024 10.732 27.0024 12.552C27.0024 14.372 25.4064 15.268 22.7744 15.268C20.1424 15.268 18.5464 14.372 18.5464 12.552ZM25.2244 12.552C25.2244 11.782 24.5384 11.264 22.7744 11.264C21.0104 11.264 20.3244 11.782 20.3244 12.552C20.3244 13.322 21.0104 13.84 22.7744 13.84C24.5384 13.84 25.2244 13.322 25.2244 12.552ZM43.0766 13.126H32.4926C32.0586 13.126 31.8626 12.776 31.8626 12.37C31.8626 11.964 32.0586 11.614 32.4926 11.614H36.8886V9.136H34.5646C33.6686 9.136 33.3746 8.856 33.3746 7.974V3.984C33.3746 3.102 33.6686 2.822 34.5646 2.822H41.5086C41.9426 2.822 42.1386 3.172 42.1386 3.578C42.1386 3.984 41.9426 4.334 41.5086 4.334H35.5026C35.2646 4.334 35.1806 4.418 35.1806 4.656V7.302C35.1806 7.54 35.2646 7.624 35.5026 7.624H41.6486C42.0826 7.624 42.2786 7.974 42.2786 8.38C42.2786 8.786 42.0826 9.136 41.6486 9.136H38.6806V11.614H43.0766C43.5106 11.614 43.7066 11.964 43.7066 12.37C43.7066 12.776 43.5106 13.126 43.0766 13.126ZM44.9828 11.124C44.5488 11.124 44.3528 10.774 44.3528 10.382C44.3528 9.99 44.5488 9.64 44.9828 9.64H45.7248V4.516H45.0668C44.6328 4.516 44.4368 4.166 44.4368 3.774C44.4368 3.382 44.6328 3.032 45.0668 3.032H51.1708C51.6048 3.032 51.8008 3.382 51.8008 3.774C51.8008 4.166 51.6048 4.516 51.1708 4.516H50.6108V9.458C50.8348 9.444 51.0588 9.402 51.2828 9.374C51.7168 9.318 51.9688 9.612 52.0108 10.004C52.0528 10.41 51.9128 10.788 51.5068 10.844C49.8268 11.068 47.9928 11.124 44.9828 11.124ZM47.4328 9.626C47.9368 9.626 48.4268 9.612 48.9028 9.584V4.516H47.4328V9.626ZM54.4608 6.168H55.7768C56.2248 6.168 56.4208 6.518 56.4208 6.938C56.4208 7.372 56.2248 7.722 55.7768 7.722H54.4608V13.518C54.4608 14.036 54.0268 14.274 53.5648 14.274C53.1028 14.274 52.6688 14.036 52.6688 13.518V2.794C52.6688 2.276 53.1028 2.038 53.5648 2.038C54.0268 2.038 54.4608 2.276 54.4608 2.794V6.168ZM63.717 3.998V8.002C63.717 8.884 63.423 9.164 62.527 9.164H58.677C57.781 9.164 57.487 8.884 57.487 8.002V3.998C57.487 3.116 57.781 2.836 58.677 2.836H62.527C63.423 2.836 63.717 3.116 63.717 3.998ZM61.953 7.344V4.656C61.953 4.418 61.869 4.334 61.631 4.334H59.573C59.335 4.334 59.251 4.418 59.251 4.656V7.344C59.251 7.582 59.335 7.666 59.573 7.666H61.631C61.869 7.666 61.953 7.582 61.953 7.344ZM67.539 2.794V10.83C67.539 11.348 67.105 11.586 66.643 11.586C66.181 11.586 65.747 11.348 65.747 10.83V2.794C65.747 2.276 66.181 2.038 66.643 2.038C67.105 2.038 67.539 2.276 67.539 2.794ZM67.217 14.918H60.301C59.405 14.918 59.111 14.638 59.111 13.756V11.11C59.111 10.592 59.545 10.354 60.021 10.354C60.483 10.354 60.917 10.592 60.917 11.11V13.07C60.917 13.308 61.001 13.392 61.239 13.392H67.217C67.651 13.392 67.847 13.742 67.847 14.162C67.847 14.568 67.651 14.918 67.217 14.918ZM73.6032 4.418H70.5512C70.1172 4.418 69.9212 4.068 69.9212 3.662C69.9212 3.256 70.1172 2.906 70.5512 2.906H74.4992C75.3952 2.906 75.6892 3.186 75.6892 4.068V6.658C75.6892 7.54 75.3952 7.82 74.4992 7.82H72.0212C71.7832 7.82 71.6992 7.904 71.6992 8.142V9.514C71.6992 9.752 71.7832 9.836 72.0212 9.836C73.5752 9.836 75.0172 9.766 76.3192 9.584C76.7532 9.528 77.0052 9.836 77.0472 10.228C77.0892 10.648 76.9492 11.026 76.5432 11.082C75.4512 11.236 73.8412 11.348 71.1252 11.348C70.2292 11.348 69.9352 11.068 69.9352 10.186V7.526C69.9352 6.644 70.2292 6.364 71.1252 6.364H73.6032C73.8412 6.364 73.9252 6.28 73.9252 6.042V4.74C73.9252 4.502 73.8412 4.418 73.6032 4.418ZM78.3212 13.518V7.68H76.9772C76.5292 7.68 76.3332 7.33 76.3332 6.91C76.3332 6.49 76.5292 6.14 76.9772 6.14H78.3212V2.794C78.3212 2.276 78.7552 2.038 79.2172 2.038C79.6652 2.038 80.0992 2.276 80.0992 2.794V13.518C80.0992 14.036 79.6652 14.274 79.2172 14.274C78.7552 14.274 78.3212 14.036 78.3212 13.518ZM93.6674 2.878V6.672H94.6474V2.738C94.6474 2.262 95.0534 2.038 95.4734 2.038C95.8934 2.038 96.2994 2.262 96.2994 2.738V13.574C96.2994 14.05 95.8934 14.274 95.4734 14.274C95.0534 14.274 94.6474 14.05 94.6474 13.574V8.184H93.6674V12.986C93.6674 13.462 93.2614 13.686 92.8414 13.686C92.4354 13.686 92.0294 13.462 92.0294 12.986V2.878C92.0294 2.402 92.4354 2.178 92.8414 2.178C93.2614 2.178 93.6674 2.402 93.6674 2.878ZM85.4494 10.438H87.3674V8.366H86.4854C85.5894 8.366 85.2954 8.086 85.2954 7.204V4.25C85.2954 3.368 85.5894 3.088 86.4854 3.088H90.4334C90.8674 3.088 91.0494 3.438 91.0494 3.844C91.0494 4.236 90.8674 4.586 90.4334 4.586H87.3674C87.1294 4.586 87.0454 4.67 87.0454 4.908V6.546C87.0454 6.784 87.1294 6.868 87.3674 6.868H90.5734C91.0074 6.868 91.1894 7.218 91.1894 7.624C91.1894 8.016 91.0074 8.366 90.5734 8.366H89.0754V10.396C89.7054 10.382 90.3354 10.354 90.9654 10.312C91.3994 10.284 91.6094 10.592 91.6234 10.998C91.6374 11.404 91.4694 11.754 91.0494 11.782C89.7474 11.866 87.6474 11.936 85.4494 11.936C85.0154 11.936 84.8194 11.586 84.8194 11.18C84.8194 10.788 85.0154 10.438 85.4494 10.438ZM104.52 4.516H102.546V5.58C102.546 6.784 102.812 7.442 103.582 8.24C104.114 8.786 104.646 9.29 105.066 9.654C105.416 9.962 105.304 10.466 105.024 10.76C104.744 11.04 104.282 11.166 103.946 10.872C103.582 10.55 103.12 10.102 102.616 9.598C101.888 8.87 101.706 8.548 101.65 8.282H101.636C101.566 8.604 101.384 8.912 100.656 9.64C100.152 10.144 99.6476 10.634 99.1156 11.096C98.7516 11.404 98.2616 11.208 98.0096 10.928C97.7296 10.606 97.6876 10.116 98.0376 9.808C98.6256 9.29 99.1576 8.786 99.6896 8.24C100.46 7.442 100.726 6.784 100.726 5.58V4.516H98.6396C98.2056 4.516 98.0096 4.166 98.0096 3.76C98.0096 3.34 98.2056 2.99 98.6396 2.99H104.52C104.954 2.99 105.15 3.34 105.15 3.76C105.15 4.166 104.954 4.516 104.52 4.516ZM108.202 2.794V13.518C108.202 14.036 107.768 14.274 107.292 14.274C106.83 14.274 106.396 14.036 106.396 13.518V2.794C106.396 2.276 106.83 2.038 107.292 2.038C107.768 2.038 108.202 2.276 108.202 2.794Z" fill="#745F56"/>
<path d="M5.07625 9.444L5.76877 10.9774L5.77625 10.974L5.07625 9.444ZM4.04025 8.982L2.51071 9.68304L2.51736 9.69754L2.52428 9.71191L4.04025 8.982ZM4.36225 7.932L5.04141 9.47142L5.05199 9.46667L4.36225 7.932ZM13.7982 4.908H12.1157V6.59054H13.7982V4.908ZM13.7982 6.462V4.77946H12.1157V6.462H13.7982ZM7.97425 4.278V2.59546H4.69825V4.278V5.96054H7.97425V4.278ZM4.69825 4.278V2.59546C4.82051 2.59546 4.98549 2.62146 5.16085 2.70792C5.33676 2.79467 5.47321 2.91777 5.56858 3.04546C5.74532 3.28212 5.75079 3.48349 5.75079 3.522H4.06825H2.38571C2.38571 3.96651 2.48917 4.54588 2.87242 5.05904C3.30304 5.63563 3.96697 5.96054 4.69825 5.96054V4.278ZM4.06825 3.522H5.75079C5.75079 3.54314 5.74998 3.74038 5.57461 3.97816C5.47952 4.10709 5.34228 4.23233 5.16419 4.32064C4.9869 4.40855 4.82043 4.43454 4.69825 4.43454V2.752V1.06946C3.96546 1.06946 3.29766 1.39606 2.86639 1.98084C2.48452 2.49862 2.38571 3.08085 2.38571 3.522H4.06825ZM4.69825 2.752V4.43454H8.88425V2.752V1.06946H4.69825V2.752ZM8.88425 2.752V4.43454C9.03482 4.43454 9.06308 4.44791 9.02376 4.43766C8.96912 4.42342 8.80708 4.36866 8.64271 4.20894C8.47603 4.04697 8.41219 3.87949 8.39265 3.80884C8.37819 3.75657 8.39171 3.77245 8.39171 3.914H10.0742H11.7568C11.7568 3.38291 11.691 2.47883 10.9878 1.79556C10.2987 1.12594 9.4043 1.06946 8.88425 1.06946V2.752ZM10.0742 3.914H8.39171V4.908H10.0742H11.7568V3.914H10.0742ZM10.0742 4.908H8.39171C8.39171 5.3051 8.35257 5.48376 8.31697 5.58039C8.2918 5.64868 8.24253 5.7516 8.05315 5.92287C7.56864 6.36107 6.57848 6.90643 4.37624 7.91399L5.07625 9.444L5.77625 10.974C7.85801 10.0216 9.36686 9.27193 10.3103 8.41863C10.835 7.94415 11.2319 7.40219 11.4745 6.7438C11.7067 6.11374 11.7568 5.4839 11.7568 4.908H10.0742ZM5.07625 9.444L4.38374 7.91058C4.67865 7.7774 5.00196 7.8141 5.22771 7.92915C5.41417 8.02417 5.50832 8.15259 5.55622 8.25209L4.04025 8.982L2.52428 9.71191C2.92602 10.5463 4.17572 11.6969 5.76876 10.9774L5.07625 9.444ZM4.04025 8.982L5.56979 8.28096C5.60955 8.36771 5.6595 8.52452 5.61254 8.75113C5.5861 8.87872 5.52643 9.03206 5.41187 9.17769C5.29481 9.3265 5.15723 9.42028 5.04139 9.47139L4.36225 7.932L3.68311 6.39261C2.91752 6.73037 2.46114 7.37495 2.31746 8.06837C2.19 8.68348 2.31695 9.26028 2.51071 9.68304L4.04025 8.982ZM4.36225 7.932L5.05199 9.46667C6.86076 8.65374 8.07636 8.05884 8.80337 7.45752C9.22388 7.1097 9.57935 6.68573 9.78508 6.13008C9.97416 5.6194 9.97879 5.13632 9.97879 4.852H8.29625H6.61371C6.61371 5.09968 6.59384 5.0576 6.62936 4.96167C6.68152 4.82077 6.75436 4.7853 6.65863 4.86448C6.35314 5.11716 5.60174 5.53026 3.67251 6.39733L4.36225 7.932ZM8.29625 4.852H9.97879V4.6H8.29625H6.61371V4.852H8.29625ZM8.29625 4.6H9.97879C9.97879 4.36542 9.95541 3.70119 9.41423 3.16001C8.87306 2.61884 8.20882 2.59546 7.97425 2.59546V4.278V5.96054C7.94731 5.96054 7.83028 5.95965 7.67067 5.91489C7.49552 5.86578 7.25442 5.75914 7.03476 5.53949C6.81511 5.31983 6.70847 5.07873 6.65936 4.90358C6.6146 4.74396 6.61371 4.62694 6.61371 4.6H8.29625ZM13.7982 4.908V6.59054H15.1142V4.908V3.22546H13.7982V4.908ZM15.1142 4.908V6.59054C15.0036 6.59054 14.8446 6.56779 14.671 6.4838C14.4955 6.39889 14.3565 6.27608 14.2582 6.14502C14.0765 5.90268 14.0757 5.69879 14.0757 5.678H15.7582H17.4408C17.4408 5.23721 17.342 4.64832 16.9503 4.12598C16.5082 3.53658 15.8348 3.22546 15.1142 3.22546V4.908ZM15.7582 5.678H14.0757C14.0757 5.67422 14.0721 5.47446 14.2522 5.23126C14.3502 5.09896 14.4901 4.97403 14.6677 4.88758C14.8432 4.80219 15.0037 4.77946 15.1142 4.77946V6.462V8.14454C15.8363 8.14454 16.5136 7.83183 16.9563 7.23424C17.3464 6.70754 17.4408 6.11578 17.4408 5.678H15.7582ZM15.1142 6.462V4.77946H13.7982V6.462V8.14454H15.1142V6.462ZM13.7982 6.462H12.1157V8.66H13.7982H15.4808V6.462H13.7982ZM13.7982 8.66H12.1157C12.1157 8.54865 12.1407 8.39843 12.2204 8.24006C12.2995 8.08284 12.409 7.9647 12.5162 7.88452C12.7132 7.73736 12.8722 7.73346 12.9022 7.73346V9.416V11.0985C13.3943 11.0985 14.0013 10.9756 14.5308 10.58C15.1182 10.141 15.4808 9.45438 15.4808 8.66H13.7982ZM12.9022 9.416V7.73346C12.9323 7.73346 13.0913 7.73736 13.2883 7.88452C13.3955 7.9647 13.505 8.08284 13.5841 8.24006C13.6638 8.39843 13.6888 8.54865 13.6888 8.66H12.0062H10.3237C10.3237 9.45438 10.6863 10.141 11.2737 10.58C11.8032 10.9756 12.4102 11.0985 12.9022 11.0985V9.416ZM12.0062 8.66H13.6888V2.794H12.0062H10.3237V8.66H12.0062ZM12.0062 2.794H13.6888C13.6888 2.90535 13.6638 3.05556 13.5841 3.21394C13.505 3.37116 13.3955 3.4893 13.2883 3.56948C13.0913 3.71664 12.9323 3.72054 12.9022 3.72054V2.038V0.35546C12.4102 0.35546 11.8032 0.478357 11.2737 0.874017C10.6863 1.31303 10.3237 1.99962 10.3237 2.794H12.0062ZM12.9022 2.038V3.72054C12.8722 3.72054 12.7132 3.71664 12.5162 3.56948C12.409 3.4893 12.2995 3.37116 12.2204 3.21394C12.1407 3.05556 12.1157 2.90535 12.1157 2.794H13.7982H15.4808C15.4808 1.99962 15.1182 1.31303 14.5308 0.874017C14.0013 0.478357 13.3943 0.35546 12.9022 0.35546V2.038ZM13.7982 2.794H12.1157V4.908H13.7982H15.4808V2.794H13.7982ZM12.6082 15.016V13.3335H6.70025V15.016V16.6985H12.6082V15.016ZM6.70025 15.016V13.3335C6.54968 13.3335 6.52142 13.3201 6.56074 13.3303C6.61537 13.3446 6.77741 13.3993 6.94179 13.5591C7.10847 13.721 7.17231 13.8885 7.19185 13.9592C7.20631 14.0114 7.19279 13.9956 7.19279 13.854H5.51025H3.82771C3.82771 14.3851 3.89354 15.2892 4.59671 15.9724C5.28584 16.6421 6.1802 16.6985 6.70025 16.6985V15.016ZM5.51025 13.854H7.19279V11.096H5.51025H3.82771V13.854H5.51025ZM5.51025 11.096H7.19279C7.19279 10.9544 7.20631 10.9386 7.19185 10.9908C7.17231 11.0615 7.10847 11.229 6.94179 11.3909C6.77741 11.5507 6.61537 11.6054 6.56074 11.6197C6.52142 11.6299 6.54968 11.6165 6.70025 11.6165V9.934V8.25146C6.1802 8.25146 5.28584 8.30794 4.59671 8.97756C3.89354 9.66083 3.82771 10.5649 3.82771 11.096H5.51025ZM6.70025 9.934V11.6165H12.6082V9.934V8.25146H6.70025V9.934ZM12.6082 9.934V11.6165C12.7588 11.6165 12.7871 11.6299 12.7478 11.6197C12.6931 11.6054 12.5311 11.5507 12.3667 11.3909C12.2 11.229 12.1362 11.0615 12.1166 10.9908C12.1022 10.9386 12.1157 10.9544 12.1157 11.096H13.7982H15.4808C15.4808 10.5649 15.415 9.66083 14.7118 8.97756C14.0227 8.30794 13.1283 8.25146 12.6082 8.25146V9.934ZM13.7982 11.096H12.1157V13.854H13.7982H15.4808V11.096H13.7982ZM13.7982 13.854H12.1157C12.1157 13.9956 12.1022 14.0114 12.1166 13.9592C12.1362 13.8885 12.2 13.721 12.3667 13.5591C12.5311 13.3993 12.6931 13.3446 12.7478 13.3303C12.7871 13.3201 12.7588 13.3335 12.6082 13.3335V15.016V16.6985C13.1283 16.6985 14.0227 16.6421 14.7118 15.9724C15.415 15.2892 15.4808 14.3851 15.4808 13.854H13.7982ZM7.61025 13.532V15.2145H11.6982V13.532V11.8495H7.61025V13.532ZM11.6982 13.532V15.2145C11.9328 15.2145 12.5971 15.1912 13.1382 14.65C13.6794 14.1088 13.7028 13.4446 13.7028 13.21H12.0202H10.3377C10.3377 13.1831 10.3386 13.066 10.3834 12.9064C10.4325 12.7313 10.5391 12.4902 10.7588 12.2705C10.9784 12.0509 11.2195 11.9442 11.3947 11.8951C11.5543 11.8503 11.6713 11.8495 11.6982 11.8495V13.532ZM12.0202 13.21H13.7028V11.74H12.0202H10.3377V13.21H12.0202ZM12.0202 11.74H13.7028C13.7028 11.5054 13.6794 10.8412 13.1382 10.3C12.5971 9.75884 11.9328 9.73546 11.6982 9.73546V11.418V13.1005C11.6713 13.1005 11.5543 13.0997 11.3947 13.0549C11.2195 13.0058 10.9784 12.8991 10.7588 12.6795C10.5391 12.4598 10.4325 12.2187 10.3834 12.0436C10.3386 11.884 10.3377 11.7669 10.3377 11.74H12.0202ZM11.6982 11.418V9.73546H7.61025V11.418V13.1005H11.6982V11.418ZM7.61025 11.418V9.73546C7.37567 9.73546 6.71144 9.75884 6.17026 10.3C5.62909 10.8412 5.60571 11.5054 5.60571 11.74H7.28825H8.97079C8.97079 11.7669 8.9699 11.884 8.92514 12.0436C8.87603 12.2187 8.76939 12.4598 8.54973 12.6795C8.33008 12.8991 8.08897 13.0058 7.91383 13.0549C7.75421 13.0997 7.63719 13.1005 7.61025 13.1005V11.418ZM7.28825 11.74H5.60571V13.21H7.28825H8.97079V11.74H7.28825ZM7.28825 13.21H5.60571C5.60571 13.4446 5.62909 14.1088 6.17026 14.65C6.71144 15.1912 7.37567 15.2145 7.61025 15.2145V13.532V11.8495C7.63719 11.8495 7.75421 11.8503 7.91383 11.8951C8.08897 11.9442 8.33008 12.0509 8.54973 12.2705C8.76939 12.4902 8.87603 12.7313 8.92514 12.9064C8.9699 13.066 8.97079 13.1831 8.97079 13.21H7.28825ZM21.8784 6.364L20.781 7.63938L20.7882 7.64561L20.7956 7.65175L21.8784 6.364ZM23.4464 7.61L22.4514 8.96681L22.4599 8.97303L22.4685 8.97914L23.4464 7.61ZM23.5584 8.688L22.193 7.70488L22.1893 7.71004L23.5584 8.688ZM22.4664 8.912L21.4939 10.285L21.5016 10.2904L22.4664 8.912ZM21.0664 7.806L22.1533 6.52157L22.1471 6.51635L22.1409 6.51118L21.0664 7.806ZM20.1704 6.77L21.7976 6.3418L21.4675 5.08746H20.1704V6.77ZM20.1564 6.77V5.08746H18.8134L18.5157 6.39711L20.1564 6.77ZM19.2184 7.904L18.144 6.60918L18.1378 6.61435L18.1316 6.61957L19.2184 7.904ZM17.6084 9.164L16.6272 7.79722L16.6216 7.80124L17.6084 9.164ZM16.5164 8.94L15.1434 9.91255L15.1473 9.91796L16.5164 8.94ZM16.6424 7.806L17.6162 9.17812L17.6242 9.17247L17.6321 9.16673L16.6424 7.806ZM18.4064 6.42L19.4893 7.70775L19.4966 7.70161L19.5039 7.69538L18.4064 6.42ZM25.1824 6.056H26.865V4.37346H25.1824V6.056ZM25.1824 4.53V6.21254H26.865V4.53H25.1824ZM21.0524 3.242H19.3699V4.446H21.0524H22.735V3.242H21.0524ZM21.0524 4.446H19.3699C19.3699 5.01286 19.445 5.60287 19.6905 6.18219C19.941 6.77331 20.3226 7.24497 20.781 7.63938L21.8784 6.364L22.9759 5.08862C22.8322 4.96503 22.8009 4.89769 22.7889 4.86931C22.7719 4.82913 22.735 4.71914 22.735 4.446H21.0524ZM21.8784 6.364L20.7956 7.65175C21.4314 8.18648 21.9935 8.63098 22.4514 8.96681L23.4464 7.61L24.4414 6.25319C24.0594 5.97302 23.5574 5.57752 22.9613 5.07625L21.8784 6.364ZM23.4464 7.61L22.4685 8.97914C22.3827 8.91789 22.2792 8.81698 22.1962 8.66854C22.1131 8.51981 22.072 8.36168 22.0639 8.21523C22.0486 7.93681 22.1499 7.76481 22.193 7.70488L23.5584 8.688L24.9239 9.67112C25.219 9.26119 25.4603 8.69019 25.4239 8.03027C25.3844 7.31193 25.0216 6.66742 24.4244 6.24086L23.4464 7.61ZM23.5584 8.688L22.1893 7.71004C22.2862 7.5744 22.4254 7.46137 22.6251 7.4038C22.8779 7.33092 23.1907 7.3652 23.4313 7.53361L22.4664 8.912L21.5016 10.2904C22.1621 10.7528 22.916 10.8221 23.5573 10.6372C24.1454 10.4676 24.6207 10.0956 24.9276 9.66596L23.5584 8.688ZM22.4664 8.912L23.439 7.53901C23.1561 7.33861 22.6781 6.96563 22.1533 6.52157L21.0664 7.806L19.9796 9.09043C20.5468 9.57037 21.1048 10.0094 21.4939 10.285L22.4664 8.912ZM21.0664 7.806L22.1409 6.51118C21.9909 6.38673 21.8835 6.29269 21.8058 6.22034C21.7274 6.1472 21.6933 6.10914 21.6834 6.09746C21.676 6.08869 21.6998 6.11535 21.7304 6.17251C21.764 6.23509 21.7856 6.29644 21.7976 6.3418L20.1704 6.77L18.5433 7.19819C18.7658 8.04375 19.3556 8.5727 19.992 9.10082L21.0664 7.806ZM20.1704 6.77V5.08746H20.1564V6.77V8.45254H20.1704V6.77ZM20.1564 6.77L18.5157 6.39711C18.5278 6.34387 18.5479 6.2871 18.5739 6.23615C18.5976 6.18971 18.614 6.17212 18.6017 6.18724C18.5877 6.20449 18.5505 6.24699 18.4728 6.321C18.3955 6.39453 18.2897 6.4883 18.144 6.60918L19.2184 7.904L20.2929 9.19882C20.9515 8.6523 21.5897 8.05583 21.7971 7.14289L20.1564 6.77ZM19.2184 7.904L18.1316 6.61957C17.6166 7.05534 17.1338 7.43352 16.6272 7.79723L17.6084 9.164L18.5897 10.5308C19.1751 10.1105 19.7283 9.67665 20.3053 9.18843L19.2184 7.904ZM17.6084 9.164L16.6216 7.80124C16.8867 7.60926 17.2129 7.58663 17.4512 7.6547C17.6389 7.70835 17.7804 7.81473 17.8856 7.96204L16.5164 8.94L15.1473 9.91796C15.4625 10.3593 15.9469 10.7247 16.5267 10.8903C17.1569 11.0704 17.9241 11.0127 18.5953 10.5268L17.6084 9.164ZM16.5164 8.94L17.8894 7.96746C17.9311 8.02631 18.0175 8.17446 18.009 8.42048C18.0043 8.55504 17.9699 8.71032 17.8885 8.86193C17.8065 9.01465 17.7015 9.11757 17.6162 9.17812L16.6424 7.806L15.6687 6.43388C15.0213 6.89332 14.6709 7.58007 14.6459 8.30452C14.6234 8.95654 14.8638 9.51769 15.1434 9.91254L16.5164 8.94ZM16.6424 7.806L17.6321 9.16673C18.2844 8.69231 18.8476 8.2474 19.4893 7.70775L18.4064 6.42L17.3236 5.13225C16.7333 5.62859 16.2325 6.02369 15.6528 6.44527L16.6424 7.806ZM18.4064 6.42L19.5039 7.69538C19.9622 7.30097 20.3439 6.82931 20.5944 6.23819C20.8399 5.65887 20.915 5.06886 20.915 4.502H19.2324H17.5499C17.5499 4.77514 17.513 4.88513 17.496 4.92531C17.484 4.95369 17.4526 5.02103 17.309 5.14462L18.4064 6.42ZM19.2324 4.502H20.915V3.242H19.2324H17.5499V4.502H19.2324ZM19.2324 3.242H20.915C20.915 3.34283 20.893 3.48751 20.8153 3.64427C20.7377 3.80095 20.6285 3.92103 20.5185 4.00353C20.3166 4.1549 20.1562 4.15454 20.1424 4.15454V2.472V0.78946C19.6527 0.78946 19.0372 0.908103 18.4994 1.31147C17.9005 1.76064 17.5499 2.45549 17.5499 3.242H19.2324ZM20.1424 2.472V4.15454C20.1287 4.15454 19.9682 4.1549 19.7664 4.00353C19.6564 3.92103 19.5472 3.80095 19.4696 3.64427C19.3919 3.48751 19.3699 3.34283 19.3699 3.242H21.0524H22.735C22.735 2.45549 22.3844 1.76064 21.7855 1.31147C21.2476 0.908103 20.6322 0.78946 20.1424 0.78946V2.472ZM25.1824 6.056V4.37346H23.4324V6.056V7.73854H25.1824V6.056ZM23.4324 6.056V4.37346C23.5547 4.37346 23.7197 4.39946 23.895 4.48592C24.0709 4.57267 24.2074 4.69577 24.3028 4.82346C24.4795 5.06012 24.485 5.26149 24.485 5.3H22.8024H21.1199C21.1199 5.74451 21.2234 6.32388 21.6066 6.83704C22.0372 7.41363 22.7012 7.73854 23.4324 7.73854V6.056ZM22.8024 5.3H24.485C24.485 5.32114 24.4842 5.51838 24.3088 5.75616C24.2137 5.8851 24.0765 6.01033 23.8984 6.09864C23.7211 6.18655 23.5546 6.21254 23.4324 6.21254V4.53V2.84746C22.6996 2.84746 22.0319 3.17406 21.6006 3.75884C21.2187 4.27662 21.1199 4.85886 21.1199 5.3H22.8024ZM23.4324 4.53V6.21254H25.1824V4.53V2.84746H23.4324V4.53ZM25.1824 4.53H26.865V2.794H25.1824H23.4999V4.53H25.1824ZM25.1824 2.794H26.865C26.865 2.90535 26.84 3.05556 26.7603 3.21394C26.6811 3.37116 26.5717 3.4893 26.4644 3.56948C26.2675 3.71664 26.1084 3.72054 26.0784 3.72054V2.038V0.35546C25.5864 0.35546 24.9793 0.478356 24.4499 0.874017C23.8625 1.31303 23.4999 1.99962 23.4999 2.794H25.1824ZM26.0784 2.038V3.72054C26.0319 3.72054 25.8689 3.71205 25.6733 3.56434C25.567 3.48405 25.4593 3.36663 25.3814 3.21118C25.3028 3.05441 25.2779 2.9054 25.2779 2.794H26.9604H28.643C28.643 2.00088 28.2818 1.31742 27.7015 0.879154C27.177 0.482952 26.5729 0.35546 26.0784 0.35546V2.038ZM26.9604 2.794H25.2779V8.996H26.9604H28.643V2.794H26.9604ZM26.9604 8.996H25.2779C25.2779 8.8846 25.3028 8.73559 25.3814 8.57882C25.4593 8.42337 25.567 8.30595 25.6733 8.22565C25.8689 8.07795 26.0319 8.06946 26.0784 8.06946V9.752V11.4345C26.5729 11.4345 27.177 11.307 27.7015 10.9108C28.2818 10.4726 28.643 9.78912 28.643 8.996H26.9604ZM26.0784 9.752V8.06946C26.1084 8.06946 26.2675 8.07336 26.4644 8.22052C26.5717 8.3007 26.6811 8.41884 26.7603 8.57606C26.84 8.73444 26.865 8.88465 26.865 8.996H25.1824H23.4999C23.4999 9.79038 23.8625 10.477 24.4499 10.916C24.9793 11.3116 25.5864 11.4345 26.0784 11.4345V9.752ZM25.1824 8.996H26.865V6.056H25.1824H23.4999V8.996H25.1824ZM18.5464 12.552H20.229C20.229 12.2332 20.3193 12.0908 20.5602 11.9414C20.9086 11.7253 21.6044 11.5185 22.7744 11.5185V9.836V8.15346C21.3125 8.15346 19.8943 8.39468 18.7866 9.08163C17.5716 9.8352 16.8639 11.0508 16.8639 12.552H18.5464ZM22.7744 9.836V11.5185C23.9445 11.5185 24.6403 11.7253 24.9886 11.9414C25.2296 12.0908 25.3199 12.2332 25.3199 12.552H27.0024H28.685C28.685 11.0508 27.9773 9.8352 26.7622 9.08163C25.6546 8.39468 24.2364 8.15346 22.7744 8.15346V9.836ZM27.0024 12.552H25.3199C25.3199 12.8708 25.2296 13.0132 24.9886 13.1626C24.6403 13.3787 23.9445 13.5855 22.7744 13.5855V15.268V16.9505C24.2364 16.9505 25.6546 16.7093 26.7622 16.0224C27.9773 15.2688 28.685 14.0532 28.685 12.552H27.0024ZM22.7744 15.268V13.5855C21.6044 13.5855 20.9086 13.3787 20.5602 13.1626C20.3193 13.0132 20.229 12.8708 20.229 12.552H18.5464H16.8639C16.8639 14.0532 17.5716 15.2688 18.7866 16.0224C19.8943 16.7093 21.3125 16.9505 22.7744 16.9505V15.268ZM25.2244 12.552H26.907C26.907 11.5504 26.4011 10.6798 25.5006 10.1612C24.7314 9.71823 23.7685 9.58146 22.7744 9.58146V11.264V12.9465C23.1378 12.9465 23.4 12.9736 23.581 13.0087C23.7649 13.0444 23.8281 13.0813 23.8213 13.0773C23.805 13.0679 23.716 13.0097 23.6379 12.8763C23.5589 12.7414 23.5419 12.6167 23.5419 12.552H25.2244ZM22.7744 11.264V9.58146C21.7804 9.58146 20.8175 9.71823 20.0483 10.1612C19.1478 10.6798 18.6419 11.5504 18.6419 12.552H20.3244H22.007C22.007 12.6167 21.99 12.7414 21.911 12.8763C21.8328 13.0097 21.7439 13.0679 21.7276 13.0773C21.7207 13.0813 21.784 13.0444 21.9678 13.0087C22.1489 12.9736 22.4111 12.9465 22.7744 12.9465V11.264ZM20.3244 12.552H18.6419C18.6419 13.5536 19.1478 14.4242 20.0483 14.9428C20.8175 15.3858 21.7804 15.5225 22.7744 15.5225V13.84V12.1575C22.4111 12.1575 22.1489 12.1304 21.9678 12.0953C21.784 12.0596 21.7207 12.0227 21.7276 12.0267C21.7439 12.0361 21.8328 12.0943 21.911 12.2277C21.99 12.3626 22.007 12.4873 22.007 12.552H20.3244ZM22.7744 13.84V15.5225C23.7685 15.5225 24.7314 15.3858 25.5006 14.9428C26.4011 14.4242 26.907 13.5536 26.907 12.552H25.2244H23.5419C23.5419 12.4873 23.5589 12.3626 23.6379 12.2277C23.716 12.0943 23.805 12.0361 23.8213 12.0267C23.8281 12.0227 23.7649 12.0596 23.581 12.0953C23.4 12.1304 23.1378 12.1575 22.7744 12.1575V13.84ZM36.8886 11.614V13.2965H38.5712V11.614H36.8886ZM36.8886 9.136H38.5712V7.45346H36.8886V9.136ZM38.6806 9.136V7.45346H36.9981V9.136H38.6806ZM38.6806 11.614H36.9981V13.2965H38.6806V11.614ZM43.0766 13.126V11.4435H32.4926V13.126V14.8085H43.0766V13.126ZM32.4926 13.126V11.4435C32.6149 11.4435 32.7799 11.4695 32.9552 11.5559C33.1311 11.6427 33.2676 11.7658 33.3629 11.8935C33.5397 12.1301 33.5452 12.3315 33.5452 12.37H31.8626H30.1801C30.1801 12.8145 30.2836 13.3939 30.6668 13.907C31.0974 14.4836 31.7613 14.8085 32.4926 14.8085V13.126ZM31.8626 12.37H33.5452C33.5452 12.4085 33.5397 12.6099 33.3629 12.8465C33.2676 12.9742 33.1311 13.0973 32.9552 13.1841C32.7799 13.2705 32.6149 13.2965 32.4926 13.2965V11.614V9.93146C31.7613 9.93146 31.0974 10.2564 30.6668 10.833C30.2836 11.3461 30.1801 11.9255 30.1801 12.37H31.8626ZM32.4926 11.614V13.2965H36.8886V11.614V9.93146H32.4926V11.614ZM36.8886 11.614H38.5712V9.136H36.8886H35.2061V11.614H36.8886ZM36.8886 9.136V7.45346H34.5646V9.136V10.8185H36.8886V9.136ZM34.5646 9.136V7.45346C34.4141 7.45346 34.3858 7.44009 34.4251 7.45034C34.4797 7.46458 34.6418 7.51934 34.8062 7.67906C34.9728 7.84103 35.0367 8.00851 35.0562 8.07916C35.0707 8.13143 35.0572 8.11555 35.0572 7.974H33.3746H31.6921C31.6921 8.50508 31.7579 9.40917 32.4611 10.0924C33.1502 10.7621 34.0446 10.8185 34.5646 10.8185V9.136ZM33.3746 7.974H35.0572V3.984H33.3746H31.6921V7.974H33.3746ZM33.3746 3.984H35.0572C35.0572 3.84245 35.0707 3.82657 35.0562 3.87884C35.0367 3.94949 34.9728 4.11697 34.8062 4.27894C34.6418 4.43866 34.4797 4.49342 34.4251 4.50766C34.3858 4.51791 34.4141 4.50454 34.5646 4.50454V2.822V1.13946C34.0446 1.13946 33.1502 1.19594 32.4611 1.86556C31.7579 2.54883 31.6921 3.45291 31.6921 3.984H33.3746ZM34.5646 2.822V4.50454H41.5086V2.822V1.13946H34.5646V2.822ZM41.5086 2.822V4.50454C41.3864 4.50454 41.2214 4.47854 41.046 4.39207C40.8701 4.30533 40.7337 4.18223 40.6383 4.05454C40.4616 3.81788 40.4561 3.61651 40.4561 3.578H42.1386H43.8212C43.8212 3.13349 43.7177 2.55412 43.3344 2.04096C42.9038 1.46437 42.2399 1.13946 41.5086 1.13946V2.822ZM42.1386 3.578H40.4561C40.4561 3.53949 40.4616 3.33812 40.6383 3.10146C40.7337 2.97377 40.8701 2.85067 41.046 2.76393C41.2214 2.67746 41.3864 2.65146 41.5086 2.65146V4.334V6.01654C42.2399 6.01654 42.9038 5.69163 43.3344 5.11504C43.7177 4.60188 43.8212 4.02251 43.8212 3.578H42.1386ZM41.5086 4.334V2.65146H35.5026V4.334V6.01654H41.5086V4.334ZM35.5026 4.334V2.65146C35.2681 2.65146 34.6038 2.67484 34.0626 3.21601C33.5215 3.75719 33.4981 4.42143 33.4981 4.656H35.1806H36.8632C36.8632 4.68294 36.8623 4.79996 36.8175 4.95958C36.7684 5.13472 36.6618 5.37583 36.4421 5.59548C36.2225 5.81514 35.9813 5.92178 35.8062 5.97089C35.6466 6.01565 35.5296 6.01654 35.5026 6.01654V4.334ZM35.1806 4.656H33.4981V7.302H35.1806H36.8632V4.656H35.1806ZM35.1806 7.302H33.4981C33.4981 7.53657 33.5215 8.20081 34.0626 8.74198C34.6038 9.28316 35.268 9.30654 35.5026 9.30654V7.624V5.94146C35.5296 5.94146 35.6466 5.94235 35.8062 5.98711C35.9813 6.03622 36.2225 6.14286 36.4421 6.36252C36.6618 6.58217 36.7684 6.82328 36.8175 6.99842C36.8623 7.15804 36.8632 7.27506 36.8632 7.302H35.1806ZM35.5026 7.624V9.30654H41.6486V7.624V5.94146H35.5026V7.624ZM41.6486 7.624V9.30654C41.5264 9.30654 41.3614 9.28054 41.186 9.19407C41.0101 9.10733 40.8737 8.98423 40.7783 8.85654C40.6016 8.61988 40.5961 8.41851 40.5961 8.38H42.2786H43.9612C43.9612 7.93549 43.8577 7.35612 43.4744 6.84296C43.0438 6.26637 42.3799 5.94146 41.6486 5.94146V7.624ZM42.2786 8.38H40.5961C40.5961 8.34149 40.6016 8.14012 40.7783 7.90346C40.8737 7.77577 41.0101 7.65267 41.186 7.56592C41.3614 7.47946 41.5264 7.45346 41.6486 7.45346V9.136V10.8185C42.3799 10.8185 43.0438 10.4936 43.4744 9.91704C43.8577 9.40388 43.9612 8.82451 43.9612 8.38H42.2786ZM41.6486 9.136V7.45346H38.6806V9.136V10.8185H41.6486V9.136ZM38.6806 9.136H36.9981V11.614H38.6806H40.3632V9.136H38.6806ZM38.6806 11.614V13.2965H43.0766V11.614V9.93146H38.6806V11.614ZM43.0766 11.614V13.2965C42.9544 13.2965 42.7894 13.2705 42.614 13.1841C42.4381 13.0973 42.3017 12.9742 42.2063 12.8465C42.0295 12.6099 42.0241 12.4085 42.0241 12.37H43.7066H45.3892C45.3892 11.9255 45.2857 11.3461 44.9025 10.833C44.4718 10.2564 43.8079 9.93146 43.0766 9.93146V11.614ZM43.7066 12.37H42.0241C42.0241 12.3315 42.0295 12.1301 42.2063 11.8935C42.3017 11.7658 42.4381 11.6427 42.614 11.5559C42.7894 11.4695 42.9544 11.4435 43.0766 11.4435V13.126V14.8085C43.8079 14.8085 44.4718 14.4836 44.9025 13.907C45.2857 13.3939 45.3892 12.8145 45.3892 12.37H43.7066ZM45.7248 9.64V11.3225H47.4074V9.64H45.7248ZM45.7248 4.516H47.4074V2.83346H45.7248V4.516ZM50.6108 4.516V2.83346H48.9283V4.516H50.6108ZM50.6108 9.458H48.9283V11.249L50.7158 11.1373L50.6108 9.458ZM51.2828 9.374L51.4915 11.0436L51.4981 11.0427L51.2828 9.374ZM52.0108 10.004L53.6844 9.83087L53.6838 9.82475L52.0108 10.004ZM51.5068 10.844L51.7292 12.5118L51.7367 12.5108L51.5068 10.844ZM47.4328 9.626H45.7503V11.3085H47.4328V9.626ZM48.9028 9.584L49.0016 11.2636L50.5854 11.1705V9.584H48.9028ZM48.9028 4.516H50.5854V2.83346H48.9028V4.516ZM47.4328 4.516V2.83346H45.7503V4.516H47.4328ZM54.4608 6.168H52.7783V7.85054H54.4608V6.168ZM54.4608 7.722V6.03946H52.7783V7.722H54.4608ZM44.9828 11.124V9.44146C45.1052 9.44146 45.2687 9.46747 45.4421 9.5525C45.6158 9.63768 45.7514 9.75863 45.847 9.88498C46.0249 10.1202 46.0354 10.3256 46.0354 10.382H44.3528H42.6703C42.6703 10.8304 42.7788 11.4068 43.1632 11.915C43.593 12.4833 44.253 12.8065 44.9828 12.8065V11.124ZM44.3528 10.382H46.0354C46.0354 10.4384 46.0249 10.6438 45.847 10.879C45.7514 11.0054 45.6158 11.1263 45.4421 11.2115C45.2687 11.2965 45.1052 11.3225 44.9828 11.3225V9.64V7.95746C44.253 7.95746 43.593 8.28072 43.1632 8.84898C42.7788 9.35718 42.6703 9.93363 42.6703 10.382H44.3528ZM44.9828 9.64V11.3225H45.7248V9.64V7.95746H44.9828V9.64ZM45.7248 9.64H47.4074V4.516H45.7248H44.0423V9.64H45.7248ZM45.7248 4.516V2.83346H45.0668V4.516V6.19854H45.7248V4.516ZM45.0668 4.516V2.83346C45.1892 2.83346 45.3527 2.85947 45.5261 2.9445C45.6998 3.02968 45.8354 3.15063 45.931 3.27698C46.1089 3.51218 46.1194 3.71763 46.1194 3.774H44.4368H42.7543C42.7543 4.22237 42.8628 4.79882 43.2472 5.30702C43.677 5.87528 44.337 6.19854 45.0668 6.19854V4.516ZM44.4368 3.774H46.1194C46.1194 3.83037 46.1089 4.03582 45.931 4.27102C45.8354 4.39737 45.6998 4.51832 45.5261 4.6035C45.3527 4.68853 45.1892 4.71454 45.0668 4.71454V3.032V1.34946C44.337 1.34946 43.677 1.67272 43.2472 2.24098C42.8628 2.74918 42.7543 3.32563 42.7543 3.774H44.4368ZM45.0668 3.032V4.71454H51.1708V3.032V1.34946H45.0668V3.032ZM51.1708 3.032V4.71454C51.0485 4.71454 50.885 4.68853 50.7116 4.6035C50.5378 4.51832 50.4022 4.39737 50.3067 4.27102C50.1288 4.03582 50.1183 3.83037 50.1183 3.774H51.8008H53.4834C53.4834 3.32563 53.3749 2.74918 52.9905 2.24098C52.5606 1.67272 51.9006 1.34946 51.1708 1.34946V3.032ZM51.8008 3.774H50.1183C50.1183 3.71763 50.1288 3.51218 50.3067 3.27698C50.4022 3.15063 50.5378 3.02968 50.7116 2.9445C50.885 2.85947 51.0485 2.83346 51.1708 2.83346V4.516V6.19854C51.9006 6.19854 52.5606 5.87528 52.9905 5.30702C53.3749 4.79882 53.4834 4.22237 53.4834 3.774H51.8008ZM51.1708 4.516V2.83346H50.6108V4.516V6.19854H51.1708V4.516ZM50.6108 4.516H48.9283V9.458H50.6108H52.2934V4.516H50.6108ZM50.6108 9.458L50.7158 11.1373C51.0006 11.1195 51.4133 11.0533 51.4915 11.0435L51.2828 9.374L51.0741 7.70445C50.7043 7.75068 50.669 7.76854 50.5059 7.77874L50.6108 9.458ZM51.2828 9.374L51.4981 11.0427C51.2654 11.0727 50.9193 11.009 50.6396 10.7452C50.3996 10.5189 50.348 10.278 50.3378 10.1832L52.0108 10.004L53.6838 9.82475C53.6316 9.338 53.4331 8.7541 52.9481 8.2968C52.4233 7.80203 51.7342 7.61927 51.0675 7.70529L51.2828 9.374ZM52.0108 10.004L50.3372 10.1771C50.3363 10.1682 50.3163 10.0016 50.4394 9.7688C50.5073 9.64038 50.6184 9.49585 50.7852 9.37679C50.9542 9.25617 51.1303 9.19746 51.2769 9.17724L51.5068 10.844L51.7367 12.5108C52.4989 12.4056 53.0916 11.9519 53.4142 11.3417C53.6983 10.8044 53.7273 10.2458 53.6844 9.83087L52.0108 10.004ZM51.5068 10.844L51.2844 9.17622C49.7249 9.38416 47.9886 9.44146 44.9828 9.44146V11.124V12.8065C47.997 12.8065 49.9287 12.7518 51.7292 12.5118L51.5068 10.844ZM47.4328 9.626V11.3085C47.9679 11.3085 48.4909 11.2937 49.0016 11.2636L48.9028 9.584L48.804 7.90436C48.3627 7.93032 47.9057 7.94346 47.4328 7.94346V9.626ZM48.9028 9.584H50.5854V4.516H48.9028H47.2203V9.584H48.9028ZM48.9028 4.516V2.83346H47.4328V4.516V6.19854H48.9028V4.516ZM47.4328 4.516H45.7503V9.626H47.4328H49.1154V4.516H47.4328ZM54.4608 6.168V7.85054H55.7768V6.168V4.48546H54.4608V6.168ZM55.7768 6.168V7.85054C55.6661 7.85054 55.5072 7.82779 55.3336 7.7438C55.1581 7.65889 55.0191 7.53608 54.9208 7.40502C54.739 7.16268 54.7383 6.95879 54.7383 6.938H56.4208H58.1034C58.1034 6.49721 58.0046 5.90832 57.6128 5.38598C57.1708 4.79658 56.4974 4.48546 55.7768 4.48546V6.168ZM56.4208 6.938H54.7383C54.7383 6.93422 54.7346 6.73446 54.9148 6.49126C55.0128 6.35896 55.1526 6.23403 55.3303 6.14758C55.5058 6.06219 55.6662 6.03946 55.7768 6.03946V7.722V9.40454C56.4988 9.40454 57.1762 9.09183 57.6188 8.49424C58.009 7.96754 58.1034 7.37578 58.1034 6.938H56.4208ZM55.7768 7.722V6.03946H54.4608V7.722V9.40454H55.7768V7.722ZM54.4608 7.722H52.7783V13.518H54.4608H56.1434V7.722H54.4608ZM54.4608 13.518H52.7783C52.7783 13.4066 52.8032 13.2564 52.8829 13.0981C52.9621 12.9408 53.0715 12.8227 53.1788 12.7425C53.3757 12.5954 53.5348 12.5915 53.5648 12.5915V14.274V15.9565C54.0568 15.9565 54.6639 15.8336 55.1933 15.438C55.7807 14.999 56.1434 14.3124 56.1434 13.518H54.4608ZM53.5648 14.274V12.5915C53.5948 12.5915 53.7539 12.5954 53.9508 12.7425C54.0581 12.8227 54.1675 12.9408 54.2467 13.0981C54.3264 13.2564 54.3514 13.4066 54.3514 13.518H52.6688H50.9863C50.9863 14.3124 51.3489 14.999 51.9363 15.438C52.4657 15.8336 53.0728 15.9565 53.5648 15.9565V14.274ZM52.6688 13.518H54.3514V2.794H52.6688H50.9863V13.518H52.6688ZM52.6688 2.794H54.3514C54.3514 2.90535 54.3264 3.05556 54.2467 3.21394C54.1675 3.37116 54.0581 3.4893 53.9508 3.56948C53.7539 3.71664 53.5948 3.72054 53.5648 3.72054V2.038V0.35546C53.0728 0.35546 52.4657 0.478357 51.9363 0.874017C51.3489 1.31303 50.9863 1.99962 50.9863 2.794H52.6688ZM53.5648 2.038V3.72054C53.5348 3.72054 53.3757 3.71664 53.1788 3.56948C53.0715 3.4893 52.9621 3.37116 52.8829 3.21394C52.8032 3.05556 52.7783 2.90535 52.7783 2.794H54.4608H56.1434C56.1434 1.99962 55.7807 1.31303 55.1933 0.874017C54.6639 0.478357 54.0568 0.35546 53.5648 0.35546V2.038ZM54.4608 2.794H52.7783V6.168H54.4608H56.1434V2.794H54.4608ZM63.717 3.998H62.0345V8.002H63.717H65.3995V3.998H63.717ZM63.717 8.002H62.0345C62.0345 8.14355 62.0209 8.15943 62.0354 8.10716C62.0549 8.03651 62.1188 7.86903 62.2855 7.70706C62.4498 7.54734 62.6119 7.49258 62.6665 7.47834C62.7058 7.46809 62.6776 7.48146 62.527 7.48146V9.164V10.8465C63.047 10.8465 63.9414 10.7901 64.6305 10.1204C65.3337 9.43717 65.3995 8.53308 65.3995 8.002H63.717ZM62.527 9.164V7.48146H58.677V9.164V10.8465H62.527V9.164ZM58.677 9.164V7.48146C58.5264 7.48146 58.4982 7.46809 58.5375 7.47834C58.5921 7.49258 58.7542 7.54734 58.9185 7.70706C59.0852 7.86903 59.1491 8.03651 59.1686 8.10716C59.1831 8.15943 59.1695 8.14355 59.1695 8.002H57.487H55.8045C55.8045 8.53308 55.8703 9.43717 56.5735 10.1204C57.2626 10.7901 58.157 10.8465 58.677 10.8465V9.164ZM57.487 8.002H59.1695V3.998H57.487H55.8045V8.002H57.487ZM57.487 3.998H59.1695C59.1695 3.85645 59.1831 3.84057 59.1686 3.89284C59.1491 3.96349 59.0852 4.13097 58.9185 4.29294C58.7542 4.45266 58.5921 4.50742 58.5375 4.52166C58.4982 4.53191 58.5264 4.51854 58.677 4.51854V2.836V1.15346C58.157 1.15346 57.2626 1.20994 56.5735 1.87956C55.8703 2.56283 55.8045 3.46692 55.8045 3.998H57.487ZM58.677 2.836V4.51854H62.527V2.836V1.15346H58.677V2.836ZM62.527 2.836V4.51854C62.6776 4.51854 62.7058 4.53191 62.6665 4.52166C62.6119 4.50742 62.4498 4.45266 62.2855 4.29294C62.1188 4.13097 62.0549 3.96349 62.0354 3.89284C62.0209 3.84057 62.0345 3.85645 62.0345 3.998H63.717H65.3995C65.3995 3.46692 65.3337 2.56283 64.6305 1.87956C63.9414 1.20994 63.047 1.15346 62.527 1.15346V2.836ZM61.953 7.344H63.6355V4.656H61.953H60.2705V7.344H61.953ZM61.953 4.656H63.6355C63.6355 4.42142 63.6122 3.75719 63.071 3.21601C62.5298 2.67484 61.8656 2.65146 61.631 2.65146V4.334V6.01654C61.6041 6.01654 61.487 6.01565 61.3274 5.97089C61.1523 5.92178 60.9112 5.81514 60.6915 5.59549C60.4719 5.37583 60.3652 5.13473 60.3161 4.95958C60.2713 4.79996 60.2705 4.68294 60.2705 4.656H61.953ZM61.631 4.334V2.65146H59.573V4.334V6.01654H61.631V4.334ZM59.573 4.334V2.65146C59.3384 2.65146 58.6742 2.67484 58.133 3.21601C57.5918 3.75719 57.5685 4.42142 57.5685 4.656H59.251H60.9335C60.9335 4.68294 60.9326 4.79996 60.8879 4.95958C60.8388 5.13472 60.7321 5.37583 60.5125 5.59549C60.2928 5.81514 60.0517 5.92178 59.8766 5.97089C59.717 6.01565 59.5999 6.01654 59.573 6.01654V4.334ZM59.251 4.656H57.5685V7.344H59.251H60.9335V4.656H59.251ZM59.251 7.344H57.5685C57.5685 7.57858 57.5918 8.24281 58.133 8.78399C58.6742 9.32516 59.3384 9.34854 59.573 9.34854V7.666V5.98346C59.5999 5.98346 59.717 5.98435 59.8766 6.02911C60.0517 6.07822 60.2928 6.18486 60.5125 6.40452C60.7321 6.62417 60.8388 6.86527 60.8879 7.04042C60.9326 7.20004 60.9335 7.31706 60.9335 7.344H59.251ZM59.573 7.666V9.34854H61.631V7.666V5.98346H59.573V7.666ZM61.631 7.666V9.34854C61.8656 9.34854 62.5298 9.32516 63.071 8.78399C63.6122 8.24281 63.6355 7.57858 63.6355 7.344H61.953H60.2705C60.2705 7.31706 60.2713 7.20004 60.3161 7.04042C60.3652 6.86527 60.4719 6.62417 60.6915 6.40451C60.9112 6.18486 61.1523 6.07822 61.3274 6.02911C61.487 5.98435 61.6041 5.98346 61.631 5.98346V7.666ZM67.539 2.794H65.8565V10.83H67.539H69.2215V2.794H67.539ZM67.539 10.83H65.8565C65.8565 10.7186 65.8814 10.5684 65.9611 10.4101C66.0403 10.2528 66.1497 10.1347 66.257 10.0545C66.4539 9.90736 66.613 9.90346 66.643 9.90346V11.586V13.2685C67.135 13.2685 67.7421 13.1456 68.2715 12.75C68.8589 12.311 69.2215 11.6244 69.2215 10.83H67.539ZM66.643 11.586V9.90346C66.673 9.90346 66.8321 9.90736 67.029 10.0545C67.1363 10.1347 67.2457 10.2528 67.3249 10.4101C67.4046 10.5684 67.4295 10.7186 67.4295 10.83H65.747H64.0645C64.0645 11.6244 64.4271 12.311 65.0145 12.75C65.5439 13.1456 66.151 13.2685 66.643 13.2685V11.586ZM65.747 10.83H67.4295V2.794H65.747H64.0645V10.83H65.747ZM65.747 2.794H67.4295C67.4295 2.90535 67.4046 3.05556 67.3249 3.21394C67.2457 3.37116 67.1363 3.4893 67.029 3.56948C66.8321 3.71664 66.673 3.72054 66.643 3.72054V2.038V0.35546C66.151 0.35546 65.5439 0.478357 65.0145 0.874017C64.4271 1.31303 64.0645 1.99962 64.0645 2.794H65.747ZM66.643 2.038V3.72054C66.613 3.72054 66.4539 3.71664 66.257 3.56948C66.1497 3.4893 66.0403 3.37116 65.9611 3.21394C65.8814 3.05556 65.8565 2.90535 65.8565 2.794H67.539H69.2215C69.2215 1.99962 68.8589 1.31303 68.2715 0.874017C67.7421 0.478357 67.135 0.35546 66.643 0.35546V2.038ZM67.217 14.918V13.2355H60.301V14.918V16.6005H67.217V14.918ZM60.301 14.918V13.2355C60.1504 13.2355 60.1222 13.2221 60.1615 13.2323C60.2161 13.2466 60.3782 13.3013 60.5425 13.4611C60.7092 13.623 60.7731 13.7905 60.7926 13.8612C60.8071 13.9134 60.7935 13.8976 60.7935 13.756H59.111H57.4285C57.4285 14.2871 57.4943 15.1912 58.1975 15.8744C58.8866 16.5441 59.7809 16.6005 60.301 16.6005V14.918ZM59.111 13.756H60.7935V11.11H59.111H57.4285V13.756H59.111ZM59.111 11.11H60.7935C60.7935 11.2213 60.7686 11.3727 60.6877 11.5327C60.6073 11.6917 60.4962 11.8105 60.388 11.8905C60.19 12.037 60.0349 12.0365 60.021 12.0365V10.354V8.67146C59.5311 8.67146 58.921 8.79004 58.387 9.18498C57.7925 9.62465 57.4285 10.3143 57.4285 11.11H59.111ZM60.021 10.354V12.0365C59.991 12.0365 59.8319 12.0326 59.635 11.8855C59.5277 11.8053 59.4183 11.6872 59.3391 11.5299C59.2594 11.3716 59.2345 11.2214 59.2345 11.11H60.917H62.5995C62.5995 10.3156 62.2369 9.62903 61.6495 9.19002C61.1201 8.79436 60.513 8.67146 60.021 8.67146V10.354ZM60.917 11.11H59.2345V13.07H60.917H62.5995V11.11H60.917ZM60.917 13.07H59.2345C59.2345 13.3046 59.2578 13.9688 59.799 14.51C60.3402 15.0512 61.0044 15.0745 61.239 15.0745V13.392V11.7095C61.2659 11.7095 61.383 11.7103 61.5426 11.7551C61.7177 11.8042 61.9588 11.9109 62.1785 12.1305C62.3981 12.3502 62.5048 12.5913 62.5539 12.7664C62.5986 12.926 62.5995 13.0431 62.5995 13.07H60.917ZM61.239 13.392V15.0745H67.217V13.392V11.7095H61.239V13.392ZM67.217 13.392V15.0745C67.0948 15.0745 66.9283 15.0486 66.7511 14.9606C66.573 14.8723 66.4357 14.7471 66.3406 14.6182C66.1653 14.3804 66.1645 14.1831 66.1645 14.162H67.847H69.5295C69.5295 13.7209 69.4307 13.1386 69.0489 12.6208C68.6176 12.0361 67.9498 11.7095 67.217 11.7095V13.392ZM67.847 14.162H66.1645C66.1645 14.1235 66.1699 13.9221 66.3467 13.6855C66.442 13.5578 66.5785 13.4347 66.7544 13.3479C66.9298 13.2615 67.0947 13.2355 67.217 13.2355V14.918V16.6005C67.9483 16.6005 68.6122 16.2756 69.0428 15.699C69.4261 15.1859 69.5295 14.6065 69.5295 14.162H67.847ZM76.3192 9.584L76.1039 7.91529L76.0951 7.91643L76.0863 7.91766L76.3192 9.584ZM77.0472 10.228L78.7214 10.0606L78.7202 10.0488L77.0472 10.228ZM76.5432 11.082L76.3133 9.41523L76.3082 9.41595L76.5432 11.082ZM78.3212 7.68H80.0037V5.99746H78.3212V7.68ZM78.3212 6.14V7.82254H80.0037V6.14H78.3212ZM73.6032 4.418V2.73546H70.5512V4.418V6.10054H73.6032V4.418ZM70.5512 4.418V2.73546C70.6734 2.73546 70.8384 2.76146 71.0138 2.84792C71.1897 2.93467 71.3261 3.05777 71.4215 3.18546C71.5983 3.42212 71.6037 3.62349 71.6037 3.662H69.9212H68.2386C68.2386 4.10651 68.3421 4.68588 68.7254 5.19904C69.156 5.77563 69.8199 6.10054 70.5512 6.10054V4.418ZM69.9212 3.662H71.6037C71.6037 3.70051 71.5983 3.90188 71.4215 4.13854C71.3261 4.26623 71.1897 4.38933 71.0138 4.47607C70.8384 4.56254 70.6734 4.58854 70.5512 4.58854V2.906V1.22346C69.8199 1.22346 69.156 1.54837 68.7254 2.12496C68.3421 2.63812 68.2386 3.21749 68.2386 3.662H69.9212ZM70.5512 2.906V4.58854H74.4992V2.906V1.22346H70.5512V2.906ZM74.4992 2.906V4.58854C74.6498 4.58854 74.678 4.60191 74.6387 4.59166C74.5841 4.57742 74.422 4.52266 74.2577 4.36294C74.091 4.20097 74.0271 4.03349 74.0076 3.96284C73.9931 3.91056 74.0066 3.92645 74.0066 4.068H75.6892H77.3717C77.3717 3.53692 77.3059 2.63283 76.6027 1.94956C75.9136 1.27994 75.0192 1.22346 74.4992 1.22346V2.906ZM75.6892 4.068H74.0066V6.658H75.6892H77.3717V4.068H75.6892ZM75.6892 6.658H74.0066C74.0066 6.79955 73.9931 6.81543 74.0076 6.76316C74.0271 6.69251 74.091 6.52503 74.2577 6.36306C74.422 6.20334 74.5841 6.14858 74.6387 6.13434C74.678 6.12409 74.6498 6.13746 74.4992 6.13746V7.82V9.50254C75.0192 9.50254 75.9136 9.44606 76.6027 8.77644C77.3059 8.09317 77.3717 7.18908 77.3717 6.658H75.6892ZM74.4992 7.82V6.13746H72.0212V7.82V9.50254H74.4992V7.82ZM72.0212 7.82V6.13746C71.7866 6.13746 71.1224 6.16084 70.5812 6.70201C70.04 7.24319 70.0166 7.90742 70.0166 8.142H71.6992H73.3817C73.3817 8.16894 73.3808 8.28596 73.3361 8.44558C73.287 8.62072 73.1803 8.86183 72.9607 9.08149C72.741 9.30114 72.4999 9.40778 72.3248 9.45689C72.1651 9.50165 72.0481 9.50254 72.0212 9.50254V7.82ZM71.6992 8.142H70.0166V9.514H71.6992H73.3817V8.142H71.6992ZM71.6992 9.514H70.0166C70.0166 9.74858 70.04 10.4128 70.5812 10.954C71.1224 11.4952 71.7866 11.5185 72.0212 11.5185V9.836V8.15346C72.0481 8.15346 72.1652 8.15435 72.3248 8.19911C72.4999 8.24822 72.741 8.35486 72.9607 8.57451C73.1803 8.79417 73.287 9.03527 73.3361 9.21042C73.3808 9.37004 73.3817 9.48706 73.3817 9.514H71.6992ZM72.0212 9.836V11.5185C73.6201 11.5185 75.146 11.4469 76.5521 11.2503L76.3192 9.584L76.0863 7.91766C74.8884 8.0851 73.5303 8.15346 72.0212 8.15346V9.836ZM76.3192 9.584L76.5345 11.2527C76.2764 11.286 75.927 11.2063 75.6578 10.9449C75.4318 10.7253 75.3839 10.4978 75.3742 10.4072L77.0472 10.228L78.7202 10.0488C78.6684 9.56622 78.4736 8.98869 78.0026 8.53115C77.4884 8.03168 76.796 7.82599 76.1039 7.91529L76.3192 9.584ZM77.0472 10.228L75.373 10.3954C75.3721 10.3866 75.3693 10.3516 75.3775 10.2939C75.3855 10.2372 75.4077 10.1352 75.4721 10.0121C75.5393 9.88352 75.6504 9.7373 75.8187 9.61661C75.9892 9.49439 76.1667 9.43546 76.3133 9.41524L76.5432 11.082L76.7731 12.7488C77.5374 12.6433 78.1322 12.1871 78.4543 11.5709C78.7364 11.0313 78.7625 10.4718 78.7214 10.0606L77.0472 10.228ZM76.5432 11.082L76.3082 9.41595C75.3262 9.55444 73.8035 9.66546 71.1252 9.66546V11.348V13.0305C73.8788 13.0305 75.5762 12.9176 76.7781 12.7481L76.5432 11.082ZM71.1252 11.348V9.66546C70.9746 9.66546 70.9464 9.65209 70.9857 9.66234C71.0403 9.67658 71.2023 9.73134 71.3667 9.89106C71.5334 10.053 71.5972 10.2205 71.6168 10.2912C71.6312 10.3434 71.6177 10.3276 71.6177 10.186H69.9352H68.2526C68.2526 10.7171 68.3185 11.6212 69.0217 12.3044C69.7108 12.9741 70.6051 13.0305 71.1252 13.0305V11.348ZM69.9352 10.186H71.6177V7.526H69.9352H68.2526V10.186H69.9352ZM69.9352 7.526H71.6177C71.6177 7.38445 71.6312 7.36856 71.6168 7.42084C71.5972 7.49149 71.5334 7.65897 71.3667 7.82094C71.2023 7.98066 71.0403 8.03542 70.9857 8.04966C70.9464 8.05991 70.9746 8.04654 71.1252 8.04654V6.364V4.68146C70.6051 4.68146 69.7108 4.73794 69.0217 5.40756C68.3185 6.09083 68.2526 6.99492 68.2526 7.526H69.9352ZM71.1252 6.364V8.04654H73.6032V6.364V4.68146H71.1252V6.364ZM73.6032 6.364V8.04654C73.8378 8.04654 74.502 8.02316 75.0432 7.48199C75.5843 6.94081 75.6077 6.27657 75.6077 6.042H73.9252H72.2426C72.2426 6.01506 72.2435 5.89804 72.2883 5.73842C72.3374 5.56327 72.444 5.32217 72.6637 5.10251C72.8834 4.88286 73.1245 4.77622 73.2996 4.72711C73.4592 4.68235 73.5762 4.68146 73.6032 4.68146V6.364ZM73.9252 6.042H75.6077V4.74H73.9252H72.2426V6.042H73.9252ZM73.9252 4.74H75.6077C75.6077 4.50543 75.5844 3.84119 75.0432 3.30001C74.502 2.75884 73.8378 2.73546 73.6032 2.73546V4.418V6.10054C73.5762 6.10054 73.4592 6.09965 73.2996 6.05489C73.1245 6.00578 72.8834 5.89914 72.6637 5.67948C72.444 5.45983 72.3374 5.21872 72.2883 5.04358C72.2435 4.88396 72.2426 4.76694 72.2426 4.74H73.9252ZM78.3212 13.518H80.0037V7.68H78.3212H76.6386V13.518H78.3212ZM78.3212 7.68V5.99746H76.9772V7.68V9.36254H78.3212V7.68ZM76.9772 7.68V5.99746C77.0879 5.99746 77.2468 6.02021 77.4204 6.1042C77.5959 6.18911 77.7349 6.31192 77.8332 6.44298C78.015 6.68532 78.0157 6.88921 78.0157 6.91H76.3332H74.6506C74.6506 7.35079 74.7494 7.93968 75.1412 8.46202C75.5832 9.05142 76.2566 9.36254 76.9772 9.36254V7.68ZM76.3332 6.91H78.0157C78.0157 6.93079 78.015 7.13468 77.8332 7.37702C77.7349 7.50808 77.5959 7.63089 77.4204 7.7158C77.2468 7.79979 77.0879 7.82254 76.9772 7.82254V6.14V4.45746C76.2566 4.45746 75.5832 4.76858 75.1412 5.35798C74.7494 5.88032 74.6506 6.46921 74.6506 6.91H76.3332ZM76.9772 6.14V7.82254H78.3212V6.14V4.45746H76.9772V6.14ZM78.3212 6.14H80.0037V2.794H78.3212H76.6386V6.14H78.3212ZM78.3212 2.794H80.0037C80.0037 2.90535 79.9788 3.05556 79.899 3.21394C79.8199 3.37116 79.7105 3.4893 79.6032 3.56948C79.4063 3.71664 79.2472 3.72054 79.2172 3.72054V2.038V0.35546C78.7252 0.35546 78.1181 0.478356 77.5887 0.874017C77.0013 1.31303 76.6386 1.99962 76.6386 2.794H78.3212ZM79.2172 2.038V3.72054C79.1707 3.72054 79.0076 3.71205 78.8121 3.56434C78.7058 3.48405 78.5981 3.36663 78.5202 3.21118C78.4416 3.05441 78.4166 2.9054 78.4166 2.794H80.0992H81.7817C81.7817 2.00088 81.4205 1.31742 80.8403 0.879154C80.3157 0.482952 79.7117 0.35546 79.2172 0.35546V2.038ZM80.0992 2.794H78.4166V13.518H80.0992H81.7817V2.794H80.0992ZM80.0992 13.518H78.4166C78.4166 13.4066 78.4416 13.2576 78.5202 13.1008C78.5981 12.9454 78.7058 12.8279 78.8121 12.7477C79.0076 12.6 79.1707 12.5915 79.2172 12.5915V14.274V15.9565C79.7117 15.9565 80.3157 15.829 80.8403 15.4328C81.4205 14.9946 81.7817 14.3111 81.7817 13.518H80.0992ZM79.2172 14.274V12.5915C79.2472 12.5915 79.4063 12.5954 79.6032 12.7425C79.7105 12.8227 79.8199 12.9408 79.899 13.0981C79.9788 13.2564 80.0037 13.4066 80.0037 13.518H78.3212H76.6386C76.6386 14.3124 77.0013 14.999 77.5887 15.438C78.1181 15.8336 78.7252 15.9565 79.2172 15.9565V14.274ZM93.6674 6.672H91.9848V8.35454H93.6674V6.672ZM94.6474 6.672V8.35454H96.3299V6.672H94.6474ZM94.6474 8.184H96.3299V6.50146H94.6474V8.184ZM93.6674 8.184V6.50146H91.9848V8.184H93.6674ZM87.3674 10.438V12.1205H89.0499V10.438H87.3674ZM87.3674 8.366H89.0499V6.68346H87.3674V8.366ZM89.0754 8.366V6.68346H87.3928V8.366H89.0754ZM89.0754 10.396H87.3928V12.1163L89.1128 12.0781L89.0754 10.396ZM90.9654 10.312L90.857 8.63295L90.8535 8.63319L90.9654 10.312ZM91.6234 10.998L89.9418 11.056V11.056L91.6234 10.998ZM91.0494 11.782L91.1577 13.4611L91.1613 13.4608L91.0494 11.782ZM93.6674 2.878H91.9848V6.672H93.6674H95.3499V2.878H93.6674ZM93.6674 6.672V8.35454H94.6474V6.672V4.98946H93.6674V6.672ZM94.6474 6.672H96.3299V2.738H94.6474H92.9648V6.672H94.6474ZM94.6474 2.738H96.3299C96.3299 2.86464 96.3012 3.02486 96.2178 3.18921C96.1354 3.35164 96.0225 3.47296 95.9124 3.55553C95.7092 3.70793 95.5353 3.72054 95.4734 3.72054V2.038V0.35546C94.9914 0.35546 94.4045 0.480067 93.8933 0.863468C93.3277 1.28771 92.9648 1.95557 92.9648 2.738H94.6474ZM95.4734 2.038V3.72054C95.4114 3.72054 95.2375 3.70793 95.0344 3.55553C94.9243 3.47296 94.8114 3.35164 94.729 3.18921C94.6456 3.02486 94.6168 2.86464 94.6168 2.738H96.2994H97.9819C97.9819 1.95557 97.6191 1.28771 97.0534 0.863468C96.5422 0.480067 95.9553 0.35546 95.4734 0.35546V2.038ZM96.2994 2.738H94.6168V13.574H96.2994H97.9819V2.738H96.2994ZM96.2994 13.574H94.6168C94.6168 13.4474 94.6456 13.2871 94.729 13.1228C94.8114 12.9604 94.9243 12.839 95.0344 12.7565C95.2376 12.6041 95.4114 12.5915 95.4734 12.5915V14.274V15.9565C95.9553 15.9565 96.5422 15.8319 97.0534 15.4485C97.6191 15.0243 97.9819 14.3564 97.9819 13.574H96.2994ZM95.4734 14.274V12.5915C95.5353 12.5915 95.7092 12.6041 95.9124 12.7565C96.0225 12.839 96.1354 12.9604 96.2178 13.1228C96.3012 13.2871 96.3299 13.4474 96.3299 13.574H94.6474H92.9648C92.9648 14.3564 93.3277 15.0243 93.8933 15.4485C94.4046 15.8319 94.9914 15.9565 95.4734 15.9565V14.274ZM94.6474 13.574H96.3299V8.184H94.6474H92.9648V13.574H94.6474ZM94.6474 8.184V6.50146H93.6674V8.184V9.86654H94.6474V8.184ZM93.6674 8.184H91.9848V12.986H93.6674H95.3499V8.184H93.6674ZM93.6674 12.986H91.9848C91.9848 12.8594 92.0136 12.6991 92.097 12.5348C92.1794 12.3724 92.2923 12.251 92.4024 12.1685C92.6056 12.0161 92.7794 12.0035 92.8414 12.0035V13.686V15.3685C93.3233 15.3685 93.9102 15.2439 94.4214 14.8605C94.9871 14.4363 95.3499 13.7684 95.3499 12.986H93.6674ZM92.8414 13.686V12.0035C92.9208 12.0035 93.0987 12.0213 93.3 12.174C93.409 12.2567 93.52 12.3772 93.6011 12.5378C93.6832 12.7004 93.7119 12.8593 93.7119 12.986H92.0294H90.3468C90.3468 13.7671 90.7081 14.4316 91.2662 14.855C91.772 15.2387 92.3559 15.3685 92.8414 15.3685V13.686ZM92.0294 12.986H93.7119V2.878H92.0294H90.3468V12.986H92.0294ZM92.0294 2.878H93.7119C93.7119 3.00468 93.6832 3.16362 93.6011 3.32624C93.52 3.48677 93.409 3.60732 93.3 3.68996C93.0987 3.8427 92.9208 3.86054 92.8414 3.86054V2.178V0.49546C92.3559 0.49546 91.772 0.625301 91.2662 1.00904C90.7081 1.43241 90.3468 2.09694 90.3468 2.878H92.0294ZM92.8414 2.178V3.86054C92.7794 3.86054 92.6056 3.84793 92.4024 3.69553C92.2923 3.61296 92.1794 3.49164 92.097 3.32921C92.0136 3.16486 91.9848 3.00464 91.9848 2.878H93.6674H95.3499C95.3499 2.09557 94.9871 1.42771 94.4214 1.00347C93.9102 0.620067 93.3233 0.49546 92.8414 0.49546V2.178ZM85.4494 10.438V12.1205H87.3674V10.438V8.75546H85.4494V10.438ZM87.3674 10.438H89.0499V8.366H87.3674H85.6848V10.438H87.3674ZM87.3674 8.366V6.68346H86.4854V8.366V10.0485H87.3674V8.366ZM86.4854 8.366V6.68346C86.3348 6.68346 86.3065 6.67009 86.3459 6.68034C86.4005 6.69458 86.5625 6.74934 86.7269 6.90906C86.8936 7.07103 86.9574 7.23851 86.977 7.30916C86.9914 7.36143 86.9779 7.34555 86.9779 7.204H85.2954H83.6128C83.6128 7.73508 83.6787 8.63917 84.3818 9.32244C85.071 9.99206 85.9653 10.0485 86.4854 10.0485V8.366ZM85.2954 7.204H86.9779V4.25H85.2954H83.6128V7.204H85.2954ZM85.2954 4.25H86.9779C86.9779 4.10845 86.9914 4.09257 86.977 4.14484C86.9574 4.21549 86.8936 4.38297 86.7269 4.54494C86.5625 4.70466 86.4005 4.75942 86.3459 4.77366C86.3065 4.78391 86.3348 4.77054 86.4854 4.77054V3.088V1.40546C85.9653 1.40546 85.071 1.46194 84.3818 2.13156C83.6787 2.81483 83.6128 3.71892 83.6128 4.25H85.2954ZM86.4854 3.088V4.77054H90.4334V3.088V1.40546H86.4854V3.088ZM90.4334 3.088V4.77054C90.3112 4.77054 90.1409 4.74452 89.9586 4.6531C89.7752 4.56113 89.6354 4.43085 89.5397 4.29823C89.3652 4.05646 89.3668 3.85854 89.3668 3.844H91.0494H92.7319C92.7319 3.42346 92.6425 2.84754 92.2686 2.32927C91.8407 1.7362 91.1703 1.40546 90.4334 1.40546V3.088ZM91.0494 3.844H89.3668C89.3668 3.81215 89.3697 3.6101 89.5457 3.36927C89.6417 3.23788 89.7807 3.10979 89.962 3.01944C90.1423 2.9295 90.3111 2.90346 90.4334 2.90346V4.586V6.26854C91.1687 6.26854 91.8352 5.93954 92.2626 5.35473C92.6381 4.8409 92.7319 4.26785 92.7319 3.844H91.0494ZM90.4334 4.586V2.90346H87.3674V4.586V6.26854H90.4334V4.586ZM87.3674 4.586V2.90346C87.1328 2.90346 86.4686 2.92684 85.9274 3.46801C85.3862 4.00919 85.3628 4.67342 85.3628 4.908H87.0454H88.7279C88.7279 4.93494 88.727 5.05196 88.6823 5.21158C88.6331 5.38673 88.5265 5.62783 88.3069 5.84749C88.0872 6.06714 87.8461 6.17378 87.671 6.22289C87.5113 6.26765 87.3943 6.26854 87.3674 6.26854V4.586ZM87.0454 4.908H85.3628V6.546H87.0454H88.7279V4.908H87.0454ZM87.0454 6.546H85.3628C85.3628 6.78058 85.3862 7.44481 85.9274 7.98598C86.4686 8.52716 87.1328 8.55054 87.3674 8.55054V6.868V5.18546C87.3943 5.18546 87.5113 5.18635 87.671 5.23111C87.8461 5.28022 88.0872 5.38686 88.3069 5.60651C88.5265 5.82617 88.6331 6.06727 88.6823 6.24242C88.727 6.40203 88.7279 6.51906 88.7279 6.546H87.0454ZM87.3674 6.868V8.55054H90.5734V6.868V5.18546H87.3674V6.868ZM90.5734 6.868V8.55054C90.4512 8.55054 90.2809 8.52452 90.0986 8.4331C89.9152 8.34113 89.7754 8.21085 89.6797 8.07823C89.5052 7.83646 89.5068 7.63854 89.5068 7.624H91.1894H92.8719C92.8719 7.20346 92.7825 6.62753 92.4086 6.10927C91.9807 5.5162 91.3103 5.18546 90.5734 5.18546V6.868ZM91.1894 7.624H89.5068C89.5068 7.59215 89.5097 7.39009 89.6857 7.14927C89.7817 7.01788 89.9207 6.88978 90.102 6.79943C90.2823 6.7095 90.4511 6.68346 90.5734 6.68346V8.366V10.0485C91.3087 10.0485 91.9752 9.71954 92.4026 9.13473C92.7781 8.62091 92.8719 8.04785 92.8719 7.624H91.1894ZM90.5734 8.366V6.68346H89.0754V8.366V10.0485H90.5734V8.366ZM89.0754 8.366H87.3928V10.396H89.0754H90.7579V8.366H89.0754ZM89.0754 10.396L89.1128 12.0781C89.7677 12.0636 90.4225 12.0345 91.0773 11.9908L90.9654 10.312L90.8535 8.63319C90.2482 8.67354 89.6431 8.70043 89.038 8.71388L89.0754 10.396ZM90.9654 10.312L91.0737 11.991C90.9741 11.9975 90.8202 11.9883 90.6428 11.9197C90.4612 11.8495 90.304 11.7358 90.1845 11.5989C89.9588 11.3404 89.9433 11.0984 89.9418 11.056L91.6234 10.998L93.3049 10.94C93.2895 10.4916 93.1619 9.89255 92.7192 9.38555C92.2254 8.82006 91.5315 8.58944 90.857 8.63295L90.9654 10.312ZM91.6234 10.998L89.9418 11.056C89.9413 11.0417 89.9336 10.8514 90.0912 10.6105C90.1771 10.4792 90.3049 10.347 90.4766 10.2479C90.6477 10.149 90.813 10.1115 90.9375 10.1032L91.0494 11.782L91.1613 13.4608C91.8854 13.4125 92.5182 13.0473 92.9071 12.453C93.2502 11.9286 93.3194 11.3603 93.3049 10.94L91.6234 10.998ZM91.0494 11.782L90.941 10.103C89.6818 10.1842 87.6186 10.2535 85.4494 10.2535V11.936V13.6185C87.6761 13.6185 89.813 13.5478 91.1577 13.461L91.0494 11.782ZM85.4494 11.936V10.2535C85.5716 10.2535 85.7366 10.2795 85.912 10.3659C86.0879 10.4527 86.2243 10.5758 86.3197 10.7035C86.4965 10.9401 86.5019 11.1415 86.5019 11.18H84.8194H83.1368C83.1368 11.6245 83.2403 12.2039 83.6236 12.717C84.0542 13.2936 84.7181 13.6185 85.4494 13.6185V11.936ZM84.8194 11.18H86.5019C86.5019 11.2364 86.4914 11.4418 86.3135 11.677C86.2179 11.8034 86.0823 11.9243 85.9086 12.0095C85.7352 12.0945 85.5717 12.1205 85.4494 12.1205V10.438V8.75546C84.7196 8.75546 84.0596 9.07872 83.6297 9.64698C83.2453 10.1552 83.1368 10.7316 83.1368 11.18H84.8194ZM102.546 4.516V2.83346H100.863V4.516H102.546ZM103.582 8.24L102.371 9.40832L102.376 9.41419L103.582 8.24ZM105.066 9.654L106.177 8.39086L106.168 8.38252L105.066 9.654ZM105.024 10.76L106.213 11.9497L106.228 11.9352L106.242 11.9204L105.024 10.76ZM103.946 10.872L102.831 12.1322L102.838 12.1382L103.946 10.872ZM102.616 9.598L101.426 10.7877L102.616 9.598ZM101.65 8.282L103.296 7.93538L103.015 6.59946H101.65V8.282ZM101.636 8.282V6.59946H100.279L99.9914 7.92458L101.636 8.282ZM99.1156 11.096L100.202 12.3804L100.211 12.3735L100.219 12.3664L99.1156 11.096ZM98.0096 10.928L96.7399 12.032L96.7493 12.0429L96.7589 12.0536L98.0096 10.928ZM98.0376 9.808L99.1491 11.0711L99.1498 11.0705L98.0376 9.808ZM99.6896 8.24L100.895 9.4142L100.9 9.4083L99.6896 8.24ZM100.726 4.516H102.408V2.83346H100.726V4.516ZM104.52 4.516V2.83346H102.546V4.516V6.19854H104.52V4.516ZM102.546 4.516H100.863V5.58H102.546H104.228V4.516H102.546ZM102.546 5.58H100.863C100.863 6.30158 100.942 6.99661 101.209 7.67686C101.478 8.36415 101.891 8.91084 102.371 9.4083L103.582 8.24L104.792 7.0717C104.502 6.77116 104.397 6.58985 104.341 6.44764C104.283 6.29839 104.228 6.06242 104.228 5.58H102.546ZM103.582 8.24L102.376 9.41419C102.934 9.98686 103.501 10.5246 103.964 10.9255L105.066 9.654L106.168 8.38252C105.79 8.05543 105.293 7.58514 104.787 7.06581L103.582 8.24ZM105.066 9.654L103.954 10.9171C103.668 10.6652 103.581 10.3093 103.606 10.052C103.626 9.84218 103.711 9.69808 103.805 9.59963L105.024 10.76L106.242 11.9204C106.616 11.5279 106.897 10.9848 106.956 10.3725C107.019 9.71268 106.813 8.95076 106.177 8.39089L105.066 9.654ZM105.024 10.76L103.834 9.57026C103.916 9.48814 104.047 9.39957 104.249 9.36845C104.488 9.33148 104.804 9.38777 105.054 9.60576L103.946 10.872L102.838 12.1382C104.099 13.2423 105.584 12.5792 106.213 11.9497L105.024 10.76ZM103.946 10.872L105.06 9.61178C104.737 9.32559 104.305 8.90787 103.805 8.40826L102.616 9.598L101.426 10.7877C101.934 11.2961 102.426 11.7744 102.831 12.1322L103.946 10.872ZM102.616 9.598L103.805 8.40826C103.468 8.07129 103.32 7.88859 103.258 7.80109C103.232 7.76334 103.236 7.76334 103.25 7.79454C103.267 7.83152 103.285 7.8812 103.296 7.93538L101.65 8.282L100.003 8.62862C100.171 9.42571 100.693 10.0553 101.426 10.7877L102.616 9.598ZM101.65 8.282V6.59946H101.636V8.282V9.96454H101.65V8.282ZM101.636 8.282L99.9914 7.92458C99.9957 7.90484 100.005 7.87236 100.02 7.84031C100.032 7.8126 100.036 7.81217 100.012 7.84621C99.9531 7.93112 99.8093 8.10684 99.4658 8.45026L100.656 9.64L101.845 10.8297C102.587 10.0875 103.097 9.4795 103.28 8.63942L101.636 8.282ZM100.656 9.64L99.4658 8.45026C98.9704 8.94573 98.4993 9.40273 98.0123 9.82563L99.1156 11.096L100.219 12.3664C100.796 11.8653 101.333 11.3423 101.845 10.8297L100.656 9.64ZM99.1156 11.096L98.0287 9.81157C98.1553 9.70451 98.3153 9.62568 98.4892 9.5903C98.6553 9.5565 98.7961 9.56961 98.8947 9.59208C99.0675 9.63149 99.1786 9.71179 99.2602 9.80244L98.0096 10.928L96.7589 12.0536C97.0925 12.4242 97.5746 12.7425 98.1464 12.8729C98.7646 13.0139 99.546 12.9358 100.202 12.3804L99.1156 11.096ZM98.0096 10.928L99.2792 9.82395C99.3811 9.94116 99.4678 10.1177 99.4698 10.3481C99.4721 10.6084 99.3608 10.8848 99.1491 11.0711L98.0376 9.808L96.926 8.54489C95.7093 9.61565 96.015 11.1984 96.7399 12.032L98.0096 10.928ZM98.0376 9.808L99.1498 11.0705C99.7678 10.5261 100.331 9.99269 100.895 9.41419L99.6896 8.24L98.4845 7.06581C97.9842 7.57931 97.4833 8.05393 96.9254 8.54549L98.0376 9.808ZM99.6896 8.24L100.9 9.4083C101.38 8.91084 101.793 8.36415 102.063 7.67686C102.33 6.99661 102.408 6.30158 102.408 5.58H100.726H99.043C99.043 6.06242 98.9886 6.29839 98.93 6.44764C98.8742 6.58985 98.7688 6.77116 98.4788 7.0717L99.6896 8.24ZM100.726 5.58H102.408V4.516H100.726H99.043V5.58H100.726ZM100.726 4.516V2.83346H98.6396V4.516V6.19854H100.726V4.516ZM98.6396 4.516V2.83346C98.7618 2.83346 98.9268 2.85946 99.1022 2.94593C99.2781 3.03267 99.4145 3.15577 99.5099 3.28346C99.6866 3.52012 99.6921 3.72149 99.6921 3.76H98.0096H96.327C96.327 4.20451 96.4305 4.78388 96.8137 5.29704C97.2444 5.87363 97.9083 6.19854 98.6396 6.19854V4.516ZM98.0096 3.76H99.6921C99.6921 3.78114 99.6913 3.97837 99.5159 4.21616C99.4208 4.34509 99.2836 4.47033 99.1055 4.55864C98.9282 4.64655 98.7617 4.67254 98.6396 4.67254V2.99V1.30746C97.9068 1.30746 97.239 1.63406 96.8077 2.21884C96.4258 2.73662 96.327 3.31885 96.327 3.76H98.0096ZM98.6396 2.99V4.67254H104.52V2.99V1.30746H98.6396V2.99ZM104.52 2.99V4.67254C104.397 4.67254 104.231 4.64655 104.054 4.55864C103.876 4.47033 103.738 4.3451 103.643 4.21616C103.468 3.97837 103.467 3.78114 103.467 3.76H105.15H106.832C106.832 3.31885 106.733 2.73662 106.351 2.21884C105.92 1.63406 105.252 1.30746 104.52 1.30746V2.99ZM105.15 3.76H103.467C103.467 3.72149 103.472 3.52012 103.649 3.28346C103.745 3.15577 103.881 3.03267 104.057 2.94593C104.232 2.85946 104.397 2.83346 104.52 2.83346V4.516V6.19854C105.251 6.19854 105.915 5.87363 106.345 5.29704C106.729 4.78388 106.832 4.20451 106.832 3.76H105.15ZM108.202 2.794H106.519V13.518H108.202H109.884V2.794H108.202ZM108.202 13.518H106.519C106.519 13.4067 106.544 13.2553 106.625 13.0953C106.705 12.9363 106.816 12.8175 106.925 12.7375C107.123 12.591 107.278 12.5915 107.292 12.5915V14.274V15.9565C107.781 15.9565 108.392 15.838 108.926 15.443C109.52 15.0033 109.884 14.3137 109.884 13.518H108.202ZM107.292 14.274V12.5915C107.322 12.5915 107.481 12.5954 107.678 12.7425C107.785 12.8227 107.894 12.9408 107.973 13.0981C108.053 13.2564 108.078 13.4066 108.078 13.518H106.396H104.713C104.713 14.3124 105.076 14.999 105.663 15.438C106.192 15.8336 106.8 15.9565 107.292 15.9565V14.274ZM106.396 13.518H108.078V2.794H106.396H104.713V13.518H106.396ZM106.396 2.794H108.078C108.078 2.90535 108.053 3.05556 107.973 3.21394C107.894 3.37116 107.785 3.4893 107.678 3.56948C107.481 3.71664 107.322 3.72054 107.292 3.72054V2.038V0.35546C106.8 0.35546 106.192 0.478357 105.663 0.874017C105.076 1.31303 104.713 1.99962 104.713 2.794H106.396ZM107.292 2.038V3.72054C107.278 3.72054 107.123 3.72095 106.925 3.57451C106.816 3.49448 106.705 3.37568 106.625 3.21669C106.544 3.05672 106.519 2.9053 106.519 2.794H108.202H109.884C109.884 1.99833 109.52 1.30865 108.926 0.868984C108.392 0.474044 107.781 0.35546 107.292 0.35546V2.038Z" fill="#FFFBEB" mask="url(#path-1-outside-1_21_6214)"/>
</g>
<defs>
<filter id="filter0_d_21_6214" x="0.266113" y="0.355469" width="111.618" height="20.5952" filterUnits="userSpaceOnUse" color-interpolation-filters="sRGB">
<feFlood flood-opacity="0" result="BackgroundImageFix"/>
<feColorMatrix in="SourceAlpha" type="matrix" values="0 0 0 0 0 0 0 0 0 0 0 0 0 0 0 0 0 0 127 0" result="hardAlpha"/>
<feOffset dy="2"/>
<feGaussianBlur stdDeviation="1"/>
<feComposite in2="hardAlpha" operator="out"/>
<feColorMatrix type="matrix" values="0 0 0 0 0.580392 0 0 0 0 0.439216 0 0 0 0 0.368627 0 0 0 0.25 0"/>
<feBlend mode="normal" in2="BackgroundImageFix" result="effect1_dropShadow_21_6214"/>
<feBlend mode="normal" in="SourceGraphic" in2="effect1_dropShadow_21_6214" result="shape"/>
</filter>
</defs>
</svg>
