<svg width="112" height="21" viewBox="0 0 112 21" fill="none" xmlns="http://www.w3.org/2000/svg">
<g filter="url(#filter0_d_21_6215)">
<mask id="path-1-outside-1_21_6215" maskUnits="userSpaceOnUse" x="2" y="0" width="108" height="18" fill="black">
<rect fill="white" x="2" width="108" height="18"/>
<path d="M9.68225 4.348H6.23825C6.00025 4.348 5.91625 4.432 5.91625 4.67V7.358C5.91625 7.596 6.00025 7.68 6.23825 7.68C7.82025 7.68 9.26225 7.596 10.6202 7.414C11.0542 7.358 11.3062 7.652 11.3482 8.058C11.3902 8.478 11.2502 8.856 10.8442 8.912C9.69625 9.066 8.08625 9.192 5.31425 9.192C4.41825 9.192 4.12425 8.912 4.12425 8.03V3.998C4.12425 3.116 4.41825 2.836 5.31425 2.836H9.68225C10.1162 2.836 10.3122 3.186 10.3122 3.592C10.3122 3.998 10.1162 4.348 9.68225 4.348ZM13.7982 5.538H15.1142C15.5622 5.538 15.7582 5.888 15.7582 6.308C15.7582 6.742 15.5622 7.092 15.1142 7.092H13.7982V10.83C13.7982 11.348 13.3642 11.586 12.9022 11.586C12.4402 11.586 12.0062 11.348 12.0062 10.83V2.794C12.0062 2.276 12.4402 2.038 12.9022 2.038C13.3642 2.038 13.7982 2.276 13.7982 2.794V5.538ZM13.4762 14.918H6.70025C5.80425 14.918 5.51025 14.638 5.51025 13.756V11.11C5.51025 10.592 5.94425 10.354 6.42025 10.354C6.88225 10.354 7.31625 10.592 7.31625 11.11V13.07C7.31625 13.308 7.40025 13.392 7.63825 13.392H13.4762C13.9102 13.392 14.1062 13.742 14.1062 14.162C14.1062 14.568 13.9102 14.918 13.4762 14.918ZM27.3804 10.326H16.7684C16.3484 10.326 16.1524 10.004 16.1524 9.598C16.1524 9.206 16.3484 8.884 16.7684 8.884H21.1924V8.002H18.8824C17.9864 8.002 17.6924 7.722 17.6924 6.84V3.578C17.6924 2.696 17.9864 2.416 18.8824 2.416H25.8404C26.2324 2.416 26.4144 2.738 26.4144 3.116C26.4144 3.494 26.2324 3.816 25.8404 3.816H19.6244C19.4844 3.816 19.4144 3.886 19.4144 4.026V4.53H25.7144C26.0924 4.53 26.2744 4.838 26.2744 5.202C26.2744 5.566 26.0924 5.874 25.7144 5.874H19.4144V6.392C19.4144 6.532 19.4844 6.602 19.6244 6.602H26.0504C26.4424 6.602 26.6244 6.924 26.6244 7.302C26.6244 7.68 26.4424 8.002 26.0504 8.002H22.9564V8.884H27.3804C27.8004 8.884 27.9964 9.206 27.9964 9.598C27.9964 10.004 27.8004 10.326 27.3804 10.326ZM26.4844 12.188V14.498C26.4844 15.016 26.0504 15.254 25.6024 15.254C25.1404 15.254 24.7064 15.016 24.7064 14.498V12.804C24.7064 12.566 24.6224 12.482 24.3844 12.482H18.1124C17.6924 12.482 17.4964 12.16 17.4964 11.74C17.4964 11.348 17.6924 11.026 18.1124 11.026H25.2944C26.1904 11.026 26.4844 11.306 26.4844 12.188ZM30.7986 3.354V4.67H33.4586V3.354C33.4586 2.85 33.8926 2.612 34.3406 2.612C34.7886 2.612 35.2226 2.85 35.2226 3.354V7.806C35.2226 8.688 34.9286 8.968 34.0326 8.968H30.2246C29.3286 8.968 29.0346 8.688 29.0346 7.806V3.354C29.0346 2.85 29.4686 2.612 29.9166 2.612C30.3646 2.612 30.7986 2.85 30.7986 3.354ZM31.1206 7.512H33.1366C33.3746 7.512 33.4586 7.428 33.4586 7.19V6.126H30.7986V7.19C30.7986 7.428 30.8826 7.512 31.1206 7.512ZM38.7506 5.09H40.0666C40.5146 5.09 40.7106 5.44 40.7106 5.86C40.7106 6.294 40.5146 6.644 40.0666 6.644H38.7506V9.08C38.7506 9.598 38.3166 9.836 37.8546 9.836C37.3926 9.836 36.9586 9.598 36.9586 9.08V2.794C36.9586 2.276 37.3926 2.038 37.8546 2.038C38.3166 2.038 38.7506 2.276 38.7506 2.794V5.09ZM30.5326 12.594C30.5326 10.802 32.0866 9.92 34.6626 9.92C37.2386 9.92 38.7926 10.802 38.7926 12.594C38.7926 14.386 37.2386 15.268 34.6626 15.268C32.0866 15.268 30.5326 14.386 30.5326 12.594ZM32.3106 12.594C32.3106 13.336 32.9546 13.84 34.6626 13.84C36.3706 13.84 37.0146 13.336 37.0146 12.594C37.0146 11.852 36.3706 11.348 34.6626 11.348C32.9546 11.348 32.3106 11.852 32.3106 12.594ZM46.2568 3.116H49.3508V2.556C49.3508 2.038 49.7848 1.786 50.2608 1.786C50.7368 1.786 51.1708 2.038 51.1708 2.556V3.116H54.2648C54.6848 3.116 54.8808 3.452 54.8808 3.844C54.8808 4.25 54.6848 4.586 54.2648 4.586H51.1708V4.684C51.1708 5.034 51.4928 5.3 52.3188 5.566C53.2148 5.86 53.9148 6.07 54.7128 6.294C55.0908 6.406 55.2168 6.812 55.0908 7.204C54.9648 7.596 54.5868 7.792 54.1388 7.666C53.4668 7.484 52.6828 7.246 51.9128 6.994C50.7508 6.616 50.3728 6.336 50.2748 6.014H50.2608C50.1488 6.392 49.7708 6.658 48.6088 7.036C47.8388 7.288 47.0548 7.526 46.3828 7.708C45.9348 7.834 45.5708 7.638 45.4308 7.232C45.3048 6.826 45.4168 6.406 45.8088 6.294C46.6068 6.07 47.3068 5.86 48.2028 5.566C49.0288 5.3 49.3508 5.034 49.3508 4.684V4.586H46.2568C45.8368 4.586 45.6408 4.25 45.6408 3.844C45.6408 3.452 45.8368 3.116 46.2568 3.116ZM55.5668 9.864H44.9548C44.5348 9.864 44.3388 9.528 44.3388 9.122C44.3388 8.716 44.5348 8.38 44.9548 8.38H49.3788V7.792C49.3788 7.274 49.8128 7.05 50.2608 7.05C50.7088 7.05 51.1428 7.274 51.1428 7.792V8.38H55.5668C55.9868 8.38 56.1828 8.716 56.1828 9.122C56.1828 9.528 55.9868 9.864 55.5668 9.864ZM45.8508 12.902C45.8508 11.208 47.5168 10.48 50.2608 10.48C53.0048 10.48 54.6708 11.208 54.6708 12.902C54.6708 14.596 53.0048 15.324 50.2608 15.324C47.5168 15.324 45.8508 14.596 45.8508 12.902ZM52.8928 12.902C52.8928 12.258 52.1368 11.894 50.2608 11.894C48.3848 11.894 47.6288 12.258 47.6288 12.902C47.6288 13.546 48.3848 13.91 50.2608 13.91C52.1368 13.91 52.8928 13.546 52.8928 12.902ZM65.943 8.03H59.531C58.635 8.03 58.341 7.75 58.341 6.868V3.774C58.341 2.892 58.635 2.612 59.531 2.612H65.943C66.839 2.612 67.133 2.892 67.133 3.774V6.868C67.133 7.75 66.839 8.03 65.943 8.03ZM60.469 6.518H65.005C65.243 6.518 65.327 6.434 65.327 6.196V4.446C65.327 4.208 65.243 4.124 65.005 4.124H60.469C60.231 4.124 60.147 4.208 60.147 4.446V6.196C60.147 6.434 60.231 6.518 60.469 6.518ZM61.841 10.844H57.445C57.011 10.844 56.815 10.494 56.815 10.088C56.815 9.682 57.011 9.332 57.445 9.332H68.029C68.463 9.332 68.659 9.682 68.659 10.088C68.659 10.494 68.463 10.844 68.029 10.844H63.633V14.498C63.633 15.016 63.199 15.254 62.737 15.254C62.275 15.254 61.841 15.016 61.841 14.498V10.844ZM80.7432 4.474H74.4992C74.0652 4.474 73.8692 4.124 73.8692 3.704C73.8692 3.284 74.0652 2.934 74.4992 2.934H81.6672C82.5632 2.934 82.8572 3.214 82.8572 4.096V5.356C82.8572 7.064 82.7312 8.352 82.4792 9.514C82.3672 10.018 81.8912 10.2 81.3732 10.102C80.9532 10.018 80.6172 9.738 80.7152 9.234C80.9532 8.058 81.0652 6.812 81.0652 5.314V4.796C81.0652 4.558 80.9812 4.474 80.7432 4.474ZM78.4472 11.614H83.7392C84.1732 11.614 84.3692 11.964 84.3692 12.37C84.3692 12.776 84.1732 13.126 83.7392 13.126H73.1552C72.7212 13.126 72.5252 12.776 72.5252 12.37C72.5252 11.964 72.7212 11.614 73.1552 11.614H76.6552V7.848C76.6552 7.33 77.0892 7.092 77.5512 7.092C78.0132 7.092 78.4472 7.33 78.4472 7.848V11.614ZM85.1414 5.748C85.1414 3.9 86.2754 2.556 88.4874 2.556C90.6994 2.556 91.8334 3.9 91.8334 5.748C91.8334 7.596 90.6994 8.94 88.4874 8.94C86.2754 8.94 85.1414 7.596 85.1414 5.748ZM90.1254 5.748C90.1254 4.796 89.6774 4.04 88.4874 4.04C87.2974 4.04 86.8494 4.796 86.8494 5.748C86.8494 6.7 87.2974 7.456 88.4874 7.456C89.6774 7.456 90.1254 6.7 90.1254 5.748ZM95.1234 2.794V3.844H96.3274C96.7614 3.844 96.9574 4.194 96.9574 4.614C96.9574 5.02 96.7614 5.37 96.3274 5.37H95.1234V6.224H96.3274C96.7614 6.224 96.9574 6.574 96.9574 6.994C96.9574 7.4 96.7614 7.75 96.3274 7.75H95.1234V8.996C95.1234 9.514 94.6894 9.752 94.2274 9.752C93.7654 9.752 93.3314 9.514 93.3314 8.996V2.794C93.3314 2.276 93.7654 2.038 94.2274 2.038C94.6894 2.038 95.1234 2.276 95.1234 2.794ZM86.9054 12.552C86.9054 10.732 88.4594 9.836 91.0354 9.836C93.6114 9.836 95.1654 10.732 95.1654 12.552C95.1654 14.372 93.6114 15.268 91.0354 15.268C88.4594 15.268 86.9054 14.372 86.9054 12.552ZM93.3874 12.552C93.3874 11.782 92.7434 11.264 91.0354 11.264C89.3274 11.264 88.6834 11.782 88.6834 12.552C88.6834 13.322 89.3274 13.84 91.0354 13.84C92.7434 13.84 93.3874 13.322 93.3874 12.552ZM97.8976 7.008C97.8976 4.25 99.0316 2.752 101.272 2.752C103.512 2.752 104.646 4.25 104.646 7.008C104.646 9.766 103.512 11.264 101.272 11.264C99.0316 11.264 97.8976 9.766 97.8976 7.008ZM102.924 7.008C102.924 5.244 102.49 4.306 101.272 4.306C100.054 4.306 99.6196 5.244 99.6196 7.008C99.6196 8.772 100.054 9.71 101.272 9.71C102.49 9.71 102.924 8.772 102.924 7.008ZM108.202 2.794V13.518C108.202 14.036 107.768 14.274 107.292 14.274C106.83 14.274 106.396 14.036 106.396 13.518V2.794C106.396 2.276 106.83 2.038 107.292 2.038C107.768 2.038 108.202 2.276 108.202 2.794Z"/>
</mask>
<path d="M9.68225 4.348H6.23825C6.00025 4.348 5.91625 4.432 5.91625 4.67V7.358C5.91625 7.596 6.00025 7.68 6.23825 7.68C7.82025 7.68 9.26225 7.596 10.6202 7.414C11.0542 7.358 11.3062 7.652 11.3482 8.058C11.3902 8.478 11.2502 8.856 10.8442 8.912C9.69625 9.066 8.08625 9.192 5.31425 9.192C4.41825 9.192 4.12425 8.912 4.12425 8.03V3.998C4.12425 3.116 4.41825 2.836 5.31425 2.836H9.68225C10.1162 2.836 10.3122 3.186 10.3122 3.592C10.3122 3.998 10.1162 4.348 9.68225 4.348ZM13.7982 5.538H15.1142C15.5622 5.538 15.7582 5.888 15.7582 6.308C15.7582 6.742 15.5622 7.092 15.1142 7.092H13.7982V10.83C13.7982 11.348 13.3642 11.586 12.9022 11.586C12.4402 11.586 12.0062 11.348 12.0062 10.83V2.794C12.0062 2.276 12.4402 2.038 12.9022 2.038C13.3642 2.038 13.7982 2.276 13.7982 2.794V5.538ZM13.4762 14.918H6.70025C5.80425 14.918 5.51025 14.638 5.51025 13.756V11.11C5.51025 10.592 5.94425 10.354 6.42025 10.354C6.88225 10.354 7.31625 10.592 7.31625 11.11V13.07C7.31625 13.308 7.40025 13.392 7.63825 13.392H13.4762C13.9102 13.392 14.1062 13.742 14.1062 14.162C14.1062 14.568 13.9102 14.918 13.4762 14.918ZM27.3804 10.326H16.7684C16.3484 10.326 16.1524 10.004 16.1524 9.598C16.1524 9.206 16.3484 8.884 16.7684 8.884H21.1924V8.002H18.8824C17.9864 8.002 17.6924 7.722 17.6924 6.84V3.578C17.6924 2.696 17.9864 2.416 18.8824 2.416H25.8404C26.2324 2.416 26.4144 2.738 26.4144 3.116C26.4144 3.494 26.2324 3.816 25.8404 3.816H19.6244C19.4844 3.816 19.4144 3.886 19.4144 4.026V4.53H25.7144C26.0924 4.53 26.2744 4.838 26.2744 5.202C26.2744 5.566 26.0924 5.874 25.7144 5.874H19.4144V6.392C19.4144 6.532 19.4844 6.602 19.6244 6.602H26.0504C26.4424 6.602 26.6244 6.924 26.6244 7.302C26.6244 7.68 26.4424 8.002 26.0504 8.002H22.9564V8.884H27.3804C27.8004 8.884 27.9964 9.206 27.9964 9.598C27.9964 10.004 27.8004 10.326 27.3804 10.326ZM26.4844 12.188V14.498C26.4844 15.016 26.0504 15.254 25.6024 15.254C25.1404 15.254 24.7064 15.016 24.7064 14.498V12.804C24.7064 12.566 24.6224 12.482 24.3844 12.482H18.1124C17.6924 12.482 17.4964 12.16 17.4964 11.74C17.4964 11.348 17.6924 11.026 18.1124 11.026H25.2944C26.1904 11.026 26.4844 11.306 26.4844 12.188ZM30.7986 3.354V4.67H33.4586V3.354C33.4586 2.85 33.8926 2.612 34.3406 2.612C34.7886 2.612 35.2226 2.85 35.2226 3.354V7.806C35.2226 8.688 34.9286 8.968 34.0326 8.968H30.2246C29.3286 8.968 29.0346 8.688 29.0346 7.806V3.354C29.0346 2.85 29.4686 2.612 29.9166 2.612C30.3646 2.612 30.7986 2.85 30.7986 3.354ZM31.1206 7.512H33.1366C33.3746 7.512 33.4586 7.428 33.4586 7.19V6.126H30.7986V7.19C30.7986 7.428 30.8826 7.512 31.1206 7.512ZM38.7506 5.09H40.0666C40.5146 5.09 40.7106 5.44 40.7106 5.86C40.7106 6.294 40.5146 6.644 40.0666 6.644H38.7506V9.08C38.7506 9.598 38.3166 9.836 37.8546 9.836C37.3926 9.836 36.9586 9.598 36.9586 9.08V2.794C36.9586 2.276 37.3926 2.038 37.8546 2.038C38.3166 2.038 38.7506 2.276 38.7506 2.794V5.09ZM30.5326 12.594C30.5326 10.802 32.0866 9.92 34.6626 9.92C37.2386 9.92 38.7926 10.802 38.7926 12.594C38.7926 14.386 37.2386 15.268 34.6626 15.268C32.0866 15.268 30.5326 14.386 30.5326 12.594ZM32.3106 12.594C32.3106 13.336 32.9546 13.84 34.6626 13.84C36.3706 13.84 37.0146 13.336 37.0146 12.594C37.0146 11.852 36.3706 11.348 34.6626 11.348C32.9546 11.348 32.3106 11.852 32.3106 12.594ZM46.2568 3.116H49.3508V2.556C49.3508 2.038 49.7848 1.786 50.2608 1.786C50.7368 1.786 51.1708 2.038 51.1708 2.556V3.116H54.2648C54.6848 3.116 54.8808 3.452 54.8808 3.844C54.8808 4.25 54.6848 4.586 54.2648 4.586H51.1708V4.684C51.1708 5.034 51.4928 5.3 52.3188 5.566C53.2148 5.86 53.9148 6.07 54.7128 6.294C55.0908 6.406 55.2168 6.812 55.0908 7.204C54.9648 7.596 54.5868 7.792 54.1388 7.666C53.4668 7.484 52.6828 7.246 51.9128 6.994C50.7508 6.616 50.3728 6.336 50.2748 6.014H50.2608C50.1488 6.392 49.7708 6.658 48.6088 7.036C47.8388 7.288 47.0548 7.526 46.3828 7.708C45.9348 7.834 45.5708 7.638 45.4308 7.232C45.3048 6.826 45.4168 6.406 45.8088 6.294C46.6068 6.07 47.3068 5.86 48.2028 5.566C49.0288 5.3 49.3508 5.034 49.3508 4.684V4.586H46.2568C45.8368 4.586 45.6408 4.25 45.6408 3.844C45.6408 3.452 45.8368 3.116 46.2568 3.116ZM55.5668 9.864H44.9548C44.5348 9.864 44.3388 9.528 44.3388 9.122C44.3388 8.716 44.5348 8.38 44.9548 8.38H49.3788V7.792C49.3788 7.274 49.8128 7.05 50.2608 7.05C50.7088 7.05 51.1428 7.274 51.1428 7.792V8.38H55.5668C55.9868 8.38 56.1828 8.716 56.1828 9.122C56.1828 9.528 55.9868 9.864 55.5668 9.864ZM45.8508 12.902C45.8508 11.208 47.5168 10.48 50.2608 10.48C53.0048 10.48 54.6708 11.208 54.6708 12.902C54.6708 14.596 53.0048 15.324 50.2608 15.324C47.5168 15.324 45.8508 14.596 45.8508 12.902ZM52.8928 12.902C52.8928 12.258 52.1368 11.894 50.2608 11.894C48.3848 11.894 47.6288 12.258 47.6288 12.902C47.6288 13.546 48.3848 13.91 50.2608 13.91C52.1368 13.91 52.8928 13.546 52.8928 12.902ZM65.943 8.03H59.531C58.635 8.03 58.341 7.75 58.341 6.868V3.774C58.341 2.892 58.635 2.612 59.531 2.612H65.943C66.839 2.612 67.133 2.892 67.133 3.774V6.868C67.133 7.75 66.839 8.03 65.943 8.03ZM60.469 6.518H65.005C65.243 6.518 65.327 6.434 65.327 6.196V4.446C65.327 4.208 65.243 4.124 65.005 4.124H60.469C60.231 4.124 60.147 4.208 60.147 4.446V6.196C60.147 6.434 60.231 6.518 60.469 6.518ZM61.841 10.844H57.445C57.011 10.844 56.815 10.494 56.815 10.088C56.815 9.682 57.011 9.332 57.445 9.332H68.029C68.463 9.332 68.659 9.682 68.659 10.088C68.659 10.494 68.463 10.844 68.029 10.844H63.633V14.498C63.633 15.016 63.199 15.254 62.737 15.254C62.275 15.254 61.841 15.016 61.841 14.498V10.844ZM80.7432 4.474H74.4992C74.0652 4.474 73.8692 4.124 73.8692 3.704C73.8692 3.284 74.0652 2.934 74.4992 2.934H81.6672C82.5632 2.934 82.8572 3.214 82.8572 4.096V5.356C82.8572 7.064 82.7312 8.352 82.4792 9.514C82.3672 10.018 81.8912 10.2 81.3732 10.102C80.9532 10.018 80.6172 9.738 80.7152 9.234C80.9532 8.058 81.0652 6.812 81.0652 5.314V4.796C81.0652 4.558 80.9812 4.474 80.7432 4.474ZM78.4472 11.614H83.7392C84.1732 11.614 84.3692 11.964 84.3692 12.37C84.3692 12.776 84.1732 13.126 83.7392 13.126H73.1552C72.7212 13.126 72.5252 12.776 72.5252 12.37C72.5252 11.964 72.7212 11.614 73.1552 11.614H76.6552V7.848C76.6552 7.33 77.0892 7.092 77.5512 7.092C78.0132 7.092 78.4472 7.33 78.4472 7.848V11.614ZM85.1414 5.748C85.1414 3.9 86.2754 2.556 88.4874 2.556C90.6994 2.556 91.8334 3.9 91.8334 5.748C91.8334 7.596 90.6994 8.94 88.4874 8.94C86.2754 8.94 85.1414 7.596 85.1414 5.748ZM90.1254 5.748C90.1254 4.796 89.6774 4.04 88.4874 4.04C87.2974 4.04 86.8494 4.796 86.8494 5.748C86.8494 6.7 87.2974 7.456 88.4874 7.456C89.6774 7.456 90.1254 6.7 90.1254 5.748ZM95.1234 2.794V3.844H96.3274C96.7614 3.844 96.9574 4.194 96.9574 4.614C96.9574 5.02 96.7614 5.37 96.3274 5.37H95.1234V6.224H96.3274C96.7614 6.224 96.9574 6.574 96.9574 6.994C96.9574 7.4 96.7614 7.75 96.3274 7.75H95.1234V8.996C95.1234 9.514 94.6894 9.752 94.2274 9.752C93.7654 9.752 93.3314 9.514 93.3314 8.996V2.794C93.3314 2.276 93.7654 2.038 94.2274 2.038C94.6894 2.038 95.1234 2.276 95.1234 2.794ZM86.9054 12.552C86.9054 10.732 88.4594 9.836 91.0354 9.836C93.6114 9.836 95.1654 10.732 95.1654 12.552C95.1654 14.372 93.6114 15.268 91.0354 15.268C88.4594 15.268 86.9054 14.372 86.9054 12.552ZM93.3874 12.552C93.3874 11.782 92.7434 11.264 91.0354 11.264C89.3274 11.264 88.6834 11.782 88.6834 12.552C88.6834 13.322 89.3274 13.84 91.0354 13.84C92.7434 13.84 93.3874 13.322 93.3874 12.552ZM97.8976 7.008C97.8976 4.25 99.0316 2.752 101.272 2.752C103.512 2.752 104.646 4.25 104.646 7.008C104.646 9.766 103.512 11.264 101.272 11.264C99.0316 11.264 97.8976 9.766 97.8976 7.008ZM102.924 7.008C102.924 5.244 102.49 4.306 101.272 4.306C100.054 4.306 99.6196 5.244 99.6196 7.008C99.6196 8.772 100.054 9.71 101.272 9.71C102.49 9.71 102.924 8.772 102.924 7.008ZM108.202 2.794V13.518C108.202 14.036 107.768 14.274 107.292 14.274C106.83 14.274 106.396 14.036 106.396 13.518V2.794C106.396 2.276 106.83 2.038 107.292 2.038C107.768 2.038 108.202 2.276 108.202 2.794Z" fill="#745F56"/>
<path d="M10.6202 7.414L10.4049 5.74527L10.3968 5.74637L10.6202 7.414ZM11.3482 8.058L13.0224 7.89058L13.0219 7.88487L11.3482 8.058ZM10.8442 8.912L11.068 10.5796L11.0741 10.5788L10.8442 8.912ZM13.7982 5.538H12.1157V7.22054H13.7982V5.538ZM13.7982 7.092V5.40946H12.1157V7.092H13.7982ZM9.68225 4.348V2.66546H6.23825V4.348V6.03054H9.68225V4.348ZM6.23825 4.348V2.66546C6.00367 2.66546 5.33944 2.68884 4.79826 3.23001C4.25709 3.77119 4.23371 4.43542 4.23371 4.67H5.91625H7.59879C7.59879 4.69694 7.5979 4.81396 7.55314 4.97358C7.50402 5.14873 7.39739 5.38983 7.17773 5.60949C6.95808 5.82914 6.71697 5.93578 6.54183 5.98489C6.38221 6.02965 6.26519 6.03054 6.23825 6.03054V4.348ZM5.91625 4.67H4.23371V7.358H5.91625H7.59879V4.67H5.91625ZM5.91625 7.358H4.23371C4.23371 7.59258 4.25709 8.25681 4.79826 8.79799C5.33944 9.33916 6.00367 9.36254 6.23825 9.36254V7.68V5.99746C6.26519 5.99746 6.38221 5.99835 6.54183 6.04311C6.71697 6.09222 6.95808 6.19886 7.17773 6.41851C7.39739 6.63817 7.50402 6.87927 7.55314 7.05442C7.5979 7.21404 7.59879 7.33106 7.59879 7.358H5.91625ZM6.23825 7.68V9.36254C7.87945 9.36254 9.3977 9.27543 10.8437 9.08163L10.6202 7.414L10.3968 5.74637C9.1268 5.91657 7.76105 5.99746 6.23825 5.99746V7.68ZM10.6202 7.414L10.8356 9.08271C10.6022 9.11282 10.2504 9.04872 9.96785 8.77825C9.7273 8.54801 9.68263 8.30839 9.67464 8.23113L11.3482 8.058L13.0219 7.88487C12.9719 7.40161 12.7802 6.81199 12.2947 6.34725C11.7671 5.84228 11.0723 5.65918 10.4049 5.74529L10.6202 7.414ZM11.3482 8.058L9.67406 8.22542C9.67318 8.21659 9.67031 8.18164 9.67853 8.12387C9.68659 8.06719 9.70877 7.96519 9.77314 7.84206C9.84033 7.71352 9.95145 7.5673 10.1198 7.44661C10.2902 7.32439 10.4678 7.26546 10.6144 7.24524L10.8442 8.912L11.0741 10.5788C11.8385 10.4733 12.4333 10.0171 12.7554 9.40094C13.0374 8.86135 13.0636 8.30182 13.0224 7.89058L11.3482 8.058ZM10.8442 8.912L10.6205 7.2444C9.56707 7.38572 8.03527 7.50946 5.31425 7.50946V9.192V10.8745C8.13723 10.8745 9.82542 10.7463 11.068 10.5796L10.8442 8.912ZM5.31425 9.192V7.50946C5.16368 7.50946 5.13542 7.49609 5.17474 7.50634C5.22937 7.52058 5.39141 7.57534 5.55579 7.73506C5.72247 7.89703 5.78631 8.06451 5.80585 8.13516C5.82031 8.18743 5.80679 8.17155 5.80679 8.03H4.12425H2.44171C2.44171 8.56108 2.50754 9.46517 3.21071 10.1484C3.89984 10.8181 4.7942 10.8745 5.31425 10.8745V9.192ZM4.12425 8.03H5.80679V3.998H4.12425H2.44171V8.03H4.12425ZM4.12425 3.998H5.80679C5.80679 3.85645 5.82031 3.84057 5.80585 3.89284C5.78631 3.96349 5.72247 4.13097 5.55579 4.29294C5.39141 4.45266 5.22937 4.50742 5.17474 4.52166C5.13542 4.53191 5.16368 4.51854 5.31425 4.51854V2.836V1.15346C4.7942 1.15346 3.89984 1.20994 3.21071 1.87956C2.50754 2.56283 2.44171 3.46692 2.44171 3.998H4.12425ZM5.31425 2.836V4.51854H9.68225V2.836V1.15346H5.31425V2.836ZM9.68225 2.836V4.51854C9.55999 4.51854 9.395 4.49254 9.21965 4.40608C9.04374 4.31933 8.90728 4.19623 8.81192 4.06854C8.63518 3.83188 8.62971 3.63051 8.62971 3.592H10.3122H11.9948C11.9948 3.14749 11.8913 2.56812 11.5081 2.05496C11.0775 1.47837 10.4135 1.15346 9.68225 1.15346V2.836ZM10.3122 3.592H8.62971C8.62971 3.55349 8.63518 3.35212 8.81192 3.11546C8.90728 2.98777 9.04374 2.86467 9.21965 2.77792C9.395 2.69146 9.55999 2.66546 9.68225 2.66546V4.348V6.03054C10.4135 6.03054 11.0775 5.70563 11.5081 5.12904C11.8913 4.61588 11.9948 4.03651 11.9948 3.592H10.3122ZM13.7982 5.538V7.22054H15.1142V5.538V3.85546H13.7982V5.538ZM15.1142 5.538V7.22054C15.0036 7.22054 14.8446 7.19779 14.671 7.1138C14.4955 7.02889 14.3565 6.90608 14.2582 6.77502C14.0765 6.53268 14.0757 6.32879 14.0757 6.308H15.7582H17.4408C17.4408 5.86721 17.342 5.27832 16.9503 4.75598C16.5082 4.16658 15.8348 3.85546 15.1142 3.85546V5.538ZM15.7582 6.308H14.0757C14.0757 6.30422 14.0721 6.10446 14.2522 5.86126C14.3502 5.72896 14.4901 5.60403 14.6677 5.51758C14.8432 5.43219 15.0037 5.40946 15.1142 5.40946V7.092V8.77454C15.8363 8.77454 16.5136 8.46183 16.9563 7.86424C17.3464 7.33754 17.4408 6.74578 17.4408 6.308H15.7582ZM15.1142 7.092V5.40946H13.7982V7.092V8.77454H15.1142V7.092ZM13.7982 7.092H12.1157V10.83H13.7982H15.4808V7.092H13.7982ZM13.7982 10.83H12.1157C12.1157 10.7186 12.1407 10.5684 12.2204 10.4101C12.2995 10.2528 12.409 10.1347 12.5162 10.0545C12.7132 9.90736 12.8722 9.90346 12.9022 9.90346V11.586V13.2685C13.3943 13.2685 14.0013 13.1456 14.5308 12.75C15.1182 12.311 15.4808 11.6244 15.4808 10.83H13.7982ZM12.9022 11.586V9.90346C12.9323 9.90346 13.0913 9.90736 13.2883 10.0545C13.3955 10.1347 13.505 10.2528 13.5841 10.4101C13.6638 10.5684 13.6888 10.7186 13.6888 10.83H12.0062H10.3237C10.3237 11.6244 10.6863 12.311 11.2737 12.75C11.8032 13.1456 12.4102 13.2685 12.9022 13.2685V11.586ZM12.0062 10.83H13.6888V2.794H12.0062H10.3237V10.83H12.0062ZM12.0062 2.794H13.6888C13.6888 2.90535 13.6638 3.05556 13.5841 3.21394C13.505 3.37116 13.3955 3.4893 13.2883 3.56948C13.0913 3.71664 12.9323 3.72054 12.9022 3.72054V2.038V0.35546C12.4102 0.35546 11.8032 0.478357 11.2737 0.874017C10.6863 1.31303 10.3237 1.99962 10.3237 2.794H12.0062ZM12.9022 2.038V3.72054C12.8722 3.72054 12.7132 3.71664 12.5162 3.56948C12.409 3.4893 12.2995 3.37116 12.2204 3.21394C12.1407 3.05556 12.1157 2.90535 12.1157 2.794H13.7982H15.4808C15.4808 1.99962 15.1182 1.31303 14.5308 0.874017C14.0013 0.478357 13.3943 0.35546 12.9022 0.35546V2.038ZM13.7982 2.794H12.1157V5.538H13.7982H15.4808V2.794H13.7982ZM13.4762 14.918V13.2355H6.70025V14.918V16.6005H13.4762V14.918ZM6.70025 14.918V13.2355C6.54968 13.2355 6.52142 13.2221 6.56074 13.2323C6.61537 13.2466 6.77741 13.3013 6.94179 13.4611C7.10847 13.623 7.17231 13.7905 7.19185 13.8612C7.20631 13.9134 7.19279 13.8976 7.19279 13.756H5.51025H3.82771C3.82771 14.2871 3.89354 15.1912 4.59671 15.8744C5.28584 16.5441 6.1802 16.6005 6.70025 16.6005V14.918ZM5.51025 13.756H7.19279V11.11H5.51025H3.82771V13.756H5.51025ZM5.51025 11.11H7.19279C7.19279 11.2213 7.16785 11.3727 7.08694 11.5327C7.00654 11.6917 6.89544 11.8105 6.78723 11.8905C6.58923 12.037 6.43413 12.0365 6.42025 12.0365V10.354V8.67146C5.93037 8.67146 5.32027 8.79004 4.78627 9.18498C4.19178 9.62465 3.82771 10.3143 3.82771 11.11H5.51025ZM6.42025 10.354V12.0365C6.39023 12.0365 6.23115 12.0326 6.03425 11.8855C5.92696 11.8053 5.81754 11.6872 5.73839 11.5299C5.65865 11.3716 5.63371 11.2214 5.63371 11.11H7.31625H8.99879C8.99879 10.3156 8.63616 9.62903 8.04875 9.19002C7.51935 8.79436 6.91226 8.67146 6.42025 8.67146V10.354ZM7.31625 11.11H5.63371V13.07H7.31625H8.99879V11.11H7.31625ZM7.31625 13.07H5.63371C5.63371 13.3046 5.65709 13.9688 6.19826 14.51C6.73944 15.0512 7.40367 15.0745 7.63825 15.0745V13.392V11.7095C7.66519 11.7095 7.78221 11.7103 7.94183 11.7551C8.11697 11.8042 8.35808 11.9109 8.57773 12.1305C8.79739 12.3502 8.90403 12.5913 8.95314 12.7664C8.9979 12.926 8.99879 13.0431 8.99879 13.07H7.31625ZM7.63825 13.392V15.0745H13.4762V13.392V11.7095H7.63825V13.392ZM13.4762 13.392V15.0745C13.3541 15.0745 13.1876 15.0486 13.0103 14.9606C12.8322 14.8723 12.695 14.7471 12.5999 14.6182C12.4245 14.3804 12.4237 14.1831 12.4237 14.162H14.1062H15.7888C15.7888 13.7209 15.69 13.1386 15.3081 12.6208C14.8768 12.0361 14.209 11.7095 13.4762 11.7095V13.392ZM14.1062 14.162H12.4237C12.4237 14.1235 12.4292 13.9221 12.6059 13.6855C12.7013 13.5578 12.8377 13.4347 13.0137 13.3479C13.189 13.2615 13.354 13.2355 13.4762 13.2355V14.918V16.6005C14.2075 16.6005 14.8715 16.2756 15.3021 15.699C15.6853 15.1859 15.7888 14.6065 15.7888 14.162H14.1062ZM21.1924 8.884V10.5665H22.875V8.884H21.1924ZM21.1924 8.002H22.875V6.31946H21.1924V8.002ZM19.4144 4.53H17.7319V6.21254H19.4144V4.53ZM19.4144 5.874V4.19146H17.7319V5.874H19.4144ZM22.9564 8.002V6.31946H21.2739V8.002H22.9564ZM22.9564 8.884H21.2739V10.5665H22.9564V8.884ZM27.3804 10.326V8.64346H16.7684V10.326V12.0085H27.3804V10.326ZM16.7684 10.326V8.64346C16.8815 8.64346 17.0401 8.66611 17.2129 8.74763C17.3879 8.8302 17.5304 8.95112 17.6339 9.08496C17.8285 9.33662 17.835 9.55787 17.835 9.598H16.1524H14.4699C14.4699 10.0441 14.5743 10.6294 14.972 11.1435C15.4154 11.7169 16.0768 12.0085 16.7684 12.0085V10.326ZM16.1524 9.598H17.835C17.835 9.65651 17.8232 9.88186 17.6272 10.1319C17.5235 10.2642 17.382 10.3829 17.2093 10.4638C17.0386 10.5439 16.8816 10.5665 16.7684 10.5665V8.884V7.20146C16.0782 7.20146 15.4211 7.49155 14.9787 8.05607C14.5797 8.56514 14.4699 9.14749 14.4699 9.598H16.1524ZM16.7684 8.884V10.5665H21.1924V8.884V7.20146H16.7684V8.884ZM21.1924 8.884H22.875V8.002H21.1924H19.5099V8.884H21.1924ZM21.1924 8.002V6.31946H18.8824V8.002V9.68454H21.1924V8.002ZM18.8824 8.002V6.31946C18.7319 6.31946 18.7036 6.30609 18.7429 6.31634C18.7976 6.33058 18.9596 6.38534 19.124 6.54506C19.2907 6.70703 19.3545 6.87451 19.374 6.94516C19.3885 6.99743 19.375 6.98155 19.375 6.84H17.6924H16.0099C16.0099 7.37108 16.0757 8.27517 16.7789 8.95844C17.468 9.62806 18.3624 9.68454 18.8824 9.68454V8.002ZM17.6924 6.84H19.375V3.578H17.6924H16.0099V6.84H17.6924ZM17.6924 3.578H19.375C19.375 3.43645 19.3885 3.42056 19.374 3.47284C19.3545 3.54349 19.2907 3.71097 19.124 3.87294C18.9596 4.03266 18.7976 4.08742 18.7429 4.10166C18.7036 4.11191 18.7319 4.09854 18.8824 4.09854V2.416V0.73346C18.3624 0.73346 17.468 0.789939 16.7789 1.45956C16.0757 2.14283 16.0099 3.04692 16.0099 3.578H17.6924ZM18.8824 2.416V4.09854H25.8404V2.416V0.73346H18.8824V2.416ZM25.8404 2.416V4.09854C25.703 4.09854 25.5265 4.06883 25.343 3.97713C25.1597 3.88545 25.0193 3.75667 24.9218 3.62486C24.7406 3.37997 24.7319 3.1681 24.7319 3.116H26.4144H28.097C28.097 2.6859 27.9973 2.12403 27.6271 1.62364C27.2104 1.06033 26.5616 0.73346 25.8404 0.73346V2.416ZM26.4144 3.116H24.7319C24.7319 3.0639 24.7406 2.85203 24.9218 2.60714C25.0193 2.47533 25.1597 2.34655 25.343 2.25487C25.5265 2.16317 25.703 2.13346 25.8404 2.13346V3.816V5.49854C26.5616 5.49854 27.2104 5.17167 27.6271 4.60836C27.9973 4.10797 28.097 3.5461 28.097 3.116H26.4144ZM25.8404 3.816V2.13346H19.6244V3.816V5.49854H25.8404V3.816ZM19.6244 3.816V2.13346C19.2951 2.13346 18.739 2.21694 18.2772 2.67876C17.8154 3.14059 17.7319 3.69664 17.7319 4.026H19.4144H21.097C21.097 4.21535 21.0485 4.66641 20.6567 5.05823C20.2648 5.45006 19.8138 5.49854 19.6244 5.49854V3.816ZM19.4144 4.026H17.7319V4.53H19.4144H21.097V4.026H19.4144ZM19.4144 4.53V6.21254H25.7144V4.53V2.84746H19.4144V4.53ZM25.7144 4.53V6.21254C25.5756 6.21254 25.4002 6.18287 25.2184 6.0934C25.0366 6.00392 24.895 5.87746 24.7948 5.74515C24.6067 5.4967 24.5919 5.27403 24.5919 5.202H26.2744H27.957C27.957 4.76597 27.8512 4.2073 27.4776 3.71385C27.0608 3.16338 26.4203 2.84746 25.7144 2.84746V4.53ZM26.2744 5.202H24.5919C24.5919 5.12997 24.6067 4.9073 24.7948 4.65885C24.895 4.52654 25.0366 4.40008 25.2184 4.31061C25.4002 4.22113 25.5756 4.19146 25.7144 4.19146V5.874V7.55654C26.4203 7.55654 27.0608 7.24062 27.4776 6.69015C27.8512 6.1967 27.957 5.63803 27.957 5.202H26.2744ZM25.7144 5.874V4.19146H19.4144V5.874V7.55654H25.7144V5.874ZM19.4144 5.874H17.7319V6.392H19.4144H21.097V5.874H19.4144ZM19.4144 6.392H17.7319C17.7319 6.72135 17.8154 7.27741 18.2772 7.73923C18.739 8.20106 19.2951 8.28454 19.6244 8.28454V6.602V4.91946C19.8138 4.91946 20.2648 4.96794 20.6567 5.35977C21.0485 5.75159 21.097 6.20265 21.097 6.392H19.4144ZM19.6244 6.602V8.28454H26.0504V6.602V4.91946H19.6244V6.602ZM26.0504 6.602V8.28454C25.913 8.28454 25.7365 8.25483 25.553 8.16313C25.3697 8.07145 25.2293 7.94267 25.1318 7.81086C24.9506 7.56597 24.9419 7.3541 24.9419 7.302H26.6244H28.307C28.307 6.8719 28.2073 6.31003 27.8371 5.80964C27.4204 5.24633 26.7716 4.91946 26.0504 4.91946V6.602ZM26.6244 7.302H24.9419C24.9419 7.2499 24.9506 7.03803 25.1318 6.79314C25.2293 6.66133 25.3697 6.53255 25.553 6.44087C25.7365 6.34917 25.913 6.31946 26.0504 6.31946V8.002V9.68454C26.7716 9.68454 27.4204 9.35767 27.8371 8.79436C28.2073 8.29397 28.307 7.7321 28.307 7.302H26.6244ZM26.0504 8.002V6.31946H22.9564V8.002V9.68454H26.0504V8.002ZM22.9564 8.002H21.2739V8.884H22.9564H24.639V8.002H22.9564ZM22.9564 8.884V10.5665H27.3804V8.884V7.20146H22.9564V8.884ZM27.3804 8.884V10.5665C27.2673 10.5665 27.1103 10.5439 26.9395 10.4638C26.7669 10.3829 26.6254 10.2642 26.5217 10.1319C26.3257 9.88186 26.3139 9.65651 26.3139 9.598H27.9964H29.679C29.679 9.14749 29.5692 8.56514 29.1702 8.05607C28.7277 7.49155 28.0707 7.20146 27.3804 7.20146V8.884ZM27.9964 9.598H26.3139C26.3139 9.55787 26.3203 9.33662 26.515 9.08496C26.6185 8.95112 26.761 8.8302 26.936 8.74763C27.1088 8.66611 27.2674 8.64346 27.3804 8.64346V10.326V12.0085C28.072 12.0085 28.7335 11.7169 29.1769 11.1435C29.5745 10.6294 29.679 10.0441 29.679 9.598H27.9964ZM26.4844 12.188H24.8019V14.498H26.4844H28.167V12.188H26.4844ZM26.4844 14.498H24.8019C24.8019 14.3866 24.8268 14.2376 24.9054 14.0808C24.9833 13.9254 25.091 13.8079 25.1973 13.7277C25.3929 13.58 25.5559 13.5715 25.6024 13.5715V15.254V16.9365C26.0969 16.9365 26.701 16.809 27.2255 16.4128C27.8058 15.9746 28.167 15.2911 28.167 14.498H26.4844ZM25.6024 15.254V13.5715C25.6325 13.5715 25.7915 13.5754 25.9884 13.7225C26.0957 13.8027 26.2051 13.9208 26.2843 14.0781C26.364 14.2364 26.389 14.3867 26.389 14.498H24.7064H23.0239C23.0239 15.2924 23.3865 15.979 23.9739 16.418C24.5033 16.8136 25.1104 16.9365 25.6024 16.9365V15.254ZM24.7064 14.498H26.389V12.804H24.7064H23.0239V14.498H24.7064ZM24.7064 12.804H26.389C26.389 12.5694 26.3656 11.9052 25.8244 11.364C25.2832 10.8228 24.619 10.7995 24.3844 10.7995V12.482V14.1645C24.3575 14.1645 24.2405 14.1637 24.0809 14.1189C23.9057 14.0698 23.6646 13.9631 23.445 13.7435C23.2253 13.5238 23.1187 13.2827 23.0695 13.1076C23.0248 12.948 23.0239 12.8309 23.0239 12.804H24.7064ZM24.3844 12.482V10.7995H18.1124V12.482V14.1645H24.3844V12.482ZM18.1124 12.482V10.7995C18.2254 10.7995 18.3855 10.8221 18.5604 10.9051C18.7378 10.9893 18.8812 11.1124 18.9845 11.2477C19.1775 11.5006 19.179 11.7177 19.179 11.74H17.4964H15.8139C15.8139 12.1823 15.9134 12.7704 16.3094 13.2893C16.7536 13.8713 17.4194 14.1645 18.1124 14.1645V12.482ZM17.4964 11.74H19.179C19.179 11.7985 19.1672 12.0239 18.9712 12.2739C18.8675 12.4062 18.726 12.5249 18.5533 12.6058C18.3826 12.6859 18.2256 12.7085 18.1124 12.7085V11.026V9.34346C17.4222 9.34346 16.7651 9.63355 16.3227 10.1981C15.9237 10.7071 15.8139 11.2895 15.8139 11.74H17.4964ZM18.1124 11.026V12.7085H25.2944V11.026V9.34346H18.1124V11.026ZM25.2944 11.026V12.7085C25.445 12.7085 25.4733 12.7219 25.4339 12.7117C25.3793 12.6974 25.2173 12.6427 25.0529 12.4829C24.8862 12.321 24.8224 12.1535 24.8028 12.0828C24.7884 12.0306 24.8019 12.0464 24.8019 12.188H26.4844H28.167C28.167 11.6569 28.1011 10.7528 27.398 10.0696C26.7088 9.39994 25.8145 9.34346 25.2944 9.34346V11.026ZM30.7986 4.67H29.1161V6.35254H30.7986V4.67ZM33.4586 4.67V6.35254H35.1412V4.67H33.4586ZM33.4586 6.126H35.1412V4.44346H33.4586V6.126ZM30.7986 6.126V4.44346H29.1161V6.126H30.7986ZM38.7506 5.09H37.0681V6.77254H38.7506V5.09ZM38.7506 6.644V4.96146H37.0681V6.644H38.7506ZM30.7986 3.354H29.1161V4.67H30.7986H32.4812V3.354H30.7986ZM30.7986 4.67V6.35254H33.4586V4.67V2.98746H30.7986V4.67ZM33.4586 4.67H35.1412V3.354H33.4586H31.7761V4.67H33.4586ZM33.4586 3.354H35.1412C35.1412 3.47623 35.113 3.63209 35.0312 3.79192C34.9506 3.94954 34.841 4.06566 34.7365 4.14347C34.5449 4.2862 34.3871 4.29454 34.3406 4.29454V2.612V0.92946C33.8461 0.92946 33.2474 1.0568 32.7267 1.44453C32.1513 1.873 31.7761 2.55136 31.7761 3.354H33.4586ZM34.3406 2.612V4.29454C34.2942 4.29454 34.1364 4.2862 33.9447 4.14347C33.8402 4.06566 33.7307 3.94954 33.65 3.79192C33.5682 3.63208 33.5401 3.47623 33.5401 3.354H35.2226H36.9052C36.9052 2.55136 36.5299 1.873 35.9545 1.44453C35.4339 1.0568 34.8351 0.92946 34.3406 0.92946V2.612ZM35.2226 3.354H33.5401V7.806H35.2226H36.9052V3.354H35.2226ZM35.2226 7.806H33.5401C33.5401 7.94755 33.5266 7.96343 33.541 7.91116C33.5606 7.84051 33.6244 7.67303 33.7911 7.51106C33.9555 7.35134 34.1175 7.29658 34.1721 7.28234C34.2115 7.27209 34.1832 7.28546 34.0326 7.28546V8.968V10.6505C34.5527 10.6505 35.447 10.5941 36.1362 9.92444C36.8393 9.24117 36.9052 8.33708 36.9052 7.806H35.2226ZM34.0326 8.968V7.28546H30.2246V8.968V10.6505H34.0326V8.968ZM30.2246 8.968V7.28546C30.0741 7.28546 30.0458 7.27209 30.0851 7.28234C30.1397 7.29658 30.3018 7.35134 30.4662 7.51106C30.6328 7.67303 30.6967 7.84051 30.7162 7.91116C30.7307 7.96343 30.7172 7.94755 30.7172 7.806H29.0346H27.3521C27.3521 8.33708 27.4179 9.24117 28.1211 9.92444C28.8102 10.5941 29.7046 10.6505 30.2246 10.6505V8.968ZM29.0346 7.806H30.7172V3.354H29.0346H27.3521V7.806H29.0346ZM29.0346 3.354H30.7172C30.7172 3.47623 30.689 3.63208 30.6072 3.79192C30.5266 3.94954 30.417 4.06566 30.3125 4.14347C30.1209 4.2862 29.9631 4.29454 29.9166 4.29454V2.612V0.92946C29.4221 0.92946 28.8234 1.0568 28.3027 1.44453C27.7273 1.873 27.3521 2.55136 27.3521 3.354H29.0346ZM29.9166 2.612V4.29454C29.8701 4.29454 29.7124 4.2862 29.5207 4.14347C29.4162 4.06566 29.3067 3.94954 29.226 3.79192C29.1442 3.63208 29.1161 3.47623 29.1161 3.354H30.7986H32.4812C32.4812 2.55136 32.1059 1.873 31.5305 1.44453C31.0099 1.0568 30.4111 0.92946 29.9166 0.92946V2.612ZM31.1206 7.512V9.19454H33.1366V7.512V5.82946H31.1206V7.512ZM33.1366 7.512V9.19454C33.3712 9.19454 34.0354 9.17116 34.5766 8.62998C35.1178 8.08881 35.1412 7.42457 35.1412 7.19H33.4586H31.7761C31.7761 7.16306 31.777 7.04604 31.8217 6.88642C31.8708 6.71128 31.9775 6.47017 32.1971 6.25051C32.4168 6.03086 32.6579 5.92422 32.833 5.87511C32.9927 5.83035 33.1097 5.82946 33.1366 5.82946V7.512ZM33.4586 7.19H35.1412V6.126H33.4586H31.7761V7.19H33.4586ZM33.4586 6.126V4.44346H30.7986V6.126V7.80854H33.4586V6.126ZM30.7986 6.126H29.1161V7.19H30.7986H32.4812V6.126H30.7986ZM30.7986 7.19H29.1161C29.1161 7.42458 29.1395 8.08881 29.6806 8.62998C30.2218 9.17116 30.886 9.19454 31.1206 9.19454V7.512V5.82946C31.1476 5.82946 31.2646 5.83035 31.4242 5.87511C31.5993 5.92422 31.8405 6.03086 32.0601 6.25051C32.2798 6.47017 32.3864 6.71127 32.4355 6.88642C32.4803 7.04603 32.4812 7.16306 32.4812 7.19H30.7986ZM38.7506 5.09V6.77254H40.0666V5.09V3.40746H38.7506V5.09ZM40.0666 5.09V6.77254C39.9559 6.77254 39.797 6.74979 39.6234 6.6658C39.4479 6.58089 39.3089 6.45808 39.2106 6.32702C39.0288 6.08468 39.0281 5.88079 39.0281 5.86H40.7106H42.3932C42.3932 5.41921 42.2944 4.83032 41.9027 4.30798C41.4606 3.71858 40.7872 3.40746 40.0666 3.40746V5.09ZM40.7106 5.86H39.0281C39.0281 5.85622 39.0245 5.65646 39.2046 5.41326C39.3026 5.28096 39.4424 5.15603 39.6201 5.06958C39.7956 4.98419 39.956 4.96146 40.0666 4.96146V6.644V8.32654C40.7886 8.32654 41.466 8.01383 41.9086 7.41624C42.2988 6.88954 42.3932 6.29778 42.3932 5.86H40.7106ZM40.0666 6.644V4.96146H38.7506V6.644V8.32654H40.0666V6.644ZM38.7506 6.644H37.0681V9.08H38.7506H40.4332V6.644H38.7506ZM38.7506 9.08H37.0681C37.0681 8.96865 37.093 8.81843 37.1728 8.66006C37.2519 8.50284 37.3613 8.3847 37.4686 8.30452C37.6655 8.15736 37.8246 8.15346 37.8546 8.15346V9.836V11.5185C38.3466 11.5185 38.9537 11.3956 39.4831 11C40.0705 10.561 40.4332 9.87438 40.4332 9.08H38.7506ZM37.8546 9.836V8.15346C37.8846 8.15346 38.0437 8.15736 38.2406 8.30452C38.3479 8.3847 38.4573 8.50284 38.5365 8.66006C38.6162 8.81843 38.6412 8.96865 38.6412 9.08H36.9586H35.2761C35.2761 9.87438 35.6387 10.561 36.2261 11C36.7555 11.3956 37.3626 11.5185 37.8546 11.5185V9.836ZM36.9586 9.08H38.6412V2.794H36.9586H35.2761V9.08H36.9586ZM36.9586 2.794H38.6412C38.6412 2.90535 38.6162 3.05556 38.5365 3.21394C38.4573 3.37116 38.3479 3.4893 38.2406 3.56948C38.0437 3.71664 37.8846 3.72054 37.8546 3.72054V2.038V0.35546C37.3626 0.35546 36.7555 0.478357 36.2261 0.874017C35.6387 1.31303 35.2761 1.99962 35.2761 2.794H36.9586ZM37.8546 2.038V3.72054C37.8246 3.72054 37.6655 3.71664 37.4686 3.56948C37.3613 3.4893 37.2519 3.37116 37.1728 3.21394C37.093 3.05556 37.0681 2.90535 37.0681 2.794H38.7506H40.4332C40.4332 1.99962 40.0705 1.31303 39.4831 0.874017C38.9537 0.478357 38.3466 0.35546 37.8546 0.35546V2.038ZM38.7506 2.794H37.0681V5.09H38.7506H40.4332V2.794H38.7506ZM30.5326 12.594H32.2152C32.2152 12.3956 32.256 12.2921 32.2865 12.2373C32.3172 12.1821 32.3783 12.1025 32.524 12.0114C32.853 11.8055 33.5216 11.6025 34.6626 11.6025V9.92V8.23746C33.2277 8.23746 31.8312 8.47546 30.7392 9.1586C29.5398 9.90898 28.8501 11.115 28.8501 12.594H30.5326ZM34.6626 9.92V11.6025C35.8037 11.6025 36.4722 11.8055 36.8012 12.0114C36.9469 12.1025 37.0081 12.1821 37.0388 12.2373C37.0692 12.2921 37.1101 12.3956 37.1101 12.594H38.7926H40.4752C40.4752 11.115 39.7854 9.90898 38.586 9.1586C37.494 8.47546 36.0976 8.23746 34.6626 8.23746V9.92ZM38.7926 12.594H37.1101C37.1101 12.7924 37.0692 12.8959 37.0388 12.9507C37.0081 13.0059 36.9469 13.0855 36.8012 13.1766C36.4722 13.3825 35.8037 13.5855 34.6626 13.5855V15.268V16.9505C36.0976 16.9505 37.494 16.7125 38.586 16.0294C39.7854 15.279 40.4752 14.073 40.4752 12.594H38.7926ZM34.6626 15.268V13.5855C33.5216 13.5855 32.853 13.3825 32.524 13.1766C32.3783 13.0855 32.3172 13.0059 32.2865 12.9507C32.256 12.8959 32.2152 12.7924 32.2152 12.594H30.5326H28.8501C28.8501 14.073 29.5398 15.279 30.7392 16.0294C31.8312 16.7125 33.2277 16.9505 34.6626 16.9505V15.268ZM32.3106 12.594H30.6281C30.6281 13.5637 31.1071 14.428 31.9975 14.9481C32.7532 15.3895 33.6969 15.5225 34.6626 15.5225V13.84V12.1575C34.3135 12.1575 34.0656 12.1313 33.8978 12.0985C33.7274 12.0651 33.6771 12.0321 33.6948 12.0424C33.7225 12.0586 33.817 12.1245 33.897 12.2638C33.977 12.4031 33.9932 12.5299 33.9932 12.594H32.3106ZM34.6626 13.84V15.5225C35.6284 15.5225 36.5721 15.3895 37.3278 14.9481C38.2181 14.428 38.6972 13.5637 38.6972 12.594H37.0146H35.3321C35.3321 12.5299 35.3483 12.4031 35.4283 12.2638C35.5083 12.1245 35.6027 12.0586 35.6305 12.0424C35.6482 12.0321 35.5979 12.0651 35.4274 12.0985C35.2597 12.1313 35.0117 12.1575 34.6626 12.1575V13.84ZM37.0146 12.594H38.6972C38.6972 11.6243 38.2181 10.76 37.3278 10.2399C36.5721 9.79849 35.6284 9.66546 34.6626 9.66546V11.348V13.0305C35.0117 13.0305 35.2597 13.0567 35.4274 13.0895C35.5979 13.1229 35.6482 13.1559 35.6305 13.1456C35.6027 13.1294 35.5083 13.0635 35.4283 12.9242C35.3483 12.7849 35.3321 12.6581 35.3321 12.594H37.0146ZM34.6626 11.348V9.66546C33.6969 9.66546 32.7532 9.79849 31.9975 10.2399C31.1071 10.76 30.6281 11.6243 30.6281 12.594H32.3106H33.9932C33.9932 12.6581 33.977 12.7849 33.897 12.9242C33.817 13.0635 33.7225 13.1294 33.6948 13.1456C33.6771 13.1559 33.7274 13.1229 33.8978 13.0895C34.0656 13.0567 34.3135 13.0305 34.6626 13.0305V11.348ZM49.3508 3.116V4.79854H51.0334V3.116H49.3508ZM51.1708 3.116H49.4883V4.79854H51.1708V3.116ZM51.1708 4.586V2.90346H49.4883V4.586H51.1708ZM52.3188 5.566L52.8434 3.9673L52.8346 3.96446L52.3188 5.566ZM54.7128 6.294L55.1908 4.68078L55.1792 4.67734L55.1675 4.67407L54.7128 6.294ZM55.0908 7.204L53.489 6.68913L55.0908 7.204ZM54.1388 7.666L54.5944 6.0463L54.5865 6.0441L54.5787 6.04197L54.1388 7.666ZM51.9128 6.994L52.4361 5.39492L52.4333 5.39399L51.9128 6.994ZM50.2748 6.014L51.8845 5.52411L51.5215 4.33146H50.2748V6.014ZM50.2608 6.014V4.33146H49.0045L48.6476 5.53601L50.2608 6.014ZM48.6088 7.036L48.0883 5.43599L48.0855 5.43692L48.6088 7.036ZM46.3828 7.708L45.943 6.08397L45.9351 6.0861L45.9273 6.0883L46.3828 7.708ZM45.4308 7.232L43.8239 7.7307L43.8316 7.75572L43.8402 7.78049L45.4308 7.232ZM45.8088 6.294L45.3541 4.67405L45.3466 4.6762L45.8088 6.294ZM48.2028 5.566L47.6871 3.96443L47.6782 3.96732L48.2028 5.566ZM49.3508 4.586H51.0334V2.90346H49.3508V4.586ZM49.3788 8.38V10.0625H51.0614V8.38H49.3788ZM51.1428 8.38H49.4603V10.0625H51.1428V8.38ZM46.2568 3.116V4.79854H49.3508V3.116V1.43346H46.2568V3.116ZM49.3508 3.116H51.0334V2.556H49.3508H47.6683V3.116H49.3508ZM49.3508 2.556H51.0334C51.0334 2.66724 51.0085 2.81422 50.9317 2.96824C50.8554 3.12102 50.75 3.23675 50.6457 3.31605C50.4526 3.46294 50.2944 3.46854 50.2608 3.46854V1.786V0.103459C49.7512 0.103459 49.138 0.235063 48.6089 0.637444C48.0273 1.07971 47.6683 1.76532 47.6683 2.556H49.3508ZM50.2608 1.786V3.46854C50.2272 3.46854 50.069 3.46294 49.8759 3.31605C49.7716 3.23675 49.6662 3.12102 49.59 2.96824C49.5131 2.81422 49.4883 2.66724 49.4883 2.556H51.1708H52.8534C52.8534 1.76532 52.4944 1.07971 51.9127 0.637444C51.3836 0.235063 50.7704 0.103459 50.2608 0.103459V1.786ZM51.1708 2.556H49.4883V3.116H51.1708H52.8534V2.556H51.1708ZM51.1708 3.116V4.79854H54.2648V3.116V1.43346H51.1708V3.116ZM54.2648 3.116V4.79854C54.1411 4.79854 53.9769 4.77253 53.8029 4.68799C53.6284 4.60316 53.4907 4.48206 53.3928 4.35375C53.2094 4.11344 53.1983 3.90155 53.1983 3.844H54.8808H56.5634C56.5634 3.39445 56.4542 2.81856 56.0678 2.31225C55.6372 1.748 54.9814 1.43346 54.2648 1.43346V3.116ZM54.8808 3.844H53.1983C53.1983 3.8045 53.2042 3.59674 53.3864 3.35494C53.4841 3.22522 53.6226 3.1019 53.7995 3.01548C53.9755 2.92946 54.1412 2.90346 54.2648 2.90346V4.586V6.26854C54.9828 6.26854 55.6428 5.95232 56.0742 5.37956C56.4594 4.86826 56.5634 4.2895 56.5634 3.844H54.8808ZM54.2648 4.586V2.90346H51.1708V4.586V6.26854H54.2648V4.586ZM51.1708 4.586H49.4883V4.684H51.1708H52.8534V4.586H51.1708ZM51.1708 4.684H49.4883C49.4883 5.49355 49.909 6.09953 50.3995 6.48257C50.8204 6.81127 51.335 7.01681 51.8031 7.16754L52.3188 5.566L52.8346 3.96446C52.672 3.91211 52.5649 3.86941 52.4984 3.83858C52.4291 3.80647 52.4317 3.79999 52.4707 3.83043C52.5125 3.86308 52.6165 3.95435 52.7081 4.1209C52.8066 4.29988 52.8534 4.49807 52.8534 4.684H51.1708ZM52.3188 5.566L51.7942 7.16468C52.7155 7.46695 53.4389 7.68397 54.2581 7.91393L54.7128 6.294L55.1675 4.67407C54.3908 4.45603 53.7142 4.25305 52.8434 3.96732L52.3188 5.566ZM54.7128 6.294L54.2348 7.90722C53.8889 7.80473 53.6311 7.5371 53.5196 7.24576C53.4231 6.99396 53.4554 6.79357 53.489 6.68913L55.0908 7.204L56.6926 7.71887C56.8522 7.22242 56.8845 6.62304 56.6621 6.04224C56.4245 5.4219 55.9147 4.89527 55.1908 4.68078L54.7128 6.294ZM55.0908 7.204L53.489 6.68913C53.5562 6.48008 53.7222 6.25341 53.9895 6.12118C54.2487 5.99294 54.478 6.01357 54.5944 6.0463L54.1388 7.666L53.6833 9.2857C54.2477 9.44443 54.89 9.43006 55.4817 9.13732C56.0814 8.84059 56.4994 8.31992 56.6926 7.71887L55.0908 7.204ZM54.1388 7.666L54.5787 6.04197C53.9412 5.86932 53.1858 5.64026 52.4361 5.39492L51.9128 6.994L51.3895 8.59308C52.1798 8.85174 52.9924 9.09867 53.699 9.29003L54.1388 7.666ZM51.9128 6.994L52.4333 5.39399C52.1729 5.30927 51.9782 5.23704 51.8338 5.17619C51.6872 5.1144 51.6139 5.0733 51.5866 5.05621C51.5592 5.03913 51.6076 5.06443 51.678 5.14541C51.758 5.23736 51.8365 5.3667 51.8845 5.52411L50.2748 6.014L48.6652 6.50389C48.8722 7.18427 49.3433 7.62241 49.8031 7.90979C50.2325 8.17818 50.7745 8.39305 51.3923 8.59401L51.9128 6.994ZM50.2748 6.014V4.33146H50.2608V6.014V7.69654H50.2748V6.014ZM50.2608 6.014L48.6476 5.53601C48.6816 5.42112 48.7417 5.3053 48.8213 5.20886C48.8923 5.12284 48.9459 5.09239 48.9272 5.1043C48.9059 5.11779 48.8381 5.15667 48.6915 5.21804C48.5474 5.27841 48.3523 5.35011 48.0883 5.43599L48.6088 7.036L49.1293 8.63601C49.735 8.43897 50.2887 8.22568 50.73 7.9457C51.2343 7.6257 51.6747 7.16478 51.874 6.49199L50.2608 6.014ZM48.6088 7.036L48.0855 5.43692C47.3358 5.68226 46.5804 5.91132 45.943 6.08397L46.3828 7.708L46.8227 9.33203C47.5292 9.14067 48.3418 8.89374 49.1321 8.63508L48.6088 7.036ZM46.3828 7.708L45.9273 6.0883C46.0422 6.05599 46.2847 6.03224 46.5565 6.17102C46.8301 6.31075 46.9692 6.53187 47.0214 6.68351L45.4308 7.232L43.8402 7.78049C44.0325 8.33813 44.4235 8.86024 45.0261 9.16798C45.6269 9.47476 46.2755 9.48601 46.8384 9.3277L46.3828 7.708ZM45.4308 7.232L47.0377 6.7333C47.0584 6.79976 47.097 6.97766 47.0082 7.22381C46.9608 7.35518 46.8755 7.50583 46.7354 7.64107C46.5924 7.77912 46.4274 7.86714 46.271 7.9118L45.8088 6.294L45.3466 4.6762C44.5912 4.89202 44.0733 5.44301 43.8429 6.08169C43.6316 6.66734 43.6772 7.25824 43.8239 7.7307L45.4308 7.232ZM45.8088 6.294L46.2635 7.91393C47.0828 7.68397 47.8062 7.46695 48.7274 7.16468L48.2028 5.566L47.6782 3.96732C46.8074 4.25305 46.1309 4.45603 45.3541 4.67407L45.8088 6.294ZM48.2028 5.566L48.7186 7.16754C49.1866 7.01681 49.7013 6.81127 50.1222 6.48257C50.6126 6.09953 51.0334 5.49355 51.0334 4.684H49.3508H47.6683C47.6683 4.49807 47.715 4.29988 47.8135 4.1209C47.9051 3.95435 48.0092 3.86308 48.051 3.83043C48.0899 3.79999 48.0926 3.80647 48.0233 3.83858C47.9567 3.86941 47.8496 3.91211 47.6871 3.96446L48.2028 5.566ZM49.3508 4.684H51.0334V4.586H49.3508H47.6683V4.684H49.3508ZM49.3508 4.586V2.90346H46.2568V4.586V6.26854H49.3508V4.586ZM46.2568 4.586V2.90346C46.3805 2.90346 46.5461 2.92946 46.7221 3.01548C46.899 3.1019 47.0375 3.22522 47.1352 3.35494C47.3174 3.59674 47.3234 3.8045 47.3234 3.844H45.6408H43.9583C43.9583 4.2895 44.0622 4.86826 44.4474 5.37956C44.8788 5.95232 45.5388 6.26854 46.2568 6.26854V4.586ZM45.6408 3.844H47.3234C47.3234 3.90155 47.3122 4.11344 47.1288 4.35375C47.0309 4.48207 46.8933 4.60316 46.7187 4.68799C46.5447 4.77253 46.3806 4.79854 46.2568 4.79854V3.116V1.43346C45.5403 1.43346 44.8844 1.748 44.4538 2.31225C44.0674 2.81856 43.9583 3.39445 43.9583 3.844H45.6408ZM55.5668 9.864V8.18146H44.9548V9.864V11.5465H55.5668V9.864ZM44.9548 9.864V8.18146C45.0785 8.18146 45.2441 8.20746 45.4201 8.29348C45.597 8.3799 45.7355 8.50322 45.8332 8.63294C46.0154 8.87474 46.0214 9.0825 46.0214 9.122H44.3388H42.6563C42.6563 9.5675 42.7602 10.1463 43.1454 10.6576C43.5768 11.2303 44.2368 11.5465 44.9548 11.5465V9.864ZM44.3388 9.122H46.0214C46.0214 9.1615 46.0154 9.36926 45.8332 9.61106C45.7355 9.74078 45.597 9.8641 45.4201 9.95052C45.2441 10.0365 45.0785 10.0625 44.9548 10.0625V8.38V6.69746C44.2368 6.69746 43.5768 7.01368 43.1454 7.58644C42.7602 8.09774 42.6563 8.6765 42.6563 9.122H44.3388ZM44.9548 8.38V10.0625H49.3788V8.38V6.69746H44.9548V8.38ZM49.3788 8.38H51.0614V7.792H49.3788H47.6963V8.38H49.3788ZM49.3788 7.792H51.0614C51.0614 7.90343 51.0363 8.05695 50.9536 8.21976C50.8714 8.38153 50.7578 8.50208 50.6474 8.5831C50.4467 8.73043 50.2867 8.73254 50.2608 8.73254V7.05V5.36746C49.787 5.36746 49.1859 5.48157 48.6562 5.8704C48.0626 6.30611 47.6963 6.9939 47.6963 7.792H49.3788ZM50.2608 7.05V8.73254C50.235 8.73254 50.0749 8.73043 49.8742 8.5831C49.7638 8.50208 49.6502 8.38153 49.568 8.21976C49.4853 8.05695 49.4603 7.90343 49.4603 7.792H51.1428H52.8254C52.8254 6.9939 52.459 6.30611 51.8654 5.8704C51.3357 5.48157 50.7347 5.36746 50.2608 5.36746V7.05ZM51.1428 7.792H49.4603V8.38H51.1428H52.8254V7.792H51.1428ZM51.1428 8.38V10.0625H55.5668V8.38V6.69746H51.1428V8.38ZM55.5668 8.38V10.0625C55.4432 10.0625 55.2775 10.0365 55.1015 9.95052C54.9246 9.86409 54.7861 9.74078 54.6884 9.61106C54.5062 9.36926 54.5003 9.1615 54.5003 9.122H56.1828H57.8654C57.8654 8.6765 57.7614 8.09774 57.3762 7.58644C56.9448 7.01368 56.2849 6.69746 55.5668 6.69746V8.38ZM56.1828 9.122H54.5003C54.5003 9.0825 54.5062 8.87474 54.6884 8.63294C54.7861 8.50322 54.9246 8.3799 55.1015 8.29348C55.2775 8.20746 55.4432 8.18146 55.5668 8.18146V9.864V11.5465C56.2849 11.5465 56.9448 11.2303 57.3762 10.6576C57.7614 10.1463 57.8654 9.5675 57.8654 9.122H56.1828ZM45.8508 12.902H47.5334C47.5334 12.7671 47.5621 12.7298 47.565 12.7254C47.5736 12.7122 47.6228 12.642 47.8012 12.5495C48.2043 12.3405 48.985 12.1625 50.2608 12.1625V10.48V8.79746C48.7926 8.79746 47.3683 8.98349 46.2524 9.56202C45.6714 9.86325 45.1325 10.2927 44.743 10.8924C44.3477 11.5009 44.1683 12.1899 44.1683 12.902H45.8508ZM50.2608 10.48V12.1625C51.5366 12.1625 52.3173 12.3405 52.7204 12.5495C52.8989 12.642 52.948 12.7122 52.9566 12.7254C52.9595 12.7298 52.9883 12.7671 52.9883 12.902H54.6708H56.3534C56.3534 12.1899 56.1739 11.5009 55.7786 10.8924C55.3891 10.2927 54.8503 9.86325 54.2692 9.56202C53.1533 8.98349 51.729 8.79746 50.2608 8.79746V10.48ZM54.6708 12.902H52.9883C52.9883 13.0369 52.9595 13.0742 52.9566 13.0786C52.948 13.0918 52.8989 13.162 52.7204 13.2545C52.3173 13.4635 51.5366 13.6415 50.2608 13.6415V15.324V17.0065C51.729 17.0065 53.1533 16.8205 54.2692 16.242C54.8503 15.9407 55.3891 15.5113 55.7786 14.9116C56.1739 14.3031 56.3534 13.6141 56.3534 12.902H54.6708ZM50.2608 15.324V13.6415C48.985 13.6415 48.2043 13.4635 47.8012 13.2545C47.6228 13.162 47.5736 13.0918 47.565 13.0786C47.5621 13.0742 47.5334 13.0369 47.5334 12.902H45.8508H44.1683C44.1683 13.6141 44.3477 14.3031 44.743 14.9116C45.1325 15.5113 45.6714 15.9407 46.2524 16.242C47.3683 16.8205 48.7926 17.0065 50.2608 17.0065V15.324ZM52.8928 12.902H54.5754C54.5754 12.3836 54.413 11.862 54.057 11.4189C53.7232 11.0035 53.2968 10.7529 52.9119 10.597C52.1786 10.3001 51.2538 10.2115 50.2608 10.2115V11.894V13.5765C50.6796 13.5765 51.0016 13.5971 51.2433 13.629C51.491 13.6617 51.6115 13.7009 51.6488 13.716C51.6873 13.7316 51.5672 13.6928 51.4338 13.5267C51.2781 13.333 51.2103 13.0984 51.2103 12.902H52.8928ZM50.2608 11.894V10.2115C49.2679 10.2115 48.343 10.3001 47.6098 10.597C47.2248 10.7529 46.7985 11.0035 46.4647 11.4189C46.1086 11.862 45.9463 12.3836 45.9463 12.902H47.6288H49.3114C49.3114 13.0984 49.2435 13.333 49.0878 13.5267C48.9544 13.6928 48.8343 13.7316 48.8729 13.716C48.9101 13.7009 49.0306 13.6617 49.2784 13.629C49.52 13.5971 49.8421 13.5765 50.2608 13.5765V11.894ZM47.6288 12.902H45.9463C45.9463 13.4204 46.1086 13.942 46.4647 14.3851C46.7985 14.8005 47.2248 15.0511 47.6098 15.207C48.343 15.5039 49.2679 15.5925 50.2608 15.5925V13.91V12.2275C49.8421 12.2275 49.52 12.2069 49.2784 12.175C49.0306 12.1423 48.9101 12.1031 48.8729 12.088C48.8343 12.0724 48.9544 12.1112 49.0878 12.2773C49.2435 12.471 49.3114 12.7056 49.3114 12.902H47.6288ZM50.2608 13.91V15.5925C51.2538 15.5925 52.1786 15.5039 52.9119 15.207C53.2968 15.0511 53.7232 14.8005 54.057 14.3851C54.413 13.942 54.5754 13.4204 54.5754 12.902H52.8928H51.2103C51.2103 12.7056 51.2781 12.471 51.4338 12.2773C51.5672 12.1112 51.6873 12.0724 51.6488 12.088C51.6115 12.1031 51.491 12.1423 51.2433 12.175C51.0016 12.2069 50.6796 12.2275 50.2608 12.2275V13.91ZM61.841 10.844H63.5235V9.16146H61.841V10.844ZM63.633 10.844V9.16146H61.9505V10.844H63.633ZM65.943 8.03V6.34746H59.531V8.03V9.71254H65.943V8.03ZM59.531 8.03V6.34746C59.3804 6.34746 59.3522 6.33409 59.3915 6.34434C59.4461 6.35858 59.6082 6.41334 59.7725 6.57306C59.9392 6.73503 60.0031 6.90251 60.0226 6.97316C60.0371 7.02543 60.0235 7.00955 60.0235 6.868H58.341H56.6585C56.6585 7.39908 56.7243 8.30317 57.4275 8.98644C58.1166 9.65606 59.0109 9.71254 59.531 9.71254V8.03ZM58.341 6.868H60.0235V3.774H58.341H56.6585V6.868H58.341ZM58.341 3.774H60.0235C60.0235 3.63245 60.0371 3.61656 60.0226 3.66884C60.0031 3.73949 59.9392 3.90697 59.7725 4.06894C59.6082 4.22866 59.4461 4.28342 59.3915 4.29766C59.3522 4.30791 59.3804 4.29454 59.531 4.29454V2.612V0.92946C59.011 0.92946 58.1166 0.985939 57.4275 1.65556C56.7243 2.33883 56.6585 3.24292 56.6585 3.774H58.341ZM59.531 2.612V4.29454H65.943V2.612V0.92946H59.531V2.612ZM65.943 2.612V4.29454C66.0936 4.29454 66.1218 4.30791 66.0825 4.29766C66.0279 4.28342 65.8658 4.22866 65.7015 4.06894C65.5348 3.90697 65.4709 3.73949 65.4514 3.66884C65.4369 3.61656 65.4505 3.63245 65.4505 3.774H67.133H68.8155C68.8155 3.24291 68.7497 2.33883 68.0465 1.65556C67.3574 0.98594 66.463 0.92946 65.943 0.92946V2.612ZM67.133 3.774H65.4505V6.868H67.133H68.8155V3.774H67.133ZM67.133 6.868H65.4505C65.4505 7.00955 65.4369 7.02543 65.4514 6.97316C65.4709 6.90251 65.5348 6.73503 65.7015 6.57306C65.8658 6.41334 66.0279 6.35858 66.0825 6.34434C66.1218 6.33409 66.0936 6.34746 65.943 6.34746V8.03V9.71254C66.463 9.71254 67.3574 9.65606 68.0465 8.98644C68.7497 8.30317 68.8155 7.39909 68.8155 6.868H67.133ZM60.469 6.518V8.20054H65.005V6.518V4.83546H60.469V6.518ZM65.005 6.518V8.20054C65.2396 8.20054 65.9038 8.17716 66.445 7.63599C66.9862 7.09481 67.0095 6.43058 67.0095 6.196H65.327H63.6445C63.6445 6.16906 63.6453 6.05203 63.6901 5.89242C63.7392 5.71727 63.8459 5.47617 64.0655 5.25651C64.2852 5.03686 64.5263 4.93022 64.7014 4.88111C64.861 4.83635 64.9781 4.83546 65.005 4.83546V6.518ZM65.327 6.196H67.0095V4.446H65.327H63.6445V6.196H65.327ZM65.327 4.446H67.0095C67.0095 4.21142 66.9862 3.54719 66.445 3.00601C65.9038 2.46484 65.2396 2.44146 65.005 2.44146V4.124V5.80654C64.9781 5.80654 64.861 5.80565 64.7014 5.76089C64.5263 5.71178 64.2852 5.60514 64.0655 5.38549C63.8459 5.16583 63.7392 4.92473 63.6901 4.74958C63.6453 4.58997 63.6445 4.47294 63.6445 4.446H65.327ZM65.005 4.124V2.44146H60.469V4.124V5.80654H65.005V4.124ZM60.469 4.124V2.44146C60.2344 2.44146 59.5702 2.46484 59.029 3.00601C58.4878 3.54719 58.4645 4.21142 58.4645 4.446H60.147H61.8295C61.8295 4.47294 61.8286 4.58996 61.7839 4.74958C61.7348 4.92473 61.6281 5.16583 61.4085 5.38549C61.1888 5.60514 60.9477 5.71178 60.7726 5.76089C60.613 5.80565 60.4959 5.80654 60.469 5.80654V4.124ZM60.147 4.446H58.4645V6.196H60.147H61.8295V4.446H60.147ZM60.147 6.196H58.4645C58.4645 6.43058 58.4878 7.09481 59.029 7.63599C59.5702 8.17716 60.2344 8.20054 60.469 8.20054V6.518V4.83546C60.4959 4.83546 60.613 4.83635 60.7726 4.88111C60.9477 4.93022 61.1888 5.03686 61.4085 5.25651C61.6281 5.47617 61.7348 5.71727 61.7839 5.89242C61.8286 6.05204 61.8295 6.16906 61.8295 6.196H60.147ZM61.841 10.844V9.16146H57.445V10.844V12.5265H61.841V10.844ZM57.445 10.844V9.16146C57.5673 9.16146 57.7322 9.18746 57.9076 9.27392C58.0835 9.36067 58.22 9.48377 58.3153 9.61146C58.4921 9.84812 58.4975 10.0495 58.4975 10.088H56.815H55.1325C55.1325 10.5325 55.2359 11.1119 55.6192 11.625C56.0498 12.2016 56.7137 12.5265 57.445 12.5265V10.844ZM56.815 10.088H58.4975C58.4975 10.1265 58.4921 10.3279 58.3153 10.5645C58.22 10.6922 58.0835 10.8153 57.9076 10.9021C57.7322 10.9885 57.5673 11.0145 57.445 11.0145V9.332V7.64946C56.7137 7.64946 56.0498 7.97437 55.6192 8.55096C55.2359 9.06412 55.1325 9.64349 55.1325 10.088H56.815ZM57.445 9.332V11.0145H68.029V9.332V7.64946H57.445V9.332ZM68.029 9.332V11.0145C67.9067 11.0145 67.7418 10.9885 67.5664 10.9021C67.3905 10.8153 67.254 10.6922 67.1587 10.5645C66.9819 10.3279 66.9765 10.1265 66.9765 10.088H68.659H70.3415C70.3415 9.64349 70.2381 9.06412 69.8548 8.55096C69.4242 7.97437 68.7603 7.64946 68.029 7.64946V9.332ZM68.659 10.088H66.9765C66.9765 10.0495 66.9819 9.84812 67.1587 9.61146C67.254 9.48377 67.3905 9.36067 67.5664 9.27393C67.7418 9.18746 67.9067 9.16146 68.029 9.16146V10.844V12.5265C68.7603 12.5265 69.4242 12.2016 69.8548 11.625C70.2381 11.1119 70.3415 10.5325 70.3415 10.088H68.659ZM68.029 10.844V9.16146H63.633V10.844V12.5265H68.029V10.844ZM63.633 10.844H61.9505V14.498H63.633H65.3155V10.844H63.633ZM63.633 14.498H61.9505C61.9505 14.3867 61.9754 14.2364 62.0551 14.0781C62.1343 13.9208 62.2437 13.8027 62.351 13.7225C62.5479 13.5754 62.707 13.5715 62.737 13.5715V15.254V16.9365C63.229 16.9365 63.8361 16.8136 64.3655 16.418C64.9529 15.979 65.3155 15.2924 65.3155 14.498H63.633ZM62.737 15.254V13.5715C62.767 13.5715 62.9261 13.5754 63.123 13.7225C63.2303 13.8027 63.3397 13.9208 63.4189 14.0781C63.4986 14.2364 63.5235 14.3867 63.5235 14.498H61.841H60.1585C60.1585 15.2924 60.5211 15.979 61.1085 16.418C61.6379 16.8136 62.245 16.9365 62.737 16.9365V15.254ZM61.841 14.498H63.5235V10.844H61.841H60.1585V14.498H61.841ZM82.4792 9.514L84.1217 9.879L84.1235 9.8706L82.4792 9.514ZM81.3732 10.102L81.0432 11.7519L81.0518 11.7536L81.0604 11.7552L81.3732 10.102ZM80.7152 9.234L79.066 8.90024L79.0636 8.91285L80.7152 9.234ZM78.4472 11.614H76.7646V13.2965H78.4472V11.614ZM76.6552 11.614V13.2965H78.3377V11.614H76.6552ZM80.7432 4.474V2.79146H74.4992V4.474V6.15654H80.7432V4.474ZM74.4992 4.474V2.79146C74.6214 2.79146 74.7878 2.81745 74.9651 2.90536C75.1432 2.99367 75.2805 3.1189 75.3755 3.24784C75.5509 3.48562 75.5517 3.68286 75.5517 3.704H73.8692H72.1866C72.1866 4.14514 72.2855 4.72738 72.6673 5.24516C73.0986 5.82994 73.7664 6.15654 74.4992 6.15654V4.474ZM73.8692 3.704H75.5517C75.5517 3.72514 75.5509 3.92238 75.3755 4.16016C75.2805 4.28909 75.1432 4.41433 74.9651 4.50264C74.7878 4.59055 74.6214 4.61654 74.4992 4.61654V2.934V1.25146C73.7664 1.25146 73.0986 1.57806 72.6673 2.16284C72.2855 2.68062 72.1866 3.26285 72.1866 3.704H73.8692ZM74.4992 2.934V4.61654H81.6672V2.934V1.25146H74.4992V2.934ZM81.6672 2.934V4.61654C81.8178 4.61654 81.846 4.62991 81.8067 4.61966C81.7521 4.60542 81.59 4.55066 81.4257 4.39094C81.259 4.22897 81.1951 4.06149 81.1756 3.99084C81.1611 3.93856 81.1746 3.95445 81.1746 4.096H82.8572H84.5397C84.5397 3.56491 84.4739 2.66083 83.7707 1.97756C83.0816 1.30794 82.1872 1.25146 81.6672 1.25146V2.934ZM82.8572 4.096H81.1746V5.356H82.8572H84.5397V4.096H82.8572ZM82.8572 5.356H81.1746C81.1746 6.97903 81.055 8.14237 80.8349 9.1574L82.4792 9.514L84.1235 9.8706C84.4074 8.56163 84.5397 7.14897 84.5397 5.356H82.8572ZM82.4792 9.514L80.8367 9.149C80.86 9.04438 80.913 8.91385 81.0133 8.78732C81.1129 8.66162 81.2314 8.57475 81.3421 8.52089C81.4489 8.46891 81.538 8.45218 81.592 8.44712C81.6461 8.44206 81.678 8.44727 81.686 8.44879L81.3732 10.102L81.0604 11.7552C81.5775 11.853 82.2123 11.8399 82.8148 11.5466C83.4696 11.2279 83.9534 10.6362 84.1217 9.87899L82.4792 9.514ZM81.3732 10.102L81.7032 8.45213C81.7321 8.45793 81.9286 8.50085 82.1219 8.72414C82.2257 8.84404 82.3089 8.99612 82.3512 9.16749C82.3927 9.3358 82.3827 9.47313 82.3668 9.55515L80.7152 9.234L79.0636 8.91285C78.9251 9.62485 79.0851 10.3576 79.5779 10.9269C80.0198 11.4372 80.5942 11.6621 81.0432 11.7519L81.3732 10.102ZM80.7152 9.234L82.3643 9.56775C82.629 8.25961 82.7477 6.8988 82.7477 5.314H81.0652H79.3826C79.3826 6.7252 79.2773 7.85639 79.0661 8.90025L80.7152 9.234ZM81.0652 5.314H82.7477V4.796H81.0652H79.3826V5.314H81.0652ZM81.0652 4.796H82.7477C82.7477 4.56143 82.7243 3.89719 82.1832 3.35601C81.642 2.81484 80.9778 2.79146 80.7432 2.79146V4.474V6.15654C80.7162 6.15654 80.5992 6.15565 80.4396 6.11089C80.2645 6.06178 80.0234 5.95514 79.8037 5.73548C79.584 5.51583 79.4774 5.27472 79.4283 5.09958C79.3835 4.93996 79.3826 4.82294 79.3826 4.796H81.0652ZM78.4472 11.614V13.2965H83.7392V11.614V9.93146H78.4472V11.614ZM83.7392 11.614V13.2965C83.6169 13.2965 83.4519 13.2705 83.2766 13.1841C83.1007 13.0973 82.9642 12.9742 82.8689 12.8465C82.6921 12.6099 82.6866 12.4085 82.6866 12.37H84.3692H86.0517C86.0517 11.9255 85.9483 11.3461 85.565 10.833C85.1344 10.2564 84.4705 9.93146 83.7392 9.93146V11.614ZM84.3692 12.37H82.6866C82.6866 12.3315 82.6921 12.1301 82.8689 11.8935C82.9642 11.7658 83.1007 11.6427 83.2766 11.5559C83.4519 11.4695 83.6169 11.4435 83.7392 11.4435V13.126V14.8085C84.4705 14.8085 85.1344 14.4836 85.565 13.907C85.9483 13.3939 86.0517 12.8145 86.0517 12.37H84.3692ZM83.7392 13.126V11.4435H73.1552V13.126V14.8085H83.7392V13.126ZM73.1552 13.126V11.4435C73.2775 11.4435 73.4424 11.4695 73.6178 11.5559C73.7937 11.6427 73.9302 11.7658 74.0255 11.8935C74.2023 12.1301 74.2077 12.3315 74.2077 12.37H72.5252H70.8426C70.8426 12.8145 70.9461 13.3939 71.3294 13.907C71.76 14.4836 72.4239 14.8085 73.1552 14.8085V13.126ZM72.5252 12.37H74.2077C74.2077 12.4085 74.2023 12.6099 74.0255 12.8465C73.9302 12.9742 73.7937 13.0973 73.6178 13.1841C73.4424 13.2705 73.2775 13.2965 73.1552 13.2965V11.614V9.93146C72.4239 9.93146 71.76 10.2564 71.3294 10.833C70.9461 11.3461 70.8426 11.9255 70.8426 12.37H72.5252ZM73.1552 11.614V13.2965H76.6552V11.614V9.93146H73.1552V11.614ZM76.6552 11.614H78.3377V7.848H76.6552H74.9726V11.614H76.6552ZM76.6552 7.848H78.3377C78.3377 7.95935 78.3128 8.10956 78.233 8.26794C78.1539 8.42516 78.0445 8.5433 77.9372 8.62348C77.7403 8.77064 77.5812 8.77454 77.5512 8.77454V7.092V5.40946C77.0592 5.40946 76.4521 5.53236 75.9227 5.92802C75.3353 6.36703 74.9726 7.05362 74.9726 7.848H76.6552ZM77.5512 7.092V8.77454C77.5212 8.77454 77.3621 8.77064 77.1652 8.62348C77.0579 8.5433 76.9485 8.42516 76.8693 8.26794C76.7896 8.10956 76.7646 7.95935 76.7646 7.848H78.4472H80.1297C80.1297 7.05362 79.7671 6.36703 79.1797 5.92802C78.6503 5.53236 78.0432 5.40946 77.5512 5.40946V7.092ZM78.4472 7.848H76.7646V11.614H78.4472H80.1297V7.848H78.4472ZM95.1234 3.844H93.4408V5.52654H95.1234V3.844ZM95.1234 5.37V3.68746H93.4408V5.37H95.1234ZM95.1234 6.224H93.4408V7.90654H95.1234V6.224ZM95.1234 7.75V6.06746H93.4408V7.75H95.1234ZM85.1414 5.748H86.8239C86.8239 5.16611 86.9971 4.82847 87.182 4.64132C87.3601 4.46101 87.7281 4.23854 88.4874 4.23854V2.556V0.87346C87.0347 0.87346 85.7297 1.32299 84.7878 2.27668C83.8526 3.22353 83.4588 4.48189 83.4588 5.748H85.1414ZM88.4874 2.556V4.23854C89.2467 4.23854 89.6147 4.46101 89.7928 4.64132C89.9776 4.82847 90.1508 5.16611 90.1508 5.748H91.8334H93.5159C93.5159 4.48189 93.1221 3.22353 92.187 2.27668C91.2451 1.32299 89.9401 0.87346 88.4874 0.87346V2.556ZM91.8334 5.748H90.1508C90.1508 6.32989 89.9776 6.66753 89.7928 6.85468C89.6147 7.03499 89.2467 7.25746 88.4874 7.25746V8.94V10.6225C89.9401 10.6225 91.2451 10.173 92.187 9.21932C93.1221 8.27247 93.5159 7.01411 93.5159 5.748H91.8334ZM88.4874 8.94V7.25746C87.7281 7.25746 87.3601 7.03499 87.182 6.85468C86.9971 6.66753 86.8239 6.32989 86.8239 5.748H85.1414H83.4588C83.4588 7.01411 83.8526 8.27247 84.7878 9.21932C85.7297 10.173 87.0347 10.6225 88.4874 10.6225V8.94ZM90.1254 5.748H91.8079C91.8079 5.03873 91.6443 4.16742 91.0368 3.44985C90.3874 2.68281 89.4595 2.35746 88.4874 2.35746V4.04V5.72254C88.6082 5.72254 88.6363 5.74173 88.6076 5.72998C88.5932 5.72409 88.5698 5.71246 88.5423 5.69258C88.5148 5.67263 88.4896 5.64909 88.4685 5.62415C88.4477 5.59958 88.4348 5.5784 88.4278 5.56497C88.4211 5.55198 88.4208 5.54812 88.4234 5.55696C88.4261 5.56598 88.4311 5.58597 88.4354 5.61881C88.4397 5.65163 88.4428 5.6945 88.4428 5.748H90.1254ZM88.4874 4.04V2.35746C87.5153 2.35746 86.5873 2.68281 85.938 3.44985C85.3305 4.16742 85.1668 5.03873 85.1668 5.748H86.8494H88.5319C88.5319 5.6945 88.5351 5.65163 88.5394 5.61881C88.5436 5.58597 88.5487 5.56598 88.5513 5.55696C88.554 5.54812 88.5537 5.55198 88.5469 5.56497C88.5399 5.5784 88.5271 5.59958 88.5063 5.62415C88.4852 5.64909 88.46 5.67263 88.4324 5.69258C88.4049 5.71246 88.3816 5.72409 88.3672 5.72998C88.3385 5.74173 88.3665 5.72254 88.4874 5.72254V4.04ZM86.8494 5.748H85.1668C85.1668 6.45727 85.3305 7.32858 85.938 8.04615C86.5873 8.81319 87.5153 9.13854 88.4874 9.13854V7.456V5.77346C88.3665 5.77346 88.3385 5.75427 88.3672 5.76602C88.3816 5.77191 88.4049 5.78353 88.4324 5.80342C88.46 5.82337 88.4852 5.84691 88.5063 5.87185C88.5271 5.89642 88.5399 5.9176 88.5469 5.93103C88.5537 5.94402 88.554 5.94788 88.5513 5.93904C88.5487 5.93002 88.5436 5.91003 88.5394 5.87719C88.5351 5.84437 88.5319 5.8015 88.5319 5.748H86.8494ZM88.4874 7.456V9.13854C89.4595 9.13854 90.3874 8.81319 91.0368 8.04615C91.6443 7.32858 91.8079 6.45727 91.8079 5.748H90.1254H88.4428C88.4428 5.8015 88.4397 5.84437 88.4354 5.87719C88.4311 5.91003 88.4261 5.93002 88.4234 5.93904C88.4208 5.94788 88.4211 5.94402 88.4278 5.93103C88.4348 5.9176 88.4477 5.89642 88.4685 5.87185C88.4896 5.84691 88.5148 5.82337 88.5423 5.80342C88.5698 5.78353 88.5932 5.77191 88.6076 5.76602C88.6363 5.75427 88.6082 5.77346 88.4874 5.77346V7.456ZM95.1234 2.794H93.4408V3.844H95.1234H96.8059V2.794H95.1234ZM95.1234 3.844V5.52654H96.3274V3.844V2.16146H95.1234V3.844ZM96.3274 3.844V5.52654C96.2052 5.52654 96.0387 5.50055 95.8614 5.41264C95.6833 5.32433 95.5461 5.19909 95.451 5.07016C95.2757 4.83238 95.2748 4.63514 95.2748 4.614H96.9574H98.6399C98.6399 4.17285 98.5411 3.59062 98.1592 3.07284C97.728 2.48806 97.0602 2.16146 96.3274 2.16146V3.844ZM96.9574 4.614H95.2748C95.2748 4.57549 95.2803 4.37412 95.457 4.13746C95.5524 4.00977 95.6889 3.88667 95.8648 3.79993C96.0401 3.71346 96.2051 3.68746 96.3274 3.68746V5.37V7.05254C97.0587 7.05254 97.7226 6.72763 98.1532 6.15104C98.5364 5.63788 98.6399 5.05851 98.6399 4.614H96.9574ZM96.3274 5.37V3.68746H95.1234V5.37V7.05254H96.3274V5.37ZM95.1234 5.37H93.4408V6.224H95.1234H96.8059V5.37H95.1234ZM95.1234 6.224V7.90654H96.3274V6.224V4.54146H95.1234V6.224ZM96.3274 6.224V7.90654C96.2052 7.90654 96.0387 7.88055 95.8614 7.79264C95.6833 7.70433 95.5461 7.57909 95.451 7.45016C95.2757 7.21238 95.2748 7.01514 95.2748 6.994H96.9574H98.6399C98.6399 6.55285 98.5411 5.97062 98.1592 5.45284C97.728 4.86806 97.0602 4.54146 96.3274 4.54146V6.224ZM96.9574 6.994H95.2748C95.2748 6.95549 95.2803 6.75412 95.457 6.51746C95.5524 6.38977 95.6889 6.26667 95.8648 6.17992C96.0401 6.09346 96.2051 6.06746 96.3274 6.06746V7.75V9.43254C97.0587 9.43254 97.7226 9.10763 98.1532 8.53104C98.5365 8.01788 98.6399 7.43851 98.6399 6.994H96.9574ZM96.3274 7.75V6.06746H95.1234V7.75V9.43254H96.3274V7.75ZM95.1234 7.75H93.4408V8.996H95.1234H96.8059V7.75H95.1234ZM95.1234 8.996H93.4408C93.4408 8.88465 93.4658 8.73443 93.5455 8.57606C93.6247 8.41884 93.7341 8.3007 93.8414 8.22052C94.0383 8.07336 94.1974 8.06946 94.2274 8.06946V9.752V11.4345C94.7194 11.4345 95.3265 11.3116 95.8559 10.916C96.4433 10.477 96.8059 9.79038 96.8059 8.996H95.1234ZM94.2274 9.752V8.06946C94.2574 8.06946 94.4165 8.07336 94.6134 8.22052C94.7207 8.3007 94.8301 8.41884 94.9092 8.57606C94.989 8.73443 95.0139 8.88465 95.0139 8.996H93.3314H91.6488C91.6488 9.79038 92.0115 10.477 92.5989 10.916C93.1283 11.3116 93.7354 11.4345 94.2274 11.4345V9.752ZM93.3314 8.996H95.0139V2.794H93.3314H91.6488V8.996H93.3314ZM93.3314 2.794H95.0139C95.0139 2.90535 94.989 3.05556 94.9092 3.21394C94.8301 3.37116 94.7207 3.4893 94.6134 3.56948C94.4165 3.71664 94.2574 3.72054 94.2274 3.72054V2.038V0.35546C93.7354 0.35546 93.1283 0.478357 92.5989 0.874017C92.0115 1.31303 91.6488 1.99962 91.6488 2.794H93.3314ZM94.2274 2.038V3.72054C94.1974 3.72054 94.0383 3.71664 93.8414 3.56948C93.7341 3.4893 93.6247 3.37116 93.5455 3.21394C93.4658 3.05556 93.4408 2.90535 93.4408 2.794H95.1234H96.8059C96.8059 1.99962 96.4433 1.31303 95.8559 0.874017C95.3265 0.478357 94.7194 0.35546 94.2274 0.35546V2.038ZM86.9054 12.552H88.5879C88.5879 12.2129 88.6861 12.0718 88.9068 11.9316C89.2335 11.724 89.8977 11.5185 91.0354 11.5185V9.836V8.15346C89.597 8.15346 88.1963 8.39602 87.102 9.09143C85.9017 9.85418 85.2228 11.0711 85.2228 12.552H86.9054ZM91.0354 9.836V11.5185C92.173 11.5185 92.8373 11.724 93.164 11.9316C93.3847 12.0718 93.4828 12.2129 93.4828 12.552H95.1654H96.8479C96.8479 11.0711 96.1691 9.85418 94.9688 9.09143C93.8745 8.39602 92.4737 8.15346 91.0354 8.15346V9.836ZM95.1654 12.552H93.4828C93.4828 12.8911 93.3847 13.0322 93.164 13.1724C92.8373 13.38 92.173 13.5855 91.0354 13.5855V15.268V16.9505C92.4737 16.9505 93.8745 16.708 94.9688 16.0126C96.1691 15.2498 96.8479 14.0329 96.8479 12.552H95.1654ZM91.0354 15.268V13.5855C89.8977 13.5855 89.2335 13.38 88.9068 13.1724C88.6861 13.0322 88.5879 12.8911 88.5879 12.552H86.9054H85.2228C85.2228 14.0329 85.9017 15.2498 87.102 16.0126C88.1963 16.708 89.597 16.9505 91.0354 16.9505V15.268ZM93.3874 12.552H95.0699C95.0699 11.5965 94.6164 10.7183 93.7205 10.1783C92.9585 9.71893 92.0054 9.58146 91.0354 9.58146V11.264V12.9465C91.3823 12.9465 91.627 12.9733 91.7909 13.0063C91.9572 13.0398 92.0035 13.0724 91.9832 13.0602C91.9523 13.0416 91.8627 12.9753 91.789 12.8425C91.7164 12.7118 91.7048 12.5988 91.7048 12.552H93.3874ZM91.0354 11.264V9.58146C90.0653 9.58146 89.1123 9.71893 88.3503 10.1783C87.4544 10.7183 87.0008 11.5965 87.0008 12.552H88.6834H90.3659C90.3659 12.5988 90.3543 12.7118 90.2818 12.8425C90.2081 12.9753 90.1185 13.0416 90.0875 13.0602C90.0673 13.0724 90.1136 13.0398 90.2798 13.0063C90.4438 12.9733 90.6884 12.9465 91.0354 12.9465V11.264ZM88.6834 12.552H87.0008C87.0008 13.5075 87.4544 14.3857 88.3503 14.9257C89.1123 15.3851 90.0653 15.5225 91.0354 15.5225V13.84V12.1575C90.6884 12.1575 90.4438 12.1307 90.2798 12.0977C90.1136 12.0642 90.0673 12.0316 90.0875 12.0438C90.1185 12.0624 90.2081 12.1287 90.2818 12.2615C90.3543 12.3922 90.3659 12.5052 90.3659 12.552H88.6834ZM91.0354 13.84V15.5225C92.0054 15.5225 92.9585 15.3851 93.7205 14.9257C94.6164 14.3857 95.0699 13.5075 95.0699 12.552H93.3874H91.7048C91.7048 12.5052 91.7164 12.3922 91.789 12.2615C91.8627 12.1287 91.9523 12.0624 91.9832 12.0438C92.0035 12.0316 91.9572 12.0642 91.7909 12.0977C91.627 12.1307 91.3823 12.1575 91.0354 12.1575V13.84ZM97.8976 7.008H99.5801C99.5801 5.81976 99.8306 5.18777 100.069 4.88341C100.251 4.65065 100.559 4.43454 101.272 4.43454V2.752V1.06946C99.7445 1.06946 98.3647 1.60234 97.4201 2.80809C96.5316 3.94223 96.215 5.43824 96.215 7.008H97.8976ZM101.272 2.752V4.43454C101.984 4.43454 102.292 4.65065 102.474 4.88341C102.713 5.18777 102.963 5.81976 102.963 7.008H104.646H106.328C106.328 5.43824 106.012 3.94223 105.123 2.80809C104.178 1.60234 102.799 1.06946 101.272 1.06946V2.752ZM104.646 7.008H102.963C102.963 8.19624 102.713 8.82823 102.474 9.13259C102.292 9.36535 101.984 9.58146 101.272 9.58146V11.264V12.9465C102.799 12.9465 104.178 12.4137 105.123 11.2079C106.012 10.0738 106.328 8.57776 106.328 7.008H104.646ZM101.272 11.264V9.58146C100.559 9.58146 100.251 9.36535 100.069 9.13259C99.8306 8.82823 99.5801 8.19624 99.5801 7.008H97.8976H96.215C96.215 8.57776 96.5316 10.0738 97.4201 11.2079C98.3647 12.4137 99.7445 12.9465 101.272 12.9465V11.264ZM102.924 7.008H104.606C104.606 6.05891 104.503 5.0113 104.014 4.15891C103.749 3.69671 103.368 3.28549 102.849 3.00268C102.338 2.72459 101.792 2.62346 101.272 2.62346V4.306V5.98854C101.36 5.98854 101.325 6.00466 101.238 5.95757C101.197 5.93521 101.161 5.90703 101.132 5.8781C101.105 5.85021 101.094 5.83101 101.094 5.83209C101.1 5.84132 101.142 5.92394 101.18 6.13606C101.217 6.34476 101.241 6.62953 101.241 7.008H102.924ZM101.272 4.306V2.62346C100.751 2.62346 100.205 2.72459 99.6945 3.00268C99.1755 3.28549 98.7939 3.69671 98.529 4.15891C98.0405 5.0113 97.937 6.05891 97.937 7.008H99.6196H101.302C101.302 6.62953 101.326 6.34476 101.363 6.13605C101.401 5.92394 101.443 5.84132 101.449 5.83209C101.449 5.83101 101.438 5.85021 101.411 5.8781C101.382 5.90703 101.346 5.93521 101.305 5.95757C101.218 6.00466 101.183 5.98854 101.272 5.98854V4.306ZM99.6196 7.008H97.937C97.937 7.95709 98.0405 9.0047 98.529 9.85709C98.7939 10.3193 99.1755 10.7305 99.6945 11.0133C100.205 11.2914 100.751 11.3925 101.272 11.3925V9.71V8.02746C101.183 8.02746 101.218 8.01134 101.305 8.05843C101.346 8.08079 101.382 8.10897 101.411 8.1379C101.438 8.16579 101.449 8.18499 101.449 8.18391C101.443 8.17468 101.401 8.09206 101.363 7.87994C101.326 7.67124 101.302 7.38647 101.302 7.008H99.6196ZM101.272 9.71V11.3925C101.792 11.3925 102.338 11.2914 102.849 11.0133C103.368 10.7305 103.749 10.3193 104.014 9.85709C104.503 9.0047 104.606 7.95709 104.606 7.008H102.924H101.241C101.241 7.38647 101.217 7.67124 101.18 7.87994C101.142 8.09206 101.1 8.17468 101.094 8.18391C101.094 8.18499 101.105 8.16579 101.132 8.1379C101.161 8.10897 101.197 8.08079 101.238 8.05843C101.325 8.01134 101.36 8.02746 101.272 8.02746V9.71ZM108.202 2.794H106.519V13.518H108.202H109.884V2.794H108.202ZM108.202 13.518H106.519C106.519 13.4067 106.544 13.2553 106.625 13.0953C106.705 12.9363 106.816 12.8175 106.925 12.7375C107.123 12.591 107.278 12.5915 107.292 12.5915V14.274V15.9565C107.781 15.9565 108.392 15.838 108.926 15.443C109.52 15.0033 109.884 14.3137 109.884 13.518H108.202ZM107.292 14.274V12.5915C107.322 12.5915 107.481 12.5954 107.678 12.7425C107.785 12.8227 107.894 12.9408 107.973 13.0981C108.053 13.2564 108.078 13.4066 108.078 13.518H106.396H104.713C104.713 14.3124 105.076 14.999 105.663 15.438C106.192 15.8336 106.8 15.9565 107.292 15.9565V14.274ZM106.396 13.518H108.078V2.794H106.396H104.713V13.518H106.396ZM106.396 2.794H108.078C108.078 2.90535 108.053 3.05556 107.973 3.21394C107.894 3.37116 107.785 3.4893 107.678 3.56948C107.481 3.71664 107.322 3.72054 107.292 3.72054V2.038V0.35546C106.8 0.35546 106.192 0.478357 105.663 0.874017C105.076 1.31303 104.713 1.99962 104.713 2.794H106.396ZM107.292 2.038V3.72054C107.278 3.72054 107.123 3.72095 106.925 3.57451C106.816 3.49448 106.705 3.37568 106.625 3.21669C106.544 3.05672 106.519 2.9053 106.519 2.794H108.202H109.884C109.884 1.99833 109.52 1.30865 108.926 0.868984C108.392 0.474044 107.781 0.35546 107.292 0.35546V2.038Z" fill="#FFFBEB" mask="url(#path-1-outside-1_21_6215)"/>
</g>
<defs>
<filter id="filter0_d_21_6215" x="0.441895" y="0.103516" width="111.442" height="20.9028" filterUnits="userSpaceOnUse" color-interpolation-filters="sRGB">
<feFlood flood-opacity="0" result="BackgroundImageFix"/>
<feColorMatrix in="SourceAlpha" type="matrix" values="0 0 0 0 0 0 0 0 0 0 0 0 0 0 0 0 0 0 127 0" result="hardAlpha"/>
<feOffset dy="2"/>
<feGaussianBlur stdDeviation="1"/>
<feComposite in2="hardAlpha" operator="out"/>
<feColorMatrix type="matrix" values="0 0 0 0 0.580392 0 0 0 0 0.439216 0 0 0 0 0.368627 0 0 0 0.25 0"/>
<feBlend mode="normal" in2="BackgroundImageFix" result="effect1_dropShadow_21_6215"/>
<feBlend mode="normal" in="SourceGraphic" in2="effect1_dropShadow_21_6215" result="shape"/>
</filter>
</defs>
</svg>
