<svg width="125" height="21" viewBox="0 0 125 21" fill="none" xmlns="http://www.w3.org/2000/svg">
<g filter="url(#filter0_d_21_7105)">
<mask id="path-1-outside-1_21_7105" maskUnits="userSpaceOnUse" x="2" y="0" width="121" height="17" fill="black">
<rect fill="white" x="2" width="121" height="17"/>
<path d="M15.1522 10.214H4.56816C4.13416 10.214 3.93816 9.864 3.93816 9.458C3.93816 9.066 4.13416 8.716 4.56816 8.716H8.97816V7.568C6.78016 7.4 5.47816 6.56 5.47816 4.978C5.47816 3.2 7.13016 2.36 9.86016 2.36C12.5902 2.36 14.2422 3.2 14.2422 4.978C14.2422 6.56 12.9402 7.4 10.7422 7.568V8.716H15.1522C15.5862 8.716 15.7822 9.066 15.7822 9.458C15.7822 9.864 15.5862 10.214 15.1522 10.214ZM7.57816 13.462H13.8642C14.2982 13.462 14.4942 13.812 14.4942 14.218C14.4942 14.624 14.2982 14.974 13.8642 14.974H6.64016C5.74416 14.974 5.45016 14.694 5.45016 13.812V11.642C5.45016 11.124 5.88416 10.886 6.36016 10.886C6.82216 10.886 7.25616 11.124 7.25616 11.642V13.14C7.25616 13.378 7.34016 13.462 7.57816 13.462ZM12.4642 4.978C12.4642 4.278 11.7222 3.83 9.86016 3.83C7.99816 3.83 7.25616 4.278 7.25616 4.978C7.25616 5.678 7.99816 6.126 9.86016 6.126C11.7222 6.126 12.4642 5.678 12.4642 4.978ZM27.6283 13.126H17.0443C16.6103 13.126 16.4143 12.776 16.4143 12.37C16.4143 11.964 16.6103 11.614 17.0443 11.614H21.4403V9.136H19.1163C18.2203 9.136 17.9263 8.856 17.9263 7.974V3.984C17.9263 3.102 18.2203 2.822 19.1163 2.822H26.0603C26.4943 2.822 26.6903 3.172 26.6903 3.578C26.6903 3.984 26.4943 4.334 26.0603 4.334H20.0543C19.8163 4.334 19.7323 4.418 19.7323 4.656V7.302C19.7323 7.54 19.8163 7.624 20.0543 7.624H26.2003C26.6343 7.624 26.8303 7.974 26.8303 8.38C26.8303 8.786 26.6343 9.136 26.2003 9.136H23.2323V11.614H27.6283C28.0623 11.614 28.2583 11.964 28.2583 12.37C28.2583 12.776 28.0623 13.126 27.6283 13.126ZM35.7365 5.286H33.6785V5.958C33.6785 7.106 33.8885 7.61 34.6725 8.394C35.2325 8.954 35.7365 9.416 36.1845 9.808C36.5205 10.102 36.4085 10.62 36.1285 10.9C35.8485 11.18 35.3865 11.292 35.0505 10.998C34.6865 10.676 34.2525 10.256 33.7485 9.752C33.0205 9.024 32.8525 8.786 32.7965 8.52H32.7825C32.7125 8.842 32.5725 9.094 31.8305 9.808C31.3265 10.298 30.8505 10.76 30.3045 11.208C29.9405 11.502 29.4365 11.32 29.1845 11.026C28.9185 10.704 28.8765 10.228 29.2265 9.934C29.8285 9.43 30.3325 8.954 30.8925 8.394C31.6765 7.61 31.8865 7.106 31.8865 5.958V5.286H29.7165C29.2825 5.286 29.0865 4.936 29.0865 4.53C29.0865 4.11 29.2825 3.76 29.7165 3.76H31.8865V2.766C31.8865 2.248 32.3205 2.01 32.7825 2.01C33.2445 2.01 33.6785 2.248 33.6785 2.766V3.76H35.7365C36.1705 3.76 36.3665 4.11 36.3665 4.53C36.3665 4.936 36.1705 5.286 35.7365 5.286ZM39.0125 6.168H40.3285C40.7765 6.168 40.9725 6.518 40.9725 6.938C40.9725 7.372 40.7765 7.722 40.3285 7.722H39.0125V13.518C39.0125 14.036 38.5785 14.274 38.1165 14.274C37.6545 14.274 37.2205 14.036 37.2205 13.518V2.794C37.2205 2.276 37.6545 2.038 38.1165 2.038C38.5785 2.038 39.0125 2.276 39.0125 2.794V6.168ZM46.2667 8.66C45.3707 8.66 45.0767 8.38 45.0767 7.498V3.368C45.0767 2.85 45.5107 2.612 45.9727 2.612C46.4487 2.612 46.8827 2.85 46.8827 3.368V6.812C46.8827 7.05 46.9667 7.134 47.2047 7.134C48.7447 7.134 50.1867 7.05 51.5447 6.868C51.9787 6.812 52.2307 7.12 52.2727 7.526C52.3147 7.946 52.1747 8.324 51.7687 8.38C50.6207 8.534 49.0107 8.66 46.2667 8.66ZM54.7227 5.048H56.0387C56.4867 5.048 56.6827 5.398 56.6827 5.818C56.6827 6.252 56.4867 6.602 56.0387 6.602H54.7227V8.996C54.7227 9.514 54.2887 9.752 53.8267 9.752C53.3647 9.752 52.9307 9.514 52.9307 8.996V2.794C52.9307 2.276 53.3647 2.038 53.8267 2.038C54.2887 2.038 54.7227 2.276 54.7227 2.794V5.048ZM46.5047 12.552C46.5047 10.732 48.0587 9.836 50.6347 9.836C53.2107 9.836 54.7647 10.732 54.7647 12.552C54.7647 14.372 53.2107 15.268 50.6347 15.268C48.0587 15.268 46.5047 14.372 46.5047 12.552ZM52.9867 12.552C52.9867 11.782 52.3427 11.264 50.6347 11.264C48.9267 11.264 48.2827 11.782 48.2827 12.552C48.2827 13.322 48.9267 13.84 50.6347 13.84C52.3427 13.84 52.9867 13.322 52.9867 12.552ZM63.6709 3.998V8.002C63.6709 8.884 63.3769 9.164 62.4809 9.164H58.6589C57.7629 9.164 57.4689 8.884 57.4689 8.002V3.998C57.4689 3.116 57.7629 2.836 58.6589 2.836H62.4809C63.3769 2.836 63.6709 3.116 63.6709 3.998ZM61.9069 7.344V4.656C61.9069 4.418 61.8229 4.334 61.5849 4.334H59.5549C59.3169 4.334 59.2329 4.418 59.2329 4.656V7.344C59.2329 7.582 59.3169 7.666 59.5549 7.666H61.5849C61.8229 7.666 61.9069 7.582 61.9069 7.344ZM67.1989 5.538H68.5149C68.9629 5.538 69.1589 5.888 69.1589 6.308C69.1589 6.742 68.9629 7.092 68.5149 7.092H67.1989V10.83C67.1989 11.348 66.7649 11.586 66.3029 11.586C65.8409 11.586 65.4069 11.348 65.4069 10.83V2.794C65.4069 2.276 65.8409 2.038 66.3029 2.038C66.7649 2.038 67.1989 2.276 67.1989 2.794V5.538ZM66.8769 14.918H60.1009C59.2049 14.918 58.9109 14.638 58.9109 13.756V11.11C58.9109 10.592 59.3449 10.354 59.8209 10.354C60.2829 10.354 60.7169 10.592 60.7169 11.11V13.07C60.7169 13.308 60.8009 13.392 61.0389 13.392H66.8769C67.3109 13.392 67.5069 13.742 67.5069 14.162C67.5069 14.568 67.3109 14.918 66.8769 14.918ZM70.1971 11.124C69.7631 11.124 69.5671 10.774 69.5671 10.382C69.5671 9.99 69.7631 9.64 70.1971 9.64H70.9391V4.516H70.2811C69.8471 4.516 69.6511 4.166 69.6511 3.774C69.6511 3.382 69.8471 3.032 70.2811 3.032H76.3851C76.8191 3.032 77.0151 3.382 77.0151 3.774C77.0151 4.166 76.8191 4.516 76.3851 4.516H75.8251V9.458C76.0491 9.444 76.2731 9.402 76.4971 9.374C76.9311 9.318 77.1831 9.612 77.2251 10.004C77.2671 10.41 77.1271 10.788 76.7211 10.844C75.0411 11.068 73.2071 11.124 70.1971 11.124ZM72.6471 9.626C73.1511 9.626 73.6411 9.612 74.1171 9.584V4.516H72.6471V9.626ZM79.6751 6.168H80.9911C81.4391 6.168 81.6351 6.518 81.6351 6.938C81.6351 7.372 81.4391 7.722 80.9911 7.722H79.6751V13.518C79.6751 14.036 79.2411 14.274 78.7791 14.274C78.3171 14.274 77.8831 14.036 77.8831 13.518V2.794C77.8831 2.276 78.3171 2.038 78.7791 2.038C79.2411 2.038 79.6751 2.276 79.6751 2.794V6.168ZM89.5613 4.278H86.2853C85.8513 4.278 85.6553 3.928 85.6553 3.522C85.6553 3.102 85.8513 2.752 86.2853 2.752H90.4713C91.3673 2.752 91.6613 3.032 91.6613 3.914V4.978C91.6613 6.966 90.8633 7.582 86.6773 9.57C86.2293 9.78 85.7953 9.5 85.6273 9.136C85.4593 8.786 85.4593 8.296 85.9353 8.072C89.6733 6.336 89.8833 6 89.8833 4.922V4.6C89.8833 4.362 89.7993 4.278 89.5613 4.278ZM95.3853 5.048H96.7013C97.1493 5.048 97.3453 5.398 97.3453 5.818C97.3453 6.252 97.1493 6.602 96.7013 6.602H95.3853V8.996C95.3853 9.514 94.9513 9.752 94.4893 9.752C94.0273 9.752 93.5933 9.514 93.5933 8.996V2.794C93.5933 2.276 94.0273 2.038 94.4893 2.038C94.9513 2.038 95.3853 2.276 95.3853 2.794V5.048ZM87.1673 12.552C87.1673 10.732 88.7213 9.836 91.2973 9.836C93.8733 9.836 95.4273 10.732 95.4273 12.552C95.4273 14.372 93.8733 15.268 91.2973 15.268C88.7213 15.268 87.1673 14.372 87.1673 12.552ZM93.6493 12.552C93.6493 11.782 93.0053 11.264 91.2973 11.264C89.5893 11.264 88.9453 11.782 88.9453 12.552C88.9453 13.322 89.5893 13.84 91.2973 13.84C93.0053 13.84 93.6493 13.322 93.6493 12.552ZM97.8795 7.008C97.8795 4.25 99.0135 2.766 101.239 2.766C103.465 2.766 104.599 4.25 104.599 7.008C104.599 9.766 103.465 11.25 101.239 11.25C99.0135 11.25 97.8795 9.766 97.8795 7.008ZM102.877 7.008C102.877 5.244 102.443 4.32 101.239 4.32C100.035 4.32 99.6015 5.244 99.6015 7.008C99.6015 8.772 100.035 9.696 101.239 9.696C102.443 9.696 102.877 8.772 102.877 7.008ZM107.861 6.168H109.177C109.625 6.168 109.821 6.518 109.821 6.938C109.821 7.372 109.625 7.722 109.177 7.722H107.861V13.518C107.861 14.036 107.427 14.274 106.965 14.274C106.503 14.274 106.069 14.036 106.069 13.518V2.794C106.069 2.276 106.503 2.038 106.965 2.038C107.427 2.038 107.861 2.276 107.861 2.794V6.168ZM117.258 4.516H115.284V5.58C115.284 6.784 115.55 7.442 116.32 8.24C116.852 8.786 117.384 9.29 117.804 9.654C118.154 9.962 118.042 10.466 117.762 10.76C117.482 11.04 117.02 11.166 116.684 10.872C116.32 10.55 115.858 10.102 115.354 9.598C114.626 8.87 114.444 8.548 114.388 8.282H114.374C114.304 8.604 114.122 8.912 113.394 9.64C112.89 10.144 112.386 10.634 111.854 11.096C111.49 11.404 111 11.208 110.748 10.928C110.468 10.606 110.426 10.116 110.776 9.808C111.364 9.29 111.896 8.786 112.428 8.24C113.198 7.442 113.464 6.784 113.464 5.58V4.516H111.378C110.944 4.516 110.748 4.166 110.748 3.76C110.748 3.34 110.944 2.99 111.378 2.99H117.258C117.692 2.99 117.888 3.34 117.888 3.76C117.888 4.166 117.692 4.516 117.258 4.516ZM120.94 2.794V13.518C120.94 14.036 120.506 14.274 120.03 14.274C119.568 14.274 119.134 14.036 119.134 13.518V2.794C119.134 2.276 119.568 2.038 120.03 2.038C120.506 2.038 120.94 2.276 120.94 2.794Z"/>
</mask>
<path d="M15.1522 10.214H4.56816C4.13416 10.214 3.93816 9.864 3.93816 9.458C3.93816 9.066 4.13416 8.716 4.56816 8.716H8.97816V7.568C6.78016 7.4 5.47816 6.56 5.47816 4.978C5.47816 3.2 7.13016 2.36 9.86016 2.36C12.5902 2.36 14.2422 3.2 14.2422 4.978C14.2422 6.56 12.9402 7.4 10.7422 7.568V8.716H15.1522C15.5862 8.716 15.7822 9.066 15.7822 9.458C15.7822 9.864 15.5862 10.214 15.1522 10.214ZM7.57816 13.462H13.8642C14.2982 13.462 14.4942 13.812 14.4942 14.218C14.4942 14.624 14.2982 14.974 13.8642 14.974H6.64016C5.74416 14.974 5.45016 14.694 5.45016 13.812V11.642C5.45016 11.124 5.88416 10.886 6.36016 10.886C6.82216 10.886 7.25616 11.124 7.25616 11.642V13.14C7.25616 13.378 7.34016 13.462 7.57816 13.462ZM12.4642 4.978C12.4642 4.278 11.7222 3.83 9.86016 3.83C7.99816 3.83 7.25616 4.278 7.25616 4.978C7.25616 5.678 7.99816 6.126 9.86016 6.126C11.7222 6.126 12.4642 5.678 12.4642 4.978ZM27.6283 13.126H17.0443C16.6103 13.126 16.4143 12.776 16.4143 12.37C16.4143 11.964 16.6103 11.614 17.0443 11.614H21.4403V9.136H19.1163C18.2203 9.136 17.9263 8.856 17.9263 7.974V3.984C17.9263 3.102 18.2203 2.822 19.1163 2.822H26.0603C26.4943 2.822 26.6903 3.172 26.6903 3.578C26.6903 3.984 26.4943 4.334 26.0603 4.334H20.0543C19.8163 4.334 19.7323 4.418 19.7323 4.656V7.302C19.7323 7.54 19.8163 7.624 20.0543 7.624H26.2003C26.6343 7.624 26.8303 7.974 26.8303 8.38C26.8303 8.786 26.6343 9.136 26.2003 9.136H23.2323V11.614H27.6283C28.0623 11.614 28.2583 11.964 28.2583 12.37C28.2583 12.776 28.0623 13.126 27.6283 13.126ZM35.7365 5.286H33.6785V5.958C33.6785 7.106 33.8885 7.61 34.6725 8.394C35.2325 8.954 35.7365 9.416 36.1845 9.808C36.5205 10.102 36.4085 10.62 36.1285 10.9C35.8485 11.18 35.3865 11.292 35.0505 10.998C34.6865 10.676 34.2525 10.256 33.7485 9.752C33.0205 9.024 32.8525 8.786 32.7965 8.52H32.7825C32.7125 8.842 32.5725 9.094 31.8305 9.808C31.3265 10.298 30.8505 10.76 30.3045 11.208C29.9405 11.502 29.4365 11.32 29.1845 11.026C28.9185 10.704 28.8765 10.228 29.2265 9.934C29.8285 9.43 30.3325 8.954 30.8925 8.394C31.6765 7.61 31.8865 7.106 31.8865 5.958V5.286H29.7165C29.2825 5.286 29.0865 4.936 29.0865 4.53C29.0865 4.11 29.2825 3.76 29.7165 3.76H31.8865V2.766C31.8865 2.248 32.3205 2.01 32.7825 2.01C33.2445 2.01 33.6785 2.248 33.6785 2.766V3.76H35.7365C36.1705 3.76 36.3665 4.11 36.3665 4.53C36.3665 4.936 36.1705 5.286 35.7365 5.286ZM39.0125 6.168H40.3285C40.7765 6.168 40.9725 6.518 40.9725 6.938C40.9725 7.372 40.7765 7.722 40.3285 7.722H39.0125V13.518C39.0125 14.036 38.5785 14.274 38.1165 14.274C37.6545 14.274 37.2205 14.036 37.2205 13.518V2.794C37.2205 2.276 37.6545 2.038 38.1165 2.038C38.5785 2.038 39.0125 2.276 39.0125 2.794V6.168ZM46.2667 8.66C45.3707 8.66 45.0767 8.38 45.0767 7.498V3.368C45.0767 2.85 45.5107 2.612 45.9727 2.612C46.4487 2.612 46.8827 2.85 46.8827 3.368V6.812C46.8827 7.05 46.9667 7.134 47.2047 7.134C48.7447 7.134 50.1867 7.05 51.5447 6.868C51.9787 6.812 52.2307 7.12 52.2727 7.526C52.3147 7.946 52.1747 8.324 51.7687 8.38C50.6207 8.534 49.0107 8.66 46.2667 8.66ZM54.7227 5.048H56.0387C56.4867 5.048 56.6827 5.398 56.6827 5.818C56.6827 6.252 56.4867 6.602 56.0387 6.602H54.7227V8.996C54.7227 9.514 54.2887 9.752 53.8267 9.752C53.3647 9.752 52.9307 9.514 52.9307 8.996V2.794C52.9307 2.276 53.3647 2.038 53.8267 2.038C54.2887 2.038 54.7227 2.276 54.7227 2.794V5.048ZM46.5047 12.552C46.5047 10.732 48.0587 9.836 50.6347 9.836C53.2107 9.836 54.7647 10.732 54.7647 12.552C54.7647 14.372 53.2107 15.268 50.6347 15.268C48.0587 15.268 46.5047 14.372 46.5047 12.552ZM52.9867 12.552C52.9867 11.782 52.3427 11.264 50.6347 11.264C48.9267 11.264 48.2827 11.782 48.2827 12.552C48.2827 13.322 48.9267 13.84 50.6347 13.84C52.3427 13.84 52.9867 13.322 52.9867 12.552ZM63.6709 3.998V8.002C63.6709 8.884 63.3769 9.164 62.4809 9.164H58.6589C57.7629 9.164 57.4689 8.884 57.4689 8.002V3.998C57.4689 3.116 57.7629 2.836 58.6589 2.836H62.4809C63.3769 2.836 63.6709 3.116 63.6709 3.998ZM61.9069 7.344V4.656C61.9069 4.418 61.8229 4.334 61.5849 4.334H59.5549C59.3169 4.334 59.2329 4.418 59.2329 4.656V7.344C59.2329 7.582 59.3169 7.666 59.5549 7.666H61.5849C61.8229 7.666 61.9069 7.582 61.9069 7.344ZM67.1989 5.538H68.5149C68.9629 5.538 69.1589 5.888 69.1589 6.308C69.1589 6.742 68.9629 7.092 68.5149 7.092H67.1989V10.83C67.1989 11.348 66.7649 11.586 66.3029 11.586C65.8409 11.586 65.4069 11.348 65.4069 10.83V2.794C65.4069 2.276 65.8409 2.038 66.3029 2.038C66.7649 2.038 67.1989 2.276 67.1989 2.794V5.538ZM66.8769 14.918H60.1009C59.2049 14.918 58.9109 14.638 58.9109 13.756V11.11C58.9109 10.592 59.3449 10.354 59.8209 10.354C60.2829 10.354 60.7169 10.592 60.7169 11.11V13.07C60.7169 13.308 60.8009 13.392 61.0389 13.392H66.8769C67.3109 13.392 67.5069 13.742 67.5069 14.162C67.5069 14.568 67.3109 14.918 66.8769 14.918ZM70.1971 11.124C69.7631 11.124 69.5671 10.774 69.5671 10.382C69.5671 9.99 69.7631 9.64 70.1971 9.64H70.9391V4.516H70.2811C69.8471 4.516 69.6511 4.166 69.6511 3.774C69.6511 3.382 69.8471 3.032 70.2811 3.032H76.3851C76.8191 3.032 77.0151 3.382 77.0151 3.774C77.0151 4.166 76.8191 4.516 76.3851 4.516H75.8251V9.458C76.0491 9.444 76.2731 9.402 76.4971 9.374C76.9311 9.318 77.1831 9.612 77.2251 10.004C77.2671 10.41 77.1271 10.788 76.7211 10.844C75.0411 11.068 73.2071 11.124 70.1971 11.124ZM72.6471 9.626C73.1511 9.626 73.6411 9.612 74.1171 9.584V4.516H72.6471V9.626ZM79.6751 6.168H80.9911C81.4391 6.168 81.6351 6.518 81.6351 6.938C81.6351 7.372 81.4391 7.722 80.9911 7.722H79.6751V13.518C79.6751 14.036 79.2411 14.274 78.7791 14.274C78.3171 14.274 77.8831 14.036 77.8831 13.518V2.794C77.8831 2.276 78.3171 2.038 78.7791 2.038C79.2411 2.038 79.6751 2.276 79.6751 2.794V6.168ZM89.5613 4.278H86.2853C85.8513 4.278 85.6553 3.928 85.6553 3.522C85.6553 3.102 85.8513 2.752 86.2853 2.752H90.4713C91.3673 2.752 91.6613 3.032 91.6613 3.914V4.978C91.6613 6.966 90.8633 7.582 86.6773 9.57C86.2293 9.78 85.7953 9.5 85.6273 9.136C85.4593 8.786 85.4593 8.296 85.9353 8.072C89.6733 6.336 89.8833 6 89.8833 4.922V4.6C89.8833 4.362 89.7993 4.278 89.5613 4.278ZM95.3853 5.048H96.7013C97.1493 5.048 97.3453 5.398 97.3453 5.818C97.3453 6.252 97.1493 6.602 96.7013 6.602H95.3853V8.996C95.3853 9.514 94.9513 9.752 94.4893 9.752C94.0273 9.752 93.5933 9.514 93.5933 8.996V2.794C93.5933 2.276 94.0273 2.038 94.4893 2.038C94.9513 2.038 95.3853 2.276 95.3853 2.794V5.048ZM87.1673 12.552C87.1673 10.732 88.7213 9.836 91.2973 9.836C93.8733 9.836 95.4273 10.732 95.4273 12.552C95.4273 14.372 93.8733 15.268 91.2973 15.268C88.7213 15.268 87.1673 14.372 87.1673 12.552ZM93.6493 12.552C93.6493 11.782 93.0053 11.264 91.2973 11.264C89.5893 11.264 88.9453 11.782 88.9453 12.552C88.9453 13.322 89.5893 13.84 91.2973 13.84C93.0053 13.84 93.6493 13.322 93.6493 12.552ZM97.8795 7.008C97.8795 4.25 99.0135 2.766 101.239 2.766C103.465 2.766 104.599 4.25 104.599 7.008C104.599 9.766 103.465 11.25 101.239 11.25C99.0135 11.25 97.8795 9.766 97.8795 7.008ZM102.877 7.008C102.877 5.244 102.443 4.32 101.239 4.32C100.035 4.32 99.6015 5.244 99.6015 7.008C99.6015 8.772 100.035 9.696 101.239 9.696C102.443 9.696 102.877 8.772 102.877 7.008ZM107.861 6.168H109.177C109.625 6.168 109.821 6.518 109.821 6.938C109.821 7.372 109.625 7.722 109.177 7.722H107.861V13.518C107.861 14.036 107.427 14.274 106.965 14.274C106.503 14.274 106.069 14.036 106.069 13.518V2.794C106.069 2.276 106.503 2.038 106.965 2.038C107.427 2.038 107.861 2.276 107.861 2.794V6.168ZM117.258 4.516H115.284V5.58C115.284 6.784 115.55 7.442 116.32 8.24C116.852 8.786 117.384 9.29 117.804 9.654C118.154 9.962 118.042 10.466 117.762 10.76C117.482 11.04 117.02 11.166 116.684 10.872C116.32 10.55 115.858 10.102 115.354 9.598C114.626 8.87 114.444 8.548 114.388 8.282H114.374C114.304 8.604 114.122 8.912 113.394 9.64C112.89 10.144 112.386 10.634 111.854 11.096C111.49 11.404 111 11.208 110.748 10.928C110.468 10.606 110.426 10.116 110.776 9.808C111.364 9.29 111.896 8.786 112.428 8.24C113.198 7.442 113.464 6.784 113.464 5.58V4.516H111.378C110.944 4.516 110.748 4.166 110.748 3.76C110.748 3.34 110.944 2.99 111.378 2.99H117.258C117.692 2.99 117.888 3.34 117.888 3.76C117.888 4.166 117.692 4.516 117.258 4.516ZM120.94 2.794V13.518C120.94 14.036 120.506 14.274 120.03 14.274C119.568 14.274 119.134 14.036 119.134 13.518V2.794C119.134 2.276 119.568 2.038 120.03 2.038C120.506 2.038 120.94 2.276 120.94 2.794Z" fill="#745F56"/>
<path d="M8.97816 8.716V10.3985H10.6607V8.716H8.97816ZM8.97816 7.568H10.6607V6.00915L9.10639 5.89035L8.97816 7.568ZM10.7422 7.568L10.6139 5.89035L9.05962 6.00915V7.568H10.7422ZM10.7422 8.716H9.05962V10.3985H10.7422V8.716ZM15.1522 10.214V8.53146H4.56816V10.214V11.8965H15.1522V10.214ZM4.56816 10.214V8.53146C4.69042 8.53146 4.8554 8.55746 5.03076 8.64392C5.20667 8.73067 5.34312 8.85377 5.43848 8.98146C5.61523 9.21812 5.6207 9.41949 5.6207 9.458H3.93816H2.25562C2.25562 9.90251 2.35908 10.4819 2.74233 10.995C3.17295 11.5716 3.83688 11.8965 4.56816 11.8965V10.214ZM3.93816 9.458H5.6207C5.6207 9.51437 5.61021 9.71982 5.4323 9.95502C5.33673 10.0814 5.20112 10.2023 5.02741 10.2875C4.85401 10.3725 4.6905 10.3985 4.56816 10.3985V8.716V7.03346C3.83835 7.03346 3.17835 7.35672 2.74852 7.92498C2.36411 8.43318 2.25562 9.00963 2.25562 9.458H3.93816ZM4.56816 8.716V10.3985H8.97816V8.716V7.03346H4.56816V8.716ZM8.97816 8.716H10.6607V7.568H8.97816H7.29562V8.716H8.97816ZM8.97816 7.568L9.10639 5.89035C8.15468 5.81761 7.62852 5.61029 7.38186 5.43411C7.27417 5.35719 7.23222 5.29585 7.21191 5.2564C7.19166 5.21705 7.1607 5.13687 7.1607 4.978H5.47816H3.79562C3.79562 6.31266 4.38377 7.42797 5.42595 8.17239C6.3798 8.85371 7.60363 9.15039 8.84993 9.24565L8.97816 7.568ZM5.47816 4.978H7.1607C7.1607 4.80359 7.19807 4.72383 7.2212 4.68535C7.24691 4.64255 7.31051 4.56034 7.48201 4.46206C7.86675 4.24157 8.6195 4.04254 9.86016 4.04254V2.36V0.67746C8.37081 0.67746 6.93256 0.898432 5.80881 1.54244C4.56739 2.25388 3.79562 3.44554 3.79562 4.978H5.47816ZM9.86016 2.36V4.04254C11.1008 4.04254 11.8536 4.24157 12.2383 4.46206C12.4098 4.56034 12.4734 4.64255 12.4991 4.68535C12.5222 4.72383 12.5596 4.80359 12.5596 4.978H14.2422H15.9247C15.9247 3.44554 15.1529 2.25388 13.9115 1.54244C12.7878 0.898432 11.3495 0.67746 9.86016 0.67746V2.36ZM14.2422 4.978H12.5596C12.5596 5.13687 12.5287 5.21705 12.5084 5.2564C12.4881 5.29585 12.4461 5.35719 12.3385 5.43411C12.0918 5.61029 11.5656 5.81761 10.6139 5.89035L10.7422 7.568L10.8704 9.24565C12.1167 9.15039 13.3405 8.85371 14.2944 8.17239C15.3366 7.42797 15.9247 6.31266 15.9247 4.978H14.2422ZM10.7422 7.568H9.05962V8.716H10.7422H12.4247V7.568H10.7422ZM10.7422 8.716V10.3985H15.1522V8.716V7.03346H10.7422V8.716ZM15.1522 8.716V10.3985C15.0298 10.3985 14.8663 10.3725 14.6929 10.2875C14.5192 10.2023 14.3836 10.0814 14.288 9.95502C14.1101 9.71982 14.0996 9.51437 14.0996 9.458H15.7822H17.4647C17.4647 9.00963 17.3562 8.43318 16.9718 7.92498C16.542 7.35672 15.882 7.03346 15.1522 7.03346V8.716ZM15.7822 9.458H14.0996C14.0996 9.41949 14.1051 9.21812 14.2818 8.98146C14.3772 8.85377 14.5136 8.73067 14.6896 8.64393C14.8649 8.55746 15.0299 8.53146 15.1522 8.53146V10.214V11.8965C15.8834 11.8965 16.5474 11.5716 16.978 10.995C17.3612 10.4819 17.4647 9.90251 17.4647 9.458H15.7822ZM7.57816 13.462V15.1445H13.8642V13.462V11.7795H7.57816V13.462ZM13.8642 13.462V15.1445C13.7419 15.1445 13.5769 15.1185 13.4016 15.0321C13.2256 14.9453 13.0892 14.8222 12.9938 14.6945C12.8171 14.4579 12.8116 14.2565 12.8116 14.218H14.4942H16.1767C16.1767 13.7735 16.0732 13.1941 15.69 12.681C15.2594 12.1044 14.5954 11.7795 13.8642 11.7795V13.462ZM14.4942 14.218H12.8116C12.8116 14.1795 12.8171 13.9781 12.9938 13.7415C13.0892 13.6138 13.2256 13.4907 13.4016 13.4039C13.5769 13.3175 13.7419 13.2915 13.8642 13.2915V14.974V16.6565C14.5954 16.6565 15.2594 16.3316 15.69 15.755C16.0732 15.2419 16.1767 14.6625 16.1767 14.218H14.4942ZM13.8642 14.974V13.2915H6.64016V14.974V16.6565H13.8642V14.974ZM6.64016 14.974V13.2915C6.48959 13.2915 6.46133 13.2781 6.50065 13.2883C6.55528 13.3026 6.71732 13.3573 6.8817 13.5171C7.04838 13.679 7.11222 13.8465 7.13176 13.9172C7.14622 13.9694 7.1327 13.9536 7.1327 13.812H5.45016H3.76762C3.76762 14.3431 3.83345 15.2472 4.53662 15.9304C5.22575 16.6001 6.12011 16.6565 6.64016 16.6565V14.974ZM5.45016 13.812H7.1327V11.642H5.45016H3.76762V13.812H5.45016ZM5.45016 11.642H7.1327C7.1327 11.7533 7.10775 11.9047 7.02685 12.0647C6.94644 12.2237 6.83535 12.3425 6.72714 12.4225C6.52914 12.569 6.37404 12.5685 6.36016 12.5685V10.886V9.20346C5.87028 9.20346 5.26018 9.32204 4.72618 9.71698C4.13169 10.1567 3.76762 10.8463 3.76762 11.642H5.45016ZM6.36016 10.886V12.5685C6.33014 12.5685 6.17106 12.5646 5.97416 12.4175C5.86687 12.3373 5.75745 12.2192 5.6783 12.0619C5.59856 11.9036 5.57362 11.7534 5.57362 11.642H7.25616H8.9387C8.9387 10.8476 8.57607 10.161 7.98866 9.72202C7.45926 9.32636 6.85217 9.20346 6.36016 9.20346V10.886ZM7.25616 11.642H5.57362V13.14H7.25616H8.9387V11.642H7.25616ZM7.25616 13.14H5.57362C5.57362 13.3746 5.597 14.0388 6.13817 14.58C6.67935 15.1212 7.34358 15.1445 7.57816 15.1445V13.462V11.7795C7.6051 11.7795 7.72212 11.7803 7.88174 11.8251C8.05688 11.8742 8.29799 11.9809 8.51764 12.2005C8.7373 12.4202 8.84393 12.6613 8.89305 12.8364C8.93781 12.996 8.9387 13.1131 8.9387 13.14H7.25616ZM12.4642 4.978H14.1467C14.1467 4.48797 14.0107 3.98429 13.6959 3.53614C13.3916 3.10297 12.9858 2.81414 12.5848 2.62287C11.8261 2.26099 10.8735 2.14746 9.86016 2.14746V3.83V5.51254C10.2625 5.51254 10.5657 5.53704 10.7872 5.57241C11.0135 5.60856 11.1145 5.64984 11.136 5.66013C11.1533 5.66835 11.0493 5.62278 10.9424 5.47049C10.8248 5.30321 10.7816 5.11803 10.7816 4.978H12.4642ZM9.86016 3.83V2.14746C8.84683 2.14746 7.89422 2.26099 7.13554 2.62287C6.73454 2.81414 6.32871 3.10297 6.02441 3.53614C5.70959 3.98429 5.57362 4.48797 5.57362 4.978H7.25616H8.9387C8.9387 5.11803 8.89548 5.30321 8.77797 5.47049C8.67098 5.62278 8.56703 5.66835 8.58428 5.66013C8.60584 5.64984 8.70686 5.60856 8.93315 5.57241C9.15461 5.53704 9.45783 5.51254 9.86016 5.51254V3.83ZM7.25616 4.978H5.57362C5.57362 5.46803 5.70959 5.97171 6.02441 6.41986C6.32871 6.85303 6.73454 7.14186 7.13554 7.33313C7.89422 7.69501 8.84683 7.80854 9.86016 7.80854V6.126V4.44346C9.45783 4.44346 9.15461 4.41896 8.93315 4.38359C8.70686 4.34744 8.60584 4.30616 8.58427 4.29587C8.56703 4.28764 8.67098 4.33322 8.77797 4.48551C8.89548 4.65279 8.9387 4.83797 8.9387 4.978H7.25616ZM9.86016 6.126V7.80854C10.8735 7.80854 11.8261 7.69501 12.5848 7.33313C12.9858 7.14186 13.3916 6.85303 13.6959 6.41986C14.0107 5.97171 14.1467 5.46803 14.1467 4.978H12.4642H10.7816C10.7816 4.83797 10.8248 4.65279 10.9424 4.48551C11.0493 4.33322 11.1533 4.28764 11.136 4.29587C11.1145 4.30616 11.0135 4.34744 10.7872 4.38359C10.5657 4.41896 10.2625 4.44346 9.86016 4.44346V6.126ZM21.4403 11.614V13.2965H23.1229V11.614H21.4403ZM21.4403 9.136H23.1229V7.45346H21.4403V9.136ZM23.2323 9.136V7.45346H21.5498V9.136H23.2323ZM23.2323 11.614H21.5498V13.2965H23.2323V11.614ZM27.6283 13.126V11.4435H17.0443V13.126V14.8085H27.6283V13.126ZM17.0443 13.126V11.4435C17.1666 11.4435 17.3316 11.4695 17.5069 11.5559C17.6829 11.6427 17.8193 11.7658 17.9147 11.8935C18.0914 12.1301 18.0969 12.3315 18.0969 12.37H16.4143H14.7318C14.7318 12.8145 14.8353 13.3939 15.2185 13.907C15.6491 14.4836 16.3131 14.8085 17.0443 14.8085V13.126ZM16.4143 12.37H18.0969C18.0969 12.4085 18.0914 12.6099 17.9147 12.8465C17.8193 12.9742 17.6829 13.0973 17.5069 13.1841C17.3316 13.2705 17.1666 13.2965 17.0443 13.2965V11.614V9.93146C16.3131 9.93146 15.6491 10.2564 15.2185 10.833C14.8353 11.3461 14.7318 11.9255 14.7318 12.37H16.4143ZM17.0443 11.614V13.2965H21.4403V11.614V9.93146H17.0443V11.614ZM21.4403 11.614H23.1229V9.136H21.4403H19.7578V11.614H21.4403ZM21.4403 9.136V7.45346H19.1163V9.136V10.8185H21.4403V9.136ZM19.1163 9.136V7.45346C18.9658 7.45346 18.9375 7.44009 18.9768 7.45034C19.0315 7.46458 19.1935 7.51934 19.3579 7.67906C19.5246 7.84103 19.5884 8.00851 19.6079 8.07916C19.6224 8.13143 19.6089 8.11555 19.6089 7.974H17.9263H16.2438C16.2438 8.50508 16.3096 9.40917 17.0128 10.0924C17.7019 10.7621 18.5963 10.8185 19.1163 10.8185V9.136ZM17.9263 7.974H19.6089V3.984H17.9263H16.2438V7.974H17.9263ZM17.9263 3.984H19.6089C19.6089 3.84245 19.6224 3.82657 19.6079 3.87884C19.5884 3.94949 19.5246 4.11697 19.3579 4.27894C19.1935 4.43866 19.0315 4.49342 18.9768 4.50766C18.9375 4.51791 18.9658 4.50454 19.1163 4.50454V2.822V1.13946C18.5963 1.13946 17.7019 1.19594 17.0128 1.86556C16.3096 2.54883 16.2438 3.45291 16.2438 3.984H17.9263ZM19.1163 2.822V4.50454H26.0603V2.822V1.13946H19.1163V2.822ZM26.0603 2.822V4.50454C25.9381 4.50454 25.7731 4.47854 25.5977 4.39207C25.4218 4.30533 25.2854 4.18223 25.19 4.05454C25.0133 3.81788 25.0078 3.61651 25.0078 3.578H26.6903H28.3729C28.3729 3.13349 28.2694 2.55412 27.8862 2.04096C27.4556 1.46437 26.7916 1.13946 26.0603 1.13946V2.822ZM26.6903 3.578H25.0078C25.0078 3.53949 25.0133 3.33812 25.19 3.10146C25.2854 2.97377 25.4218 2.85067 25.5977 2.76393C25.7731 2.67746 25.9381 2.65146 26.0603 2.65146V4.334V6.01654C26.7916 6.01654 27.4556 5.69163 27.8862 5.11504C28.2694 4.60188 28.3729 4.02251 28.3729 3.578H26.6903ZM26.0603 4.334V2.65146H20.0543V4.334V6.01654H26.0603V4.334ZM20.0543 4.334V2.65146C19.8198 2.65146 19.1555 2.67484 18.6144 3.21601C18.0732 3.75719 18.0498 4.42143 18.0498 4.656H19.7323H21.4149C21.4149 4.68294 21.414 4.79996 21.3692 4.95958C21.3201 5.13472 21.2135 5.37583 20.9938 5.59548C20.7742 5.81514 20.5331 5.92178 20.3579 5.97089C20.1983 6.01565 20.0813 6.01654 20.0543 6.01654V4.334ZM19.7323 4.656H18.0498V7.302H19.7323H21.4149V4.656H19.7323ZM19.7323 7.302H18.0498C18.0498 7.53657 18.0732 8.20081 18.6144 8.74198C19.1555 9.28316 19.8198 9.30654 20.0543 9.30654V7.624V5.94146C20.0813 5.94146 20.1983 5.94235 20.3579 5.98711C20.5331 6.03622 20.7742 6.14286 20.9938 6.36252C21.2135 6.58217 21.3201 6.82328 21.3692 6.99842C21.414 7.15804 21.4149 7.27506 21.4149 7.302H19.7323ZM20.0543 7.624V9.30654H26.2003V7.624V5.94146H20.0543V7.624ZM26.2003 7.624V9.30654C26.0781 9.30654 25.9131 9.28054 25.7377 9.19407C25.5618 9.10733 25.4254 8.98423 25.33 8.85654C25.1533 8.61988 25.1478 8.41851 25.1478 8.38H26.8303H28.5129C28.5129 7.93549 28.4094 7.35612 28.0262 6.84296C27.5956 6.26637 26.9316 5.94146 26.2003 5.94146V7.624ZM26.8303 8.38H25.1478C25.1478 8.34149 25.1533 8.14012 25.33 7.90346C25.4254 7.77577 25.5618 7.65267 25.7377 7.56592C25.9131 7.47946 26.0781 7.45346 26.2003 7.45346V9.136V10.8185C26.9316 10.8185 27.5956 10.4936 28.0262 9.91704C28.4094 9.40388 28.5129 8.82451 28.5129 8.38H26.8303ZM26.2003 9.136V7.45346H23.2323V9.136V10.8185H26.2003V9.136ZM23.2323 9.136H21.5498V11.614H23.2323H24.9149V9.136H23.2323ZM23.2323 11.614V13.2965H27.6283V11.614V9.93146H23.2323V11.614ZM27.6283 11.614V13.2965C27.5061 13.2965 27.3411 13.2705 27.1657 13.1841C26.9898 13.0973 26.8534 12.9742 26.758 12.8465C26.5813 12.6099 26.5758 12.4085 26.5758 12.37H28.2583H29.9409C29.9409 11.9255 29.8374 11.3461 29.4542 10.833C29.0236 10.2564 28.3596 9.93146 27.6283 9.93146V11.614ZM28.2583 12.37H26.5758C26.5758 12.3315 26.5813 12.1301 26.758 11.8935C26.8534 11.7658 26.9898 11.6427 27.1657 11.5559C27.3411 11.4695 27.5061 11.4435 27.6283 11.4435V13.126V14.8085C28.3596 14.8085 29.0236 14.4836 29.4542 13.907C29.8374 13.3939 29.9409 12.8145 29.9409 12.37H28.2583ZM33.6785 5.286V3.60346H31.996V5.286H33.6785ZM34.6725 8.394L35.8623 7.20426L34.6725 8.394ZM36.1845 9.808L37.2925 8.54176L36.1845 9.808ZM35.0505 10.998L33.9357 12.2582L33.9426 12.2642L35.0505 10.998ZM33.7485 9.752L32.5588 10.9417L33.7485 9.752ZM32.7965 8.52L34.443 8.17338L34.1617 6.83746H32.7965V8.52ZM32.7825 8.52V6.83746H31.4265L31.1384 8.16258L32.7825 8.52ZM31.8305 9.808L30.6639 8.59559L30.6577 8.60163L31.8305 9.808ZM30.3045 11.208L31.3618 12.517L31.3718 12.5087L30.3045 11.208ZM29.1845 11.026L27.8874 12.0976L27.8971 12.1094L27.9071 12.121L29.1845 11.026ZM29.2265 9.934L28.1464 8.6439L28.1443 8.64567L29.2265 9.934ZM30.8925 8.394L29.7028 7.20426L30.8925 8.394ZM31.8865 5.286H33.5691V3.60346H31.8865V5.286ZM31.8865 3.76V5.44254H33.5691V3.76H31.8865ZM33.6785 3.76H31.996V5.44254H33.6785V3.76ZM39.0125 6.168H37.33V7.85054H39.0125V6.168ZM39.0125 7.722V6.03946H37.33V7.722H39.0125ZM35.7365 5.286V3.60346H33.6785V5.286V6.96854H35.7365V5.286ZM33.6785 5.286H31.996V5.958H33.6785H35.3611V5.286H33.6785ZM33.6785 5.958H31.996C31.996 6.61964 32.0528 7.28672 32.3245 7.95014C32.5978 8.61759 33.0248 9.12572 33.4828 9.58373L34.6725 8.394L35.8623 7.20426C35.5363 6.87828 35.4662 6.74241 35.4386 6.67486C35.4093 6.60328 35.3611 6.44436 35.3611 5.958H33.6785ZM34.6725 8.394L33.4828 9.58373C34.0733 10.1742 34.6052 10.6618 35.0766 11.0742L36.1845 9.808L37.2925 8.54176C36.8679 8.17024 36.3918 7.73379 35.8623 7.20426L34.6725 8.394ZM36.1845 9.808L35.0766 11.0742C34.7545 10.7924 34.6902 10.4139 34.7141 10.1846C34.7343 9.99104 34.8138 9.83522 34.9388 9.71027L36.1285 10.9L37.3183 12.0897C37.7232 11.6848 37.9988 11.13 38.061 10.5339C38.1269 9.90211 37.9506 9.11758 37.2925 8.54176L36.1845 9.808ZM36.1285 10.9L34.9388 9.71027C35.0331 9.61601 35.1768 9.52528 35.3832 9.49714C35.6235 9.46437 35.9245 9.52698 36.1585 9.73176L35.0505 10.998L33.9426 12.2642C35.1683 13.3367 36.6458 12.7622 37.3183 12.0897L36.1285 10.9ZM35.0505 10.998L36.1653 9.73778C35.8411 9.45095 35.4365 9.06048 34.9383 8.56226L33.7485 9.752L32.5588 10.9417C33.0686 11.4515 33.532 11.9011 33.9357 12.2582L35.0505 10.998ZM33.7485 9.752L34.9383 8.56226C34.7641 8.38813 34.6344 8.25416 34.5365 8.1482C34.4373 8.0408 34.3849 7.97722 34.3589 7.94306C34.3341 7.91051 34.35 7.92635 34.3761 7.97919C34.4071 8.04226 34.43 8.11176 34.443 8.17338L32.7965 8.52L31.1501 8.86662C31.3282 9.71281 31.9213 10.3042 32.5588 10.9417L33.7485 9.752ZM32.7965 8.52V6.83746H32.7825V8.52V10.2025H32.7965V8.52ZM32.7825 8.52L31.1384 8.16258C31.137 8.16895 31.1441 8.13559 31.1638 8.08983C31.1829 8.04569 31.1975 8.02765 31.186 8.04377C31.1712 8.0647 31.1312 8.11694 31.0434 8.21255C30.9562 8.30752 30.8347 8.43124 30.6639 8.59561L31.8305 9.808L32.9972 11.0204C33.7663 10.2803 34.2418 9.72775 34.4267 8.87742L32.7825 8.52ZM31.8305 9.808L30.6577 8.60163C30.1478 9.09736 29.7203 9.51092 29.2373 9.90727L30.3045 11.208L31.3718 12.5087C31.9807 12.0091 32.5053 11.4986 33.0034 11.0144L31.8305 9.808ZM30.3045 11.208L29.2473 9.89908C29.5381 9.66424 29.8724 9.65129 30.0705 9.69569C30.2346 9.73247 30.3605 9.81257 30.462 9.93102L29.1845 11.026L27.9071 12.121C28.2606 12.5334 28.7645 12.8515 29.3345 12.9793C29.9387 13.1147 30.707 13.0458 31.3617 12.5169L30.3045 11.208ZM29.1845 11.026L30.4817 9.95442C30.5704 10.0618 30.6571 10.2334 30.6571 10.4695C30.6571 10.7414 30.5361 11.0314 30.3087 11.2223L29.2265 9.934L28.1443 8.64567C26.8775 9.7098 27.2239 11.2944 27.8874 12.0976L29.1845 11.026ZM29.2265 9.934L30.3066 11.2241C30.9583 10.6785 31.5 10.166 32.0823 9.58373L30.8925 8.394L29.7028 7.20426C29.1651 7.74197 28.6987 8.18152 28.1465 8.6439L29.2265 9.934ZM30.8925 8.394L32.0823 9.58373C32.5403 9.12572 32.9672 8.61759 33.2406 7.95014C33.5123 7.28672 33.5691 6.61964 33.5691 5.958H31.8865H30.204C30.204 6.44436 30.1558 6.60328 30.1265 6.67486C30.0988 6.74241 30.0288 6.87828 29.7028 7.20426L30.8925 8.394ZM31.8865 5.958H33.5691V5.286H31.8865H30.204V5.958H31.8865ZM31.8865 5.286V3.60346H29.7165V5.286V6.96854H31.8865V5.286ZM29.7165 5.286V3.60346C29.8388 3.60346 30.0038 3.62946 30.1791 3.71593C30.355 3.80267 30.4915 3.92577 30.5869 4.05346C30.7636 4.29012 30.7691 4.49149 30.7691 4.53H29.0865H27.404C27.404 4.97451 27.5075 5.55388 27.8907 6.06704C28.3213 6.64363 28.9853 6.96854 29.7165 6.96854V5.286ZM29.0865 4.53H30.7691C30.7691 4.55114 30.7683 4.74837 30.5929 4.98616C30.4978 5.11509 30.3606 5.24033 30.1825 5.32864C30.0052 5.41655 29.8387 5.44254 29.7165 5.44254V3.76V2.07746C28.9837 2.07746 28.3159 2.40406 27.8847 2.98884C27.5028 3.50662 27.404 4.08885 27.404 4.53H29.0865ZM29.7165 3.76V5.44254H31.8865V3.76V2.07746H29.7165V3.76ZM31.8865 3.76H33.5691V2.766H31.8865H30.204V3.76H31.8865ZM31.8865 2.766H33.5691C33.5691 2.87735 33.5441 3.02757 33.4644 3.18594C33.3852 3.34316 33.2758 3.4613 33.1685 3.54148C32.9716 3.68864 32.8125 3.69254 32.7825 3.69254V2.01V0.32746C32.2905 0.32746 31.6834 0.450357 31.154 0.846018C30.5666 1.28503 30.204 1.97162 30.204 2.766H31.8865ZM32.7825 2.01V3.69254C32.7525 3.69254 32.5934 3.68864 32.3965 3.54148C32.2892 3.4613 32.1798 3.34316 32.1007 3.18594C32.0209 3.02757 31.996 2.87735 31.996 2.766H33.6785H35.3611C35.3611 1.97162 34.9984 1.28503 34.411 0.846018C33.8816 0.450357 33.2745 0.32746 32.7825 0.32746V2.01ZM33.6785 2.766H31.996V3.76H33.6785H35.3611V2.766H33.6785ZM33.6785 3.76V5.44254H35.7365V3.76V2.07746H33.6785V3.76ZM35.7365 3.76V5.44254C35.6143 5.44254 35.4479 5.41655 35.2706 5.32864C35.0925 5.24033 34.9553 5.1151 34.8602 4.98616C34.6848 4.74837 34.684 4.55114 34.684 4.53H36.3665H38.0491C38.0491 4.08885 37.9503 3.50662 37.5684 2.98884C37.1371 2.40406 36.4693 2.07746 35.7365 2.07746V3.76ZM36.3665 4.53H34.684C34.684 4.49149 34.6895 4.29012 34.8662 4.05346C34.9616 3.92577 35.098 3.80267 35.2739 3.71593C35.4493 3.62946 35.6143 3.60346 35.7365 3.60346V5.286V6.96854C36.4678 6.96854 37.1317 6.64363 37.5624 6.06704C37.9456 5.55388 38.0491 4.97451 38.0491 4.53H36.3665ZM39.0125 6.168V7.85054H40.3285V6.168V4.48546H39.0125V6.168ZM40.3285 6.168V7.85054C40.2178 7.85054 40.0589 7.82779 39.8853 7.7438C39.7098 7.65889 39.5708 7.53608 39.4725 7.40502C39.2907 7.16268 39.29 6.95879 39.29 6.938H40.9725H42.6551C42.6551 6.49721 42.5563 5.90832 42.1646 5.38598C41.7225 4.79658 41.0491 4.48546 40.3285 4.48546V6.168ZM40.9725 6.938H39.29C39.29 6.93422 39.2864 6.73446 39.4665 6.49126C39.5645 6.35896 39.7043 6.23403 39.882 6.14758C40.0575 6.06219 40.2179 6.03946 40.3285 6.03946V7.722V9.40454C41.0505 9.40454 41.7279 9.09183 42.1706 8.49424C42.5607 7.96754 42.6551 7.37578 42.6551 6.938H40.9725ZM40.3285 7.722V6.03946H39.0125V7.722V9.40454H40.3285V7.722ZM39.0125 7.722H37.33V13.518H39.0125H40.6951V7.722H39.0125ZM39.0125 13.518H37.33C37.33 13.4066 37.3549 13.2564 37.4347 13.0981C37.5138 12.9408 37.6232 12.8227 37.7305 12.7425C37.9274 12.5954 38.0865 12.5915 38.1165 12.5915V14.274V15.9565C38.6085 15.9565 39.2156 15.8336 39.745 15.438C40.3324 14.999 40.6951 14.3124 40.6951 13.518H39.0125ZM38.1165 14.274V12.5915C38.1465 12.5915 38.3056 12.5954 38.5025 12.7425C38.6098 12.8227 38.7192 12.9408 38.7984 13.0981C38.8781 13.2564 38.9031 13.4066 38.9031 13.518H37.2205H35.538C35.538 14.3124 35.9006 14.999 36.488 15.438C37.0174 15.8336 37.6245 15.9565 38.1165 15.9565V14.274ZM37.2205 13.518H38.9031V2.794H37.2205H35.538V13.518H37.2205ZM37.2205 2.794H38.9031C38.9031 2.90535 38.8781 3.05556 38.7984 3.21394C38.7192 3.37116 38.6098 3.4893 38.5025 3.56948C38.3056 3.71664 38.1465 3.72054 38.1165 3.72054V2.038V0.35546C37.6245 0.35546 37.0174 0.478357 36.488 0.874017C35.9006 1.31303 35.538 1.99962 35.538 2.794H37.2205ZM38.1165 2.038V3.72054C38.0865 3.72054 37.9274 3.71664 37.7305 3.56948C37.6232 3.4893 37.5138 3.37116 37.4347 3.21394C37.3549 3.05556 37.33 2.90535 37.33 2.794H39.0125H40.6951C40.6951 1.99962 40.3324 1.31303 39.745 0.874017C39.2156 0.478357 38.6085 0.35546 38.1165 0.35546V2.038ZM39.0125 2.794H37.33V6.168H39.0125H40.6951V2.794H39.0125ZM51.5447 6.868L51.3294 5.19927L51.3212 5.20037L51.5447 6.868ZM52.2727 7.526L53.9469 7.35858L53.9463 7.35287L52.2727 7.526ZM51.7687 8.38L51.9924 10.0476L51.9986 10.0468L51.7687 8.38ZM54.7227 5.048H53.0402V6.73054H54.7227V5.048ZM54.7227 6.602V4.91946H53.0402V6.602H54.7227ZM46.2667 8.66V6.97746C46.1162 6.97746 46.0879 6.96409 46.1272 6.97434C46.1818 6.98858 46.3439 7.04334 46.5083 7.20306C46.6749 7.36503 46.7388 7.53251 46.7583 7.60316C46.7728 7.65543 46.7593 7.63955 46.7593 7.498H45.0767H43.3942C43.3942 8.02908 43.46 8.93317 44.1632 9.61644C44.8523 10.2861 45.7467 10.3425 46.2667 10.3425V8.66ZM45.0767 7.498H46.7593V3.368H45.0767H43.3942V7.498H45.0767ZM45.0767 3.368H46.7593C46.7593 3.47935 46.7343 3.62956 46.6546 3.78794C46.5754 3.94516 46.466 4.0633 46.3587 4.14348C46.1618 4.29064 46.0027 4.29454 45.9727 4.29454V2.612V0.92946C45.4807 0.92946 44.8736 1.05236 44.3442 1.44802C43.7568 1.88703 43.3942 2.57362 43.3942 3.368H45.0767ZM45.9727 2.612V4.29454C45.9588 4.29454 45.8037 4.29495 45.6057 4.14851C45.4975 4.06848 45.3864 3.94968 45.306 3.79069C45.2251 3.63072 45.2002 3.4793 45.2002 3.368H46.8827H48.5653C48.5653 2.57234 48.2012 1.88265 47.6067 1.44298C47.0727 1.04804 46.4626 0.92946 45.9727 0.92946V2.612ZM46.8827 3.368H45.2002V6.812H46.8827H48.5653V3.368H46.8827ZM46.8827 6.812H45.2002C45.2002 7.04657 45.2236 7.71081 45.7647 8.25199C46.3059 8.79316 46.9701 8.81654 47.2047 8.81654V7.134V5.45146C47.2317 5.45146 47.3487 5.45235 47.5083 5.49711C47.6834 5.54622 47.9246 5.65286 48.1442 5.87251C48.3639 6.09217 48.4705 6.33327 48.5196 6.50842C48.5644 6.66804 48.5653 6.78506 48.5653 6.812H46.8827ZM47.2047 7.134V8.81654C48.805 8.81654 50.3231 8.72931 51.7682 8.53563L51.5447 6.868L51.3212 5.20037C50.0504 5.37069 48.6844 5.45146 47.2047 5.45146V7.134ZM51.5447 6.868L51.76 8.53671C51.6508 8.5508 51.4967 8.5483 51.3221 8.49235C51.1458 8.43583 50.9931 8.33883 50.8746 8.22201C50.6481 7.99875 50.6067 7.77264 50.5991 7.69913L52.2727 7.526L53.9463 7.35287C53.8967 6.87336 53.7084 6.29025 53.2369 5.82549C52.7201 5.3161 52.0224 5.10988 51.3294 5.19929L51.5447 6.868ZM52.2727 7.526L50.5985 7.69342C50.5976 7.68459 50.5948 7.64964 50.603 7.59187C50.6111 7.53518 50.6332 7.43319 50.6976 7.31006C50.7648 7.18152 50.8759 7.0353 51.0443 6.91461C51.2147 6.79239 51.3922 6.73346 51.5388 6.71324L51.7687 8.38L51.9986 10.0468C52.7629 9.94134 53.3577 9.48514 53.6798 8.86894C53.9619 8.32935 53.988 7.76982 53.9469 7.35858L52.2727 7.526ZM51.7687 8.38L51.545 6.7124C50.4911 6.85377 48.9592 6.97746 46.2667 6.97746V8.66V10.3425C49.0623 10.3425 50.7503 10.2142 51.9924 10.0476L51.7687 8.38ZM54.7227 5.048V6.73054H56.0387V5.048V3.36546H54.7227V5.048ZM56.0387 5.048V6.73054C55.928 6.73054 55.7691 6.70779 55.5955 6.6238C55.42 6.53889 55.281 6.41608 55.1827 6.28502C55.0009 6.04268 55.0002 5.83879 55.0002 5.818H56.6827H58.3653C58.3653 5.37721 58.2665 4.78832 57.8748 4.26598C57.4327 3.67658 56.7593 3.36546 56.0387 3.36546V5.048ZM56.6827 5.818H55.0002C55.0002 5.81422 54.9966 5.61446 55.1767 5.37126C55.2747 5.23896 55.4145 5.11403 55.5922 5.02758C55.7677 4.94219 55.9281 4.91946 56.0387 4.91946V6.602V8.28454C56.7607 8.28454 57.4381 7.97183 57.8807 7.37424C58.2709 6.84754 58.3653 6.25578 58.3653 5.818H56.6827ZM56.0387 6.602V4.91946H54.7227V6.602V8.28454H56.0387V6.602ZM54.7227 6.602H53.0402V8.996H54.7227H56.4053V6.602H54.7227ZM54.7227 8.996H53.0402C53.0402 8.88465 53.0651 8.73443 53.1449 8.57606C53.224 8.41884 53.3334 8.3007 53.4407 8.22052C53.6376 8.07336 53.7967 8.06946 53.8267 8.06946V9.752V11.4345C54.3187 11.4345 54.9258 11.3116 55.4552 10.916C56.0426 10.477 56.4053 9.79038 56.4053 8.996H54.7227ZM53.8267 9.752V8.06946C53.8567 8.06946 54.0158 8.07336 54.2127 8.22052C54.32 8.3007 54.4294 8.41884 54.5086 8.57606C54.5883 8.73443 54.6133 8.88465 54.6133 8.996H52.9307H51.2482C51.2482 9.79038 51.6108 10.477 52.1982 10.916C52.7276 11.3116 53.3347 11.4345 53.8267 11.4345V9.752ZM52.9307 8.996H54.6133V2.794H52.9307H51.2482V8.996H52.9307ZM52.9307 2.794H54.6133C54.6133 2.90535 54.5883 3.05556 54.5086 3.21394C54.4294 3.37116 54.32 3.4893 54.2127 3.56948C54.0158 3.71664 53.8567 3.72054 53.8267 3.72054V2.038V0.35546C53.3347 0.35546 52.7276 0.478357 52.1982 0.874017C51.6108 1.31303 51.2482 1.99962 51.2482 2.794H52.9307ZM53.8267 2.038V3.72054C53.7967 3.72054 53.6376 3.71664 53.4407 3.56948C53.3334 3.4893 53.224 3.37116 53.1449 3.21394C53.0651 3.05556 53.0402 2.90535 53.0402 2.794H54.7227H56.4053C56.4053 1.99962 56.0426 1.31303 55.4552 0.874017C54.9258 0.478357 54.3187 0.35546 53.8267 0.35546V2.038ZM54.7227 2.794H53.0402V5.048H54.7227H56.4053V2.794H54.7227ZM46.5047 12.552H48.1873C48.1873 12.2129 48.2854 12.0718 48.5061 11.9316C48.8328 11.724 49.4971 11.5185 50.6347 11.5185V9.836V8.15346C49.1964 8.15346 47.7956 8.39602 46.7013 9.09143C45.501 9.85418 44.8222 11.0711 44.8222 12.552H46.5047ZM50.6347 9.836V11.5185C51.7724 11.5185 52.4366 11.724 52.7633 11.9316C52.984 12.0718 53.0822 12.2129 53.0822 12.552H54.7647H56.4473C56.4473 11.0711 55.7684 9.85418 54.5681 9.09143C53.4738 8.39602 52.0731 8.15346 50.6347 8.15346V9.836ZM54.7647 12.552H53.0822C53.0822 12.8911 52.984 13.0322 52.7633 13.1724C52.4366 13.38 51.7724 13.5855 50.6347 13.5855V15.268V16.9505C52.0731 16.9505 53.4738 16.708 54.5681 16.0126C55.7684 15.2498 56.4473 14.0329 56.4473 12.552H54.7647ZM50.6347 15.268V13.5855C49.4971 13.5855 48.8328 13.38 48.5061 13.1724C48.2854 13.0322 48.1873 12.8911 48.1873 12.552H46.5047H44.8222C44.8222 14.0329 45.501 15.2498 46.7013 16.0126C47.7956 16.708 49.1964 16.9505 50.6347 16.9505V15.268ZM52.9867 12.552H54.6693C54.6693 11.5965 54.2157 10.7183 53.3199 10.1783C52.5578 9.71893 51.6048 9.58146 50.6347 9.58146V11.264V12.9465C50.9817 12.9465 51.2263 12.9733 51.3903 13.0063C51.5565 13.0398 51.6028 13.0724 51.5826 13.0602C51.5516 13.0416 51.462 12.9753 51.3883 12.8425C51.3158 12.7118 51.3042 12.5988 51.3042 12.552H52.9867ZM50.6347 11.264V9.58146C49.6647 9.58146 48.7116 9.71893 47.9496 10.1783C47.0537 10.7183 46.6002 11.5965 46.6002 12.552H48.2827H49.9653C49.9653 12.5988 49.9537 12.7118 49.8811 12.8425C49.8074 12.9753 49.7178 13.0416 49.6869 13.0602C49.6666 13.0724 49.7129 13.0398 49.8792 13.0063C50.0431 12.9733 50.2878 12.9465 50.6347 12.9465V11.264ZM48.2827 12.552H46.6002C46.6002 13.5075 47.0537 14.3857 47.9496 14.9257C48.7116 15.3851 49.6647 15.5225 50.6347 15.5225V13.84V12.1575C50.2878 12.1575 50.0431 12.1307 49.8792 12.0977C49.7129 12.0642 49.6666 12.0316 49.6869 12.0438C49.7178 12.0624 49.8074 12.1287 49.8811 12.2615C49.9537 12.3922 49.9653 12.5052 49.9653 12.552H48.2827ZM50.6347 13.84V15.5225C51.6048 15.5225 52.5578 15.3851 53.3199 14.9257C54.2157 14.3857 54.6693 13.5075 54.6693 12.552H52.9867H51.3042C51.3042 12.5052 51.3158 12.3922 51.3883 12.2615C51.462 12.1287 51.5516 12.0624 51.5826 12.0438C51.6028 12.0316 51.5565 12.0642 51.3903 12.0977C51.2263 12.1307 50.9817 12.1575 50.6347 12.1575V13.84ZM67.1989 5.538H65.5164V7.22054H67.1989V5.538ZM67.1989 7.092V5.40946H65.5164V7.092H67.1989ZM63.6709 3.998H61.9884V8.002H63.6709H65.3534V3.998H63.6709ZM63.6709 8.002H61.9884C61.9884 8.14355 61.9748 8.15943 61.9893 8.10716C62.0088 8.03651 62.0727 7.86903 62.2394 7.70706C62.4037 7.54734 62.5658 7.49258 62.6204 7.47834C62.6597 7.46809 62.6315 7.48146 62.4809 7.48146V9.164V10.8465C63.001 10.8465 63.8953 10.7901 64.5844 10.1204C65.2876 9.43717 65.3534 8.53308 65.3534 8.002H63.6709ZM62.4809 9.164V7.48146H58.6589V9.164V10.8465H62.4809V9.164ZM58.6589 9.164V7.48146C58.5083 7.48146 58.4801 7.46809 58.5194 7.47834C58.574 7.49258 58.7361 7.54734 58.9004 7.70706C59.0671 7.86903 59.131 8.03651 59.1505 8.10716C59.165 8.15943 59.1514 8.14355 59.1514 8.002H57.4689H55.7864C55.7864 8.53308 55.8522 9.43717 56.5554 10.1204C57.2445 10.7901 58.1389 10.8465 58.6589 10.8465V9.164ZM57.4689 8.002H59.1514V3.998H57.4689H55.7864V8.002H57.4689ZM57.4689 3.998H59.1514C59.1514 3.85645 59.165 3.84057 59.1505 3.89284C59.131 3.96349 59.0671 4.13097 58.9004 4.29294C58.7361 4.45266 58.574 4.50742 58.5194 4.52166C58.4801 4.53191 58.5083 4.51854 58.6589 4.51854V2.836V1.15346C58.1389 1.15346 57.2445 1.20994 56.5554 1.87956C55.8522 2.56283 55.7864 3.46692 55.7864 3.998H57.4689ZM58.6589 2.836V4.51854H62.4809V2.836V1.15346H58.6589V2.836ZM62.4809 2.836V4.51854C62.6315 4.51854 62.6597 4.53191 62.6204 4.52166C62.5658 4.50742 62.4037 4.45266 62.2394 4.29294C62.0727 4.13097 62.0088 3.96349 61.9893 3.89284C61.9748 3.84057 61.9884 3.85645 61.9884 3.998H63.6709H65.3534C65.3534 3.46692 65.2876 2.56283 64.5844 1.87956C63.8953 1.20994 63.001 1.15346 62.4809 1.15346V2.836ZM61.9069 7.344H63.5894V4.656H61.9069H60.2244V7.344H61.9069ZM61.9069 4.656H63.5894C63.5894 4.42143 63.5661 3.75719 63.0249 3.21601C62.4837 2.67484 61.8195 2.65146 61.5849 2.65146V4.334V6.01654C61.558 6.01654 61.4409 6.01565 61.2813 5.97089C61.1062 5.92178 60.8651 5.81514 60.6454 5.59548C60.4258 5.37583 60.3191 5.13472 60.27 4.95958C60.2253 4.79996 60.2244 4.68294 60.2244 4.656H61.9069ZM61.5849 4.334V2.65146H59.5549V4.334V6.01654H61.5849V4.334ZM59.5549 4.334V2.65146C59.3203 2.65146 58.6561 2.67484 58.1149 3.21601C57.5737 3.75719 57.5504 4.42142 57.5504 4.656H59.2329H60.9154C60.9154 4.68294 60.9146 4.79996 60.8698 4.95958C60.8207 5.13472 60.714 5.37583 60.4944 5.59549C60.2747 5.81514 60.0336 5.92178 59.8585 5.97089C59.6989 6.01565 59.5818 6.01654 59.5549 6.01654V4.334ZM59.2329 4.656H57.5504V7.344H59.2329H60.9154V4.656H59.2329ZM59.2329 7.344H57.5504C57.5504 7.57858 57.5737 8.24281 58.1149 8.78399C58.6561 9.32516 59.3203 9.34854 59.5549 9.34854V7.666V5.98346C59.5818 5.98346 59.6989 5.98435 59.8585 6.02911C60.0336 6.07822 60.2747 6.18486 60.4944 6.40452C60.714 6.62417 60.8207 6.86527 60.8698 7.04042C60.9146 7.20004 60.9154 7.31706 60.9154 7.344H59.2329ZM59.5549 7.666V9.34854H61.5849V7.666V5.98346H59.5549V7.666ZM61.5849 7.666V9.34854C61.8195 9.34854 62.4837 9.32516 63.0249 8.78398C63.5661 8.24281 63.5894 7.57857 63.5894 7.344H61.9069H60.2244C60.2244 7.31706 60.2253 7.20004 60.27 7.04042C60.3191 6.86528 60.4258 6.62417 60.6454 6.40452C60.8651 6.18486 61.1062 6.07822 61.2813 6.02911C61.4409 5.98435 61.558 5.98346 61.5849 5.98346V7.666ZM67.1989 5.538V7.22054H68.5149V5.538V3.85546H67.1989V5.538ZM68.5149 5.538V7.22054C68.4042 7.22054 68.2453 7.19779 68.0717 7.1138C67.8962 7.02889 67.7572 6.90608 67.6589 6.77502C67.4771 6.53268 67.4764 6.32879 67.4764 6.308H69.1589H70.8414C70.8414 5.86721 70.7427 5.27832 70.3509 4.75598C69.9089 4.16658 69.2355 3.85546 68.5149 3.85546V5.538ZM69.1589 6.308H67.4764C67.4764 6.30422 67.4727 6.10446 67.6529 5.86126C67.7509 5.72896 67.8907 5.60403 68.0684 5.51758C68.2439 5.43219 68.4043 5.40946 68.5149 5.40946V7.092V8.77454C69.2369 8.77454 69.9143 8.46183 70.3569 7.86424C70.7471 7.33754 70.8414 6.74578 70.8414 6.308H69.1589ZM68.5149 7.092V5.40946H67.1989V7.092V8.77454H68.5149V7.092ZM67.1989 7.092H65.5164V10.83H67.1989H68.8814V7.092H67.1989ZM67.1989 10.83H65.5164C65.5164 10.7186 65.5413 10.5684 65.621 10.4101C65.7002 10.2528 65.8096 10.1347 65.9169 10.0545C66.1138 9.90736 66.2729 9.90346 66.3029 9.90346V11.586V13.2685C66.7949 13.2685 67.402 13.1456 67.9314 12.75C68.5188 12.311 68.8814 11.6244 68.8814 10.83H67.1989ZM66.3029 11.586V9.90346C66.3329 9.90346 66.492 9.90736 66.6889 10.0545C66.7962 10.1347 66.9056 10.2528 66.9848 10.4101C67.0645 10.5684 67.0894 10.7186 67.0894 10.83H65.4069H63.7244C63.7244 11.6244 64.087 12.311 64.6744 12.75C65.2038 13.1456 65.8109 13.2685 66.3029 13.2685V11.586ZM65.4069 10.83H67.0894V2.794H65.4069H63.7244V10.83H65.4069ZM65.4069 2.794H67.0894C67.0894 2.90535 67.0645 3.05556 66.9848 3.21394C66.9056 3.37116 66.7962 3.4893 66.6889 3.56948C66.492 3.71664 66.3329 3.72054 66.3029 3.72054V2.038V0.35546C65.8109 0.35546 65.2038 0.478357 64.6744 0.874017C64.087 1.31303 63.7244 1.99962 63.7244 2.794H65.4069ZM66.3029 2.038V3.72054C66.2729 3.72054 66.1138 3.71664 65.9169 3.56948C65.8096 3.4893 65.7002 3.37116 65.621 3.21394C65.5413 3.05556 65.5164 2.90535 65.5164 2.794H67.1989H68.8814C68.8814 1.99962 68.5188 1.31303 67.9314 0.874017C67.402 0.478357 66.7949 0.35546 66.3029 0.35546V2.038ZM67.1989 2.794H65.5164V5.538H67.1989H68.8814V2.794H67.1989ZM66.8769 14.918V13.2355H60.1009V14.918V16.6005H66.8769V14.918ZM60.1009 14.918V13.2355C59.9503 13.2355 59.9221 13.2221 59.9614 13.2323C60.016 13.2466 60.1781 13.3013 60.3424 13.4611C60.5091 13.623 60.573 13.7905 60.5925 13.8612C60.607 13.9134 60.5934 13.8976 60.5934 13.756H58.9109H57.2284C57.2284 14.2871 57.2942 15.1912 57.9974 15.8744C58.6865 16.5441 59.5809 16.6005 60.1009 16.6005V14.918ZM58.9109 13.756H60.5934V11.11H58.9109H57.2284V13.756H58.9109ZM58.9109 11.11H60.5934C60.5934 11.2213 60.5685 11.3727 60.4876 11.5327C60.4072 11.6917 60.2961 11.8105 60.1879 11.8905C59.9899 12.037 59.8348 12.0365 59.8209 12.0365V10.354V8.67146C59.331 8.67146 58.7209 8.79004 58.1869 9.18498C57.5924 9.62465 57.2284 10.3143 57.2284 11.11H58.9109ZM59.8209 10.354V12.0365C59.7909 12.0365 59.6318 12.0326 59.4349 11.8855C59.3276 11.8053 59.2182 11.6872 59.139 11.5299C59.0593 11.3716 59.0344 11.2214 59.0344 11.11H60.7169H62.3994C62.3994 10.3156 62.0368 9.62903 61.4494 9.19002C60.92 8.79436 60.3129 8.67146 59.8209 8.67146V10.354ZM60.7169 11.11H59.0344V13.07H60.7169H62.3994V11.11H60.7169ZM60.7169 13.07H59.0344C59.0344 13.3046 59.0577 13.9688 59.5989 14.51C60.1401 15.0512 60.8043 15.0745 61.0389 15.0745V13.392V11.7095C61.0658 11.7095 61.1829 11.7103 61.3425 11.7551C61.5176 11.8042 61.7587 11.9109 61.9784 12.1305C62.198 12.3502 62.3047 12.5913 62.3538 12.7664C62.3986 12.926 62.3994 13.0431 62.3994 13.07H60.7169ZM61.0389 13.392V15.0745H66.8769V13.392V11.7095H61.0389V13.392ZM66.8769 13.392V15.0745C66.7547 15.0745 66.5883 15.0486 66.411 14.9606C66.2329 14.8723 66.0956 14.7471 66.0005 14.6182C65.8252 14.3804 65.8244 14.1831 65.8244 14.162H67.5069H69.1894C69.1894 13.7209 69.0906 13.1386 68.7088 12.6208C68.2775 12.0361 67.6097 11.7095 66.8769 11.7095V13.392ZM67.5069 14.162H65.8244C65.8244 14.1235 65.8298 13.9221 66.0066 13.6855C66.1019 13.5578 66.2384 13.4347 66.4143 13.3479C66.5897 13.2615 66.7546 13.2355 66.8769 13.2355V14.918V16.6005C67.6082 16.6005 68.2721 16.2756 68.7027 15.699C69.086 15.1859 69.1894 14.6065 69.1894 14.162H67.5069ZM70.9391 9.64V11.3225H72.6216V9.64H70.9391ZM70.9391 4.516H72.6216V2.83346H70.9391V4.516ZM75.8251 4.516V2.83346H74.1426V4.516H75.8251ZM75.8251 9.458H74.1426V11.249L75.93 11.1373L75.8251 9.458ZM76.4971 9.374L76.7058 11.0436L76.7124 11.0427L76.4971 9.374ZM77.2251 10.004L78.8987 9.83087L78.8981 9.82475L77.2251 10.004ZM76.7211 10.844L76.9435 12.5118L76.951 12.5108L76.7211 10.844ZM72.6471 9.626H70.9646V11.3085H72.6471V9.626ZM74.1171 9.584L74.2159 11.2636L75.7996 11.1705V9.584H74.1171ZM74.1171 4.516H75.7996V2.83346H74.1171V4.516ZM72.6471 4.516V2.83346H70.9646V4.516H72.6471ZM79.6751 6.168H77.9926V7.85054H79.6751V6.168ZM79.6751 7.722V6.03946H77.9926V7.722H79.6751ZM70.1971 11.124V9.44146C70.3194 9.44146 70.4829 9.46747 70.6563 9.5525C70.8301 9.63768 70.9657 9.75863 71.0612 9.88498C71.2391 10.1202 71.2496 10.3256 71.2496 10.382H69.5671H67.8846C67.8846 10.8304 67.993 11.4068 68.3775 11.915C68.8073 12.4833 69.4673 12.8065 70.1971 12.8065V11.124ZM69.5671 10.382H71.2496C71.2496 10.4384 71.2391 10.6438 71.0612 10.879C70.9657 11.0054 70.8301 11.1263 70.6563 11.2115C70.4829 11.2965 70.3194 11.3225 70.1971 11.3225V9.64V7.95746C69.4673 7.95746 68.8073 8.28072 68.3775 8.84898C67.993 9.35718 67.8846 9.93363 67.8846 10.382H69.5671ZM70.1971 9.64V11.3225H70.9391V9.64V7.95746H70.1971V9.64ZM70.9391 9.64H72.6216V4.516H70.9391H69.2566V9.64H70.9391ZM70.9391 4.516V2.83346H70.2811V4.516V6.19854H70.9391V4.516ZM70.2811 4.516V2.83346C70.4034 2.83346 70.5669 2.85947 70.7403 2.9445C70.9141 3.02968 71.0497 3.15063 71.1452 3.27698C71.3231 3.51218 71.3336 3.71763 71.3336 3.774H69.6511H67.9686C67.9686 4.22237 68.077 4.79882 68.4615 5.30702C68.8913 5.87528 69.5513 6.19854 70.2811 6.19854V4.516ZM69.6511 3.774H71.3336C71.3336 3.83037 71.3231 4.03582 71.1452 4.27102C71.0497 4.39737 70.9141 4.51832 70.7403 4.6035C70.5669 4.68853 70.4034 4.71454 70.2811 4.71454V3.032V1.34946C69.5513 1.34946 68.8913 1.67272 68.4615 2.24098C68.077 2.74918 67.9686 3.32563 67.9686 3.774H69.6511ZM70.2811 3.032V4.71454H76.3851V3.032V1.34946H70.2811V3.032ZM76.3851 3.032V4.71454C76.2628 4.71454 76.0993 4.68853 75.9258 4.6035C75.7521 4.51832 75.6165 4.39737 75.521 4.27102C75.343 4.03582 75.3326 3.83037 75.3326 3.774H77.0151H78.6976C78.6976 3.32563 78.5891 2.74918 78.2047 2.24098C77.7749 1.67272 77.1149 1.34946 76.3851 1.34946V3.032ZM77.0151 3.774H75.3326C75.3326 3.71763 75.343 3.51218 75.521 3.27698C75.6165 3.15063 75.7521 3.02968 75.9258 2.9445C76.0992 2.85947 76.2627 2.83346 76.3851 2.83346V4.516V6.19854C77.1149 6.19854 77.7749 5.87528 78.2047 5.30702C78.5891 4.79882 78.6976 4.22237 78.6976 3.774H77.0151ZM76.3851 4.516V2.83346H75.8251V4.516V6.19854H76.3851V4.516ZM75.8251 4.516H74.1426V9.458H75.8251H77.5076V4.516H75.8251ZM75.8251 9.458L75.93 11.1373C76.2149 11.1195 76.6276 11.0533 76.7058 11.0435L76.4971 9.374L76.2884 7.70445C75.9186 7.75068 75.8833 7.76854 75.7201 7.77874L75.8251 9.458ZM76.4971 9.374L76.7124 11.0427C76.4797 11.0727 76.1336 11.009 75.8539 10.7452C75.6138 10.5189 75.5623 10.278 75.5521 10.1832L77.2251 10.004L78.8981 9.82475C78.8459 9.338 78.6473 8.7541 78.1623 8.2968C77.6376 7.80203 76.9485 7.61927 76.2818 7.70529L76.4971 9.374ZM77.2251 10.004L75.5515 10.1771C75.5506 10.1682 75.5306 10.0016 75.6537 9.7688C75.7216 9.64038 75.8327 9.49585 75.9995 9.37679C76.1685 9.25617 76.3446 9.19746 76.4912 9.17724L76.7211 10.844L76.951 12.5108C77.7132 12.4056 78.3059 11.9519 78.6285 11.3417C78.9126 10.8044 78.9416 10.2458 78.8987 9.83087L77.2251 10.004ZM76.7211 10.844L76.4987 9.17622C74.9392 9.38416 73.2029 9.44146 70.1971 9.44146V11.124V12.8065C73.2113 12.8065 75.143 12.7518 76.9435 12.5118L76.7211 10.844ZM72.6471 9.626V11.3085C73.1822 11.3085 73.7052 11.2937 74.2159 11.2636L74.1171 9.584L74.0183 7.90436C73.577 7.93032 73.12 7.94346 72.6471 7.94346V9.626ZM74.1171 9.584H75.7996V4.516H74.1171H72.4346V9.584H74.1171ZM74.1171 4.516V2.83346H72.6471V4.516V6.19854H74.1171V4.516ZM72.6471 4.516H70.9646V9.626H72.6471H74.3296V4.516H72.6471ZM79.6751 6.168V7.85054H80.9911V6.168V4.48546H79.6751V6.168ZM80.9911 6.168V7.85054C80.8804 7.85054 80.7215 7.82779 80.5479 7.7438C80.3724 7.65889 80.2334 7.53608 80.1351 7.40502C79.9533 7.16268 79.9526 6.95879 79.9526 6.938H81.6351H83.3176C83.3176 6.49721 83.2189 5.90832 82.8271 5.38598C82.3851 4.79658 81.7117 4.48546 80.9911 4.48546V6.168ZM81.6351 6.938H79.9526C79.9526 6.93422 79.9489 6.73446 80.1291 6.49126C80.2271 6.35896 80.3669 6.23403 80.5446 6.14758C80.7201 6.06219 80.8805 6.03946 80.9911 6.03946V7.722V9.40454C81.7131 9.40454 82.3905 9.09183 82.8331 8.49424C83.2233 7.96754 83.3176 7.37578 83.3176 6.938H81.6351ZM80.9911 7.722V6.03946H79.6751V7.722V9.40454H80.9911V7.722ZM79.6751 7.722H77.9926V13.518H79.6751H81.3576V7.722H79.6751ZM79.6751 13.518H77.9926C77.9926 13.4066 78.0175 13.2564 78.0972 13.0981C78.1764 12.9408 78.2858 12.8227 78.3931 12.7425C78.59 12.5954 78.7491 12.5915 78.7791 12.5915V14.274V15.9565C79.2711 15.9565 79.8782 15.8336 80.4076 15.438C80.995 14.999 81.3576 14.3124 81.3576 13.518H79.6751ZM78.7791 14.274V12.5915C78.8091 12.5915 78.9682 12.5954 79.1651 12.7425C79.2724 12.8227 79.3818 12.9408 79.461 13.0981C79.5407 13.2564 79.5656 13.4066 79.5656 13.518H77.8831H76.2006C76.2006 14.3124 76.5632 14.999 77.1506 15.438C77.68 15.8336 78.2871 15.9565 78.7791 15.9565V14.274ZM77.8831 13.518H79.5656V2.794H77.8831H76.2006V13.518H77.8831ZM77.8831 2.794H79.5656C79.5656 2.90535 79.5407 3.05556 79.461 3.21394C79.3818 3.37116 79.2724 3.4893 79.1651 3.56948C78.9682 3.71664 78.8091 3.72054 78.7791 3.72054V2.038V0.35546C78.2871 0.35546 77.68 0.478357 77.1506 0.874017C76.5632 1.31303 76.2006 1.99962 76.2006 2.794H77.8831ZM78.7791 2.038V3.72054C78.7491 3.72054 78.59 3.71664 78.3931 3.56948C78.2858 3.4893 78.1764 3.37116 78.0972 3.21394C78.0175 3.05556 77.9926 2.90535 77.9926 2.794H79.6751H81.3576C81.3576 1.99962 80.995 1.31303 80.4076 0.874017C79.8782 0.478357 79.2711 0.35546 78.7791 0.35546V2.038ZM79.6751 2.794H77.9926V6.168H79.6751H81.3576V2.794H79.6751ZM86.6773 9.57L87.3914 11.0935L87.3991 11.0898L86.6773 9.57ZM85.6273 9.136L87.155 8.43092L87.1496 8.41937L87.1441 8.40791L85.6273 9.136ZM85.9353 8.072L85.2266 6.54598L85.2189 6.54961L85.9353 8.072ZM95.3853 5.048H93.7027V6.73054H95.3853V5.048ZM95.3853 6.602V4.91946H93.7027V6.602H95.3853ZM89.5613 4.278V2.59546H86.2853V4.278V5.96054H89.5613V4.278ZM86.2853 4.278V2.59546C86.4075 2.59546 86.5725 2.62146 86.7479 2.70792C86.9238 2.79467 87.0602 2.91777 87.1556 3.04546C87.3324 3.28212 87.3378 3.48349 87.3378 3.522H85.6553H83.9727C83.9727 3.96651 84.0762 4.54588 84.4595 5.05904C84.8901 5.63563 85.554 5.96054 86.2853 5.96054V4.278ZM85.6553 3.522H87.3378C87.3378 3.54314 87.337 3.74038 87.1617 3.97816C87.0666 4.10709 86.9293 4.23233 86.7512 4.32064C86.5739 4.40855 86.4075 4.43454 86.2853 4.43454V2.752V1.06946C85.5525 1.06946 84.8847 1.39606 84.4534 1.98084C84.0716 2.49862 83.9727 3.08085 83.9727 3.522H85.6553ZM86.2853 2.752V4.43454H90.4713V2.752V1.06946H86.2853V2.752ZM90.4713 2.752V4.43454C90.6219 4.43454 90.6501 4.44791 90.6108 4.43766C90.5562 4.42342 90.3941 4.36866 90.2298 4.20894C90.0631 4.04697 89.9992 3.87949 89.9797 3.80884C89.9652 3.75657 89.9787 3.77245 89.9787 3.914H91.6613H93.3438C93.3438 3.38291 93.278 2.47883 92.5748 1.79556C91.8857 1.12594 90.9913 1.06946 90.4713 1.06946V2.752ZM91.6613 3.914H89.9787V4.978H91.6613H93.3438V3.914H91.6613ZM91.6613 4.978H89.9787C89.9787 5.37333 89.9369 5.55589 89.8987 5.65608C89.8697 5.73229 89.8128 5.8438 89.613 6.02383C89.11 6.47686 88.1145 7.02478 85.9555 8.05015L86.6773 9.57L87.3991 11.0898C89.426 10.1272 90.9226 9.37313 91.8651 8.52417C92.388 8.0532 92.7922 7.51371 93.0437 6.85317C93.286 6.21661 93.3438 5.57666 93.3438 4.978H91.6613ZM86.6773 9.57L85.9632 8.04653C86.2358 7.91873 86.5467 7.94137 86.7768 8.05207C86.9678 8.144 87.0869 8.28341 87.155 8.43092L85.6273 9.136L84.0996 9.84108C84.5212 10.7546 85.8293 11.8257 87.3914 11.0935L86.6773 9.57ZM85.6273 9.136L87.1441 8.40791C87.178 8.47842 87.2384 8.64077 87.1902 8.88386C87.1635 9.01845 87.1029 9.17206 86.9922 9.31481C86.8803 9.45897 86.7523 9.54705 86.6517 9.59439L85.9353 8.072L85.2189 6.54961C84.4894 6.8929 84.03 7.52002 83.8894 8.22964C83.7642 8.86123 83.9086 9.44358 84.1104 9.86409L85.6273 9.136ZM85.9353 8.072L86.644 9.598C88.4528 8.75797 89.6668 8.14762 90.392 7.5396C90.81 7.18917 91.1635 6.76482 91.3693 6.21076C91.5596 5.69851 91.5658 5.21472 91.5658 4.922H89.8833H88.2007C88.2007 5.16828 88.1807 5.13074 88.2148 5.03892C88.2645 4.9053 88.3318 4.87558 88.2301 4.9609C87.9158 5.22438 87.1558 5.65003 85.2266 6.546L85.9353 8.072ZM89.8833 4.922H91.5658V4.6H89.8833H88.2007V4.922H89.8833ZM89.8833 4.6H91.5658C91.5658 4.36542 91.5424 3.70119 91.0013 3.16001C90.4601 2.61884 89.7959 2.59546 89.5613 2.59546V4.278V5.96054C89.5343 5.96054 89.4173 5.95965 89.2577 5.91489C89.0826 5.86578 88.8415 5.75914 88.6218 5.53949C88.4021 5.31983 88.2955 5.07873 88.2464 4.90358C88.2016 4.74396 88.2007 4.62694 88.2007 4.6H89.8833ZM95.3853 5.048V6.73054H96.7013V5.048V3.36546H95.3853V5.048ZM96.7013 5.048V6.73054C96.5906 6.73054 96.4316 6.70779 96.2581 6.6238C96.0826 6.53889 95.9435 6.41608 95.8453 6.28502C95.6635 6.04268 95.6627 5.83879 95.6627 5.818H97.3453H99.0278C99.0278 5.37721 98.9291 4.78832 98.5373 4.26598C98.0953 3.67658 97.4219 3.36546 96.7013 3.36546V5.048ZM97.3453 5.818H95.6627C95.6627 5.81422 95.6591 5.61446 95.8393 5.37126C95.9373 5.23896 96.0771 5.11403 96.2548 5.02758C96.4303 4.94219 96.5907 4.91946 96.7013 4.91946V6.602V8.28454C97.4233 8.28454 98.1006 7.97183 98.5433 7.37424C98.9335 6.84754 99.0278 6.25578 99.0278 5.818H97.3453ZM96.7013 6.602V4.91946H95.3853V6.602V8.28454H96.7013V6.602ZM95.3853 6.602H93.7027V8.996H95.3853H97.0678V6.602H95.3853ZM95.3853 8.996H93.7027C93.7027 8.88465 93.7277 8.73443 93.8074 8.57606C93.8866 8.41884 93.996 8.3007 94.1033 8.22052C94.3002 8.07336 94.4593 8.06946 94.4893 8.06946V9.752V11.4345C94.9813 11.4345 95.5884 11.3116 96.1178 10.916C96.7052 10.477 97.0678 9.79038 97.0678 8.996H95.3853ZM94.4893 9.752V8.06946C94.5193 8.06946 94.6784 8.07336 94.8753 8.22052C94.9826 8.3007 95.092 8.41884 95.1712 8.57606C95.2509 8.73443 95.2758 8.88465 95.2758 8.996H93.5933H91.9107C91.9107 9.79038 92.2734 10.477 92.8608 10.916C93.3902 11.3116 93.9973 11.4345 94.4893 11.4345V9.752ZM93.5933 8.996H95.2758V2.794H93.5933H91.9107V8.996H93.5933ZM93.5933 2.794H95.2758C95.2758 2.90535 95.2509 3.05556 95.1712 3.21394C95.092 3.37116 94.9826 3.4893 94.8753 3.56948C94.6784 3.71664 94.5193 3.72054 94.4893 3.72054V2.038V0.35546C93.9973 0.35546 93.3902 0.478357 92.8608 0.874017C92.2734 1.31303 91.9107 1.99962 91.9107 2.794H93.5933ZM94.4893 2.038V3.72054C94.4593 3.72054 94.3002 3.71664 94.1033 3.56948C93.996 3.4893 93.8866 3.37116 93.8074 3.21394C93.7277 3.05556 93.7027 2.90535 93.7027 2.794H95.3853H97.0678C97.0678 1.99962 96.7052 1.31303 96.1178 0.874017C95.5884 0.478357 94.9813 0.35546 94.4893 0.35546V2.038ZM95.3853 2.794H93.7027V5.048H95.3853H97.0678V2.794H95.3853ZM87.1673 12.552H88.8498C88.8498 12.2129 88.948 12.0718 89.1687 11.9316C89.4954 11.724 90.1596 11.5185 91.2973 11.5185V9.836V8.15346C89.8589 8.15346 88.4582 8.39602 87.3639 9.09143C86.1636 9.85418 85.4847 11.0711 85.4847 12.552H87.1673ZM91.2973 9.836V11.5185C92.4349 11.5185 93.0992 11.724 93.4259 11.9316C93.6466 12.0718 93.7447 12.2129 93.7447 12.552H95.4273H97.1098C97.1098 11.0711 96.431 9.85418 95.2307 9.09143C94.1364 8.39602 92.7356 8.15346 91.2973 8.15346V9.836ZM95.4273 12.552H93.7447C93.7447 12.8911 93.6466 13.0322 93.4259 13.1724C93.0992 13.38 92.4349 13.5855 91.2973 13.5855V15.268V16.9505C92.7356 16.9505 94.1364 16.708 95.2307 16.0126C96.431 15.2498 97.1098 14.0329 97.1098 12.552H95.4273ZM91.2973 15.268V13.5855C90.1596 13.5855 89.4954 13.38 89.1687 13.1724C88.948 13.0322 88.8498 12.8911 88.8498 12.552H87.1673H85.4847C85.4847 14.0329 86.1636 15.2498 87.3639 16.0126C88.4582 16.708 89.8589 16.9505 91.2973 16.9505V15.268ZM93.6493 12.552H95.3318C95.3318 11.5965 94.8783 10.7183 93.9824 10.1783C93.2204 9.71893 92.2673 9.58146 91.2973 9.58146V11.264V12.9465C91.6442 12.9465 91.8889 12.9733 92.0528 13.0063C92.2191 13.0398 92.2654 13.0724 92.2452 13.0602C92.2142 13.0416 92.1246 12.9753 92.0509 12.8425C91.9783 12.7118 91.9667 12.5988 91.9667 12.552H93.6493ZM91.2973 11.264V9.58146C90.3273 9.58146 89.3742 9.71893 88.6122 10.1783C87.7163 10.7183 87.2627 11.5965 87.2627 12.552H88.9453H90.6278C90.6278 12.5988 90.6162 12.7118 90.5437 12.8425C90.47 12.9753 90.3804 13.0416 90.3494 13.0602C90.3292 13.0724 90.3755 13.0398 90.5417 13.0063C90.7057 12.9733 90.9503 12.9465 91.2973 12.9465V11.264ZM88.9453 12.552H87.2627C87.2627 13.5075 87.7163 14.3857 88.6122 14.9257C89.3742 15.3851 90.3273 15.5225 91.2973 15.5225V13.84V12.1575C90.9503 12.1575 90.7057 12.1307 90.5417 12.0977C90.3755 12.0642 90.3292 12.0316 90.3494 12.0438C90.3804 12.0624 90.47 12.1287 90.5437 12.2615C90.6162 12.3922 90.6278 12.5052 90.6278 12.552H88.9453ZM91.2973 13.84V15.5225C92.2673 15.5225 93.2204 15.3851 93.9824 14.9257C94.8783 14.3857 95.3318 13.5075 95.3318 12.552H93.6493H91.9667C91.9667 12.5052 91.9783 12.3922 92.0509 12.2615C92.1246 12.1287 92.2142 12.0624 92.2452 12.0438C92.2654 12.0316 92.2191 12.0642 92.0528 12.0977C91.8889 12.1307 91.6442 12.1575 91.2973 12.1575V13.84ZM107.861 6.168H106.179V7.85054H107.861V6.168ZM107.861 7.722V6.03946H106.179V7.722H107.861ZM97.8795 7.008H99.562C99.562 5.8197 99.8125 5.19198 100.048 4.89154C100.228 4.66241 100.532 4.44854 101.239 4.44854V2.766V1.08346C99.7212 1.08346 98.3448 1.61159 97.4012 2.81396C96.5134 3.94502 96.1969 5.4383 96.1969 7.008H97.8795ZM101.239 2.766V4.44854C101.947 4.44854 102.251 4.66241 102.431 4.89154C102.666 5.19198 102.917 5.8197 102.917 7.008H104.599H106.282C106.282 5.4383 105.966 3.94502 105.078 2.81396C104.134 1.61159 102.758 1.08346 101.239 1.08346V2.766ZM104.599 7.008H102.917C102.917 8.1963 102.666 8.82402 102.431 9.12446C102.251 9.35359 101.947 9.56746 101.239 9.56746V11.25V12.9325C102.758 12.9325 104.134 12.4044 105.078 11.202C105.966 10.071 106.282 8.5777 106.282 7.008H104.599ZM101.239 11.25V9.56746C100.532 9.56746 100.228 9.35359 100.048 9.12446C99.8125 8.82402 99.562 8.1963 99.562 7.008H97.8795H96.1969C96.1969 8.5777 96.5134 10.071 97.4012 11.202C98.3448 12.4044 99.7212 12.9325 101.239 12.9325V11.25ZM102.877 7.008H104.56C104.56 6.05918 104.457 5.01456 103.969 4.16529C103.705 3.70446 103.324 3.29503 102.807 3.01379C102.299 2.73736 101.756 2.63746 101.239 2.63746V4.32V6.00254C101.325 6.00254 101.288 6.01814 101.2 5.97009C101.158 5.94722 101.12 5.91836 101.091 5.88857C101.062 5.85982 101.05 5.83965 101.051 5.83971C101.055 5.84694 101.097 5.92755 101.134 6.13831C101.171 6.34565 101.195 6.62951 101.195 7.008H102.877ZM101.239 4.32V2.63746C100.723 2.63746 100.18 2.73736 99.6719 3.01379C99.1546 3.29503 98.7739 3.70446 98.5095 4.16529C98.0223 5.01456 97.9189 6.05918 97.9189 7.008H99.6015H101.284C101.284 6.62951 101.308 6.34565 101.345 6.13831C101.382 5.92755 101.424 5.84694 101.428 5.83971C101.428 5.83965 101.417 5.85982 101.388 5.88857C101.359 5.91836 101.321 5.94722 101.279 5.97009C101.191 6.01814 101.154 6.00254 101.239 6.00254V4.32ZM99.6015 7.008H97.9189C97.9189 7.95682 98.0223 9.00144 98.5095 9.85071C98.7739 10.3115 99.1546 10.721 99.6719 11.0022C100.18 11.2786 100.723 11.3785 101.239 11.3785V9.696V8.01346C101.154 8.01346 101.191 7.99786 101.279 8.04591C101.321 8.06878 101.359 8.09764 101.388 8.12743C101.417 8.15618 101.428 8.17635 101.428 8.17629C101.424 8.16906 101.382 8.08845 101.345 7.87769C101.308 7.67035 101.284 7.38649 101.284 7.008H99.6015ZM101.239 9.696V11.3785C101.756 11.3785 102.299 11.2786 102.807 11.0022C103.324 10.721 103.705 10.3115 103.969 9.85071C104.457 9.00144 104.56 7.95682 104.56 7.008H102.877H101.195C101.195 7.38649 101.171 7.67035 101.134 7.87769C101.097 8.08845 101.055 8.16906 101.051 8.17629C101.05 8.17635 101.062 8.15618 101.091 8.12743C101.12 8.09764 101.158 8.06878 101.2 8.04591C101.288 7.99786 101.325 8.01346 101.239 8.01346V9.696ZM107.861 6.168V7.85054H109.177V6.168V4.48546H107.861V6.168ZM109.177 6.168V7.85054C109.067 7.85054 108.908 7.82779 108.734 7.7438C108.559 7.65889 108.42 7.53608 108.321 7.40502C108.14 7.16268 108.139 6.95879 108.139 6.938H109.821H111.504C111.504 6.49721 111.405 5.90832 111.014 5.38598C110.571 4.79658 109.898 4.48546 109.177 4.48546V6.168ZM109.821 6.938H108.139C108.139 6.93422 108.135 6.73446 108.315 6.49126C108.413 6.35896 108.553 6.23403 108.731 6.14758C108.906 6.06219 109.067 6.03946 109.177 6.03946V7.722V9.40454C109.899 9.40454 110.577 9.09183 111.019 8.49424C111.41 7.96754 111.504 7.37578 111.504 6.938H109.821ZM109.177 7.722V6.03946H107.861V7.722V9.40454H109.177V7.722ZM107.861 7.722H106.179V13.518H107.861H109.544V7.722H107.861ZM107.861 13.518H106.179C106.179 13.4066 106.204 13.2564 106.284 13.0981C106.363 12.9408 106.472 12.8227 106.579 12.7425C106.776 12.5954 106.935 12.5915 106.965 12.5915V14.274V15.9565C107.457 15.9565 108.065 15.8336 108.594 15.438C109.181 14.999 109.544 14.3124 109.544 13.518H107.861ZM106.965 14.274V12.5915C106.995 12.5915 107.155 12.5954 107.351 12.7425C107.459 12.8227 107.568 12.9408 107.647 13.0981C107.727 13.2564 107.752 13.4066 107.752 13.518H106.069H104.387C104.387 14.3124 104.75 14.999 105.337 15.438C105.866 15.8336 106.473 15.9565 106.965 15.9565V14.274ZM106.069 13.518H107.752V2.794H106.069H104.387V13.518H106.069ZM106.069 2.794H107.752C107.752 2.90535 107.727 3.05556 107.647 3.21394C107.568 3.37116 107.459 3.4893 107.351 3.56948C107.155 3.71664 106.995 3.72054 106.965 3.72054V2.038V0.35546C106.473 0.35546 105.866 0.478357 105.337 0.874017C104.75 1.31303 104.387 1.99962 104.387 2.794H106.069ZM106.965 2.038V3.72054C106.935 3.72054 106.776 3.71664 106.579 3.56948C106.472 3.4893 106.363 3.37116 106.284 3.21394C106.204 3.05556 106.179 2.90535 106.179 2.794H107.861H109.544C109.544 1.99962 109.181 1.31303 108.594 0.874017C108.065 0.478357 107.457 0.35546 106.965 0.35546V2.038ZM107.861 2.794H106.179V6.168H107.861H109.544V2.794H107.861ZM115.284 4.516V2.83346H113.601V4.516H115.284ZM116.32 8.24L115.109 9.40832L115.115 9.41419L116.32 8.24ZM117.804 9.654L118.915 8.39086L118.906 8.38252L117.804 9.654ZM117.762 10.76L118.951 11.9497L118.966 11.9352L118.98 11.9204L117.762 10.76ZM116.684 10.872L115.569 12.1322L115.576 12.1382L116.684 10.872ZM115.354 9.598L114.164 10.7877L115.354 9.598ZM114.388 8.282L116.034 7.93538L115.753 6.59946H114.388V8.282ZM114.374 8.282V6.59946H113.018L112.73 7.92458L114.374 8.282ZM111.854 11.096L112.94 12.3804L112.949 12.3735L112.957 12.3664L111.854 11.096ZM110.748 10.928L109.478 12.032L109.487 12.0429L109.497 12.0536L110.748 10.928ZM110.776 9.808L111.887 11.0711L111.888 11.0705L110.776 9.808ZM112.428 8.24L113.633 9.4142L113.638 9.4083L112.428 8.24ZM113.464 4.516H115.146V2.83346H113.464V4.516ZM117.258 4.516V2.83346H115.284V4.516V6.19854H117.258V4.516ZM115.284 4.516H113.601V5.58H115.284H116.966V4.516H115.284ZM115.284 5.58H113.601C113.601 6.30158 113.68 6.99661 113.947 7.67686C114.216 8.36415 114.629 8.91084 115.109 9.4083L116.32 8.24L117.53 7.0717C117.24 6.77116 117.135 6.58985 117.079 6.44764C117.021 6.29839 116.966 6.06242 116.966 5.58H115.284ZM116.32 8.24L115.115 9.41419C115.673 9.98686 116.239 10.5246 116.702 10.9255L117.804 9.654L118.906 8.38252C118.528 8.05543 118.031 7.58514 117.525 7.06581L116.32 8.24ZM117.804 9.654L116.692 10.9171C116.406 10.6652 116.319 10.3093 116.344 10.052C116.364 9.84218 116.45 9.69808 116.543 9.59963L117.762 10.76L118.98 11.9204C119.354 11.5279 119.635 10.9848 119.694 10.3725C119.757 9.71268 119.551 8.95076 118.915 8.39089L117.804 9.654ZM117.762 10.76L116.572 9.57026C116.654 9.48814 116.785 9.39957 116.987 9.36845C117.226 9.33148 117.542 9.38777 117.792 9.60576L116.684 10.872L115.576 12.1382C116.837 13.2423 118.322 12.5792 118.951 11.9497L117.762 10.76ZM116.684 10.872L117.798 9.61178C117.475 9.32559 117.043 8.90787 116.543 8.40826L115.354 9.598L114.164 10.7877C114.672 11.2961 115.164 11.7744 115.569 12.1322L116.684 10.872ZM115.354 9.598L116.543 8.40826C116.206 8.07129 116.058 7.88859 115.996 7.80109C115.97 7.76334 115.974 7.76334 115.989 7.79454C116.006 7.83152 116.023 7.8812 116.034 7.93538L114.388 8.282L112.741 8.62862C112.909 9.42571 113.431 10.0553 114.164 10.7877L115.354 9.598ZM114.388 8.282V6.59946H114.374V8.282V9.96454H114.388V8.282ZM114.374 8.282L112.73 7.92458C112.734 7.90484 112.743 7.87236 112.758 7.84031C112.77 7.8126 112.774 7.81217 112.75 7.84621C112.691 7.93112 112.547 8.10684 112.204 8.45026L113.394 9.64L114.583 10.8297C115.326 10.0875 115.835 9.4795 116.018 8.63942L114.374 8.282ZM113.394 9.64L112.204 8.45026C111.708 8.94573 111.237 9.40273 110.75 9.82563L111.854 11.096L112.957 12.3664C113.534 11.8653 114.071 11.3423 114.583 10.8297L113.394 9.64ZM111.854 11.096L110.767 9.81157C110.893 9.70451 111.053 9.62568 111.227 9.5903C111.393 9.5565 111.534 9.56961 111.633 9.59208C111.806 9.63149 111.917 9.71179 111.998 9.80244L110.748 10.928L109.497 12.0536C109.831 12.4242 110.313 12.7425 110.885 12.8729C111.503 13.0139 112.284 12.9358 112.94 12.3804L111.854 11.096ZM110.748 10.928L112.017 9.82395C112.119 9.94116 112.206 10.1177 112.208 10.3481C112.21 10.6084 112.099 10.8848 111.887 11.0711L110.776 9.808L109.664 8.54489C108.447 9.61565 108.753 11.1984 109.478 12.032L110.748 10.928ZM110.776 9.808L111.888 11.0705C112.506 10.5261 113.069 9.99269 113.633 9.41419L112.428 8.24L111.223 7.06581C110.722 7.57931 110.221 8.05393 109.663 8.54549L110.776 9.808ZM112.428 8.24L113.638 9.4083C114.118 8.91084 114.531 8.36415 114.801 7.67686C115.068 6.99661 115.146 6.30158 115.146 5.58H113.464H111.781C111.781 6.06242 111.727 6.29839 111.668 6.44764C111.612 6.58985 111.507 6.77116 111.217 7.0717L112.428 8.24ZM113.464 5.58H115.146V4.516H113.464H111.781V5.58H113.464ZM113.464 4.516V2.83346H111.378V4.516V6.19854H113.464V4.516ZM111.378 4.516V2.83346C111.5 2.83346 111.665 2.85946 111.84 2.94593C112.016 3.03267 112.153 3.15577 112.248 3.28346C112.425 3.52012 112.43 3.72149 112.43 3.76H110.748H109.065C109.065 4.20451 109.169 4.78388 109.552 5.29704C109.982 5.87363 110.646 6.19854 111.378 6.19854V4.516ZM110.748 3.76H112.43C112.43 3.78114 112.429 3.97837 112.254 4.21616C112.159 4.34509 112.022 4.47033 111.844 4.55864C111.666 4.64655 111.5 4.67254 111.378 4.67254V2.99V1.30746C110.645 1.30746 109.977 1.63406 109.546 2.21884C109.164 2.73662 109.065 3.31885 109.065 3.76H110.748ZM111.378 2.99V4.67254H117.258V2.99V1.30746H111.378V2.99ZM117.258 2.99V4.67254C117.135 4.67254 116.969 4.64655 116.792 4.55864C116.614 4.47033 116.476 4.3451 116.381 4.21616C116.206 3.97837 116.205 3.78114 116.205 3.76H117.888H119.57C119.57 3.31885 119.471 2.73662 119.09 2.21884C118.658 1.63406 117.99 1.30746 117.258 1.30746V2.99ZM117.888 3.76H116.205C116.205 3.72149 116.211 3.52012 116.387 3.28346C116.483 3.15577 116.619 3.03267 116.795 2.94593C116.97 2.85946 117.135 2.83346 117.258 2.83346V4.516V6.19854C117.989 6.19854 118.653 5.87363 119.083 5.29704C119.467 4.78388 119.57 4.20451 119.57 3.76H117.888ZM120.94 2.794H119.257V13.518H120.94H122.622V2.794H120.94ZM120.94 13.518H119.257C119.257 13.4067 119.282 13.2553 119.363 13.0953C119.443 12.9363 119.554 12.8175 119.663 12.7375C119.861 12.591 120.016 12.5915 120.03 12.5915V14.274V15.9565C120.52 15.9565 121.13 15.838 121.664 15.443C122.258 15.0033 122.622 14.3137 122.622 13.518H120.94ZM120.03 14.274V12.5915C120.06 12.5915 120.219 12.5954 120.416 12.7425C120.523 12.8227 120.632 12.9408 120.712 13.0981C120.791 13.2564 120.816 13.4066 120.816 13.518H119.134H117.451C117.451 14.3124 117.814 14.999 118.401 15.438C118.931 15.8336 119.538 15.9565 120.03 15.9565V14.274ZM119.134 13.518H120.816V2.794H119.134H117.451V13.518H119.134ZM119.134 2.794H120.816C120.816 2.90535 120.791 3.05556 120.712 3.21394C120.632 3.37116 120.523 3.4893 120.416 3.56948C120.219 3.71664 120.06 3.72054 120.03 3.72054V2.038V0.35546C119.538 0.35546 118.931 0.478357 118.401 0.874017C117.814 1.31303 117.451 1.99962 117.451 2.794H119.134ZM120.03 2.038V3.72054C120.016 3.72054 119.861 3.72095 119.663 3.57451C119.554 3.49448 119.443 3.37568 119.363 3.21669C119.282 3.05672 119.257 2.9053 119.257 2.794H120.94H122.622C122.622 1.99833 122.258 1.30865 121.664 0.868984C121.13 0.474044 120.52 0.35546 120.03 0.35546V2.038Z" fill="#FFFBEB" mask="url(#path-1-outside-1_21_7105)"/>
</g>
<defs>
<filter id="filter0_d_21_7105" x="0.255859" y="0.327637" width="124.366" height="20.623" filterUnits="userSpaceOnUse" color-interpolation-filters="sRGB">
<feFlood flood-opacity="0" result="BackgroundImageFix"/>
<feColorMatrix in="SourceAlpha" type="matrix" values="0 0 0 0 0 0 0 0 0 0 0 0 0 0 0 0 0 0 127 0" result="hardAlpha"/>
<feOffset dy="2"/>
<feGaussianBlur stdDeviation="1"/>
<feComposite in2="hardAlpha" operator="out"/>
<feColorMatrix type="matrix" values="0 0 0 0 0.580392 0 0 0 0 0.439216 0 0 0 0 0.368627 0 0 0 0.25 0"/>
<feBlend mode="normal" in2="BackgroundImageFix" result="effect1_dropShadow_21_7105"/>
<feBlend mode="normal" in="SourceGraphic" in2="effect1_dropShadow_21_7105" result="shape"/>
</filter>
</defs>
</svg>
