<svg width="89" height="21" viewBox="0 0 89 21" fill="none" xmlns="http://www.w3.org/2000/svg">
<g filter="url(#filter0_d_21_6219)">
<mask id="path-1-outside-1_21_6219" maskUnits="userSpaceOnUse" x="2" y="0" width="85" height="18" fill="black">
<rect fill="white" x="2" width="85" height="18"/>
<path d="M6.95644 4.614H4.53444C4.10044 4.614 3.90444 4.264 3.90444 3.858C3.90444 3.438 4.10044 3.088 4.53444 3.088H7.78244C8.67844 3.088 8.97244 3.368 8.97244 4.25V4.726H10.5544V2.878C10.5544 2.402 10.9604 2.178 11.3804 2.178C11.7864 2.178 12.1924 2.402 12.1924 2.878V12.986C12.1924 13.462 11.7864 13.686 11.3804 13.686C10.9604 13.686 10.5544 13.462 10.5544 12.986V9.388H9.53244C9.14044 9.388 8.95844 9.052 8.95844 8.632C8.95844 8.198 9.14044 7.862 9.53244 7.862H10.5544V6.224H8.97244C8.93044 8.422 8.48244 8.94 5.08044 11.362C4.71644 11.614 4.21244 11.46 3.97444 11.124C3.73644 10.788 3.66644 10.27 4.05844 9.99C7.18044 7.806 7.27844 7.61 7.27844 5.678V4.936C7.27844 4.698 7.19444 4.614 6.95644 4.614ZM13.1304 13.574V2.738C13.1304 2.262 13.5364 2.038 13.9564 2.038C14.3764 2.038 14.7824 2.262 14.7824 2.738V13.574C14.7824 14.05 14.3764 14.274 13.9564 14.274C13.5364 14.274 13.1304 14.05 13.1304 13.574ZM16.8846 9.374C17.8506 9.374 18.8026 9.374 19.7266 9.36V8.534C18.3266 8.352 17.5006 7.736 17.5006 6.728C17.5006 5.524 18.6766 4.88 20.5946 4.88C22.5126 4.88 23.6886 5.524 23.6886 6.728C23.6886 7.736 22.8626 8.352 21.4626 8.534V9.304C22.3726 9.276 23.2546 9.22 24.1366 9.136C24.5706 9.094 24.7806 9.374 24.8086 9.738C24.8366 10.102 24.6966 10.466 24.2766 10.508C22.5686 10.662 19.7826 10.774 16.8846 10.774C16.4786 10.774 16.2826 10.438 16.2826 10.074C16.2826 9.71 16.4786 9.374 16.8846 9.374ZM25.3546 14.484V13.154C25.3546 12.916 25.2706 12.832 25.0326 12.832H18.6906C18.2846 12.832 18.1026 12.496 18.1026 12.132C18.1026 11.754 18.2846 11.418 18.6906 11.418H25.9146C26.8106 11.418 27.1046 11.698 27.1046 12.58V14.484C27.1046 14.988 26.6706 15.226 26.2226 15.226C25.7886 15.226 25.3546 14.988 25.3546 14.484ZM25.3266 10.144V2.794C25.3266 2.276 25.7606 2.038 26.2226 2.038C26.6706 2.038 27.1046 2.276 27.1046 2.794V10.144C27.1046 10.662 26.6706 10.9 26.2226 10.9C25.7606 10.9 25.3266 10.662 25.3266 10.144ZM23.7586 4.432H17.2906C16.8986 4.432 16.7166 4.124 16.7166 3.746C16.7166 3.368 16.8986 3.046 17.2906 3.046H19.6986V2.5C19.6986 2.01 20.1046 1.772 20.5946 1.772C21.0566 1.772 21.4906 2.01 21.4906 2.5V3.046H23.7586C24.1506 3.046 24.3326 3.368 24.3326 3.746C24.3326 4.124 24.1506 4.432 23.7586 4.432ZM20.5946 7.316C21.6026 7.316 22.0786 7.106 22.0786 6.728C22.0786 6.35 21.6026 6.14 20.5946 6.14C19.5866 6.14 19.1106 6.35 19.1106 6.728C19.1106 7.106 19.5866 7.316 20.5946 7.316ZM30.1168 12.902C30.1168 11.404 31.4188 10.662 33.6448 10.508V9.612H29.2208C28.8008 9.612 28.6048 9.276 28.6048 8.87C28.6048 8.464 28.8008 8.128 29.2208 8.128H39.8328C40.2528 8.128 40.4488 8.464 40.4488 8.87C40.4488 9.276 40.2528 9.612 39.8328 9.612H35.4088V10.508C37.6208 10.662 38.9368 11.404 38.9368 12.902C38.9368 14.596 37.2708 15.324 34.5268 15.324C31.7828 15.324 30.1168 14.596 30.1168 12.902ZM30.5228 3.116H33.6168V2.556C33.6168 2.038 34.0508 1.786 34.5268 1.786C35.0028 1.786 35.4368 2.038 35.4368 2.556V3.116H38.5308C38.9508 3.116 39.1468 3.452 39.1468 3.844C39.1468 4.25 38.9508 4.586 38.5308 4.586H35.4368V4.684C35.4368 5.034 35.7588 5.3 36.5848 5.566C37.4808 5.86 38.1808 6.07 38.9788 6.294C39.3568 6.406 39.4828 6.812 39.3568 7.204C39.2308 7.596 38.8528 7.792 38.4048 7.666C37.7328 7.484 36.9488 7.246 36.1788 6.994C35.0168 6.616 34.6388 6.336 34.5408 6.014H34.5268C34.4148 6.392 34.0368 6.658 32.8748 7.036C32.1048 7.288 31.3208 7.526 30.6488 7.708C30.2008 7.834 29.8368 7.638 29.6968 7.232C29.5708 6.826 29.6828 6.406 30.0748 6.294C30.8728 6.07 31.5728 5.86 32.4688 5.566C33.2948 5.3 33.6168 5.034 33.6168 4.684V4.586H30.5228C30.1028 4.586 29.9068 4.25 29.9068 3.844C29.9068 3.452 30.1028 3.116 30.5228 3.116ZM37.1588 12.902C37.1588 12.258 36.4028 11.894 34.5268 11.894C32.6508 11.894 31.8948 12.258 31.8948 12.902C31.8948 13.546 32.6508 13.91 34.5268 13.91C36.4028 13.91 37.1588 13.546 37.1588 12.902ZM48.823 4.838H48.809C48.753 5.132 48.445 5.384 47.787 5.734C47.171 6.056 46.639 6.322 46.107 6.574C45.659 6.77 45.225 6.546 45.057 6.196C44.861 5.804 44.931 5.37 45.351 5.174C45.939 4.894 46.485 4.628 47.115 4.292C47.661 3.998 47.871 3.732 47.871 3.2V2.878C47.871 2.346 48.319 2.108 48.795 2.108C49.271 2.108 49.719 2.346 49.719 2.878V3.144C49.719 3.676 49.929 3.942 50.475 4.236C51.091 4.558 51.651 4.838 52.071 5.034C52.435 5.202 52.463 5.692 52.295 6.028C52.113 6.378 51.679 6.56 51.343 6.406C50.965 6.238 50.419 5.958 49.803 5.636C49.145 5.286 48.865 5.062 48.823 4.838ZM45.071 7.12C47.479 7.12 49.929 7.092 52.281 6.882C52.715 6.84 52.939 7.12 52.967 7.512C52.995 7.904 52.841 8.254 52.421 8.296C51.623 8.366 50.657 8.436 49.607 8.478V8.982C49.607 9.458 49.215 9.668 48.711 9.668C48.221 9.668 47.829 9.458 47.829 8.982V8.534C46.919 8.562 45.995 8.562 45.071 8.562C44.665 8.562 44.469 8.24 44.469 7.834C44.469 7.442 44.665 7.12 45.071 7.12ZM53.513 8.856V2.794C53.513 2.276 53.947 2.038 54.409 2.038C54.857 2.038 55.291 2.276 55.291 2.794V8.856C55.291 9.374 54.857 9.612 54.409 9.612C53.947 9.612 53.513 9.374 53.513 8.856ZM47.087 10.046H54.101C54.997 10.046 55.291 10.326 55.291 11.208V12.076C55.291 12.958 54.997 13.238 54.101 13.238H48.487C48.347 13.238 48.277 13.308 48.277 13.448V13.56C48.277 13.7 48.347 13.77 48.487 13.77H54.997C55.389 13.77 55.571 14.106 55.571 14.442C55.571 14.806 55.389 15.128 54.997 15.128H47.731C46.835 15.128 46.541 14.848 46.541 13.966V13.098C46.541 12.216 46.835 11.936 47.731 11.936H53.345C53.485 11.936 53.555 11.866 53.555 11.726V11.614C53.555 11.474 53.485 11.404 53.345 11.404H47.087C46.695 11.404 46.513 11.082 46.513 10.718C46.513 10.382 46.695 10.046 47.087 10.046ZM61.1032 4.418H58.0512C57.6172 4.418 57.4212 4.068 57.4212 3.662C57.4212 3.256 57.6172 2.906 58.0512 2.906H61.9992C62.8952 2.906 63.1892 3.186 63.1892 4.068V6.658C63.1892 7.54 62.8952 7.82 61.9992 7.82H59.5212C59.2832 7.82 59.1992 7.904 59.1992 8.142V9.514C59.1992 9.752 59.2832 9.836 59.5212 9.836C61.0752 9.836 62.5172 9.766 63.8192 9.584C64.2532 9.528 64.5052 9.836 64.5472 10.228C64.5892 10.648 64.4492 11.026 64.0432 11.082C62.9512 11.236 61.3412 11.348 58.6252 11.348C57.7292 11.348 57.4352 11.068 57.4352 10.186V7.526C57.4352 6.644 57.7292 6.364 58.6252 6.364H61.1032C61.3412 6.364 61.4252 6.28 61.4252 6.042V4.74C61.4252 4.502 61.3412 4.418 61.1032 4.418ZM65.8212 13.518V7.68H64.4772C64.0292 7.68 63.8332 7.33 63.8332 6.91C63.8332 6.49 64.0292 6.14 64.4772 6.14H65.8212V2.794C65.8212 2.276 66.2552 2.038 66.7172 2.038C67.1652 2.038 67.5992 2.276 67.5992 2.794V13.518C67.5992 14.036 67.1652 14.274 66.7172 14.274C66.2552 14.274 65.8212 14.036 65.8212 13.518ZM80.6914 4.096H74.5034C74.0694 4.096 73.8734 3.746 73.8734 3.326C73.8734 2.906 74.0694 2.556 74.5034 2.556H81.6154C82.5114 2.556 82.8054 2.836 82.8054 3.718V4.74C82.8054 5.426 82.7354 6.07 82.5814 6.56C82.4274 7.05 81.9654 7.218 81.4754 7.106C81.0274 7.008 80.7334 6.7 80.8454 6.196C80.9574 5.706 81.0134 5.23 81.0134 4.698V4.418C81.0134 4.18 80.9294 4.096 80.6914 4.096ZM83.7154 9.248H73.1314C72.6974 9.248 72.5014 8.898 72.5014 8.492C72.5014 8.1 72.6974 7.75 73.1314 7.75H76.6314V6.224C76.6314 5.72 77.0654 5.482 77.5274 5.482C77.9894 5.482 78.4234 5.72 78.4234 6.224V7.75H83.7154C84.1494 7.75 84.3454 8.1 84.3454 8.492C84.3454 8.898 84.1494 9.248 83.7154 9.248ZM81.6434 15.044H75.2034C74.3074 15.044 74.0134 14.764 74.0134 13.882V11.488C74.0134 10.606 74.3074 10.326 75.2034 10.326H81.6434C82.5394 10.326 82.8334 10.606 82.8334 11.488V13.882C82.8334 14.764 82.5394 15.044 81.6434 15.044ZM76.1134 13.588H80.7334C80.9714 13.588 81.0554 13.504 81.0554 13.266V12.104C81.0554 11.866 80.9714 11.782 80.7334 11.782H76.1134C75.8754 11.782 75.7914 11.866 75.7914 12.104V13.266C75.7914 13.504 75.8754 13.588 76.1134 13.588Z"/>
</mask>
<path d="M6.95644 4.614H4.53444C4.10044 4.614 3.90444 4.264 3.90444 3.858C3.90444 3.438 4.10044 3.088 4.53444 3.088H7.78244C8.67844 3.088 8.97244 3.368 8.97244 4.25V4.726H10.5544V2.878C10.5544 2.402 10.9604 2.178 11.3804 2.178C11.7864 2.178 12.1924 2.402 12.1924 2.878V12.986C12.1924 13.462 11.7864 13.686 11.3804 13.686C10.9604 13.686 10.5544 13.462 10.5544 12.986V9.388H9.53244C9.14044 9.388 8.95844 9.052 8.95844 8.632C8.95844 8.198 9.14044 7.862 9.53244 7.862H10.5544V6.224H8.97244C8.93044 8.422 8.48244 8.94 5.08044 11.362C4.71644 11.614 4.21244 11.46 3.97444 11.124C3.73644 10.788 3.66644 10.27 4.05844 9.99C7.18044 7.806 7.27844 7.61 7.27844 5.678V4.936C7.27844 4.698 7.19444 4.614 6.95644 4.614ZM13.1304 13.574V2.738C13.1304 2.262 13.5364 2.038 13.9564 2.038C14.3764 2.038 14.7824 2.262 14.7824 2.738V13.574C14.7824 14.05 14.3764 14.274 13.9564 14.274C13.5364 14.274 13.1304 14.05 13.1304 13.574ZM16.8846 9.374C17.8506 9.374 18.8026 9.374 19.7266 9.36V8.534C18.3266 8.352 17.5006 7.736 17.5006 6.728C17.5006 5.524 18.6766 4.88 20.5946 4.88C22.5126 4.88 23.6886 5.524 23.6886 6.728C23.6886 7.736 22.8626 8.352 21.4626 8.534V9.304C22.3726 9.276 23.2546 9.22 24.1366 9.136C24.5706 9.094 24.7806 9.374 24.8086 9.738C24.8366 10.102 24.6966 10.466 24.2766 10.508C22.5686 10.662 19.7826 10.774 16.8846 10.774C16.4786 10.774 16.2826 10.438 16.2826 10.074C16.2826 9.71 16.4786 9.374 16.8846 9.374ZM25.3546 14.484V13.154C25.3546 12.916 25.2706 12.832 25.0326 12.832H18.6906C18.2846 12.832 18.1026 12.496 18.1026 12.132C18.1026 11.754 18.2846 11.418 18.6906 11.418H25.9146C26.8106 11.418 27.1046 11.698 27.1046 12.58V14.484C27.1046 14.988 26.6706 15.226 26.2226 15.226C25.7886 15.226 25.3546 14.988 25.3546 14.484ZM25.3266 10.144V2.794C25.3266 2.276 25.7606 2.038 26.2226 2.038C26.6706 2.038 27.1046 2.276 27.1046 2.794V10.144C27.1046 10.662 26.6706 10.9 26.2226 10.9C25.7606 10.9 25.3266 10.662 25.3266 10.144ZM23.7586 4.432H17.2906C16.8986 4.432 16.7166 4.124 16.7166 3.746C16.7166 3.368 16.8986 3.046 17.2906 3.046H19.6986V2.5C19.6986 2.01 20.1046 1.772 20.5946 1.772C21.0566 1.772 21.4906 2.01 21.4906 2.5V3.046H23.7586C24.1506 3.046 24.3326 3.368 24.3326 3.746C24.3326 4.124 24.1506 4.432 23.7586 4.432ZM20.5946 7.316C21.6026 7.316 22.0786 7.106 22.0786 6.728C22.0786 6.35 21.6026 6.14 20.5946 6.14C19.5866 6.14 19.1106 6.35 19.1106 6.728C19.1106 7.106 19.5866 7.316 20.5946 7.316ZM30.1168 12.902C30.1168 11.404 31.4188 10.662 33.6448 10.508V9.612H29.2208C28.8008 9.612 28.6048 9.276 28.6048 8.87C28.6048 8.464 28.8008 8.128 29.2208 8.128H39.8328C40.2528 8.128 40.4488 8.464 40.4488 8.87C40.4488 9.276 40.2528 9.612 39.8328 9.612H35.4088V10.508C37.6208 10.662 38.9368 11.404 38.9368 12.902C38.9368 14.596 37.2708 15.324 34.5268 15.324C31.7828 15.324 30.1168 14.596 30.1168 12.902ZM30.5228 3.116H33.6168V2.556C33.6168 2.038 34.0508 1.786 34.5268 1.786C35.0028 1.786 35.4368 2.038 35.4368 2.556V3.116H38.5308C38.9508 3.116 39.1468 3.452 39.1468 3.844C39.1468 4.25 38.9508 4.586 38.5308 4.586H35.4368V4.684C35.4368 5.034 35.7588 5.3 36.5848 5.566C37.4808 5.86 38.1808 6.07 38.9788 6.294C39.3568 6.406 39.4828 6.812 39.3568 7.204C39.2308 7.596 38.8528 7.792 38.4048 7.666C37.7328 7.484 36.9488 7.246 36.1788 6.994C35.0168 6.616 34.6388 6.336 34.5408 6.014H34.5268C34.4148 6.392 34.0368 6.658 32.8748 7.036C32.1048 7.288 31.3208 7.526 30.6488 7.708C30.2008 7.834 29.8368 7.638 29.6968 7.232C29.5708 6.826 29.6828 6.406 30.0748 6.294C30.8728 6.07 31.5728 5.86 32.4688 5.566C33.2948 5.3 33.6168 5.034 33.6168 4.684V4.586H30.5228C30.1028 4.586 29.9068 4.25 29.9068 3.844C29.9068 3.452 30.1028 3.116 30.5228 3.116ZM37.1588 12.902C37.1588 12.258 36.4028 11.894 34.5268 11.894C32.6508 11.894 31.8948 12.258 31.8948 12.902C31.8948 13.546 32.6508 13.91 34.5268 13.91C36.4028 13.91 37.1588 13.546 37.1588 12.902ZM48.823 4.838H48.809C48.753 5.132 48.445 5.384 47.787 5.734C47.171 6.056 46.639 6.322 46.107 6.574C45.659 6.77 45.225 6.546 45.057 6.196C44.861 5.804 44.931 5.37 45.351 5.174C45.939 4.894 46.485 4.628 47.115 4.292C47.661 3.998 47.871 3.732 47.871 3.2V2.878C47.871 2.346 48.319 2.108 48.795 2.108C49.271 2.108 49.719 2.346 49.719 2.878V3.144C49.719 3.676 49.929 3.942 50.475 4.236C51.091 4.558 51.651 4.838 52.071 5.034C52.435 5.202 52.463 5.692 52.295 6.028C52.113 6.378 51.679 6.56 51.343 6.406C50.965 6.238 50.419 5.958 49.803 5.636C49.145 5.286 48.865 5.062 48.823 4.838ZM45.071 7.12C47.479 7.12 49.929 7.092 52.281 6.882C52.715 6.84 52.939 7.12 52.967 7.512C52.995 7.904 52.841 8.254 52.421 8.296C51.623 8.366 50.657 8.436 49.607 8.478V8.982C49.607 9.458 49.215 9.668 48.711 9.668C48.221 9.668 47.829 9.458 47.829 8.982V8.534C46.919 8.562 45.995 8.562 45.071 8.562C44.665 8.562 44.469 8.24 44.469 7.834C44.469 7.442 44.665 7.12 45.071 7.12ZM53.513 8.856V2.794C53.513 2.276 53.947 2.038 54.409 2.038C54.857 2.038 55.291 2.276 55.291 2.794V8.856C55.291 9.374 54.857 9.612 54.409 9.612C53.947 9.612 53.513 9.374 53.513 8.856ZM47.087 10.046H54.101C54.997 10.046 55.291 10.326 55.291 11.208V12.076C55.291 12.958 54.997 13.238 54.101 13.238H48.487C48.347 13.238 48.277 13.308 48.277 13.448V13.56C48.277 13.7 48.347 13.77 48.487 13.77H54.997C55.389 13.77 55.571 14.106 55.571 14.442C55.571 14.806 55.389 15.128 54.997 15.128H47.731C46.835 15.128 46.541 14.848 46.541 13.966V13.098C46.541 12.216 46.835 11.936 47.731 11.936H53.345C53.485 11.936 53.555 11.866 53.555 11.726V11.614C53.555 11.474 53.485 11.404 53.345 11.404H47.087C46.695 11.404 46.513 11.082 46.513 10.718C46.513 10.382 46.695 10.046 47.087 10.046ZM61.1032 4.418H58.0512C57.6172 4.418 57.4212 4.068 57.4212 3.662C57.4212 3.256 57.6172 2.906 58.0512 2.906H61.9992C62.8952 2.906 63.1892 3.186 63.1892 4.068V6.658C63.1892 7.54 62.8952 7.82 61.9992 7.82H59.5212C59.2832 7.82 59.1992 7.904 59.1992 8.142V9.514C59.1992 9.752 59.2832 9.836 59.5212 9.836C61.0752 9.836 62.5172 9.766 63.8192 9.584C64.2532 9.528 64.5052 9.836 64.5472 10.228C64.5892 10.648 64.4492 11.026 64.0432 11.082C62.9512 11.236 61.3412 11.348 58.6252 11.348C57.7292 11.348 57.4352 11.068 57.4352 10.186V7.526C57.4352 6.644 57.7292 6.364 58.6252 6.364H61.1032C61.3412 6.364 61.4252 6.28 61.4252 6.042V4.74C61.4252 4.502 61.3412 4.418 61.1032 4.418ZM65.8212 13.518V7.68H64.4772C64.0292 7.68 63.8332 7.33 63.8332 6.91C63.8332 6.49 64.0292 6.14 64.4772 6.14H65.8212V2.794C65.8212 2.276 66.2552 2.038 66.7172 2.038C67.1652 2.038 67.5992 2.276 67.5992 2.794V13.518C67.5992 14.036 67.1652 14.274 66.7172 14.274C66.2552 14.274 65.8212 14.036 65.8212 13.518ZM80.6914 4.096H74.5034C74.0694 4.096 73.8734 3.746 73.8734 3.326C73.8734 2.906 74.0694 2.556 74.5034 2.556H81.6154C82.5114 2.556 82.8054 2.836 82.8054 3.718V4.74C82.8054 5.426 82.7354 6.07 82.5814 6.56C82.4274 7.05 81.9654 7.218 81.4754 7.106C81.0274 7.008 80.7334 6.7 80.8454 6.196C80.9574 5.706 81.0134 5.23 81.0134 4.698V4.418C81.0134 4.18 80.9294 4.096 80.6914 4.096ZM83.7154 9.248H73.1314C72.6974 9.248 72.5014 8.898 72.5014 8.492C72.5014 8.1 72.6974 7.75 73.1314 7.75H76.6314V6.224C76.6314 5.72 77.0654 5.482 77.5274 5.482C77.9894 5.482 78.4234 5.72 78.4234 6.224V7.75H83.7154C84.1494 7.75 84.3454 8.1 84.3454 8.492C84.3454 8.898 84.1494 9.248 83.7154 9.248ZM81.6434 15.044H75.2034C74.3074 15.044 74.0134 14.764 74.0134 13.882V11.488C74.0134 10.606 74.3074 10.326 75.2034 10.326H81.6434C82.5394 10.326 82.8334 10.606 82.8334 11.488V13.882C82.8334 14.764 82.5394 15.044 81.6434 15.044ZM76.1134 13.588H80.7334C80.9714 13.588 81.0554 13.504 81.0554 13.266V12.104C81.0554 11.866 80.9714 11.782 80.7334 11.782H76.1134C75.8754 11.782 75.7914 11.866 75.7914 12.104V13.266C75.7914 13.504 75.8754 13.588 76.1134 13.588Z" fill="#745F56"/>
<path d="M8.97244 4.726H7.2899V6.40854H8.97244V4.726ZM10.5544 4.726V6.40854H12.237V4.726H10.5544ZM10.5544 9.388H12.237V7.70546H10.5544V9.388ZM10.5544 7.862V9.54454H12.237V7.862H10.5544ZM10.5544 6.224H12.237V4.54146H10.5544V6.224ZM8.97244 6.224V4.54146H7.32174L7.29021 6.19185L8.97244 6.224ZM5.08044 11.362L6.03816 12.7454L6.04725 12.7391L6.05626 12.7327L5.08044 11.362ZM3.97444 11.124L2.60144 12.0965L2.60144 12.0965L3.97444 11.124ZM4.05844 9.99L3.09398 8.61132L3.08721 8.61606L3.08048 8.62086L4.05844 9.99ZM6.95644 4.614V2.93146H4.53444V4.614V6.29654H6.95644V4.614ZM4.53444 4.614V2.93146C4.6567 2.93146 4.82168 2.95746 4.99703 3.04392C5.17295 3.13067 5.3094 3.25377 5.40476 3.38146C5.58151 3.61812 5.58698 3.81949 5.58698 3.858H3.90444H2.2219C2.2219 4.30251 2.32536 4.88188 2.70861 5.39504C3.13923 5.97163 3.80316 6.29654 4.53444 6.29654V4.614ZM3.90444 3.858H5.58698C5.58698 3.87914 5.58616 4.07638 5.4108 4.31416C5.31571 4.4431 5.17847 4.56833 5.00037 4.65664C4.82308 4.74455 4.65662 4.77054 4.53444 4.77054V3.088V1.40546C3.80165 1.40546 3.13385 1.73206 2.70257 2.31684C2.32071 2.83462 2.2219 3.41685 2.2219 3.858H3.90444ZM4.53444 3.088V4.77054H7.78244V3.088V1.40546H4.53444V3.088ZM7.78244 3.088V4.77054C7.93301 4.77054 7.96127 4.78391 7.92195 4.77366C7.86731 4.75942 7.70527 4.70466 7.5409 4.54494C7.37422 4.38297 7.31038 4.21549 7.29084 4.14484C7.27638 4.09257 7.2899 4.10845 7.2899 4.25H8.97244H10.655C10.655 3.71892 10.5891 2.81483 9.88597 2.13156C9.19685 1.46194 8.30248 1.40546 7.78244 1.40546V3.088ZM8.97244 4.25H7.2899V4.726H8.97244H10.655V4.25H8.97244ZM8.97244 4.726V6.40854H10.5544V4.726V3.04346H8.97244V4.726ZM10.5544 4.726H12.237V2.878H10.5544H8.8719V4.726H10.5544ZM10.5544 2.878H12.237C12.237 3.00464 12.2082 3.16486 12.1248 3.32921C12.0424 3.49164 11.9296 3.61296 11.8195 3.69553C11.6163 3.84793 11.4424 3.86054 11.3804 3.86054V2.178V0.49546C10.8985 0.49546 10.3116 0.620067 9.80041 1.00347C9.23476 1.42771 8.8719 2.09557 8.8719 2.878H10.5544ZM11.3804 2.178V3.86054C11.301 3.86054 11.1231 3.8427 10.9218 3.68996C10.8128 3.60732 10.7018 3.48677 10.6207 3.32624C10.5386 3.16362 10.5099 3.00468 10.5099 2.878H12.1924H13.875C13.875 2.09694 13.5137 1.43241 12.9556 1.00904C12.4498 0.625301 11.8659 0.49546 11.3804 0.49546V2.178ZM12.1924 2.878H10.5099V12.986H12.1924H13.875V2.878H12.1924ZM12.1924 12.986H10.5099C10.5099 12.8593 10.5386 12.7004 10.6207 12.5378C10.7018 12.3772 10.8128 12.2567 10.9218 12.174C11.1231 12.0213 11.301 12.0035 11.3804 12.0035V13.686V15.3685C11.8659 15.3685 12.4498 15.2387 12.9556 14.855C13.5137 14.4316 13.875 13.7671 13.875 12.986H12.1924ZM11.3804 13.686V12.0035C11.4424 12.0035 11.6163 12.0161 11.8195 12.1685C11.9296 12.251 12.0424 12.3724 12.1248 12.5348C12.2082 12.6991 12.237 12.8594 12.237 12.986H10.5544H8.8719C8.8719 13.7684 9.23476 14.4363 9.80041 14.8605C10.3116 15.2439 10.8985 15.3685 11.3804 15.3685V13.686ZM10.5544 12.986H12.237V9.388H10.5544H8.8719V12.986H10.5544ZM10.5544 9.388V7.70546H9.53244V9.388V11.0705H10.5544V9.388ZM9.53244 9.388V7.70546C9.68119 7.70546 9.86981 7.73921 10.0621 7.84061C10.2534 7.94146 10.3914 8.07919 10.4818 8.20978C10.5684 8.33482 10.6063 8.44491 10.623 8.50998C10.6399 8.57594 10.641 8.61869 10.641 8.632H8.95844H7.2759C7.2759 9.05158 7.36188 9.61507 7.71507 10.1252C8.12008 10.7102 8.77775 11.0705 9.53244 11.0705V9.388ZM8.95844 8.632H10.641C10.641 8.63776 10.6407 8.67525 10.6251 8.73758C10.6097 8.79893 10.5733 8.90811 10.4875 9.03372C10.3976 9.16523 10.2591 9.30517 10.0656 9.40774C9.87135 9.51078 9.68114 9.54454 9.53244 9.54454V7.862V6.17946C8.77573 6.17946 8.1146 6.54198 7.70939 7.13478C7.35814 7.64865 7.2759 8.21471 7.2759 8.632H8.95844ZM9.53244 7.862V9.54454H10.5544V7.862V6.17946H9.53244V7.862ZM10.5544 7.862H12.237V6.224H10.5544H8.8719V7.862H10.5544ZM10.5544 6.224V4.54146H8.97244V6.224V7.90654H10.5544V6.224ZM8.97244 6.224L7.29021 6.19185C7.27165 7.16273 7.16732 7.40358 6.95159 7.68473C6.59488 8.14961 5.87084 8.7339 4.10462 9.99134L5.08044 11.362L6.05626 12.7327C7.69203 11.5681 8.89299 10.6824 9.62129 9.73326C10.4906 8.60042 10.6312 7.48326 10.6547 6.25614L8.97244 6.224ZM5.08044 11.362L4.12272 9.97863C4.39532 9.7899 4.68744 9.78227 4.87822 9.82872C5.05356 9.87141 5.22165 9.97388 5.34743 10.1515L3.97444 11.124L2.60144 12.0965C3.25136 13.0141 4.75452 13.634 6.03816 12.7454L5.08044 11.362ZM3.97444 11.124L5.34743 10.1515C5.40103 10.2271 5.46434 10.3525 5.46267 10.5503C5.46173 10.6606 5.4391 10.8087 5.36259 10.9677C5.28306 11.1329 5.16563 11.2668 5.03639 11.3591L4.05844 9.99L3.08048 8.62086C2.38485 9.11774 2.10334 9.85731 2.09771 10.5217C2.09253 11.1325 2.30985 11.6849 2.60144 12.0965L3.97444 11.124ZM4.05844 9.99L5.0229 11.3687C5.79888 10.8258 6.4307 10.3764 6.92455 9.98454C7.41309 9.59685 7.85496 9.19785 8.19425 8.73686C8.97558 7.67531 8.96098 6.60199 8.96098 5.678H7.27844H5.5959C5.5959 6.686 5.53229 6.67669 5.48412 6.74214C5.40867 6.84465 5.24066 7.0249 4.83277 7.34859C4.43017 7.66807 3.879 8.06216 3.09398 8.61132L4.05844 9.99ZM7.27844 5.678H8.96098V4.936H7.27844H5.5959V5.678H7.27844ZM7.27844 4.936H8.96098C8.96098 4.70143 8.9376 4.03719 8.39642 3.49601C7.85525 2.95484 7.19101 2.93146 6.95644 2.93146V4.614V6.29654C6.9295 6.29654 6.81247 6.29565 6.65286 6.25089C6.47771 6.20178 6.23661 6.09514 6.01695 5.87548C5.7973 5.65583 5.69066 5.41472 5.64155 5.23958C5.59679 5.07996 5.5959 4.96294 5.5959 4.936H7.27844ZM13.1304 13.574H14.813V2.738H13.1304H11.4479V13.574H13.1304ZM13.1304 2.738H14.813C14.813 2.86464 14.7842 3.02486 14.7008 3.18921C14.6184 3.35164 14.5056 3.47296 14.3955 3.55553C14.1923 3.70793 14.0184 3.72054 13.9564 3.72054V2.038V0.35546C13.4745 0.35546 12.8876 0.480067 12.3764 0.863468C11.8108 1.28771 11.4479 1.95557 11.4479 2.738H13.1304ZM13.9564 2.038V3.72054C13.8945 3.72054 13.7206 3.70793 13.5174 3.55553C13.4073 3.47296 13.2945 3.35164 13.212 3.18921C13.1286 3.02486 13.0999 2.86464 13.0999 2.738H14.7824H16.465C16.465 1.95557 16.1021 1.28771 15.5365 0.863468C15.0253 0.480067 14.4384 0.35546 13.9564 0.35546V2.038ZM14.7824 2.738H13.0999V13.574H14.7824H16.465V2.738H14.7824ZM14.7824 13.574H13.0999C13.0999 13.4474 13.1286 13.2871 13.212 13.1228C13.2945 12.9604 13.4073 12.839 13.5174 12.7565C13.7206 12.6041 13.8945 12.5915 13.9564 12.5915V14.274V15.9565C14.4384 15.9565 15.0253 15.8319 15.5365 15.4485C16.1021 15.0243 16.465 14.3564 16.465 13.574H14.7824ZM13.9564 14.274V12.5915C14.0184 12.5915 14.1923 12.6041 14.3955 12.7565C14.5056 12.839 14.6184 12.9604 14.7008 13.1228C14.7842 13.2871 14.813 13.4474 14.813 13.574H13.1304H11.4479C11.4479 14.3564 11.8108 15.0243 12.3764 15.4485C12.8876 15.8319 13.4745 15.9565 13.9564 15.9565V14.274ZM19.7266 9.36L19.7521 11.0423L21.4092 11.0172V9.36H19.7266ZM19.7266 8.534H21.4092V7.05603L19.9435 6.8655L19.7266 8.534ZM21.4626 8.534L21.2457 6.8655L19.7801 7.05603V8.534H21.4626ZM21.4626 9.304H19.7801V11.0391L21.5144 10.9857L21.4626 9.304ZM24.1366 9.136L24.2961 10.811L24.2987 10.8107L24.1366 9.136ZM24.8086 9.738L23.131 9.86704V9.86705L24.8086 9.738ZM24.2766 10.508L24.4277 12.1837L24.4359 12.183L24.444 12.1822L24.2766 10.508ZM19.6986 3.046V4.72854H21.3812V3.046H19.6986ZM21.4906 3.046H19.8081V4.72854H21.4906V3.046ZM16.8846 9.374V11.0565C17.8482 11.0565 18.8131 11.0566 19.7521 11.0423L19.7266 9.36L19.7011 7.67765C18.7921 7.69143 17.8531 7.69146 16.8846 7.69146V9.374ZM19.7266 9.36H21.4092V8.534H19.7266H18.0441V9.36H19.7266ZM19.7266 8.534L19.9435 6.8655C19.4115 6.79634 19.1887 6.66578 19.1345 6.62279C19.1181 6.60977 19.1398 6.62325 19.162 6.66851C19.1848 6.71505 19.1832 6.74401 19.1832 6.728H17.5006H15.8181C15.8181 7.76098 16.2714 8.64658 17.0427 9.25871C17.7515 9.82122 18.6417 10.0897 19.5097 10.2025L19.7266 8.534ZM17.5006 6.728H19.1832C19.1832 6.71243 19.1834 6.754 19.1504 6.80801C19.1215 6.85542 19.1072 6.84607 19.1765 6.80567C19.3479 6.70562 19.7826 6.56254 20.5946 6.56254V4.88V3.19746C19.4887 3.19746 18.3764 3.37638 17.4803 3.89933C16.4911 4.47661 15.8181 5.45993 15.8181 6.728H17.5006ZM20.5946 4.88V6.56254C21.4067 6.56254 21.8414 6.70562 22.0128 6.80567C22.082 6.84607 22.0678 6.85542 22.0388 6.80801C22.0058 6.754 22.0061 6.71243 22.0061 6.728H23.6886H25.3712C25.3712 5.45993 24.6981 4.47661 23.709 3.89933C22.8129 3.37638 21.7006 3.19746 20.5946 3.19746V4.88ZM23.6886 6.728H22.0061C22.0061 6.74401 22.0044 6.71505 22.0273 6.66851C22.0495 6.62325 22.0711 6.60977 22.0547 6.62279C22.0005 6.66578 21.7777 6.79634 21.2457 6.8655L21.4626 8.534L21.6795 10.2025C22.5475 10.0897 23.4377 9.82122 24.1465 9.25871C24.9179 8.64658 25.3712 7.76098 25.3712 6.728H23.6886ZM21.4626 8.534H19.7801V9.304H21.4626H23.1452V8.534H21.4626ZM21.4626 9.304L21.5144 10.9857C22.4605 10.9566 23.3784 10.8984 24.2961 10.811L24.1366 9.136L23.9771 7.46104C23.1308 7.54164 22.2848 7.59537 21.4109 7.62226L21.4626 9.304ZM24.1366 9.136L24.2987 10.8107C24.1024 10.8297 23.738 10.7773 23.4351 10.4745C23.1767 10.2161 23.1372 9.94732 23.131 9.86704L24.8086 9.738L26.4862 9.60896C26.452 9.16468 26.2935 8.57393 25.8146 8.09502C25.2913 7.57165 24.6048 7.40029 23.9746 7.46128L24.1366 9.136ZM24.8086 9.738L23.131 9.86705C23.1278 9.8251 23.1178 9.63126 23.2632 9.38599C23.3429 9.25144 23.4655 9.11128 23.6367 9.0022C23.8084 8.89279 23.9783 8.8469 24.1092 8.83381L24.2766 10.508L24.444 12.1822C25.1852 12.1081 25.8009 11.7043 26.1581 11.1015C26.4714 10.5727 26.5174 10.0149 26.4862 9.60895L24.8086 9.738ZM24.2766 10.508L24.1255 8.83226C22.4838 8.98029 19.7513 9.09146 16.8846 9.09146V10.774V12.4565C19.8139 12.4565 22.6535 12.3437 24.4277 12.1837L24.2766 10.508ZM16.8846 10.774V9.09146C17.0207 9.09146 17.1895 9.12108 17.363 9.20655C17.5355 9.29156 17.6694 9.41056 17.7643 9.53377C17.9427 9.76537 17.9652 9.97879 17.9652 10.074H16.2826H14.6001C14.6001 10.5332 14.7205 11.0966 15.0984 11.5872C15.5158 12.1291 16.1581 12.4565 16.8846 12.4565V10.774ZM16.2826 10.074H17.9652C17.9652 10.1692 17.9427 10.3826 17.7643 10.6142C17.6694 10.7374 17.5355 10.8564 17.363 10.9414C17.1895 11.0269 17.0207 11.0565 16.8846 11.0565V9.374V7.69146C16.1581 7.69146 15.5158 8.01894 15.0984 8.56077C14.7205 9.05137 14.6001 9.61479 14.6001 10.074H16.2826ZM25.3546 14.484H27.0372V13.154H25.3546H23.6721V14.484H25.3546ZM25.3546 13.154H27.0372C27.0372 12.9194 27.0138 12.2552 26.4726 11.714C25.9314 11.1728 25.2672 11.1495 25.0326 11.1495V12.832V14.5145C25.0057 14.5145 24.8887 14.5137 24.729 14.4689C24.5539 14.4198 24.3128 14.3131 24.0931 14.0935C23.8735 13.8738 23.7668 13.6327 23.7177 13.4576C23.673 13.298 23.6721 13.1809 23.6721 13.154H25.3546ZM25.0326 12.832V11.1495H18.6906V12.832V14.5145H25.0326V12.832ZM18.6906 12.832V11.1495C18.8267 11.1495 19.001 11.1792 19.1817 11.2698C19.3618 11.3601 19.4994 11.4864 19.5948 11.6148C19.7717 11.8529 19.7852 12.0626 19.7852 12.132H18.1026H16.4201C16.4201 12.5654 16.5245 13.1251 16.894 13.6222C17.3092 14.1808 17.958 14.5145 18.6906 14.5145V12.832ZM18.1026 12.132H19.7852C19.7852 12.183 19.777 12.3885 19.6012 12.6282C19.506 12.758 19.3677 12.8866 19.1852 12.9786C19.0025 13.0708 18.8266 13.1005 18.6906 13.1005V11.418V9.73546C17.9563 9.73546 17.3035 10.0711 16.8876 10.6383C16.5193 11.1405 16.4201 11.703 16.4201 12.132H18.1026ZM18.6906 11.418V13.1005H25.9146V11.418V9.73546H18.6906V11.418ZM25.9146 11.418V13.1005C26.0652 13.1005 26.0935 13.1139 26.0541 13.1037C25.9995 13.0894 25.8375 13.0347 25.6731 12.8749C25.5064 12.713 25.4426 12.5455 25.423 12.4748C25.4086 12.4226 25.4221 12.4384 25.4221 12.58H27.1046H28.7872C28.7872 12.0489 28.7213 11.1448 28.0182 10.4616C27.329 9.79194 26.4347 9.73546 25.9146 9.73546V11.418ZM27.1046 12.58H25.4221V14.484H27.1046H28.7872V12.58H27.1046ZM27.1046 14.484H25.4221C25.4221 14.3618 25.4502 14.2059 25.532 14.0461C25.6127 13.8885 25.7222 13.7723 25.8267 13.6945C26.0184 13.5518 26.1762 13.5435 26.2226 13.5435V15.226V16.9085C26.7171 16.9085 27.3159 16.7812 27.8365 16.3935C28.4119 15.965 28.7872 15.2866 28.7872 14.484H27.1046ZM26.2226 15.226V13.5435C26.2859 13.5435 26.4476 13.5566 26.6377 13.6997C26.7412 13.7776 26.8491 13.893 26.9285 14.0489C27.0091 14.2071 27.0372 14.3617 27.0372 14.484H25.3546H23.6721C23.6721 15.2853 24.0458 15.9606 24.614 16.3883C25.1296 16.7764 25.7254 16.9085 26.2226 16.9085V15.226ZM25.3266 10.144H27.0092V2.794H25.3266H23.6441V10.144H25.3266ZM25.3266 2.794H27.0092C27.0092 2.90535 26.9842 3.05556 26.9045 3.21394C26.8253 3.37116 26.7159 3.4893 26.6086 3.56948C26.4117 3.71664 26.2526 3.72054 26.2226 3.72054V2.038V0.35546C25.7306 0.35546 25.1235 0.478357 24.5941 0.874017C24.0067 1.31303 23.6441 1.99962 23.6441 2.794H25.3266ZM26.2226 2.038V3.72054C26.1761 3.72054 26.0131 3.71205 25.8175 3.56435C25.7112 3.48405 25.6035 3.36663 25.5256 3.21118C25.447 3.05441 25.4221 2.9054 25.4221 2.794H27.1046H28.7872C28.7872 2.00088 28.426 1.31742 27.8457 0.879153C27.3212 0.482952 26.7171 0.35546 26.2226 0.35546V2.038ZM27.1046 2.794H25.4221V10.144H27.1046H28.7872V2.794H27.1046ZM27.1046 10.144H25.4221C25.4221 10.0326 25.447 9.88359 25.5256 9.72682C25.6035 9.57137 25.7112 9.45395 25.8175 9.37365C26.0131 9.22595 26.1761 9.21746 26.2226 9.21746V10.9V12.5825C26.7171 12.5825 27.3212 12.455 27.8457 12.0588C28.426 11.6206 28.7872 10.9371 28.7872 10.144H27.1046ZM26.2226 10.9V9.21746C26.2526 9.21746 26.4117 9.22136 26.6086 9.36852C26.7159 9.4487 26.8253 9.56684 26.9045 9.72406C26.9842 9.88243 27.0092 10.0326 27.0092 10.144H25.3266H23.6441C23.6441 10.9384 24.0067 11.625 24.5941 12.064C25.1235 12.4596 25.7306 12.5825 26.2226 12.5825V10.9ZM23.7586 4.432V2.74946H17.2906V4.432V6.11454H23.7586V4.432ZM17.2906 4.432V2.74946C17.4167 2.74946 17.5857 2.77538 17.7659 2.8622C17.9475 2.94972 18.0922 3.07598 18.1958 3.21219C18.3899 3.4674 18.3992 3.69318 18.3992 3.746H16.7166H15.0341C15.0341 4.17682 15.1343 4.7456 15.5174 5.24931C15.947 5.81415 16.5976 6.11454 17.2906 6.11454V4.432ZM16.7166 3.746H18.3992C18.3992 3.7981 18.3904 4.00997 18.2093 4.25486C18.1118 4.38667 17.9714 4.51545 17.788 4.60713C17.6046 4.69883 17.4281 4.72854 17.2906 4.72854V3.046V1.36346C16.5694 1.36346 15.9206 1.69033 15.504 2.25364C15.1338 2.75403 15.0341 3.3159 15.0341 3.746H16.7166ZM17.2906 3.046V4.72854H19.6986V3.046V1.36346H17.2906V3.046ZM19.6986 3.046H21.3812V2.5H19.6986H18.0161V3.046H19.6986ZM19.6986 2.5H21.3812C21.3812 2.61518 21.3558 2.77003 21.2739 2.93343C21.1922 3.09646 21.0784 3.21967 20.9654 3.30349C20.857 3.38393 20.7604 3.42058 20.7018 3.437C20.6429 3.4535 20.6056 3.45454 20.5946 3.45454V1.772V0.0894597C20.1048 0.0894597 19.4942 0.204884 18.9603 0.601005C18.3665 1.04158 18.0161 1.72644 18.0161 2.5H19.6986ZM20.5946 1.772V3.45454C20.5645 3.45454 20.416 3.45082 20.2271 3.3136C20.1237 3.2385 20.0107 3.12316 19.926 2.96184C19.8397 2.79749 19.8081 2.63345 19.8081 2.5H21.4906H23.1732C23.1732 1.68579 22.7814 1.00983 22.2046 0.590899C21.6832 0.212177 21.0868 0.0894597 20.5946 0.0894597V1.772ZM21.4906 2.5H19.8081V3.046H21.4906H23.1732V2.5H21.4906ZM21.4906 3.046V4.72854H23.7586V3.046V1.36346H21.4906V3.046ZM23.7586 3.046V4.72854C23.6211 4.72854 23.4446 4.69883 23.2612 4.60713C23.0779 4.51545 22.9375 4.38667 22.84 4.25486C22.6588 4.00997 22.6501 3.7981 22.6501 3.746H24.3326H26.0152C26.0152 3.3159 25.9154 2.75403 25.5453 2.25364C25.1286 1.69033 24.4798 1.36346 23.7586 1.36346V3.046ZM24.3326 3.746H22.6501C22.6501 3.69318 22.6593 3.4674 22.8534 3.21219C22.957 3.07598 23.1017 2.94972 23.2834 2.8622C23.4636 2.77538 23.6325 2.74946 23.7586 2.74946V4.432V6.11454C24.4516 6.11454 25.1022 5.81415 25.5318 5.24931C25.9149 4.7456 26.0152 4.17682 26.0152 3.746H24.3326ZM20.5946 7.316V8.99854C21.1674 8.99854 21.7998 8.94573 22.3491 8.72208C22.6377 8.60457 22.9931 8.40394 23.2839 8.05303C23.5986 7.67334 23.7612 7.20805 23.7612 6.728H22.0786H20.3961C20.3961 6.43695 20.4991 6.13966 20.6931 5.90565C20.8632 5.70043 21.0365 5.62318 21.0802 5.60542C21.1274 5.5862 21.1199 5.59705 21.0228 5.61038C20.9313 5.62296 20.7919 5.63346 20.5946 5.63346V7.316ZM22.0786 6.728H23.7612C23.7612 6.24795 23.5986 5.78266 23.2839 5.40297C22.9931 5.05206 22.6377 4.85143 22.3491 4.73392C21.7998 4.51027 21.1674 4.45746 20.5946 4.45746V6.14V7.82254C20.7919 7.82254 20.9313 7.83304 21.0228 7.84561C21.1199 7.85895 21.1274 7.8698 21.0802 7.85058C21.0365 7.83282 20.8632 7.75557 20.6931 7.55034C20.4991 7.31634 20.3961 7.01905 20.3961 6.728H22.0786ZM20.5946 6.14V4.45746C20.0219 4.45746 19.3895 4.51027 18.8402 4.73392C18.5515 4.85143 18.1962 5.05206 17.9053 5.40297C17.5906 5.78266 17.4281 6.24795 17.4281 6.728H19.1106H20.7932C20.7932 7.01905 20.6901 7.31634 20.4962 7.55034C20.3261 7.75557 20.1527 7.83282 20.1091 7.85058C20.0619 7.8698 20.0693 7.85895 20.1664 7.84561C20.258 7.83304 20.3973 7.82254 20.5946 7.82254V6.14ZM19.1106 6.728H17.4281C17.4281 7.20805 17.5906 7.67334 17.9053 8.05303C18.1962 8.40394 18.5515 8.60457 18.8402 8.72208C19.3895 8.94573 20.0219 8.99854 20.5946 8.99854V7.316V5.63346C20.3973 5.63346 20.258 5.62296 20.1664 5.61038C20.0693 5.59705 20.0619 5.5862 20.1091 5.60542C20.1527 5.62318 20.3261 5.70043 20.4962 5.90565C20.6901 6.13966 20.7932 6.43695 20.7932 6.728H19.1106ZM33.6448 10.508L33.7609 12.1865L35.3274 12.0782V10.508H33.6448ZM33.6448 9.612H35.3274V7.92946H33.6448V9.612ZM35.4088 9.612V7.92946H33.7263V9.612H35.4088ZM35.4088 10.508H33.7263V12.0775L35.292 12.1865L35.4088 10.508ZM33.6168 3.116V4.79854H35.2994V3.116H33.6168ZM35.4368 3.116H33.7543V4.79854H35.4368V3.116ZM35.4368 4.586V2.90346H33.7543V4.586H35.4368ZM36.5848 5.566L37.1094 3.9673L37.1006 3.96446L36.5848 5.566ZM38.9788 6.294L39.4568 4.68078L39.4452 4.67734L39.4335 4.67407L38.9788 6.294ZM39.3568 7.204L37.755 6.68913L39.3568 7.204ZM38.4048 7.666L38.8604 6.0463L38.8525 6.0441L38.8447 6.04197L38.4048 7.666ZM36.1788 6.994L36.7021 5.39492L36.6993 5.39399L36.1788 6.994ZM34.5408 6.014L36.1505 5.52411L35.7875 4.33146H34.5408V6.014ZM34.5268 6.014V4.33146H33.2705L32.9136 5.53601L34.5268 6.014ZM32.8748 7.036L32.3543 5.43599L32.3515 5.43692L32.8748 7.036ZM30.6488 7.708L30.209 6.08397L30.2011 6.0861L30.1933 6.0883L30.6488 7.708ZM29.6968 7.232L28.0899 7.7307L28.0976 7.75572L28.1062 7.78049L29.6968 7.232ZM30.0748 6.294L29.6201 4.67405L29.6126 4.6762L30.0748 6.294ZM32.4688 5.566L31.9531 3.96443L31.9442 3.96732L32.4688 5.566ZM33.6168 4.586H35.2994V2.90346H33.6168V4.586ZM30.1168 12.902H31.7994C31.7994 12.7791 31.8236 12.7387 31.8262 12.7341C31.8301 12.7271 31.8552 12.6817 31.9623 12.6122C32.2162 12.4474 32.7644 12.2555 33.7609 12.1865L33.6448 10.508L33.5287 8.82947C32.2993 8.91453 31.0835 9.17064 30.1298 9.78982C29.068 10.4793 28.4343 11.56 28.4343 12.902H30.1168ZM33.6448 10.508H35.3274V9.612H33.6448H31.9623V10.508H33.6448ZM33.6448 9.612V7.92946H29.2208V9.612V11.2945H33.6448V9.612ZM29.2208 9.612V7.92946C29.3445 7.92946 29.5101 7.95546 29.6861 8.04148C29.863 8.1279 30.0015 8.25122 30.0992 8.38094C30.2814 8.62274 30.2874 8.8305 30.2874 8.87H28.6048H26.9223C26.9223 9.3155 27.0262 9.89426 27.4114 10.4056C27.8428 10.9783 28.5028 11.2945 29.2208 11.2945V9.612ZM28.6048 8.87H30.2874C30.2874 8.9095 30.2814 9.11726 30.0992 9.35906C30.0015 9.48878 29.863 9.61209 29.6861 9.69852C29.5101 9.78454 29.3445 9.81054 29.2208 9.81054V8.128V6.44546C28.5028 6.44546 27.8428 6.76168 27.4114 7.33444C27.0262 7.84574 26.9223 8.4245 26.9223 8.87H28.6048ZM29.2208 8.128V9.81054H39.8328V8.128V6.44546H29.2208V8.128ZM39.8328 8.128V9.81054C39.7092 9.81054 39.5435 9.78454 39.3675 9.69852C39.1906 9.61209 39.0521 9.48878 38.9544 9.35906C38.7722 9.11726 38.7663 8.9095 38.7663 8.87H40.4488H42.1314C42.1314 8.4245 42.0274 7.84574 41.6422 7.33444C41.2108 6.76168 40.5509 6.44546 39.8328 6.44546V8.128ZM40.4488 8.87H38.7663C38.7663 8.8305 38.7722 8.62274 38.9544 8.38094C39.0521 8.25122 39.1906 8.1279 39.3675 8.04148C39.5435 7.95546 39.7092 7.92946 39.8328 7.92946V9.612V11.2945C40.5508 11.2945 41.2108 10.9783 41.6422 10.4056C42.0274 9.89426 42.1314 9.3155 42.1314 8.87H40.4488ZM39.8328 9.612V7.92946H35.4088V9.612V11.2945H39.8328V9.612ZM35.4088 9.612H33.7263V10.508H35.4088H37.0914V9.612H35.4088ZM35.4088 10.508L35.292 12.1865C36.2802 12.2553 36.8305 12.4467 37.0879 12.6134C37.1972 12.6842 37.2236 12.7308 37.2279 12.7384C37.2305 12.7431 37.2543 12.7822 37.2543 12.902H38.9368H40.6194C40.6194 11.5534 39.9763 10.4746 38.9167 9.78861C37.9631 9.17126 36.7494 8.91472 35.5257 8.82952L35.4088 10.508ZM38.9368 12.902H37.2543C37.2543 13.0369 37.2255 13.0742 37.2226 13.0786C37.214 13.0918 37.1649 13.162 36.9864 13.2545C36.5833 13.4635 35.8026 13.6415 34.5268 13.6415V15.324V17.0065C35.995 17.0065 37.4193 16.8205 38.5352 16.242C39.1163 15.9407 39.6551 15.5113 40.0446 14.9116C40.4399 14.3031 40.6194 13.6141 40.6194 12.902H38.9368ZM34.5268 15.324V13.6415C33.251 13.6415 32.4703 13.4635 32.0672 13.2545C31.8888 13.162 31.8396 13.0918 31.831 13.0786C31.8281 13.0742 31.7994 13.0369 31.7994 12.902H30.1168H28.4343C28.4343 13.6141 28.6137 14.3031 29.009 14.9116C29.3985 15.5113 29.9374 15.9407 30.5184 16.242C31.6343 16.8205 33.0586 17.0065 34.5268 17.0065V15.324ZM30.5228 3.116V4.79854H33.6168V3.116V1.43346H30.5228V3.116ZM33.6168 3.116H35.2994V2.556H33.6168H31.9343V3.116H33.6168ZM33.6168 2.556H35.2994C35.2994 2.66724 35.2745 2.81422 35.1977 2.96824C35.1214 3.12102 35.016 3.23675 34.9117 3.31605C34.7186 3.46294 34.5604 3.46854 34.5268 3.46854V1.786V0.103459C34.0172 0.103459 33.404 0.235063 32.8749 0.637444C32.2933 1.07971 31.9343 1.76532 31.9343 2.556H33.6168ZM34.5268 1.786V3.46854C34.4932 3.46854 34.335 3.46294 34.1419 3.31605C34.0376 3.23675 33.9322 3.12102 33.856 2.96824C33.7791 2.81422 33.7543 2.66724 33.7543 2.556H35.4368H37.1194C37.1194 1.76532 36.7604 1.07971 36.1787 0.637444C35.6496 0.235063 35.0364 0.103459 34.5268 0.103459V1.786ZM35.4368 2.556H33.7543V3.116H35.4368H37.1194V2.556H35.4368ZM35.4368 3.116V4.79854H38.5308V3.116V1.43346H35.4368V3.116ZM38.5308 3.116V4.79854C38.4071 4.79854 38.2429 4.77253 38.0689 4.68799C37.8944 4.60316 37.7567 4.48206 37.6588 4.35375C37.4754 4.11344 37.4643 3.90155 37.4643 3.844H39.1468H40.8294C40.8294 3.39445 40.7202 2.81856 40.3339 2.31225C39.9032 1.748 39.2474 1.43346 38.5308 1.43346V3.116ZM39.1468 3.844H37.4643C37.4643 3.8045 37.4702 3.59674 37.6524 3.35494C37.7501 3.22522 37.8886 3.1019 38.0655 3.01548C38.2415 2.92946 38.4072 2.90346 38.5308 2.90346V4.586V6.26854C39.2489 6.26854 39.9088 5.95232 40.3402 5.37956C40.7254 4.86826 40.8294 4.2895 40.8294 3.844H39.1468ZM38.5308 4.586V2.90346H35.4368V4.586V6.26854H38.5308V4.586ZM35.4368 4.586H33.7543V4.684H35.4368H37.1194V4.586H35.4368ZM35.4368 4.684H33.7543C33.7543 5.49355 34.175 6.09953 34.6655 6.48257C35.0864 6.81127 35.601 7.01681 36.0691 7.16754L36.5848 5.566L37.1006 3.96446C36.938 3.91211 36.8309 3.86941 36.7644 3.83858C36.6951 3.80647 36.6977 3.79999 36.7367 3.83043C36.7785 3.86308 36.8825 3.95435 36.9741 4.1209C37.0726 4.29988 37.1194 4.49807 37.1194 4.684H35.4368ZM36.5848 5.566L36.0602 7.16468C36.9814 7.46695 37.7049 7.68397 38.5241 7.91393L38.9788 6.294L39.4335 4.67407C38.6568 4.45603 37.9802 4.25305 37.1094 3.96732L36.5848 5.566ZM38.9788 6.294L38.5008 7.90722C38.1549 7.80473 37.8971 7.5371 37.7856 7.24576C37.6891 6.99396 37.7214 6.79357 37.755 6.68913L39.3568 7.204L40.9586 7.71887C41.1182 7.22242 41.1505 6.62304 40.9281 6.04224C40.6905 5.4219 40.1807 4.89527 39.4568 4.68078L38.9788 6.294ZM39.3568 7.204L37.755 6.68913C37.8222 6.48008 37.9882 6.25341 38.2555 6.12118C38.5147 5.99294 38.744 6.01357 38.8604 6.0463L38.4048 7.666L37.9493 9.2857C38.5136 9.44443 39.156 9.43006 39.7477 9.13732C40.3474 8.84059 40.7654 8.31992 40.9586 7.71887L39.3568 7.204ZM38.4048 7.666L38.8447 6.04197C38.2072 5.86932 37.4518 5.64026 36.7021 5.39492L36.1788 6.994L35.6555 8.59308C36.4458 8.85174 37.2584 9.09867 37.965 9.29003L38.4048 7.666ZM36.1788 6.994L36.6993 5.39399C36.4389 5.30927 36.2442 5.23704 36.0998 5.17619C35.9532 5.1144 35.8799 5.0733 35.8526 5.05621C35.8252 5.03913 35.8736 5.06443 35.944 5.14541C36.024 5.23736 36.1025 5.3667 36.1505 5.52411L34.5408 6.014L32.9312 6.50389C33.1382 7.18427 33.6093 7.62241 34.0691 7.90979C34.4985 8.17818 35.0405 8.39305 35.6583 8.59401L36.1788 6.994ZM34.5408 6.014V4.33146H34.5268V6.014V7.69654H34.5408V6.014ZM34.5268 6.014L32.9136 5.53601C32.9476 5.42112 33.0077 5.3053 33.0873 5.20886C33.1583 5.12284 33.2119 5.09239 33.1932 5.1043C33.1719 5.11779 33.1041 5.15667 32.9575 5.21804C32.8134 5.27841 32.6183 5.35011 32.3543 5.43599L32.8748 7.036L33.3953 8.63601C34.001 8.43897 34.5547 8.22568 34.996 7.9457C35.5003 7.6257 35.9407 7.16478 36.14 6.49199L34.5268 6.014ZM32.8748 7.036L32.3515 5.43692C31.6018 5.68226 30.8464 5.91132 30.209 6.08397L30.6488 7.708L31.0887 9.33203C31.7952 9.14067 32.6078 8.89374 33.3981 8.63508L32.8748 7.036ZM30.6488 7.708L30.1933 6.0883C30.3082 6.05599 30.5507 6.03224 30.8225 6.17102C31.0961 6.31075 31.2352 6.53187 31.2874 6.68351L29.6968 7.232L28.1062 7.78049C28.2985 8.33813 28.6895 8.86024 29.2921 9.16798C29.8929 9.47476 30.5415 9.48601 31.1044 9.3277L30.6488 7.708ZM29.6968 7.232L31.3037 6.7333C31.3244 6.79976 31.363 6.97766 31.2742 7.22381C31.2268 7.35518 31.1415 7.50583 31.0014 7.64107C30.8585 7.77912 30.6934 7.86714 30.537 7.9118L30.0748 6.294L29.6126 4.6762C28.8572 4.89202 28.3393 5.44301 28.1089 6.08169C27.8976 6.66734 27.9433 7.25824 28.0899 7.7307L29.6968 7.232ZM30.0748 6.294L30.5295 7.91393C31.3488 7.68397 32.0722 7.46695 32.9934 7.16468L32.4688 5.566L31.9442 3.96732C31.0735 4.25305 30.3969 4.45603 29.6201 4.67407L30.0748 6.294ZM32.4688 5.566L32.9846 7.16754C33.4526 7.01681 33.9673 6.81127 34.3882 6.48257C34.8786 6.09953 35.2994 5.49355 35.2994 4.684H33.6168H31.9343C31.9343 4.49807 31.981 4.29988 32.0795 4.1209C32.1711 3.95435 32.2752 3.86308 32.317 3.83043C32.3559 3.79999 32.3586 3.80647 32.2893 3.83858C32.2227 3.86941 32.1156 3.91211 31.9531 3.96446L32.4688 5.566ZM33.6168 4.684H35.2994V4.586H33.6168H31.9343V4.684H33.6168ZM33.6168 4.586V2.90346H30.5228V4.586V6.26854H33.6168V4.586ZM30.5228 4.586V2.90346C30.6465 2.90346 30.8121 2.92946 30.9881 3.01548C31.165 3.1019 31.3035 3.22522 31.4012 3.35494C31.5834 3.59674 31.5894 3.8045 31.5894 3.844H29.9068H28.2243C28.2243 4.2895 28.3282 4.86826 28.7134 5.37956C29.1448 5.95232 29.8048 6.26854 30.5228 6.26854V4.586ZM29.9068 3.844H31.5894C31.5894 3.90155 31.5782 4.11344 31.3948 4.35375C31.2969 4.48207 31.1593 4.60316 30.9847 4.68799C30.8107 4.77253 30.6465 4.79854 30.5228 4.79854V3.116V1.43346C29.8063 1.43346 29.1504 1.748 28.7198 2.31225C28.3334 2.81856 28.2243 3.39445 28.2243 3.844H29.9068ZM37.1588 12.902H38.8414C38.8414 12.3836 38.679 11.862 38.323 11.4189C37.9892 11.0035 37.5628 10.7529 37.1779 10.597C36.4446 10.3001 35.5198 10.2115 34.5268 10.2115V11.894V13.5765C34.9456 13.5765 35.2676 13.5971 35.5093 13.629C35.757 13.6617 35.8775 13.7009 35.9148 13.716C35.9533 13.7316 35.8332 13.6928 35.6998 13.5267C35.5441 13.333 35.4763 13.0984 35.4763 12.902H37.1588ZM34.5268 11.894V10.2115C33.5339 10.2115 32.609 10.3001 31.8758 10.597C31.4908 10.7529 31.0645 11.0035 30.7307 11.4189C30.3746 11.862 30.2123 12.3836 30.2123 12.902H31.8948H33.5774C33.5774 13.0984 33.5095 13.333 33.3538 13.5267C33.2204 13.6928 33.1003 13.7316 33.1389 13.716C33.1761 13.7009 33.2966 13.6617 33.5444 13.629C33.786 13.5971 34.1081 13.5765 34.5268 13.5765V11.894ZM31.8948 12.902H30.2123C30.2123 13.4204 30.3746 13.942 30.7307 14.3851C31.0645 14.8005 31.4908 15.0511 31.8758 15.207C32.609 15.5039 33.5339 15.5925 34.5268 15.5925V13.91V12.2275C34.1081 12.2275 33.786 12.2069 33.5444 12.175C33.2966 12.1423 33.1761 12.1031 33.1389 12.088C33.1003 12.0724 33.2204 12.1112 33.3538 12.2773C33.5095 12.471 33.5774 12.7056 33.5774 12.902H31.8948ZM34.5268 13.91V15.5925C35.5198 15.5925 36.4446 15.5039 37.1779 15.207C37.5628 15.0511 37.9892 14.8005 38.323 14.3851C38.679 13.942 38.8414 13.4204 38.8414 12.902H37.1588H35.4763C35.4763 12.7056 35.5441 12.471 35.6998 12.2773C35.8332 12.1112 35.9533 12.0724 35.9148 12.088C35.8775 12.1031 35.757 12.1423 35.5093 12.175C35.2676 12.2069 34.9456 12.2275 34.5268 12.2275V13.91ZM48.823 4.838L50.4767 4.52792L50.2194 3.15546H48.823V4.838ZM48.809 4.838V3.15546H47.4167L47.1562 4.52318L48.809 4.838ZM47.787 5.734L48.5665 7.22515L48.5771 7.21947L47.787 5.734ZM46.107 6.574L46.7814 8.11547L46.8045 8.10537L46.8273 8.09457L46.107 6.574ZM45.057 6.196L46.5738 5.46791L46.568 5.45568L46.5619 5.44354L45.057 6.196ZM45.351 5.174L46.0625 6.69874L46.0744 6.6931L45.351 5.174ZM47.115 4.292L47.9068 5.77661L47.9127 5.77343L47.115 4.292ZM50.475 4.236L49.6773 5.71743L49.6864 5.72232L49.6956 5.72711L50.475 4.236ZM52.071 5.034L51.3595 6.5587L51.3659 6.56168L52.071 5.034ZM52.295 6.028L53.7878 6.80424L53.7939 6.7924L53.7999 6.78045L52.295 6.028ZM51.343 6.406L52.044 4.87646L52.0352 4.87242L52.0263 4.86848L51.343 6.406ZM49.803 5.636L49.0128 7.12151L49.0236 7.12711L49.803 5.636ZM52.281 6.882L52.4306 8.55792L52.4431 8.55672L52.281 6.882ZM52.967 7.512L54.6453 7.39213V7.39212L52.967 7.512ZM52.421 8.296L52.568 9.9721L52.5782 9.97121L52.5884 9.97019L52.421 8.296ZM49.607 8.478L49.5398 6.7968L47.9245 6.86142V8.478H49.607ZM47.829 8.534H49.5115V6.79889L47.7773 6.85226L47.829 8.534ZM48.823 4.838V3.15546H48.809V4.838V6.52054H48.823V4.838ZM48.809 4.838L47.1562 4.52318C47.1888 4.35171 47.2549 4.21445 47.3189 4.1185C47.349 4.0734 47.3762 4.04118 47.3945 4.02122C47.4126 4.00142 47.424 3.9916 47.4244 3.99131C47.4247 3.991 47.417 3.99763 47.3983 4.01115C47.3798 4.0246 47.3531 4.04288 47.3162 4.06621C47.241 4.11382 47.1378 4.17356 46.9969 4.24853L47.787 5.734L48.5771 7.21947C48.9337 7.02981 49.3105 6.80858 49.6231 6.53869C49.9485 6.25785 50.3365 5.81064 50.4618 5.15282L48.809 4.838ZM47.787 5.734L47.0076 4.24289C46.4077 4.55645 45.8956 4.81236 45.3867 5.05342L46.107 6.574L46.8273 8.09457C47.3824 7.83164 47.9343 7.55555 48.5664 7.22511L47.787 5.734ZM46.107 6.574L45.4326 5.03253C45.6312 4.94563 45.8821 4.93837 46.1095 5.03061C46.3143 5.11368 46.4778 5.26784 46.5738 5.46791L45.057 6.196L43.5402 6.92409C44.0593 8.00562 45.4189 8.71156 46.7814 8.11547L46.107 6.574ZM45.057 6.196L46.5619 5.44354C46.6036 5.52683 46.6769 5.73318 46.6053 6.01958C46.522 6.35284 46.2898 6.59263 46.0625 6.69869L45.351 5.174L44.6395 3.64931C43.9922 3.95137 43.515 4.50616 43.3407 5.20342C43.1781 5.85382 43.3144 6.47317 43.5521 6.94845L45.057 6.196ZM45.351 5.174L46.0744 6.6931C46.6718 6.40863 47.244 6.13009 47.9068 5.77659L47.115 4.292L46.3232 2.80741C45.726 3.12591 45.2062 3.37937 44.6276 3.6549L45.351 5.174ZM47.115 4.292L47.9127 5.77343C48.263 5.5848 48.7237 5.29573 49.0688 4.81053C49.4493 4.27565 49.5535 3.70208 49.5535 3.2H47.871H46.1885C46.1885 3.22484 46.1857 3.18753 46.2055 3.11447C46.2275 3.03303 46.2678 2.94276 46.3267 2.85997C46.3818 2.78252 46.4297 2.74464 46.4343 2.74112C46.435 2.74058 46.405 2.76333 46.3173 2.81057L47.115 4.292ZM47.871 3.2H49.5535V2.878H47.871H46.1885V3.2H47.871ZM47.871 2.878H49.5535C49.5535 2.98722 49.5289 3.13746 49.4479 3.29649C49.3676 3.45433 49.257 3.57131 49.1507 3.64943C48.9574 3.79147 48.8079 3.79054 48.795 3.79054V2.108V0.425459C48.3061 0.425459 47.6946 0.543525 47.1583 0.937571C46.5599 1.37724 46.1885 2.07092 46.1885 2.878H47.871ZM48.795 2.108V3.79054C48.7821 3.79054 48.6326 3.79147 48.4393 3.64943C48.333 3.57131 48.2224 3.45433 48.1421 3.29649C48.0611 3.13746 48.0365 2.98722 48.0365 2.878H49.719H51.4015C51.4015 2.07092 51.0301 1.37724 50.4317 0.937571C49.8954 0.543525 49.2839 0.425459 48.795 0.425459V2.108ZM49.719 2.878H48.0365V3.144H49.719H51.4015V2.878H49.719ZM49.719 3.144H48.0365C48.0365 3.64608 48.1407 4.21965 48.5212 4.75453C48.8663 5.23973 49.327 5.5288 49.6773 5.71743L50.475 4.236L51.2727 2.75457C51.185 2.70733 51.155 2.68458 51.1557 2.68512C51.1603 2.68864 51.2082 2.72652 51.2633 2.80397C51.3222 2.88676 51.3625 2.97703 51.3845 3.05847C51.4043 3.13153 51.4015 3.16884 51.4015 3.144H49.719ZM50.475 4.236L49.6956 5.72711C50.3241 6.05566 50.9083 6.34816 51.3595 6.55869L52.071 5.034L52.7825 3.50931C52.3937 3.32784 51.8579 3.06034 51.2544 2.74489L50.475 4.236ZM52.071 5.034L51.3659 6.56168C50.9276 6.35938 50.7614 5.97161 50.7237 5.74968C50.6912 5.55826 50.7258 5.40409 50.7901 5.27555L52.295 6.028L53.7999 6.78045C54.0322 6.31591 54.1368 5.74874 54.0413 5.18632C53.9406 4.59339 53.5784 3.87662 52.7761 3.50632L52.071 5.034ZM52.295 6.028L50.8022 5.25175C50.9057 5.05282 51.0676 4.91826 51.2464 4.84598C51.4258 4.7735 51.7218 4.72879 52.044 4.87646L51.343 6.406L50.642 7.93554C51.9387 8.52988 53.2702 7.79957 53.7878 6.80424L52.295 6.028ZM51.343 6.406L52.0263 4.86848C51.7058 4.72601 51.2079 4.47184 50.5824 4.14489L49.803 5.636L49.0236 7.12711C49.6301 7.44416 50.2242 7.74999 50.6597 7.94352L51.343 6.406ZM49.803 5.636L50.5931 4.15053C50.4486 4.07365 50.3412 4.01229 50.2619 3.96338C50.1807 3.91324 50.1469 3.88707 50.1419 3.88302C50.1343 3.87686 50.1895 3.91929 50.2589 4.01409C50.3344 4.11715 50.4322 4.2903 50.4767 4.52792L48.823 4.838L47.1693 5.14808C47.3 5.84547 47.7527 6.27795 48.0221 6.49648C48.3105 6.73041 48.6631 6.93543 49.0129 7.12147L49.803 5.636ZM45.071 7.12V8.80254C47.4835 8.80254 49.9981 8.77506 52.4306 8.55787L52.281 6.882L52.1314 5.20613C49.8599 5.40894 47.4745 5.43746 45.071 5.43746V7.12ZM52.281 6.882L52.4431 8.55672C52.2463 8.57576 51.8856 8.52305 51.5865 8.22398C51.3294 7.96682 51.2937 7.70159 51.2887 7.63188L52.967 7.512L54.6453 7.39212C54.6123 6.93041 54.4506 6.32918 53.966 5.84451C53.4394 5.31795 52.7497 5.14624 52.1189 5.20728L52.281 6.882ZM52.967 7.512L51.2887 7.63187C51.2867 7.60399 51.2746 7.40362 51.4303 7.15146C51.5146 7.01485 51.64 6.87962 51.8073 6.77693C51.9736 6.67483 52.1342 6.63374 52.2536 6.62181L52.421 8.296L52.5884 9.97019C53.2993 9.8991 53.9202 9.52419 54.2937 8.91904C54.6244 8.38338 54.6753 7.81201 54.6453 7.39213L52.967 7.512ZM52.421 8.296L52.274 6.6199C51.4958 6.68816 50.5572 6.75611 49.5398 6.7968L49.607 8.478L49.6742 10.1592C50.7568 10.1159 51.7502 10.0438 52.568 9.9721L52.421 8.296ZM49.607 8.478H47.9245V8.982H49.607H51.2895V8.478H49.607ZM49.607 8.982H47.9245C47.9245 8.86507 47.9501 8.69815 48.0421 8.51947C48.1346 8.33999 48.2634 8.20842 48.3872 8.12229C48.6081 7.96857 48.7656 7.98546 48.711 7.98546V9.668V11.3505C49.1604 11.3505 49.7659 11.2624 50.3088 10.8847C50.934 10.4498 51.2895 9.75601 51.2895 8.982H49.607ZM48.711 9.668V7.98546C48.6714 7.98546 48.8331 7.9718 49.0542 8.12724C49.1772 8.2138 49.3041 8.34488 49.3952 8.52246C49.4859 8.69944 49.5115 8.86501 49.5115 8.982H47.829H46.1465C46.1465 9.75443 46.5003 10.4451 47.1183 10.8798C47.6579 11.2592 48.2606 11.3505 48.711 11.3505V9.668ZM47.829 8.982H49.5115V8.534H47.829H46.1465V8.982H47.829ZM47.829 8.534L47.7773 6.85226C46.8975 6.87932 45.9996 6.87946 45.071 6.87946V8.562V10.2445C45.9904 10.2445 46.9405 10.2447 47.8807 10.2157L47.829 8.534ZM45.071 8.562V6.87946C45.1959 6.87946 45.3621 6.90541 45.5387 6.9909C45.7165 7.07694 45.8572 7.2004 45.9573 7.33217C46.1451 7.57921 46.1515 7.79354 46.1515 7.834H44.469H42.7865C42.7865 8.28046 42.8909 8.85879 43.2782 9.36833C43.7106 9.93727 44.3666 10.2445 45.071 10.2445V8.562ZM44.469 7.834H46.1515C46.1515 7.8927 46.1398 8.11121 45.9507 8.35673C45.8503 8.48703 45.7106 8.60821 45.5352 8.6926C45.3606 8.77657 45.196 8.80254 45.071 8.80254V7.12V5.43746C44.3681 5.43746 43.7163 5.74303 43.2848 6.30327C42.8962 6.80779 42.7865 7.3833 42.7865 7.834H44.469ZM53.513 8.856H55.1955V2.794H53.513H51.8305V8.856H53.513ZM53.513 2.794H55.1955C55.1955 2.90535 55.1706 3.05556 55.0909 3.21394C55.0117 3.37116 54.9023 3.4893 54.795 3.56948C54.5981 3.71664 54.439 3.72054 54.409 3.72054V2.038V0.35546C53.917 0.35546 53.3099 0.478357 52.7805 0.874017C52.1931 1.31303 51.8305 1.99962 51.8305 2.794H53.513ZM54.409 2.038V3.72054C54.3625 3.72054 54.1995 3.71205 54.0039 3.56435C53.8976 3.48405 53.7899 3.36663 53.712 3.21118C53.6334 3.05441 53.6085 2.9054 53.6085 2.794H55.291H56.9735C56.9735 2.00088 56.6123 1.31742 56.0321 0.879153C55.5075 0.482952 54.9035 0.35546 54.409 0.35546V2.038ZM55.291 2.794H53.6085V8.856H55.291H56.9735V2.794H55.291ZM55.291 8.856H53.6085C53.6085 8.7446 53.6334 8.59559 53.712 8.43882C53.7899 8.28337 53.8976 8.16595 54.0039 8.08565C54.1995 7.93795 54.3625 7.92946 54.409 7.92946V9.612V11.2945C54.9035 11.2945 55.5075 11.167 56.0321 10.7708C56.6123 10.3326 56.9735 9.64912 56.9735 8.856H55.291ZM54.409 9.612V7.92946C54.439 7.92946 54.5981 7.93336 54.795 8.08052C54.9023 8.1607 55.0117 8.27884 55.0909 8.43606C55.1706 8.59443 55.1955 8.74465 55.1955 8.856H53.513H51.8305C51.8305 9.65038 52.1931 10.337 52.7805 10.776C53.3099 11.1716 53.917 11.2945 54.409 11.2945V9.612ZM47.087 10.046V11.7285H54.101V10.046V8.36346H47.087V10.046ZM54.101 10.046V11.7285C54.2516 11.7285 54.2798 11.7419 54.2405 11.7317C54.1859 11.7174 54.0238 11.6627 53.8595 11.5029C53.6928 11.341 53.6289 11.1735 53.6094 11.1028C53.5949 11.0506 53.6085 11.0664 53.6085 11.208H55.291H56.9735C56.9735 10.6769 56.9077 9.77283 56.2045 9.08956C55.5154 8.41994 54.621 8.36346 54.101 8.36346V10.046ZM55.291 11.208H53.6085V12.076H55.291H56.9735V11.208H55.291ZM55.291 12.076H53.6085C53.6085 12.2176 53.5949 12.2334 53.6094 12.1812C53.6289 12.1105 53.6928 11.943 53.8595 11.7811C54.0238 11.6213 54.1859 11.5666 54.2405 11.5523C54.2798 11.5421 54.2516 11.5555 54.101 11.5555V13.238V14.9205C54.621 14.9205 55.5154 14.8641 56.2045 14.1944C56.9077 13.5112 56.9735 12.6071 56.9735 12.076H55.291ZM54.101 13.238V11.5555H48.487V13.238V14.9205H54.101V13.238ZM48.487 13.238V11.5555C48.1576 11.5555 47.6016 11.6389 47.1398 12.1008C46.6779 12.5626 46.5945 13.1186 46.5945 13.448H48.277H49.9595C49.9595 13.6374 49.9111 14.0884 49.5192 14.4802C49.1274 14.8721 48.6764 14.9205 48.487 14.9205V13.238ZM48.277 13.448H46.5945V13.56H48.277H49.9595V13.448H48.277ZM48.277 13.56H46.5945C46.5945 13.8894 46.6779 14.4454 47.1398 14.9072C47.6016 15.3691 48.1576 15.4525 48.487 15.4525V13.77V12.0875C48.6764 12.0875 49.1274 12.1359 49.5192 12.5278C49.9111 12.9196 49.9595 13.3706 49.9595 13.56H48.277ZM48.487 13.77V15.4525H54.997V13.77V12.0875H48.487V13.77ZM54.997 13.77V15.4525C54.848 15.4525 54.6688 15.4188 54.4887 15.3272C54.3109 15.2366 54.1772 15.1125 54.085 14.9895C53.9135 14.7609 53.8885 14.5499 53.8885 14.442H55.571H57.2535C57.2535 13.9981 57.1375 13.4511 56.777 12.9705C56.3758 12.4354 55.7406 12.0875 54.997 12.0875V13.77ZM55.571 14.442H53.8885C53.8885 14.3713 53.9025 14.1552 54.085 13.912C54.1827 13.7816 54.3223 13.6552 54.5033 13.5653C54.6846 13.4752 54.8594 13.4455 54.997 13.4455V15.128V16.8105C55.7165 16.8105 56.3611 16.4856 56.777 15.931C57.1484 15.4358 57.2535 14.8767 57.2535 14.442H55.571ZM54.997 15.128V13.4455H47.731V15.128V16.8105H54.997V15.128ZM47.731 15.128V13.4455C47.5804 13.4455 47.5522 13.4321 47.5915 13.4423C47.6461 13.4566 47.8082 13.5113 47.9725 13.6711C48.1392 13.833 48.2031 14.0005 48.2226 14.0712C48.2371 14.1234 48.2235 14.1076 48.2235 13.966H46.541H44.8585C44.8585 14.4971 44.9243 15.4012 45.6275 16.0844C46.3166 16.7541 47.211 16.8105 47.731 16.8105V15.128ZM46.541 13.966H48.2235V13.098H46.541H44.8585V13.966H46.541ZM46.541 13.098H48.2235C48.2235 12.9564 48.2371 12.9406 48.2226 12.9928C48.2031 13.0635 48.1392 13.231 47.9725 13.3929C47.8082 13.5527 47.6461 13.6074 47.5915 13.6217C47.5522 13.6319 47.5804 13.6185 47.731 13.6185V11.936V10.2535C47.211 10.2535 46.3166 10.3099 45.6275 10.9796C44.9243 11.6628 44.8585 12.5669 44.8585 13.098H46.541ZM47.731 11.936V13.6185H53.345V11.936V10.2535H47.731V11.936ZM53.345 11.936V13.6185C53.6744 13.6185 54.2304 13.5351 54.6922 13.0732C55.1541 12.6114 55.2375 12.0554 55.2375 11.726H53.555H51.8725C51.8725 11.5366 51.9209 11.0856 52.3128 10.6938C52.7046 10.3019 53.1556 10.2535 53.345 10.2535V11.936ZM53.555 11.726H55.2375V11.614H53.555H51.8725V11.726H53.555ZM53.555 11.614H55.2375C55.2375 11.2846 55.1541 10.7286 54.6922 10.2668C54.2304 9.80494 53.6744 9.72146 53.345 9.72146V11.404V13.0865C53.1556 13.0865 52.7046 13.0381 52.3128 12.6462C51.9209 12.2544 51.8725 11.8034 51.8725 11.614H53.555ZM53.345 11.404V9.72146H47.087V11.404V13.0865H53.345V11.404ZM47.087 11.404V9.72146C47.2246 9.72146 47.3994 9.75117 47.5807 9.84127C47.7617 9.93122 47.9013 10.0576 47.999 10.188C48.1814 10.4312 48.1955 10.6473 48.1955 10.718H46.513H44.8305C44.8305 11.1527 44.9356 11.7118 45.307 12.207C45.7229 12.7616 46.3675 13.0865 47.087 13.0865V11.404ZM46.513 10.718H48.1955C48.1955 10.8259 48.1705 11.0369 47.999 11.2655C47.9068 11.3885 47.7731 11.5126 47.5953 11.6032C47.4152 11.6948 47.236 11.7285 47.087 11.7285V10.046V8.36346C46.3434 8.36346 45.7082 8.71145 45.307 9.24648C44.9465 9.72711 44.8305 10.2741 44.8305 10.718H46.513ZM63.8192 9.584L63.6039 7.91529L63.5951 7.91643L63.5863 7.91766L63.8192 9.584ZM64.5472 10.228L66.2214 10.0606L66.2201 10.0488L64.5472 10.228ZM64.0432 11.082L63.8133 9.41523L63.8082 9.41595L64.0432 11.082ZM65.8212 7.68H67.5037V5.99746H65.8212V7.68ZM65.8212 6.14V7.82254H67.5037V6.14H65.8212ZM61.1032 4.418V2.73546H58.0512V4.418V6.10054H61.1032V4.418ZM58.0512 4.418V2.73546C58.1734 2.73546 58.3384 2.76146 58.5138 2.84792C58.6897 2.93467 58.8262 3.05777 58.9215 3.18546C59.0983 3.42212 59.1037 3.62349 59.1037 3.662H57.4212H55.7386C55.7386 4.10651 55.8421 4.68588 56.2254 5.19904C56.656 5.77563 57.3199 6.10054 58.0512 6.10054V4.418ZM57.4212 3.662H59.1037C59.1037 3.70051 59.0983 3.90188 58.9215 4.13854C58.8261 4.26623 58.6897 4.38933 58.5138 4.47607C58.3384 4.56254 58.1734 4.58854 58.0512 4.58854V2.906V1.22346C57.3199 1.22346 56.656 1.54837 56.2254 2.12496C55.8421 2.63812 55.7386 3.21749 55.7386 3.662H57.4212ZM58.0512 2.906V4.58854H61.9992V2.906V1.22346H58.0512V2.906ZM61.9992 2.906V4.58854C62.1498 4.58854 62.178 4.60191 62.1387 4.59166C62.0841 4.57742 61.922 4.52266 61.7576 4.36294C61.591 4.20097 61.5271 4.03349 61.5076 3.96284C61.4931 3.91056 61.5066 3.92645 61.5066 4.068H63.1892H64.8717C64.8717 3.53692 64.8059 2.63283 64.1027 1.94956C63.4136 1.27994 62.5192 1.22346 61.9992 1.22346V2.906ZM63.1892 4.068H61.5066V6.658H63.1892H64.8717V4.068H63.1892ZM63.1892 6.658H61.5066C61.5066 6.79955 61.4931 6.81543 61.5076 6.76316C61.5271 6.69251 61.591 6.52503 61.7576 6.36306C61.922 6.20334 62.0841 6.14858 62.1387 6.13434C62.178 6.12409 62.1498 6.13746 61.9992 6.13746V7.82V9.50254C62.5192 9.50254 63.4136 9.44606 64.1027 8.77644C64.8059 8.09317 64.8717 7.18908 64.8717 6.658H63.1892ZM61.9992 7.82V6.13746H59.5212V7.82V9.50254H61.9992V7.82ZM59.5212 7.82V6.13746C59.2866 6.13746 58.6224 6.16084 58.0812 6.70201C57.54 7.24319 57.5166 7.90742 57.5166 8.142H59.1992H60.8817C60.8817 8.16894 60.8808 8.28596 60.8361 8.44558C60.787 8.62072 60.6803 8.86183 60.4607 9.08149C60.241 9.30114 59.9999 9.40778 59.8248 9.45689C59.6651 9.50165 59.5481 9.50254 59.5212 9.50254V7.82ZM59.1992 8.142H57.5166V9.514H59.1992H60.8817V8.142H59.1992ZM59.1992 9.514H57.5166C57.5166 9.74858 57.54 10.4128 58.0812 10.954C58.6224 11.4952 59.2866 11.5185 59.5212 11.5185V9.836V8.15346C59.5481 8.15346 59.6651 8.15435 59.8248 8.19911C59.9999 8.24822 60.241 8.35486 60.4607 8.57451C60.6803 8.79417 60.787 9.03527 60.8361 9.21042C60.8808 9.37004 60.8817 9.48706 60.8817 9.514H59.1992ZM59.5212 9.836V11.5185C61.1201 11.5185 62.646 11.4469 64.0521 11.2503L63.8192 9.584L63.5863 7.91766C62.3884 8.0851 61.0303 8.15346 59.5212 8.15346V9.836ZM63.8192 9.584L64.0345 11.2527C63.7764 11.286 63.427 11.2063 63.1578 10.9449C62.9318 10.7253 62.8839 10.4978 62.8742 10.4072L64.5472 10.228L66.2201 10.0488C66.1684 9.56622 65.9736 8.98869 65.5026 8.53115C64.9884 8.03168 64.296 7.82599 63.6039 7.91529L63.8192 9.584ZM64.5472 10.228L62.873 10.3954C62.8721 10.3866 62.8693 10.3516 62.8775 10.2939C62.8855 10.2372 62.9077 10.1352 62.9721 10.0121C63.0393 9.88352 63.1504 9.7373 63.3187 9.61661C63.4892 9.49439 63.6667 9.43546 63.8133 9.41524L64.0432 11.082L64.2731 12.7488C65.0374 12.6433 65.6322 12.1871 65.9543 11.5709C66.2364 11.0313 66.2625 10.4718 66.2214 10.0606L64.5472 10.228ZM64.0432 11.082L63.8082 9.41595C62.8262 9.55444 61.3035 9.66546 58.6252 9.66546V11.348V13.0305C61.3788 13.0305 63.0762 12.9176 64.2781 12.7481L64.0432 11.082ZM58.6252 11.348V9.66546C58.4746 9.66546 58.4464 9.65209 58.4857 9.66234C58.5403 9.67658 58.7024 9.73134 58.8667 9.89106C59.0334 10.053 59.0972 10.2205 59.1168 10.2912C59.1312 10.3434 59.1177 10.3276 59.1177 10.186H57.4352H55.7526C55.7526 10.7171 55.8185 11.6212 56.5216 12.3044C57.2108 12.9741 58.1051 13.0305 58.6252 13.0305V11.348ZM57.4352 10.186H59.1177V7.526H57.4352H55.7526V10.186H57.4352ZM57.4352 7.526H59.1177C59.1177 7.38445 59.1312 7.36856 59.1168 7.42084C59.0972 7.49149 59.0334 7.65897 58.8667 7.82094C58.7024 7.98066 58.5403 8.03542 58.4857 8.04966C58.4464 8.05991 58.4746 8.04654 58.6252 8.04654V6.364V4.68146C58.1051 4.68146 57.2108 4.73794 56.5216 5.40756C55.8185 6.09083 55.7526 6.99492 55.7526 7.526H57.4352ZM58.6252 6.364V8.04654H61.1032V6.364V4.68146H58.6252V6.364ZM61.1032 6.364V8.04654C61.3378 8.04654 62.002 8.02316 62.5432 7.48199C63.0843 6.94081 63.1077 6.27657 63.1077 6.042H61.4252H59.7426C59.7426 6.01506 59.7435 5.89804 59.7883 5.73842C59.8374 5.56327 59.944 5.32217 60.1637 5.10251C60.3834 4.88286 60.6245 4.77622 60.7996 4.72711C60.9592 4.68235 61.0762 4.68146 61.1032 4.68146V6.364ZM61.4252 6.042H63.1077V4.74H61.4252H59.7426V6.042H61.4252ZM61.4252 4.74H63.1077C63.1077 4.50543 63.0843 3.84119 62.5432 3.30001C62.002 2.75884 61.3378 2.73546 61.1032 2.73546V4.418V6.10054C61.0762 6.10054 60.9592 6.09965 60.7996 6.05489C60.6245 6.00578 60.3834 5.89914 60.1637 5.67948C59.944 5.45983 59.8374 5.21872 59.7883 5.04358C59.7435 4.88396 59.7426 4.76694 59.7426 4.74H61.4252ZM65.8212 13.518H67.5037V7.68H65.8212H64.1386V13.518H65.8212ZM65.8212 7.68V5.99746H64.4772V7.68V9.36254H65.8212V7.68ZM64.4772 7.68V5.99746C64.5879 5.99746 64.7468 6.02021 64.9204 6.1042C65.0959 6.18911 65.2349 6.31192 65.3332 6.44298C65.515 6.68532 65.5157 6.88921 65.5157 6.91H63.8332H62.1506C62.1506 7.35079 62.2494 7.93968 62.6412 8.46202C63.0832 9.05142 63.7566 9.36254 64.4772 9.36254V7.68ZM63.8332 6.91H65.5157C65.5157 6.93079 65.515 7.13468 65.3332 7.37702C65.2349 7.50808 65.0959 7.63089 64.9204 7.7158C64.7468 7.79979 64.5879 7.82254 64.4772 7.82254V6.14V4.45746C63.7566 4.45746 63.0832 4.76858 62.6412 5.35798C62.2494 5.88032 62.1506 6.46921 62.1506 6.91H63.8332ZM64.4772 6.14V7.82254H65.8212V6.14V4.45746H64.4772V6.14ZM65.8212 6.14H67.5037V2.794H65.8212H64.1386V6.14H65.8212ZM65.8212 2.794H67.5037C67.5037 2.90535 67.4788 3.05556 67.399 3.21394C67.3199 3.37116 67.2105 3.4893 67.1032 3.56948C66.9063 3.71664 66.7472 3.72054 66.7172 3.72054V2.038V0.35546C66.2252 0.35546 65.6181 0.478356 65.0887 0.874017C64.5013 1.31303 64.1386 1.99962 64.1386 2.794H65.8212ZM66.7172 2.038V3.72054C66.6707 3.72054 66.5076 3.71205 66.3121 3.56434C66.2058 3.48405 66.0981 3.36663 66.0202 3.21118C65.9416 3.05441 65.9166 2.9054 65.9166 2.794H67.5992H69.2817C69.2817 2.00088 68.9205 1.31742 68.3403 0.879154C67.8157 0.482952 67.2117 0.35546 66.7172 0.35546V2.038ZM67.5992 2.794H65.9166V13.518H67.5992H69.2817V2.794H67.5992ZM67.5992 13.518H65.9166C65.9166 13.4066 65.9416 13.2576 66.0202 13.1008C66.0981 12.9454 66.2058 12.8279 66.3121 12.7477C66.5076 12.6 66.6707 12.5915 66.7172 12.5915V14.274V15.9565C67.2117 15.9565 67.8157 15.829 68.3403 15.4328C68.9205 14.9946 69.2817 14.3111 69.2817 13.518H67.5992ZM66.7172 14.274V12.5915C66.7472 12.5915 66.9063 12.5954 67.1032 12.7425C67.2105 12.8227 67.3199 12.9408 67.399 13.0981C67.4788 13.2564 67.5037 13.4066 67.5037 13.518H65.8212H64.1386C64.1386 14.3124 64.5013 14.999 65.0887 15.438C65.6181 15.8336 66.2252 15.9565 66.7172 15.9565V14.274ZM82.5814 6.56L84.1865 7.06447V7.06447L82.5814 6.56ZM81.4754 7.106L81.8503 5.46576L81.8426 5.46401L81.8349 5.46233L81.4754 7.106ZM80.8454 6.196L79.2051 5.82108L79.2029 5.83101L80.8454 6.196ZM76.6314 7.75V9.43254H78.3139V7.75H76.6314ZM78.4234 7.75H76.7408V9.43254H78.4234V7.75ZM80.6914 4.096V2.41346H74.5034V4.096V5.77854H80.6914V4.096ZM74.5034 4.096V2.41346C74.6256 2.41346 74.792 2.43945 74.9693 2.52736C75.1474 2.61567 75.2846 2.7409 75.3797 2.86984C75.5551 3.10762 75.5559 3.30485 75.5559 3.326H73.8734H72.1908C72.1908 3.76714 72.2896 4.34938 72.6715 4.86716C73.1028 5.45194 73.7706 5.77854 74.5034 5.77854V4.096ZM73.8734 3.326H75.5559C75.5559 3.34714 75.5551 3.54437 75.3797 3.78216C75.2846 3.91109 75.1474 4.03633 74.9693 4.12464C74.792 4.21255 74.6256 4.23854 74.5034 4.23854V2.556V0.87346C73.7706 0.87346 73.1028 1.20006 72.6715 1.78484C72.2896 2.30262 72.1908 2.88485 72.1908 3.326H73.8734ZM74.5034 2.556V4.23854H81.6154V2.556V0.87346H74.5034V2.556ZM81.6154 2.556V4.23854C81.7659 4.23854 81.7942 4.25191 81.7549 4.24166C81.7002 4.22742 81.5382 4.17266 81.3738 4.01294C81.2072 3.85097 81.1433 3.68349 81.1238 3.61284C81.1093 3.56056 81.1228 3.57645 81.1228 3.718H82.8054H84.4879C84.4879 3.18692 84.4221 2.28283 83.7189 1.59956C83.0298 0.92994 82.1354 0.87346 81.6154 0.87346V2.556ZM82.8054 3.718H81.1228V4.74H82.8054H84.4879V3.718H82.8054ZM82.8054 4.74H81.1228C81.1228 5.3392 81.0586 5.79337 80.9762 6.05553L82.5814 6.56L84.1865 7.06447C84.4121 6.34663 84.4879 5.5128 84.4879 4.74H82.8054ZM82.5814 6.56L80.9762 6.05553C81.0028 5.97119 81.055 5.86401 81.1469 5.75911C81.2388 5.65419 81.348 5.57717 81.4571 5.52749C81.6676 5.43163 81.8196 5.45874 81.8503 5.46576L81.4754 7.106L81.1005 8.74624C81.6212 8.86526 82.2491 8.86437 82.8516 8.59001C83.4925 8.29818 83.9697 7.7542 84.1865 7.06447L82.5814 6.56ZM81.4754 7.106L81.8349 5.46233C81.874 5.47087 82.0954 5.52875 82.2908 5.78635C82.5196 6.08793 82.5216 6.40899 82.4878 6.56099L80.8454 6.196L79.2029 5.83101C79.0571 6.48701 79.1501 7.21407 79.6099 7.82015C80.0363 8.38225 80.6288 8.64313 81.1158 8.74967L81.4754 7.106ZM80.8454 6.196L82.4856 6.57091C82.6254 5.95933 82.6959 5.35759 82.6959 4.698H81.0134H79.3308C79.3308 5.10241 79.2893 5.45267 79.2051 5.82109L80.8454 6.196ZM81.0134 4.698H82.6959V4.418H81.0134H79.3308V4.698H81.0134ZM81.0134 4.418H82.6959C82.6959 4.18342 82.6725 3.51919 82.1314 2.97801C81.5902 2.43684 80.9259 2.41346 80.6914 2.41346V4.096V5.77854C80.6644 5.77854 80.5474 5.77765 80.3878 5.73289C80.2127 5.68378 79.9715 5.57714 79.7519 5.35749C79.5322 5.13783 79.4256 4.89673 79.3765 4.72158C79.3317 4.56196 79.3308 4.44494 79.3308 4.418H81.0134ZM83.7154 9.248V7.56546H73.1314V9.248V10.9305H83.7154V9.248ZM73.1314 9.248V7.56546C73.2536 7.56546 73.4186 7.59146 73.594 7.67793C73.7699 7.76467 73.9063 7.88777 74.0017 8.01546C74.1785 8.25212 74.1839 8.45349 74.1839 8.492H72.5014H70.8188C70.8188 8.93651 70.9223 9.51588 71.3055 10.029C71.7362 10.6056 72.4001 10.9305 73.1314 10.9305V9.248ZM72.5014 8.492H74.1839C74.1839 8.54837 74.1734 8.75382 73.9955 8.98902C73.8999 9.11537 73.7643 9.23632 73.5906 9.3215C73.4172 9.40653 73.2537 9.43254 73.1314 9.43254V7.75V6.06746C72.4016 6.06746 71.7416 6.39072 71.3117 6.95898C70.9273 7.46718 70.8188 8.04363 70.8188 8.492H72.5014ZM73.1314 7.75V9.43254H76.6314V7.75V6.06746H73.1314V7.75ZM76.6314 7.75H78.3139V6.224H76.6314H74.9488V7.75H76.6314ZM76.6314 6.224H78.3139C78.3139 6.34619 78.2858 6.50326 78.2028 6.66471C78.1209 6.82407 78.0096 6.94087 77.9042 7.01854C77.7112 7.16074 77.5574 7.16454 77.5274 7.16454V5.482V3.79946C77.0353 3.79946 76.4335 3.92226 75.908 4.30946C75.3256 4.73863 74.9488 5.42 74.9488 6.224H76.6314ZM77.5274 5.482V7.16454C77.4973 7.16454 77.3435 7.16074 77.1505 7.01854C77.0451 6.94087 76.9339 6.82407 76.852 6.66471C76.769 6.50326 76.7408 6.34619 76.7408 6.224H78.4234H80.1059C80.1059 5.42 79.7292 4.73863 79.1467 4.30946C78.6212 3.92226 78.0194 3.79946 77.5274 3.79946V5.482ZM78.4234 6.224H76.7408V7.75H78.4234H80.1059V6.224H78.4234ZM78.4234 7.75V9.43254H83.7154V7.75V6.06746H78.4234V7.75ZM83.7154 7.75V9.43254C83.593 9.43254 83.4295 9.40653 83.2561 9.3215C83.0824 9.23632 82.9468 9.11537 82.8512 8.98902C82.6733 8.75382 82.6628 8.54837 82.6628 8.492H84.3454H86.0279C86.0279 8.04363 85.9194 7.46718 85.535 6.95898C85.1052 6.39072 84.4452 6.06746 83.7154 6.06746V7.75ZM84.3454 8.492H82.6628C82.6628 8.45349 82.6683 8.25212 82.845 8.01546C82.9404 7.88777 83.0769 7.76467 83.2528 7.67793C83.4281 7.59146 83.5931 7.56546 83.7154 7.56546V9.248V10.9305C84.4467 10.9305 85.1106 10.6056 85.5412 10.029C85.9244 9.51588 86.0279 8.93651 86.0279 8.492H84.3454ZM81.6434 15.044V13.3615H75.2034V15.044V16.7265H81.6434V15.044ZM75.2034 15.044V13.3615C75.0528 13.3615 75.0245 13.3481 75.0639 13.3583C75.1185 13.3726 75.2805 13.4273 75.4449 13.5871C75.6116 13.749 75.6754 13.9165 75.695 13.9872C75.7094 14.0394 75.6959 14.0236 75.6959 13.882H74.0134H72.3308C72.3308 14.4131 72.3967 15.3172 73.0998 16.0004C73.789 16.6701 74.6833 16.7265 75.2034 16.7265V15.044ZM74.0134 13.882H75.6959V11.488H74.0134H72.3308V13.882H74.0134ZM74.0134 11.488H75.6959C75.6959 11.3464 75.7094 11.3306 75.695 11.3828C75.6754 11.4535 75.6116 11.621 75.4449 11.7829C75.2805 11.9427 75.1185 11.9974 75.0639 12.0117C75.0245 12.0219 75.0528 12.0085 75.2034 12.0085V10.326V8.64346C74.6833 8.64346 73.789 8.69994 73.0998 9.36956C72.3967 10.0528 72.3308 10.9569 72.3308 11.488H74.0134ZM75.2034 10.326V12.0085H81.6434V10.326V8.64346H75.2034V10.326ZM81.6434 10.326V12.0085C81.7939 12.0085 81.8222 12.0219 81.7829 12.0117C81.7282 11.9974 81.5662 11.9427 81.4018 11.7829C81.2352 11.621 81.1713 11.4535 81.1518 11.3828C81.1373 11.3306 81.1508 11.3464 81.1508 11.488H82.8334H84.5159C84.5159 10.9569 84.4501 10.0528 83.7469 9.36956C83.0578 8.69994 82.1634 8.64346 81.6434 8.64346V10.326ZM82.8334 11.488H81.1508V13.882H82.8334H84.5159V11.488H82.8334ZM82.8334 13.882H81.1508C81.1508 14.0236 81.1373 14.0394 81.1518 13.9872C81.1713 13.9165 81.2352 13.749 81.4018 13.5871C81.5662 13.4273 81.7282 13.3726 81.7829 13.3583C81.8222 13.3481 81.7939 13.3615 81.6434 13.3615V15.044V16.7265C82.1634 16.7265 83.0578 16.6701 83.7469 16.0004C84.4501 15.3172 84.5159 14.4131 84.5159 13.882H82.8334ZM76.1134 13.588V15.2705H80.7334V13.588V11.9055H76.1134V13.588ZM80.7334 13.588V15.2705C80.9679 15.2705 81.6322 15.2472 82.1734 14.706C82.7145 14.1648 82.7379 13.5006 82.7379 13.266H81.0554H79.3728C79.3728 13.2391 79.3737 13.122 79.4185 12.9624C79.4676 12.7873 79.5742 12.5462 79.7939 12.3265C80.0135 12.1069 80.2547 12.0002 80.4298 11.9511C80.5894 11.9063 80.7064 11.9055 80.7334 11.9055V13.588ZM81.0554 13.266H82.7379V12.104H81.0554H79.3728V13.266H81.0554ZM81.0554 12.104H82.7379C82.7379 11.8694 82.7145 11.2052 82.1734 10.664C81.6322 10.1228 80.9679 10.0995 80.7334 10.0995V11.782V13.4645C80.7064 13.4645 80.5894 13.4637 80.4298 13.4189C80.2546 13.3698 80.0135 13.2631 79.7939 13.0435C79.5742 12.8238 79.4676 12.5827 79.4185 12.4076C79.3737 12.248 79.3728 12.1309 79.3728 12.104H81.0554ZM80.7334 11.782V10.0995H76.1134V11.782V13.4645H80.7334V11.782ZM76.1134 11.782V10.0995C75.8788 10.0995 75.2146 10.1228 74.6734 10.664C74.1322 11.2052 74.1088 11.8694 74.1088 12.104H75.7914H77.4739C77.4739 12.1309 77.473 12.248 77.4283 12.4076C77.3792 12.5827 77.2725 12.8238 77.0529 13.0435C76.8332 13.2631 76.5921 13.3698 76.417 13.4189C76.2573 13.4637 76.1403 13.4645 76.1134 13.4645V11.782ZM75.7914 12.104H74.1088V13.266H75.7914H77.4739V12.104H75.7914ZM75.7914 13.266H74.1088C74.1088 13.5006 74.1322 14.1648 74.6734 14.706C75.2146 15.2472 75.8788 15.2705 76.1134 15.2705V13.588V11.9055C76.1403 11.9055 76.2573 11.9063 76.417 11.9511C76.5921 12.0002 76.8332 12.1069 77.0529 12.3265C77.2725 12.5462 77.3792 12.7873 77.4283 12.9624C77.473 13.122 77.4739 13.2391 77.4739 13.266H75.7914Z" fill="#FFFBEB" mask="url(#path-1-outside-1_21_6219)"/>
</g>
<defs>
<filter id="filter0_d_21_6219" x="0.0976562" y="0.0893555" width="87.9302" height="20.917" filterUnits="userSpaceOnUse" color-interpolation-filters="sRGB">
<feFlood flood-opacity="0" result="BackgroundImageFix"/>
<feColorMatrix in="SourceAlpha" type="matrix" values="0 0 0 0 0 0 0 0 0 0 0 0 0 0 0 0 0 0 127 0" result="hardAlpha"/>
<feOffset dy="2"/>
<feGaussianBlur stdDeviation="1"/>
<feComposite in2="hardAlpha" operator="out"/>
<feColorMatrix type="matrix" values="0 0 0 0 0.580392 0 0 0 0 0.439216 0 0 0 0 0.368627 0 0 0 0.25 0"/>
<feBlend mode="normal" in2="BackgroundImageFix" result="effect1_dropShadow_21_6219"/>
<feBlend mode="normal" in="SourceGraphic" in2="effect1_dropShadow_21_6219" result="shape"/>
</filter>
</defs>
</svg>
