<svg width="100" height="20" viewBox="0 0 100 20" fill="none" xmlns="http://www.w3.org/2000/svg">
<g filter="url(#filter0_d_21_6218)">
<mask id="path-1-outside-1_21_6218" maskUnits="userSpaceOnUse" x="2" y="0" width="96" height="16" fill="black">
<rect fill="white" x="2" width="96" height="16"/>
<path d="M3.94234 3.844C3.94234 3.466 4.13834 3.116 4.57234 3.116H9.50034C9.93434 3.116 10.1303 3.466 10.1303 3.844C10.1303 4.222 9.93434 4.572 9.50034 4.572H9.23434V9.444L9.61234 9.402C10.0323 9.346 10.2843 9.64 10.3263 10.018C10.3683 10.41 10.2003 10.802 9.82234 10.844C8.14234 11.04 6.75634 11.04 4.48834 11.04C4.05434 11.04 3.85834 10.69 3.85834 10.312C3.85834 9.934 4.05434 9.584 4.48834 9.584H4.99234V4.572H4.57234C4.13834 4.572 3.94234 4.222 3.94234 3.844ZM6.57434 4.572V9.584C6.93834 9.584 7.30234 9.584 7.65234 9.556V4.572H6.57434ZM13.4063 7.764H12.3983V12.986C12.3983 13.462 11.9923 13.686 11.5863 13.686C11.1803 13.686 10.7743 13.462 10.7743 12.986V2.878C10.7743 2.402 11.1803 2.178 11.5863 2.178C11.9923 2.178 12.3983 2.402 12.3983 2.878V6.252H13.4063V2.738C13.4063 2.262 13.8123 2.038 14.2183 2.038C14.6383 2.038 15.0443 2.262 15.0443 2.738V13.574C15.0443 14.05 14.6383 14.274 14.2183 14.274C13.8123 14.274 13.4063 14.05 13.4063 13.574V7.764ZM21.1505 4.474H17.8325C17.3985 4.474 17.2025 4.124 17.2025 3.718C17.2025 3.312 17.3985 2.962 17.8325 2.962H22.0185C22.9145 2.962 23.2085 3.242 23.2085 4.124V5.874C23.2085 8.422 22.4385 9.248 18.2805 11.656C17.8885 11.88 17.4265 11.712 17.2025 11.348C16.9785 10.998 16.9785 10.466 17.3985 10.228C19.9745 8.772 20.9265 8.142 21.2765 7.4L17.5385 7.638C17.1185 7.666 16.8945 7.33 16.8665 6.91C16.8385 6.532 17.0065 6.126 17.4405 6.112L21.4725 5.958V4.796C21.4725 4.558 21.3885 4.474 21.1505 4.474ZM27.1145 2.794V13.518C27.1145 14.036 26.6805 14.274 26.2045 14.274C25.7425 14.274 25.3085 14.036 25.3085 13.518V2.794C25.3085 2.276 25.7425 2.038 26.2045 2.038C26.6805 2.038 27.1145 2.276 27.1145 2.794ZM35.9087 4.516H33.9347V5.58C33.9347 6.784 34.2007 7.442 34.9707 8.24C35.5027 8.786 36.0347 9.29 36.4547 9.654C36.8047 9.962 36.6927 10.466 36.4127 10.76C36.1327 11.04 35.6707 11.166 35.3347 10.872C34.9707 10.55 34.5087 10.102 34.0047 9.598C33.2767 8.87 33.0947 8.548 33.0387 8.282H33.0247C32.9547 8.604 32.7727 8.912 32.0447 9.64C31.5407 10.144 31.0367 10.634 30.5047 11.096C30.1407 11.404 29.6507 11.208 29.3987 10.928C29.1187 10.606 29.0767 10.116 29.4267 9.808C30.0147 9.29 30.5467 8.786 31.0787 8.24C31.8487 7.442 32.1147 6.784 32.1147 5.58V4.516H30.0287C29.5947 4.516 29.3987 4.166 29.3987 3.76C29.3987 3.34 29.5947 2.99 30.0287 2.99H35.9087C36.3427 2.99 36.5387 3.34 36.5387 3.76C36.5387 4.166 36.3427 4.516 35.9087 4.516ZM39.5907 2.794V13.518C39.5907 14.036 39.1567 14.274 38.6807 14.274C38.2187 14.274 37.7847 14.036 37.7847 13.518V2.794C37.7847 2.276 38.2187 2.038 38.6807 2.038C39.1567 2.038 39.5907 2.276 39.5907 2.794ZM48.8889 4.418H45.8369C45.4029 4.418 45.2069 4.068 45.2069 3.662C45.2069 3.256 45.4029 2.906 45.8369 2.906H49.7849C50.6809 2.906 50.9749 3.186 50.9749 4.068V6.658C50.9749 7.54 50.6809 7.82 49.7849 7.82H47.3069C47.0689 7.82 46.9849 7.904 46.9849 8.142V9.514C46.9849 9.752 47.0689 9.836 47.3069 9.836C48.8609 9.836 50.3029 9.766 51.6049 9.584C52.0389 9.528 52.2909 9.836 52.3329 10.228C52.3749 10.648 52.2349 11.026 51.8289 11.082C50.7369 11.236 49.1269 11.348 46.4109 11.348C45.5149 11.348 45.2209 11.068 45.2209 10.186V7.526C45.2209 6.644 45.5149 6.364 46.4109 6.364H48.8889C49.1269 6.364 49.2109 6.28 49.2109 6.042V4.74C49.2109 4.502 49.1269 4.418 48.8889 4.418ZM53.6069 13.518V7.68H52.2629C51.8149 7.68 51.6189 7.33 51.6189 6.91C51.6189 6.49 51.8149 6.14 52.2629 6.14H53.6069V2.794C53.6069 2.276 54.0409 2.038 54.5029 2.038C54.9509 2.038 55.3849 2.276 55.3849 2.794V13.518C55.3849 14.036 54.9509 14.274 54.5029 14.274C54.0409 14.274 53.6069 14.036 53.6069 13.518ZM66.0831 13.518V7.764H63.8151V9.906C63.8151 10.788 63.5211 11.068 62.6251 11.068H58.8451C57.9491 11.068 57.6551 10.788 57.6551 9.906V3.606C57.6551 3.102 58.0891 2.864 58.5371 2.864C58.9851 2.864 59.4191 3.102 59.4191 3.606V5.776H62.0511V3.606C62.0511 3.102 62.4851 2.864 62.9331 2.864C63.3811 2.864 63.8151 3.102 63.8151 3.606V6.252H66.0831V2.794C66.0831 2.276 66.5171 2.038 66.9791 2.038C67.4271 2.038 67.8611 2.276 67.8611 2.794V13.518C67.8611 14.036 67.4271 14.274 66.9791 14.274C66.5171 14.274 66.0831 14.036 66.0831 13.518ZM59.7411 9.57H61.7291C61.9671 9.57 62.0511 9.486 62.0511 9.248V7.274H59.4191V9.248C59.4191 9.486 59.5031 9.57 59.7411 9.57ZM83.9773 13.126H73.3933C72.9593 13.126 72.7633 12.776 72.7633 12.37C72.7633 11.964 72.9593 11.614 73.3933 11.614H77.7893V9.724H75.4653C74.5693 9.724 74.2753 9.444 74.2753 8.562V3.928C74.2753 3.046 74.5693 2.766 75.4653 2.766H82.4233C82.8573 2.766 83.0533 3.116 83.0533 3.522C83.0533 3.928 82.8573 4.278 82.4233 4.278H76.3473C76.1093 4.278 76.0253 4.362 76.0253 4.6V5.51H82.2833C82.7173 5.51 82.9133 5.86 82.9133 6.238C82.9133 6.616 82.7173 6.966 82.2833 6.966H76.0253V7.89C76.0253 8.128 76.1093 8.212 76.3473 8.212H82.6333C83.0673 8.212 83.2633 8.562 83.2633 8.968C83.2633 9.374 83.0673 9.724 82.6333 9.724H79.5813V11.614H83.9773C84.4113 11.614 84.6073 11.964 84.6073 12.37C84.6073 12.776 84.4113 13.126 83.9773 13.126ZM89.0055 10.704C90.8955 8.506 91.1055 8.016 91.1055 6.14V4.838C91.1055 4.6 91.0215 4.516 90.7835 4.516H90.1955C89.7755 4.516 89.5795 4.166 89.5795 3.76C89.5795 3.34 89.7755 2.99 90.1955 2.99H91.6235C92.5195 2.99 92.8135 3.27 92.8135 4.152V6.21C92.8135 8.394 92.5335 9.15 90.2935 11.754C89.9575 12.146 89.4535 12.034 89.1455 11.768C88.8235 11.488 88.6835 11.068 89.0055 10.704ZM85.6035 9.612C87.3955 7.764 87.5355 7.442 87.5355 5.818V4.838C87.5355 4.6 87.4515 4.516 87.2135 4.516H86.3595C85.9255 4.516 85.7295 4.166 85.7295 3.76C85.7295 3.34 85.9255 2.99 86.3595 2.99H88.0535C89.0055 2.99 89.2435 3.214 89.2435 4.152V5.888C89.2435 7.876 88.9775 8.464 86.7795 10.732C86.4295 11.082 85.9815 10.97 85.6875 10.69C85.3795 10.396 85.2535 9.962 85.6035 9.612ZM96.1315 2.78V13.532C96.1315 14.036 95.7115 14.274 95.2495 14.274C94.8015 14.274 94.3815 14.036 94.3815 13.532V2.78C94.3815 2.276 94.8015 2.038 95.2495 2.038C95.7115 2.038 96.1315 2.276 96.1315 2.78Z"/>
</mask>
<path d="M3.94234 3.844C3.94234 3.466 4.13834 3.116 4.57234 3.116H9.50034C9.93434 3.116 10.1303 3.466 10.1303 3.844C10.1303 4.222 9.93434 4.572 9.50034 4.572H9.23434V9.444L9.61234 9.402C10.0323 9.346 10.2843 9.64 10.3263 10.018C10.3683 10.41 10.2003 10.802 9.82234 10.844C8.14234 11.04 6.75634 11.04 4.48834 11.04C4.05434 11.04 3.85834 10.69 3.85834 10.312C3.85834 9.934 4.05434 9.584 4.48834 9.584H4.99234V4.572H4.57234C4.13834 4.572 3.94234 4.222 3.94234 3.844ZM6.57434 4.572V9.584C6.93834 9.584 7.30234 9.584 7.65234 9.556V4.572H6.57434ZM13.4063 7.764H12.3983V12.986C12.3983 13.462 11.9923 13.686 11.5863 13.686C11.1803 13.686 10.7743 13.462 10.7743 12.986V2.878C10.7743 2.402 11.1803 2.178 11.5863 2.178C11.9923 2.178 12.3983 2.402 12.3983 2.878V6.252H13.4063V2.738C13.4063 2.262 13.8123 2.038 14.2183 2.038C14.6383 2.038 15.0443 2.262 15.0443 2.738V13.574C15.0443 14.05 14.6383 14.274 14.2183 14.274C13.8123 14.274 13.4063 14.05 13.4063 13.574V7.764ZM21.1505 4.474H17.8325C17.3985 4.474 17.2025 4.124 17.2025 3.718C17.2025 3.312 17.3985 2.962 17.8325 2.962H22.0185C22.9145 2.962 23.2085 3.242 23.2085 4.124V5.874C23.2085 8.422 22.4385 9.248 18.2805 11.656C17.8885 11.88 17.4265 11.712 17.2025 11.348C16.9785 10.998 16.9785 10.466 17.3985 10.228C19.9745 8.772 20.9265 8.142 21.2765 7.4L17.5385 7.638C17.1185 7.666 16.8945 7.33 16.8665 6.91C16.8385 6.532 17.0065 6.126 17.4405 6.112L21.4725 5.958V4.796C21.4725 4.558 21.3885 4.474 21.1505 4.474ZM27.1145 2.794V13.518C27.1145 14.036 26.6805 14.274 26.2045 14.274C25.7425 14.274 25.3085 14.036 25.3085 13.518V2.794C25.3085 2.276 25.7425 2.038 26.2045 2.038C26.6805 2.038 27.1145 2.276 27.1145 2.794ZM35.9087 4.516H33.9347V5.58C33.9347 6.784 34.2007 7.442 34.9707 8.24C35.5027 8.786 36.0347 9.29 36.4547 9.654C36.8047 9.962 36.6927 10.466 36.4127 10.76C36.1327 11.04 35.6707 11.166 35.3347 10.872C34.9707 10.55 34.5087 10.102 34.0047 9.598C33.2767 8.87 33.0947 8.548 33.0387 8.282H33.0247C32.9547 8.604 32.7727 8.912 32.0447 9.64C31.5407 10.144 31.0367 10.634 30.5047 11.096C30.1407 11.404 29.6507 11.208 29.3987 10.928C29.1187 10.606 29.0767 10.116 29.4267 9.808C30.0147 9.29 30.5467 8.786 31.0787 8.24C31.8487 7.442 32.1147 6.784 32.1147 5.58V4.516H30.0287C29.5947 4.516 29.3987 4.166 29.3987 3.76C29.3987 3.34 29.5947 2.99 30.0287 2.99H35.9087C36.3427 2.99 36.5387 3.34 36.5387 3.76C36.5387 4.166 36.3427 4.516 35.9087 4.516ZM39.5907 2.794V13.518C39.5907 14.036 39.1567 14.274 38.6807 14.274C38.2187 14.274 37.7847 14.036 37.7847 13.518V2.794C37.7847 2.276 38.2187 2.038 38.6807 2.038C39.1567 2.038 39.5907 2.276 39.5907 2.794ZM48.8889 4.418H45.8369C45.4029 4.418 45.2069 4.068 45.2069 3.662C45.2069 3.256 45.4029 2.906 45.8369 2.906H49.7849C50.6809 2.906 50.9749 3.186 50.9749 4.068V6.658C50.9749 7.54 50.6809 7.82 49.7849 7.82H47.3069C47.0689 7.82 46.9849 7.904 46.9849 8.142V9.514C46.9849 9.752 47.0689 9.836 47.3069 9.836C48.8609 9.836 50.3029 9.766 51.6049 9.584C52.0389 9.528 52.2909 9.836 52.3329 10.228C52.3749 10.648 52.2349 11.026 51.8289 11.082C50.7369 11.236 49.1269 11.348 46.4109 11.348C45.5149 11.348 45.2209 11.068 45.2209 10.186V7.526C45.2209 6.644 45.5149 6.364 46.4109 6.364H48.8889C49.1269 6.364 49.2109 6.28 49.2109 6.042V4.74C49.2109 4.502 49.1269 4.418 48.8889 4.418ZM53.6069 13.518V7.68H52.2629C51.8149 7.68 51.6189 7.33 51.6189 6.91C51.6189 6.49 51.8149 6.14 52.2629 6.14H53.6069V2.794C53.6069 2.276 54.0409 2.038 54.5029 2.038C54.9509 2.038 55.3849 2.276 55.3849 2.794V13.518C55.3849 14.036 54.9509 14.274 54.5029 14.274C54.0409 14.274 53.6069 14.036 53.6069 13.518ZM66.0831 13.518V7.764H63.8151V9.906C63.8151 10.788 63.5211 11.068 62.6251 11.068H58.8451C57.9491 11.068 57.6551 10.788 57.6551 9.906V3.606C57.6551 3.102 58.0891 2.864 58.5371 2.864C58.9851 2.864 59.4191 3.102 59.4191 3.606V5.776H62.0511V3.606C62.0511 3.102 62.4851 2.864 62.9331 2.864C63.3811 2.864 63.8151 3.102 63.8151 3.606V6.252H66.0831V2.794C66.0831 2.276 66.5171 2.038 66.9791 2.038C67.4271 2.038 67.8611 2.276 67.8611 2.794V13.518C67.8611 14.036 67.4271 14.274 66.9791 14.274C66.5171 14.274 66.0831 14.036 66.0831 13.518ZM59.7411 9.57H61.7291C61.9671 9.57 62.0511 9.486 62.0511 9.248V7.274H59.4191V9.248C59.4191 9.486 59.5031 9.57 59.7411 9.57ZM83.9773 13.126H73.3933C72.9593 13.126 72.7633 12.776 72.7633 12.37C72.7633 11.964 72.9593 11.614 73.3933 11.614H77.7893V9.724H75.4653C74.5693 9.724 74.2753 9.444 74.2753 8.562V3.928C74.2753 3.046 74.5693 2.766 75.4653 2.766H82.4233C82.8573 2.766 83.0533 3.116 83.0533 3.522C83.0533 3.928 82.8573 4.278 82.4233 4.278H76.3473C76.1093 4.278 76.0253 4.362 76.0253 4.6V5.51H82.2833C82.7173 5.51 82.9133 5.86 82.9133 6.238C82.9133 6.616 82.7173 6.966 82.2833 6.966H76.0253V7.89C76.0253 8.128 76.1093 8.212 76.3473 8.212H82.6333C83.0673 8.212 83.2633 8.562 83.2633 8.968C83.2633 9.374 83.0673 9.724 82.6333 9.724H79.5813V11.614H83.9773C84.4113 11.614 84.6073 11.964 84.6073 12.37C84.6073 12.776 84.4113 13.126 83.9773 13.126ZM89.0055 10.704C90.8955 8.506 91.1055 8.016 91.1055 6.14V4.838C91.1055 4.6 91.0215 4.516 90.7835 4.516H90.1955C89.7755 4.516 89.5795 4.166 89.5795 3.76C89.5795 3.34 89.7755 2.99 90.1955 2.99H91.6235C92.5195 2.99 92.8135 3.27 92.8135 4.152V6.21C92.8135 8.394 92.5335 9.15 90.2935 11.754C89.9575 12.146 89.4535 12.034 89.1455 11.768C88.8235 11.488 88.6835 11.068 89.0055 10.704ZM85.6035 9.612C87.3955 7.764 87.5355 7.442 87.5355 5.818V4.838C87.5355 4.6 87.4515 4.516 87.2135 4.516H86.3595C85.9255 4.516 85.7295 4.166 85.7295 3.76C85.7295 3.34 85.9255 2.99 86.3595 2.99H88.0535C89.0055 2.99 89.2435 3.214 89.2435 4.152V5.888C89.2435 7.876 88.9775 8.464 86.7795 10.732C86.4295 11.082 85.9815 10.97 85.6875 10.69C85.3795 10.396 85.2535 9.962 85.6035 9.612ZM96.1315 2.78V13.532C96.1315 14.036 95.7115 14.274 95.2495 14.274C94.8015 14.274 94.3815 14.036 94.3815 13.532V2.78C94.3815 2.276 94.8015 2.038 95.2495 2.038C95.7115 2.038 96.1315 2.276 96.1315 2.78Z" fill="#745F56"/>
<path d="M9.23434 4.572V2.88946H7.5518V4.572H9.23434ZM9.23434 9.444H7.5518V11.3238L9.42015 11.1162L9.23434 9.444ZM9.61234 9.402L9.79815 11.0742L9.81646 11.0722L9.83471 11.0698L9.61234 9.402ZM10.3263 10.018L11.9993 9.83875L11.9986 9.8322L10.3263 10.018ZM9.82234 10.844L9.63654 9.17173L9.62737 9.1728L9.82234 10.844ZM4.99234 9.584V11.2665H6.67488V9.584H4.99234ZM4.99234 4.572H6.67488V2.88946H4.99234V4.572ZM6.57434 4.572V2.88946H4.8918V4.572H6.57434ZM6.57434 9.584H4.8918V11.2665H6.57434V9.584ZM7.65234 9.556L7.78652 11.2332L9.33488 11.1093V9.556H7.65234ZM7.65234 4.572H9.33488V2.88946H7.65234V4.572ZM13.4063 7.764H15.0889V6.08146H13.4063V7.764ZM12.3983 7.764V6.08146H10.7158V7.764H12.3983ZM12.3983 6.252H10.7158V7.93454H12.3983V6.252ZM13.4063 6.252V7.93454H15.0889V6.252H13.4063ZM3.94234 3.844H5.62488C5.62488 3.91875 5.60897 4.12822 5.43015 4.3616C5.33443 4.48651 5.19973 4.6053 5.02823 4.68893C4.85679 4.77252 4.69476 4.79854 4.57234 4.79854V3.116V1.43346C3.84395 1.43346 3.18797 1.75511 2.75904 2.3149C2.37372 2.81778 2.2598 3.39125 2.2598 3.844H3.94234ZM4.57234 3.116V4.79854H9.50034V3.116V1.43346H4.57234V3.116ZM9.50034 3.116V4.79854C9.37792 4.79854 9.21589 4.77252 9.04446 4.68893C8.87295 4.6053 8.73826 4.48651 8.64254 4.3616C8.46372 4.12822 8.4478 3.91875 8.4478 3.844H10.1303H11.8129C11.8129 3.39125 11.699 2.81778 11.3136 2.3149C10.8847 1.75511 10.2287 1.43346 9.50034 1.43346V3.116ZM10.1303 3.844H8.4478C8.4478 3.76925 8.46372 3.55978 8.64254 3.3264C8.73826 3.20149 8.87295 3.0827 9.04446 2.99907C9.21589 2.91548 9.37792 2.88946 9.50034 2.88946V4.572V6.25454C10.2287 6.25454 10.8847 5.93289 11.3136 5.3731C11.699 4.87022 11.8129 4.29675 11.8129 3.844H10.1303ZM9.50034 4.572V2.88946H9.23434V4.572V6.25454H9.50034V4.572ZM9.23434 4.572H7.5518V9.444H9.23434H10.9169V4.572H9.23434ZM9.23434 9.444L9.42015 11.1162L9.79815 11.0742L9.61234 9.402L9.42654 7.72975L9.04854 7.77175L9.23434 9.444ZM9.61234 9.402L9.83471 11.0698C9.57657 11.1042 9.22944 11.0282 8.95739 10.772C8.72421 10.5523 8.66653 10.3157 8.65409 10.2038L10.3263 10.018L11.9986 9.8322C11.9442 9.34227 11.7395 8.76971 11.2648 8.32255C10.7513 7.83877 10.0681 7.6438 9.38997 7.73422L9.61234 9.402ZM10.3263 10.018L8.65338 10.1972C8.6455 10.1237 8.64325 9.95861 8.75865 9.74945C8.82105 9.63635 8.9252 9.49993 9.0881 9.3835C9.25667 9.26301 9.44883 9.19261 9.63654 9.17175L9.82234 10.844L10.0081 12.5162C10.8181 12.4263 11.3971 11.9331 11.705 11.375C11.9884 10.8614 12.0492 10.3043 11.9993 9.83875L10.3263 10.018ZM9.82234 10.844L9.62737 9.1728C8.06056 9.35559 6.7723 9.35746 4.48834 9.35746V11.04V12.7225C6.74038 12.7225 8.22412 12.7244 10.0173 12.5152L9.82234 10.844ZM4.48834 11.04V9.35746C4.61076 9.35746 4.7728 9.38348 4.94423 9.46707C5.11573 9.5507 5.25043 9.66949 5.34615 9.7944C5.52497 10.0278 5.54088 10.2373 5.54088 10.312H3.85834H2.1758C2.1758 10.7647 2.28972 11.3382 2.67504 11.8411C3.10397 12.4009 3.75995 12.7225 4.48834 12.7225V11.04ZM3.85834 10.312H5.54088C5.54088 10.3867 5.52497 10.5962 5.34615 10.8296C5.25043 10.9545 5.11573 11.0733 4.94423 11.1569C4.7728 11.2405 4.61076 11.2665 4.48834 11.2665V9.584V7.90146C3.75995 7.90146 3.10397 8.22311 2.67504 8.7829C2.28972 9.28578 2.1758 9.85925 2.1758 10.312H3.85834ZM4.48834 9.584V11.2665H4.99234V9.584V7.90146H4.48834V9.584ZM4.99234 9.584H6.67488V4.572H4.99234H3.3098V9.584H4.99234ZM4.99234 4.572V2.88946H4.57234V4.572V6.25454H4.99234V4.572ZM4.57234 4.572V2.88946C4.69476 2.88946 4.85679 2.91548 5.02823 2.99907C5.19973 3.0827 5.33443 3.20149 5.43015 3.3264C5.60897 3.55978 5.62488 3.76925 5.62488 3.844H3.94234H2.2598C2.2598 4.29675 2.37372 4.87022 2.75904 5.3731C3.18797 5.93289 3.84395 6.25454 4.57234 6.25454V4.572ZM6.57434 4.572H4.8918V9.584H6.57434H8.25688V4.572H6.57434ZM6.57434 9.584V11.2665C6.92529 11.2665 7.35778 11.2675 7.78652 11.2332L7.65234 9.556L7.51817 7.87882C7.24691 7.90052 6.9514 7.90146 6.57434 7.90146V9.584ZM7.65234 9.556H9.33488V4.572H7.65234H5.9698V9.556H7.65234ZM7.65234 4.572V2.88946H6.57434V4.572V6.25454H7.65234V4.572ZM13.4063 7.764V6.08146H12.3983V7.764V9.44654H13.4063V7.764ZM12.3983 7.764H10.7158V12.986H12.3983H14.0809V7.764H12.3983ZM12.3983 12.986H10.7158C10.7158 12.8593 10.7445 12.7004 10.8267 12.5378C10.9077 12.3772 11.0187 12.2567 11.1277 12.174C11.329 12.0213 11.5069 12.0035 11.5863 12.0035V13.686V15.3685C12.0718 15.3685 12.6557 15.2387 13.1615 14.855C13.7196 14.4316 14.0809 13.7671 14.0809 12.986H12.3983ZM11.5863 13.686V12.0035C11.6658 12.0035 11.8437 12.0213 12.045 12.174C12.1539 12.2567 12.265 12.3772 12.346 12.5378C12.4282 12.7004 12.4569 12.8593 12.4569 12.986H10.7743H9.0918C9.0918 13.7671 9.45311 14.4316 10.0112 14.855C10.517 15.2387 11.1009 15.3685 11.5863 15.3685V13.686ZM10.7743 12.986H12.4569V2.878H10.7743H9.0918V12.986H10.7743ZM10.7743 2.878H12.4569C12.4569 3.00468 12.4282 3.16362 12.346 3.32624C12.265 3.48677 12.1539 3.60732 12.045 3.68996C11.8437 3.8427 11.6658 3.86054 11.5863 3.86054V2.178V0.49546C11.1009 0.49546 10.517 0.625301 10.0112 1.00903C9.45311 1.43241 9.0918 2.09694 9.0918 2.878H10.7743ZM11.5863 2.178V3.86054C11.5069 3.86054 11.329 3.8427 11.1277 3.68996C11.0187 3.60732 10.9077 3.48677 10.8267 3.32624C10.7445 3.16362 10.7158 3.00468 10.7158 2.878H12.3983H14.0809C14.0809 2.09694 13.7196 1.43241 13.1615 1.00904C12.6557 0.625301 12.0718 0.49546 11.5863 0.49546V2.178ZM12.3983 2.878H10.7158V6.252H12.3983H14.0809V2.878H12.3983ZM12.3983 6.252V7.93454H13.4063V6.252V4.56946H12.3983V6.252ZM13.4063 6.252H15.0889V2.738H13.4063H11.7238V6.252H13.4063ZM13.4063 2.738H15.0889C15.0889 2.86468 15.0602 3.02362 14.978 3.18624C14.897 3.34677 14.7859 3.46732 14.677 3.54996C14.4757 3.7027 14.2978 3.72054 14.2183 3.72054V2.038V0.35546C13.7329 0.35546 13.149 0.485301 12.6432 0.869035C12.0851 1.29241 11.7238 1.95694 11.7238 2.738H13.4063ZM14.2183 2.038V3.72054C14.1564 3.72054 13.9825 3.70793 13.7793 3.55553C13.6692 3.47296 13.5564 3.35164 13.4739 3.18921C13.3905 3.02486 13.3618 2.86464 13.3618 2.738H15.0443H16.7269C16.7269 1.95557 16.364 1.28771 15.7984 0.863468C15.2872 0.480067 14.7003 0.35546 14.2183 0.35546V2.038ZM15.0443 2.738H13.3618V13.574H15.0443H16.7269V2.738H15.0443ZM15.0443 13.574H13.3618C13.3618 13.4474 13.3905 13.2871 13.4739 13.1228C13.5564 12.9604 13.6692 12.839 13.7793 12.7565C13.9825 12.6041 14.1564 12.5915 14.2183 12.5915V14.274V15.9565C14.7003 15.9565 15.2872 15.8319 15.7984 15.4485C16.364 15.0243 16.7269 14.3564 16.7269 13.574H15.0443ZM14.2183 14.274V12.5915C14.2978 12.5915 14.4757 12.6093 14.677 12.762C14.7859 12.8447 14.897 12.9652 14.978 13.1258C15.0602 13.2884 15.0889 13.4473 15.0889 13.574H13.4063H11.7238C11.7238 14.3551 12.0851 15.0196 12.6432 15.443C13.149 15.8267 13.7329 15.9565 14.2183 15.9565V14.274ZM13.4063 13.574H15.0889V7.764H13.4063H11.7238V13.574H13.4063ZM18.2805 11.656L19.1153 13.1169L19.1237 13.112L18.2805 11.656ZM17.2025 11.348L18.6355 10.4662L18.6277 10.4535L18.6197 10.441L17.2025 11.348ZM17.3985 10.228L16.5706 8.76324L16.569 8.76415L17.3985 10.228ZM21.2765 7.4L22.7983 8.1178L24.0143 5.53974L21.1696 5.72086L21.2765 7.4ZM17.5385 7.638L17.4316 5.95885L17.4266 5.95919L17.5385 7.638ZM16.8665 6.91L18.5454 6.79808L18.5445 6.78571L16.8665 6.91ZM17.4405 6.112L17.4948 7.79369L17.5047 7.79331L17.4405 6.112ZM21.4725 5.958L21.5367 7.63931L23.1551 7.5775V5.958H21.4725ZM21.1505 4.474V2.79146H17.8325V4.474V6.15654H21.1505V4.474ZM17.8325 4.474V2.79146C17.9548 2.79146 18.1198 2.81746 18.2951 2.90392C18.471 2.99067 18.6075 3.11377 18.7029 3.24146C18.8796 3.47812 18.8851 3.67949 18.8851 3.718H17.2025H15.52C15.52 4.16251 15.6235 4.74188 16.0067 5.25504C16.4373 5.83163 17.1013 6.15654 17.8325 6.15654V4.474ZM17.2025 3.718H18.8851C18.8851 3.75651 18.8796 3.95788 18.7029 4.19454C18.6075 4.32223 18.471 4.44533 18.2951 4.53207C18.1198 4.61854 17.9548 4.64454 17.8325 4.64454V2.962V1.27946C17.1013 1.27946 16.4373 1.60437 16.0067 2.18096C15.6235 2.69412 15.52 3.27349 15.52 3.718H17.2025ZM17.8325 2.962V4.64454H22.0185V2.962V1.27946H17.8325V2.962ZM22.0185 2.962V4.64454C22.1691 4.64454 22.1974 4.65791 22.158 4.64766C22.1034 4.63342 21.9414 4.57866 21.777 4.41894C21.6103 4.25697 21.5465 4.08949 21.5269 4.01884C21.5125 3.96657 21.526 3.98245 21.526 4.124H23.2085H24.8911C24.8911 3.59292 24.8252 2.68883 24.1221 2.00556C23.4329 1.33594 22.5386 1.27946 22.0185 1.27946V2.962ZM23.2085 4.124H21.526V5.874H23.2085H24.8911V4.124H23.2085ZM23.2085 5.874H21.526C21.526 6.93856 21.3746 7.31854 21.0295 7.71874C20.5346 8.29268 19.5642 8.96829 17.4373 10.2L18.2805 11.656L19.1237 13.112C21.1549 11.9357 22.6484 10.9943 23.578 9.91626C24.6574 8.66446 24.8911 7.35744 24.8911 5.874H23.2085ZM18.2805 11.656L17.4458 10.1951C17.6779 10.0625 17.9496 10.0452 18.1754 10.115C18.3847 10.1797 18.5404 10.3118 18.6355 10.4662L17.2025 11.348L15.7696 12.2298C16.3859 13.2314 17.8036 13.8664 19.1153 13.1169L18.2805 11.656ZM17.2025 11.348L18.6197 10.441C18.7014 10.5688 18.7546 10.7354 18.7299 10.9442C18.6997 11.1986 18.5427 11.5136 18.228 11.6918L17.3985 10.228L16.569 8.76415C15.8344 9.18044 15.4674 9.88042 15.3882 10.5478C15.3144 11.1696 15.4796 11.7772 15.7854 12.255L17.2025 11.348ZM17.3985 10.228L18.2264 11.6928C19.5049 10.9702 20.4637 10.4069 21.1517 9.91432C21.8393 9.42203 22.4411 8.87499 22.7983 8.1178L21.2765 7.4L19.7548 6.6822C19.7546 6.6826 19.7539 6.68398 19.7524 6.68665C19.7508 6.68937 19.7477 6.69438 19.7424 6.70187C19.7318 6.71679 19.7106 6.74417 19.6715 6.78491C19.5891 6.87073 19.4455 6.99729 19.1928 7.17818C18.6733 7.55012 17.8682 8.02983 16.5706 8.76324L17.3985 10.228ZM21.2765 7.4L21.1696 5.72086L17.4316 5.95886L17.5385 7.638L17.6454 9.31714L21.3834 9.07914L21.2765 7.4ZM17.5385 7.638L17.4266 5.95919C17.5598 5.95031 17.7332 5.96813 17.917 6.04603C18.1003 6.12374 18.2425 6.23949 18.3425 6.35822C18.5276 6.57794 18.5434 6.76925 18.5453 6.79808L16.8665 6.91L15.1877 7.02192C15.2176 7.47075 15.3595 8.04006 15.7685 8.52578C16.2275 9.07083 16.9091 9.36624 17.6505 9.31681L17.5385 7.638ZM16.8665 6.91L18.5445 6.78571C18.5495 6.85379 18.5506 7.03348 18.4127 7.25724C18.3363 7.38113 18.2132 7.52163 18.0313 7.63111C17.8452 7.7431 17.6537 7.78854 17.4948 7.79366L17.4405 6.112L17.3863 4.43034C16.5641 4.45686 15.9148 4.89649 15.5479 5.49176C15.2245 6.01652 15.1555 6.58821 15.1886 7.03429L16.8665 6.91ZM17.4405 6.112L17.5047 7.79331L21.5367 7.63931L21.4725 5.958L21.4083 4.27669L17.3763 4.43069L17.4405 6.112ZM21.4725 5.958H23.1551V4.796H21.4725H19.79V5.958H21.4725ZM21.4725 4.796H23.1551C23.1551 4.56143 23.1317 3.89719 22.5905 3.35601C22.0493 2.81484 21.3851 2.79146 21.1505 2.79146V4.474V6.15654C21.1236 6.15654 21.0066 6.15565 20.847 6.11089C20.6718 6.06178 20.4307 5.95514 20.211 5.73548C19.9914 5.51583 19.8848 5.27472 19.8356 5.09958C19.7909 4.93996 19.79 4.82294 19.79 4.796H21.4725ZM27.1145 2.794H25.432V13.518H27.1145H28.7971V2.794H27.1145ZM27.1145 13.518H25.432C25.432 13.4067 25.4569 13.2553 25.5378 13.0953C25.6182 12.9363 25.7293 12.8175 25.8375 12.7375C26.0356 12.591 26.1906 12.5915 26.2045 12.5915V14.274V15.9565C26.6944 15.9565 27.3045 15.838 27.8385 15.443C28.433 15.0033 28.7971 14.3137 28.7971 13.518H27.1145ZM26.2045 14.274V12.5915C26.2345 12.5915 26.3936 12.5954 26.5905 12.7425C26.6978 12.8227 26.8072 12.9408 26.8864 13.0981C26.9661 13.2564 26.9911 13.4066 26.9911 13.518H25.3085H23.626C23.626 14.3124 23.9886 14.999 24.576 15.438C25.1054 15.8336 25.7125 15.9565 26.2045 15.9565V14.274ZM25.3085 13.518H26.9911V2.794H25.3085H23.626V13.518H25.3085ZM25.3085 2.794H26.9911C26.9911 2.90535 26.9661 3.05556 26.8864 3.21394C26.8072 3.37116 26.6978 3.4893 26.5905 3.56948C26.3936 3.71664 26.2345 3.72054 26.2045 3.72054V2.038V0.35546C25.7125 0.35546 25.1054 0.478357 24.576 0.874017C23.9886 1.31303 23.626 1.99962 23.626 2.794H25.3085ZM26.2045 2.038V3.72054C26.1906 3.72054 26.0356 3.72095 25.8375 3.57451C25.7293 3.49448 25.6182 3.37568 25.5378 3.21669C25.4569 3.05672 25.432 2.9053 25.432 2.794H27.1145H28.7971C28.7971 1.99833 28.433 1.30865 27.8385 0.868984C27.3045 0.474044 26.6944 0.35546 26.2045 0.35546V2.038ZM33.9347 4.516V2.83346H32.2522V4.516H33.9347ZM34.9707 8.24L33.7599 9.40832L33.7656 9.41419L34.9707 8.24ZM36.4547 9.654L37.5663 8.39086L37.5567 8.38252L36.4547 9.654ZM36.4127 10.76L37.6025 11.9497L37.617 11.9352L37.6311 11.9204L36.4127 10.76ZM35.3347 10.872L34.2199 12.1322L34.2268 12.1382L35.3347 10.872ZM34.0047 9.598L32.815 10.7877L34.0047 9.598ZM33.0387 8.282L34.6852 7.93538L34.4039 6.59946H33.0387V8.282ZM33.0247 8.282V6.59946H31.6687L31.3806 7.92458L33.0247 8.282ZM30.5047 11.096L31.5915 12.3804L31.5998 12.3735L31.6079 12.3664L30.5047 11.096ZM29.3987 10.928L28.1291 12.032L28.1385 12.0429L28.1481 12.0536L29.3987 10.928ZM29.4267 9.808L30.5383 11.0711L30.5389 11.0705L29.4267 9.808ZM31.0787 8.24L32.2838 9.4142L32.2895 9.4083L31.0787 8.24ZM32.1147 4.516H33.7973V2.83346H32.1147V4.516ZM35.9087 4.516V2.83346H33.9347V4.516V6.19854H35.9087V4.516ZM33.9347 4.516H32.2522V5.58H33.9347H35.6173V4.516H33.9347ZM33.9347 5.58H32.2522C32.2522 6.30158 32.3308 6.99661 32.5977 7.67686C32.8674 8.36415 33.2799 8.91084 33.7599 9.4083L34.9707 8.24L36.1815 7.0717C35.8915 6.77116 35.786 6.58985 35.7302 6.44764C35.6717 6.29839 35.6173 6.06242 35.6173 5.58H33.9347ZM34.9707 8.24L33.7656 9.41419C34.3236 9.98686 34.8902 10.5246 35.3528 10.9255L36.4547 9.654L37.5567 8.38252C37.1793 8.05543 36.6818 7.58514 36.1758 7.06581L34.9707 8.24ZM36.4547 9.654L35.3432 10.9171C35.057 10.6652 34.9705 10.3093 34.9951 10.052C35.0151 9.84218 35.1006 9.69808 35.1943 9.59963L36.4127 10.76L37.6311 11.9204C38.0049 11.5279 38.2863 10.9848 38.3449 10.3725C38.408 9.71268 38.2025 8.95076 37.5662 8.39089L36.4547 9.654ZM36.4127 10.76L35.223 9.57026C35.3051 9.48814 35.4364 9.39957 35.6377 9.36845C35.877 9.33148 36.1936 9.38777 36.4427 9.60576L35.3347 10.872L34.2268 12.1382C35.4885 13.2423 36.973 12.5792 37.6025 11.9497L36.4127 10.76ZM35.3347 10.872L36.4495 9.61178C36.126 9.32559 35.6941 8.90787 35.1945 8.40826L34.0047 9.598L32.815 10.7877C33.3234 11.2961 33.8154 11.7744 34.2199 12.1322L35.3347 10.872ZM34.0047 9.598L35.1945 8.40826C34.8575 8.07129 34.7089 7.88859 34.6476 7.80109C34.6211 7.76334 34.6252 7.76334 34.6396 7.79454C34.6566 7.83152 34.6738 7.8812 34.6852 7.93538L33.0387 8.282L31.3923 8.62862C31.5601 9.42571 32.0825 10.0553 32.815 10.7877L34.0047 9.598ZM33.0387 8.282V6.59946H33.0247V8.282V9.96454H33.0387V8.282ZM33.0247 8.282L31.3806 7.92458C31.3849 7.90484 31.3944 7.87236 31.4087 7.84031C31.4211 7.8126 31.4252 7.81217 31.4014 7.84621C31.3422 7.93112 31.1984 8.10684 30.855 8.45026L32.0447 9.64L33.2345 10.8297C33.9766 10.0875 34.4862 9.4795 34.6689 8.63942L33.0247 8.282ZM32.0447 9.64L30.855 8.45026C30.3595 8.94573 29.8885 9.40273 29.4015 9.82563L30.5047 11.096L31.6079 12.3664C32.185 11.8653 32.7219 11.3423 33.2345 10.8297L32.0447 9.64ZM30.5047 11.096L29.4179 9.81157C29.5444 9.70451 29.7044 9.62568 29.8783 9.5903C30.0444 9.5565 30.1853 9.56961 30.2838 9.59208C30.4566 9.63149 30.5678 9.71179 30.6493 9.80244L29.3987 10.928L28.1481 12.0536C28.4817 12.4242 28.9638 12.7425 29.5356 12.8729C30.1538 13.0139 30.9352 12.9358 31.5915 12.3804L30.5047 11.096ZM29.3987 10.928L30.6684 9.82395C30.7703 9.94116 30.8569 10.1177 30.8589 10.3481C30.8612 10.6084 30.7499 10.8848 30.5383 11.0711L29.4267 9.808L28.3152 8.54489C27.0984 9.61565 27.4041 11.1984 28.1291 12.032L29.3987 10.928ZM29.4267 9.808L30.5389 11.0705C31.1569 10.5261 31.7201 9.99269 32.2838 9.41419L31.0787 8.24L29.8736 7.06581C29.3733 7.57931 28.8725 8.05393 28.3145 8.54549L29.4267 9.808ZM31.0787 8.24L32.2895 9.4083C32.7695 8.91084 33.182 8.36415 33.4517 7.67686C33.7187 6.99661 33.7973 6.30158 33.7973 5.58H32.1147H30.4322C30.4322 6.06242 30.3778 6.29839 30.3192 6.44764C30.2634 6.58985 30.1579 6.77116 29.8679 7.0717L31.0787 8.24ZM32.1147 5.58H33.7973V4.516H32.1147H30.4322V5.58H32.1147ZM32.1147 4.516V2.83346H30.0287V4.516V6.19854H32.1147V4.516ZM30.0287 4.516V2.83346C30.151 2.83346 30.316 2.85946 30.4913 2.94593C30.6672 3.03267 30.8037 3.15577 30.899 3.28346C31.0758 3.52012 31.0813 3.72149 31.0813 3.76H29.3987H27.7162C27.7162 4.20451 27.8196 4.78388 28.2029 5.29704C28.6335 5.87363 29.2974 6.19854 30.0287 6.19854V4.516ZM29.3987 3.76H31.0813C31.0813 3.78114 31.0804 3.97837 30.9051 4.21616C30.81 4.34509 30.6727 4.47033 30.4947 4.55864C30.3174 4.64655 30.1509 4.67254 30.0287 4.67254V2.99V1.30746C29.2959 1.30746 28.6281 1.63406 28.1969 2.21884C27.815 2.73662 27.7162 3.31885 27.7162 3.76H29.3987ZM30.0287 2.99V4.67254H35.9087V2.99V1.30746H30.0287V2.99ZM35.9087 2.99V4.67254C35.7865 4.67254 35.6201 4.64655 35.4428 4.55864C35.2647 4.47033 35.1274 4.3451 35.0324 4.21616C34.857 3.97837 34.8562 3.78114 34.8562 3.76H36.5387H38.2213C38.2213 3.31885 38.1224 2.73662 37.7406 2.21884C37.3093 1.63406 36.6415 1.30746 35.9087 1.30746V2.99ZM36.5387 3.76H34.8562C34.8562 3.72149 34.8616 3.52012 35.0384 3.28346C35.1338 3.15577 35.2702 3.03267 35.4461 2.94593C35.6215 2.85946 35.7865 2.83346 35.9087 2.83346V4.516V6.19854C36.64 6.19854 37.3039 5.87363 37.7345 5.29704C38.1178 4.78388 38.2213 4.20451 38.2213 3.76H36.5387ZM39.5907 2.794H37.9082V13.518H39.5907H41.2733V2.794H39.5907ZM39.5907 13.518H37.9082C37.9082 13.4067 37.9331 13.2553 38.014 13.0953C38.0944 12.9363 38.2055 12.8175 38.3137 12.7375C38.5117 12.591 38.6668 12.5915 38.6807 12.5915V14.274V15.9565C39.1706 15.9565 39.7807 15.838 40.3147 15.443C40.9092 15.0033 41.2733 14.3137 41.2733 13.518H39.5907ZM38.6807 14.274V12.5915C38.7107 12.5915 38.8698 12.5954 39.0667 12.7425C39.174 12.8227 39.2834 12.9408 39.3626 13.0981C39.4423 13.2564 39.4673 13.4066 39.4673 13.518H37.7847H36.1022C36.1022 14.3124 36.4648 14.999 37.0522 15.438C37.5816 15.8336 38.1887 15.9565 38.6807 15.9565V14.274ZM37.7847 13.518H39.4673V2.794H37.7847H36.1022V13.518H37.7847ZM37.7847 2.794H39.4673C39.4673 2.90535 39.4423 3.05556 39.3626 3.21394C39.2834 3.37116 39.174 3.4893 39.0667 3.56948C38.8698 3.71664 38.7107 3.72054 38.6807 3.72054V2.038V0.35546C38.1887 0.35546 37.5816 0.478357 37.0522 0.874017C36.4648 1.31303 36.1022 1.99962 36.1022 2.794H37.7847ZM38.6807 2.038V3.72054C38.6668 3.72054 38.5117 3.72095 38.3137 3.57451C38.2055 3.49448 38.0944 3.37568 38.014 3.21669C37.9331 3.05672 37.9082 2.9053 37.9082 2.794H39.5907H41.2733C41.2733 1.99833 40.9092 1.30865 40.3147 0.868984C39.7807 0.474044 39.1706 0.35546 38.6807 0.35546V2.038ZM51.6049 9.584L51.3896 7.91529L51.3808 7.91643L51.372 7.91766L51.6049 9.584ZM52.3329 10.228L54.0071 10.0606L54.0059 10.0488L52.3329 10.228ZM51.8289 11.082L51.599 9.41523L51.5939 9.41595L51.8289 11.082ZM53.6069 7.68H55.2894V5.99746H53.6069V7.68ZM53.6069 6.14V7.82254H55.2894V6.14H53.6069ZM48.8889 4.418V2.73546H45.8369V4.418V6.10054H48.8889V4.418ZM45.8369 4.418V2.73546C45.9592 2.73546 46.1242 2.76146 46.2995 2.84792C46.4754 2.93467 46.6119 3.05777 46.7072 3.18546C46.884 3.42212 46.8894 3.62349 46.8894 3.662H45.2069H43.5244C43.5244 4.10651 43.6278 4.68588 44.0111 5.19904C44.4417 5.77563 45.1056 6.10054 45.8369 6.10054V4.418ZM45.2069 3.662H46.8894C46.8894 3.70051 46.884 3.90188 46.7072 4.13854C46.6119 4.26623 46.4754 4.38933 46.2995 4.47607C46.1242 4.56254 45.9592 4.58854 45.8369 4.58854V2.906V1.22346C45.1056 1.22346 44.4417 1.54837 44.0111 2.12496C43.6278 2.63812 43.5244 3.21749 43.5244 3.662H45.2069ZM45.8369 2.906V4.58854H49.7849V2.906V1.22346H45.8369V2.906ZM49.7849 2.906V4.58854C49.9355 4.58854 49.9637 4.60191 49.9244 4.59166C49.8698 4.57742 49.7077 4.52266 49.5434 4.36294C49.3767 4.20097 49.3128 4.03349 49.2933 3.96284C49.2789 3.91056 49.2924 3.92645 49.2924 4.068H50.9749H52.6574C52.6574 3.53692 52.5916 2.63283 51.8884 1.94956C51.1993 1.27994 50.305 1.22346 49.7849 1.22346V2.906ZM50.9749 4.068H49.2924V6.658H50.9749H52.6574V4.068H50.9749ZM50.9749 6.658H49.2924C49.2924 6.79955 49.2789 6.81543 49.2933 6.76316C49.3128 6.69251 49.3767 6.52503 49.5434 6.36306C49.7077 6.20334 49.8698 6.14858 49.9244 6.13434C49.9637 6.12409 49.9355 6.13746 49.7849 6.13746V7.82V9.50254C50.305 9.50254 51.1993 9.44606 51.8884 8.77644C52.5916 8.09317 52.6574 7.18908 52.6574 6.658H50.9749ZM49.7849 7.82V6.13746H47.3069V7.82V9.50254H49.7849V7.82ZM47.3069 7.82V6.13746C47.0723 6.13746 46.4081 6.16084 45.8669 6.70201C45.3257 7.24319 45.3024 7.90742 45.3024 8.142H46.9849H48.6674C48.6674 8.16894 48.6666 8.28596 48.6218 8.44558C48.5727 8.62072 48.466 8.86183 48.2464 9.08149C48.0267 9.30114 47.7856 9.40778 47.6105 9.45689C47.4509 9.50165 47.3338 9.50254 47.3069 9.50254V7.82ZM46.9849 8.142H45.3024V9.514H46.9849H48.6674V8.142H46.9849ZM46.9849 9.514H45.3024C45.3024 9.74858 45.3257 10.4128 45.8669 10.954C46.4081 11.4952 47.0723 11.5185 47.3069 11.5185V9.836V8.15346C47.3338 8.15346 47.4509 8.15435 47.6105 8.19911C47.7856 8.24822 48.0267 8.35486 48.2464 8.57451C48.466 8.79417 48.5727 9.03527 48.6218 9.21042C48.6666 9.37004 48.6674 9.48706 48.6674 9.514H46.9849ZM47.3069 9.836V11.5185C48.9058 11.5185 50.4317 11.4469 51.8378 11.2503L51.6049 9.584L51.372 7.91766C50.1741 8.0851 48.816 8.15346 47.3069 8.15346V9.836ZM51.6049 9.584L51.8202 11.2527C51.5621 11.286 51.2127 11.2063 50.9435 10.9449C50.7175 10.7253 50.6696 10.4978 50.6599 10.4072L52.3329 10.228L54.0059 10.0488C53.9542 9.56622 53.7593 8.98869 53.2883 8.53115C52.7741 8.03168 52.0817 7.82599 51.3896 7.91529L51.6049 9.584ZM52.3329 10.228L50.6587 10.3954C50.6578 10.3866 50.655 10.3516 50.6632 10.2939C50.6712 10.2372 50.6934 10.1352 50.7578 10.0121C50.825 9.88352 50.9361 9.7373 51.1045 9.61661C51.2749 9.49439 51.4524 9.43546 51.599 9.41524L51.8289 11.082L52.0588 12.7488C52.8231 12.6433 53.4179 12.1871 53.74 11.5709C54.0221 11.0313 54.0482 10.4718 54.0071 10.0606L52.3329 10.228ZM51.8289 11.082L51.5939 9.41595C50.6119 9.55444 49.0893 9.66546 46.4109 9.66546V11.348V13.0305C49.1646 13.0305 50.8619 12.9176 52.0639 12.7481L51.8289 11.082ZM46.4109 11.348V9.66546C46.2603 9.66546 46.2321 9.65209 46.2714 9.66234C46.326 9.67658 46.4881 9.73134 46.6524 9.89106C46.8191 10.053 46.883 10.2205 46.9025 10.2912C46.917 10.3434 46.9034 10.3276 46.9034 10.186H45.2209H43.5384C43.5384 10.7171 43.6042 11.6212 44.3074 12.3044C44.9965 12.9741 45.8909 13.0305 46.4109 13.0305V11.348ZM45.2209 10.186H46.9034V7.526H45.2209H43.5384V10.186H45.2209ZM45.2209 7.526H46.9034C46.9034 7.38445 46.917 7.36856 46.9025 7.42084C46.883 7.49149 46.8191 7.65897 46.6524 7.82094C46.4881 7.98066 46.326 8.03542 46.2714 8.04966C46.2321 8.05991 46.2603 8.04654 46.4109 8.04654V6.364V4.68146C45.8909 4.68146 44.9965 4.73794 44.3074 5.40756C43.6042 6.09083 43.5384 6.99492 43.5384 7.526H45.2209ZM46.4109 6.364V8.04654H48.8889V6.364V4.68146H46.4109V6.364ZM48.8889 6.364V8.04654C49.1235 8.04654 49.7877 8.02316 50.3289 7.48199C50.8701 6.94081 50.8934 6.27657 50.8934 6.042H49.2109H47.5284C47.5284 6.01506 47.5293 5.89804 47.574 5.73842C47.6231 5.56327 47.7298 5.32217 47.9494 5.10251C48.1691 4.88286 48.4102 4.77622 48.5853 4.72711C48.7449 4.68235 48.862 4.68146 48.8889 4.68146V6.364ZM49.2109 6.042H50.8934V4.74H49.2109H47.5284V6.042H49.2109ZM49.2109 4.74H50.8934C50.8934 4.50543 50.8701 3.84119 50.3289 3.30001C49.7877 2.75884 49.1235 2.73546 48.8889 2.73546V4.418V6.10054C48.862 6.10054 48.7449 6.09965 48.5853 6.05489C48.4102 6.00578 48.1691 5.89914 47.9494 5.67948C47.7298 5.45983 47.6231 5.21872 47.574 5.04358C47.5293 4.88396 47.5284 4.76694 47.5284 4.74H49.2109ZM53.6069 13.518H55.2894V7.68H53.6069H51.9244V13.518H53.6069ZM53.6069 7.68V5.99746H52.2629V7.68V9.36254H53.6069V7.68ZM52.2629 7.68V5.99746C52.3736 5.99746 52.5326 6.02021 52.7061 6.1042C52.8816 6.18911 53.0206 6.31192 53.1189 6.44298C53.3007 6.68532 53.3014 6.88921 53.3014 6.91H51.6189H49.9364C49.9364 7.35079 50.0351 7.93968 50.4269 8.46202C50.8689 9.05142 51.5423 9.36254 52.2629 9.36254V7.68ZM51.6189 6.91H53.3014C53.3014 6.93079 53.3007 7.13468 53.1189 7.37702C53.0206 7.50808 52.8816 7.63089 52.7061 7.7158C52.5326 7.79979 52.3736 7.82254 52.2629 7.82254V6.14V4.45746C51.5423 4.45746 50.8689 4.76858 50.4269 5.35798C50.0351 5.88032 49.9364 6.46921 49.9364 6.91H51.6189ZM52.2629 6.14V7.82254H53.6069V6.14V4.45746H52.2629V6.14ZM53.6069 6.14H55.2894V2.794H53.6069H51.9244V6.14H53.6069ZM53.6069 2.794H55.2894C55.2894 2.90535 55.2645 3.05556 55.1848 3.21394C55.1056 3.37116 54.9962 3.4893 54.8889 3.56948C54.692 3.71664 54.5329 3.72054 54.5029 3.72054V2.038V0.35546C54.0109 0.35546 53.4038 0.478356 52.8744 0.874017C52.287 1.31303 51.9244 1.99962 51.9244 2.794H53.6069ZM54.5029 2.038V3.72054C54.4564 3.72054 54.2934 3.71205 54.0978 3.56434C53.9915 3.48405 53.8838 3.36663 53.8059 3.21118C53.7273 3.05441 53.7024 2.9054 53.7024 2.794H55.3849H57.0674C57.0674 2.00088 56.7062 1.31742 56.126 0.879154C55.6014 0.482952 54.9974 0.35546 54.5029 0.35546V2.038ZM55.3849 2.794H53.7024V13.518H55.3849H57.0674V2.794H55.3849ZM55.3849 13.518H53.7024C53.7024 13.4066 53.7273 13.2576 53.8059 13.1008C53.8838 12.9454 53.9915 12.8279 54.0978 12.7477C54.2934 12.6 54.4564 12.5915 54.5029 12.5915V14.274V15.9565C54.9974 15.9565 55.6014 15.829 56.126 15.4328C56.7062 14.9946 57.0674 14.3111 57.0674 13.518H55.3849ZM54.5029 14.274V12.5915C54.5329 12.5915 54.692 12.5954 54.8889 12.7425C54.9962 12.8227 55.1056 12.9408 55.1848 13.0981C55.2645 13.2564 55.2894 13.4066 55.2894 13.518H53.6069H51.9244C51.9244 14.3124 52.287 14.999 52.8744 15.438C53.4038 15.8336 54.0109 15.9565 54.5029 15.9565V14.274ZM66.0831 7.764H67.7656V6.08146H66.0831V7.764ZM63.8151 7.764V6.08146H62.1326V7.764H63.8151ZM59.4191 5.776H57.7366V7.45854H59.4191V5.776ZM62.0511 5.776V7.45854H63.7336V5.776H62.0511ZM63.8151 6.252H62.1326V7.93454H63.8151V6.252ZM66.0831 6.252V7.93454H67.7656V6.252H66.0831ZM62.0511 7.274H63.7336V5.59146H62.0511V7.274ZM59.4191 7.274V5.59146H57.7366V7.274H59.4191ZM66.0831 13.518H67.7656V7.764H66.0831H64.4006V13.518H66.0831ZM66.0831 7.764V6.08146H63.8151V7.764V9.44654H66.0831V7.764ZM63.8151 7.764H62.1326V9.906H63.8151H65.4976V7.764H63.8151ZM63.8151 9.906H62.1326C62.1326 10.0476 62.119 10.0634 62.1335 10.0112C62.153 9.94051 62.2169 9.77303 62.3836 9.61106C62.5479 9.45134 62.71 9.39658 62.7646 9.38234C62.8039 9.37209 62.7757 9.38546 62.6251 9.38546V11.068V12.7505C63.1451 12.7505 64.0395 12.6941 64.7286 12.0244C65.4318 11.3412 65.4976 10.4371 65.4976 9.906H63.8151ZM62.6251 11.068V9.38546H58.8451V11.068V12.7505H62.6251V11.068ZM58.8451 11.068V9.38546C58.6945 9.38546 58.6663 9.37209 58.7056 9.38234C58.7602 9.39658 58.9223 9.45134 59.0866 9.61106C59.2533 9.77303 59.3172 9.94051 59.3367 10.0112C59.3512 10.0634 59.3376 10.0476 59.3376 9.906H57.6551H55.9726C55.9726 10.4371 56.0384 11.3412 56.7416 12.0244C57.4307 12.6941 58.325 12.7505 58.8451 12.7505V11.068ZM57.6551 9.906H59.3376V3.606H57.6551H55.9726V9.906H57.6551ZM57.6551 3.606H59.3376C59.3376 3.72823 59.3095 3.88409 59.2277 4.04392C59.1471 4.20154 59.0375 4.31766 58.933 4.39547C58.7413 4.5382 58.5836 4.54654 58.5371 4.54654V2.864V1.18146C58.0426 1.18146 57.4438 1.3088 56.9232 1.69653C56.3478 2.125 55.9726 2.80336 55.9726 3.606H57.6551ZM58.5371 2.864V4.54654C58.4906 4.54654 58.3328 4.5382 58.1412 4.39547C58.0367 4.31766 57.9271 4.20154 57.8465 4.04392C57.7647 3.88409 57.7366 3.72823 57.7366 3.606H59.4191H61.1016C61.1016 2.80336 60.7264 2.125 60.151 1.69653C59.6303 1.3088 59.0316 1.18146 58.5371 1.18146V2.864ZM59.4191 3.606H57.7366V5.776H59.4191H61.1016V3.606H59.4191ZM59.4191 5.776V7.45854H62.0511V5.776V4.09346H59.4191V5.776ZM62.0511 5.776H63.7336V3.606H62.0511H60.3686V5.776H62.0511ZM62.0511 3.606H63.7336C63.7336 3.72823 63.7055 3.88408 63.6237 4.04392C63.5431 4.20154 63.4335 4.31766 63.329 4.39547C63.1373 4.5382 62.9796 4.54654 62.9331 4.54654V2.864V1.18146C62.4386 1.18146 61.8398 1.3088 61.3192 1.69653C60.7438 2.125 60.3686 2.80336 60.3686 3.606H62.0511ZM62.9331 2.864V4.54654C62.8866 4.54654 62.7288 4.5382 62.5372 4.39547C62.4327 4.31766 62.3231 4.20154 62.2425 4.04392C62.1607 3.88409 62.1326 3.72823 62.1326 3.606H63.8151H65.4976C65.4976 2.80336 65.1224 2.125 64.547 1.69653C64.0263 1.3088 63.4276 1.18146 62.9331 1.18146V2.864ZM63.8151 3.606H62.1326V6.252H63.8151H65.4976V3.606H63.8151ZM63.8151 6.252V7.93454H66.0831V6.252V4.56946H63.8151V6.252ZM66.0831 6.252H67.7656V2.794H66.0831H64.4006V6.252H66.0831ZM66.0831 2.794H67.7656C67.7656 2.90535 67.7407 3.05556 67.661 3.21394C67.5818 3.37116 67.4724 3.4893 67.3651 3.56948C67.1682 3.71664 67.0091 3.72054 66.9791 3.72054V2.038V0.35546C66.4871 0.35546 65.88 0.478356 65.3506 0.874017C64.7632 1.31303 64.4006 1.99962 64.4006 2.794H66.0831ZM66.9791 2.038V3.72054C66.9326 3.72054 66.7696 3.71205 66.574 3.56434C66.4677 3.48405 66.36 3.36663 66.2821 3.21118C66.2035 3.05441 66.1786 2.9054 66.1786 2.794H67.8611H69.5436C69.5436 2.00088 69.1824 1.31742 68.6022 0.879154C68.0776 0.482952 67.4736 0.35546 66.9791 0.35546V2.038ZM67.8611 2.794H66.1786V13.518H67.8611H69.5436V2.794H67.8611ZM67.8611 13.518H66.1786C66.1786 13.4066 66.2035 13.2576 66.2821 13.1008C66.36 12.9454 66.4677 12.8279 66.574 12.7477C66.7696 12.6 66.9326 12.5915 66.9791 12.5915V14.274V15.9565C67.4736 15.9565 68.0776 15.829 68.6022 15.4328C69.1824 14.9946 69.5436 14.3111 69.5436 13.518H67.8611ZM66.9791 14.274V12.5915C67.0091 12.5915 67.1682 12.5954 67.3651 12.7425C67.4724 12.8227 67.5818 12.9408 67.661 13.0981C67.7407 13.2564 67.7656 13.4066 67.7656 13.518H66.0831H64.4006C64.4006 14.3124 64.7632 14.999 65.3506 15.438C65.88 15.8336 66.4871 15.9565 66.9791 15.9565V14.274ZM59.7411 9.57V11.2525H61.7291V9.57V7.88746H59.7411V9.57ZM61.7291 9.57V11.2525C61.9637 11.2525 62.6279 11.2292 63.1691 10.688C63.7103 10.1468 63.7336 9.48258 63.7336 9.248H62.0511H60.3686C60.3686 9.22106 60.3694 9.10404 60.4142 8.94442C60.4633 8.76927 60.57 8.52817 60.7896 8.30851C61.0093 8.08886 61.2504 7.98222 61.4255 7.93311C61.5851 7.88835 61.7022 7.88746 61.7291 7.88746V9.57ZM62.0511 9.248H63.7336V7.274H62.0511H60.3686V9.248H62.0511ZM62.0511 7.274V5.59146H59.4191V7.274V8.95654H62.0511V7.274ZM59.4191 7.274H57.7366V9.248H59.4191H61.1016V7.274H59.4191ZM59.4191 9.248H57.7366C57.7366 9.48258 57.7599 10.1468 58.3011 10.688C58.8423 11.2292 59.5065 11.2525 59.7411 11.2525V9.57V7.88746C59.768 7.88746 59.8851 7.88835 60.0447 7.93311C60.2198 7.98222 60.4609 8.08886 60.6806 8.30851C60.9002 8.52817 61.0069 8.76927 61.056 8.94442C61.1007 9.10404 61.1016 9.22106 61.1016 9.248H59.4191ZM77.7893 11.614V13.2965H79.4718V11.614H77.7893ZM77.7893 9.724H79.4718V8.04146H77.7893V9.724ZM76.0253 5.51H74.3427V7.19254H76.0253V5.51ZM76.0253 6.966V5.28346H74.3427V6.966H76.0253ZM79.5813 9.724V8.04146H77.8987V9.724H79.5813ZM79.5813 11.614H77.8987V13.2965H79.5813V11.614ZM83.9773 13.126V11.4435H73.3933V13.126V14.8085H83.9773V13.126ZM73.3933 13.126V11.4435C73.5155 11.4435 73.6805 11.4695 73.8559 11.5559C74.0318 11.6427 74.1682 11.7658 74.2636 11.8935C74.4404 12.1301 74.4458 12.3315 74.4458 12.37H72.7633H71.0807C71.0807 12.8145 71.1842 13.3939 71.5675 13.907C71.9981 14.4836 72.662 14.8085 73.3933 14.8085V13.126ZM72.7633 12.37H74.4458C74.4458 12.4085 74.4404 12.6099 74.2636 12.8465C74.1682 12.9742 74.0318 13.0973 73.8559 13.1841C73.6805 13.2705 73.5155 13.2965 73.3933 13.2965V11.614V9.93146C72.662 9.93146 71.9981 10.2564 71.5675 10.833C71.1842 11.3461 71.0807 11.9255 71.0807 12.37H72.7633ZM73.3933 11.614V13.2965H77.7893V11.614V9.93146H73.3933V11.614ZM77.7893 11.614H79.4718V9.724H77.7893H76.1067V11.614H77.7893ZM77.7893 9.724V8.04146H75.4653V9.724V11.4065H77.7893V9.724ZM75.4653 9.724V8.04146C75.3147 8.04146 75.2864 8.02809 75.3258 8.03834C75.3804 8.05258 75.5424 8.10734 75.7068 8.26706C75.8735 8.42903 75.9373 8.59651 75.9569 8.66716C75.9713 8.71943 75.9578 8.70355 75.9578 8.562H74.2753H72.5927C72.5927 9.09308 72.6586 9.99717 73.3617 10.6804C74.0509 11.3501 74.9452 11.4065 75.4653 11.4065V9.724ZM74.2753 8.562H75.9578V3.928H74.2753H72.5927V8.562H74.2753ZM74.2753 3.928H75.9578C75.9578 3.78645 75.9713 3.77057 75.9569 3.82284C75.9373 3.89349 75.8735 4.06097 75.7068 4.22294C75.5424 4.38266 75.3804 4.43742 75.3258 4.45166C75.2864 4.46191 75.3147 4.44854 75.4653 4.44854V2.766V1.08346C74.9452 1.08346 74.0509 1.13994 73.3617 1.80956C72.6586 2.49283 72.5927 3.39692 72.5927 3.928H74.2753ZM75.4653 2.766V4.44854H82.4233V2.766V1.08346H75.4653V2.766ZM82.4233 2.766V4.44854C82.301 4.44854 82.136 4.42254 81.9607 4.33607C81.7848 4.24933 81.6483 4.12623 81.5529 3.99854C81.3762 3.76188 81.3707 3.56051 81.3707 3.522H83.0533H84.7358C84.7358 3.07749 84.6324 2.49812 84.2491 1.98496C83.8185 1.40837 83.1546 1.08346 82.4233 1.08346V2.766ZM83.0533 3.522H81.3707C81.3707 3.48349 81.3762 3.28212 81.5529 3.04546C81.6483 2.91777 81.7848 2.79467 81.9607 2.70793C82.136 2.62146 82.301 2.59546 82.4233 2.59546V4.278V5.96054C83.1546 5.96054 83.8185 5.63563 84.2491 5.05904C84.6324 4.54588 84.7358 3.96651 84.7358 3.522H83.0533ZM82.4233 4.278V2.59546H76.3473V4.278V5.96054H82.4233V4.278ZM76.3473 4.278V2.59546C76.1127 2.59546 75.4485 2.61884 74.9073 3.16001C74.3661 3.70119 74.3427 4.36542 74.3427 4.6H76.0253H77.7078C77.7078 4.62694 77.7069 4.74396 77.6622 4.90358C77.6131 5.07873 77.5064 5.31983 77.2868 5.53949C77.0671 5.75914 76.826 5.86578 76.6509 5.91489C76.4912 5.95965 76.3742 5.96054 76.3473 5.96054V4.278ZM76.0253 4.6H74.3427V5.51H76.0253H77.7078V4.6H76.0253ZM76.0253 5.51V7.19254H82.2833V5.51V3.82746H76.0253V5.51ZM82.2833 5.51V7.19254C82.1609 7.19254 81.9988 7.16652 81.8274 7.08293C81.6559 6.9993 81.5212 6.88051 81.4255 6.7556C81.2467 6.52222 81.2307 6.31275 81.2307 6.238H82.9133H84.5958C84.5958 5.78525 84.4819 5.21178 84.0966 4.7089C83.6676 4.14911 83.0117 3.82746 82.2833 3.82746V5.51ZM82.9133 6.238H81.2307C81.2307 6.16325 81.2467 5.95378 81.4255 5.7204C81.5212 5.59549 81.6559 5.4767 81.8274 5.39307C81.9988 5.30948 82.1609 5.28346 82.2833 5.28346V6.966V8.64854C83.0117 8.64854 83.6676 8.32689 84.0966 7.7671C84.4819 7.26422 84.5958 6.69075 84.5958 6.238H82.9133ZM82.2833 6.966V5.28346H76.0253V6.966V8.64854H82.2833V6.966ZM76.0253 6.966H74.3427V7.89H76.0253H77.7078V6.966H76.0253ZM76.0253 7.89H74.3427C74.3427 8.12458 74.3661 8.78881 74.9073 9.32998C75.4485 9.87116 76.1127 9.89454 76.3473 9.89454V8.212V6.52946C76.3742 6.52946 76.4912 6.53035 76.6509 6.57511C76.826 6.62422 77.0671 6.73086 77.2868 6.95051C77.5064 7.17017 77.6131 7.41127 77.6622 7.58642C77.7069 7.74603 77.7078 7.86306 77.7078 7.89H76.0253ZM76.3473 8.212V9.89454H82.6333V8.212V6.52946H76.3473V8.212ZM82.6333 8.212V9.89454C82.511 9.89454 82.346 9.86854 82.1707 9.78207C81.9948 9.69533 81.8583 9.57223 81.763 9.44454C81.5862 9.20788 81.5807 9.00651 81.5807 8.968H83.2633H84.9458C84.9458 8.52349 84.8424 7.94412 84.4591 7.43096C84.0285 6.85437 83.3646 6.52946 82.6333 6.52946V8.212ZM83.2633 8.968H81.5807C81.5807 8.92949 81.5862 8.72812 81.763 8.49146C81.8583 8.36377 81.9948 8.24067 82.1707 8.15392C82.346 8.06746 82.511 8.04146 82.6333 8.04146V9.724V11.4065C83.3646 11.4065 84.0285 11.0816 84.4591 10.505C84.8424 9.99188 84.9458 9.41251 84.9458 8.968H83.2633ZM82.6333 9.724V8.04146H79.5813V9.724V11.4065H82.6333V9.724ZM79.5813 9.724H77.8987V11.614H79.5813H81.2638V9.724H79.5813ZM79.5813 11.614V13.2965H83.9773V11.614V9.93146H79.5813V11.614ZM83.9773 11.614V13.2965C83.855 13.2965 83.69 13.2705 83.5147 13.1841C83.3388 13.0973 83.2023 12.9742 83.1069 12.8465C82.9302 12.6099 82.9247 12.4085 82.9247 12.37H84.6073H86.2898C86.2898 11.9255 86.1863 11.3461 85.8031 10.833C85.3725 10.2564 84.7086 9.93146 83.9773 9.93146V11.614ZM84.6073 12.37H82.9247C82.9247 12.3315 82.9302 12.1301 83.1069 11.8935C83.2023 11.7658 83.3388 11.6427 83.5147 11.5559C83.69 11.4695 83.855 11.4435 83.9773 11.4435V13.126V14.8085C84.7086 14.8085 85.3725 14.4836 85.8031 13.907C86.1863 13.3939 86.2898 12.8145 86.2898 12.37H84.6073ZM89.0055 10.704L90.2657 11.8188L90.2735 11.81L90.2812 11.801L89.0055 10.704ZM90.2935 11.754L89.0179 10.6568L89.016 10.659L90.2935 11.754ZM89.1455 11.768L88.0414 13.0377L88.0457 13.0414L89.1455 11.768ZM85.6035 9.612L86.7932 10.8017L86.8024 10.7926L86.8114 10.7833L85.6035 9.612ZM86.7795 10.732L87.9692 11.9217L87.9785 11.9124L87.9877 11.9029L86.7795 10.732ZM85.6875 10.69L84.5257 11.9071L84.5271 11.9084L85.6875 10.69ZM89.0055 10.704L90.2812 11.801C91.2018 10.7304 91.8907 9.88412 92.2945 9.00068C92.7411 8.02365 92.788 7.12602 92.788 6.14H91.1055H89.4229C89.4229 7.02998 89.3649 7.31535 89.2339 7.60182C89.0602 7.98188 88.6991 8.47963 87.7297 9.60701L89.0055 10.704ZM91.1055 6.14H92.788V4.838H91.1055H89.4229V6.14H91.1055ZM91.1055 4.838H92.788C92.788 4.60342 92.7646 3.93919 92.2235 3.39801C91.6823 2.85684 91.0181 2.83346 90.7835 2.83346V4.516V6.19854C90.7565 6.19854 90.6395 6.19765 90.4799 6.15289C90.3047 6.10378 90.0636 5.99714 89.844 5.77749C89.6243 5.55783 89.5177 5.31673 89.4686 5.14158C89.4238 4.98196 89.4229 4.86494 89.4229 4.838H91.1055ZM90.7835 4.516V2.83346H90.1955V4.516V6.19854H90.7835V4.516ZM90.1955 4.516V2.83346C90.3298 2.83346 90.5024 2.86302 90.6813 2.95347C90.8596 3.04363 90.9941 3.16906 91.0862 3.29451C91.2565 3.52647 91.262 3.72121 91.262 3.76H89.5795H87.8969C87.8969 4.20479 88.0004 4.77752 88.3737 5.28599C88.7931 5.8572 89.4513 6.19854 90.1955 6.19854V4.516ZM89.5795 3.76H91.262C91.262 3.78154 91.2611 3.97207 91.0922 4.2051C91.0004 4.33172 90.8651 4.45928 90.6846 4.55104C90.5038 4.64298 90.3297 4.67254 90.1955 4.67254V2.99V1.30746C89.4497 1.30746 88.7877 1.65064 88.3678 2.2299C87.9958 2.74293 87.8969 3.31845 87.8969 3.76H89.5795ZM90.1955 2.99V4.67254H91.6235V2.99V1.30746H90.1955V2.99ZM91.6235 2.99V4.67254C91.774 4.67254 91.8023 4.68591 91.763 4.67566C91.7084 4.66142 91.5463 4.60666 91.3819 4.44694C91.2153 4.28497 91.1514 4.11749 91.1319 4.04684C91.1174 3.99456 91.1309 4.01045 91.1309 4.152H92.8135H94.496C94.496 3.62092 94.4302 2.71683 93.727 2.03356C93.0379 1.36394 92.1435 1.30746 91.6235 1.30746V2.99ZM92.8135 4.152H91.1309V6.21H92.8135H94.496V4.152H92.8135ZM92.8135 6.21H91.1309C91.1309 7.23494 91.0599 7.68238 90.8559 8.14116C90.6179 8.67673 90.1429 9.34903 89.0179 10.6568L90.2935 11.754L91.569 12.8512C92.6841 11.555 93.469 10.5473 93.931 9.50784C94.4271 8.39162 94.496 7.36906 94.496 6.21H92.8135ZM90.2935 11.754L89.016 10.659C89.098 10.5634 89.2205 10.4661 89.3807 10.4008C89.5373 10.337 89.6873 10.321 89.8086 10.3282C90.0289 10.3412 90.1668 10.4269 90.2452 10.4946L89.1455 11.768L88.0457 13.0414C88.4322 13.3751 88.9761 13.6498 89.6093 13.6873C90.3042 13.7286 91.0373 13.4716 91.571 12.849L90.2935 11.754ZM89.1455 11.768L90.2495 10.4983C90.2925 10.5357 90.4344 10.6751 90.4873 10.9555C90.5155 11.1049 90.513 11.2754 90.464 11.4467C90.4153 11.6171 90.3343 11.7412 90.2657 11.8188L89.0055 10.704L87.7453 9.58919C87.2556 10.1427 87.0449 10.8603 87.1806 11.5795C87.3035 12.2309 87.6765 12.7203 88.0414 13.0377L89.1455 11.768ZM85.6035 9.612L86.8114 10.7833C87.665 9.90295 88.348 9.1748 88.7443 8.38754C89.1977 7.48698 89.218 6.64281 89.218 5.818H87.5355H85.8529C85.8529 6.61719 85.8033 6.74602 85.7386 6.87446C85.6169 7.1162 85.3339 7.47305 84.3956 8.44071L85.6035 9.612ZM87.5355 5.818H89.218V4.838H87.5355H85.8529V5.818H87.5355ZM87.5355 4.838H89.218C89.218 4.60343 89.1946 3.93919 88.6535 3.39801C88.1123 2.85684 87.4481 2.83346 87.2135 2.83346V4.516V6.19854C87.1865 6.19854 87.0695 6.19765 86.9099 6.15289C86.7347 6.10378 86.4936 5.99714 86.274 5.77749C86.0543 5.55783 85.9477 5.31672 85.8986 5.14158C85.8538 4.98196 85.8529 4.86494 85.8529 4.838H87.5355ZM87.2135 4.516V2.83346H86.3595V4.516V6.19854H87.2135V4.516ZM86.3595 4.516V2.83346C86.4817 2.83346 86.6467 2.85946 86.8221 2.94593C86.998 3.03267 87.1344 3.15577 87.2298 3.28346C87.4065 3.52012 87.412 3.72149 87.412 3.76H85.7295H84.0469C84.0469 4.20451 84.1504 4.78388 84.5336 5.29704C84.9643 5.87363 85.6282 6.19854 86.3595 6.19854V4.516ZM85.7295 3.76H87.412C87.412 3.78114 87.4112 3.97837 87.2358 4.21616C87.1407 4.34509 87.0035 4.47033 86.8254 4.55864C86.6481 4.64655 86.4817 4.67254 86.3595 4.67254V2.99V1.30746C85.6267 1.30746 84.9589 1.63406 84.5276 2.21884C84.1457 2.73662 84.0469 3.31885 84.0469 3.76H85.7295ZM86.3595 2.99V4.67254H88.0535V2.99V1.30746H86.3595V2.99ZM88.0535 2.99V4.67254C88.2447 4.67254 88.2919 4.68577 88.2666 4.67999C88.2243 4.67035 88.0302 4.61736 87.8336 4.42661C87.6338 4.23265 87.5711 4.03207 87.5565 3.97233C87.5472 3.9338 87.5609 3.9688 87.5609 4.152H89.2435H90.926C90.926 3.69496 90.9097 2.72269 90.1773 2.01189C89.462 1.3176 88.5024 1.30746 88.0535 1.30746V2.99ZM89.2435 4.152H87.5609V5.888H89.2435H90.926V4.152H89.2435ZM89.2435 5.888H87.5609C87.5609 6.8168 87.4912 7.13347 87.3324 7.44945C87.1238 7.86444 86.6912 8.40542 85.5712 9.56106L86.7795 10.732L87.9877 11.9029C89.0657 10.7906 89.8651 9.90356 90.3391 8.96055C90.8628 7.91853 90.926 6.9472 90.926 5.888H89.2435ZM86.7795 10.732L85.5897 9.54226C85.6643 9.46768 85.7793 9.38436 85.9348 9.32861C86.0896 9.2731 86.2442 9.25949 86.3799 9.27306C86.6346 9.29854 86.7838 9.41057 86.8478 9.47161L85.6875 10.69L84.5271 11.9084C84.8852 12.2494 85.4053 12.5575 86.0451 12.6214C86.7429 12.6912 87.4397 12.4513 87.9692 11.9217L86.7795 10.732ZM85.6875 10.69L86.8492 9.47293C86.8917 9.5135 87.0261 9.65885 87.0653 9.94054C87.0862 10.0915 87.0754 10.2638 87.0162 10.4354C86.9573 10.6062 86.8674 10.7276 86.7932 10.8017L85.6035 9.612L84.4137 8.42227C83.881 8.95504 83.6305 9.67143 83.7322 10.4035C83.8238 11.0632 84.1752 11.5725 84.5257 11.9071L85.6875 10.69ZM96.1315 2.78H94.4489V13.532H96.1315H97.814V2.78H96.1315ZM96.1315 13.532H94.4489C94.4489 13.4186 94.4741 13.2673 94.5537 13.1081C94.6329 12.9498 94.7427 12.8299 94.8519 12.7477C95.0535 12.596 95.2183 12.5915 95.2495 12.5915V14.274V15.9565C95.7426 15.9565 96.3485 15.833 96.8756 15.4363C97.4589 14.9972 97.814 14.3147 97.814 13.532H96.1315ZM95.2495 14.274V12.5915C95.2973 12.5915 95.4661 12.6006 95.6663 12.753C95.7744 12.8353 95.8826 12.9545 95.9604 13.1109C96.0388 13.2685 96.064 13.4186 96.064 13.532H94.3815H92.6989C92.6989 14.3134 93.0526 14.9927 93.6287 15.431C94.1509 15.8284 94.7537 15.9565 95.2495 15.9565V14.274ZM94.3815 13.532H96.064V2.78H94.3815H92.6989V13.532H94.3815ZM94.3815 2.78H96.064C96.064 2.8934 96.0388 3.04348 95.9604 3.20106C95.8826 3.35753 95.7744 3.47675 95.6663 3.55901C95.4661 3.71135 95.2973 3.72054 95.2495 3.72054V2.038V0.35546C94.7537 0.35546 94.1509 0.483649 93.6287 0.880987C93.0526 1.31929 92.6989 1.99855 92.6989 2.78H94.3815ZM95.2495 2.038V3.72054C95.2183 3.72054 95.0535 3.71604 94.8519 3.56429C94.7427 3.48214 94.6329 3.36218 94.5537 3.20389C94.4741 3.04466 94.4489 2.89335 94.4489 2.78H96.1315H97.814C97.814 1.99727 97.4589 1.31478 96.8756 0.875704C96.3485 0.47896 95.7426 0.35546 95.2495 0.35546V2.038Z" fill="#FFFBEB" mask="url(#path-1-outside-1_21_6218)"/>
</g>
<defs>
<filter id="filter0_d_21_6218" x="0.175781" y="0.355469" width="99.6382" height="19.6011" filterUnits="userSpaceOnUse" color-interpolation-filters="sRGB">
<feFlood flood-opacity="0" result="BackgroundImageFix"/>
<feColorMatrix in="SourceAlpha" type="matrix" values="0 0 0 0 0 0 0 0 0 0 0 0 0 0 0 0 0 0 127 0" result="hardAlpha"/>
<feOffset dy="2"/>
<feGaussianBlur stdDeviation="1"/>
<feComposite in2="hardAlpha" operator="out"/>
<feColorMatrix type="matrix" values="0 0 0 0 0.580392 0 0 0 0 0.439216 0 0 0 0 0.368627 0 0 0 0.25 0"/>
<feBlend mode="normal" in2="BackgroundImageFix" result="effect1_dropShadow_21_6218"/>
<feBlend mode="normal" in="SourceGraphic" in2="effect1_dropShadow_21_6218" result="shape"/>
</filter>
</defs>
</svg>
