<svg width="46" height="46" viewBox="0 0 46 46" fill="none" xmlns="http://www.w3.org/2000/svg">
<g filter="url(#filter0_d_24_8489)">
<circle cx="23" cy="20" r="20" fill="#FFFBEB"/>
</g>
<path d="M28.303 17.524L31.485 20.706C32.0013 21.2155 32.4118 21.8221 32.6927 22.4908C32.9737 23.1596 33.1196 23.8773 33.122 24.6027C33.1244 25.328 32.9834 26.0467 32.7069 26.7173C32.4304 27.388 32.024 27.9973 31.5111 28.5102C30.9982 29.0231 30.3889 29.4295 29.7183 29.7059C29.0477 29.9824 28.329 30.1235 27.6036 30.1211C26.8783 30.1186 26.1605 29.9727 25.4918 29.6918C24.823 29.4108 24.2165 29.0004 23.707 28.484L22.647 27.424C22.5037 27.2857 22.3893 27.1203 22.3106 26.9373C22.2319 26.7543 22.1904 26.5575 22.1886 26.3584C22.1868 26.1592 22.2247 25.9617 22.3 25.7773C22.3753 25.5929 22.4866 25.4254 22.6274 25.2845C22.7682 25.1436 22.9356 25.0321 23.1199 24.9566C23.3042 24.8811 23.5017 24.843 23.7009 24.8447C23.9 24.8463 24.0969 24.8876 24.2799 24.9661C24.463 25.0446 24.6285 25.1588 24.767 25.302L25.829 26.363C26.2986 26.8284 26.9334 27.0888 27.5946 27.0873C28.2557 27.0857 28.8893 26.8224 29.3568 26.3548C29.8242 25.8872 30.0874 25.2536 30.0887 24.5924C30.0901 23.9313 29.8295 23.2965 29.364 22.827L26.182 19.645C25.8381 19.301 25.4012 19.0647 24.925 18.9652C24.4488 18.8658 23.9539 18.9074 23.501 19.085C23.3397 19.149 23.1883 19.2144 23.047 19.281L22.583 19.498C21.963 19.778 21.486 19.898 20.879 19.292C20.007 18.42 20.233 17.615 21.296 16.882C22.3549 16.1534 23.6356 15.8186 24.9156 15.9359C26.1956 16.0532 27.3941 16.6151 28.303 17.524ZM22.293 11.514L23.353 12.574C23.6264 12.8568 23.7777 13.2356 23.7745 13.6289C23.7713 14.0222 23.6137 14.3985 23.3357 14.6768C23.0577 14.955 22.6816 15.113 22.2883 15.1166C21.895 15.1202 21.516 14.9691 21.233 14.696L20.172 13.636C19.9414 13.3972 19.6656 13.2067 19.3607 13.0756C19.0557 12.9444 18.7277 12.8754 18.3957 12.8724C18.0638 12.8694 17.7345 12.9326 17.4273 13.0582C17.12 13.1838 16.8408 13.3694 16.606 13.604C16.3712 13.8387 16.1855 14.1178 16.0597 14.425C15.9339 14.7322 15.8706 15.0614 15.8734 15.3933C15.8762 15.7253 15.945 16.0533 16.076 16.3584C16.2069 16.6634 16.3973 16.9393 16.636 17.17L19.818 20.352C20.1619 20.6961 20.5988 20.9324 21.075 21.0318C21.5512 21.1313 22.0461 21.0897 22.499 20.912C22.6603 20.848 22.8117 20.7827 22.953 20.716L23.417 20.499C24.037 20.219 24.515 20.099 25.121 20.705C25.993 21.577 25.767 22.382 24.704 23.115C23.6451 23.8437 22.3644 24.1784 21.0844 24.0611C19.8044 23.9439 18.6059 23.382 17.697 22.473L14.515 19.291C13.9986 18.7816 13.5882 18.175 13.3072 17.5062C13.0263 16.8375 12.8804 16.1198 12.878 15.3944C12.8755 14.669 13.0166 13.9504 13.2931 13.2797C13.5695 12.6091 13.9759 11.9998 14.4888 11.4869C15.0018 10.974 15.6111 10.5676 16.2817 10.2911C16.9523 10.0147 17.671 9.87358 18.3964 9.87601C19.1217 9.87844 19.8394 10.0243 20.5082 10.3053C21.1769 10.5862 21.7835 10.9977 22.293 11.514Z" fill="#6E3209"/>
<defs>
<filter id="filter0_d_24_8489" x="0" y="0" width="46" height="46" filterUnits="userSpaceOnUse" color-interpolation-filters="sRGB">
<feFlood flood-opacity="0" result="BackgroundImageFix"/>
<feColorMatrix in="SourceAlpha" type="matrix" values="0 0 0 0 0 0 0 0 0 0 0 0 0 0 0 0 0 0 127 0" result="hardAlpha"/>
<feOffset dy="3"/>
<feGaussianBlur stdDeviation="1.5"/>
<feComposite in2="hardAlpha" operator="out"/>
<feColorMatrix type="matrix" values="0 0 0 0 0.454902 0 0 0 0 0.372549 0 0 0 0 0.337255 0 0 0 0.25 0"/>
<feBlend mode="normal" in2="BackgroundImageFix" result="effect1_dropShadow_24_8489"/>
<feBlend mode="normal" in="SourceGraphic" in2="effect1_dropShadow_24_8489" result="shape"/>
</filter>
</defs>
</svg>
