<svg width="113" height="27" viewBox="0 0 113 27" fill="none" xmlns="http://www.w3.org/2000/svg">
<mask id="path-1-outside-1_21_7095" maskUnits="userSpaceOnUse" x="0" y="0" width="113" height="27" fill="black">
<rect fill="white" width="113" height="27"/>
<path d="M4.37413 20.5053C4.37413 17.8436 6.5648 16.4773 10.3101 16.1947V13.5564H2.89013C2.15991 13.5564 1.83013 12.9676 1.83013 12.308C1.83013 11.6249 2.15991 11.036 2.89013 11.036H15.5395C15.8221 9.71689 15.987 8.39778 15.987 7.07867V6.56044C15.987 6.16 15.8457 6.01867 15.4452 6.01867H5.24569C4.51547 6.01867 4.18569 5.42978 4.18569 4.72311C4.18569 4.01644 4.51547 3.42755 5.24569 3.42755H16.9764C18.4839 3.42755 18.9786 3.89867 18.9786 5.38267V6.89022C18.9786 8.28 18.743 9.83467 18.4368 11.036H20.6981C21.4284 11.036 21.7581 11.6249 21.7581 12.308C21.7581 12.9676 21.4284 13.5564 20.6981 13.5564H13.2781V16.1947C16.9999 16.4773 19.2141 17.8436 19.2141 20.5053C19.2141 23.4969 16.411 24.8631 11.7941 24.8631C7.17724 24.8631 4.37413 23.4969 4.37413 20.5053ZM16.2226 20.5053C16.2226 19.2804 14.9506 18.5267 11.7941 18.5267C8.63769 18.5267 7.36569 19.2804 7.36569 20.5053C7.36569 21.7302 8.63769 22.484 11.7941 22.484C14.9506 22.484 16.2226 21.7302 16.2226 20.5053ZM29.2054 7.76178C32.4089 7.76178 34.3876 9.17511 34.3876 11.5071C34.3876 13.8391 32.4089 15.2524 29.2054 15.2524C26.0018 15.2524 24.0231 13.8391 24.0231 11.5071C24.0231 9.17511 26.0018 7.76178 29.2054 7.76178ZM23.764 4.41689H27.6978V3.35689C27.6978 2.48533 28.428 2.08489 29.2054 2.08489C29.9827 2.08489 30.7129 2.48533 30.7129 3.35689V4.41689H34.4111C35.1414 4.41689 35.4711 5.00578 35.4711 5.68889C35.4711 6.34844 35.1414 6.93733 34.4111 6.93733H23.764C23.0338 6.93733 22.704 6.34844 22.704 5.68889C22.704 5.00578 23.0338 4.41689 23.764 4.41689ZM29.2054 12.9676C30.8778 12.9676 31.6787 12.3551 31.6787 11.5071C31.6787 10.6591 30.8778 10.0467 29.2054 10.0467C27.5329 10.0467 26.732 10.6591 26.732 11.5071C26.732 12.3551 27.5329 12.9676 29.2054 12.9676ZM39.8525 3.828V7.76178H42.0903C42.8205 7.76178 43.1503 8.35067 43.1503 9.05733C43.1503 9.764 42.8205 10.3529 42.0903 10.3529H39.8525V13.9333C39.8525 14.8049 39.1223 15.2053 38.3685 15.2053C37.5911 15.2053 36.8609 14.8049 36.8609 13.9333V3.828C36.8609 2.95644 37.5911 2.556 38.3685 2.556C39.1223 2.556 39.8525 2.95644 39.8525 3.828ZM27.9098 24.392C26.4023 24.392 25.9076 23.9209 25.9076 22.4369V17.2547C25.9076 16.4538 26.6378 16.0769 27.3445 16.0769C28.0747 16.0769 28.8049 16.4538 28.8049 17.2547V18.4324H36.9551V17.2547C36.9551 16.4538 37.6854 16.0769 38.392 16.0769C39.1223 16.0769 39.8525 16.4538 39.8525 17.2547V22.4369C39.8525 23.9209 39.3578 24.392 37.8503 24.392H27.9098ZM29.1583 22.0364H36.6018C36.8374 22.0364 36.9551 21.9187 36.9551 21.6831V20.7409H28.8049V21.6831C28.8049 21.9187 28.9227 22.0364 29.1583 22.0364ZM52.6939 12.1902V14.7107C52.6939 15.1111 52.8353 15.2524 53.2357 15.2524C54.8846 15.2524 56.8633 15.1582 58.3708 14.9462C59.0775 14.852 59.5015 15.3467 59.5722 16.0298C59.6428 16.7364 59.4073 17.3489 58.7242 17.4667C57.7113 17.6316 55.4264 17.7964 51.7753 17.7964C50.2677 17.7964 49.773 17.3253 49.773 15.8413V6.11289C49.773 4.62889 50.2677 4.15778 51.7753 4.15778H57.7348C58.465 4.15778 58.7948 4.74667 58.7948 5.42978C58.7948 6.11289 58.465 6.70178 57.7348 6.70178H53.2357C52.8353 6.70178 52.6939 6.84311 52.6939 7.24355V9.71689H56.5806C57.2873 9.71689 57.617 10.3058 57.617 10.9653C57.617 11.6013 57.2873 12.1902 56.5806 12.1902H52.6939ZM60.9148 12.1196H59.4544C58.7713 12.1196 58.465 11.5542 58.465 10.824C58.465 10.0938 58.7713 9.52844 59.4544 9.52844H60.9148V3.96933C60.9148 3.16844 61.5979 2.79155 62.3046 2.79155C62.9877 2.79155 63.6708 3.16844 63.6708 3.96933V20.9764C63.6708 21.7773 62.9877 22.1542 62.3046 22.1542C61.5979 22.1542 60.9148 21.7773 60.9148 20.9764V12.1196ZM65.2019 21.9658V3.73378C65.2019 2.93289 65.885 2.556 66.5917 2.556C67.2984 2.556 67.9815 2.93289 67.9815 3.73378V21.9658C67.9815 22.7667 67.2984 23.1436 66.5917 23.1436C65.885 23.1436 65.2019 22.7667 65.2019 21.9658ZM88.1252 12.52C88.7612 12.8733 88.7141 13.7449 88.3843 14.3102C88.031 14.8991 87.2772 15.2289 86.6176 14.8756C85.0865 14.0276 83.7203 13.2267 82.4483 12.4022C81.035 11.4836 80.3518 10.6591 80.2341 10.1173H80.2105C80.0692 10.7298 79.3861 11.5542 77.9727 12.4729C76.7007 13.2973 75.3345 14.0982 73.8034 14.9462C73.1438 15.2996 72.4136 14.9698 72.0367 14.3573C71.6834 13.7684 71.6598 12.8733 72.2958 12.52C73.6385 11.7662 74.9812 10.9889 76.4181 10.0702C78.0198 9.03378 78.6794 7.83244 78.6794 6.08933V4.84089C78.6794 3.94578 79.4096 3.54533 80.2105 3.54533C81.0114 3.54533 81.7416 3.94578 81.7416 4.84089V6.08933C81.7416 7.83244 82.4012 9.03378 84.003 10.0702C85.4398 10.9889 86.7825 11.7662 88.1252 12.52ZM89.1145 21.212H71.3065C70.5763 21.212 70.2465 20.6231 70.2465 19.94C70.2465 19.2333 70.5763 18.6444 71.3065 18.6444H89.1145C89.8447 18.6444 90.1745 19.2333 90.1745 19.94C90.1745 20.6231 89.8447 21.212 89.1145 21.212ZM96.7266 6.96089V8.56267H107.256C107.986 8.56267 108.316 9.15156 108.316 9.78756C108.316 10.4236 107.986 11.0124 107.256 11.0124H96.7266V12.6378C96.7266 13.0382 96.868 13.1796 97.2684 13.1796H107.845C108.575 13.1796 108.905 13.7684 108.905 14.4516C108.905 15.1347 108.575 15.7236 107.845 15.7236H95.7844C94.2769 15.7236 93.7822 15.2524 93.7822 13.7684V5.83022C93.7822 4.34622 94.2769 3.87511 95.7844 3.87511H107.492C108.222 3.87511 108.552 4.464 108.552 5.14711C108.552 5.83022 108.222 6.41911 107.492 6.41911H97.2684C96.868 6.41911 96.7266 6.56044 96.7266 6.96089ZM110.106 21.212H92.2982C91.568 21.212 91.2382 20.6231 91.2382 19.94C91.2382 19.2333 91.568 18.6444 92.2982 18.6444H110.106C110.836 18.6444 111.166 19.2333 111.166 19.94C111.166 20.6231 110.836 21.212 110.106 21.212Z"/>
</mask>
<path d="M4.37413 20.5053C4.37413 17.8436 6.5648 16.4773 10.3101 16.1947V13.5564H2.89013C2.15991 13.5564 1.83013 12.9676 1.83013 12.308C1.83013 11.6249 2.15991 11.036 2.89013 11.036H15.5395C15.8221 9.71689 15.987 8.39778 15.987 7.07867V6.56044C15.987 6.16 15.8457 6.01867 15.4452 6.01867H5.24569C4.51547 6.01867 4.18569 5.42978 4.18569 4.72311C4.18569 4.01644 4.51547 3.42755 5.24569 3.42755H16.9764C18.4839 3.42755 18.9786 3.89867 18.9786 5.38267V6.89022C18.9786 8.28 18.743 9.83467 18.4368 11.036H20.6981C21.4284 11.036 21.7581 11.6249 21.7581 12.308C21.7581 12.9676 21.4284 13.5564 20.6981 13.5564H13.2781V16.1947C16.9999 16.4773 19.2141 17.8436 19.2141 20.5053C19.2141 23.4969 16.411 24.8631 11.7941 24.8631C7.17724 24.8631 4.37413 23.4969 4.37413 20.5053ZM16.2226 20.5053C16.2226 19.2804 14.9506 18.5267 11.7941 18.5267C8.63769 18.5267 7.36569 19.2804 7.36569 20.5053C7.36569 21.7302 8.63769 22.484 11.7941 22.484C14.9506 22.484 16.2226 21.7302 16.2226 20.5053ZM29.2054 7.76178C32.4089 7.76178 34.3876 9.17511 34.3876 11.5071C34.3876 13.8391 32.4089 15.2524 29.2054 15.2524C26.0018 15.2524 24.0231 13.8391 24.0231 11.5071C24.0231 9.17511 26.0018 7.76178 29.2054 7.76178ZM23.764 4.41689H27.6978V3.35689C27.6978 2.48533 28.428 2.08489 29.2054 2.08489C29.9827 2.08489 30.7129 2.48533 30.7129 3.35689V4.41689H34.4111C35.1414 4.41689 35.4711 5.00578 35.4711 5.68889C35.4711 6.34844 35.1414 6.93733 34.4111 6.93733H23.764C23.0338 6.93733 22.704 6.34844 22.704 5.68889C22.704 5.00578 23.0338 4.41689 23.764 4.41689ZM29.2054 12.9676C30.8778 12.9676 31.6787 12.3551 31.6787 11.5071C31.6787 10.6591 30.8778 10.0467 29.2054 10.0467C27.5329 10.0467 26.732 10.6591 26.732 11.5071C26.732 12.3551 27.5329 12.9676 29.2054 12.9676ZM39.8525 3.828V7.76178H42.0903C42.8205 7.76178 43.1503 8.35067 43.1503 9.05733C43.1503 9.764 42.8205 10.3529 42.0903 10.3529H39.8525V13.9333C39.8525 14.8049 39.1223 15.2053 38.3685 15.2053C37.5911 15.2053 36.8609 14.8049 36.8609 13.9333V3.828C36.8609 2.95644 37.5911 2.556 38.3685 2.556C39.1223 2.556 39.8525 2.95644 39.8525 3.828ZM27.9098 24.392C26.4023 24.392 25.9076 23.9209 25.9076 22.4369V17.2547C25.9076 16.4538 26.6378 16.0769 27.3445 16.0769C28.0747 16.0769 28.8049 16.4538 28.8049 17.2547V18.4324H36.9551V17.2547C36.9551 16.4538 37.6854 16.0769 38.392 16.0769C39.1223 16.0769 39.8525 16.4538 39.8525 17.2547V22.4369C39.8525 23.9209 39.3578 24.392 37.8503 24.392H27.9098ZM29.1583 22.0364H36.6018C36.8374 22.0364 36.9551 21.9187 36.9551 21.6831V20.7409H28.8049V21.6831C28.8049 21.9187 28.9227 22.0364 29.1583 22.0364ZM52.6939 12.1902V14.7107C52.6939 15.1111 52.8353 15.2524 53.2357 15.2524C54.8846 15.2524 56.8633 15.1582 58.3708 14.9462C59.0775 14.852 59.5015 15.3467 59.5722 16.0298C59.6428 16.7364 59.4073 17.3489 58.7242 17.4667C57.7113 17.6316 55.4264 17.7964 51.7753 17.7964C50.2677 17.7964 49.773 17.3253 49.773 15.8413V6.11289C49.773 4.62889 50.2677 4.15778 51.7753 4.15778H57.7348C58.465 4.15778 58.7948 4.74667 58.7948 5.42978C58.7948 6.11289 58.465 6.70178 57.7348 6.70178H53.2357C52.8353 6.70178 52.6939 6.84311 52.6939 7.24355V9.71689H56.5806C57.2873 9.71689 57.617 10.3058 57.617 10.9653C57.617 11.6013 57.2873 12.1902 56.5806 12.1902H52.6939ZM60.9148 12.1196H59.4544C58.7713 12.1196 58.465 11.5542 58.465 10.824C58.465 10.0938 58.7713 9.52844 59.4544 9.52844H60.9148V3.96933C60.9148 3.16844 61.5979 2.79155 62.3046 2.79155C62.9877 2.79155 63.6708 3.16844 63.6708 3.96933V20.9764C63.6708 21.7773 62.9877 22.1542 62.3046 22.1542C61.5979 22.1542 60.9148 21.7773 60.9148 20.9764V12.1196ZM65.2019 21.9658V3.73378C65.2019 2.93289 65.885 2.556 66.5917 2.556C67.2984 2.556 67.9815 2.93289 67.9815 3.73378V21.9658C67.9815 22.7667 67.2984 23.1436 66.5917 23.1436C65.885 23.1436 65.2019 22.7667 65.2019 21.9658ZM88.1252 12.52C88.7612 12.8733 88.7141 13.7449 88.3843 14.3102C88.031 14.8991 87.2772 15.2289 86.6176 14.8756C85.0865 14.0276 83.7203 13.2267 82.4483 12.4022C81.035 11.4836 80.3518 10.6591 80.2341 10.1173H80.2105C80.0692 10.7298 79.3861 11.5542 77.9727 12.4729C76.7007 13.2973 75.3345 14.0982 73.8034 14.9462C73.1438 15.2996 72.4136 14.9698 72.0367 14.3573C71.6834 13.7684 71.6598 12.8733 72.2958 12.52C73.6385 11.7662 74.9812 10.9889 76.4181 10.0702C78.0198 9.03378 78.6794 7.83244 78.6794 6.08933V4.84089C78.6794 3.94578 79.4096 3.54533 80.2105 3.54533C81.0114 3.54533 81.7416 3.94578 81.7416 4.84089V6.08933C81.7416 7.83244 82.4012 9.03378 84.003 10.0702C85.4398 10.9889 86.7825 11.7662 88.1252 12.52ZM89.1145 21.212H71.3065C70.5763 21.212 70.2465 20.6231 70.2465 19.94C70.2465 19.2333 70.5763 18.6444 71.3065 18.6444H89.1145C89.8447 18.6444 90.1745 19.2333 90.1745 19.94C90.1745 20.6231 89.8447 21.212 89.1145 21.212ZM96.7266 6.96089V8.56267H107.256C107.986 8.56267 108.316 9.15156 108.316 9.78756C108.316 10.4236 107.986 11.0124 107.256 11.0124H96.7266V12.6378C96.7266 13.0382 96.868 13.1796 97.2684 13.1796H107.845C108.575 13.1796 108.905 13.7684 108.905 14.4516C108.905 15.1347 108.575 15.7236 107.845 15.7236H95.7844C94.2769 15.7236 93.7822 15.2524 93.7822 13.7684V5.83022C93.7822 4.34622 94.2769 3.87511 95.7844 3.87511H107.492C108.222 3.87511 108.552 4.464 108.552 5.14711C108.552 5.83022 108.222 6.41911 107.492 6.41911H97.2684C96.868 6.41911 96.7266 6.56044 96.7266 6.96089ZM110.106 21.212H92.2982C91.568 21.212 91.2382 20.6231 91.2382 19.94C91.2382 19.2333 91.568 18.6444 92.2982 18.6444H110.106C110.836 18.6444 111.166 19.2333 111.166 19.94C111.166 20.6231 110.836 21.212 110.106 21.212Z" fill="url(#paint0_linear_21_7095)"/>
<path d="M10.3101 16.1947L10.4368 17.8724L11.9927 17.755V16.1947H10.3101ZM10.3101 13.5564H11.9927V11.8739H10.3101V13.5564ZM15.5395 11.036V12.7185H16.8997L17.1847 11.3885L15.5395 11.036ZM18.4368 11.036L16.8064 10.6204L16.2716 12.7185H18.4368V11.036ZM13.2781 13.5564V11.8739H11.5956V13.5564H13.2781ZM13.2781 16.1947H11.5956V17.7543L13.1507 17.8724L13.2781 16.1947ZM4.37413 20.5053H6.05667C6.05667 19.7229 6.33684 19.2314 6.90116 18.8372C7.56225 18.3754 8.69934 18.0036 10.4368 17.8724L10.3101 16.1947L10.1835 14.5169C8.17559 14.6684 6.34468 15.1211 4.9741 16.0785C3.50676 17.1035 2.69159 18.626 2.69159 20.5053H4.37413ZM10.3101 16.1947H11.9927V13.5564H10.3101H8.62759V16.1947H10.3101ZM10.3101 13.5564V11.8739H2.89013V13.5564V15.239H10.3101V13.5564ZM2.89013 13.5564V11.8739C2.93842 11.8739 3.03802 11.885 3.15722 11.9434C3.27674 12.002 3.36786 12.0848 3.42819 12.1645C3.53563 12.3066 3.51267 12.3854 3.51267 12.308H1.83013H0.147593C0.147593 12.8901 0.289527 13.5932 0.744408 14.1946C1.24472 14.856 2.01221 15.239 2.89013 15.239V13.5564ZM1.83013 12.308H3.51267C3.51267 12.208 3.54065 12.2803 3.43438 12.4226C3.37425 12.5031 3.28229 12.5877 3.16057 12.6477C3.03942 12.7075 2.93834 12.7185 2.89013 12.7185V11.036V9.35346C2.01075 9.35346 1.23931 9.73809 0.738223 10.409C0.284504 11.0166 0.147593 11.7249 0.147593 12.308H1.83013ZM2.89013 11.036V12.7185H15.5395V11.036V9.35346H2.89013V11.036ZM15.5395 11.036L17.1847 11.3885C17.4872 9.97668 17.6696 8.53779 17.6696 7.07867H15.987H14.3045C14.3045 8.25777 14.1571 9.4571 13.8943 10.6835L15.5395 11.036ZM15.987 7.07867H17.6696V6.56044H15.987H14.3045V7.07867H15.987ZM15.987 6.56044H17.6696C17.6696 6.24465 17.6318 5.52547 17.056 4.94965C16.4802 4.37384 15.761 4.33613 15.4452 4.33613V6.01867V7.70121C15.5299 7.70121 15.0816 7.73416 14.6766 7.32912C14.2715 6.92409 14.3045 6.47579 14.3045 6.56044H15.987ZM15.4452 6.01867V4.33613H5.24569V6.01867V7.70121H15.4452V6.01867ZM5.24569 6.01867V4.33613C5.29382 4.33613 5.39638 4.34718 5.51947 4.40822C5.64336 4.46965 5.73611 4.55607 5.79597 4.63723C5.90086 4.77946 5.86823 4.8453 5.86823 4.72311H4.18569H2.50315C2.50315 5.30759 2.63541 6.02121 3.08774 6.63455C3.58949 7.31489 4.36479 7.70121 5.24569 7.70121V6.01867ZM4.18569 4.72311H5.86823C5.86823 4.60092 5.90086 4.66676 5.79597 4.80899C5.73611 4.89015 5.64336 4.97657 5.51947 5.038C5.39638 5.09904 5.29382 5.11009 5.24569 5.11009V3.42755V1.74501C4.36479 1.74501 3.58949 2.13134 3.08774 2.81167C2.63541 3.42501 2.50315 4.13863 2.50315 4.72311H4.18569ZM5.24569 3.42755V5.11009H16.9764V3.42755V1.74501H5.24569V3.42755ZM16.9764 3.42755V5.11009C17.2798 5.11009 17.4353 5.13541 17.5008 5.15248C17.551 5.16556 17.4713 5.15351 17.3703 5.0553C17.2669 4.95485 17.2472 4.86769 17.2561 4.89961C17.27 4.94991 17.296 5.09061 17.296 5.38267H18.9786H20.6611C20.6611 4.55058 20.5451 3.44822 19.7153 2.64192C18.8996 1.84927 17.8022 1.74501 16.9764 1.74501V3.42755ZM18.9786 5.38267H17.296V6.89022H18.9786H20.6611V5.38267H18.9786ZM18.9786 6.89022H17.296C17.296 8.11661 17.0842 9.53037 16.8064 10.6204L18.4368 11.036L20.0672 11.4516C20.4018 10.139 20.6611 8.44339 20.6611 6.89022H18.9786ZM18.4368 11.036V12.7185H20.6981V11.036V9.35346H18.4368V11.036ZM20.6981 11.036V12.7185C20.6499 12.7185 20.5488 12.7075 20.4277 12.6477C20.306 12.5877 20.214 12.5031 20.1539 12.4226C20.0476 12.2803 20.0756 12.208 20.0756 12.308H21.7581H23.4407C23.4407 11.7249 23.3038 11.0166 22.85 10.409C22.349 9.73809 21.5775 9.35346 20.6981 9.35346V11.036ZM21.7581 12.308H20.0756C20.0756 12.3854 20.0526 12.3066 20.1601 12.1645C20.2204 12.0848 20.3115 12.002 20.431 11.9434C20.5502 11.885 20.6498 11.8739 20.6981 11.8739V13.5564V15.239C21.5761 15.239 22.3435 14.856 22.8439 14.1946C23.2987 13.5932 23.4407 12.8901 23.4407 12.308H21.7581ZM20.6981 13.5564V11.8739H13.2781V13.5564V15.239H20.6981V13.5564ZM13.2781 13.5564H11.5956V16.1947H13.2781H14.9607V13.5564H13.2781ZM13.2781 16.1947L13.1507 17.8724C14.875 18.0033 16.0143 18.3747 16.6801 18.8385C17.2508 19.236 17.5316 19.7292 17.5316 20.5053H19.2141H20.8967C20.8967 18.6197 20.0703 17.0989 18.6035 16.0772C17.2318 15.1218 15.403 14.6687 13.4056 14.517L13.2781 16.1947ZM19.2141 20.5053H17.5316C17.5316 21.3465 17.2009 21.8971 16.4135 22.338C15.503 22.8478 13.9865 23.1806 11.7941 23.1806V24.8631V26.5457C14.2187 26.5457 16.4122 26.1954 18.0575 25.2741C19.8258 24.284 20.8967 22.6557 20.8967 20.5053H19.2141ZM11.7941 24.8631V23.1806C9.60178 23.1806 8.08527 22.8478 7.17479 22.338C6.38734 21.8971 6.05667 21.3465 6.05667 20.5053H4.37413H2.69159C2.69159 22.6557 3.76248 24.284 5.53081 25.2741C7.17611 26.1954 9.36959 26.5457 11.7941 26.5457V24.8631ZM16.2226 20.5053H17.9051C17.9051 19.8913 17.7399 19.2723 17.3568 18.7202C16.9834 18.182 16.4699 17.8034 15.9193 17.5394C14.8637 17.0335 13.4523 16.8441 11.7941 16.8441V18.5267V20.2092C13.2924 20.2092 14.0952 20.3968 14.4648 20.5739C14.6267 20.6515 14.6285 20.691 14.5922 20.6387C14.5745 20.6132 14.5588 20.5811 14.5489 20.5478C14.5394 20.5158 14.54 20.4989 14.54 20.5053H16.2226ZM11.7941 18.5267V16.8441C10.136 16.8441 8.72452 17.0335 7.66897 17.5394C7.11833 17.8034 6.6049 18.182 6.23144 18.7202C5.84834 19.2722 5.68315 19.8913 5.68315 20.5053H7.36569H9.04823C9.04823 20.4989 9.04887 20.5158 9.03939 20.5478C9.0295 20.5811 9.01373 20.6132 8.99607 20.6387C8.95975 20.691 8.96161 20.6515 9.12352 20.5739C9.49308 20.3968 10.2958 20.2092 11.7941 20.2092V18.5267ZM7.36569 20.5053H5.68315C5.68315 21.1194 5.84834 21.7384 6.23144 22.2905C6.6049 22.8287 7.11833 23.2073 7.66897 23.4712C8.72452 23.9772 10.136 24.1665 11.7941 24.1665V22.484V20.8015C10.2958 20.8015 9.49308 20.6139 9.12352 20.4368C8.96161 20.3592 8.95975 20.3197 8.99607 20.372C9.01373 20.3974 9.0295 20.4296 9.03939 20.4629C9.04887 20.4948 9.04823 20.5118 9.04823 20.5053H7.36569ZM11.7941 22.484V24.1665C13.4523 24.1665 14.8637 23.9772 15.9193 23.4712C16.4699 23.2073 16.9834 22.8287 17.3568 22.2905C17.7399 21.7384 17.9051 21.1194 17.9051 20.5053H16.2226H14.54C14.54 20.5118 14.5394 20.4948 14.5489 20.4629C14.5588 20.4296 14.5745 20.3974 14.5922 20.372C14.6285 20.3197 14.6267 20.3592 14.4648 20.4368C14.0952 20.6139 13.2924 20.8015 11.7941 20.8015V22.484ZM27.6978 4.41689V6.09943H29.3804V4.41689H27.6978ZM30.7129 4.41689H29.0304V6.09943H30.7129V4.41689ZM39.8525 7.76178H38.1699V9.44432H39.8525V7.76178ZM39.8525 10.3529V8.67035H38.1699V10.3529H39.8525ZM28.8049 18.4324H27.1224V20.115H28.8049V18.4324ZM36.9551 18.4324V20.115H38.6377V18.4324H36.9551ZM36.9551 20.7409H38.6377V19.0583H36.9551V20.7409ZM28.8049 20.7409V19.0583H27.1224V20.7409H28.8049ZM29.2054 7.76178V9.44432C30.5879 9.44432 31.4979 9.75306 32.0143 10.1251C32.4697 10.4532 32.7051 10.8811 32.7051 11.5071H34.3876H36.0701C36.0701 9.80108 35.3161 8.35637 33.9813 7.39476C32.7075 6.47716 31.0263 6.07924 29.2054 6.07924V7.76178ZM34.3876 11.5071H32.7051C32.7051 12.1331 32.4697 12.561 32.0143 12.8891C31.4979 13.2612 30.5879 13.5699 29.2054 13.5699V15.2524V16.935C31.0263 16.935 32.7075 16.5371 33.9813 15.6195C35.3161 14.6579 36.0701 13.2131 36.0701 11.5071H34.3876ZM29.2054 15.2524V13.5699C27.8228 13.5699 26.9129 13.2612 26.3964 12.8891C25.941 12.561 25.7057 12.1331 25.7057 11.5071H24.0231H22.3406C22.3406 13.2131 23.0946 14.6579 24.4295 15.6195C25.7032 16.5371 27.3844 16.935 29.2054 16.935V15.2524ZM24.0231 11.5071H25.7057C25.7057 10.8811 25.941 10.4532 26.3964 10.1251C26.9129 9.75306 27.8228 9.44432 29.2054 9.44432V7.76178V6.07924C27.3844 6.07924 25.7032 6.47716 24.4295 7.39476C23.0946 8.35637 22.3406 9.80108 22.3406 11.5071H24.0231ZM23.764 4.41689V6.09943H27.6978V4.41689V2.73435H23.764V4.41689ZM27.6978 4.41689H29.3804V3.35689H27.6978H26.0153V4.41689H27.6978ZM27.6978 3.35689H29.3804C29.3804 3.37985 29.3739 3.45362 29.3269 3.54705C29.2804 3.63932 29.2179 3.70401 29.1673 3.74179C29.121 3.77639 29.0948 3.78155 29.1072 3.77799C29.1192 3.77454 29.1526 3.76743 29.2054 3.76743V2.08489V0.402349C28.5557 0.402349 27.7957 0.565857 27.1528 1.04632C26.452 1.57014 26.0153 2.38573 26.0153 3.35689H27.6978ZM29.2054 2.08489V3.76743C29.2581 3.76743 29.2915 3.77454 29.3035 3.77799C29.3159 3.78155 29.2897 3.77639 29.2434 3.74179C29.1928 3.70401 29.1303 3.63932 29.0839 3.54705C29.0368 3.45362 29.0304 3.37985 29.0304 3.35689H30.7129H32.3955C32.3955 2.38573 31.9588 1.57014 31.2579 1.04632C30.615 0.565857 29.855 0.402349 29.2054 0.402349V2.08489ZM30.7129 3.35689H29.0304V4.41689H30.7129H32.3955V3.35689H30.7129ZM30.7129 4.41689V6.09943H34.4111V4.41689V2.73435H30.7129V4.41689ZM34.4111 4.41689V6.09943C34.3629 6.09943 34.2619 6.08836 34.1407 6.02862C34.019 5.9686 33.927 5.88402 33.8669 5.80351C33.7606 5.66121 33.7886 5.58884 33.7886 5.68889H35.4711H37.1537C37.1537 5.10582 37.0168 4.39745 36.5631 3.78993C36.062 3.11898 35.2905 2.73435 34.4111 2.73435V4.41689ZM35.4711 5.68889H33.7886C33.7886 5.7663 33.7657 5.68746 33.8731 5.54542C33.9334 5.46566 34.0245 5.38293 34.1441 5.32432C34.2633 5.26587 34.3629 5.25479 34.4111 5.25479V6.93733V8.61987C35.2891 8.61987 36.0566 8.23689 36.5569 7.57546C37.0118 6.9741 37.1537 6.27104 37.1537 5.68889H35.4711ZM34.4111 6.93733V5.25479H23.764V6.93733V8.61987H34.4111V6.93733ZM23.764 6.93733V5.25479C23.8123 5.25479 23.9119 5.26587 24.0311 5.32432C24.1506 5.38293 24.2418 5.46566 24.3021 5.54542C24.4095 5.68746 24.3866 5.7663 24.3866 5.68889H22.704H21.0215C21.0215 6.27104 21.1634 6.9741 21.6183 7.57546C22.1186 8.23689 22.8861 8.61987 23.764 8.61987V6.93733ZM22.704 5.68889H24.3866C24.3866 5.58884 24.4146 5.66121 24.3083 5.80351C24.2482 5.88402 24.1562 5.9686 24.0345 6.02862C23.9133 6.08836 23.8122 6.09943 23.764 6.09943V4.41689V2.73435C22.8846 2.73435 22.1132 3.11898 21.6121 3.78993C21.1584 4.39745 21.0215 5.10582 21.0215 5.68889H22.704ZM29.2054 12.9676V14.6501C30.2106 14.6501 31.1873 14.4719 31.9692 13.9769C32.8282 13.4331 33.3612 12.5508 33.3612 11.5071H31.6787H29.9962C29.9962 11.4458 30.0132 11.3515 30.0675 11.2566C30.1201 11.1649 30.1741 11.1306 30.1692 11.1337C30.1591 11.1402 30.0894 11.1804 29.9237 11.2181C29.7594 11.2555 29.5242 11.285 29.2054 11.285V12.9676ZM31.6787 11.5071H33.3612C33.3612 10.4634 32.8282 9.58112 31.9692 9.03729C31.1873 8.54229 30.2106 8.36413 29.2054 8.36413V10.0467V11.7292C29.5242 11.7292 29.7594 11.7587 29.9237 11.7961C30.0894 11.8339 30.1591 11.8741 30.1692 11.8805C30.1741 11.8836 30.1201 11.8493 30.0675 11.7576C30.0132 11.6627 29.9962 11.5684 29.9962 11.5071H31.6787ZM29.2054 10.0467V8.36413C28.2002 8.36413 27.2234 8.54229 26.4415 9.03729C25.5825 9.58112 25.0495 10.4634 25.0495 11.5071H26.732H28.4146C28.4146 11.5684 28.3976 11.6627 28.3432 11.7576C28.2907 11.8493 28.2366 11.8836 28.2415 11.8805C28.2517 11.8741 28.3213 11.8339 28.487 11.7961C28.6513 11.7587 28.8865 11.7292 29.2054 11.7292V10.0467ZM26.732 11.5071H25.0495C25.0495 12.5508 25.5825 13.4331 26.4415 13.9769C27.2234 14.4719 28.2002 14.6501 29.2054 14.6501V12.9676V11.285C28.8865 11.285 28.6513 11.2555 28.487 11.2181C28.3213 11.1804 28.2517 11.1402 28.2415 11.1337C28.2366 11.1306 28.2907 11.1649 28.3432 11.2566C28.3976 11.3515 28.4146 11.4458 28.4146 11.5071H26.732ZM39.8525 3.828H38.1699V7.76178H39.8525H41.535V3.828H39.8525ZM39.8525 7.76178V9.44432H42.0903V7.76178V6.07924H39.8525V7.76178ZM42.0903 7.76178V9.44432C42.0421 9.44432 41.9396 9.43326 41.8165 9.37222C41.6926 9.31079 41.5998 9.22437 41.54 9.14321C41.4351 9.00099 41.4677 8.93514 41.4677 9.05733H43.1503H44.8328C44.8328 8.47285 44.7005 7.75924 44.2482 7.1459C43.7465 6.46556 42.9712 6.07924 42.0903 6.07924V7.76178ZM43.1503 9.05733H41.4677C41.4677 9.17952 41.4351 9.11368 41.54 8.97145C41.5998 8.89029 41.6926 8.80388 41.8165 8.74244C41.9396 8.6814 42.0421 8.67035 42.0903 8.67035V10.3529V12.0354C42.9712 12.0354 43.7465 11.6491 44.2482 10.9688C44.7005 10.3554 44.8328 9.64181 44.8328 9.05733H43.1503ZM42.0903 10.3529V8.67035H39.8525V10.3529V12.0354H42.0903V10.3529ZM39.8525 10.3529H38.1699V13.9333H39.8525H41.535V10.3529H39.8525ZM39.8525 13.9333H38.1699C38.1699 13.9103 38.1764 13.8378 38.2224 13.7459C38.2677 13.6554 38.3289 13.5915 38.3791 13.5536C38.4252 13.5187 38.4528 13.5123 38.4449 13.5146C38.4372 13.5168 38.4108 13.5228 38.3685 13.5228V15.2053V16.8879C39.0159 16.8879 39.7704 16.7198 40.4072 16.2388C41.0998 15.7157 41.535 14.9032 41.535 13.9333H39.8525ZM38.3685 15.2053V13.5228C38.3157 13.5228 38.2823 13.5157 38.2703 13.5122C38.258 13.5087 38.2842 13.5138 38.3305 13.5484C38.381 13.5862 38.4435 13.6509 38.49 13.7432C38.537 13.8366 38.5435 13.9104 38.5435 13.9333H36.8609H35.1784C35.1784 14.9045 35.6151 15.7201 36.3159 16.2439C36.9588 16.7244 37.7188 16.8879 38.3685 16.8879V15.2053ZM36.8609 13.9333H38.5435V3.828H36.8609H35.1784V13.9333H36.8609ZM36.8609 3.828H38.5435C38.5435 3.85096 38.537 3.92473 38.49 4.01816C38.4435 4.11043 38.381 4.17512 38.3305 4.2129C38.2842 4.2475 38.258 4.25266 38.2703 4.2491C38.2823 4.24565 38.3157 4.23854 38.3685 4.23854V2.556V0.873459C37.7188 0.873459 36.9588 1.03697 36.3159 1.51743C35.6151 2.04125 35.1784 2.85684 35.1784 3.828H36.8609ZM38.3685 2.556V4.23854C38.4108 4.23854 38.4372 4.24449 38.4449 4.24674C38.4528 4.24906 38.4252 4.2426 38.3791 4.20776C38.3289 4.16987 38.2677 4.1059 38.2224 4.0154C38.1764 3.92358 38.1699 3.85101 38.1699 3.828H39.8525H41.535C41.535 2.8581 41.0998 2.04564 40.4072 1.52257C39.7704 1.04156 39.0159 0.873459 38.3685 0.873459V2.556ZM27.9098 24.392V22.7095C27.6064 22.7095 27.4509 22.6841 27.3854 22.6671C27.3352 22.654 27.4148 22.666 27.5159 22.7643C27.6193 22.8647 27.6389 22.9519 27.6301 22.9199C27.6162 22.8696 27.5901 22.7289 27.5901 22.4369H25.9076H24.2251C24.2251 23.269 24.3411 24.3713 25.1708 25.1776C25.9866 25.9703 27.084 26.0745 27.9098 26.0745V24.392ZM25.9076 22.4369H27.5901V17.2547H25.9076H24.2251V22.4369H25.9076ZM25.9076 17.2547H27.5901C27.5901 17.3188 27.5732 17.4206 27.5149 17.5291C27.4589 17.6333 27.3892 17.6985 27.3418 17.7326C27.2977 17.7642 27.2735 17.7691 27.2831 17.7664C27.292 17.7638 27.3142 17.7594 27.3445 17.7594V16.0769V14.3943C26.7221 14.3943 25.9977 14.5554 25.3803 14.9983C24.7081 15.4805 24.2251 16.2655 24.2251 17.2547H25.9076ZM27.3445 16.0769V17.7594C27.3853 17.7594 27.4147 17.765 27.4277 17.7687C27.4417 17.7726 27.419 17.7689 27.3748 17.7376C27.3271 17.7037 27.256 17.6379 27.1988 17.532C27.1394 17.4218 27.1224 17.3188 27.1224 17.2547H28.8049H30.4875C30.4875 16.2639 30.0027 15.4762 29.3223 14.9933C28.6987 14.5508 27.969 14.3943 27.3445 14.3943V16.0769ZM28.8049 17.2547H27.1224V18.4324H28.8049H30.4875V17.2547H28.8049ZM28.8049 18.4324V20.115H36.9551V18.4324V16.7499H28.8049V18.4324ZM36.9551 18.4324H38.6377V17.2547H36.9551H35.2726V18.4324H36.9551ZM36.9551 17.2547H38.6377C38.6377 17.3188 38.6207 17.4206 38.5624 17.5291C38.5064 17.6333 38.4368 17.6985 38.3894 17.7326C38.3452 17.7642 38.321 17.7691 38.3307 17.7664C38.3395 17.7638 38.3618 17.7594 38.392 17.7594V16.0769V14.3943C37.7697 14.3943 37.0453 14.5554 36.4278 14.9983C35.7556 15.4805 35.2726 16.2655 35.2726 17.2547H36.9551ZM38.392 16.0769V17.7594C38.4329 17.7594 38.4622 17.765 38.4753 17.7687C38.4893 17.7726 38.4665 17.7689 38.4223 17.7376C38.3746 17.7037 38.3036 17.6379 38.2464 17.532C38.1869 17.4218 38.1699 17.3188 38.1699 17.2547H39.8525H41.535C41.535 16.2639 41.0502 15.4762 40.3699 14.9933C39.7463 14.5508 39.0166 14.3943 38.392 14.3943V16.0769ZM39.8525 17.2547H38.1699V22.4369H39.8525H41.535V17.2547H39.8525ZM39.8525 22.4369H38.1699C38.1699 22.7289 38.1439 22.8696 38.13 22.9199C38.1211 22.9519 38.1408 22.8647 38.2442 22.7643C38.3452 22.666 38.4249 22.654 38.3747 22.6671C38.3092 22.6841 38.1537 22.7095 37.8503 22.7095V24.392V26.0745C38.6761 26.0745 39.7735 25.9703 40.5892 25.1776C41.419 24.3713 41.535 23.269 41.535 22.4369H39.8525ZM37.8503 24.392V22.7095H27.9098V24.392V26.0745H37.8503V24.392ZM29.1583 22.0364V23.719H36.6018V22.0364V20.3539H29.1583V22.0364ZM36.6018 22.0364V23.719C36.9789 23.719 37.5708 23.6236 38.0565 23.1378C38.5423 22.6521 38.6377 22.0602 38.6377 21.6831H36.9551H35.2726C35.2726 21.5415 35.3091 21.1263 35.6771 20.7584C36.045 20.3904 36.4602 20.3539 36.6018 20.3539V22.0364ZM36.9551 21.6831H38.6377V20.7409H36.9551H35.2726V21.6831H36.9551ZM36.9551 20.7409V19.0583H28.8049V20.7409V22.4234H36.9551V20.7409ZM28.8049 20.7409H27.1224V21.6831H28.8049H30.4875V20.7409H28.8049ZM28.8049 21.6831H27.1224C27.1224 22.0602 27.2178 22.6521 27.7035 23.1378C28.1892 23.6236 28.7811 23.719 29.1583 23.719V22.0364V20.3539C29.2998 20.3539 29.7151 20.3904 30.083 20.7584C30.4509 21.1263 30.4875 21.5415 30.4875 21.6831H28.8049ZM52.6939 12.1902V10.5077H51.0114V12.1902H52.6939ZM58.3708 14.9462L58.1484 13.2784L58.1365 13.2801L58.3708 14.9462ZM59.5722 16.0298L61.2464 15.8624L61.2458 15.8566L59.5722 16.0298ZM58.7242 17.4667L58.9945 19.1273L59.0023 19.1261L59.01 19.1247L58.7242 17.4667ZM52.6939 9.71689H51.0114V11.3994H52.6939V9.71689ZM60.9148 12.1196H62.5974V10.437H60.9148V12.1196ZM60.9148 9.52844V11.211H62.5974V9.52844H60.9148ZM52.6939 12.1902H51.0114V14.7107H52.6939H54.3765V12.1902H52.6939ZM52.6939 14.7107H51.0114C51.0114 15.0265 51.0491 15.7456 51.6249 16.3215C52.2007 16.8973 52.9199 16.935 53.2357 16.935V15.2524V13.5699C53.1511 13.5699 53.5994 13.5369 54.0044 13.942C54.4094 14.347 54.3765 14.7953 54.3765 14.7107H52.6939ZM53.2357 15.2524V16.935C54.9294 16.935 56.9926 16.8391 58.6051 16.6124L58.3708 14.9462L58.1365 13.2801C56.734 13.4773 54.8398 13.5699 53.2357 13.5699V15.2524ZM58.3708 14.9462L58.5932 16.614C58.554 16.6192 58.4636 16.6228 58.3451 16.5857C58.2246 16.5481 58.1185 16.4819 58.0379 16.4036C57.8857 16.2559 57.8922 16.1413 57.8986 16.2029L59.5722 16.0298L61.2458 15.8566C61.1815 15.2352 60.9406 14.5317 60.3821 13.9894C59.7805 13.4052 58.9716 13.1687 58.1485 13.2784L58.3708 14.9462ZM59.5722 16.0298L57.898 16.1972C57.9131 16.3486 57.8735 16.3149 57.9434 16.1826C57.9844 16.105 58.0562 16.0102 58.1659 15.9306C58.2761 15.8505 58.3789 15.8188 58.4383 15.8086L58.7242 17.4667L59.01 19.1247C59.8672 18.977 60.5398 18.4713 60.9183 17.7555C61.2591 17.1109 61.3019 16.4176 61.2463 15.8624L59.5722 16.0298ZM58.7242 17.4667L58.4538 15.806C57.5805 15.9482 55.4072 16.1139 51.7753 16.1139V17.7964V19.479C55.4455 19.479 57.842 19.315 58.9945 19.1273L58.7242 17.4667ZM51.7753 17.7964V16.1139C51.4718 16.1139 51.3163 16.0886 51.2509 16.0715C51.2007 16.0584 51.2803 16.0705 51.3814 16.1687C51.4847 16.2691 51.5044 16.3563 51.4956 16.3244C51.4816 16.2741 51.4556 16.1334 51.4556 15.8413H49.773H48.0905C48.0905 16.6734 48.2065 17.7758 49.0363 18.5821C49.852 19.3747 50.9494 19.479 51.7753 19.479V17.7964ZM49.773 15.8413H51.4556V6.11289H49.773H48.0905V15.8413H49.773ZM49.773 6.11289H51.4556C51.4556 5.82084 51.4816 5.68013 51.4956 5.62983C51.5044 5.59791 51.4847 5.68507 51.3814 5.78552C51.2803 5.88373 51.2007 5.89578 51.2509 5.8827C51.3163 5.86563 51.4718 5.84032 51.7753 5.84032V4.15778V2.47524C50.9494 2.47524 49.852 2.57949 49.0363 3.37214C48.2065 4.17844 48.0905 5.2808 48.0905 6.11289H49.773ZM51.7753 4.15778V5.84032H57.7348V4.15778V2.47524H51.7753V4.15778ZM57.7348 4.15778V5.84032C57.6866 5.84032 57.5855 5.82925 57.4644 5.76951C57.3427 5.70949 57.2507 5.62491 57.1906 5.5444C57.0843 5.4021 57.1123 5.32973 57.1123 5.42978H58.7948H60.4774C60.4774 4.84671 60.3405 4.13834 59.8867 3.53082C59.3856 2.85987 58.6142 2.47524 57.7348 2.47524V4.15778ZM58.7948 5.42978H57.1123C57.1123 5.52982 57.0843 5.45745 57.1906 5.31515C57.2507 5.23464 57.3427 5.15006 57.4644 5.09005C57.5855 5.0303 57.6866 5.01924 57.7348 5.01924V6.70178V8.38432C58.6142 8.38432 59.3856 7.99969 59.8867 7.32874C60.3405 6.72121 60.4774 6.01284 60.4774 5.42978H58.7948ZM57.7348 6.70178V5.01924H53.2357V6.70178V8.38432H57.7348V6.70178ZM53.2357 6.70178V5.01924C52.9199 5.01924 52.2007 5.05695 51.6249 5.63276C51.0491 6.20858 51.0114 6.92776 51.0114 7.24355H52.6939H54.3765C54.3765 7.15891 54.4094 7.6072 54.0044 8.01223C53.5994 8.41727 53.1511 8.38432 53.2357 8.38432V6.70178ZM52.6939 7.24355H51.0114V9.71689H52.6939H54.3765V7.24355H52.6939ZM52.6939 9.71689V11.3994H56.5806V9.71689V8.03435H52.6939V9.71689ZM56.5806 9.71689V11.3994C56.5179 11.3994 56.4089 11.3848 56.2848 11.3224C56.1615 11.2604 56.0714 11.1754 56.0137 11.0978C55.9115 10.9604 55.9345 10.8881 55.9345 10.9653H57.6171H59.2996C59.2996 10.383 59.1577 9.68653 58.714 9.0898C58.2261 8.4336 57.4665 8.03435 56.5806 8.03435V9.71689ZM57.6171 10.9653H55.9345C55.9345 11.0196 55.9168 10.9408 56.0199 10.804C56.0778 10.7271 56.1671 10.6439 56.2882 10.5834C56.4103 10.5223 56.5179 10.5077 56.5806 10.5077V12.1902V13.8728C57.4649 13.8728 58.2207 13.4753 58.7078 12.8286C59.1524 12.2383 59.2996 11.5471 59.2996 10.9653H57.6171ZM56.5806 12.1902V10.5077H52.6939V12.1902V13.8728H56.5806V12.1902ZM60.9148 12.1196V10.437H59.4544V12.1196V13.8021H60.9148V12.1196ZM59.4544 12.1196V10.437C59.5208 10.437 59.6432 10.4524 59.7834 10.5247C59.9242 10.5974 60.0237 10.697 60.0844 10.7843C60.1877 10.9326 60.1476 10.9896 60.1476 10.824H58.465H56.7825C56.7825 11.3886 56.8955 12.0934 57.3227 12.707C57.8061 13.4013 58.5744 13.8021 59.4544 13.8021V12.1196ZM58.465 10.824H60.1476C60.1476 10.6584 60.1877 10.7154 60.0844 10.8637C60.0237 10.951 59.9242 11.0506 59.7834 11.1233C59.6432 11.1956 59.5208 11.211 59.4544 11.211V9.52844V7.8459C58.5744 7.8459 57.8061 8.24673 57.3227 8.94104C56.8955 9.55464 56.7825 10.2594 56.7825 10.824H58.465ZM59.4544 9.52844V11.211H60.9148V9.52844V7.8459H59.4544V9.52844ZM60.9148 9.52844H62.5974V3.96933H60.9148H59.2323V9.52844H60.9148ZM60.9148 3.96933H62.5974C62.5974 4.01475 62.5859 4.1045 62.533 4.20883C62.481 4.31124 62.4118 4.38299 62.3542 4.42614C62.2561 4.49971 62.2232 4.47409 62.3046 4.47409V2.79155V1.10901C61.6793 1.10901 60.9515 1.27184 60.3352 1.73408C59.6644 2.23715 59.2323 3.02445 59.2323 3.96933H60.9148ZM62.3046 2.79155V4.47409C62.3637 4.47409 62.3244 4.49447 62.227 4.42058C62.17 4.37734 62.1023 4.30637 62.0515 4.20586C61.9997 4.10326 61.9883 4.01479 61.9883 3.96933H63.6708H65.3534C65.3534 3.02583 64.9228 2.24185 64.2608 1.73965C63.651 1.27708 62.9286 1.10901 62.3046 1.10901V2.79155ZM63.6708 3.96933H61.9883V20.9764H63.6708H65.3534V3.96933H63.6708ZM63.6708 20.9764H61.9883C61.9883 20.931 61.9997 20.8425 62.0515 20.7399C62.1023 20.6394 62.17 20.5684 62.227 20.5252C62.3244 20.4513 62.3637 20.4717 62.3046 20.4717V22.1542V23.8368C62.9286 23.8368 63.651 23.6687 64.2608 23.2061C64.9228 22.7039 65.3534 21.9199 65.3534 20.9764H63.6708ZM62.3046 22.1542V20.4717C62.2232 20.4717 62.2561 20.4461 62.3542 20.5196C62.4118 20.5628 62.481 20.6345 62.533 20.7369C62.5859 20.8413 62.5974 20.931 62.5974 20.9764H60.9148H59.2323C59.2323 21.9213 59.6644 22.7086 60.3352 23.2117C60.9515 23.6739 61.6793 23.8368 62.3046 23.8368V22.1542ZM60.9148 20.9764H62.5974V12.1196H60.9148H59.2323V20.9764H60.9148ZM65.2019 21.9658H66.8845V3.73378H65.2019H63.5194V21.9658H65.2019ZM65.2019 3.73378H66.8845C66.8845 3.7792 66.8731 3.86895 66.8201 3.97327C66.7682 4.07568 66.6989 4.14743 66.6413 4.19059C66.5433 4.26415 66.5103 4.23854 66.5917 4.23854V2.556V0.873459C65.9664 0.873459 65.2386 1.03629 64.6223 1.49852C63.9515 2.0016 63.5194 2.7889 63.5194 3.73378H65.2019ZM66.5917 2.556V4.23854C66.6731 4.23854 66.6402 4.26415 66.5421 4.19059C66.4845 4.14743 66.4153 4.07568 66.3633 3.97327C66.3104 3.86895 66.299 3.7792 66.299 3.73378H67.9815H69.664C69.664 2.7889 69.2319 2.0016 68.5611 1.49852C67.9448 1.03629 67.217 0.873459 66.5917 0.873459V2.556ZM67.9815 3.73378H66.299V21.9658H67.9815H69.664V3.73378H67.9815ZM67.9815 21.9658H66.299C66.299 21.9204 66.3104 21.8306 66.3633 21.7263C66.4153 21.6239 66.4845 21.5521 66.5421 21.509C66.6402 21.4354 66.6731 21.461 66.5917 21.461V23.1436V24.8261C67.217 24.8261 67.9448 24.6633 68.5611 24.201C69.2319 23.698 69.664 22.9107 69.664 21.9658H67.9815ZM66.5917 23.1436V21.461C66.5103 21.461 66.5433 21.4354 66.6413 21.509C66.6989 21.5521 66.7682 21.6239 66.8201 21.7263C66.8731 21.8306 66.8845 21.9204 66.8845 21.9658H65.2019H63.5194C63.5194 22.9107 63.9515 23.698 64.6223 24.201C65.2386 24.6633 65.9664 24.8261 66.5917 24.8261V23.1436ZM88.1252 12.52L87.3015 13.9872L87.3081 13.9908L88.1252 12.52ZM88.3843 14.3102L89.827 15.1759L89.8324 15.167L89.8376 15.158L88.3843 14.3102ZM86.6176 14.8756L85.8024 16.3474L85.8127 16.3531L85.8231 16.3587L86.6176 14.8756ZM82.4483 12.4022L81.5313 13.8129L81.5332 13.8141L82.4483 12.4022ZM80.2341 10.1173L81.8782 9.75991L81.5901 8.43479H80.2341V10.1173ZM80.2105 10.1173V8.43479H78.872L78.5711 9.739L80.2105 10.1173ZM77.9727 12.4729L78.8879 13.8848L78.8897 13.8836L77.9727 12.4729ZM73.8034 14.9462L74.5979 16.4293L74.6083 16.4238L74.6186 16.4181L73.8034 14.9462ZM72.0367 14.3573L70.594 15.223L70.5988 15.2311L70.6038 15.2391L72.0367 14.3573ZM72.2958 12.52L73.113 13.9908L73.1195 13.9871L72.2958 12.52ZM76.4181 10.0702L77.3244 11.4878L77.3321 11.4828L76.4181 10.0702ZM84.003 10.0702L83.0889 11.4829L83.0966 11.4878L84.003 10.0702ZM88.1252 12.52L87.3081 13.9908C87.1901 13.9253 87.0866 13.8219 87.0183 13.702C86.9557 13.5921 86.9425 13.5043 86.9397 13.4692C86.9369 13.4347 86.9417 13.4267 86.9382 13.4413C86.9347 13.4553 86.9297 13.4646 86.9309 13.4624L88.3843 14.3102L89.8376 15.158C90.1561 14.612 90.3508 13.9136 90.2941 13.202C90.2343 12.4511 89.8666 11.5627 88.9423 11.0492L88.1252 12.52ZM88.3843 14.3102L86.9415 13.4446C86.9584 13.4164 86.9868 13.3841 87.0527 13.3607C87.0908 13.3472 87.1472 13.3353 87.2174 13.3393C87.2906 13.3434 87.3588 13.3639 87.4121 13.3924L86.6176 14.8756L85.8231 16.3587C87.4627 17.237 89.1309 16.3361 89.827 15.1759L88.3843 14.3102ZM86.6176 14.8756L87.4328 13.4037C85.9222 12.567 84.592 11.7866 83.3634 10.9903L82.4483 12.4022L81.5332 13.8141C82.8485 14.6667 84.2508 15.4881 85.8024 16.3474L86.6176 14.8756ZM82.4483 12.4022L83.3652 10.9915C82.7405 10.5854 82.3314 10.2345 82.0863 9.97141C81.8112 9.67619 81.8438 9.60163 81.8782 9.75991L80.2341 10.1173L78.5899 10.4748C78.7421 11.1748 79.1751 11.7834 79.6244 12.2655C80.1036 12.7798 80.7427 13.3003 81.5313 13.8129L82.4483 12.4022ZM80.2341 10.1173V8.43479H80.2105V10.1173V11.7999H80.2341V10.1173ZM80.2105 10.1173L78.5711 9.739C78.5906 9.6542 78.5888 9.75978 78.3295 10.0421C78.0856 10.3076 77.6808 10.6559 77.0558 11.0622L77.9727 12.4729L78.8897 13.8836C79.6779 13.3712 80.3214 12.848 80.8078 12.3185C81.2787 11.8058 81.6891 11.1929 81.85 10.4957L80.2105 10.1173ZM77.9727 12.4729L77.0576 11.061C75.829 11.8573 74.4988 12.6377 72.9882 13.4744L73.8034 14.9462L74.6186 16.4181C76.1702 15.5587 77.5725 14.7374 78.8879 13.8848L77.9727 12.4729ZM73.8034 14.9462L73.0089 13.4631C73.0587 13.4364 73.1287 13.4139 73.2096 13.4094C73.2878 13.4051 73.3516 13.4189 73.395 13.4349C73.473 13.4636 73.4814 13.4946 73.4697 13.4755L72.0367 14.3573L70.6038 15.2391C71.2971 16.3657 72.924 17.3261 74.5979 16.4293L73.8034 14.9462ZM72.0367 14.3573L73.4795 13.4917C73.4815 13.4951 73.4768 13.4871 73.4735 13.4733C73.47 13.459 73.4742 13.4647 73.4716 13.4948C73.469 13.5252 73.4567 13.6058 73.3977 13.7089C73.3335 13.8213 73.2335 13.9239 73.113 13.9908L72.2958 12.52L71.4787 11.0492C70.5555 11.5621 70.1838 12.4536 70.119 13.2058C70.0568 13.9273 70.2495 14.6489 70.594 15.223L72.0367 14.3573ZM72.2958 12.52L73.1195 13.9871C74.4753 13.226 75.8491 12.431 77.3244 11.4878L76.4181 10.0702L75.5117 8.65265C74.1132 9.54677 72.8017 10.3065 71.4722 11.0529L72.2958 12.52ZM76.4181 10.0702L77.3321 11.4828C78.2931 10.861 79.0813 10.1181 79.6151 9.17093C80.153 8.21675 80.3619 7.18094 80.3619 6.08933H78.6794H76.9969C76.9969 6.74084 76.8761 7.17725 76.6836 7.51863C76.4873 7.86702 76.1448 8.24302 75.504 8.65761L76.4181 10.0702ZM78.6794 6.08933H80.3619V4.84089H78.6794H76.9969V6.08933H78.6794ZM78.6794 4.84089H80.3619C80.3619 4.85094 80.3585 4.91738 80.3136 5.00785C80.2688 5.09824 80.2068 5.16397 80.1541 5.20347C80.1062 5.23944 80.0792 5.24436 80.0939 5.24019C80.1084 5.23606 80.1475 5.22787 80.2105 5.22787V3.54533V1.86279C79.5583 1.86279 78.7876 2.02205 78.1351 2.51141C77.4215 3.04658 76.9969 3.87283 76.9969 4.84089H78.6794ZM80.2105 3.54533V5.22787C80.2735 5.22787 80.3126 5.23606 80.3271 5.24019C80.3418 5.24436 80.3148 5.23944 80.2669 5.20347C80.2142 5.16397 80.1522 5.09824 80.1074 5.00785C80.0626 4.91738 80.0591 4.85094 80.0591 4.84089H81.7416H83.4242C83.4242 3.87283 82.9995 3.04658 82.2859 2.51141C81.6334 2.02205 80.8627 1.86279 80.2105 1.86279V3.54533ZM81.7416 4.84089H80.0591V6.08933H81.7416H83.4242V4.84089H81.7416ZM81.7416 6.08933H80.0591C80.0591 7.18094 80.2681 8.21675 80.8059 9.17093C81.3397 10.1181 82.1279 10.861 83.0889 11.4828L84.003 10.0702L84.917 8.65761C84.2763 8.24302 83.9337 7.86702 83.7374 7.51863C83.545 7.17725 83.4242 6.74084 83.4242 6.08933H81.7416ZM84.003 10.0702L83.0966 11.4878C84.5719 12.431 85.9457 13.226 87.3015 13.9871L88.1252 12.52L88.9488 11.0529C87.6193 10.3065 86.3078 9.54677 84.9093 8.65265L84.003 10.0702ZM89.1145 21.212V19.5295H71.3065V21.212V22.8945H89.1145V21.212ZM71.3065 21.212V19.5295C71.3547 19.5295 71.4558 19.5405 71.577 19.6003C71.6987 19.6603 71.7906 19.7449 71.8508 19.8254C71.957 19.9677 71.929 20.04 71.929 19.94H70.2465H68.564C68.564 20.5231 68.7009 21.2314 69.1546 21.839C69.6557 22.5099 70.4271 22.8945 71.3065 22.8945V21.212ZM70.2465 19.94H71.929C71.929 19.8178 71.9617 19.8837 71.8568 20.0259C71.7969 20.107 71.7042 20.1935 71.5803 20.2549C71.4572 20.3159 71.3546 20.327 71.3065 20.327V18.6444V16.9619C70.4256 16.9619 69.6503 17.3482 69.1486 18.0286C68.6962 18.6419 68.564 19.3555 68.564 19.94H70.2465ZM71.3065 18.6444V20.327H89.1145V18.6444V16.9619H71.3065V18.6444ZM89.1145 18.6444V20.327C89.0664 20.327 88.9638 20.3159 88.8407 20.2549C88.7168 20.1935 88.6241 20.107 88.5642 20.0259C88.4593 19.8837 88.492 19.8178 88.492 19.94H90.1745H91.857C91.857 19.3555 91.7248 18.6419 91.2725 18.0286C90.7707 17.3482 89.9954 16.9619 89.1145 16.9619V18.6444ZM90.1745 19.94H88.492C88.492 20.04 88.464 19.9677 88.5703 19.8254C88.6304 19.7449 88.7224 19.6603 88.8441 19.6003C88.9652 19.5405 89.0663 19.5295 89.1145 19.5295V21.212V22.8945C89.9939 22.8945 90.7653 22.5099 91.2664 21.839C91.7201 21.2314 91.857 20.5231 91.857 19.94H90.1745ZM96.7266 8.56267H95.0441V10.2452H96.7266V8.56267ZM96.7266 11.0124V9.3299H95.0441V11.0124H96.7266ZM96.7266 6.96089H95.0441V8.56267H96.7266H98.4092V6.96089H96.7266ZM96.7266 8.56267V10.2452H107.256V8.56267V6.88013H96.7266V8.56267ZM107.256 8.56267V10.2452C107.208 10.2452 107.109 10.2341 106.992 10.177C106.875 10.1198 106.785 10.0389 106.724 9.95996C106.616 9.81855 106.633 9.7333 106.633 9.78756H108.316H109.999C109.999 9.20581 109.851 8.50811 109.395 7.91326C108.896 7.2615 108.132 6.88013 107.256 6.88013V8.56267ZM108.316 9.78756H106.633C106.633 9.84181 106.616 9.75656 106.724 9.61515C106.785 9.53622 106.875 9.45536 106.992 9.39816C107.109 9.34099 107.208 9.3299 107.256 9.3299V11.0124V12.695C108.132 12.695 108.896 12.3136 109.395 11.6618C109.851 11.067 109.999 10.3693 109.999 9.78756H108.316ZM107.256 11.0124V9.3299H96.7266V11.0124V12.695H107.256V11.0124ZM96.7266 11.0124H95.0441V12.6378H96.7266H98.4092V11.0124H96.7266ZM96.7266 12.6378H95.0441C95.0441 12.9536 95.0818 13.6728 95.6576 14.2486C96.2334 14.8244 96.9526 14.8621 97.2684 14.8621V13.1796V11.497C97.1838 11.497 97.632 11.4641 98.0371 11.8691C98.4421 12.2741 98.4092 12.7224 98.4092 12.6378H96.7266ZM97.2684 13.1796V14.8621H107.845V13.1796V11.497H97.2684V13.1796ZM107.845 13.1796V14.8621C107.797 14.8621 107.696 14.851 107.574 14.7913C107.453 14.7313 107.361 14.6467 107.301 14.5662C107.194 14.4239 107.222 14.3515 107.222 14.4516H108.905H110.587C110.587 13.8685 110.45 13.1601 109.997 12.5526C109.496 11.8816 108.724 11.497 107.845 11.497V13.1796ZM108.905 14.4516H107.222C107.222 14.5516 107.194 14.4792 107.301 14.3369C107.361 14.2564 107.453 14.1718 107.574 14.1118C107.696 14.0521 107.797 14.041 107.845 14.041V15.7236V17.4061C108.724 17.4061 109.496 17.0215 109.997 16.3505C110.45 15.743 110.587 15.0346 110.587 14.4516H108.905ZM107.845 15.7236V14.041H95.7844V15.7236V17.4061H107.845V15.7236ZM95.7844 15.7236V14.041C95.4809 14.041 95.3255 14.0157 95.26 13.9986C95.2098 13.9855 95.2894 13.9976 95.3905 14.0958C95.4939 14.1963 95.5135 14.2834 95.5047 14.2515C95.4908 14.2012 95.4647 14.0605 95.4647 13.7684H93.7822H92.0996C92.0996 14.6005 92.2156 15.7029 93.0454 16.5092C93.8612 17.3018 94.9586 17.4061 95.7844 17.4061V15.7236ZM93.7822 13.7684H95.4647V5.83022H93.7822H92.0996V13.7684H93.7822ZM93.7822 5.83022H95.4647C95.4647 5.53817 95.4908 5.39747 95.5047 5.34717C95.5135 5.31524 95.4939 5.4024 95.3905 5.50285C95.2894 5.60106 95.2098 5.61312 95.26 5.60004C95.3255 5.58296 95.4809 5.55765 95.7844 5.55765V3.87511V2.19257C94.9586 2.19257 93.8612 2.29683 93.0454 3.08948C92.2156 3.89577 92.0996 4.99814 92.0996 5.83022H93.7822ZM95.7844 3.87511V5.55765H107.492V3.87511V2.19257H95.7844V3.87511ZM107.492 3.87511V5.55765C107.443 5.55765 107.342 5.54658 107.221 5.48684C107.099 5.42682 107.007 5.34224 106.947 5.26173C106.841 5.11943 106.869 5.04707 106.869 5.14711H108.552H110.234C110.234 4.56404 110.097 3.85568 109.643 3.24815C109.142 2.5772 108.371 2.19257 107.492 2.19257V3.87511ZM108.552 5.14711H106.869C106.869 5.24716 106.841 5.17479 106.947 5.03249C107.007 4.95198 107.099 4.8674 107.221 4.80738C107.342 4.74764 107.443 4.73657 107.492 4.73657V6.41911V8.10165C108.371 8.10165 109.142 7.71702 109.643 7.04607C110.097 6.43855 110.234 5.73018 110.234 5.14711H108.552ZM107.492 6.41911V4.73657H97.2684V6.41911V8.10165H107.492V6.41911ZM97.2684 6.41911V4.73657C96.9526 4.73657 96.2334 4.77428 95.6576 5.3501C95.0818 5.92591 95.0441 6.64509 95.0441 6.96089H96.7266H98.4092C98.4092 6.87624 98.4421 7.32453 98.0371 7.72957C97.632 8.13461 97.1838 8.10165 97.2684 8.10165V6.41911ZM110.106 21.212V19.5295H92.2982V21.212V22.8945H110.106V21.212ZM92.2982 21.212V19.5295C92.3464 19.5295 92.4475 19.5405 92.5686 19.6003C92.6903 19.6603 92.7823 19.7449 92.8424 19.8254C92.9487 19.9677 92.9207 20.04 92.9207 19.94H91.2382H89.5556C89.5556 20.5231 89.6926 21.2314 90.1463 21.839C90.6474 22.5099 91.4188 22.8945 92.2982 22.8945V21.212ZM91.2382 19.94H92.9207C92.9207 19.8178 92.9534 19.8837 92.8485 20.0259C92.7886 20.107 92.6959 20.1935 92.572 20.2549C92.4489 20.3159 92.3463 20.327 92.2982 20.327V18.6444V16.9619C91.4173 16.9619 90.642 17.3482 90.1402 18.0286C89.6879 18.6419 89.5556 19.3555 89.5556 19.94H91.2382ZM92.2982 18.6444V20.327H110.106V18.6444V16.9619H92.2982V18.6444ZM110.106 18.6444V20.327C110.058 20.327 109.955 20.3159 109.832 20.2549C109.709 20.1935 109.616 20.107 109.556 20.0259C109.451 19.8837 109.484 19.8178 109.484 19.94H111.166H112.849C112.849 19.3555 112.716 18.6419 112.264 18.0286C111.762 17.3482 110.987 16.9619 110.106 16.9619V18.6444ZM111.166 19.94H109.484C109.484 20.04 109.456 19.9677 109.562 19.8254C109.622 19.7449 109.714 19.6603 109.836 19.6003C109.957 19.5405 110.058 19.5295 110.106 19.5295V21.212V22.8945C110.986 22.8945 111.757 22.5099 112.258 21.839C112.712 21.2314 112.849 20.5231 112.849 19.94H111.166Z" fill="#CC6548" mask="url(#path-1-outside-1_21_7095)"/>
<defs>
<linearGradient id="paint0_linear_21_7095" x1="82.7895" y1="8.25" x2="82.7895" y2="33.9167" gradientUnits="userSpaceOnUse">
<stop stop-color="#FFD7CF"/>
<stop offset="1" stop-color="#F26F54"/>
</linearGradient>
</defs>
</svg>
